/* XPM */
static const char *ammo_crate_opened[] = {
/* columns rows colors chars-per-pixel */
"64 64 156 2 ",
"   c #232117",
".  c #2D2717",
"X  c #2C2917",
"o  c #262419",
"O  c #29271A",
"+  c #2D2A1C",
"@  c #302716",
"#  c #332B17",
"$  c #3C2E16",
"%  c #332D1B",
"&  c #392F18",
"*  c #3E3117",
"=  c #35321E",
"-  c #3C321C",
";  c #3F391F",
":  c #272723",
">  c #2C2B23",
",  c #2D2D2A",
"<  c #302F21",
"1  c #2E3021",
"2  c #333322",
"3  c #393A26",
"4  c #35342D",
"5  c #38372F",
"6  c #3D3D2A",
"7  c #333331",
"8  c #393730",
"9  c #3D3C34",
"0  c #3E3E3B",
"q  c #443416",
"w  c #483716",
"e  c #473817",
"r  c #4A3916",
"t  c #43361C",
"y  c #4B361B",
"u  c #45391C",
"i  c #4C3C19",
"p  c #503E17",
"a  c #523D1B",
"s  c #5A3C1D",
"d  c #453C21",
"f  c #403F2B",
"g  c #523E21",
"h  c #583E20",
"j  c #403E34",
"k  c #4F401B",
"l  c #54421B",
"z  c #5A451D",
"x  c #5D4A1E",
"c  c #604D1F",
"v  c #4C4021",
"b  c #43432D",
"n  c #48462F",
"m  c #544621",
"M  c #5B4321",
"N  c #574822",
"B  c #5D4D24",
"V  c #464532",
"C  c #484732",
"Z  c #484730",
"A  c #474832",
"S  c #484830",
"D  c #484831",
"F  c #494831",
"G  c #494931",
"H  c #4A4831",
"J  c #494832",
"K  c #494932",
"L  c #4A4932",
"P  c #4B4932",
"I  c #4A4A32",
"U  c #4A4A33",
"Y  c #4C4A32",
"T  c #4D4B32",
"R  c #4D4A32",
"E  c #4F4C34",
"W  c #4A4A33",
"Q  c #434138",
"!  c #444139",
"~  c #444239",
"^  c #424038",
"/  c #504D35",
"(  c #504D34",
")  c #514E35",
"_  c #524E35",
"`  c #524F35",
"'  c #535036",
"]  c #545036",
"[  c #545037",
"{  c #555137",
"}  c #555137",
"|  c #555237",
" . c #565237",
".. c #565238",
"X. c #575338",
"o. c #585338",
"O. c #585438",
"+. c #585439",
"@. c #595539",
"#. c #5A563A",
"$. c #5B563A",
"%. c #5B573A",
"&. c #5C573A",
"*. c #5D583C",
"=. c #5E593C",
"-. c #5F5A3C",
";. c #5F5A3D",
":. c #604721",
">. c #624E20",
",. c #655122",
"<. c #6A5625",
"1. c #6E5926",
"2. c #645429",
"3. c #695728",
"4. c #715B27",
"5. c #735E28",
"6. c #605A3D",
"7. c #605B3D",
"8. c #605B3E",
"9. c #615C3E",
"0. c #635D3F",
"q. c #635E3F",
"w. c #645E3F",
"e. c #766029",
"r. c #655F40",
"t. c #676041",
"y. c #686141",
"u. c #686242",
"i. c #696242",
"p. c #696342",
"a. c #6A6343",
"s. c #6A6342",
"d. c #6B6443",
"f. c #6B6444",
"g. c #6C6544",
"h. c #6E6645",
"j. c #6E6745",
"k. c #6F6745",
"l. c #6F6846",
"z. c #706846",
"x. c #716947",
"c. c #726A47",
"v. c #756C49",
"b. c #766D49",
"n. c #756D4A",
"m. c #776E4A",
"M. c #786F4A",
"N. c #786F4B",
"B. c #7A704B",
"V. c #7B724C",
"C. c #7B724D",
"Z. c #7C734D",
"A. c #7F754E",
"S. c #80764F",
"D. c #807650",
"F. c #827851",
/* pixels */
"8 8 9 9 9 9 9 9 9 9 9 9 9 9 9 9 9 9 9 9 9 9 9 9 9 9 9 9 9 9 9 9 9 9 9 9 9 9 9 9 9 9 9 9 9 9 8 8 9 9 9 9 9 9 9 9 9 9 9 9 9 9 8 8 ",
"8 8 9 9 9 9 j 9 9 9 9 9 9 9 9 9 9 9 9 9 9 9 9 9 9 9 9 9 9 9 9 9 9 9 9 9 9 9 9 9 9 9 9 9 9 9 9 9 9 9 9 9 9 9 9 9 9 9 9 9 9 9 8 8 ",
"9 9 9 9 9 j ~ 9 9 9 9 9 9 9 9 5 9 9 9 9 9 9 9 9 9 9 9 9 9 9 9 9 9 9 9 9 9 9 9 8 8 9 9 9 9 9 9 9 9 9 9 9 9 9 9 9 9 9 9 9 9 9 9 9 ",
"9 9 9 9 9 9 j 9 9 9 9 9 9 9 9 8 9 9 9 9 9 9 9 9 j 9 9 9 9 9 9 9 9 9 8 9 9 9 9 8 9 9 9 9 9 9 9 9 9 9 9 9 9 9 9 9 9 9 9 9 9 9 9 9 ",
"9 9 9 9 9 9 9 9 9 9 9 9 9 9 9 9 9 9 9 9 9 9 9 9 Q 9 9 9 9 9 9 9 9 9 5 8 9 9 9 9 9 9 9 9 9 9 9 9 9 9 9 9 9 9 9 8 8 9 9 9 9 9 9 9 ",
"9 9 9 9 9 9 9 9 9 9 9 8 9 9 9 9 9 9 9 9 9 9 9 9 9 9 9 9 9 9 9 9 9 9 9 9 9 9 9 9 9 9 9 9 9 9 9 9 8 9 9 9 9 9 9 8 9 9 9 9 9 9 9 9 ",
"9 9 9 9 9 9 9 9 9 9 9 8 8 9 9 9 9 9 9 9 9 9 8 9 9 9 9 9 9 9 9 9 9 9 9 9 9 9 9 9 9 9 9 9 9 9 9 9 5 8 9 9 9 9 9 9 9 9 9 9 9 9 9 9 ",
"9 9 9 9 8 9 9 9 9 9 9 9 9 9 j C C C C C 6 6 6 6 C C C C C C C C C C C C C C C C 6 6 6 6 ^ C C C C j 9 9 9 9 9 9 9 9 9 9 9 9 9 9 ",
"9 9 9 9 5 8 9 9 9 9 9 9 9 9 ^ J J J J J 3 3 3 6 J J J J J J J J J J J J J J J J 6 3 3 3 b J J J J ^ 9 9 9 9 9 9 9 9 9 9 9 9 9 9 ",
"9 9 9 9 9 9 9 9 9 9 9 9 9 C b 6 6 6 6 6 6 6 6 6 6 6 6 6 6 6 6 6 6 6 6 6 6 6 6 6 6 6 6 6 6 6 6 6 6 b Z j 9 9 9 9 9 9 9 8 9 9 9 9 ",
"9 9 9 9 9 9 9 9 9 9 9 9 j J b 6 6 6 6 6 6 6 6 6 6 6 6 6 6 6 6 6 6 6 6 6 6 6 6 6 6 6 6 6 6 6 6 6 6 b J j 9 9 9 9 9 9 9 8 9 9 9 9 ",
"9 9 9 9 9 9 9 9 5 9 9 9 9 J b 6 6 6 6 6 6 6 6 6 6 6 6 6 6 6 6 6 6 6 6 6 6 6 6 6 6 6 6 6 6 6 6 6 6 b J j 9 9 9 9 9 9 9 9 9 9 9 9 ",
"9 9 9 9 9 9 9 9 8 9 9 9 j J b 6 6 6 6 6 6 6 6 6 6 6 6 6 6 6 6 6 6 6 6 6 6 6 6 6 6 6 6 6 6 6 6 6 6 b J j 9 9 9 9 9 9 9 9 9 9 9 9 ",
"9 9 9 9 9 9 9 9 9 9 9 9 j J b 6 6 3 6 6 3 6 6 6 6 6 6 6 6 6 6 6 6 6 6 6 6 3 3 6 6 6 3 3 6 3 6 6 6 b J j 9 9 9 9 9 9 9 9 9 9 9 9 ",
"9 9 9 9 9 9 9 9 9 9 9 9 j J b 6 6 7.b Y %.3 %._ %.6 _ X.X.b  .' E J  . ._ r.7._ _ b a. .b %.n  .3 b J j 9 9 9 9 9 9 9 9 9 9 9 9 ",
"9 9 5 8 9 9 9 9 9 9 9 9 9 J b 3 _ D.*. .F._ S.*.A.%.N.d.k._ k.0.m.0.r.x.Y N.7.%.a.d.r.x.%.Z.*.a.3 b J 9 9 8 5 9 9 9 9 9 9 9 9 9 ",
"9 9 9 9 9 9 9 9 9 9 9 9 9 J b 3 0.t.a. .Z.N.Z.%.m.C.C.0.a.Y d.*.B.C.*.k.6 a.Y ' r.d.b a.%.B.C.w.3 b J j 9 9 8 9 9 9 9 9 9 9 9 9 ",
"9 9 9 9 9 9 9 9 9 9 9 9 j J b 3 k.m.m.7.x.f.x.0.k.k.a.a.k.*.l.w.a.m.r.x.b k._  .a.d.*.k.&.k.l.k.3 b J j 9 9 9 9 9 9 9 9 9 9 9 9 ",
"9 9 9 9 9 9 9 9 9 8 8 9 j J b 6 %.b %. . .6  .' X.6 Y  .Z a._ Y ' _  .%.6 o.b J  .b a. .b %.Z X.6 b J Q j 9 9 9 9 9 9 Q 9 9 9 9 ",
"9 9 9 9 9 9 9 9 9 8 8 9 j J b 6 6 6 6 6 6 6 6 6 6 6 6 6 6 3 6 6 6 6 6 6 6 6 6 6 6 6 3 6 6 6 6 6 6 b J ^ 9 9 9 9 9 9 j ~ 9 9 9 9 ",
"9 9 9 9 8 9 9 9 9 9 9 9 j J b 6 6 6 6 6 6 6 6 6 6 6 6 6 6 6 6 6 6 6 6 6 6 6 6 6 6 6 6 6 6 6 6 6 6 b J j 9 8 8 9 9 9 9 9 9 9 9 9 ",
"9 9 9 9 9 9 9 9 9 9 9 9 9 J b 6 6 6 6 6 6 6 6 6 6 6 6 6 6 6 6 6 6 6 6 6 6 6 6 6 6 6 6 6 6 6 6 6 6 b J j 9 8 8 9 9 9 9 9 9 9 9 9 ",
"9 9 9 j ~ j 9 9 9 9 9 9 j J b 6 6 6 6 6 6 6 6 6 6 6 6 6 6 6 6 6 6 6 6 6 6 6 6 6 6 6 6 6 6 6 6 6 6 b J j 9 9 9 9 9 9 9 9 9 9 9 9 ",
"9 9 9 9 j 9 9 9 9 9 9 9 9 b 6 3 3 3 3 3 3 3 3 3 3 3 3 3 3 3 3 3 3 3 3 3 3 3 3 3 3 3 3 3 3 3 3 3 3 6 6 9 9 9 9 9 9 9 9 9 9 9 9 9 ",
"9 9 9 9 9 9 9 9 9 9 9 9 9 2 2 2 2 2 2 2 2 2 2 2 2 2 2 2 2 2 2 2 2 2 2 2 2 2 2 2 2 2 2 2 2 2 2 2 2 2 2 9 9 9 9 9 9 8 8 9 9 9 9 9 ",
"9 9 9 9 9 9 9 9 9 8 8 9 9 5 5 5 5 5 < > > > > 2 5 5 5 5 5 5 5 5 5 5 5 5 5 5 5 5 2 > > > > > 5 5 5 5 5 9 9 9 9 9 9 9 9 9 9 9 9 9 ",
"9 9 9 9 9 9 9 9 9 8 8 9 9 9 9 9 9 9 , : : : : , 9 9 9 9 9 9 9 9 9 9 9 9 9 9 9 9 , : : : : : 9 9 9 9 9 9 9 9 9 9 9 9 9 9 9 9 9 9 ",
"9 9 8 9 9 9 9 9 9 9 9 9 j C C C C C C C C ^ b C C C C C C C C C C C C C C C C C C b b b b C C C C C C j 9 8 8 9 9 9 9 9 9 9 9 9 ",
"9 9 8 8 9 9 9 9 9 9 9 9 j J S C C J J J J J J J J J J J J C C C C C C C C C C Z J J J J J J C C C J J j 9 8 8 9 9 9 9 9 9 9 9 9 ",
"9 9 9 9 9 9 9 9 9 9 9 9 9 J 6 2 2 2 2 2 2 2 2 2 2 2 2 2 2 2 2 2 2 2 2 2 2 2 2 2 2 2 2 2 2 2 2 2 2 f J 9 9 9 9 9 9 9 8 8 9 9 9 9 ",
"9 9 9 9 9 9 9 9 9 9 9 9 9 J 6 2 2 2 = = = = = = = = = + + + + + 2 2 + + + % = = = = = = = = = = > 6 J j 9 9 9 9 9 9 9 8 9 9 9 9 ",
"9 9 9 9 9 9 9 9 9 9 9 9 9 J b 2 2 2 l r x >.>.>.>.>.z u d - - - + % t - v i p ,.>.>.>.>.>.z i m 1 b J j 9 9 9 9 9 9 9 9 9 9 9 9 ",
"9 9 9 9 8 9 9 9 9 9 9 9 j J b + % + 2.l <.1.1.1.1.1.z ,.5.z s y O % a z 5.c x 4.1.1.1.1.1.>.z 2.+ b Y j 9 9 9 9 9 9 9 9 9 9 9 9 ",
"9 9 9 9 8 8 9 9 9 9 9 9 9 W 6 O + o N e e e e e e w r * # # @ # # O O & & * w e e e e w e e p l o 6 J j 9 9 9 9 9 9 9 9 9 9 9 9 ",
"9 9 9 9 8 9 9 9 9 9 9 9 j J 6 O - * e e w w w w w & . . X X # w q O o o O q e w w w w w q e & & O 6 J j 9 9 9 9 9 9 9 9 9 9 9 9 ",
"9 9 9 9 9 9 9 9 9 9 9 9 j J 6 o N l B 5.1.1.1.5.>.l 2.M s s e >.e % a g 3.c z 5.1.1.4.<.p B O O O 6 J 9 9 9 9 9 9 9 9 9 9 9 9 9 ",
"9 9 9 9 9 9 9 9 9 8 8 9 j J 6 o B z l >.x c c c z z c a y - i 5.p & - a c l l c x x >.z p 3.O O O 6 J j 9 8 8 9 9 9 9 9 9 8 9 9 ",
"9 9 9 9 9 9 9 9 9 8 8 9 9 J 6 o u r q q q q q q e & + + . o i 4.l $ O + + # q q q q q q e i O O O 6 J j 9 8 8 9 9 9 9 9 9 8 9 9 ",
"9 9 9 9 9 9 8 9 9 9 9 9 9 J 6 O + + r w l l l l l l i - + + & <.l * + + + % % $ p l l l l i e u o 6 J j 9 9 9 9 9 Q 9 9 9 9 9 9 ",
"9 9 9 9 9 9 8 9 9 9 9 9 j J 6 O + O ,.l <.5.5.5.5.e.x ,.5.M s M l * % h s :.5.z ,.e.5.5.e.,.l B o 6 J j 9 9 9 9 9 Q j 9 9 9 9 9 ",
"9 9 9 9 9 9 9 9 9 9 9 9 9 J 6 O O O B i r p p p p p i r r q q 4.l $ O % $ q i r i p p p l w p N   6 J j 9 9 9 9 9 9 9 9 9 9 9 9 ",
"9 9 9 9 9 9 9 9 9 9 9 9 9 J f 2 2 2 u u t t t t t t u = > < ; 2.l t 2 2 2 2 < - t t t u u t u d + f J j 9 9 9 9 9 9 9 9 9 9 9 9 ",
"9 9 Q j 9 9 9 9 9 9 9 9 j J J J J J J J J J J J W J W J J J J S J J J J W J J J J J J J J J J J J J J j 9 9 9 9 9 9 9 9 9 9 9 9 ",
"9 9 j 9 9 9 9 9 9 9 9 9 9 6 f b b b b b b b b b b b b b b b b b b b b b b b b b b b b b b b b b b 6 6 9 9 9 9 9 9 9 9 9 9 9 9 9 ",
"9 9 9 9 9 9 9 9 9 8 5 9 8 2 3 3 3 3 3 3 3 3 3 3 3 3 3 3 3 3 3 3 3 3 3 3 3 3 3 3 3 3 3 3 3 3 3 3 3 3 2 5 9 8 8 9 9 9 9 9 9 9 9 9 ",
"9 9 9 9 9 9 9 9 9 8 9 9 9 2 2 3 2 2 2 2 2 2 2 2 2 3 2 2 2 2 2 2 2 2 2 2 2 2 2 2 2 2 2 2 2 3 3 2 3 2 2 9 9 9 9 9 9 9 9 8 9 9 9 9 ",
"9 9 9 9 9 9 9 9 9 9 9 9 9 2 2 2 2 2 2 2 2 2 2 2 2 2 2 2 2 2 2 2 2 2 2 2 2 2 2 2 2 2 2 2 2 2 2 2 2 2 2 8 9 9 9 9 9 9 9 5 9 9 9 9 ",
"9 9 9 9 9 8 8 9 9 9 9 9 9 2 2 3 3 3 3 3 3 3 3 3 3 3 3 3 3 3 3 3 3 3 3 3 3 3 3 3 3 3 3 3 3 3 3 3 3 3 2 5 9 9 9 9 9 9 9 9 9 9 9 9 ",
"9 9 9 9 9 8 8 9 9 9 9 9 9 2 3 6 3 6 3 3 3 6 6 3 3 3 3 6 3 3 6 6 6 6 3 3 3 3 6 3 3 3 3 3 3 3 3 6 6 3 2 5 9 9 9 9 9 9 9 9 9 9 9 9 ",
"9 9 9 9 9 9 9 9 9 9 9 9 8 , , , 2 2 2 2 2 2 2 2 2 2 2 2 2 2 2 2 2 2 2 2 2 2 2 2 2 2 2 2 2 2 2 2 , , , 8 9 9 9 9 9 9 9 9 9 9 9 9 ",
"9 9 9 9 9 9 9 9 9 9 9 9 8 , , 4 2 2 2 2 2 2 2 2 2 2 2 2 2 2 2 2 2 2 2 2 2 2 2 2 2 2 2 2 2 2 2 2 7 , , 8 9 9 9 9 9 9 9 9 9 9 9 9 ",
"9 9 8 8 9 9 9 9 9 9 9 9 8 , 7 0 7 , 6 6 6 6 6 6 6 6 6 6 6 6 6 6 6 6 3 6 6 6 6 6 6 6 6 6 6 6 , 7 0 7 , 8 9 8 8 9 9 9 9 9 9 9 9 9 ",
"9 9 8 8 9 9 9 9 9 9 9 9 8 , 7 9 4 , 3 3 3 3 3 3 3 3 3 3 3 3 3 3 3 3 3 3 3 3 3 3 3 3 3 3 3 4 , 7 9 4 , 8 9 8 8 9 9 9 9 9 9 9 9 9 ",
"9 9 9 9 9 9 9 9 9 9 9 9 8 , , , , , > 2 2 2 2 2 2 2 2 2 2 2 2 2 2 2 2 2 2 2 2 2 2 2 2 2 2 2 , , , , , 8 9 9 9 9 9 9 8 5 9 9 9 9 ",
"9 9 9 9 9 9 9 9 9 9 9 9 8 4 4 4 4 4 2 2 3 4 2 3 2 2 2 2 3 2 3 3 2 2 2 3 3 3 3 3 2 2 2 2 3 4 4 4 4 4 4 8 9 9 9 9 9 9 9 8 9 9 9 9 ",
"9 9 9 9 9 9 9 9 9 9 9 9 9 5 5 5 5 5 5 5 5 5 5 5 5 5 5 5 5 5 5 5 5 5 5 5 5 5 5 5 5 5 5 5 5 5 5 5 5 5 5 5 8 9 9 9 9 9 9 9 9 9 9 9 ",
"9 9 9 9 9 9 9 9 8 9 9 9 9 8 8 8 8 8 8 8 8 8 8 8 8 8 8 8 5 8 8 8 8 8 8 8 8 8 8 8 8 8 8 8 8 8 8 8 8 8 8 9 9 9 9 9 9 9 9 9 9 9 9 9 ",
"9 9 9 9 9 9 9 8 8 9 9 9 9 9 9 9 9 9 9 9 9 9 9 9 9 9 9 8 8 9 9 9 9 9 9 9 9 9 9 9 9 9 9 9 9 9 9 9 9 9 9 9 9 9 9 9 9 9 9 9 9 9 9 9 ",
"9 9 9 9 9 9 9 9 9 9 9 9 9 9 9 9 9 9 9 9 9 9 9 9 9 9 9 9 9 9 9 9 9 9 9 9 9 9 9 9 9 9 9 9 9 9 9 9 9 9 9 9 9 9 9 9 9 9 9 9 9 8 9 9 ",
"9 9 9 9 9 9 9 9 9 9 9 9 9 9 9 9 9 9 9 9 9 9 9 9 9 9 9 9 9 9 9 9 9 9 9 9 9 9 9 9 9 9 9 9 8 8 9 9 9 9 9 9 9 9 9 9 9 9 9 9 8 8 9 9 ",
"9 9 9 8 8 9 9 9 9 9 9 9 9 9 9 Q 9 9 9 9 9 9 8 8 9 9 9 9 9 9 9 9 9 9 9 9 9 5 8 9 9 9 9 9 9 9 9 9 9 9 9 9 9 9 9 8 8 9 9 9 9 9 9 9 ",
"9 9 9 9 8 9 9 9 9 9 9 9 9 9 9 Q 9 9 9 9 9 9 8 8 9 9 9 9 9 9 9 9 9 9 9 9 9 5 8 9 9 9 9 9 9 9 9 9 9 9 9 9 9 9 9 8 9 9 9 9 9 9 9 9 ",
"8 9 9 9 9 9 9 9 9 9 9 9 9 9 9 9 9 9 9 9 9 9 9 9 9 9 9 9 9 9 9 9 9 9 9 9 9 9 9 9 9 9 9 9 9 9 9 9 9 9 9 9 9 9 9 9 9 9 9 9 9 9 8 8 ",
"8 8 9 9 9 9 9 9 9 9 9 9 9 9 9 9 9 9 9 9 9 9 9 9 9 9 9 9 9 9 9 9 9 9 9 9 9 9 9 9 9 9 9 9 9 9 9 9 9 9 9 9 9 9 9 9 9 9 9 9 9 9 8 8 "
};
