/* XPM */
static const char *ammo_crate_closed[] = {
/* columns rows colors chars-per-pixel */
"64 64 72 1 ",
"  c #2E2F1D",
". c #302F1D",
"X c #2F301E",
"o c #373317",
"O c #383417",
"+ c #32321E",
"@ c #3B361B",
"# c #3D391D",
"$ c #262725",
"% c #2C2C25",
"& c #2C2C2A",
"* c #302F26",
"= c #2F302B",
"- c #353422",
"; c #383723",
": c #3B3A25",
"> c #33332C",
", c #393729",
"< c #3C3C2B",
"1 c #343432",
"2 c #353532",
"3 c #373735",
"4 c #383731",
"5 c #383835",
"6 c #3A3A38",
"7 c #3B3C38",
"8 c #3C3C39",
"9 c #3F3F3D",
"0 c #403B1F",
"q c #403F29",
"w c #3F403C",
"e c #434127",
"r c #444227",
"t c #434228",
"y c #41422A",
"u c #444228",
"i c #44442B",
"p c #44432C",
"a c #47472D",
"s c #48472E",
"d c #48482E",
"f c #48482F",
"g c #4B4A2F",
"h c #4A4930",
"j c #4F4D32",
"k c #40403D",
"l c #524F33",
"z c #545235",
"x c #545237",
"c c #575438",
"v c #595639",
"b c #5B583B",
"n c #5D593B",
"m c #5F5B3C",
"M c #605C3E",
"N c #625D3F",
"B c #635F40",
"V c #655F41",
"C c #666142",
"Z c #686343",
"A c #696344",
"S c #686444",
"D c #6E6746",
"F c #6F6847",
"G c #6F6948",
"H c #736C4B",
"J c #746D4B",
"K c #77704D",
"L c #78714E",
"P c #7C7451",
"I c #807753",
"U c #837A56",
/* pixels */
"@@@@@###@###@@##@@@@#########@@#@#@@@@@@@@##@#@@@@@@###@@@@@@@@@",
"@@@@@@@@@#@@######@@###@@@@##@@###@@@@#@@@@@@##@@@@@#@@@###@@@@@",
"@@@@@##@@#@@#####@@@@#@@@@#@##@###@@@##@@@@@@@#@@@@##@##@@##@@@@",
"@##@@##@@#@@#@@@###@@#@@@###@#####@###@@@@###@@@@@@##@##@@@#@#@#",
"@@#@@@##@@##@@@@@#######@@##@@@@@@@##@@@@@#@#@##@@#@@####@@@##@@",
"@@@#@@#######@@@#@@####@#@####@@@@@#@@@@@@@@#####@#@@##@#@@@###@",
"@####@@@@@@@#@@##@@##@@@##@@#@@###@@@#@@@########@#@@#@@#@####@@",
"@@#@@@@@@Oo@@@@@#@@###@@##@@#@@##@@o@##@@@###@@@@@@@@@@##@##@@@@",
"##@@@@@@@@@@@@@@@@@#@@#@@#@@@@##@@@@@##@###@##@@##@@@@@#####@@##",
"@#@@@@@@@#@##@@@@@##@@#@@##@@@##@####@@@###@##@@###@@#@@#@@##@@@",
"@@@@#@@@@@@#@@@@#@@####@@#@@@@##@#####@@##@@##@@@@##@#@@@@@###@@",
"@@@@#@@@@@@@@####@@####@@##@@@@@###@@#@@@@@@@@@@@#@@@##@@@#@@@@#",
"@##@@@@@@@@@###@@@@@####@###@@@@@@@@###@@@@@@@#@@#@@#@@#@@#@@@@#",
"#@#@#@@@#@@@@@@@#@#@@###@@@##@@@@@@@#@@@@@@##@###@@@#@@##@####@@",
"#@@@@@@#@-------;@@@@o@@@O@#@##@###@@@@@@@###@#@-------###@@##@@",
"@@@@####@*&&&&&&-@@@@o@@#@@#@####@@#@@@@@@@@###-&&&&&&%@@@@@###@",
"@@@@@###@*&5562&,uutteeuuueueuiiuueuuuuuruuuuuu<&2665&%@#@#@@#@@",
"@@#@@@##@%&8k95&<fsaafffffffffffaaaafffaffffaaf<&59k9&%#@@#@#@@@",
"@@@#@@###*&88&>,:::::::::<:::::::::::::::::::::,,>&69&%@##@@@@@@",
"##@@@@###*&75=,<:::::::::::::::::::::::::::::::::,>66&%####@@@@@",
"####@@#@@*&&>aaaaaaaaaasaaaasssaaaaasaaassaaaaaaaaa>&&&##@##@@@@",
"###@@@#@@%%>,piaaaaaaaaiaaaiiaaaaiaaaaiiaaaaaiaaaii<>%%@@@##@##@",
"##@@@##@@  tt::::::::::::::::::::::::::::::::::::::tt  @@@@@@##@",
"##@##@@## Xaattttttttttttttttttttttttttttttttttttttai  @@@@@####",
"@@###@###+-affffffffffffffffffhffffffffffffffffsffffa-+@#@#@@@##",
"#########+-affajGcvZfNCSxjDmCcSVNNmANJJNSvSHbnCNNfffa-+@#@@#@##@",
"##@#@@##@+-asaaNLGNUNIHPHZUAHnKHPJSLvDLxPDPVLZIJDaffa-+@@@@@@@@@",
"##@@@@@@@+-aaqtFFLCUPUGLIPUSHbKFIUZJxCHhPDJcLSUUDtqaa-+@@@###@@@",
"#@@@@@@#@+-aa:uKLIDKJJHKFHPZPGJFHPZJxCHjPSPFJSJPDt:aa-+@@#@@###@",
"#@@#@@##@+-afafNlNmmjvnNxjBxNSxvvNvNjcmhBxNSxvmmnaafa-+##@#####@",
"#@@@###@#--<afffffffffffffffffffffffffffsffffffssffa<--#@@#@@@@@",
"##@@@#@@@*&&>sfffffffffffffffffffffffffffffffffffff,&&%@@@@@@#@@",
"@@@@@@@@@%&2><tiiiiiiiiiiaauiaaaiiiiitiitaaaiiuiit<22&%@@@#####@",
"@@@@@@@@@*&85&>:::::::::::::::::,,::::::::::,:,,:>&69&%@@#######",
"@@#@@##@@*&8832><tttttttttttttttttttttttttttttt<>>388&%@@###@@@#",
"#@#@@#@#@%&8wk3&<ffaaaaffasssfffasssssssafffasf<&3kw8&%@####@@@@",
"##@@@@o#@%&&&&&%>::::::::::::::::::::::::::::::>&&&&&&%@#@@#@@@@",
"@##@@@@@@%$%%%%%-;,;;,,;,,,;;;;;;;,,,;;;;;;;;,;-$%%%%%%@##@@@@##",
"@###@##@@%&222>%%+++++++++++++++++++++X++++++++%%&222&%@@#@@@###",
"@@##@@@@@%&224>%%+++++++++XX++++++++XXX++++++++%%>422&%@@@@#@@##",
"@@#@@@@@@%%&%,,,;;;;;;;;;;;;;;;;;;;;;;;;;,,;;;;;;,,%&&%#@@#@@@##",
"###@@@@@@%%%*---------------------------------------%%%@##@@@@##",
"@@@@@@@@#++;-            .+..X   ...+XX XXX  ......-;++@@@@@#@@#",
"@@###@@@@++;;++-+----+++++++++++++++++++--+++++++--;,++@@@@@@@##",
"###@#@@@@++;,;;,,,,;,,,,,;;;;;,,;;;,,,;;;,,,,;,,;,,,,++@@##@@@##",
"##@@#@@@@%%%-++++++--++++++++++++++++++-+--+++++++--*%*@@###@###",
"#####@@@@%&&%   ..   ...+    .    X....XX    X ..  %&&%@####@###",
"###@##@@@%&2>%%-;;---------;-------;-----------;--%>2&%###@@@###",
"##@@@#@@@%&22&%;;;;,;;;;;,;;;;;;;;;,,,,;;,,;;;,,,%%22&%@#@@@@@@@",
"@@@@##@@#%$%%$%          ..XXXXXX+XXXXX  X  XX   %$%%$%@@@@###@@",
"@@@@#####*%%%%%++.++.++++..++++++++++++++++++++++%%%%%%@@@@##@@@",
"@#@@@####@@@@@@@@@@@@@@@#@@@##@@####@@@@@@##@@@@@##@@@@@#@@@@@@@",
"@@@@@@@#@@@@@@##@@@@@@@@@@@@@##@@@##@@##@@@###@@@@###@@@##@@@@@@",
"@@@@@@@@@@@@@@#@@@###@@@@##@@#######@o@@@###@#@@@@@@###@##@#0#@@",
"@@@@@@@#@@@@@@@@#####@@@@@@@##@##@@#@@@@@###@@#@@@@@@#####@#####",
"@@@@@@@##@@@@@@@@@@@@@@@@@@#@#@@@@@@@@@@@@###@################@@",
"@@@@#@o@@@@#@@##@@@@@#@@@@##@@@#@@@#@@####@####0################",
"@##@@@@@@@@#@@###@@@@#@@@@@@@##@@@@@@#####@####00##########@@@##",
"@@@@@@@#@@##@@@@###@@@#@@@@@@###@@@@############@#######@#######",
"@@@@@@@@@@@##@@@###@o@#@@@@#@@@@@@@##@@##@@#@####@######@#####0q",
"@@@@#@@##@@#@@@@@#@@@@@@@@#@@#@@@@@#@@###@##@#0##########@@###00",
"@#@@##@@@@@@@o@@@#@@#@@#@##@###@@@@#@@@####q###@@#0########0####",
"@@@@@@#@@@@@@@@@##@@@@##@@#@@###@@##@@@###########0###@#####:###",
"@@@@oo@@#@@@###@#@#@@@##@#@@@@@##@#@@@@###############@#########"
};
