/* XPM */
static const char *background64[] = {
/* columns rows colors chars-per-pixel */
"64 64 188 2 ",
"   c #342F14",
".  c #363216",
"X  c #383317",
"o  c #373318",
"O  c #3A3619",
"+  c #3B3619",
"@  c #3A3719",
"#  c #3B3719",
"$  c #3A3618",
"%  c #38341A",
"&  c #39341A",
"*  c #38351A",
"=  c #39351A",
"-  c #38341B",
";  c #39341B",
":  c #39351B",
">  c #3A341A",
",  c #3B341A",
"<  c #3A351A",
"1  c #3B351A",
"2  c #3A341B",
"3  c #3A351B",
"4  c #3B351B",
"5  c #38361A",
"6  c #39361A",
"7  c #39371A",
"8  c #39361B",
"9  c #39371B",
"0  c #3A361A",
"q  c #3B361A",
"w  c #3A371A",
"e  c #3B371A",
"r  c #3A361B",
"t  c #3B361B",
"y  c #3A371B",
"u  c #3B371B",
"i  c #393519",
"p  c #3C351A",
"a  c #3C351B",
"s  c #3C361A",
"d  c #3D361A",
"f  c #3C371A",
"g  c #3D371A",
"h  c #3C361B",
"j  c #3D361B",
"k  c #3C371B",
"l  c #3D371B",
"z  c #3B351C",
"x  c #39361C",
"c  c #39371C",
"v  c #3A361C",
"b  c #3B361C",
"n  c #3A371C",
"m  c #3B371C",
"M  c #3B361D",
"N  c #3A371D",
"B  c #3B371D",
"V  c #3C361C",
"C  c #3C371C",
"Z  c #3D371C",
"A  c #3C361D",
"S  c #3D361D",
"D  c #3C371D",
"F  c #3D371D",
"G  c #3E371C",
"H  c #3F371C",
"J  c #3C371E",
"K  c #3A361A",
"L  c #3A3819",
"P  c #39381B",
"I  c #3A381A",
"U  c #3B381A",
"Y  c #3A381B",
"T  c #3B381B",
"R  c #3B391B",
"E  c #3C381A",
"W  c #3D381A",
"Q  c #3C391A",
"!  c #3D391A",
"~  c #3C381B",
"^  c #3D381B",
"/  c #3C391B",
"(  c #3D391B",
")  c #3E381B",
"_  c #3E391B",
"`  c #3A381C",
"'  c #3B381C",
"]  c #3A391C",
"[  c #3B391C",
"{  c #3A381D",
"}  c #3B381D",
"|  c #3B3A1D",
" . c #3C381C",
".. c #3D381C",
"X. c #3C391C",
"o. c #3D391C",
"O. c #3C381D",
"+. c #3D381D",
"@. c #3C391D",
"#. c #3D391D",
"$. c #3E381C",
"%. c #3E391C",
"&. c #3F391C",
"*. c #3E381D",
"=. c #3E391D",
"-. c #3F391D",
";. c #3C3A1C",
":. c #3D3A1C",
">. c #3C3A1D",
",. c #3D3A1D",
"<. c #3D3B1D",
"1. c #3E3A1C",
"2. c #3F3A1C",
"3. c #3E3B1C",
"4. c #3E3A1D",
"5. c #3F3A1D",
"6. c #3E3B1D",
"7. c #3F3B1D",
"8. c #3C381E",
"9. c #3D381E",
"0. c #3C391E",
"q. c #3D391E",
"w. c #3C391F",
"e. c #3D391F",
"r. c #3E381E",
"t. c #3F381E",
"y. c #3E391E",
"u. c #3F391E",
"i. c #3E391F",
"p. c #3F391F",
"a. c #3C3A1E",
"s. c #3D3A1E",
"d. c #3D3B1E",
"f. c #3C3A1F",
"g. c #3D3A1F",
"h. c #3D3B1F",
"j. c #3E3A1E",
"k. c #3F3A1E",
"l. c #3E3B1E",
"z. c #3F3B1E",
"x. c #3E3A1F",
"c. c #3F3A1F",
"v. c #3E3B1F",
"b. c #3F3B1F",
"n. c #3F3C1E",
"m. c #3E3C1F",
"M. c #3F3C1F",
"N. c #3F3D1F",
"B. c #3D391D",
"V. c #3C3920",
"C. c #3E3A20",
"Z. c #3F3A20",
"A. c #3E3B20",
"S. c #3F3B20",
"D. c #3F3B21",
"F. c #3F3C20",
"G. c #3F3C21",
"H. c #3F3B20",
"J. c #40391E",
"K. c #403A1E",
"L. c #403B1E",
"P. c #403A1F",
"I. c #403B1F",
"U. c #413B1F",
"Y. c #403C1E",
"T. c #403C1F",
"R. c #403B1F",
"E. c #403A20",
"W. c #413A20",
"Q. c #403B20",
"!. c #413B20",
"~. c #403B21",
"^. c #403C20",
"/. c #413C20",
"(. c #403D20",
"). c #413D20",
"_. c #403C21",
"`. c #413C21",
"'. c #403D21",
"]. c #413D21",
"[. c #423C20",
"{. c #423C21",
"}. c #423E21",
"|. c #413C22",
" X c #413D22",
".X c #423D22",
"XX c #423E22",
"oX c #413C21",
/* pixels */
"Z B e e 8.Q Q 8.e 8.I 8.Z k 8.A.e Z e 8.8.Z 8.8.8.8.8.B 8.e 8.8.e 8.e e Z e k e e e 8.8.Z 8.e B e 8.e I 8.I.8.8.e e e 8.} e 8.Z ",
"e . o k e B e . } 8.B e 8.8.8.8.8.8.e I 8.Z 8.e B e Z 8.T.B e 8.8.8.e e * Z 8.e e 8.e e e 8.Q e e 8.e e B e Z e 8.8.T.. B e X 8.",
"Z Q e 8.Z 8.8.e e 8.e . 8.8.8.I I.e e . e 8.e X X B Q e Q e k 8.k A.e e e 8.8.e Z e * e k e 8.B 8.e o (.(.* 8.8.e k 8.F.k e e B ",
"Z e T.e e 8.8.Z e 8.e 8.8.e e B 8.e M.8.e 8.e 8.B 8.8.} e 8.8.8.8.8.k 8.8.8.e X . 8.8.F.8.. e } o Q I 8.8.e 8.8.e 8.e 8.e 8.k 8.",
"B Z 8.B e e Q.8.e e 8.8.e e e . 8.Q 8.e 8.8.8.8.* e 8.B e k e Q * e 8.e (.e 8.Z e X F.e 8.e 8.8.e B 8.Z e 8.8.B 8.e . B Z 8.X Z ",
"e e e 8.8.e 8.} 8.M.M.8.8.k e B 8.e e } (.8.8.e 8.k 8.8.8.} Q e Z e e 8.e e e X B . e . 8.8.8.8.8.e 8.e X 8.8.e 8.e e e 8.8.8.e ",
"e 8.(.A.8.e k e X A.X Z 8.8.e 8.M.X e 8.8.e e B 8.(.X X 8.e e 8.8.A.B Z 8.8.e e Q (.I.8.(.e 8.8.8.B 8.e * 8.Z e 8.Q 8.8.8.Q e e ",
"e e 8.. . e X e e . . 8.e I e e A.e . 8.(.8.e . 8.8.B e 8.e I 8.8.e e   Q 8.8.X e e B } Q e e e B e e e Q X e 8.e e 8.Q.e e Z k ",
"8.8.e Z e e * 8.8.e X Z e k e X k 8.k k e e Q.e e 8.k X e 8.8.8.e e 8.I e } 8.e 8.Q 8.e I 8.e e I 8.e e X e 8.I 8.} 8.Z e k 8.F.",
"e 8.e e X e I X 8.8.X 8.Q.k e e * e 8.A.. e 8.e e I.8.e e I 8.8.e 8.8.8.8.e k Q 8.8.Z e 8.8.Z e Q.8.8.e e I.Z e 8.e e 8.Q 8.e e ",
"k * 8.Z 8.k e k X e e 8.} 8.Z 8.8.e e 8.8.8.8.X 8.8.e e 8.e 8.Q B } 8.Q 8.8.e X 8.8.e Q } (.k e e e Z 8.e 8.e o e } e 8.Q 8.e e ",
"Z X e Q 8.k X e e Q } e . Q.8.8.8.e 8.Q 8.Z T.e X I 8.. e e e 8.8.8.8.Q e 8.e * I e . e k e e e Z I.e e k 8.8.8.. 8.Z Z B 8.k 8.",
"Z 8.I.. e Z e e 8.X o e 8.8.8.8.B e X e 8.k 8.8.e 8.(.8.k e X Z e e . e e I.8.e e B . k 8.o 8.} X M.e I 8.k e 8.. X (.B . 8.e 8.",
"8.I B Z 8.e X 8.8.e X e B e e k 8.e (.e e I.M.8.e . e 8.8.e k e e e X 8.8.8.e 8.8.e B e 8.e 8.8.8.e o I 8.e e Q I.e 8.8.8.8.X Z ",
"8.e 8.Z e e . 8.e e e k . . k (.8.e B e e . e e 8.. e A.e 8.8.e 8.(.8.e e X e k e e 8.A.8.e e e 8.e 8.8.8.8.8.8.8.8.e e A.8.e . ",
"e Z e 8.8.8.8.k k 8.8.X k e B Q 8.e Z 8.e . e 8.8.X X 8.e (.8.8.8.e e 8.e e e e 8.B 8.X 8.8.8.X e e e k e e I k e Z 8.e B 8.8.B ",
"e e e e e 8.8.8.e e k 8.8.e X Q e 8.e e } e e e e Z o Z e e 8.I.8.8.e 8.8.8.Z k e e 8.8.8.e e 8.8.e e e e 8.e e 8.e 8.e k 8.e e ",
"B e 8.e e Z 8.8.e e . 8.8.B e 8.* e e } . e 8.e k 8.8.e 8.Q e k 8.} 8.8.Z Q.I e X . 8.8.8.e e (.8.e e 8.8.8.8.8.X 8.} B } 8.o X ",
"e e 8.8.8.o Q 8.8.B Z Z k e A.8.e } Z 8.X } 8.e e e 8.e e e e A.e X 8.8.e 8.e e X e e e Q I 8.8.8.e e 8.B 8.e I 8.8.e 8.Z B e X ",
"8.e B e e B 8.Q } 8.e . Z e e e e } e e 8.I.8.e B Z 8.X e e B e Z 8.Z 8.e * e B 8.8.e e * 8.8.e * e e e o 8.8.8.(.8.Q.Z e 8.8.e ",
"8.(.(.8.e B 8.. e 8.X 8.8.X . 8.e 8.8.X k k X 8.8.e 8.A.8.8.Z e e 8.8.8.e k 8.e e Z e e 8.} e 8.e Z 8.e 8.8.I.8.8.e 8.8.. 8.e e ",
"e 8.B 8.. o 8.e X 8.B e e e . e B 8.8.e e e B 8.I.8.e o e e e e . B e 8.k Z k . e 8.e e 8.8.. e 8.Z M.8.e . e e e e 8.8.o 8.(.e ",
"8.M.e e Z 8.Q e Z (.8.8.8.e 8.F.e 8.8.B 8.e e . e e . e e Z 8.(.8.Z e B I Z A.e 8.8.e I.(.. . Z Q * 8.8.e X 8.e 8.e e o e 8.8.k ",
"e 8.e 8.8.e Z 8.8.. Z B 8.8.8.8.} B 8.Q e e 8.e k k k 8.8.Z . 8.I.8.e e k e X (.8.Q Q e e . 8.8.Z Q e 8.8.Q } e e e X 8.(.8.e 8.",
"Z e 8.8.B e Z A.8.e X k 8.8.. . I.e } e e B k Z 8.8.e 8.8.B e e 8.8.e e e Q e e e . . 8.Q e e e 8.k 8.Z 8.8.. e 8.e M.B . e 8.8.",
"8.(.8.8.8.8.8.F.8.8.e B B A.8.e 8.8.8.8.e e e 8.8.Q e X 8.8.I.X e Z 8.8.I e B e 8.e 8.k Z e 8.8.e } 8.e e 8.e e I.. Z Q I 8.8.e ",
"8.8.e 8.e e 8.I.e 8.8.e e e e e e e 8.e o Q 8.8.Z F.B e e e 8.. Q.e e Q.8.k Z Z 8.8.8.e B e e 8.8.Q e B X k } k e e 8.Z e e e B ",
"8.F.* e e * e e B e Z e e 8.e e e e e * . 8.8.X . 8.e 8.8.e 8.8.8.8.e e 8.8.e e   Z 8.e e X B } . e Z Z 8.e 8.e e Z 8.8.8.e e 8.",
"A.. X e e e I e 8.X e 8.e e 8.8.8.(.e e e B 8.8.e (.B e 8.e e k e 8.B . o e X 8.e e 8.8.k 8.8.Z e e 8.8.Z 8.e o } 8.e . 8.8.} X ",
"8.8.8.8.e Z 8.(.Z Q 8.8.B e 8.T.Z 8.e . 8.e 8.8.e e 8.Z 8.8.. . 8.8.8.8.e e e 8.8.8.e 8.e X . 8.A.B e e . (.8.8.I.e 8.8.8.8.8.B ",
"I 8.X I 8.8.8.X 8.8.8.Z } 8.* 8.Q e 8.e Z e e . B . Z } k I . 8.8.8.e e I.. e Z (.8.e 8.X . . 8.(.e 8.8.8.k I.8.k o 8.e X Z e k ",
"8.8.8.e e 8.k e e Q.e e 8.e e B . e Z e e 8.e 8.Z . e 8.e I e 8.e Z e B e } e 8.e I e 8.8.X k e 8.8.8.8.Z e k I e e e e k 8.8.e ",
"e e e B e e e } e e Z 8.8.Z e B o e } e 8.X e e e e 8.Z . e 8.o e . } I.. e 8.8.X I 8.} e I 8.B 8.8.. 8.Q . e 8.e e 8.8.8.8.I.e ",
"e e e . k e I e 8.8.e Q 8.Z X Q e 8.e e (.8.8.8.B 8.8.e e e Z e e e 8.(.e e e . 8.k 8.. . . (.A.I 8.8.e Z B e e Z 8.8.e A.8.8.8.",
"e Q 8.. B 8.8.e 8.8.8.o e B 8.e 8.8.8.Z 8.8.(.e e 8.8.o 8.8.e } 8.k X e e e B e Z I X e 8.e A.8.e X e } I.8.e X e 8.8.e Q o I (.",
"8.e 8.8.k 8.8.8.k e Z } 8.e Z 8.8.. e Z e 8.8.e e k 8.e X * 8.} 8.Z 8.e 8.8.Z 8.e Z 8.e 8.e e 8.A.8.e 8.e 8.8.8.8.8.8.Q.e e . o ",
"k 8.e e 8.e   8.e 8.8.. 8.e X Z * . k (.8.I . . e X e Z e B 8.e Z e e e e F.k e Q.B X B * e e } e 8.B B 8.8.Q e 8.Z . 8.Z e B o ",
"k 8.e k Z e e 8.e Z } e M.8.Q e o Q 8.e e e e 8.e e 8.8.8.8.8.X I.e e X e e e . Z (.. } (.X k k e 8.8.e e B e e 8.B Z } e k 8.8.",
"e 8.(.8.e 8.8.* e e 8.8.e 8.(.k X 8.8.8.k e Z 8.8.e T.(.8.e e X 8.8.k Z e X 8.B . (.e e e 8.Q B I.8.8.e 8.Z e k Z I.e k 8.8.8.8.",
"e . 8.8.e e B e X 8.8.8.e e e 8.. e Z B Z e e 8.e e   e e 8.8.e e 8.e 8.e } Q 8.8.Q 8.8.o Q e I k Z 8.e e e k 8.B . e 8.Z e Z Q.",
"e e Q 8.. e e e X Z e e 8.k e 8.8.e Z e e X . B 8.e 8.8.. e I.X e e e e e B Z e . e Z e 8.e e 8.e Q e e 8.Z 8.8.e e 8.e o e 8.8.",
"Z A.I.k 8.8.e e e e e e e Q.e X B 8.8.e e e X k 8.e 8.8.k * 8.8.8.Z e 8.e X Z e e 8.8.e 8.A.8.8.e e 8.e e 8.A.e A.8.e e X k 8.Z ",
"8.e e e } e e 8.8.8.8.8.A.8.A.8.8.e e k k o k 8.8.e e 8.8.8.B B 8.X 8.8.e 8.Z e 8.8.e 8.e B e 8.e 8.8.8.8.e * e 8.e 8.8.8.e . 8.",
"e e 8.8.8.e X k e B 8.8.e Z Q.(.e X Q e e e Q 8.8.T.k e k 8.X . e e 8.8.M.B 8.e e 8.8.I.8.8.X . 8.8.Z e Z e } 8.B e e Z e 8.8.Z ",
"8.8.8.e I.Z Z e 8.e e * e . 8.8.8.8.e Z . (.8.B 8.e Z I I 8.e e e X e I e e X Q o } I.e . I 8.8.I e k e 8.8.8.e I 8.8.Z e e 8.8.",
"8.8.B . 8.e Z e e o e e e e e e . X Z Z 8.8.8.e 8.e Z 8.8.k   Z 8.X I } e e e Z 8.8.I 8.B 8.B 8.e e 8.8.8.e e e e 8.8.8.* 8.8.Z ",
"8.8.8.A.8.X e e e B 8.Q 8.(.k 8.e o 8.e 8.8.X . k k 8.8.Q e o 8.e X e 8.e e e 8.8.e X Q k e e e 8.e e 8.A.k e e Z Q.Q 8.Z 8.8.8.",
"8.8.8.B 8.8.Z e k e e e . e X 8.B e e k 8.8.e e k e e 8.k e A.e e B Q e 8.k X 8.* . e 8.e 8.T.8.8.k e e Q 8.8.8.8.8.e X k 8.Q 8.",
"I 8.B . B 8.e e e e 8.B I 8.I e 8.(.Z 8.8.o e 8.8.8.Q.8.Z 8.8.8.e 8.8.e 8.e Q e Z 8.8.o X 8.Z e B e 8.8.e e Z 8.k Z e B e e e 8.",
"B e Z k 8.8.Z e I.e 8.8.e 8.I.8.e k 8.. Q.8.e e e 8.k 8.8.B e 8.. . e e 8.Z e e 8.Z e e e 8.(.B o e 8.e e e . e 8.8.* Q (.Q e e ",
"e . 8.8.8.Z 8.8.8.e e B o e 8.8.Q e 8.e X } 8.8.k e . 8.8.Z e X A.B X e 8.8.e Q 8.e Z 8.e e e . e e o I 8.8.e e e o 8.I.8.8.Z B ",
"Z 8.B o I 8.8.Q.8.8.8.e 8.e 8.e e X 8.8.e e e B 8.k X e 8.T.e e 8.8.8.8.e e Z k e 8.8.8.Z e k B 8.8.M.Z e k 8.e 8.. X e . e 8.e ",
"e 8.e e e e e 8.e e e e 8.X 8.Q B e e o e B e 8.e e e X e 8.8.e e e 8.I e e 8.8.e k e 8.8.8.e Q e e 8.I.8.e e e (.8.e X k B e e ",
"e X e B e k e e e 8.B Z e e 8.Z 8.e 8.8.8.8.e . } 8.8.8.X k 8.8.A.B 8.Z e   e e Z I.Q Q e 8.8.e e e . e 8.} 8.e 8.Z e 8.}.A.e B ",
"e o Z e e B e 8.I 8.X e e B * e 8.8.Q 8.8.e 8.Z 8.Z Z Z 8.M.. 8.Q Z e 8.e e 8.Z e 8.8.8.e e 8.e e e e 8.e 8.8.Z 8.8.e 8.8.8.A.Q ",
"e Z e B Z e } 8.8.B e I Z e I k e I X e Q B . e e X I 8.k 8.e e X k e e e e Z Z e B Q 8.I.e 8.(.B 8.8.8.e M.e 8.8.8.e A.8.I e e ",
"} 8.. B (.e . 8.e e 8.8.e B 8.8.8.* e } e 8.8.8.e e 8.(.. e 8.8.8.e e 8.Z * 8.8.8.M.k 8.Q.Z M.8.(.8.Z e 8.8.I.8.8.8.8.8.k I 8.I.",
"B Z (.B 8.Z . B B X e 8.e e 8.8.} e 8.e e 8.e B o e e e e 8.8.e e e e e Z 8.8.Z I.8.e e 8.k (.(.(.T.8.8.I.8.M.8.k 8.8.k I e 8.k ",
"e 8.I . e 8.e Q.8.e 8.A.e Z o 8.e Q.B k X e 8.X B 8.e e e 8.k A.X } e e 8.e Q 8.M.(.8.8.e 8.I 8.e } 8.8.8.8.8.} X 8.T.B 8.e 8.8.",
"8.e e I Z B B e e e e I.8.8.X X 8.8.k B . 8.8.e B . 8.Q.e I e e I e e 8.(.k e Q 8.e e A.e e (.8.Q e 8.8.8.e 8.8.e 8.Z 8.8.e (.A.",
"e Z 8.e 8.e e 8.8.8.Z 8.e k 8.e e k 8.8.8.o 8.e e I 8.Z X } Z X Q B B 8.e X 8.T.8.e e M.e 8.T.k 8.Z (.8.8.B 8.Q Z e e Z 8.8.T.(.",
"e 8.e e (.8.e e e . 8.k e . e e e 8.X e 8.e e 8.8.8.8.k 8.8.M.k 8.e e 8.8.e 8.Q T.T.8.(.e 8.Q Z e I.8.8.e 8.8.8.8.Z Q (.8.I.I.e ",
"Z Z 8.e e e 8.e 8.e e X Z } . e 8.8.e e e e Q 8.. e 8.e 8.8.k 8.B e } (.e B Z 8.8.8.8.A.I.Q e 8.I Q.(.B k 8.I I 8.8.8.8.(.M.8.8.",
"e e 8.e o . X e } Z 8.Z } 8.8.I 8.k I.X k e 8.8.e 8.X e k e Q B 8.Z } e e Z e 8.8.8.Z 8.8.8.8.8.Q Q 8.B Z 8.X 8.8.(.8.8.e 8.8.8."
};
