/* XPM */
static const char *battlefield_tile_4[] = {
/* columns rows colors chars-per-pixel */
"64 64 189 2 ",
"   c #2E2B16",
".  c #2F2C19",
"X  c #332E14",
"o  c #322E1B",
"O  c #363216",
"+  c #383317",
"@  c #35321B",
"#  c #38351A",
"$  c #39351A",
"%  c #38341B",
"&  c #39341B",
"*  c #39351B",
"=  c #39341A",
"-  c #3A341A",
";  c #3B341A",
":  c #3A351A",
">  c #3B351A",
",  c #3A341B",
"<  c #3A351B",
"1  c #3B351B",
"2  c #38361A",
"3  c #39361A",
"4  c #39371A",
"5  c #39361B",
"6  c #39371B",
"7  c #3A361A",
"8  c #3B361A",
"9  c #3A371A",
"0  c #3B371A",
"q  c #3A361B",
"w  c #3B361B",
"e  c #3A371B",
"r  c #3B371B",
"t  c #393519",
"y  c #3C351A",
"u  c #3C351B",
"i  c #3C361A",
"p  c #3D361A",
"a  c #3C371A",
"s  c #3D371A",
"d  c #3C361B",
"f  c #3D361B",
"g  c #3C371B",
"h  c #3D371B",
"j  c #3B351C",
"k  c #39361C",
"l  c #39371C",
"z  c #3A361C",
"x  c #3B361C",
"c  c #3A371C",
"v  c #3B371C",
"b  c #3B361D",
"n  c #3A371D",
"m  c #3B371D",
"M  c #3C361C",
"N  c #3C371C",
"B  c #3D371C",
"V  c #3C361D",
"C  c #3D361D",
"Z  c #3C371D",
"A  c #3D371D",
"S  c #3E371C",
"D  c #3F371C",
"F  c #3C371E",
"G  c #3A361A",
"H  c #3A3819",
"J  c #39381B",
"K  c #3A381A",
"L  c #3B381A",
"P  c #3A381B",
"I  c #3B381B",
"U  c #3B391B",
"Y  c #3C381A",
"T  c #3D381A",
"R  c #3C391A",
"E  c #3D391A",
"W  c #3C381B",
"Q  c #3D381B",
"!  c #3C391B",
"~  c #3D391B",
"^  c #3E381B",
"/  c #3E391B",
"(  c #3A381C",
")  c #3B381C",
"_  c #3A391C",
"`  c #3B391C",
"'  c #3A381D",
"]  c #3B381D",
"[  c #3B3A1D",
"{  c #3C381C",
"}  c #3D381C",
"|  c #3C391C",
" . c #3D391C",
".. c #3C381D",
"X. c #3D381D",
"o. c #3C391D",
"O. c #3D391D",
"+. c #3E381C",
"@. c #3E391C",
"#. c #3F391C",
"$. c #3E381D",
"%. c #3E391D",
"&. c #3F391D",
"*. c #3C3A1C",
"=. c #3D3A1C",
"-. c #3C3A1D",
";. c #3D3A1D",
":. c #3D3B1D",
">. c #3E3A1C",
",. c #3F3A1C",
"<. c #3E3B1C",
"1. c #3E3A1D",
"2. c #3F3A1D",
"3. c #3E3B1D",
"4. c #3F3B1D",
"5. c #3C381E",
"6. c #3D381E",
"7. c #3C391E",
"8. c #3D391E",
"9. c #3C391F",
"0. c #3D391F",
"q. c #3E381E",
"w. c #3F381E",
"e. c #3E391E",
"r. c #3F391E",
"t. c #3E391F",
"y. c #3F391F",
"u. c #3C3A1E",
"i. c #3D3A1E",
"p. c #3D3B1E",
"a. c #3C3A1F",
"s. c #3D3A1F",
"d. c #3D3B1F",
"f. c #3E3A1E",
"g. c #3F3A1E",
"h. c #3E3B1E",
"j. c #3F3B1E",
"k. c #3E3A1F",
"l. c #3F3A1F",
"z. c #3E3B1F",
"x. c #3F3B1F",
"c. c #3F3C1E",
"v. c #3E3C1F",
"b. c #3F3C1F",
"n. c #3F3D1F",
"m. c #3D391D",
"M. c #373420",
"N. c #3C3920",
"B. c #3E3A20",
"V. c #3F3A20",
"C. c #3E3B20",
"Z. c #3F3B20",
"A. c #3F3B21",
"S. c #3F3C20",
"D. c #3F3C21",
"F. c #3F3B20",
"G. c #40391E",
"H. c #403A1E",
"J. c #403B1E",
"K. c #403A1F",
"L. c #403B1F",
"P. c #413B1F",
"I. c #403C1E",
"U. c #403C1F",
"Y. c #403B1F",
"T. c #403A20",
"R. c #413A20",
"E. c #403B20",
"W. c #413B20",
"Q. c #403B21",
"!. c #403C20",
"~. c #413C20",
"^. c #403D20",
"/. c #413D20",
"(. c #403C21",
"). c #413C21",
"_. c #403D21",
"`. c #413D21",
"'. c #423C20",
"]. c #423C21",
"[. c #423E21",
"{. c #413C22",
"}. c #413D22",
"|. c #423D22",
" X c #423E22",
".X c #413C21",
"XX c #504632",
"oX c #504632",
"OX c None",
/* pixels */
"B m 0 0 5.R R 5.0 5.K 5.B g 5.C.0 B 0 5.5.B 5.5.5.5.5.m 5.0 5.5.0 5.0 0 B 0 g 0 0 0 5.5.B 5.0 m 0 5.0 K 5.L.5.5.0 0 0 5.] 0 5.B ",
"0 O @ g 0 m 0 O ] 5.m 0 5.5.5.5.5.5.0 K 5.B 5.0 m 0 B 5.U.m 0 5.5.5.0 0 # B 5.0 0 5.0 0 0 5.R 0 0 5.0 0 m 0 B 0 5.5.U.O m 0 + 5.",
"B R 0 5.B 5.5.0 0 5.0 O 5.5.5.K L.0 0 O 0 5.0 + + m R 0 R 0 g 5.g C.0 0 0 5.5.0 B 0 # 0 g 0 5.m 5.0 @ ^.^.# 5.5.0 g 5.S.g 0 0 m ",
"B 0 U.0 0 5.5.B 0 5.0 5.5.0 0 m 5.0 b.5.0 5.0 5.m 5.5.] 0 5.5.5.5.5.g 5.5.5.0 + O 5.5.S.5.O 0 ] @ R K 5.5.0 5.5.0 5.0 5.0 5.g 5.",
"m B 5.m 0 0 E.5.0 0 5.5.0 0 0 O 5.R 5.0 5.5.5.5.# 0 5.m 0 g 0 R # 0 5.0 ^.0 5.B 0 + S.0 5.0 5.5.0 m 5.B 0 5.5.m 5.0 O m B 5.+ B ",
"0 0 0 XX5.0 5.] 5.b.b.5.5.g 0 m 5.0 0 ] ^.5.5.0 5.g 5.5.5.] R 0 B 0 0 5.0 0 0 + m O 0 O 5.5.5.5.5.0 5.0 + 5.5.0 5.0 0 0 5.5.5.0 ",
"0 5.^.C.5.0 g 0 + C.+ B 5.5.0 5.b.+ 0 5.5.0 0 m 5.^.+ + 5.0 0 5.5.C.m B 5.5.0 0 R ^.L.5.^.0 5.5.5.m 5.0 # 5.B 0 5.R 5.5.5.R 0 0 ",
"0 0 5.O O 0 + 0 0 O O 5.0 K 0 0 C.0 O 5.^.5.0 O 5.5.m 0 5.0 K 5.5.0 0 X R 5.5.+ 0 0 m ] R 0 0 0 m 0 0 0 R + 0 5.0 0 5.E.0 0 B g ",
"5.5.0 B 0 0 # 5.5.0 + B 0 g 0 + g 5.g g 0 0 E.0 0 5.g + 0 5.5.5.0 0 5.K 0 ] 5.0 5.R 5.0 K 5.0 0 K 5.0 0 + 0 5.K 5.] 5.B 0 g 5.S.",
"0 5.0 0 + 0 K + 5.5.+ 5.E.g 0 0 # 0 5.C.O 0 5.0 0 L.5.0 0 K 5.5.0 5.5.5.5.0 g R 5.5.B 0 5.5.B 0 E.5.5.0 0 L.B 0 5.0 0 5.R 5.0 0 ",
"g # 5.B 5.g 0 g + 0 0 5.] 5.B 5.5.0 0 5.5.5.5.+ 5.5.0 0 5.0 5.R m ] 5.R 5.5.0 + 5.5.0 R ] ^.g 0 0 0 B 5.0 5.0 @ 0 ] 0 5.R 5.XX0 ",
"B + 0 R 5.g + 0 0 R ] 0 O E.5.5.5.0 5.R 5.B U.0 + K 5.O 0 0 0 5.5.5.5.R 0 5.0 # K 0 O 0 g 0 0 0 B L.0 0 g 5.5.5.O 5.B B m 5.g 5.",
"B 5.L.O 0 B 0 0 5.+ @ 0 5.5.5.5.m 0 + 0 5.g 5.5.0 5.^.5.g 0 + B 0 0 O 0 0 L.5.0 0 m O g 5.@ 5.] + b.0 K 5.g 0 5.O + ^.m O 5.0 5.",
"5.K m B 5.0 + 5.5.0 + 0 m 0 0 g 5.0 ^.0 0 L.b.5.0 O 0 5.XX0 g 0 0 0 + 5.5.5.0 5.5.0 m 0 5.0 5.5.5.0 @ K 5.0 0 R L.0 5.5.5.5.+ B ",
"5.0 5.B 0 0 O 5.0 0 0 g O O g ^.5.0 m 0 0 O 0 0 5.O 0 C.0 5.5.0 5.^.5.0 0 + 0 g 0 0 5.C.5.0 0 0 5.0 5.5.5.5.5.5.5.5.0 0 C.5.0 O ",
"0 B 0 5.5.5.5.g g 5.5.+ g 0 m R 5.0 B 5.0 O 0 5.5.+ + 5.0 ^.5.5.5.0 0 5.0 0 0 0 5.m 5.+ 5.5.5.+ 0 0 0 g 0 0 K g 0 B 5.0 m 5.5.m ",
"0 0 0 0 0 5.5.5.0 0 g 5.5.0 + R 0 5.0 0 ] 0 0 0 0 B @ B 0 0 5.L.5.5.0 5.5.5.B g 0 0 5.5.5.0 0 5.5.0 0 0 0 5.0 0 5.0 5.0 g 5.0 0 ",
"m 0 5.0 0 B 5.5.0 0 O 5.5.m 0 5.# 0 0 ] O 0 5.0 g 5.5.0 5.R 0 g 5.] 5.5.B E.K 0 + O 5.5.5.0 0 ^.5.0 0 5.5.5.5.5.+ 5.] m ] 5.@ + ",
"0 0 5.5.5.@ R 5.5.m B B g 0 C.5.0 ] B 5.+ ] 5.0 0 0 5.0 0 0 0 C.0 + 5.5.0 5.0 0 + 0 0 0 R K 5.5.5.0 0 5.m 5.0 K 5.5.0 5.B m 0 + ",
"5.0 m 0 0 m 5.R ] 5.0 O B 0 0 0 0 ] 0 0 5.L.5.0 m B 5.+ 0 0 m 0 B 5.B 5.0 # 0 m 5.5.0 0 # 5.5.0 # 0 0 0 @ 5.5.5.^.5.E.B 0 5.5.0 ",
"5.^.^.5.0 m 5.O 0 5.+ 5.5.+ O 5.0 5.5.+ g g + 5.5.0 5.C.5.5.B 0 0 5.5.5.0 g 5.0 0 B 0 0 5.] 0 5.0 B 5.0 5.5.L.5.5.0 5.5.O 5.0 0 ",
"0 5.m 5.O @ 5.0 + 5.m 0 0 0 O 0 m 5.5.0 0 0 m 5.L.5.0 @ 0 0 0 0 O m 0 5.g B g O 0 5.0 0 5.5.O 0 5.B b.5.0 O 0 0 0 0 5.5.@ 5.^.0 ",
"5.b.0 0 B 5.R 0 B ^.5.5.5.0 5.S.0 5.5.m 5.0 0 O 0 0 O 0 0 B 5.^.5.B 0 m K B C.0 5.5.0 L.^.O O B R # 5.5.0 + 5.0 5.0 0 @ 0 5.5.g ",
"0 5.0 5.5.0 B 5.5.O B m 5.5.5.5.] m 5.R 0 0 5.0 g g g 5.5.B O 5.L.5.0 0 g 0 + ^.5.R R 0 0 O 5.5.B R 0 5.5.R ] 0 0 0 + 5.^.5.0 5.",
"B 0 5.5.m 0 B C.5.0 + g 5.5.O O L.0 ] 0 0 m g B 5.5.0 5.5.m 0 0 5.5.0 0 0 R 0 0 0 O O 5.R 0 0 0 5.g 5.B 5.5.O 0 5.0 b.m O 0 5.5.",
"5.^.5.5.5.5.5.S.5.5.0 m m C.5.0 5.5.5.5.0 0 0 5.5.R 0 + 5.5.L.+ 0 B 5.5.K 0 m 0 5.0 5.g B 0 5.5.0 ] 5.0 0 5.0 0 L.O B R K 5.5.0 ",
"5.5.0 5.0 0 5.L.0 5.5.0 0 0 0 0 0 0 5.0 @ R 5.5.B S.m 0 0 0 5.O E.0 0 E.5.g B B 5.5.5.0 m 0 0 5.5.R 0 m + g ] g 0 0 5.B 0 0 0 m ",
"5.S.# 0 0 # 0 0 m 0 B 0 0 5.0 0 0 0 0 # O 5.5.+ O 5.0 5.5.0 5.5.5.5.0 0 5.5.0 0 X B 5.0 0 + m ] O 0 B B 5.0 5.0 0 B 5.5.5.0 0 5.",
"C.O + 0 0 0 K 0 5.+ 0 5.0 0 5.5.XX^.0 0 0 m 5.5.0 ^.m 0 5.0 0 g 0 5.m O @ 0 + 5.0 0 5.5.g 5.5.B 0 0 5.5.B 5.0 @ ] 5.0 O 5.5.] + ",
"5.5.5.5.0 B 5.^.B R 5.5.m 0 5.U.B 5.0 O 5.0 5.5.O O @ o @ @     @ @ 5.5.0 0 0 5.5.5.0 5.0 + O 5.C.m 0 0 O ^.5.5.L.0 5.5.5.5.5.m ",
"K 5.+ K 5.5.5.+ 5.5.5.B ] 5.# 5.R 0 5.0 B 0 0 O @ X @ @ o @ . @ @ @ 0 0 L.O 0 B ^.5.0 5.+ O O 5.^.0 5.5.5.g L.5.g @ 5.0 + B 0 g ",
"5.5.5.0 0 5.g 0 0 E.0 0 5.0 0 m O 0 B 0 0 5.0 5.@   o @ o @ o @ o o 0 m 0 ] 0 5.0 K 0 5.5.+ g 0 5.5.5.5.B 0 g K 0 0 0 0 g 5.5.0 ",
"0 0 0 m 0 0 0 ] 0 0 B 5.5.B 0 m @ 0 ] 0 5.+ 0 0 o o @ o   o @   . . ] 5.O 0 5.5.+ K 5.] 0 K 5.m 5.5.O 5.R O 0 5.0 0 5.5.5.5.L.0 ",
"0 0 0 O g 0 K 0 5.5.0 R 5.B + R 0 5.0 0 ^.5.5.5.o @ @ o o o o o o o 5.^.0 0 0 O 5.g 5.O O O ^.C.K 5.5.0 B m 0 0 B 5.5.0 C.5.5.5.",
"0 R 5.O m 5.5.0 5.5.5.@ 0 m 5.0 5.5.5.B 5.5.^.0 o @ @ . @ @ o @ @ o 0 0 0 0 m 0 B K + 0 5.0 C.5.0 + 0 ] L.5.0 + 0 5.5.0 R @ K ^.",
"5.0 5.5.g 5.5.5.g 0 B ] 5.0 B 5.5.O 0 B 0 5.5.0 o o @ o o . @ @ @ o 5.0 5.5.B 5.0 B 5.0 5.0 0 5.C.5.0 5.0 5.5.5.5.5.5.E.0 0 O @ ",
"g 5.0 0 5.0 X 5.0 5.5.O 5.0 + B # O g ^.5.K O O o o o o o o @ o o o 0 0 0 S.g 0 E.m + m # 0 0 ] 0 5.m m 5.5.R 0 5.B O 5.B 0 m @ ",
"g 5.0 g B 0 0 5.0 B ] 0 b.5.R 0 @ R 5.0 0 0 0 5.@ o @ @ @ @ @ o @ o m + 0 0 0 O B ^.O ] ^.+ g g 0 5.5.0 0 m 0 0 5.m B ] 0 g 5.5.",
"0 5.^.5.0 5.5.# 0 0 5.5.0 5.^.g + 5.5.5.g 0 5.5.@ o % @ @ o o o @ @ g B 0 + 5.m O ^.0 0 0 5.R m L.5.5.0 5.B 0 g B L.0 g 5.5.5.5.",
"0 O 5.5.0 0 m 0 + 5.5.5.0 0 0 5.O 0 B m B 0 0 5.0 0 X 0 0 5.5.0 0 5.0 5.0 ] R 5.5.R 5.5.@ R 0 K g B 5.0 0 0 g 5.m O 0 5.B 0 B E.",
"0 0 R 5.O 0 0 0 + B 0 0 5.g 0 5.5.0 B 0 0 + O B 5.0 5.5.O 0 L.+ 0 0 0 0 0 m B 0 O 0 B 0 5.0 0 5.0 R 0 0 5.B 5.5.0 0 5.0 @ 0 5.5.",
"B C.L.g 5.5.0 @ X X o o o @ o X @ 5.5.0 0 0 + g 5.0 5.5.g # 5.5.5.B 0 5.0 + B 0 0 5.5.0 5.C.5.5.0 0 5.0 0 5.C.0 C.5.0 0 + g 5.B ",
"5.0 0 0 ] 0 0 + m @ @ @ @ @ @ @ @ 0 0 g g @ g 5.5.0 0 5.5.5.m m 5.+ 5.5.0 5.B 0 5.5.0 5.0 m 0 5.0 5.5.5.5.0 # 0 5.0 5.5.5.0 O 5.",
"0 0 5.5.5.0 + @ o o OX@ o o @ @ o + R 0 0 @ # @ @ @ o o o @ o O 0 0 5.5.b.m 5.0 0 5.5.L.5.5.+ O 5.5.B 0 B 0 ] 5.m 0 0 B 0 5.5.B ",
"5.5.5.0 L.5.B o @ OXOXOXo   @ @ @ 5.0 B O N.@ o @ o o @ @ @ @ 0 0 + 0 K 0 0 + R @ ] L.0 O K 5.5.K 0 g 0 5.5.5.0 K 5.5.B 0 0 5.5.",
"5.5.m O 5.0 B o o OXOXOXo o o o . + B B 5.@ @ o @ o o @ @ o   B 5.+ K ] 0 0 0 B 5.5.K 5.m 5.m 5.0 0 5.5.5.0 0 0 0 5.5.5.# 5.5.B ",
"5.5.5.C.5.+ 0 o o OXOXOXM.M.o @ o @ 5.0 5.@ o   o o @ @ @ o   5.0 + 0 5.0 0 0 5.5.0 + R g 0 0 0 5.0 0 5.C.g 0 0 B E.R 5.B 5.5.5.",
"5.5.5.m 5.5.B o o o OXo   o o @ o 0 0 g 5.@ o o o o o @ o o M.0 0 m R 0 5.g + 5.# O 0 5.0 5.U.5.5.g 0 0 R 5.5.5.5.5.0 + g 5.R 5.",
"K 5.m O m 5.0 o o o @ o @ @ @ o @ ^.B 5.5.. o @ @ @ @ @ o @ @ C.0 5.5.0 5.0 R 0 B 5.5.@ + 5.B 0 m 0 5.5.0 0 B 5.g B 0 m 0 0 0 5.",
"m 0 B g 5.5.B o @ o @ @ o @ @ @ o g 5.OXE.@ o o o @ o @ @ o o 5.O O 0 0 5.B 0 0 5.B 0 0 0 5.^.m @ 0 5.0 0 0 O 0 5.5.# R ^.R 0 0 ",
"0 O 5.5.5.B 5.@ @ o o o . o @ @ @ 0 OXOXOX@ @ @ o o . @ @ o o + C.m + 0 5.5.0 R 5.0 B 5.0 0 0 O 0 0 @ K 5.5.0 0 0 @ 5.L.5.5.B m ",
"B 5.m @ K 5.5.L.5.5.5.0 5.0 5.0 0 + OXOXOXo @ o @ o o o @ @ o m 5.5.5.OX0 0 B g 0 5.5.5.B 0 g m 5.5.b.B 0 g 5.0 5.O + 0 O 0 5.0 ",
"0 5.0 0 0 0 0 5.0 0 0 0 5.+ 5.R m 0 OXOXOX@ X @ o o o o o @ @ 0 0 0 OXOXOX0 5.5.0 g 0 5.5.5.0 R 0 0 OXL.5.0 0 0 ^.5.0 + g m 0 0 ",
"0 + 0 m 0 g 0 0 0 5.m B 0 0 5.B 5.0 5.OX5.5.0 O ] 5.5.5.+ g 5.5.C.m OXOXOXX 0 0 B L.R R 0 5.5.0 0 OXOXOX5.] 5.0 5.B 0 5.[.C.0 m ",
"0 @ B 0 0 m 0 5.K 5.+ 0 0 m # 0 5.5.R 5.5.0 5.B 5.B B B 5.b.O 5.R B OXOXOX0 5.B 0 5.5.5.0 0 5.0 0 OXOXOX0 5.5.B 5.5.0 5.5.5.C.R ",
"0 B 0 m B 0 ] 5.5.m 0 K B 0 K g 0 K + 0 R m O 0 0 + K 5.g 5.0 0 + g 0 OX0 0 B B 0 m R 5.L.0 5.^.m OXOXOX0 b.0 5.5.5.0 C.5.K 0 0 ",
"] 5.O m ^.0 O 5.0 0 5.5.0 m 5.5.5.# 0 ] 0 5.5.5.0 0 5.^.O 0 5.5.5.0 0 5.B # 5.5.5.b.g 5.E.B b.5.^.5.OX0 5.5.L.5.5.5.5.5.g K 5.L.",
"m B ^.m 5.B O m m + 0 5.0 0 5.5.] 0 5.0 0 5.0 m @ 0 0 0 0 5.5.0 0 0 0 0 B 5.5.B L.5.0 0 5.g ^.^.^.U.5.5.L.5.b.5.g 5.5.g K 0 5.g ",
"0 5.K O 0 5.0 E.5.0 5.C.0 B @ 5.0 E.m g + 0 5.+ m 5.0 0 0 5.g C.+ ] 0 0 5.0 R 5.b.^.5.5.0 5.K 5.0 ] 5.5.5.5.5.] + 5.U.m 5.0 5.5.",
"5.0 0 K B m m 0 0 0 0 L.5.5.+ + 5.5.g m O 5.5.0 m O 5.E.0 K 0 0 K 0 0 5.^.g 0 R 5.0 0 C.0 0 ^.5.R 0 5.5.5.0 5.5.0 5.B 5.5.0 ^.C.",
"0 B 5.0 5.0 0 5.5.5.B 5.0 g 5.0 0 g 5.5.5.@ 5.0 0 K 5.B + ] B + R m m 5.0 + 5.U.5.0 0 b.0 5.U.g 5.B ^.5.5.m 5.R B 0 0 B 5.5.U.^.",
"0 5.0 0 ^.5.0 0 0 O 5.g 0 O 0 0 0 5.+ 0 5.0 0 5.5.5.5.g 5.5.b.g 5.0 0 5.5.0 5.R U.U.5.^.0 5.R B 0 L.5.5.0 5.5.5.5.B R ^.5.L.L.0 ",
"B B 5.0 0 0 5.0 5.0 0 + B ] O 0 5.5.0 0 0 0 R 5.O 0 5.0 5.5.g 5.m 0 ] ^.0 m B 5.5.5.5.C.L.R 0 5.K E.^.m g 5.K K 5.5.5.5.^.b.5.5.",
"0 0 5.0 @ O + 0 ] B 5.B ] 5.5.K 5.g L.+ g 0 5.5.0 5.+ 0 g 0 R m 5.B ] 0 0 B 0 5.5.5.B 5.5.5.5.5.R R 5.m B 5.+ 5.5.^.5.5.0 5.5.5."
};
