/* XPM */
static const char *battlefield_tile_1[] = {
/* columns rows colors chars-per-pixel */
"64 64 182 2 ",
"   c #2E2B16",
".  c #2D2B1A",
"X  c #322E15",
"o  c #322E1B",
"O  c #363216",
"+  c #383317",
"@  c #35321B",
"#  c #39351A",
"$  c #3A341A",
"%  c #3B341A",
"&  c #3A351A",
"*  c #3B351A",
"=  c #3A341B",
"-  c #3A351B",
";  c #3B351B",
":  c #38361A",
">  c #39361A",
",  c #39371A",
"<  c #39361B",
"1  c #39371B",
"2  c #3A361A",
"3  c #3B361A",
"4  c #3A371A",
"5  c #3B371A",
"6  c #3A361B",
"7  c #3B361B",
"8  c #3A371B",
"9  c #3B371B",
"0  c #393519",
"q  c #3C351A",
"w  c #3C351B",
"e  c #3C361A",
"r  c #3D361A",
"t  c #3C371A",
"y  c #3D371A",
"u  c #3C361B",
"i  c #3D361B",
"p  c #3C371B",
"a  c #3D371B",
"s  c #3B351C",
"d  c #39371C",
"f  c #3A361C",
"g  c #3B361C",
"h  c #3A371C",
"j  c #3B371C",
"k  c #3B361D",
"l  c #3A371D",
"z  c #3B371D",
"x  c #3C361C",
"c  c #3C371C",
"v  c #3D371C",
"b  c #3C361D",
"n  c #3D361D",
"m  c #3C371D",
"M  c #3D371D",
"N  c #3E371C",
"B  c #3F371C",
"V  c #3C371E",
"C  c #3A361A",
"Z  c #3A3819",
"A  c #39381B",
"S  c #3A381A",
"D  c #3B381A",
"F  c #3A381B",
"G  c #3B381B",
"H  c #3B391B",
"J  c #3C381A",
"K  c #3D381A",
"L  c #3C391A",
"P  c #3D391A",
"I  c #3C381B",
"U  c #3D381B",
"Y  c #3C391B",
"T  c #3D391B",
"R  c #3E381B",
"E  c #3E391B",
"W  c #3A381C",
"Q  c #3B381C",
"!  c #3B391C",
"~  c #3A381D",
"^  c #3B381D",
"/  c #3B3A1D",
"(  c #3C381C",
")  c #3D381C",
"_  c #3C391C",
"`  c #3D391C",
"'  c #3C381D",
"]  c #3D381D",
"[  c #3C391D",
"{  c #3D391D",
"}  c #3E381C",
"|  c #3E391C",
" . c #3F391C",
".. c #3E381D",
"X. c #3E391D",
"o. c #3F391D",
"O. c #3C3A1C",
"+. c #3D3A1C",
"@. c #3C3A1D",
"#. c #3D3A1D",
"$. c #3D3B1D",
"%. c #3E3A1C",
"&. c #3F3A1C",
"*. c #3E3B1C",
"=. c #3E3A1D",
"-. c #3F3A1D",
";. c #3E3B1D",
":. c #3F3B1D",
">. c #3C381E",
",. c #3D381E",
"<. c #3C391E",
"1. c #3D391E",
"2. c #3C391F",
"3. c #3D391F",
"4. c #3E381E",
"5. c #3E391E",
"6. c #3F391E",
"7. c #3E391F",
"8. c #3F391F",
"9. c #3C3A1E",
"0. c #3D3A1E",
"q. c #3D3B1E",
"w. c #3C3A1F",
"e. c #3D3A1F",
"r. c #3D3B1F",
"t. c #3E3A1E",
"y. c #3F3A1E",
"u. c #3E3B1E",
"i. c #3F3B1E",
"p. c #3E3A1F",
"a. c #3F3A1F",
"s. c #3E3B1F",
"d. c #3F3B1F",
"f. c #3F3C1E",
"g. c #3E3C1F",
"h. c #3F3C1F",
"j. c #3F3D1F",
"k. c #3D391D",
"l. c #363321",
"z. c #3C3920",
"x. c #3E3A20",
"c. c #3F3A20",
"v. c #3E3B20",
"b. c #3F3B20",
"n. c #3F3B21",
"m. c #3F3C20",
"M. c #3F3C21",
"N. c #3F3B20",
"B. c #40391E",
"V. c #403A1E",
"C. c #403B1E",
"Z. c #403A1F",
"A. c #403B1F",
"S. c #413B1F",
"D. c #403C1E",
"F. c #403C1F",
"G. c #403B1F",
"H. c #403A20",
"J. c #413A20",
"K. c #403B20",
"L. c #413B20",
"P. c #403B21",
"I. c #403C20",
"U. c #413C20",
"Y. c #403D20",
"T. c #413D20",
"R. c #403C21",
"E. c #413C21",
"W. c #403D21",
"Q. c #413D21",
"!. c #423C20",
"~. c #423C21",
"^. c #423E21",
"/. c #413C22",
"(. c #413D22",
"). c #423D22",
"_. c #423E22",
"`. c #413C21",
"'. c #504632",
"]. c #504632",
"[. c None",
"{. c black",
/* pixels */
"v z 5 5 >.L L >.5 >.S >.v p >.v.5 v 5 >.>.v >.>.>.>.>.z >.5 >.>.5 >.5 5 v 5 p 5 5 5 >.>.v >.5 z 5 >.5 S >.A.>.>.5 5 5 >.^ 5 >.v ",
"5 O @ p 5 z 5 O ^ >.z 5 >.>.>.>.>.>.5 S >.v >.5 z 5 v >.F.z 5 >.>.>.5 5 : v >.5 5 >.5 5 5 >.L 5 5 >.5 5 z 5 v 5 >.>.F.O z 5 + >.",
"v L 5 >.v >.>.5 5 >.5 O >.>.>.S A.5 5 O 5 >.5 + + z L 5 L 5 p >.p v.5 5 5 >.>.5 v 5 : 5 p 5 >.z >.5 @ Y.Y.: >.>.5 p >.m.p 5 5 z ",
"v 5 F.5 5 >.>.v 5 >.5 >.>.5 5 z >.5 h.>.5 >.5 >.z >.>.^ 5 >.>.>.>.>.p >.>.>.5 + O >.>.m.>.O 5 ^ @ L S >.>.5 >.>.5 >.5 >.5 >.p >.",
"z v >.z 5 5 K.>.5 5 >.>.5 5 5 O >.L >.5 >.>.>.>.: 5 >.z 5 p 5 L : 5 >.5 Y.5 >.v 5 + m.5 >.5 >.>.5 z >.v 5 >.>.z >.5 O z v >.+ v ",
"5 5 5 >.>.5 >.^ >.h.h.>.>.p 5 z >.5 5 ^ Y.>.>.5 >.p >.>.>.^ L 5 v 5 5 >.5 5 5 + z O 5 O >.>.>.>.>.5 >.5 + >.>.5 >.5 5 5 >.>.>.5 ",
"5 >.Y.v.>.5 p 5 + v.+ v >.>.5 >.h.+ 5 >.>.5 5 z >.Y.+ + >.5 5 >.>.v.z v >.>.5 5 L Y.A.>.Y.5 >.>.>.z >.5 : >.v 5 >.L >.>.>.L 5 5 ",
"5 5 >.O O 5 + 5 5 O O >.5 S 5 5 v.5 O >.Y.>.5 O >.>.z 5 >.5 S >.>.5 5 X L >.>.+ 5 5 z ^ L 5 5 5 z 5 5 5 L + 5 >.5 5 >.K.5 5 v p ",
">.>.5 v 5 5 : >.>.5 + v 5 p 5 + p >.p p 5 5 K.5 5 >.p + 5 >.>.>.5 5 >.S 5 ^ >.5 >.L >.5 S >.5 5 S >.5 5 + 5 >.S >.^ >.v 5 p >.m.",
"5 >.5 5 + 5 S + >.>.+ >.K.p 5 5 : 5 >.v.O 5 >.5 5 A.>.5 5 S >.>.5 >.>.>.>.5 p L >.>.v 5 >.>.v 5 K.>.>.5 5 A.v 5 >.5 5 >.L >.5 5 ",
"p : >.v >.p 5 p + 5 5 >.^ >.v '.>.5 5 >.>.>.>.+ >.>.5 5 >.5 >.L z ^ >.L >.>.5 + >.>.5 L ^ Y.p 5 5 5 v >.5 >.5 @ 5 ^ 5 >.L >.5 5 ",
"v + 5 L >.p + 5 5 L ^ 5 O K.>.>.>.5 >.L >.v F.5 + S >.O 5 5 5 >.>.>.>.L 5 >.5 : S 5 O 5 p 5 5 5 v A.5 5 p >.>.>.O >.v v z >.p >.",
"v >.A.O 5 v 5 5 >.+ @ 5 >.>.>.>.z 5 + 5 >.p >.>.5 >.Y.>.p 5 + v 5 5 O 5 5 A.>.5 5 z O p >.@ >.^ + h.5 S >.p 5 >.O + Y.z O >.5 >.",
">.S z v >.5 + >.>.5 + 5 z 5 5 p >.5 Y.5 5 A.h.>.5 O 5 >.>.5 p 5 5 5 + >.>.>.5 >.>.5 z 5 >.5 >.>.>.5 @ S >.5 5 L A.5 >.>.>.>.+ v ",
">.5 >.v 5 5 O >.5 5 5 p O O p Y.>.5 z 5 5 O 5 5 >.O 5 v.5 >.>.5 >.Y.>.5 5 + 5 p 5 5 >.v.>.5 5 5 >.5 >.>.>.>.>.>.>.>.5 5 v.>.5 O ",
"5 v 5 >.>.>.>.p p >.>.+ p 5 z L >.5 v >.5 O 5 >.>.+ + >.5 Y.>.>.>.5 5 >.5 5 5 5 >.z >.+ >.>.>.+ 5 5 5 p 5 5 S p 5 v >.5 z >.>.z ",
"5 5 5 5 5 >.>.>.5 5 p >.>.5 + L 5 >.5 5 ^ 5 5 5 5 v @ v 5 5 >.A.>.>.5 >.>.>.v p 5 5 >.>.>.5 5 >.>.5 5 5 5 >.5 [.>.5 >.5 p >.5 5 ",
"z 5 >.5 5 v >.>.5 5 O >.>.z 5 >.: 5 5 ^ O 5 >.5 p >.>.5 >.L 5 p >.^ >.>.v K.S 5 + O >.>.>.5 5 Y.>.5 5 >.>.>.[.[.[.>.^ z ^ >.@ + ",
"5 5 >.>.>.@ L >.>.z v v p 5 v.>.5 ^ v >.+ ^ >.5 5 5 >.5 5 5 5 v.5 + >.>.5 >.5 5 + 5 5 5 L S >.>.>.5 5 >.z >.[.[.[.>.5 >.v z 5 + ",
">.5 z 5 5 z >.L ^ >.5 O v 5 5 5 5 ^ 5 5 >.A.>.5 z v >.+ 5 5 z 5 v >.v >.5 : 5 z >.>.5 5 : >.>.5 : 5 5 5 @ >.[.[.[.>.K.v 5 >.>.5 ",
">.Y.Y.>.5 z >.O 5 >.+ >.>.+ O >.5 >.>.+ p p + >.>.5 >.v.>.>.v 5 5 >.>.>.5 p >.5 5 v 5 5 >.^ 5 >.5 v >.5 >.>.A.[.>.5 >.>.O >.5 5 ",
"5 >.z >.O @ >.5 + >.z 5 5 5 O 5 z >.>.5 5 5 z >.A.>.5 @ 5 5 5 5 O z 5 >.p v p O 5 >.5 5 >.>.O 5 >.v h.>.5 O 5 5 5 5 >.>.@ >.Y.5 ",
">.h.5 5 v >.L 5 v Y.>.>.>.5 >.m.5 >.>.z >.5 5 O 5 5 O 5 5 v >.Y.>.v 5 z S v v.5 >.>.5 A.Y.O O v L : >.>.5 + >.5 >.5 5 @ 5 >.>.p ",
"5 >.5 >.>.5 v >.>.O v z >.>.>.>.^ z >.L 5 5 >.5 p p p >.>.v O >.A.>.5 5 p 5 + Y.>.L L 5 5 O >.>.v L 5 >.>.L ^ 5 5 5 + >.Y.>.5 >.",
"v 5 >.>.z 5 v v.>.5 + p >.>.O O A.5 ^ 5 5 z p v >.>.5 >.>.z 5 5 >.>.5 5 5 L 5 5 5 O O >.L 5 5 5 >.p >.v >.>.O 5 >.5 h.z O 5 >.>.",
">.Y.>.>.>.>.>.m.>.>.5 z z v.>.5 >.>.>.>.5 5 5 >.>.L 5 + >.>.A.+ 5 v >.>.S 5 z 5 >.5 >.p v 5 >.>.5 ^ >.5 5 >.5 5 A.O v L S >.>.5 ",
">.>.5 >.5 5 '.A.5 >.>.5 5 5 5 5 5 5 >.5 @ L >.>.v m.z 5 5 5 >.O K.5 5 K.>.p v v >.>.>.5 z 5 5 >.>.L 5 z + p ^ p 5 5 >.v 5 5 5 z ",
">.m.: 5 5 : 5 5 z 5 v 5 5 >.5 5 5 5 5 : O >.z X   @ o @ @ o @ # >.>.5 5 >.>.5 5 X v >.5 5 + z ^ O 5 v v >.5 >.5 5 v >.>.>.5 5 >.",
"v.O + 5 5 5 S 5 >.+ 5 >.5 5 >.>.>.Y.5 5 5 z # @ o @ o o @ o o @ 5 >.z O @ 5 + >.5 5 >.>.p >.>.v 5 5 >.>.v >.5 @ ^ >.5 O >.>.^ + ",
">.>.>.>.5 v >.Y.v L >.>.z 5 >.F.v >.5 O >.5 @ @   o @ o @ @     >.>.>.>.5 5 5 >.>.>.'.>.5 + O >.v.z 5 5 O Y.>.>.A.5 >.>.>.>.>.z ",
"S >.+ S >.>.>.+ >.>.>.v z >.: >.L 5 >.5 v z o   o   o @ o @   @ >.>.5 5 A.O 5 v Y.>.5 >.+ O O >.Y.5 >.>.>.p A.>.p @ >.5 + v 5 p ",
">.>.>.5 5 >.p 5 5 K.5 5 >.5 5 z O 5 v 5 5 v.o @ o   o @ o @ o @ 5 v 5 z 5 ^ 5 >.5 S 5 >.>.+ p 5 >.>.>.>.v 5 p S 5 5 5 5 p >.>.5 ",
"5 5 5 z 5 5 5 ^ 5 5 v >.>.v 5 z @ 5 ^ 5 >.+ o o o o @ o   o @   : O ^ A.O 5 >.>.+ S >.^ 5 S >.z >.>.O >.L O 5 >.5 5 >.>.>.>.A.5 ",
"5 5 5 O p 5 S 5 >.>.5 L >.v + L 5 >.5 5 Y.>.@ @ o @ @ o o o o o 5 5 >.Y.5 5 5 O >.p >.O O O Y.v.S >.>.5 v z 5 5 v >.'.5 v.>.>.>.",
"5 L >.O z >.>.5 >.>.>.@ 5 z >.5 >.>.>.v >.>.# o o @ @   @ @ o @ >.p 5 [.5 5 z 5 v S + 5 >.5 v.>.5 + 5 ^ A.>.5 + 5 >.>.5 L @ S Y.",
">.5 >.>.p >.>.>.p 5 v ^ >.5 v >.>.O 5 v 5 >.@ o o o @ o o   @ @ >.v [.[.[.>.>.>.5 >.>.5 >.5 5 >.v.>.5 >.5 >.>.>.>.>.>.K.5 5 O @ ",
"p >.5 5 >.5 X >.5 >.>.O >.5 + v : O p Y.>.S X X o o o o o o @ o v 5 [.[.[.m.p 5 K.z + z : 5 5 ^ 5 >.z z >.>.L 5 >.v O >.v 5 z @ ",
"p >.5 p v 5 5 >.5 v ^ 5 h.>.L 5 @ L >.5 5 5 5 >.5 5 >.>.>.>.>.+ A.5 [.[.[.5 5 O v Y.O ^ Y.+ p p 5 >.>.5 5 z 5 5 >.z v ^ 5 p >.>.",
"5 >.Y.>.5 >.>.: 5 5 >.>.5 >.Y.p + >.>.>.p 5 >.>.>.5 Y.Y.>.5 5 + >.>.p [.5 + >.z O Y.5 5 5 >.L z A.>.>.5 >.v 5 p v A.5 p >.>.>.>.",
"5 O >.>.5 5 z 5 + >.>.>.5 5 5 >.O 5 v z v 5 5 >.5 5 X 5 5 >.>.5 5 >.5 >.5 ^ L >.>.L >.>.@ L 5 S p v >.5 5 5 p >.z O 5 >.v 5 v K.",
"5 5 L >.O 5 5 5 + v 5 5 >.p 5 >.>.5 v 5 5 + O v >.5 >.>.O 5 A.+ 5 5 5 5 5 z v 5 O 5 v 5 >.5 5 >.5 L 5 5 >.v >.>.5 5 >.5 @ 5 >.>.",
"v v.A.p >.>.5 5 5 5 5 5 5 K.5 + z >.>.5 5 5 + p >.5 >.>.p : >.>.>.v 5 >.5 + v 5 5 >.>.5 >.v.>.>.5 5 >.5 5 >.v.5 v.>.5 5 + p >.v ",
">.5 5 5 ^ 5 5 >.>.>.>.>.v.>.v.>.>.5 5 p p @ p >.>.5 5 >.>.>.z z >.+ >.>.5 >.v 5 >.>.5 >.5 z 5 >.5 >.>.>.>.5 : 5 >.5 >.>.>.5 O >.",
"5 5 >.>.>.5 + p 5 z >.>.5 v K.Y.5 + L 5 5 5 L >.>.F.p 5 p >.+ O 5 5 >.>.h.z >.5 5 >.>.A.>.>.+ O >.>.v 5 v 5 ^ >.z 5 5 v 5 >.>.v ",
">.>.>.5 A.v v 5 >.5 5 : 5 O >.>.>.>.5 v O Y.>.z >.5 v S ^ >.5 5 5 + 5 S 5 5 + L @ ^ A.5 O S >.>.S 5 p 5 >.>.>.5 S >.>.v 5 5 >.>.",
">.>.z O >.5 v 5 5 @ 5 5 5 5 5 5 O + v v >.>.>.5 >.5 v >.>.p X v >.+ S ^ 5 5 5 v >.>.S >.z >.z >.5 5 >.>.>.5 5 5 5 >.>.>.: >.>.v ",
">.>.>.v.>.+ 5 5 5 z >.L >.Y.p >.5 @ >.5 >.>.+ O p + @ # @ o   @ o X o >.5 5 5 >.>.5 + L p 5 5 5 >.5 5 >.v.p 5 5 v K.L >.v >.>.>.",
">.>.>.z >.>.v 5 p 5 5 5 O 5 + >.z 5 5 p >.>.5 5 p @ o @ o o l.o o o @ 5 >.p + >.: O 5 >.5 >.F.>.>.p 5 5 L >.>.>.>.>.5 + p >.L >.",
"S >.z O z >.5 5 5 5 >.z S >.S 5 >.Y.v >.>.@ 5 >.>.@ @ @ o @ @ @ o @ @ 5 >.5 >.5 v >.>.@ + >.v 5 z 5 >.>.5 5 v >.p v 5 z 5 5 5 >.",
"z 5 v p >.>.v 5 A.5 >.>.5 >.A.>.5 p >.O K.>.5 5 5 @ o @ @ o o @     o 5 >.v 5 z >.v 5 5 5 >.Y.z @ 5 >.5 5 5 O 5 >.>.: L Y.L 5 5 ",
"5 O >.>.>.v >.>.>.5 5 z @ 5 >.>.L 5 >.5 + ^ >.>.p o   @ @ o o o @ o o 5 >.>.5 L >.5 v >.5 5 5 O 5 5 @ S >.>.5 5 5 @ >.A.>.>.v z ",
"v >.z @ S >.>.K.>.>.>.5 >.5 >.5 5 + >.>.5 5 5 z >.o o o @ @ o o o     @ o o o o o @ >.>.v 5 p z >.>.h.v 5 p >.5 >.O + 5 O 5 >.5 ",
"5 >.5 5 5 5 5 >.5 5 5 5 >.+ >.L z 5 5 @ 5 z 5 >.5 o o o o @ @ o     . @ o o @ @ o o 5 >.>.>.5 L 5 5 >.A.>.5 5 5 Y.>.5 + p z 5 5 ",
"5 + 5 z 5 p 5 5 5 >.z v 5 5 >.v >.5 >.>.>.>.5 O ^ @ @ @ o o @ @ . . . o o   o o o @ L L 5 >.>.5 5 5 O 5 >.^ >.5 >.v 5 >.^.v.5 z ",
"5 @ v 5 5 z 5 >.S >.+ 5 5 z : 5 >.>.L >.>.5 >.v >.@ o o @ @   @   .   @ o o @ o o @ >.>.5 5 >.5 5 5 5 >.5 >.>.v >.>.5 >.>.>.v.L ",
"5 v 5 z v 5 ^ >.>.z 5 S v 5 S p 5 S + 5 L z O 5 z X @ @ o @ o o . . . o o o o o o o L >.A.5 >.Y.z >.>.>.5 h.5 >.>.>.5 v.>.S 5 5 ",
"^ >.O z Y.5 O >.5 5 >.>.5 z >.>.>.: 5 ^ 5 >.>.>.5 5 >.Y.O 5 >.>.@ o o l.o   @ @ @ l.v >.K.v h.>.Y.>.v 5 >.>.A.>.>.>.>.>.p S >.A.",
"z v Y.z >.v O z z + 5 >.5 5 >.>.^ 5 >.5 5 >.5 z @ 5 5 5 5 >.>.5   o o o o @ @ o l.@ z z >.p Y.Y.Y.F.>.>.A.>.h.>.p >.>.p S 5 >.p ",
"5 >.S O 5 >.5 K.>.5 >.v.5 v @ >.5 K.z p + 5 >.+ z >.5 5 5 >.p v.o @ o o @ o @ o @ l.>.>.5 >.S >.5 ^ >.>.>.>.>.^ + >.F.z >.5 >.>.",
">.5 5 S v z z 5 5 5 5 A.>.>.+ + >.>.p z O >.>.5 z O >.K.5 S 5 5 @ o o @ l.o o @ @ o 5 v.5 5 Y.>.L 5 >.>.>.5 >.>.5 >.v >.>.5 Y.v.",
"5 v >.5 >.5 5 >.>.>.v >.5 p >.5 5 p >.>.>.@ >.5 5 S >.v + ^ v + @ @ o @ o o @ @ @ o 5 h.5 >.F.p >.v Y.>.>.z >.L v 5 5 v >.>.F.Y.",
"5 >.5 5 Y.>.5 5 5 O >.p 5 O 5 5 5 >.+ 5 >.5 5 >.>.>.>.p >.>.h.p >.5 5 ^ >.5 >.L F.F.>.Y.5 >.L v 5 A.>.>.5 >.>.>.>.v L Y.>.A.A.5 ",
"v v >.5 5 5 >.5 >.5 5 + v ^ O 5 >.>.5 5 5 5 L >.O 5 >.5 >.>.p >.z 5 ^ Y.5 z v >.>.>.>.v.A.L 5 >.S K.Y.z p >.S S >.>.>.>.Y.h.>.>.",
"5 5 >.5 @ O + 5 ^ v >.v ^ >.>.S >.p A.+ p 5 >.>.5 >.+ 5 p 5 L z >.v ^ 5 5 v 5 >.>.>.v >.>.>.>.>.L L >.z v >.+ >.>.Y.>.>.5 >.>.>."
};
