/* XPM */
static const char *battlefield_tile_2[] = {
/* columns rows colors chars-per-pixel */
"64 64 185 2 ",
"   c #2E2B16",
".  c #2E2C19",
"X  c #322E15",
"o  c #312E1B",
"O  c #363216",
"+  c #383317",
"@  c #35321B",
"#  c #3A3318",
"$  c #38331A",
"%  c #39331A",
"&  c #39331B",
"*  c #383318",
"=  c #383418",
"-  c #393418",
";  c #383518",
":  c #393518",
">  c #383419",
",  c #393419",
"<  c #383519",
"1  c #393519",
"2  c #3A3518",
"3  c #3A3419",
"4  c #3A3519",
"5  c #393618",
"6  c #393619",
"7  c #3A3618",
"8  c #3A3619",
"9  c #3B3619",
"0  c #3A3719",
"q  c #3B3719",
"w  c #38341A",
"e  c #39341A",
"r  c #38351A",
"t  c #39351A",
"y  c #39341B",
"u  c #39351B",
"i  c #3A341A",
"p  c #3B341A",
"a  c #3A351A",
"s  c #3B351A",
"d  c #3A341B",
"f  c #3A351B",
"g  c #3B351B",
"h  c #38361A",
"j  c #39361A",
"k  c #39371A",
"l  c #39361B",
"z  c #39371B",
"x  c #3A361A",
"c  c #3B361A",
"v  c #3A371A",
"b  c #3B371A",
"n  c #3A361B",
"m  c #3B361B",
"M  c #3A371B",
"N  c #3B371B",
"B  c #3C351A",
"V  c #3C351B",
"C  c #3C361A",
"Z  c #3D361A",
"A  c #3C371A",
"S  c #3D371A",
"D  c #3C361B",
"F  c #3C371B",
"G  c #3D371B",
"H  c #39371C",
"J  c #38361D",
"K  c #3A361C",
"L  c #3B361C",
"P  c #3A371C",
"I  c #3B371C",
"U  c #3A371D",
"Y  c #3B371D",
"T  c #3C361C",
"R  c #3C371C",
"E  c #3D371C",
"W  c #3C361D",
"Q  c #3C371D",
"!  c #3D371D",
"~  c #3C371E",
"^  c #3A361A",
"/  c #39381B",
"(  c #3A381A",
")  c #3B381A",
"_  c #3A381B",
"`  c #3B381B",
"'  c #3B391B",
"]  c #3C381A",
"[  c #3C391A",
"{  c #3D391A",
"}  c #3C381B",
"|  c #3D381B",
" . c #3C391B",
".. c #3D391B",
"X. c #3E381B",
"o. c #3A381C",
"O. c #3B381C",
"+. c #3B391C",
"@. c #3B381D",
"#. c #3B3A1D",
"$. c #3C381C",
"%. c #3D381C",
"&. c #3C391C",
"*. c #3D391C",
"=. c #3C381D",
"-. c #3D381D",
";. c #3C391D",
":. c #3D391D",
">. c #3E381C",
",. c #3E391C",
"<. c #3E381D",
"1. c #3E391D",
"2. c #3F391D",
"3. c #3C3A1C",
"4. c #3D3A1C",
"5. c #3C3A1D",
"6. c #3D3A1D",
"7. c #3D3B1D",
"8. c #3E3A1C",
"9. c #3F3A1C",
"0. c #3E3B1C",
"q. c #3E3A1D",
"w. c #3F3A1D",
"e. c #3E3B1D",
"r. c #3F3B1D",
"t. c #3C381E",
"y. c #3D381E",
"u. c #3C391E",
"i. c #3D391E",
"p. c #3C391F",
"a. c #3D391F",
"s. c #3E381E",
"d. c #3E391E",
"f. c #3F391E",
"g. c #3E391F",
"h. c #3F391F",
"j. c #3C3A1E",
"k. c #3D3A1E",
"l. c #3D3B1E",
"z. c #3D3A1F",
"x. c #3E3A1E",
"c. c #3F3A1E",
"v. c #3E3B1E",
"b. c #3F3B1E",
"n. c #3E3A1F",
"m. c #3F3A1F",
"M. c #3E3B1F",
"N. c #3F3B1F",
"B. c #3F3C1E",
"V. c #3F3C1F",
"C. c #3F3D1F",
"Z. c #3D391D",
"A. c #3C3920",
"S. c #3E3A20",
"D. c #3E3B20",
"F. c #3F3B20",
"G. c #3F3C20",
"H. c #3F3C21",
"J. c #3F3B20",
"K. c #403A1E",
"L. c #403B1E",
"P. c #403A1F",
"I. c #403B1F",
"U. c #403C1E",
"Y. c #403C1F",
"T. c #403B1F",
"R. c #403A20",
"E. c #403B20",
"W. c #413B20",
"Q. c #403B21",
"!. c #403C20",
"~. c #413C20",
"^. c #403D20",
"/. c #413D20",
"(. c #403C21",
"). c #413C21",
"_. c #413D21",
"`. c #423C20",
"'. c #413C22",
"]. c #423D22",
"[. c #423E22",
"{. c #413C21",
"}. c #504632",
"|. c #504632",
" X c None",
/* pixels */
"E Y b b t.[ [ t.b t.( t.E F t.D.b E b t.t.E t.t.t.t.t.Y t.b t.t.b t.b b E b F b b b t.t.E t.b Y b t.b ( t.I.t.t.b b b t.@.b t.E ",
"b O $ F b Y b O @.t.Y b t.t.t.t.t.t.b ( t.E t.b Y b E t.Y.Y b t.t.t.b b < E t.b b t.b b b t.[ b b t.b b Y b E b t.t.Y.O Y b * t.",
"E [ b t.E t.t.b b t.b O t.t.t.( I.b b O b t.b * * Y [ b [ b F t.F D.b b b t.t.b E b < b F b t.Y t.b $ ^.^.< t.t.b F t.G.F b b Y ",
"E b Y.b b t.t.E b t.b t.t.b b Y t.b V.t.b t.b t.Y t.t.@.b t.t.t.t.t.F t.t.t.b + O t.t.G.t.O b @.$ [ ( t.t.b t.t.b t.b t.b t.F t.",
"Y E t.Y b b E.t.b b t.t.b b b O t.[ t.b t.t.t.t.< b t.Y b F b [ < b t.b ^.b t.E b * G.b t.b t.t.b Y t.E b t.t.Y t.b O Y E t.+ E ",
"b b b t.t.b t.@.t.V.V.t.t.F b Y t.b b @.^.t.t.b t.F t.t.t.@.[ b E b b t.b b b * Y O b O t.t.t.t.t.b t.b * t.t.b t.b b b t.t.t.b ",
"b t.^.D.t.b F b + D.* E t.t.b t.V.* b t.t.b b Y t.^.+ * t.b b t.t.D.Y E t.t.b b [ ^.I.t.^.b t.t.t.Y t.b < t.E b t.[ t.t.t.[ b b ",
"b b t.O O b * b b O O t.b ( b b D.b O t.^.t.b O t.t.Y b t.b ( t.t.b b X [ t.t.+ b b Y @.[ b b b Y b b b [ * b t.b b t.E.b b E F ",
"t.t.b E b b < t.t.b + E b F b * F t.F F b b E.b b t.F * b t.t.t.b b t.( b @.t.b t.[ t.b ( t.b b ( t.b b + b t.( t.@.t.E b F t.G.",
"b t.b b * b ( * t.t.* t.E.F b b < b t.D.O b t.b b I.t.b b ( t.t.b t.t.t.t.b F [ t.t.E b t.t.E b E.t.t.b b I.E b }.b b t.[ t.b b ",
"F < t.E t.F b F * b b t.@.t.E t.t.b b t.t.t.t.+ t.t.b b t.b t.[ Y @.t.[ t.t.b + t.t.b [ @.^.F b b b E t.b t.b $ b @.b t.[ t.b b ",
"E + b [ t.F * b b [ @.b O E.t.t.t.b t.[ }.E Y.b * ( t.O b b b t.t.t.t.[ b t.b < ( b O b F b b b E I.b b F t.t.t.O t.E E Y t.F t.",
"E t.I.O b E b b t.+ $ b t.t.t.t.Y b * b t.F t.t.b t.^.t.F b + E b b O b b I.t.b b Y O F t.$ t.@.+ V.b ( t.F b t.O + ^.Y O t.b t.",
"t.( Y E t.b + t.t.b * b Y b b F t.b ^.b b I.V.t.b O b t.t.b F b b b * t.t.t.b t.t.b Y b t.b t.t.t.b O $ @ o o @ @ o @ $ t.t.+ E ",
"t.b t.E b b O t.b b b F O O F ^.t.b Y b b O b b t.O b D.b t.t.b t.^.t.b b + b F b b t.D.t.b b b t.b Y < $ @ @ @ @ @ o @ D.t.b O ",
"b E b t.t.t.t.F F t.t.* F b Y [ t.b E t.b O b t.t.+ * t.b ^.t.t.t.b b t.b b b b t.Y t.* t.t.t.+ b b o $ o o @ o o o @ o Y t.t.Y ",
"b b b b b t.t.t.b b F t.t.b * [ b t.b b @.b b b b Y $ E b b t.I.t.t.b t.t.t.E F b b t.t.t.b b t.t.$ o o o @ o o @ o @ o F t.b b ",
"Y b t.b b E t.t.b b O t.t.Y b t.< b b @.O b t.b b t.t.b t.[ b F t.@.t.t.E E.( b + O t.t.t.b b ^.t.b o @ @ @ @ @ o @ @ o @.t.$ * ",
"b b t.t.t.$ [ t.t.Y E E F b Y < X @ o @ o @ $ o b b @.b b b b D.b * t.t.b t. Xb * b b b [ ( t.t.Y b o @ o A.o @ @ @ o @ E Y b + ",
"t.b Y b b Y t.[ @.t.b O E b O o o @ o o @ @ $ o Y Y t.+ b b Y b E t.E t.b  X X Xt.t.b b < t.t.b < b o o . @ @ @ @ @ @ o b t.t.b ",
"t.^.^.t.b Y t.O b t.* t.t.+   @ o @ @ o o o o $ t.b t.D.t.t.E b b t.t.t.b  X X Xb E b b t.@.b t.b E @ o @ @ @ @ @ o @ @ O t.b b ",
"b t.Y t.O $ t.b + t.Y b b b   o o @ @ o o o o @ I.t.b $ b b b b O Y b t.F  X X Xb t.b b t.t.O b t.E @ $ o   o o o o @ @ $ t.^.b ",
"t.V.b b E t.[ b E ^.t.t.t.b @ @ o @ @ o @ o o . b b O b b E t.^.t.E b Y ( E  Xb t.t.b I.^.O O E [ < @ $ o o @ o @ o o . b t.t.F ",
"b t.b t.t.b E t.t.O E Y t.t.@ @ @ o @ @ o o @ o F F F t.t.E O t.I.t.b b F b + ^.t.[ [ b b O t.t.E [ b t.t.t.@.b Y b * t.^.t.b t.",
"E b t.t.Y b E D.t.b * F t.t.. . @ o @ o o o o o t.t.b t.t.Y b b }.t.b b b [ b b b O O t.[ b b b t.F t.E t.t.O b t.b V.Y O b t.t.",
"t.^.t.t.t.t.t.G.t.t.b Y Y D.@ o @ @ @ @ o o o @ t.[ b + t.t.I.* b E t.t.( b Y b t.b t.F E b t.t.b @.t.b b t.b b I.O E [ ( t.t.b ",
"t.t.b t.b b t.I.b t.t.b b b o o o o @ o . @ @ @ E G.Y b b b t.O E.b b E.t.F E E t.t.t.b Y b b t.t.[ b Y * F @.F b b t.E b b b Y ",
"t.G.< b b < b b Y b E b b t.X o o o o . . @ @   O t.b t.t.b t.t.t.t.b b t.t.b b X E t.b b + Y @.O b E E t.b t.b b E t.t.t.b b t.",
"D.O * b b b ( b t.* b t.b b t.t.t.^.b Y b Y t.t.b ^.Y b t.b b F b t.Y O $ b + t.b b t.t.F t.t.E b b t.t.E t.b $ @.t.b O t.t.@.* ",
"t.t.t.t.b E t.^.E [ t.t.Y b @.Y.E t.b $ t.b t.t.b b t.E t.t.O O t.t.t.t.b b b t.t.t.b t.b * O t.D.Y b b O ^.t.t.I.b t.t.t.t.t.Y ",
"( t.* ( t.t.t.* t.t.t.E @.t.< t.[ b t.b E b b O Y O E @.F ( O t.t.t.b b I.O b E ^.}.b t.+ O O t.^.b t.t.t.F I.t.F $ t.b + E b F ",
"t.t.t.b b t.F b b E.b b t.b b Y O b E b b t.b t.E O b t.b ( b t.b E b Y b @.b t.b ( b t.t.* F b t.t.t.t.E b F ( b b b b F t.t.b ",
"b b b Y b b b @.b b E t.t.E b Y $ b @.b t.+ b b b b t.E O b t.$ b O @.I.O b t.t.* ( t.@.b ( t.Y t.t.O t.[ O b t.b b t.t.t.t.I.b ",
"b b b O F b ( b t.t.b [ t.E + [ b t.b b ^.t.t.t.Y t.t.b b b E b b b t.^.b b b O t.F t.O O O ^.D.( t.t.b E Y b b E t.t.b D.t.t.t.",
"b [ t.O Y t.t.b t.t.t.$ b Y t.b t.t.t.E t.t.^.b b t.t.$  Xt.b @.t.F * b b b Y b E ( * b t.b D.t.b + b @.I.t.b + b t.t.b [ $ ( ^.",
"t.b t.t.F t.t.t.F b E @.t.b E t.t.O b E b t.t.b b F t. X X Xt.@.t.E t.b t.t.E t.b E t.b t.b b t.D.t.b t.b t.t.t.t.t.t.E.b b O $ ",
"F t.b b t.b X t.b t.t.O t.b * E < O F ^.t.( O O b * b  X X Xt.b E b b b b G.F b E.Y * Y < b b @.b t.Y Y t.t.[ b t.E O t.E b Y $ ",
"F t.b F E b b t.b E @.b V.t.[ b $ [ t.b b b b t.b b t. X X Xt.* I.b b * b b b O E ^.O @.^.+ F F b t.t.b b Y b b t.Y E @.b F t.t.",
"b t.^.t.b t.t.< b b t.t.b t.^.F + t.t.t.F b t.t.t.b Y.^. Xb b * t.t.F E b * t.Y O ^.b b b t.[ Y I.t.t.b t.E b F E I.b F t.t.t.t.",
"b O t.t.b b Y b + t.t.t.b b b t.O b  XY E b b t.b b X b b t.t.b b t.b t.b @.[ t.t.[ t.t.$ [ b ( F E t.b b b F t.Y O b t.E b E E.",
"b b [ t.O b b b * E b b t.F b t.t. X X Xb * O E t.b t.t.O b I.+ b b b b b Y t.b O b E b t.b b t.b [ b b t.E t.t.b b t.b $ b t.t.",
"E D.I.F t.t.b b b b b b b E.b + Y  X X Xb b * F t.b t.t.F < t.t.t.E b t.b b t.b b t.t.b t.D.t.t.b b t.b b t.D.b D.t.b b + F t.E ",
"t.b b b @.b b t.t.t.t.t.D.t.D.t.t. X X XF $ F t.t.b b t.t.t.Y Y t.* t.t.b @.t.b t.t.b t.b Y b t.b t.t.t.t.b < b t.b t.t.t.b O t.",
"b b t.t.t.b + F b Y t.t.b E E.^.b *  Xb b b [ t.t.Y.F b F t.* O b b t.t.V.Y t.b b t.t.I.t.t.+ O t.t.E b E b @.t.Y b b E b t.t.E ",
"t.t.t.b I.E E b t.b b < b O t.t.t.t.b E O ^.t.Y t.b E ( ( t.b $ O X o @ o o o $ X @.I.b O ( t.t.( b F b t.t.t.b ( t.t.E b b t.t.",
"t.t.Y O t.b E b b $ b b b b b b O * E E t.t.t.b t.b E t.t.F X $ $ X @ @ o o o $ $ t.( t.Y t.Y t.b b t.t.t.b b b b t.t.t.< t.t.E ",
"t.t.t.D.t.* b b b Y t.[ t.^.F t.b $ t.b t.t.+ O F F t.t.[ b $ $ o X o @ o o o @ @ b * [ F b b b t.b b t.D.F b b }.E.[ t.E t.t.t.",
"t.t.t.Y t.t.E b F  Xb b O b * t.Y b b F t.t.b b F b b t.F b D.o o o @ o @ o o @ . O b t.b t.Y.t.t.F b b [ t.t.t.t.t.b + F t.[ t.",
"( t.Y O Y t.b b  X X XY ( t.( b t.^.E t.t.$ b t.t.t.E.t.E t.t.@ o @ @ o @ o @ o o t.t.$ * t.E b Y b t.t.b b E t.F E b Y b b b t.",
"Y b E F t.t.E b  X X Xt.b t.I.t.b F t.O E.t.b b b t.F t.t.Y b @ . . o o @ o o o @ E b b b t.^.Y $ b t.b b b O b t.t.< [ ^.[ b b ",
"b O t.t.t.E t.t. X X XY $ b t.t.[ b t.b * @.t.t.F b O t.t.E b o @ o o o @ @ o @ @ b E t.b b b O b b $ ( t.t.b b b $ t.I.t.t.E Y ",
"E t.Y $ ( t.t.E.t. Xt.b t.b t.b b * t.t.b b b Y t.F * b t.Y.b o @ @ @ @ o o o o o t.t.t.E b F Y t.t.V.E b F t.b t.O * b O b t.b ",
"b t.b b b b b t.b b b b t.* t.[ Y b b $ b Y b t.b b b * b t.t.o o o @ @ o o @ @ o F b t.t.t.b [ b b t.I.t.b b b ^.t.b + F Y b b ",
"b + b Y b F b b b t.Y E b b t.E t.b t.t.t.t.b O @.t.t.t.+ F t.@ @ o @ o o   o o o I.[ [ b t.t.b b b O b t.@.t.b t.E b t.].D.b Y ",
"b $ E b b Y b t.( t.+ b b Y < b t.t.[ t.t.b t.E t.E E E t.V.O t.F E b t.Y b t.E b t.t.t.b b t.b b b b t.b t.t.E t.t.b t.t.t.D.[ ",
"b E b Y E b @.t.t.Y b ( E b ( F b ( + b [ Y O b b + [ t.F t.b b + F b b b b E E b Y [ t.I.b t.^.Y t.t.t.b V.b t.t.t.b D.t.( b b ",
"@.t.O Y ^.b O t.b b t.t.b Y t.t.t.< b @.b t.t.t.b b t.^.O b t.t.t.b b t.E < t.t.t.V.F t.E.E V.t.^.t.E b t.t.I.t.t.t.t.t.F ( t.I.",
"Y E ^.Y t.E O Y Y * b t.b b t.t.@.b t.b b t.b Y $ b b b b t.t.b b b b b E t.t.E I.t.b b t.F ^.^.^.Y.t.t.I.t.V.t.F t.t.F ( b t.F ",
"b t.( O b t.b E.t.b t.D.b E $ t.b E.Y F * b t.* Y t.b b b t.F D.* @.b b t.b [ t.V.^.t.t.b t.( t.b @.t.t.t.t.t.@.* t.Y.Y t.b t.t.",
"t.b b ( E Y Y b b b b I.t.t.+ + t.t.F Y O t.t.b Y O t.E.b ( b b ( b b t.^.F b [ t.b b D.b b ^.t.[ b t.t.t.b t.t.b t.E t.t.b ^.D.",
"b E t.b t.b b t.t.t.E t.b F t.b b F t.t.t.$ t.b }.( t.E * @.E * [ Y Y t.b * t.Y.t.b b V.b t.Y.F t.E ^.t.t.Y t.[ E b b E t.t.Y.^.",
"b t.b b ^.t.b b b O t.F b O b b b t.* b t.b b t.t.t.t.F t.t.V.F t.b b t.t.b t.[ Y.Y.t.^.b t.[ E b I.t.t.b t.t.t.t.E [ ^.t.I.I.b ",
"E E t.b b b t.b t.b b * E @.O b t.t.b b b b [ t.O b t.b t.t.F t.Y b @.^.b Y E t.t.t.t.D.I.[ b t.( E.^.Y F t.( ( t.t.t.t.^.V.t.t.",
"b b t.b $ O * b @.E t.E @.t.t.( t.F I.* F b t.t.b t.* b F b [ Y t.E @.b b E b t.t.t.E t.t.t.t.t.[ [ t.Y E t.* t.t.^.t.t.b t.t.t."
};
