/* XPM */
static const char *battlefield_tile_3[] = {
/* columns rows colors chars-per-pixel */
"64 64 179 2 ",
"   c #2E2C16",
".  c #2F2C19",
"X  c #322E15",
"o  c #312E1B",
"O  c #363216",
"+  c #383317",
"@  c #35321B",
"#  c #393418",
"$  c #383518",
"%  c #393518",
"&  c #383419",
"*  c #393419",
"=  c #383519",
"-  c #393519",
";  c #383418",
":  c #3A3518",
">  c #3A3419",
",  c #3A3519",
"<  c #393618",
"1  c #393619",
"2  c #3A3618",
"3  c #3A3619",
"4  c #3B3619",
"5  c #3A3719",
"6  c #3B3719",
"7  c #38341A",
"8  c #39341A",
"9  c #38351A",
"0  c #39351A",
"q  c #39341B",
"w  c #39351B",
"e  c #3A341A",
"r  c #3B341A",
"t  c #3A351A",
"y  c #3B351A",
"u  c #3A341B",
"i  c #3A351B",
"p  c #3B351B",
"a  c #38361A",
"s  c #39361A",
"d  c #39371A",
"f  c #39361B",
"g  c #39371B",
"h  c #3A361A",
"j  c #3B361A",
"k  c #3A371A",
"l  c #3B371A",
"z  c #3A361B",
"x  c #3B361B",
"c  c #3A371B",
"v  c #3B371B",
"b  c #3C351B",
"n  c #3C361A",
"m  c #3D361A",
"M  c #3C371A",
"N  c #3D371A",
"B  c #3C361B",
"V  c #3C371B",
"C  c #3D371B",
"Z  c #39371C",
"A  c #3A361C",
"S  c #3B361C",
"D  c #3A371C",
"F  c #3B371C",
"G  c #3A371D",
"H  c #3B371D",
"J  c #3C361C",
"K  c #3C371C",
"L  c #3D371C",
"P  c #3C361D",
"I  c #3C371D",
"U  c #3D371D",
"Y  c #3C371E",
"T  c #3A361A",
"R  c #39381B",
"E  c #3A381A",
"W  c #3B381A",
"Q  c #3A381B",
"!  c #3B381B",
"~  c #3B391B",
"^  c #3C381A",
"/  c #3C391A",
"(  c #3D391A",
")  c #3C381B",
"_  c #3D381B",
"`  c #3C391B",
"'  c #3D391B",
"]  c #3E381B",
"[  c #3A381C",
"{  c #3B381C",
"}  c #3B391C",
"|  c #3B381D",
" . c #3B3A1D",
".. c #3C381C",
"X. c #3D381C",
"o. c #3C391C",
"O. c #3D391C",
"+. c #3C381D",
"@. c #3D381D",
"#. c #3C391D",
"$. c #3D391D",
"%. c #3E381C",
"&. c #3E391C",
"*. c #3E381D",
"=. c #3E391D",
"-. c #3F391D",
";. c #3C3A1C",
":. c #3D3A1C",
">. c #3C3A1D",
",. c #3D3A1D",
"<. c #3D3B1D",
"1. c #3E3A1C",
"2. c #3F3A1C",
"3. c #3E3B1C",
"4. c #3E3A1D",
"5. c #3F3A1D",
"6. c #3E3B1D",
"7. c #3F3B1D",
"8. c #3C381E",
"9. c #3D381E",
"0. c #3C391E",
"q. c #3D391E",
"w. c #3C391F",
"e. c #3D391F",
"r. c #3E381E",
"t. c #3E391E",
"y. c #3F391E",
"u. c #3E391F",
"i. c #3F391F",
"p. c #3C3A1E",
"a. c #3D3A1E",
"s. c #3D3B1E",
"d. c #3D3A1F",
"f. c #3E3A1E",
"g. c #3F3A1E",
"h. c #3E3B1E",
"j. c #3F3B1E",
"k. c #3E3A1F",
"l. c #3F3A1F",
"z. c #3E3B1F",
"x. c #3F3B1F",
"c. c #3F3C1E",
"v. c #3F3C1F",
"b. c #3F3D1F",
"n. c #3D391D",
"m. c #363320",
"M. c #3C3920",
"N. c #3E3A20",
"B. c #3E3B20",
"V. c #3F3B20",
"C. c #3F3C20",
"Z. c #3F3C21",
"A. c #3F3B20",
"S. c #403A1E",
"D. c #403B1E",
"F. c #403A1F",
"G. c #403B1F",
"H. c #403C1E",
"J. c #403C1F",
"K. c #403B1F",
"L. c #403A20",
"P. c #403B20",
"I. c #413B20",
"U. c #403B21",
"Y. c #403C20",
"T. c #403D20",
"R. c #413D20",
"E. c #403C21",
"W. c #413C21",
"Q. c #413D21",
"!. c #423C20",
"~. c #413C22",
"^. c #423D22",
"/. c #423E22",
"(. c #413C21",
"). c #504632",
"_. c #504632",
"`. c None",
"'. c black",
/* pixels */
"L H l l 8./ / 8.l 8.E 8.L V 8.B.l L l 8.8.L 8.8.8.8.8.H 8.l 8.8.l 8.l l L l V l l l 8.8.L 8.l H l 8.l E 8.G.8.8.l l l 8.| l 8.L ",
"l O & V l H l O | 8.H l 8.8.8.8.8.8.l E 8.L 8.l H l L 8.J.H l 8.8.8.l l = L 8.l l 8.l l l 8./ l l 8.l l H l L l 8.8.J.O H l ; 8.",
"L / l 8.L 8.8.l l 8.l O 8.8.8.E G.l l O l 8.l ; ; H / l / l V 8.V B.l l l 8.8.l L l = l V l 8.H 8.l & T.T.= 8.8.l V 8.C.V l l H ",
"L l J.l l 8.8.L l 8.l 8.8.l l H 8.l v.8.l 8.l 8.H 8.8.| l 8.8.8.8.8.V 8.8.8.l + O 8.8.C.8.O l | & / E 8.8.l 8.8.l 8.l 8.l 8.V 8.",
"H L 8.H l l P.8.l l 8.8.l l l O 8./ 8.l 8.8.8.8.= l 8.H l V l / = l 8.l T.l 8.L l ; C.l 8.l 8.8.l H 8.L l 8.8.H 8.l O H L 8.+ L ",
"l l l 8.8.l 8.| 8.v.v.8.8.V l H 8.l l | T.8.8.l 8.V 8.8.8.| / l L l l 8.l l l ; H O l O 8.8.8.8.8.l 8.l ; 8.).l 8.l l l 8.8.8.l ",
"l 8.T.B.8.l V l + B.; L 8.8.l 8.v.; l 8.8.l l H 8.T.+ ; 8.l l 8.8.B.H L 8.8.l l / T.G.8.T.l 8.8.8.H 8.l = 8.L l 8./ 8.8.8./ l l ",
"l l 8.O O l ; l l O O 8.l E l l B.l O 8.T.8.l O 8.8.H l 8.l E 8.8.l l X / 8.8.+ l l H | / l l l H l l l / ; l 8.l l 8.P.l l L V ",
"8.8.l L l l = 8.8.l + L l V l ; V 8.V V l l P.l l 8.V ; l 8.8.8.l l 8.E l | 8.l 8./ 8.l | B.= l E 8.l l + l 8.E 8.| 8.L l V 8.C.",
"l 8.l l ; l E ; 8.8.; 8.P.V l l = l 8.B.O l 8.l l G.8.l l E 8.8.l 8.8.8.8.l V / 8.8.L l 8.B.L l P.8.8.l l G.L l 8.l l 8./ 8.l l ",
"V = 8.L 8.V l V ; l l 8.| 8.L 8.).l l 8.8.8.8.+ 8.8.l l 8.l 8./ H | 8./ 8.8.l + 8.8.l / H P.L l l l L 8.l 8.l & l | l 8./ 8.l l ",
"L + l / 8.V ; l l / | l O P.8.8.8.l 8./ 8.L J.l ; E 8.O l l l 8.8.8.8./ l 8.= X & o . . o o O & L G.l l V 8.8.8.O 8.L L H 8.V 8.",
"L 8.G.O l L l l 8.+ & l 8.8.8.8.H l ; l 8.V 8.8.l 8.T.8.V l + L l l O l l G.= o X o . o @ . @ O + v.l E 8.V l 8.O + T.H O 8.l 8.",
"8.E H L 8.l + 8.8.l ; l H l l V 8.l T.l l G.v.8.l O l 8.8.l V l l l ; 8.8.8.O & & o o o @ o @ @ 8.l & E 8.l l / G.l 8.8.8.8.+ L ",
"8.l 8.L l l O 8.l l l V O O V T.8.l H l l O l l 8.O l B.l 8.8.l 8.T.8.l l + o o o o @ @ @ . o o 8.l 8.8.8.8.8.8.8.8.l l B.8.l O ",
"l L l 8.8.8.8.V V 8.8.; V l H / 8.l L 8.l O l 8.8.+ ; 8.`.T.8.8.8.l l 8.l l o o @ o @ o @ m.@ o l l l V l l E V l L 8.l H 8.8.H ",
"l l l l l 8.8.8.l l V 8.8.l ; / l 8.l l | l l l l L & `.`.`.8.8.8.8.l 8.8.8.o o o o @ @ @ o o @ 8.l l l l 8.l l 8.l 8.l V 8.l l ",
"H l 8.l l L 8.8.l l O 8.8.H l 8.= l l | O l 8.l V 8.8.`.`.`.l l 8.| 8.8.L P.O o o . @ @ @ o o @ 8.l l 8.8.8.8.8.; 8.| H | 8.& ; ",
"l l 8.8.8.& / 8.8.H L L V l B.8.l | L 8.+ | 8.l & & & `.`.`.. @ o X 8.8.l 8.o o o o o o @ O @ @ 8.l l 8.H 8.l E 8.8.l 8.L H l + ",
"8.l H l l H 8./ | 8.l O L l l l l | l l 8.G.8.l & & & X `.o o o & @ L 8.l = O O @ @ o o . @ @ o = l l l & 8.8.8.T.8.P.L l 8.8.l ",
"8.T.T.8.l H 8.O l 8.; 8.8.+ O 8.l 8.8.; V V + 8.& o @ @ @ @ o o o O 8.8.l V & o o o o o @ @ o @ l L 8.l 8.8.G.8.8.l 8.8.O 8.l l ",
"l 8.H 8.O & 8.l + 8.H l l l O l H 8.8.l l l H 8.@ @ o . o o o o . o l 8.V L V O l 8.l l 8.8.O l 8.L v.8.l O l l l l 8.8.& 8.T.l ",
"8.v.l l L 8./ l L T.8.8.8.l 8.C.l 8.8.H 8.l l O o o . o o o @ m.@ o l H E L B.l 8.8.l G.T.O O L / = 8.8.l + 8.l 8.l l & l 8.8.V ",
"l 8.l 8.8.l ).8.8.O L H 8.8.8.8.| H 8./ l l 8.l o o o @ @ o . @ @ @ l l V l + T.B.8./ l l O 8.8.L / l 8.8./ | l l l + 8.T.8.l 8.",
"L l 8.8.H l L B.8.l ; V 8.8.O O G.l | l l H V L @ @ o @ @ o o o @ @ l l l / l l l O O 8./ l l l 8.V 8.L 8.8.O l 8.l v.H O l 8.8.",
"8.T.8.8.8.8.8.C.8.8.l H H B.8.l 8.8.8.8.l l l 8.@ & o o @ @ @ o o o 8.8.E l H l 8.l 8.V L l 8.8.l | 8.l l 8.l l G.O L / E 8.8.l ",
"8.8.l 8.l l 8.G.l 8.8.l l l l l l l 8.l & / 8.8.& @ o o o o @   @ o l P.8.V L L 8.8.8.l H l l 8.8./ l H ; V | V l l 8.L l l l H ",
"8.C.= l l = l l H l L l l 8.l l l l l = O 8.8.+ X @ o @ @ o @ @ @ @ l l 8.8.l l X L 8.l l + H | O l L L 8.l 8.l l L 8.8.8.l l 8.",
"B.O ; l l l E l 8.; l 8.l l 8.8.8.T.l l l H 8.8.l T.H l 8.l l L l 8.H O & l + 8.l l 8.8.V 8.8.L l l 8.8.L 8.l & ).8.l O 8.8.| ; ",
"8.8.8.8.l L 8.T.L / 8.8.H l 8.J.L 8.l O 8.l 8.8.l l 8.L 8.8.& O 8.8.8.8.l l l 8.8.8.l 8.l ; O 8.B.H l l O T.8.8.).l 8.8.8.8.8.H ",
"E 8.; E 8.8.8.; 8.8.8.L | 8.= 8./ l 8.l L l l O H O L | V E O 8.8.8.l l G.O l L T.8.l 8.+ O O 8.T.l 8.8.8.V G.8.V & 8.l + L l V ",
"8.8.8.l l 8.V l l P.l l 8.l l H O l L l l 8.l 8.L O l 8.l E l 8.l L l H l | l 8.l E l 8.8.; V l 8.8.8.8.L l V E l l l l V 8.8.l ",
"l l l H l l l | l l L 8.8.L l H & l | l 8.+ l l l l 8.L O l 8.& l O | G.O l 8.8.; E 8.| l E 8.H 8.8.O 8./ O l 8.l l 8.8.8.8.G.l ",
"l l l O V l E l 8.8.l / 8.L + / l 8.l l T.8.8.8.H 8.8.l l l L l l l 8.T.l l l O 8.V 8.O O O T.B.E 8.8.l L H l l L 8.8.l B.8.8.8.",
"l / 8.O H 8.8.l 8.8.8.& l H 8.l 8.8.8.L 8.8.T.l l 8.8.& 8.8.l | 8.V ; l l l H l L E ; l 8.l B.8.l + l | G.8.l + l 8.8.l / & E T.",
"8.l 8.8.V 8.8.8.V l L | 8.l L 8.8.O l L l 8.8.l l V 8.l ; = 8.| 8.L 8.l 8.8.L 8.l L 8.l 8.l l 8.B.8.l 8.l 8.8.8.8.8.8.P.l l O & ",
"V 8.l l 8.l X 8.l 8.8.O 8.l ; L = O V T.8.E O O l ; l L l H 8.l L l l l l C.V l P.H ; H = l l | l 8.H H 8.8./ l 8.L O 8.L l H & ",
"V 8.l V L l l 8.l L | l v.8./ l & / 8.l l l l 8.l l 8.8.8.8.8.; G.l l ; l l l O L T.O | T.+ V V l 8.8.l l H l l 8.H L | l V 8.8.",
"l 8.T.8.l 8.8.= l l 8.8.l 8.T.V + 8.8.8.V l L 8.8.l J.T.8.l l ; 8.8.V L l ; 8.H O T.l l l 8./ H G.8.8.l 8.L l V L G.l V 8.8.8.8.",
"l O 8.8.l l H l + 8.8.8.l l l 8.O l L H L l l 8.l l X l l 8.8.l l 8.l 8.l | / 8.8./ 8.8.& / l E V L 8.l l l V 8.H O l 8.L l L P.",
"l l / 8.O l l l ; L l l 8.V l 8.8.l L l l ; O H 8.l 8.8.O l G.+ l l l l l H L l O l L l 8.l l 8.l / l l 8.L 8.8.l l 8.l & l 8.8.",
"L B.G.V 8.8.l l l l l l l P.l + H 8.8.l l l ; V 8.l 8.8.V = 8.8.8.L l 8.l ; L l l 8.8.l 8.B.8.8.l l 8.H l 8.B.l B.8.l l + V 8.L ",
"8.l l l | l l 8.8.8.8.8.B.8.B.8.8.l l V V & V 8.8.l l 8.8.8.H H 8.; 8.8.l 8.L l 8.8.l 8.l = O @ o @ @ @ @ X X l 8.l 8.8.8.l O 8.",
"l l 8.8.L l + V l H 8.8.l L P.T.l ; / l l l / 8.8.J.V l V 8.; O l l 8.8.v.H 8.l l 8.8.G.8.& X X @ @ o o o o O 8.H l l L l 8.8.L ",
"8.8.8.l G.L L l 8.l l = l O 8.8.8.8.l L O T.8.H 8.l L E E 8.l l l ; l E l l ; / & | G.l O O & @ @ `.o o @ & @ l E 8.8.L l l 8.8.",
"8.8.H O 8.l L l l & l l l l l l O ; L L 8.8.8.l 8.l L 8.8.V X L 8.+ E | l l l L 8.8.E 8.H O o @ `.`.`.@ @ o o l l 8.8.8.= 8.8.L ",
"8.8.8.B.8.; l l l H 8./ 8.T.V 8.l & 8.l 8.8.+ O V V 8.8./ l & 8.l + l 8.l l l 8.8.l ; / V o o o `.`.`.@ @ o o l L P./ 8.L 8.8.8.",
"8.8.8.H 8.8.L l V l l l O l ; 8.H l l V 8.8.l l V l l 8.V l B.l l H / l 8.V ; 8.= O H 8.l @ @ @ `.`.`.o @ @ @ 8.8.8.l + V 8./ 8.",
"E 8.H O H 8.l l l l 8.H E 8.E l 8.T.L 8.8.& l ).8.8.P.8.L 8.8.8.l 8.8.l 8.l / l L 8.8.& ; @ o o o `.@ @ o o o 8.V L l H l l l 8.",
"H l L V 8.8.L l G.l 8.8.l 8.G.8.l V 8.O P.8.l l l 8.V 8.8.H l 8.O O l l 8.L l l 8.L l l l @ @ o . o @ o o o . l 8.8.= / T./ l l ",
"l O 8.8.8.L 8.8.8.l l H & l 8.8./ l 8.l ; | 8.8.V l O 8.8.L l ; B.H + l 8.8.l / 8.l L 8.l o o   o o . @ @ @ o H l & 8.G.8.8.L H ",
"L 8.H & E 8.8.P.8.8.8.l 8.l 8.l l ; 8.8.l l l H 8.V ; l 8.J.l l 8.8.8.8.l l L V l 8.8.8.L O & o @ @ @ o o o @ l 8.O ; l O l 8.l ",
"l 8.l l l l l 8.l l l l 8.; 8./ H l l & l H l 8.l l l ; l 8.8.l l l 8.E l l 8.8.l V l 8.8.8.l / l l 8.G.8.l l l T.8.l + V H l l ",
"l + l H l V l l l 8.H L l l 8.L 8.l 8.8.8.8.l O | 8.8.8.+ V 8.8.B.H 8.L l X l l L G./ / l 8.8.l l l O l 8.| 8.l 8.L l 8.^.B.l H ",
"l & L l l H l 8.E 8.+ l l H = l 8.8./ 8.8.l 8.L 8.L L L 8.v.O 8./ L l 8.l l 8.L l 8.8.8.l l 8.l l l l 8.l 8.8.L 8.8.l 8.8.8.B./ ",
"l L l H L l | 8.8.H l E L l E V l E + l / H O l l + E 8.V 8.l l + V l l l l L L l H / 8.G.l 8.T.H 8.8.8.l v.l 8.8.8.l B.8.E l l ",
"| 8.O H T.l O 8.l l 8.8.l H 8.8.8.= l | l 8.8.8.l l 8.T.O l 8.8.8.l l 8.L = 8.8.8.v.V 8.P.L v.8.T.8.L l 8.8.G.8.8.8.8.8.V E 8.G.",
"H L T.H 8.L O H H ; l 8.l l 8.8.| l 8.l l 8.l H & l l l l 8.8.l l l l l L 8.8.L G.8.l l 8.V T.T.T.J.8.8.G.8.v.8.V 8.8.V E l 8.V ",
"l 8.E O l 8.l P.8.l 8.B.l L & 8.l P.H V ; l 8.; H 8.l l l 8.V B.; | l l 8.l / 8.v.T.8.8.l 8.E 8.l | 8.8.8.8.8.| ; 8.J.H 8.l 8.8.",
"8.l l E L H H l l l l G.8.8.+ + 8.8.V H O 8.8.l H O 8.P.l E l l E l l 8.T.V l / 8.l l B.l l T.8./ l 8.8.8.l 8.8.l 8.L 8.8.l T.B.",
"l L 8.l 8.l l 8.8.8.L 8.l V 8.l l V 8.8.8.& 8.l l E 8.L ; | L ; / H H 8.l ; 8.J.8.l l v.l 8.J.V 8.L T.8.8.H 8./ L l l L 8.8.J.T.",
"l 8.l l T.8.l l l O 8.V l O l l l 8.; l 8.l l 8.8.8.8.V 8.8.v.V 8.l l 8.8.l 8./ J.J.8.T.l 8./ L l G.8.8.).8.8.8.8.L / T.8.G.G.l ",
"L L 8.l l l 8.l 8.l l ; L | O l 8.8.).l l l / 8.O l 8.l 8.8.V 8.H l | T.l H L 8.8.8.8.B.G./ l 8.E P.T.H V 8.E E 8.8.8.8.T.v.8.8.",
"l l 8.l & O ; l | L 8.L | 8.8.E 8.V G.; V l 8.8.l 8.; l V l / H 8.L | l l L l 8.8.8.L 8.8.8.8.8./ / 8.H L 8.; 8.8.T.8.8.l 8.8.8."
};
