/* XPM */
static const char *blood_stains[] = {
/* columns rows colors chars-per-pixel */
"64 64 200 2 ",
"   c #301C15",
".  c #311C15",
"X  c #331C15",
"o  c #301D16",
"O  c #311D16",
"+  c #331C16",
"@  c #321D16",
"#  c #331D16",
"$  c #301E16",
"%  c #311E16",
"&  c #311E17",
"*  c #311F17",
"=  c #321E16",
"-  c #321E17",
";  c #331E17",
":  c #321F17",
">  c #331F17",
",  c #341C16",
"<  c #351C16",
"1  c #341D16",
"2  c #341E17",
"3  c #351E17",
"4  c #341F17",
"5  c #351F17",
"6  c #321F18",
"7  c #331F18",
"8  c #351E18",
"9  c #341F18",
"0  c #351F18",
"q  c #361F18",
"w  c #361F19",
"e  c #322018",
"r  c #332018",
"t  c #322118",
"y  c #332019",
"u  c #332119",
"i  c #332219",
"p  c #342018",
"a  c #352018",
"s  c #352019",
"d  c #342119",
"f  c #352119",
"g  c #362018",
"h  c #362019",
"j  c #372019",
"k  c #362119",
"l  c #372119",
"z  c #352219",
"x  c #37201A",
"c  c #36211A",
"v  c #37211A",
"b  c #35221A",
"n  c #35231A",
"m  c #35231B",
"M  c #36221A",
"N  c #37221A",
"B  c #36231B",
"V  c #37231B",
"C  c #35241B",
"Z  c #34251B",
"A  c #37241B",
"S  c #36251B",
"D  c #35251C",
"F  c #36251C",
"G  c #37251C",
"H  c #35261D",
"J  c #37261C",
"K  c #37261D",
"L  c #36271D",
"P  c #382019",
"I  c #382119",
"U  c #38211A",
"Y  c #38221A",
"T  c #38221B",
"R  c #38231B",
"E  c #38241C",
"W  c #39241C",
"Q  c #38251C",
"!  c #38261D",
"~  c #38271D",
"^  c #39271E",
"/  c #37281E",
"(  c #39281E",
")  c #38291F",
"_  c #39291F",
"`  c #3B291F",
"'  c #382B20",
"]  c #3A2A20",
"[  c #3B2A20",
"{  c #3B2B21",
"}  c #392C21",
"|  c #3A2C21",
" . c #3B2C21",
".. c #3A2D21",
"X. c #3B2C22",
"o. c #3A2D22",
"O. c #3B2D22",
"+. c #3B2D23",
"@. c #3A2E22",
"#. c #3B2E22",
"$. c #3B2E23",
"%. c #3B2F23",
"&. c #3C2C22",
"*. c #3D2C22",
"=. c #3C2D22",
"-. c #3D2D22",
";. c #3D2D23",
":. c #3C2E23",
">. c #3D2E23",
",. c #3D2F23",
"<. c #3C2F24",
"1. c #3E2F24",
"2. c #3C3024",
"3. c #3D3024",
"4. c #3C3025",
"5. c #3D3025",
"6. c #3D3125",
"7. c #3F3025",
"8. c #3D3226",
"9. c #3E3226",
"0. c #3F3226",
"q. c #3E3326",
"w. c #3E3327",
"e. c #3F3327",
"r. c #3E3427",
"t. c #3F3428",
"y. c #3F3529",
"u. c #3F3629",
"i. c #403327",
"p. c #403428",
"a. c #403528",
"s. c #403529",
"d. c #413529",
"f. c #403629",
"g. c #413629",
"h. c #403729",
"j. c #413729",
"k. c #41362A",
"l. c #40372A",
"z. c #41372A",
"x. c #42372A",
"c. c #41382A",
"v. c #41382B",
"b. c #41392B",
"n. c #42382B",
"m. c #42392B",
"M. c #42392C",
"N. c #423A2C",
"B. c #433A2C",
"V. c #423B2C",
"C. c #433A2D",
"Z. c #423B2D",
"A. c #433B2D",
"S. c #443B2D",
"D. c #433C2D",
"F. c #433C2E",
"G. c #443C2D",
"H. c #443C2E",
"J. c #443D2E",
"K. c #443D2F",
"L. c #453D2F",
"P. c #443E2F",
"I. c #453E2F",
"U. c #453E30",
"Y. c #453F30",
"T. c #463F30",
"R. c #444030",
"E. c #454030",
"W. c #444130",
"Q. c #454131",
"!. c #464031",
"~. c #464131",
"^. c #474131",
"/. c #464132",
"(. c #474132",
"). c #464232",
"_. c #474232",
"`. c #464332",
"'. c #474332",
"]. c #474233",
"[. c #474333",
"{. c #474433",
"}. c #484333",
"|. c #484433",
" X c #484334",
".X c #484434",
"XX c #494434",
"oX c #484534",
"OX c #494534",
"+X c #484535",
"@X c #494535",
"#X c #484635",
"$X c #494635",
"%X c #4A4635",
"&X c #494636",
"*X c #494736",
"=X c #4A4636",
"-X c #4A4736",
";X c #4A4837",
":X c #4B4837",
/* pixels */
".X.X.X[.}.}.|..X.X.X.X.X.X.X.X.X.X|..X.X|..X.X|..X.X.X.X.X.X|.|.|..X.X.X.X.X.X[..X.X.X.X.X|.|.|..X.X|..X|..X.X|..X.X[..X.X.X.X|.",
".X.X}.|.[.|.|.|.|.|..X.X.X.X[.|.}.[.|.|..X.X.X}.|..X|..X.X.X|.|..X|..X|..X.X|.|..X|.[.|.|.|.|..X|..X.X.X}..X.X.X.X.X|..X.X|.|..X",
".X|.|..X[..X.X}.|.|..X.X|..X|.[.|.|.[.|.|..X.X.X{.{..X{..X|.|..X.X[.[.|.|.|..X.X.X[.[.[.}..X}.|.|.[.|.[.[.|.[.}.|..X.X|..X|.[.|.",
".X.X.X|.[.[..X|.|..X.X|..X.X.X.X|.|.[.|..X.X|.|.|.[.[.|.|.|.[.|.|.[.|..X|.|.|..X[.[.|.}.[.|.|.|.|.|.|.|.|.}..X|..X.X|.|.[.|.|.|.",
".X.X|.|.|.[..X|.[.|..X|.|.|.|.|.[.|.|.|.|..X.X.X|.|.|.[.[.[.[..X|.[.|.|..X.X|.|.|.|.}.|.[.[.[.|.|.|.[.[.}..X|.|.|.|.[..X.X|.|.|.",
".X[.|.|.[.[.[.[..X.X.X|.|..X[..X.X|.|.|.|..X.X.X|.[..X.X|.|.|.|.[..X|.|.|.[.|.[.[.|.[.[..X[.[.[.[.[.|..X.X|.[.[.|.|.{.|..X.X|.|.",
".X|.|.|.|.[.[.[.[..X|..X.X|..X.X|.|.[.|.[.|.}.[.{.[.|.[..X{.[.[.[.|.|.{.|.[.[..X[.[.|.[.|.|.[.[.[.}.|.|.|.[.[.[.|.|.|.[..X|.|..X",
".X|.|.{.|.[.[.[.[.|..X|.|..X|.|.|..X|.}.[.|.|.[.[.|.[.[.}.[.[.[.[.{.[.{..X[.[.[.[.[.[.[.[.}.[.[.}.[.[.[.|.}.[.[.[.|.{.[..X|.[..X",
".X[.|.|.{.[.[.[.[..X|.|.[.|.|..X|.|.[.[.|.[.[.[.[.{.[.|..X.X|.}.[.{.}.|.[.[.[.[.[.[.[.[.}.[.[.[.[.|.[.|..X[.[.|..X{.{.[..X[.|..X",
".X[.{.|.|..X|.{.{.|..X[.|.[.|..X|.[.[.|.}.[.[.[.[.[.[.[.|..X|.[.[.|.[.[.[.[.[.|.[.[.[.[.[.[.}.[.[.}.}.[.|.|.[.[.[.|.[.[..X|.{.|.",
".X[..X|..X.X[..X|.{.|.|..X.X.X[.[.|.|.}.[.|.|.}.[.[.[.[.[.|.|.[.[.[.}..X|..X[.[.[.|..X[.[.|..X|.[.[.|.[.{.|.|.[.{.|.{.|.|.{.|.|.",
".X|.|..X|.|.{..X[.[.|..X|.|.|.[.[.[.|.[.[.|.|.{.[..X.X|.|..X|..X[.[.[.[.[.|.[.{.[.|.|.|.|.|.|.}.[.|.|.[.[.[..X[.|.[.{.{.{.|..X.X",
"|.[.[.|.[.[.|.[.[.{.[.{.{.|.[.[.|.|.|..X.X.X.X|.|..X|..X[.[.[.|.|.[.[.|.|.[.[.[.[.[.{.[.|.}.}.[.[.|.|.}.|.[.[.[.|.{.|.|.|.|..X.X",
".X[..X|.|.[.[.|..X|.|.|.[.{.|..X|.|..X[.m.[..X|.|.[.[..X|.|..X|.{.[.[.|.|.{.{.[.|.[.|.[.}.}.}.[.[.|..X|.[.[.|.|.{.|.|.{.{.{.|..X",
".X|..X[.{.[.[.[..X[.|.|.{.|.{.[.[.[..XB.X B..X}.[.[.[..X.X[.|..X[.[.[.[.[.[.|.[.[.|.}.|.[.[.}.}.[.}..X[.[.[.[.|.[.|.|.[.[.[.|..X",
".X[.[.[.[.[.|.{..X{.{.|.[.[.[.[.[.}..X[.B.[..X.X.X.X.X[.|.|.}.[.[.|.[.[.[.|.[.[.[.[.[.[..X.X.X.X.X}.|.[.[.[.|.|.[.|.[.[.}.[.|..X",
"|.|..X.X|.[.|..X.X|.|.|.|.[..X.X|.[.}..X.X.X}.K.K.K.U.}.}..X.X|.}..X|.}.|.|.|.|.[.}.[.[.K.F.K.S.U.|.[.|.[.}.|.[.[.|.[.[.|.|.|..X",
".X.X.X.X[.}.|.|.|.[.|..X.X|.|.[.|.[.|.}.[..XB.9 d d D .X.X}..X|.}..X}.}.|.|.[.[.|.}.|..X' 9 d 4 >.:X[.[.[.|.|.|..X|.}.|.|.[.|..X",
".X.X.X[.[..X|.|..X|.[.[..X|.}.|..X|.}.[.[..Xm.X T d d ..S..X[.}..X.X.X.X|..X|.|.|..XU...C T T d E >.[..X|.|.|..X|.[.}..X|.|.|..X",
"|.|..X.X|..X.X.X.X.X|.|.|.|.}..X|.[.[.[.[..XB._ T T T X z..X[.}.[.B.B.U..X|..X|.[..XK.D d d d d d E [..X[.}.|.[.[.{.{.|.}.|.|..X",
"|..X{.[.}.|.|..X}.[.|.|..X|.|.|.[.}.}..X.X.X.X.XD 9 T 4 u.:X.X.XK.X X >..X[..X[.|.|.[..X/ X r X ...X}.|.[.}.|.[.{.|.[.{.|.|..X.X",
".X|.[.|.}.[.[.|.|.[.[.[.|.}.|.|..X.X.XK.....z..XD 7 T d _ e...<...d 4 >..X}.}.}..X.X}..Xm.e.u.e.B..X[.|.}.[.[.|.[.[.[.[.|..X.X.X",
".X[.}..X|.|.[.|.|.[.|.{.|.|.|..X}.F.K.e.X X _ K.D d T T 9 X X 4 9 d 9 ' K.[.[.}.K.[.|.[..X.X.X.X.X}.}.[.}.}.}.|.|.[.[.|.|.|.}..X",
".X.X.X|.|.|.[.|..X|.|.[.|..X|..X[.d r d d T d r d d d T d d T T d d d d d [.:X}.4 z..X[.[.[.[.[.[.|.}.}.|.|.|.|..X|.|.}.[.[.|..X",
"|.|.}.[.}.[.}.|..X.X|..X|.|..Xz._ d d d T T d d d d T d d T d T T 9 T d d ..>.>.z.U..X[.[.}.[.[.}.}.|.|.|..X|..X|.|.|.|.|..X|..X",
".X.X}.|.[.[.|..X.X{..X|.[.[..Xe.d d d T T T T T T T T T T T T d T T d T d 4 9 E .X.X[.[.[.[.[.[.[.|.|.}.[.|.|.|.[.{.{.{..X.X|.|.",
".X|.[.[.[..X.X|.|..X.X|.[.[.[..XK.X X 4 T T T T T T T T T 9 T T d T T T d 9 <..X[.}..X.X.X[.[.[.|.|..X.X[.[.|.[.{.{.[.[.|..X|.|.",
"[.[.[.|.|..X[.{..X.X.X{.}.[.[..X[.z.z.e.d d d T d T d T T d d d T T T d T 9 E e..X.X[.>.K..X|.|.|.|.[.[.|.}.[.|.{.[.{.|.[.[.[..X",
"[.[.|.|.[..X.X.X.X.X.X.X}.[.[.}.}..X.Xz.7 r d T T T d T T 9 T 9 d d d T T d X d K.U.m.d m..X[..X|.{.[.[..X|.|.|.|.[..X.X.X[.|..X",
"[.[.|.|..X.X.X{.|..X.X.X[.}.}..X.X:X..X d d d T T T d d 9 T T T d T T T T T T T d d ' .X.X.X|.|.|.[.[.[..X|..X|.[.[.{.|..X[.|..X",
".X|.[..X.X.X[..X|..X{.[..X.X.Xm...e.D d d d T T T T T d d T T T T T d T T T T T T 9 ' .X|..X|.[.|.|..X.X[.[.[.|.[.|.[.{.|.|..X|.",
".X|.|..X.X.X{..X.X.X|..X[.K.[...X X d T d T T T d T T 9 9 d T T T T T T d d d T T d { .X[.|..X|..X.X.X|.[.|.[.[.[..X.X[.|..X.X.X",
".X.X.X.X.X.X|.|.[.[.[..Xz.d T d d T d T T T d d d T T d T T T T T T T T d X X 9 4 e.}.}.}.|..X|.}..X.X|.|..X|.[.|..X|.[.|..X.X.X",
".X.X|.|..X.X|.|.|.|.[..Xu.X d d d T T T d d 9 d d d d T d d T T T T T T d <.e.e.e.K..X|.|..X.X.X.X.X.X.X}.[..X[.|.|.|.[.|..X|..X",
".X.X|.|.[.|..X|..X.X[..Xz.r C d d T T d d d d d d d d d d d d d d T d 9 T U..X.X.X.X}.[.|.|.|.[.[.[.[.[.}.|.|.|.[..X|.|.|.|.|..X",
".X|.|.|..X.X.X.X.X.X.X.X[.[.}...X 7 X X X B.[.[.T 4 d T d d d X X 4 9 T d r e..X[.}..X{.[..X:X..d D d e.:X|..X|..X|.|..X.X|.|..X",
".X.X|.|..X|..X[.|..X.X.X.X.X.XB.e.e.e.e.e.[..X.Xz.' 9 T T d 9 >.e.e.d d d X <..X[..X.X[..XK.e.D 9 d 9 E e.[..X}.[.{.|..X|.|.|..X",
".X|..X.X.X[..X|..X.X|..X.X|.}..X.X.X.X.X.X.X|.[..Xz.X T T d d S..X.XE 9 T 9 <..X[..X{.|..XB.X d d d T d d [..X[.{.|.|..X.X|..X.X",
".X.X|.|.|..X.X|..X.X|..X|.[.|.|.|.}.}..X.X.X[.[..Xz.X T d d 4 m..X[.}.e.X 4 >..X.X.X[.}..XB.X d d d 4 ' [.}..X[.|.|.|..X.X|..X.X",
".X[.|..X[..X.X|.|..X|..X.X}.[.}..X.X}..X.X|..X.X.Xz.4 d d d >.U..X}..XK...>.z. Xi.K..X[..XK...E 9 d ..m..X|.|.|..X|..X.X|..X.X.X",
"|..X.X.X.X|.[.|.|..X.X.X.X|.}..X.X.X[.[.[..X.X}..Xz.d d d ' .X.X.X.X|..X.X.X.X[.4 z..X}.}.}.:X..r C [..X[.|..X}.[.|..X|.|..X.X.X",
".X.X|.|..X|.[.[.|.|..X|.|.[.E z..X[..X.X.X.Xm.d U.[.U.[.U.[.}..X|.|.|.|.}.[.}.[.[.[..X.X|.}.[.[.[.[.[.}.[.}.|.[.}.|.|.|.|.|.|..X",
"|.}.[..X|.{.[.|.|..X.X}..X[.>.B..X.XB.z.z.[.K.>.[..X.X.X.X.X|.|.}.|.|.|..X|.|..X.X.X.X}.|.|.}..X.X.X}.[.[.}.[.[.{.{..X.X.X|..X.X",
"[.[.[.|.|.{.[.|.|..X{..X[.[..X.X[..X..X r K..X.X.X}.|.|.|.|.|..X|.[.[..X|..X.X.X}.|.|.|.|.|..X|.[.|.|.|.[.[.[.[.|.[.[.|..X.X|..X",
"[.[.{.[.}.|.|.|.[.|.|..X[.[.[..X[.E T d d U..X[.|.|..X.X|.|.}..XF.D C e..X|.|..X[.|..X.X.X|.|.|.}..X.X|.|.|.|.|.|.{.|.|.|..X|.|.",
"}.[.[.[.|.|.|.{.[.[.|..X[.[..XF.e.d d d d e.B..X}.|.|.}.|..X}..XB.X 4 >..X}.|.|.|..X|.|.[.}.[.[.[.|..X|.[.[.|.|.|.|.[.{.{.[.|.}.",
"}.[.[.[.[.[.[.[.[.[.|.[.|.[..X..X d d d d X _ .X|.|.|.[.|.|.|..XB.X 4 >..X|.[.[.{.|..X|.|.[.}.[.|.[.|.[.[.|.|.[.{.[.[.[.[.[.|..X",
"[.[.|.[.[.[.[.[.[.|.|.[.[.[.[.[.m.r 7 7 X z.U.|.|.|..X.X.X|.|..X[.F.B.U..X|.[.[.{.[.|.[.|.[.[.|.}.|.|.[.[.[.[.[.[.[.[.[.[.{.|..X",
"[.[.{.|.|.[..X|.[.|.|.|.|.[.}..X[.......' [..X[.{..X[..X.X|..X.X.X.X.X.X|.|..X[.[.|.[.[.[.[.[.|.[.|.[.[.[.[.[.[.[.[.[.[.[.|.{.|.",
"[.[.[.{.[.[.[.[.{..X.X[.|.|.|.[.[..X.X.X.X[.[.|.|..X|.|..X|.|..X|.|.|.|..X|.|.|.[.|.[.[.|.[.[.|.{.[.|.[.[.[.[.[.[.[.[.[.[.|.|..X",
"[.[.[.|.|..X|.{.[.|.|.{.|.|.|..X|.[.[.[.[.[.{.|.|..X|.{.|..X.X|.|.|.{.{..X|.[.[.[.[.{.|..X|.{.|.|.[.|.[.[.[.[.[.{.{.|.|.|.{.|.|.",
"|.[.[.[.|.|.[.[.[.|.|..X.X|.|.|.|.|.[.|..X|.|..X{..X|..X|.[.[.[.|.|.[..X|.|.[.[.[.{.|.[.|.|.|.|.{.{.[.[.[.|.|.[.[.[.[.[.[.[.|..X",
"[.[.[.[.{.[.[.[.|..X.X.X|.{..X{.|.[.|.|..X[.[.[.{.{.{.|.|.{.{.{.|.|.[.|.|.|.[.[.[.[.|.[.|.|.[.|.[.[.[.[.[.[.[.[.|.|.[.[.[.|.{..X",
"|.[.[.|.|.[.[.|.|.{.{..X.X.X|..X{.[.{.|.}.}..X|.|.|.[.[.|.|.{.[.{.|.{.[.|.[.[.|.[.[.|..X[.|.|.[.[.[.|.[.|.[.[.[.[.[.[.[.{.|.[.|.",
"[.[.[.[.[.|.{.[.|.[.[.[.|..X|.|.[.[.[.|.|..X|.|.[.|..X{.[.|.[.[.[.[.{.|.|.[.[.[.[.[.}.|.[.|.|.[.[.[.[.[.[.[.[.[.|.[.[.[.[.|.|.[.",
"[.|.|.|.[.[.[.[.|.[.[.[.{.|.{.|.|.[.[.|.|.|.|.[.|.[.[.[.[.|.[.[.[.|.{.[.|.|.{.[.[.[.[.[.|.[.[.|.|.[.[.[.[.}.|.[.[.[.[.[.[.[.[.|.",
"[.[..X}.[.[.}.[.[..X[.{..X[.{.[.|.[.|.[.[.|.[.[.[.[.[.[.{.[.[.[.[.[.[.|.|.|.[.|.[.[.[.[.[.[.[.[.[.[.[.|.[.[.|.[.[.[.[.[.[.[.[.[.",
"[.[.[.[.[.}.[.[.[.[.|.{.[.[.[.[.[.[.[.[.[.{.[.[.[.|.[.[.[.[.[.[.[.[.[.[.[.[.[.[.[.[.[.[.[.[.|.|.[.[.[.[.[.[.[.|.[.[.[.[.[.[.[.[.",
"|.[.[.|.|.[.[.[.[.[.|.|.[.[.[.[.[.|.[.[.|.|.[.[.{.{.[.[.[.[.[.[.[.[.[.[.|.[.[.[.[.[.[.[.[.[.[.[.[.[.[.[.[.[.[.[.[.[.[.|.[.[.[.|.",
".X[.[.[.[.[.[.[.[.|.[.[.[.[.[.[.[.|.[.[.[.[.[.[.[.[.[.[.[.[.[.[.[.[.[.|.[.[.[.[.[.[.[.[.[.[.[.[.[.[.{.[.[.[.[.[.[.[.[.[.[.[.[.[.",
"|.[.[.[.[.[.[.[.[.[.[.[.[.[.[.[.[.[.[.[.[.[.[.[.[.[.[.[.[.[.[.[.[.[.[.[.[.[.[.[.[.[.[.[.[.[.[.[.[.[.[.[.[.[.[.[.[.[.[.[.[.[.[.[.",
"[.[.[.[.[.[.[.[.[.|.[.[.[.[.[.[.[.[.[.[.[.[.[.[.[.[.[.[.[.[.[.[.[.[.[.[.[.[.[.[.[.[.{.|.[.{.[.[.[.[.[.[.[.[.[.[.[.[.[.[.[.}.[.[.",
"[.[.|.[.[.[.[.[.[.}.[.[.[.[.[.[.|.[.[.[.[.[.[.[.[.[.[.[.[.[.[.[.[.[.[.[.[.[.[.|.[.[.[.[.[.[.[.[.[.[.|.[.[.[.[.[.[.|.[.[.|.[.[.|.",
"[.[.[.[.[.[.}.}.[.[.[.[.[.[.[.[.|.[.[.[.[.[.[.[.[.[.[.[.[.[.[.|.[.[.[.|.[.[.|.}.[.|.[.[.[.[.[.[.[.[.[.}.[.[.[.[.[.[.[.[.[.[.|..X"
};
