/* XPM */
static const char *bullet_holes_wall[] = {
/* columns rows colors chars-per-pixel */
"64 64 191 2 ",
"   c #040503",
".  c #060704",
"X  c #070805",
"o  c #080906",
"O  c #090906",
"+  c #090A06",
"@  c #090A07",
"#  c #0A0A07",
"$  c #0A0B08",
"%  c #0B0B09",
"&  c #0B0C08",
"*  c #0B0C09",
"=  c #0C0C09",
"-  c #0C0D0A",
";  c #0D0D0A",
":  c #0D0E0B",
">  c #0E0E0B",
",  c #0E0F0B",
"<  c #0F0F0C",
"1  c #0F100C",
"2  c #10100C",
"3  c #10110D",
"4  c #11110D",
"5  c #11120E",
"6  c #12130F",
"7  c #13130F",
"8  c #141410",
"9  c #151511",
"0  c #151611",
"q  c #161611",
"w  c #161612",
"e  c #171712",
"r  c #171713",
"t  c #181813",
"y  c #181814",
"u  c #191914",
"i  c #191915",
"p  c #1A1A14",
"a  c #1A1A15",
"s  c #1B1A16",
"d  c #1B1B16",
"f  c #1C1C16",
"g  c #1C1C17",
"h  c #1D1C17",
"j  c #1D1D17",
"k  c #1D1D18",
"l  c #1E1D18",
"z  c #1E1E18",
"x  c #1E1E19",
"c  c #201F19",
"v  c #201F1A",
"b  c #202019",
"n  c #20201A",
"m  c #21201A",
"M  c #21211A",
"N  c #21201B",
"B  c #22221B",
"V  c #23221B",
"C  c #22211C",
"Z  c #22221C",
"A  c #23221C",
"S  c #23231D",
"D  c #24231C",
"F  c #24231D",
"G  c #24241D",
"H  c #25241D",
"J  c #25251D",
"K  c #25241E",
"L  c #25251E",
"P  c #26251E",
"I  c #26261F",
"U  c #27261F",
"Y  c #27271F",
"T  c #272620",
"R  c #282720",
"E  c #282820",
"W  c #292820",
"Q  c #292821",
"!  c #292921",
"~  c #2A2921",
"^  c #2A2A21",
"/  c #2A2922",
"(  c #2A2A22",
")  c #2B2A22",
"_  c #2B2A23",
"`  c #2C2B23",
"'  c #2D2C23",
"]  c #2D2C24",
"[  c #2E2D24",
"{  c #2E2D25",
"}  c #2F2D25",
"|  c #2F2E25",
" . c #2F2F25",
".. c #302F25",
"X. c #302F26",
"o. c #313026",
"O. c #313027",
"+. c #323027",
"@. c #323127",
"#. c #323128",
"$. c #333128",
"%. c #333228",
"&. c #333229",
"*. c #343228",
"=. c #343229",
"-. c #343329",
";. c #353329",
":. c #34332A",
">. c #353429",
",. c #35342A",
"<. c #36342A",
"1. c #36352A",
"2. c #37352A",
"3. c #36352B",
"4. c #37352B",
"5. c #37362B",
"6. c #37362C",
"7. c #38362B",
"8. c #38362C",
"9. c #38372C",
"0. c #39372C",
"q. c #38372D",
"w. c #39372D",
"e. c #39382D",
"r. c #3A382D",
"t. c #3A392D",
"y. c #3A392E",
"u. c #3B392E",
"i. c #3B392F",
"p. c #3B3A2E",
"a. c #3B3A2F",
"s. c #3C3A2F",
"d. c #3C3B2F",
"f. c #3D3B2F",
"g. c #3C3A30",
"h. c #3C3B30",
"j. c #3D3B30",
"k. c #3D3C30",
"l. c #3D3C31",
"z. c #3E3C30",
"x. c #3E3C31",
"c. c #3F3D31",
"v. c #3E3D32",
"b. c #3F3D32",
"n. c #3F3E32",
"m. c #403E32",
"M. c #403E33",
"N. c #413E33",
"B. c #403F33",
"V. c #413F33",
"C. c #413F34",
"Z. c #424034",
"A. c #424035",
"S. c #434135",
"D. c #444135",
"F. c #444235",
"G. c #444136",
"H. c #444236",
"J. c #454236",
"K. c #454336",
"L. c #454237",
"P. c #454337",
"I. c #464337",
"U. c #464437",
"Y. c #474437",
"T. c #464338",
"R. c #464438",
"E. c #474438",
"W. c #474538",
"Q. c #474539",
"!. c #484538",
"~. c #484539",
"^. c #484639",
"/. c #494639",
"(. c #48463A",
"). c #49463A",
"_. c #49473A",
"`. c #49473B",
"'. c #4A473A",
"]. c #4A473B",
"[. c #4A483B",
"{. c #4B483B",
"}. c #4A483C",
"|. c #4B483C",
" X c #4B493C",
".X c #4C493C",
"XX c #4C493D",
"oX c #4C4A3D",
"OX c #4D4A3D",
"+X c #4D4A3E",
"@X c #4E4B3E",
/* pixels */
"].].].U.].].{.].].].].].].].].].].].].].].].].].].].].].].].].].].].].{.].].].].].].].].].].].].].].].].].].].].].].].].].].].].",
"].].].].].].].].].].].{.].{.].].].].].].].{.].].].].].{.].].].].].].].].].].].].].].].].].].E.].].].].].].].E.].].].].].].].].].",
"].{.{.{.].].{.I.].].].].].{.].].].].].].].].].].].].].].].].].].].].].].].].].].].].].].].].].].].].].E.I.I.I.].].].E.E.].].].].",
"{.}.{.].].].{.].].{.{.].].].{.].].].].].].].].].].].].].].].].].{.].].{.].].].].].].].].].].].].].].].].].].].].].].].].].].].].",
"{.}.].].].].}.].].].{.].].{.{.].].].].].].}.].{.].].].].].].].].{.].].{.{.{.].].].].].].].].].].].].].].].].].].].].].].].].].].",
"{.{.].].{.].{.{.}.{.{.].].}.].{.{.].].].{.{.}.}.{.].].].].].{.].{.{.}.}.].].{.].].].].].].].{.].].].].].].].].].].].].].].].].].",
"}.}.{.{.].].{.{.{.}.].E.].{.{.{.{.].].].].I.].].}.].].].{.].].].].].{.{.].].E.].].].].].].].].E.].].].].].].].].].].].].].].].].",
"{.].}.}.].{.}.{.].{.{.].].}.}.}.}..X.X}.].E.{.{.].].{.].{.].].].].{.].}.{.].I.E.].].].].].].].E.].].].E.].].].].].].].].].].].].",
"].].{.].].{.{.{.].{.].{.].}.].{.].S.m.I.].].].{.].].].].{.{.].].].].].].].].].].].].].].].].].].].].].].].].].].].].].].E.].].].",
"{.].].].].].].].].].].].].].I.E.{.s.5.r.].].].].].].].].].].].].].].].].].].].].].].].].].].].].].].].].].].].E.I.].].].].].].].",
"}.{.{.].{.{.].].].].].].{.{.I.s.-.-.5.7.r.E..X{.].].].].].].].].].].].}.].].].].].].{.].].{.{.].].].].].].].].].].].].].].].].].",
"{.{.{.].].].].}.].].{.{.].E.q.Y p V Y ' @.m.].}.].}.].U.].}.{.].].].].{.].].].].].I.E.{.].{.].].].].].].].].].].].].].].].].].].",
"].].].].].].{.{.{.{.].}.E.m.j > # # > t #.@.s.}.{.}.{.].].].].{.].].].{.{.].].].].r.n.}.{.].{.].].].].].].].].].].].].].].].].].",
"].{.{.{.{.{.}.}.}.{.{.}.U.j.r.V   # * r @.n.].}.}.{.{..X].E.].].].].].{.{..XS.r.s.s.r.r.r.I..X].{.].{.{.].].E.].{.].].E.].].].].",
"}.}.}.{.{.].].{.}.{.{.}.].I.I.#.p > r Y -.I..X}.{.}.}.}.].].].].].].].].E.I.s.-.' X.-.q.5.n.I.].].].{.].].].I.].].].].].].].].].",
"}.{.{.{.{.E.E.].}.{.{.{.{.}.s.r.s.V | s.5.I..X}.}.}.}.{.}.{.].].].{.].{.I.5.r.#.j p Q r.r.q.r.].].{.].I.].].].{.].].].].].].].{.",
"{.}.}.{.{.].{.}.}.{.}.{.{.].}.S.q.5.5.r.].}..X.X}.}.}.}.}.{.{.}.].}.{.{.U.q.Q x > 7 p Y 5.q.r.].{.{.].].].].].].].{.].{.{.{.{.].",
"}.}.{.{.{.{.}.}.{.{.}.}.}.}..X].S.S.S.I.}.}.}.}.}.}.}.].{.{.{.].{.}.{.}.I.5.Z r > < r x q.q.r.].{.{.{.{.].].].{.}.{.].{.{.].].].",
"}.}.{.{.{.}.}.}.{.}.{.].{.{.{.}..X}..X{.].}.{.}.}.}.].E.].}.].{.].{.].}.E.r.Y t r r p Z 7.r.s.].{.{.{.{.{.].{.{.{.{.].{.{.].].].",
"}.{.{.}.}.}.}.}.{.{.].].].{.}.}.].].].].{.}.}.}.}.{.].].}.{.].].].].].{.{.{.m.' r 7 D s.5.m.}.].{.{.].{.].E.].].].].].{.].{.{.].",
"}.}.{.{.}.{.}.}.{.{.}.{.{.}.}.}.{.{.}.{.}.}.}.}.}.}.}..X}.}.}.{.{.].].{.{.}.].s.Q | #.r.m.E.{.].{.].].{.].].{.{.].{.].].].].{.{.",
"}.}.}.}.}.{.}.}.}.{.}.{.{.}.}.}.}.}.}.{.{.{.}.}.}.].I.I.].].I.].{.{.{.{.}.}..XE.j.I.C.s.].}.].{.{.].].].].{.].{.].].].].{.}.{.{.",
"}.}.}.}.}.}.{.}.}.{.}.{.{.{.}.}.}.}.{.].E.]..X}.}.m.5.5.S.I.5.I.{.].{.{.{.{.].{.].].].].{.{.{.{.{.].].].].].].{.].].{.].].{.].{.",
".X.X}.}.}.{.}.}.}.}.}.{.{.}.I.I.].}.{.{.].{..X}..Xm.@.V V ` n.r.m.{.{.}.{.}.}.{.].].].].{.}.{.].{.S.Q Q q..X].].].].{.{.].].].].",
"}.].].}.}.}.}.}.}.}.{.{.{..XE.E.].{.}.}..X}.}.}.I.5.Y > > p #.#.n.}.}.}.}.}.}.{.{.].].].].}.{.].S.-.t r Q I.].{.].{.].].{.{.].{.",
"}.].].}.{.}.}.}.}.}.{.].{.}.}.}.}.{.{.}..X}..X{.5.Q p # # 1 p @.m..X{.}.}.}.}.}.}.}.}.{.].].].{.7.D * > x 5.E.}.].{.].].}.}.{.].",
"}..X}.{.{.}..X}.}.}.}.].].{.{.{.{.{.{.{.}.}..X}.q.5.| X . % r X.n.{.}.}.}.}.}.}.}.}.}.{.}.{.{.{.n.Y % p Y #.E.{.].].].].{.].].].",
"}.}.{.}.{.].}.}.}.}.}.].{.{.}.}.}.}.}.}.}.}..X}.I.n.5.Y 7 r @.j.I.}.}.{.}.}.}.{.}.}.}.}.}.}.}.}.].r.Y V | m.].{.].].].{.{.].].].",
"}.}.}.}.].]..X}.{.}.{.{.{.}.{.}.}..X}.}.}.}.}.}..XS.5.n.Y Y E.].}.{.].{.{.}.{.{.{.}.}.}.{.}.{.}.{.U.j.| q..X].{.].].{.].].].{.{.",
"}.}.}.{.}.}.}.}.].{.}.E.].}.}.}.}.}.{.{..X}.}..X}.}.].r.5.5.5.I.}.}.}.{.{.}..X.X}.{.}.}.}.}.{.{.{.].].].].].}.}.{.].{.].].].{.].",
"}.}.}.}.}.}.}.}.}..X.X].]..X}.}.}.}.}.{.}.}..X.X}.}.{.S.S.I.S.]..X.X}..X.X.Xn.r.j.]..X}.}.}.}.{.}.}.}.}.{.{.{.{.].{.{.].].{.{.{.",
".X}.}.}.}.}.}.}.].I.I.].}..X}.}.}.}.}.}.}.}.}.}.}.}.{.}.}.}.}.}..X}..X].I.I.-.| -.S.].{.{.}.}.}.}.}.}.}.{.{.{.{.{.}.}.{.{.}.}.{.",
".X.X.X.X}.}.}..Xm.X.| S..X}.}.}.}.}.}.}.}.}..X.X}.{.}.{.{.}.}.}.}.}..Xn.@.@.X.@.-.-.n..X{.}.}..X}.}.}.}.}.}.}.{.}.}.}.{.{.}.}.{.",
".X.X.X.X].].}.n.r.#.Z X.n..X}.}.}.}..X}.}.}.}..X}.}.}.}.}.{.U.{..X].j.s.#.V x V Y 5.r.j.].}.}..XE.E..X}.{.}.}.}.}.}.}.{.}.}.}.}.",
".X}.}.}.].{.}.r.5.Q r Q r..X}.}.}.}.}.}.}.}..X.X}..X.X}.}.].U.{..X].5.-.Q 7 1 r v Q @.5.]..X}..X].].}.{.{.}.}.{.{.}.}.}.{.}.{.{.",
"}.{..X}.}..X}.n.#.x 7 Q s.}.}.}.{.].].].].}..X.X.X}..X}.}.}.{.}..X].r.` p X . < p x R 5.]..X}.}.}.}.}.{.{.{.}.{.}.}.}.}.}.{.}.{.",
"}.}.}.}.}.}.}.].m.q.m.I.]..X}.}.].q.-.-.-.I..X}.}.}.}.}.}.}.{.{.}.].r.| p X # < p j Q 5.]..X}.}.{.{.}.{.{.{.{.{.}.{.}.}.}.{.}.{.",
"{.}.}.}..X}.}..XE.I.}..X}.}.}..X].-.V V r.s.I..X}.}.}.}.].].{.{.}.].q.q.| > # > r Q 5.S.]..X}.}.{.{.}.{.{.{.}.].].{.}.}.}.{.{.{.",
"].}.}.}.}.}..X}.}.}.{.{.}.}.}.].I.@.r r r.5.j..X}.}.}.}.].].{.]..X].r.m.j.p > 7 j 5.m..X}.}.}.}.}.{.{.{.}.{..XE.U.{.{.{.}.}.{.{.",
"}.}.}.}.}.}.}.}.{.}.{.}.}.}..XS.-.X.r > V | n..X}.}.}.}.}.}.{.{.}.}..Xm.-.5.x x 5.I.}.{.{.}.{.}.}.{.{.{.{.{.{.].].{.}.}.{.}.}.{.",
"}..X.X.X.X}.}.}.}..X.X}..X.X.X].C.#.| | Y j.]..X}.}.}.}.}..X.X}..X.X.XE.I.I.j.j.S.]..X}.}.}.}.}.{.}..X.X}.{.}.}.}.}.}.}.}.}.}.}.",
".X.X.X{.].{..X.X.X}..X.X}..X}..X{.s.I.E.r.]..X}.}.}..X}.}.}.}.}..X}..X.X.X.X.X.X.X.X}.}..X.X}.}.}.].S.m.I.}.}.}.}.}.}.}.}.}.}.].",
"}..X}.].U.]..X.X}..X.X}.}.}.}.}.}.].{.}.}.}.}..X].{..X}.}.{.}.}.}.}.}.}.}.}.{.{.}.}.}.}.}.}.}.}.}.S.X.Y #.}.].{.{.{.}.}.}.}.{.I.",
"}..X}.}.].}.}.}.}..X}.}.}.}.}.}.}.}.}.}.}.}.}.}.].{..X}..X}.}.{.}.}.}.}.}.}.].].}.}.}.}.}..X.X.Xn.-.Z 7 x #.E.{.{.{.{.{.}.}.}.].",
"}.{.}.{.}.}.}.}.].].}.}.}.}..X}.}.}.}.}..X.X}.}.}..X}.}.}.}.}.}.].].}..X.X.X].].}.}..X.X.X.X}..Xj.X.j # p #.E..X}.{.}.}.}.}.}.{.",
"}.{.}.}.}.}..X}.].{..X}.}.}.}.}.{.{.}.{..X}..X.X.X.X}.}..X].I.E.U.E.}..X.X.X.X.X.X.X}..X.X.X}..Xm.#.j 7 Y n.]..X}.}.{.}.{.{.}.{.",
"}.}.}.}.{.{.}.}.}.}..X].}.}.{.{.}.}.}.].].].}..X.X.X.X}..XE.r.n.m.].}..X}.{.}..X}.}.}.}..X}.}.{.].S.#.X.r.{.{.{.}.{.}.}.}.}.{.{.",
"{.}.}.{.{.{.}.{.}.}.}.{.{.}.}.}..X{.}.].U.].}..X}.}.}..XE.r.` ` 5.S.{..X{.].].}.}.}.}.}.}.}.}.}.}.].S.S.E.}.{.}.{.].}.].].{.{.{.",
"{.}.}.{.{.{.}.}.}.}.}.}.{.}.E.E.E.{.{.].].].}.}.}.}.}..Xm.X.j p Y r.].}.{.].}.}.{.{.{.{.{.}.}.}.{.{.}.}.{.{.].].{.].}.].E.{.{.].",
"{.}.{.{.{.{.}.}.}.}.}.{.}.}.5.| #.].].].}.{.{.}.}..X}..Xj.Q r r Y n.]..X}.}.}.}.{.}..X}.}.}.}.}.E.].{.].].].E.].{.].{.].].{.{.].",
"{.}.{.{.}.{.}.].].{.{.}.U.r.#.Q Y r.S.].{.{.{.}.}.].].}.S.5.j Q q.E.{.}.}.}.{.].].@.| q.]..X}.}.].].}.}.{.{.{.{.{.{.].].{.{.].].",
"}.{.{.{.}.}.{.E.].}.{..XI.@.Q Z v j.I.].}.}.}.}.}.].]..X].m.#.n.E..X{.}.}.{.{.E.C.V p Y E..X}.}.}.}.{.{.}.}.}.{.{.].].].].].{.].",
"{.}.}.{.}.}..X}.}.}.}..XI.| p p T ]..X}.}.}.}.}.}.}.}..X}..X.X}.}.}.}.}.}.}..XU.5.p r Z E..X}.}.}.{.{.}.{.{.{.{.{.].].].{.{.].].",
"{.}.{.{.}.}.].].{.}.{.}.].I.r.@.| ]..X}.}.}..X.X}.}.}.}.}.}.{.}.}.}.}.}..X}.}.{.E.-.#.5.]..X}.{.{.{.}.{.{.{.{.{.{.{.].].].{.].].",
"].].].].{.}.].].].{.].].}..XE.C.n.].}.}.}.}.{.].}.}.}.}.{.{.].{.}.{.}.}.}.}.{.}.}.S.S.S.]..X{.].{.].E.].{.{.].].].].].].].].].].",
"].].].].{.{.}.}.}.{.{.{.{.{.{..X.X}.}.}.}.}.].]..X}.{.{.{.{.].{.{.}.}.}.{.}.{.{.{.}..X}.}.}.{.].{.].I.].].{.].].].].].].].].].].",
"].].{.].].].].].{.{.{.{.{.{.{.].}.{.}.{.{.}.{.].{.{.].{.}.].U.].}.{.{.}.{.{.].{.].{.{.].}.{.].].].].].{.].].].].].].].].E.].].].",
"].].].].].].].].].].].].].{.].].{.].{.].].{.{.{.{.{.].{.{.{.E.].].{.{.].].].].].].].{.].].].{.].].].].].].].].].].].].E.U.].].].",
"].].].].].].].].].].].].].].E.].{.].].{.].{.{.].{.{.].].].{.{.].].].].].].E.].].].].].E.E.].].].].].].].].].].].].].].].].].].].",
"].].].].].].].].].].].].].].].].].].].].].].].].].].].].].].].].].].].].].I.].].].].].].].].].].].].].].].].].].].].].].].].].].",
"].].].I.].].].].{.].].].].].].].].].].].].].].].E.E.{.].].].].].].].].].].].].].].].].].].].].].].].].].].].].].].].].].].I.I.E.",
"].].E.I.].].].].].].].].].].].].].].].].].].].].E.].].].].].].].].].].].].].].].].].].].].].].].E.U.].].].].].].].].].].].E.E.E.",
"].].].].].].].I.U.].].].].].].].].].U.U.].].].].].].].].].].].].].E.I.].].].].].].].].].].].E.].I.I.].].].].E.E.E.].E.E.].].].E.",
"].].].].].].].].].].].].].].].].].].].].].].].].].{.].].].].].].].].].].].].].].].].].].].].].].E.E.].].].].].].].].].].].].].]."
};
