/* XPM */
static const char *cedar_tree[] = {
/* columns rows colors chars-per-pixel */
"64 64 138 2 ",
"   c #272E27",
".  c #252F28",
"X  c #262E28",
"o  c #272E28",
"O  c #262F28",
"+  c #272F29",
"@  c #282F29",
"#  c #253028",
"$  c #263029",
"%  c #273029",
"&  c #273129",
"*  c #27302A",
"=  c #27312A",
"-  c #283029",
";  c #293029",
":  c #28302A",
">  c #29302A",
",  c #28312A",
"<  c #29312A",
"1  c #28312B",
"2  c #29312B",
"3  c #2A312A",
"4  c #2A312B",
"5  c #28322A",
"6  c #29322A",
"7  c #28322B",
"8  c #29322B",
"9  c #2A322B",
"0  c #2A322C",
"q  c #2B322C",
"w  c #2A332C",
"e  c #2B332C",
"r  c #2B332D",
"t  c #2C332C",
"y  c #2C332D",
"u  c #2D332D",
"i  c #2C342D",
"p  c #2D342D",
"a  c #2D342E",
"s  c #2E342E",
"d  c #2E352E",
"f  c #2F352E",
"g  c #2E352F",
"h  c #2F352F",
"j  c #2F362F",
"k  c #30352F",
"l  c #30362F",
"z  c #303630",
"x  c #313630",
"c  c #313730",
"v  c #313731",
"b  c #323731",
"n  c #333731",
"m  c #373630",
"M  c #373731",
"N  c #383731",
"B  c #323831",
"V  c #333831",
"C  c #333832",
"Z  c #343832",
"A  c #353832",
"S  c #343932",
"D  c #353932",
"F  c #343933",
"G  c #353933",
"H  c #363933",
"J  c #353A33",
"K  c #363A34",
"L  c #373A34",
"P  c #383831",
"I  c #383832",
"U  c #393832",
"Y  c #393932",
"T  c #393833",
"R  c #393933",
"E  c #3A3933",
"W  c #3A3934",
"Q  c #383B35",
"!  c #393B35",
"~  c #3A3A34",
"^  c #3B3A34",
"/  c #3B3B34",
"(  c #3B3A35",
")  c #3B3B35",
"_  c #393B36",
"`  c #3C3B35",
"'  c #3C3B36",
"]  c #393C36",
"[  c #3A3C36",
"{  c #3B3C36",
"}  c #3B3C37",
"|  c #3B3D37",
" . c #3C3C36",
".. c #3D3C36",
"X. c #3D3C37",
"o. c #3C3D37",
"O. c #3D3D37",
"+. c #3E3D37",
"@. c #3C3D38",
"#. c #3D3D38",
"$. c #3E3D38",
"%. c #3F3D38",
"&. c #3C3E38",
"*. c #3D3E38",
"=. c #3D3E39",
"-. c #3E3E38",
";. c #3F3E38",
":. c #3E3E39",
">. c #3F3E39",
",. c #3E3F39",
"<. c #3F3F39",
"1. c #3F3F3A",
"2. c #403E38",
"3. c #403F38",
"4. c #403E39",
"5. c #403F39",
"6. c #413F39",
"7. c #403F3A",
"8. c #413F3A",
"9. c #40403A",
"0. c #41403A",
"q. c #40403B",
"w. c #41403B",
"e. c #41413B",
"r. c #42403A",
"t. c #42403B",
"y. c #42413B",
"u. c #42413C",
"i. c #43413C",
"p. c #43423C",
"a. c #43423D",
"s. c #44423C",
"d. c #44423D",
"f. c #45423D",
"g. c #44433D",
"h. c #45433D",
"j. c #45433E",
"k. c #46433E",
/* pixels */
"I ^ ' ^ ' ^ ^ ^ ^ ' ' ' I I ' ' ' ' ' ' ' ' ' ^ ' ' ^ ^ ' ' ^ ^ ^ ' ^ ' ^ ^ ' ^ ' ' ' ^ ' ^ ' ' ^ ' ' ' ^ ' ' ^ ' ' ^ ' ' ^ I N ",
"I ^ ^ ^ ^ ^ ^ ^ ^ ^ ' O.I ^ ' ' ^ ^ ^ ^ ' ' ^ ^ ^ ^ ^ ^ ' ' ^ ' ' ^ ^ ^ ^ ^ ^ ' ' ^ ^ ^ ' ' ^ ^ ^ ' ' ' ^ ' ' ' ' ' ^ ^ ^ ^ I I ",
"^ ^ ^ ^ ^ ' ' ^ ' ' ' ' ^ ' ' ^ ' ^ ^ ^ ' ' ' ^ ^ I I I ^ ' ^ ' ^ ^ ' ' ^ ^ ' ' ' ^ ^ ^ ^ ' I N ^ ^ ' ^ ^ ^ ^ ^ ' ^ ' ' ' ^ ^ ' ",
"' ' ' ^ ^ I ^ ' ^ ' ' ^ ' ' O.' ^ ' O.' ' ' ' ^ ^ I I I ^ ' ^ ^ ' ^ ^ ^ ^ ' ' ' ^ ^ ' ^ ^ ' ^ ^ ' ' ' ' ' ' ' ^ ^ ' ' ' ^ ^ ^ ^ ",
"' ' ' ^ ^ m ^ ' ^ ^ ' ' ' ' O.' ' O.8.O.^ ' ' ' ' ^ ^ ^ ^ ^ ^ ' ' ^ N I ' ' ' ' ^ ^ ^ ' ' ' ' ' ' ' ^ ' ' ' ' I N ^ ^ ' ' ^ ' ^ ",
"^ ' ' ' ^ I ^ ' ' ' ' ' ' O.^ ' ' O.O.' ^ ' O.' ' ^ ' ' ^ ' ' ' ' ' ^ ^ ' ^ ' ^ ^ O.O.^ ' ^ ' ^ ^ ' ' ' O.' ^ I I ^ ' ' ' ' ' ^ ",
"' ' ^ ^ ^ ' ' ^ ' ' ' ' ' ' ' ' ' ^ ^ ' ' ^ ' ^ ^ ^ ^ ^ ' ^ ^ ' ^ ' ' ' ' ^ ^ ' ^ 8.8.^ ' ^ ^ ^ ^ ^ O.' ' ' ^ ^ ' ' ' ^ ' ' ^ ' ",
"' ' ' ^ ^ ^ O.8.;.;.;.;.8.r.;.;.;.;.;.;.O.O.O.;.;.;.;.;.;.;.;.;.;.;.O.8.r.;.;.O.;.;.;.;.;.;.;.;.;.;.;.8.;.;.;.' ' ' ' ;.O.^ ^ ' ",
"' ^ ^ ^ ^ ^ O.r.;.;.8.8.r.r.;.8.r.8.8.8.;.;.;.;.8.r.r.r.r.r.r.r.r.8.;.8.r.8.;.;.;.;.O.;.;.8.8.8.8.8.r.r.r.8.;.O.O.^ O.8.O.^ ' ' ",
"' I m ^ ' ' ' ;.;.8.8.8.r.r.8.8.8.8.;.8.8.;.O.O.8.r.r.8.8.8.r.r.8.r.r.r.r.8.;.8.8.' ' 8.8.8.8.8.8.8.r.r.r.8.;.;.O.^ ^ ^ ' ' ^ ^ ",
"' I I ^ ' ' ' ;.8.8.8.8.8.8.8.8.8.8.8.8.8.8.8.;.;.r.r.8.8.8.} ^ ;.8.8.r.r.r.r.8.8.O.O.;.8.8.r.8.;.;.;.;.8.8.8.;.;.' ^ ^ ' ' ' ^ ",
"^ ' ' ' ^ ' ' 8.8.8.8.r.O.' ;.8.8.8.8.8.8.8.r.r.8.r.r.r.r.i.j $ ;.r.;.8.;.r.d.r.8.r.8.8.8.8.8.r.8.8.O.' 8.8.8.;.;.' ^ ^ ^ ' ' ' ",
"' ' ^ ' ^ ' O.8.;.;.;.8.;.O.8.8.r.8.8.;.;.8.r.r.r.r.r.r.^ c r 6 c S ;.r.8.8.r.8.8.8.8.8.8.8.;.;.8.8.;.O.8.8.8.8.8.' ^ ^ ^ ^ ' ' ",
"' ' ^ ^ ^ ' O.8.;.' ;.8.8.r.8.r.r.8.r.;.^ 8.r.r.r.8.r.d.S . 6 6 $ 6 r.i.r.8.;.8.8.8.r.8.8.r.;.^ ;.8.r.r.8.8.r.8.8.' ^ ^ ^ ^ ' ' ",
"' ^ ' O.O.' ' 8.8.;.8.8.;.r.8.r.8.;.8.;.;.8.r.r.8.r.O.j j 6 6 6 6 6 l c j ^ r.8.8.8.8.r.8.8.;.;.;.8.r.8.8.;.O.;.;.' ^ ^ ^ I ^ ' ",
"' ^ ' ;.;.^ O.8.8.8.8.8.8.8.8.8.8.8.8.8.r.r.r.r.8.i.} $ 6 6 6 6 6 6 $ $ . C r.;.8.8.8.8.r.8.8.8.8.8.8.;.8.;.' ;.8.O.^ ' I m ^ O.",
"' ' ' ' ' ' O.8.8.8.r.i.r.8.r.r.r.8.8.8.r.r.r.i.r.z j 6 6 6 6 6 @ 6 6 6 6 r y } r.r.8.O.O.8.8.8.8.8.8.r.r.8.;.;.;.O.^ ' ' ^ ' ' ",
"' ' ' ^ ^ ' O.8.;.;.r.i.r.8.r.r.8.8.r.r.r.r.r.1.;.r 6 6 6 6 6 6 6 6 6 6 6 6 $ L ;.;.8.O.O.r.8.8.8.8.;.8.8.r.r.8.8.' ^ ^ ^ ' ^ ' ",
"' ' ' ^ ^ ' O.;.8.8.8.8.r.8.r.8.' ;.r.8.8.r.;.j $ $ $ 6 6 6 6 6 $ 6 6 6 6 6 $ $ 6 ;.i.r.r.r.8.8.8.8.O.O.r.r.r.r.8.' ^ ' ^ ^ ^ ^ ",
"^ ^ ' ' ^ ^ O.8.8.r.r.r.r.r.r.8.O.;.r.r.r.r.;.S c c j 6 6 6 6 6 l l 6 6 6 j c c c L ^ r.8.r.8.8.8.8.;.;.8.8.r.8.8.' ^ ' ^ ' ^ ' ",
"' ' ' ^ ^ m ^ r.8.;.r.r.r.r.r.r.8.r.r.r.r.r.r.i.i.d.O.. 6 6 6 6 ;.r.6 6 $ S d.r.i.6 6 8.8.8.8.8.r.8.8.r.8.8.r.8.8.O.^ ' ' ^ ' ' ",
"' ' ^ ^ ^ I ^ 8.8.8.;.O.;.r.r.r.r.r.r.8.r.L c C C S c 6 6 r 6 6 C S 6 6 6 j S ;.r.L S 8.r.8.r.i.r.;.8.8.8.8.;.;.;.' ^ I ^ ' ' ' ",
"' ^ ^ ' ' ^ ' 8.8.8.O.^ ;.r.r.r.r.r.r.r.i.j . 6 6 6 6 6 6 6 6 6 $ $ $ $ $ $ $ ;.r.r.r.r.r.8.i.d.r.;.8.8.8.;.^ ;.r.' ^ m I ' ' ' ",
"' ' ' ' ' ^ ' 8.r.8.8.;.r.i.r.r.r.r.r.^ j r 6 r 6 6 6 6 c } } } 6 6 } } } c 6 j l ;.8.;.r.r.r.r.;.8.;.8.r.8.;.;.8.O.^ ^ ^ ' ' ^ ",
"^ ' ' ' ' ^ O.r.r.r.r.r.i.d.r.r.;.;.r.S $ 6 6 6 6 6 6 $ S i.r.r.r 6 r.r.i.S 6 6 6 } ;.;.;.r.8.;.8.8.8.r.r.r.r.8.8.O.' ' ' ' ^ ' ",
"' ^ I ^ ^ ' O.8.r.r.r.8.r.r.r.;.r 6 6 6 6 6 r ;.O.r 6 6 6 j y r 6 6 r r r 6 6 6 6 r r 6 l r.8.8.8.r.r.8.8.8.8.;.;.O.^ ^ ' ' ' ^ ",
"' I N ^ ^ ' O.8.r.r.r.8.;.;.8.;.y y j y j r r } } r 6 6 6 6 6 6 @ 6 6 6 6 6 j j j r 6 6 j O.;.8.8.r.r.8.;.;.8.8.8.' ^ ^ ^ ' ^ ^ ",
"^ ' ^ ^ ' ' O.i.i.r.r.8.r.8.r.r.r.r.r.r.d.c 6 6 6 6 6 6 6 6 6 6 6 6 6 6 $ C d.r.i.j 6 6 6 $ S i.8.8.O.O.8.;.;.i.i.O.^ ' ^ ^ ^ ' ",
"^ ^ ' ' ' ' O.r.r.r.;.;.8.r.r.r.r.r.r.;.} j 6 6 6 6 6 6 6 6 j l c j 6 6 6 j ^ ^ ^ r 6 c c c ^ r.r.r.;.;.r.r.8.r.r.O.' O.' I ^ ' ",
"^ ^ ^ ' ' ' O.;.;.r.;.^ ;.r.r.r.i.i.i.C $ 6 $ $ 6 6 6 6 6 6 } d.d.r.r 6 6 6 $ $ $ . r i.d.d.r.8.r.r.r.r.r.r.r.8.8.' ^ ' ^ m ^ ^ ",
"^ ' ^ ' ' ^ O.8.8.r.;.;.r.r.r.;.C c c j 6 c L L C 6 6 6 6 6 c S S C 6 6 6 6 6 6 6 6 6 c c c } r.8.r.r.r.8.8.8.8.;.O.^ ^ ^ I ^ ' ",
"' ^ ' ' ' ' O.8.8.8.r.r.r.r.i.;.6 $ $ 6 6 } d.i.;.6 6 6 6 6 6 $ $ $ 6 6 6 6 6 6 6 6 6 $ $ $ S i.r.r.r.r.8.r.8.;.;.O.' ^ ' ' ' ' ",
"O.' ' I I ' O.r.8.8.r.r.r.r.c j 6 6 6 6 6 j j j j 6 6 6 6 6 6 6 @ 6 6 6 6 6 6 S ;.;.} 6 6 6 r j ;.i.r.r.i.r.r.8.;.O.' ^ ' ^ ' ' ",
"' ' ^ I I ' O.r.r.8.r.8.8.r.j 6 j r j r 6 6 $ 6 6 6 6 6 6 6 6 6 @ 6 6 6 6 6 6 ^ r.r.;.j r y r r ;.i.r.r.i.r.r.8.;.O.^ ^ ' ' ' ' ",
"' ' ' ^ ^ ' O.8.r.i.8.r.r.r.r.;.r.r.i.S $ 6 6 6 6 6 6 $ 6 6 6 6 6 6 $ 6 6 6 6 6 r 6 j ;.r.r.r.r.r.r.r.r.r.r.r.8.;.^ I ' ^ ' ^ ' ",
"' ' ' ' ' ' O.8.r.r.r.r.8.8.r.r.O.} } c $ 6 6 6 6 6 r j y 6 6 6 6 6 j j j r 6 6 6 6 r } } } ;.r.8.r.r.8.;.8.8.;.8.^ I ' ' ^ ^ ' ",
"O.' ' ' ' ' O.;.;.O.;.r.r.r.i.;.6 6 6 6 6 6 6 6 6 6 j d.L $ 6 6 6 r r.i.d.S . 6 6 6 6 6 6 $ L i.r.8.r.r.8.8.;.;.;.O.' ' ^ ' ' ' ",
"' ^ I ' ' ' O.8.;.;.8.r.r.8.L C r r 6 6 6 c S r 6 6 y S j 6 6 6 6 6 S S L j 6 6 6 6 6 6 6 6 j S ;.8.r.r.;.;.r.8.8.O.' ' ' ^ ' ' ",
"O.I m ^ ' O.O.r.8.r.8.8.r.r.j $ 6 6 $ 6 $ } d.j 6 6 6 $ 6 6 6 6 6 6 $ $ $ .   $ 6 $ $ $ 6 6 6 $ } i.r.r.O.O.r.;.8.O.' ' ' ^ ^ ' ",
"' ^ ^ ' ' O.O.8.8.r.8.r.L j r 6 6 j } c $ j c r 6 6 6 6 6 6 6 6 6 6 6 6 6 l ^ ^ } } ^ ^ C 6 6 6 j C ;.r.;.;.8.8.r.O.' ' O.8.O.^ ",
"' ' ' ^ ' ' O.8.r.r.r.i.c $ 6 6 $ c d.C $ 6 $ 6 6 6 6 6 6 6 6 6 6 6 6 6 $ S i.r.r.r.i.d.} $ 6 6 $ r ;.r.8.r.8.8.8.O.' ' O.r.;.' ",
"' ' ' ^ ' ' O.8.r.i.r.r.;.O.;.O.} ;.r.;.;.;.} ;.^ 6 6 6 6 6 6 6 @ @ 6 j ;.;.r.;.O.8.r.i.r.;.O.O.} ;.8.r.;.r.r.8.8.^ I ' ' O.' ' ",
"^ ^ ^ ' ^ ' O.8.r.i.i.r.r.r.r.r.r.r.8.r.r.r.r.r.8.j y 6 6 6 6 6 @ @ $ j i.r.r.;.O.r.r.r.r.r.r.r.r.r.8.8.8.r.8.;.8.^ I ' ' ^ ' ^ ",
"^ ^ ^ ^ ' ' O.8.r.d.r.8.8.;.r.r.8.r.8.r.r.r.r.8.;.r.} 6 6 6 6 6 6 6 $ j r.r.r.r.8.8.8.r.r.8.r.r.;.r.r.8.8.8.r.8.8.O.^ ' ' ' ' ^ ",
"^ ^ ^ ^ ^ ^ O.r.r.i.r.;.8.8.8.8.8.r.r.8.r.r.;.8.8.r.} $ 6 6 6 6 6 6 $ j r.r.r.r.8.;.r.r.r.r.8.;.8.r.r.r.r.r.r.r.8.O.^ ' ' ' ^ ' ",
"^ ^ ^ I N ^ O.r.;.;.8.8.r.r.O.O.8.8.r.8.r.O.O.8.r.i.} $ 6 6 6 6 6 6 $ l i.r.r.r.r.r.r.r.8.r.O.^ ;.r.r.r.d.i.r.8.8.O.^ ^ ^ ^ ^ ' ",
"' ^ ^ I I ^ O.;.;.8.r.8.r.8.;.;.r.8.8.8.r.;.;.r.r.C j 6 6 6 6 6 6 6 6 r c ^ r.r.r.r.r.r.r.8.;.;.8.r.r.r.r.i.r.8.8.O.^ ^ ^ I ^ ' ",
"^ ^ ' ^ ^ ^ O.;.8.r.8.8.8.8.8.r.r.r.8.r.r.r.8.r.r.6 $ 6 6 6 6 6 6 6 6 6 . C i.;.r.8.r.8.8.r.r.r.8.r.r.8.r.8.8.8.;.' ' ' ^ m ^ ' ",
"^ ^ ' ^ ' ' O.r.;.O.;.r.r.r.r.r.r.8.8.8.;.r.r.c j r 6 6 6 6 6 6 6 6 6 6 6 r j } r.r.r.8.r.i.i.r.r.r.8.;.8.;.8.;.8.' ^ ' ^ ^ ^ ^ ",
"^ ' ^ ^ ^ ^ O.8.;.^ ;.8.r.r.r.8.8.;.;.r.r.;.;.r $ r 6 6 6 6 6 6 6 6 6 6 6 6 $ ^ r.8.8.;.r.d.i.r.r.8.8.8.;.;.8.8.;.' ^ ' ' ' ^ ^ ",
"^ ^ ^ ^ ^ ' O.8.;.8.8.8.8.r.8.r.r.8.r.;.r.C 6 6 6 $ j ;.;.;.j $ 6 r ;.;.;.C $ r r ;.r.r.r.i.i.r.r.8.;.O.8.8.8.8.8.O.' ' ' ' ' ^ ",
"' ' ' ^ ' ' O.;.8.8.8.r.r.r.r.8.;.r.r.r.r.S j j j j S d.r.r.c y j l 8.r.r.L j j j ;.r.;.r.r.r.r.r.r.O.O.r.r.r.8.8.O.' ^ ^ ^ ' ' ",
"^ O.8.O.^ ' O.r.r.r.r.r.r.8.r.;.' O.r.r.r.r.r.r.r.r.r.r.r.r.r.r.r.r.r.;.' ;.r.r.r.8.r.8.r.r.r.r.8.8.8.8.8.8.8.O.' ' ^ ^ ' ' ' ' ",
"^ O.O.' ' ' ' 8.r.r.8.r.r.r.r.8.O.;.8.r.r.r.r.r.8.r.8.;.r.r.r.r.r.r.8.;.O.;.r.r.8.8.8.r.8.r.r.8.;.;.r.8.r.8.;.O.O.' ^ ^ ' ' ^ ' ",
"^ ^ ^ ^ ^ ' ' ' ;.r.8.r.r.r.r.r.r.r.8.r.r.r.8.r.r.r.8.O.;.r.r.r.r.r.r.r.r.r.r.r.8.8.r.r.;.O.;.r.8.8.8.8.8.r.8.8.r.O.^ ^ ^ ^ ^ ^ ",
"' ' ' ^ ^ ^ ' ' O.;.O.O.O.O.O.;.;.O.;.;.;.;.;.O.;.;.O.^ O.;.;.;.;.;.;.O.O.O.O.O.O.O.;.;.O.' O.;.;.O.O.O.O.O.;.O.O.' ^ ^ ^ ^ ' ' ",
"' ' ' ^ ^ ' ' ' ^ ' I N ^ ^ ' ' ' ^ ^ ^ ^ ' ' ' ^ ^ ^ ' ^ ^ ^ ^ ^ ^ ^ ^ ^ ^ ^ ^ ^ ^ ^ ^ ' ' ^ ' ^ ^ ^ ' ^ ^ ^ ^ ^ ^ ^ ' ^ ^ ^ ^ ",
"^ ^ ^ ^ ' ' ^ ' ' ' ^ ^ ^ ' ^ ' ' ^ ^ ^ ^ ' ' ' ' ' ^ ^ ' ' ^ ^ ^ ^ ' ^ ^ ^ ^ ^ ' O.O.' ' ' ' ' ' ^ ' ^ ^ ^ ^ ' ^ ' ^ I I ^ ^ ^ ",
"' ' ^ ' ' ^ ^ ^ ^ ' ' ' ^ ' ^ ^ ' ' ^ ' ' ' ' ^ ' ' ^ ^ ^ ^ ^ ^ ^ ^ ^ ^ ' ^ ^ ^ ^ ;.8.' ' ' ' ^ ^ ' ' ^ ^ ^ ^ ^ ^ ' ^ N I ' ' ' ",
"' ^ ' I I ^ ' ' ^ ^ ^ ^ ^ ^ ^ ^ ;.O.^ ^ ^ ^ ^ ^ ^ ^ ^ ^ ^ ^ ^ ^ N I ^ ^ ^ ^ ^ ^ ^ ' O.^ ^ ^ I I ^ ^ ' ' ^ ^ ^ ^ ^ ^ ^ ^ ^ ^ ^ ' ",
"' ^ ^ I I ^ ^ ' ' ^ ^ ^ ^ ^ ^ ^ ;.O.^ ^ ' ^ ^ ^ ^ ^ ^ ^ ^ ^ ^ ^ I I ^ ^ ^ ^ ^ ' ^ ^ ^ ^ ^ ' I I ^ ^ ^ ' ^ ^ ' ^ ^ ' ^ ^ ^ ^ ^ ' ",
"' ' ^ ^ ' ^ ^ ^ ^ ^ ^ ^ ' ^ ' ^ ^ ^ ^ ^ ^ ^ ' ^ ^ m I ^ ^ ^ ' ^ ^ ^ ^ ^ ' ^ ^ ' ^ ^ ' ' ^ ' ' ^ ^ ^ ' ' ^ O.8.O.^ ' ^ ^ ' ' ' ^ ",
"I ^ ' ^ ' ^ ^ ^ ^ ^ ^ ^ ' ' ^ ' ' ^ ^ ^ ^ ^ ' ' ^ I I ^ ' ' ' ^ ^ ^ ^ ^ ^ I I ^ ^ ^ ^ ^ ^ ' ' ^ ^ ^ ' ' ^ ' O.' ^ ' ^ ^ ' ' ^ I ",
"m I ^ ' ' ^ ' ' ^ ^ ' ^ ^ ' ' ' O.^ ^ ^ ^ ^ ' ^ ^ ' ^ ^ ' ' ^ ' ^ ^ ^ ' ' I N ^ ' ' ' ' ^ ^ ' ^ ' ^ ' ' ^ ^ ^ ^ ' ' ' ' ' ' I I "
};
