/* XPM */
static const char *weapon_64[] = {
/* columns rows colors chars-per-pixel */
"64 64 171 2 ",
"   c #1E1E1D",
".  c #211F1D",
"X  c #1F201E",
"o  c #24201E",
"O  c #2C221F",
"+  c #33231F",
"@  c #3D251E",
"#  c #30281E",
"$  c #3A2B1E",
"%  c #252221",
"&  c #2C2421",
"*  c #282728",
"=  c #2C2B2B",
"-  c #342521",
";  c #3B2621",
":  c #352923",
">  c #3B2B23",
",  c #312E2F",
"<  c #393538",
"1  c #44261E",
"2  c #49271F",
"3  c #422F1D",
"4  c #4B2B1E",
"5  c #512A1F",
"6  c #5F2D1C",
"7  c #44321E",
"8  c #4B341C",
"9  c #503119",
"0  c #5C361B",
"q  c #533E1E",
"w  c #5C3C1C",
"e  c #622F17",
"r  c #642F1A",
"t  c #6E3616",
"y  c #673218",
"u  c #6C331B",
"i  c #613F1C",
"p  c #6D3A1C",
"a  c #713916",
"s  c #7C3D14",
"d  c #75361A",
"f  c #7E3A1A",
"g  c #442720",
"h  c #492720",
"j  c #432A22",
"k  c #4B2A22",
"l  c #532C22",
"z  c #5B2E22",
"x  c #553024",
"c  c #5E3024",
"v  c #5F3829",
"b  c #602F22",
"n  c #633224",
"m  c #6B3525",
"M  c #6F3927",
"N  c #673728",
"B  c #683728",
"V  c #633B29",
"C  c #6B3A29",
"Z  c #713625",
"A  c #733927",
"S  c #793B27",
"D  c #743B28",
"F  c #7C3D29",
"G  c #55401E",
"H  c #69461C",
"J  c #7C4717",
"K  c #7F4C17",
"L  c #754319",
"P  c #794518",
"I  c #79501A",
"U  c #554324",
"Y  c #574E30",
"T  c #585033",
"R  c #69402B",
"E  c #744029",
"W  c #7D4229",
"Q  c #413E41",
"!  c #434144",
"~  c #823F29",
"^  c #844716",
"/  c #864817",
"(  c #8E4718",
")  c #83551A",
"_  c #875B1C",
"`  c #8C5A1A",
"'  c #9D5415",
"]  c #9E5D15",
"[  c #925E18",
"{  c #A35614",
"}  c #A45C12",
"|  c #9F6116",
" . c #9D6519",
".. c #96681C",
"X. c #9C6A1A",
"o. c #95661C",
"O. c #A66818",
"+. c #AD6A18",
"@. c #B36015",
"#. c #BB6614",
"$. c #B56914",
"%. c #BB6D12",
"&. c #A9741C",
"*. c #BD7715",
"=. c #BA7919",
"-. c #B4751B",
";. c #834029",
":. c #804129",
">. c #854029",
",. c #864029",
"<. c #84402A",
"1. c #87412A",
"2. c #86422A",
"3. c #85412A",
"4. c #89422A",
"5. c #8A422A",
"6. c #8A442B",
"7. c #8A472A",
"8. c #8C452B",
"9. c #8E462B",
"0. c #8A442B",
"q. c #8D492B",
"w. c #8C492B",
"e. c #90472C",
"r. c #914A2C",
"t. c #954B2D",
"y. c #954C2D",
"u. c #934B2C",
"i. c #994E2D",
"p. c #9B4E2D",
"a. c #97502E",
"s. c #9A502E",
"d. c #9E512D",
"f. c #9C522E",
"g. c #A3542E",
"h. c #A4592F",
"j. c #AC5A2E",
"k. c #AC5C2F",
"l. c #B05C2F",
"z. c #A55630",
"x. c #A65730",
"c. c #AB5A31",
"v. c #B05C31",
"b. c #B9662F",
"n. c #C67916",
"m. c #CE7C16",
"M. c #AA822E",
"N. c #AD8630",
"B. c #CE8218",
"V. c #DB8918",
"C. c #D48C1E",
"Z. c #E18F16",
"A. c #E5911D",
"S. c #EE9F1D",
"D. c #D58920",
"F. c #D89020",
"G. c #DD9926",
"H. c #DA932C",
"J. c #E29B26",
"K. c #E39C29",
"L. c #E7A52A",
"P. c #F1A92A",
"I. c #F1A223",
"U. c #EDAC31",
"Y. c #F8B734",
"T. c #F7BD3D",
"R. c #ECBE50",
"E. c #F4C048",
"W. c #EEC556",
"Q. c None",
"!. c black",
/* pixels */
"Q.Q.Q.Q.Q.Q.Q.Q.Q.Q.Q.Q.Q.Q.Q.Q.Q.Q.Q.Q.Q.Q.Q.Q.Q.Q.Q.Q.Q.Q.Q.Q.Q.Q.Q.Q.Q.Q.Q.Q.Q.Q.Q.Q.Q.Q.Q.Q.Q.Q.Q.Q.Q.Q.Q.Q.Q.Q.Q.Q.Q.Q.Q.Q.",
"Q.Q.Q.Q.Q.Q.Q.Q.Q.Q.Q.Q.Q.Q.Q.Q.Q.Q.Q.Q.Q.Q.Q.Q.Q.Q.Q.Q.Q.Q.Q.Q.Q.Q.Q.Q.Q.Q.Q.Q.Q.Q.Q.Q.Q.Q.Q.Q.Q.Q.Q.Q.Q.Q.Q.Q.Q.Q.Q.Q.Q.Q.Q.Q.",
"Q.Q.Q.Q.Q.Q.Q.Q.Q.Q.Q.Q.Q.Q.Q.Q.Q.Q.Q.Q.Q.Q.Q.Q.Q.Q.Q.Q.Q.Q.Q.Q.Q.Q.Q.Q.Q.Q.Q.Q.Q.Q.Q.Q.Q.Q.Q.Q.Q.Q.Q.Q.Q.Q.Q.Q.Q.Q.Q.Q.Q.Q.Q.Q.",
"Q.Q.Q.Q.Q.Q.Q.Q.Q.Q.Q.Q.Q.Q.Q.Q.Q.Q.Q.Q.Q.Q.Q.Q.Q.Q.Q.Q.Q.Q.Q.Q.Q.Q.Q.Q.Q.Q.Q.Q.Q.Q.Q.Q.Q.Q.Q.Q.Q.Q.Q.Q.Q.Q.Q.Q.Q.Q.Q.Q.Q.Q.Q.Q.",
"Q.Q.Q.Q.Q.Q.Q.Q.Q.Q.Q.Q.Q.Q.Q.Q.Q.Q.Q.Q.Q.Q.Q.Q.Q.Q.Q.Q.Q.Q.Q.Q.Q.Q.Q.Q.Q.Q.Q.Q.Q.Q.Q.Q.Q.Q.Q.Q.Q.Q.Q.Q.Q.Q.Q.Q.Q.Q.Q.Q.Q.Q.Q.Q.",
"Q.Q.Q.Q.Q.Q.Q.Q.Q.Q.Q.Q.Q.Q.Q.Q.Q.Q.Q.Q.Q.Q.Q.Q.Q.Q.Q.Q.Q.Q.Q.Q.Q.Q.Q.Q.Q.Q.Q.Q.Q.Q.Q.Q.Q.Q.Q.Q.Q.Q.Q.Q.Q.Q.Q.Q.Q.Q.Q.Q.Q.Q.Q.Q.",
"Q.Q.Q.Q.Q.Q.Q.Q.Q.Q.Q.Q.Q.Q.Q.Q.Q.Q.Q.Q.Q.Q.Q.Q.Q.Q.Q.Q.Q.Q.Q.Q.Q.Q.Q.Q.Q.Q.Q.Q.Q.Q.Q.Q.Q.Q.Q.Q.Q.Q.Q.Q.Q.Q.Q.Q.Q.Q.Q.Q.Q.Q.Q.Q.",
"Q.Q.Q.Q.Q.Q.Q.Q.Q.Q.Q.Q.Q.Q.Q.Q.Q.Q.Q.Q.Q.Q.Q.Q.Q.Q.Q.Q.Q.Q.Q.Q.Q.Q.Q.Q.Q.Q.Q.Q.Q.Q.Q.Q.Q.Q.Q.Q.Q.Q.Q.Q.Q.Q.Q.Q.Q.Q.Q.Q.Q.Q.Q.Q.",
"Q.Q.Q.Q.Q.Q.Q.Q.Q.Q.Q.Q.Q.Q.Q.Q.Q.Q.Q.Q.Q.Q.Q.Q.Q.Q.Q.Q.Q.Q.Q.Q.Q.Q.Q.Q.Q.Q.Q.Q.Q.Q.Q.Q.Q.Q.Q.Q.Q.Q.Q.Q.Q.Q.Q.Q.Q.Q.Q.Q.Q.Q.Q.Q.",
"Q.Q.Q.Q.Q.Q.Q.Q.Q.Q.Q.Q.Q.Q.Q.Q.Q.Q.Q.Q.Q.Q.Q.Q.Q.Q.Q.Q.Q.Q.Q.Q.Q.Q.Q.Q.Q.Q.Q.Q.Q.Q.Q.Q.Q.Q.Q.Q.Q.Q.Q.Q.Q.Q.Q.Q.Q.Q.Q.Q.Q.Q.Q.Q.",
"Q.Q.Q.Q.Q.Q.Q.Q.Q.Q.Q.Q.Q.Q.Q.Q.Q.Q.Q.Q.Q.Q.Q.Q.Q.Q.Q.Q.Q.Q.Q.Q.Q.Q.Q.Q.Q.Q.Q.Q.Q.Q.Q.Q.Q.Q.Q.Q.Q.Q.Q.Q.Q.Q.Q.Q.Q.Q.Q.Q.Q.Q.Q.Q.",
"Q.Q.Q.Q.Q.Q.Q.Q.Q.Q.Q.Q.Q.Q.Q.Q.Q.Q.Q.Q.Q.Q.Q.Q.Q.Q.Q.Q.Q.Q.Q.Q.Q.Q.Q.Q.Q.Q.Q.Q.Q.Q.Q.Q.Q.Q.Q.Q.Q.Q.Q.Q.Q.Q.Q.Q.Q.Q.Q.Q.Q.Q.Q.Q.",
"Q.Q.Q.Q.Q.Q.Q.Q.Q.Q.Q.Q.Q.Q.Q.Q.Q.Q.Q.Q.Q.Q.Q.Q.Q.Q.Q.Q.Q.Q.Q.Q.Q.Q.Q.Q.Q.Q.Q.Q.Q.Q.Q.Q.Q.Q.Q.Q.Q.Q.Q.Q.Q.Q.Q.Q.Q.Q.Q.Q.Q.Q.Q.Q.",
"Q.Q.Q.Q.Q.Q.Q.Q.Q.Q.Q.Q.Q.Q.Q.Q.Q.Q.% % % % . Q.Q.Q.Q.Q.Q.Q.Q.Q.Q.Q.Q.Q.Q.Q.Q.% % % % Q.Q.Q.Q.Q.Q.Q.Q.Q.Q.Q.Q.Q.Q.Q.Q.Q.Q.Q.Q.Q.",
"Q.Q.Q.Q.Q.Q.Q.Q.Q.Q.Q.Q.Q.Q.Q.    + l N N N x .     X X X X X X o X X X X   ; c N N N k     X o Q.Q.Q.Q.Q.Q.Q.Q.Q.Q.Q.Q.Q.Q.Q.Q.",
"Q.Q.Q.Q.Q.Q.Q.Q.Q.Q.Q.Q.Q.Q.Q.; ; k m S >.4.A k ; ; j j j > > > > j j j j j l m F 6.>.m j ; ; &   Q.Q.Q.Q.Q.Q.Q.Q.Q.Q.Q.Q.Q.Q.Q.",
"Q.Q.Q.Q.Q.Q.Q.Q.Q.Q.Q.Q.Q.Q.& z m m m n ;.8.>.>.m n m Z Z Z Z Z Z Z Z Z Z A m z n r.8.>.F n b g o Q.Q.Q.Q.Q.Q.Q.Q.Q.Q.Q.Q.Q.Q.Q.",
"Q.Q.Q.Q.Q.Q.Q.Q.Q.Q.Q.Q.Q.- l z S 6.;.z n W y.6.8.A n F ~ ~ ~ ~ ~ ~ ~ ~ ~ >.A z z n w.y.>.~ Z z k o Q.Q.Q.Q.Q.Q.Q.Q.Q.Q.Q.Q.Q.Q.",
"Q.Q.Q.Q.Q.Q.Q.Q.Q.Q.Q.Q.  - z z n Z A m z n F s.6.>.S n Z Z Z Z Z A A A S d.;.n n z m 2.p.~ ;.m k o Q.Q.Q.Q.Q.Q.Q.Q.Q.Q.Q.Q.Q.Q.",
"Q.Q.Q.Q.Q.Q.Q.Q.Q.Q.Q.Q.Q.O j l z m ~ ~ A n n 2.r.r.;.m b m A A S S F F S p.>.A S m z m 6.r.4.F n ; O Q.Q.Q.Q.Q.Q.Q.Q.Q.Q.Q.Q.Q.",
"Q.Q.Q.Q.Q.Q.Q.Q.Q.Q.Q.Q.Q.Q.o g l m >.8.4.S n n r.u.8.>.m Z ~ >.4.4.8.8.>.>.>.>.>.>.m z n y.8.8.~ m j O Q.Q.Q.Q.Q.Q.Q.Q.Q.Q.Q.Q.",
"Q.Q.Q.Q.Q.Q.Q.Q.Q.Q.Q.Q.Q.Q.Q.. g z n >.>.>.S z n w.d.8.4.m m >.>.e.6.>.~ 8.4.~ >.>.>.Z z n p.p.8.6.Z >   Q.Q.Q.Q.Q.Q.Q.Q.Q.Q.Q.",
"Q.Q.Q.Q.Q.Q.Q.Q.Q.Q.Q.Q.Q.Q.Q.Q.O ; z m Z A A m z 7.c.z.z.D n Z Z A A Z S j.r.Z Z m m m n z s.c.z.g.A >   Q.Q.Q.Q.Q.Q.Q.Q.Q.Q.Q.",
"Q.Q.Q.Q.Q.Q.Q.Q.Q.Q.Q.Q.Q.      X & ; z A F ~ F n M W W W n n F F F F F >.k.i.F F ;.F F A z A F W F n c k   Q.Q.Q.Q.Q.Q.Q.Q.Q.Q.",
"Q.Q.Q.Q.Q.Q.Q.Q.Q.Q.Q.Q.O : : j j j j k A 8.u.r.F A A A A A ;.u.u.d.p.p.p.l.g.p.g.j.d.u.8.A A A A A M >.C % Q.Q.Q.Q.Q.Q.Q.Q.Q.Q.",
"Q.Q.Q.Q.Q.Q.Q.Q.Q.Q.% % g z z A A A m & N 6.y.y.y.y.y.y.y.y.a.s.s.k.h.f.f.h.h.h.j.b.h.s.a.y.y.y.y.y.y.y.C % Q.Q.Q.Q.Q.Q.Q.Q.Q.Q.",
"Q.Q.Q.Q.Q.Q.Q.Q.Q.Q.% g m 4.;.j & & & % & : : : : : : : : : : : : > > > > > > > > > : : : : : : : : : : & % Q.Q.Q.Q.Q.Q.Q.Q.Q.Q.",
"Q.Q.Q.Q.Q.Q.Q.Q.Q.Q.% k n S r.D > & g 4 J L 4 # ) X._ w `  .I 8 i o.&...H ..M.N.X.i 3 0 L @ O ; k l &   Q.Q.Q.Q.Q.Q.Q.Q.Q.Q.Q.Q.",
"Q.Q.Q.Q.Q.Q.Q.Q.Q.Q.% l z z F r.D k 1 6 ( ' / 9 $.A.F.O.| n.n.[ L n.I.L.=.*.G.Y.U.-.J a s r 1 @ l A l + Q.Q.Q.Q.Q.Q.Q.Q.Q.Q.Q.Q.",
"Q.Q.Q.Q.Q.Q.Q.Q.Q.Q.% l l 2 z ;.u.D > 5 6 ( { t { D.P.J.) ] m.B.P } H.T.P.+.%.K.E.S.@.y 1 u 1 O ; m S l + Q.Q.Q.Q.Q.Q.Q.Q.Q.Q.Q.",
"Q.Q.Q.Q.Q.Q.Q.Q.Q.Q.% l l 1 5 z F u.2.: 4 u f d e ' H.R.C.K ^ #.%.s } K.W.J.} { V.Z.#.p & & & & & > w.8.N % Q.Q.Q.Q.Q.Q.Q.Q.Q.Q.",
"Q.Q.Q.Q.Q.Q.Q.Q.Q.Q.% l g & - l b F p.W j - ; ; - 3 U Y U $ $ 8 8 $ 7 U T U 7 3 q G 0 n n n m m m M g.j.W % Q.Q.Q.Q.Q.Q.Q.Q.Q.Q.",
"Q.Q.Q.Q.Q.Q.Q.Q.Q.Q.% l j * , ; h n 6.p.E V V v V V V V V V V V V V V V V R V V V V D >.r.r.r.r.u.r.r.u.D % Q.Q.Q.Q.Q.Q.Q.Q.Q.Q.",
"Q.Q.Q.Q.Q.Q.Q.Q.Q.Q.% l j = Q = ; l m r.8.8.t.d.g.g.p.6.u.t.p.p.p.p.p.p.d.v.g.p.p.g.g.d.p.y.z.c.c.g.A A n % Q.Q.Q.Q.Q.Q.Q.Q.Q.Q.",
"Q.Q.Q.Q.Q.Q.Q.Q.Q.Q.% l j = ! < * + b S z n 8.g.g.g.w.z F >.>.>.>.>.>.>.4.g.u.>.>.>.4.~ m z s.c.c.z.m m N % Q.Q.Q.Q.Q.Q.Q.Q.Q.Q.",
"Q.Q.Q.Q.Q.Q.Q.Q.Q.Q.% l g % * Q = - z S z n 4.r.~ 6.F z F ~ ~ ~ ~ ~ >.>.>.4.>.~ >.>.>.>.F z 6.r.8.6.n m m % Q.Q.Q.Q.Q.Q.Q.Q.Q.Q.",
"Q.Q.Q.Q.Q.Q.Q.Q.Q.Q.% l j o + = * : z n l n 6.u.>.4.F l n n n n n n n n n n n n n n n n c l ;.0.>.>.z z l % Q.Q.Q.Q.Q.Q.Q.Q.Q.Q.",
"Q.Q.Q.Q.Q.Q.Q.Q.Q.Q.% l j O 1 + o : z n l m 6.u.8.6.F l n m m m m m m m m m m m m m m m n z ~ r.e.>.z n x % Q.Q.Q.Q.Q.Q.Q.Q.Q.Q.",
"Q.Q.Q.Q.Q.Q.Q.Q.Q.Q.% l g + 1 1 O : b F n m 4.r.6.6.F n ~ >.~ 4.>.>.4.~ >.;.4.>.>.;.;.;.F z F u.p.4.c A B % Q.Q.Q.Q.Q.Q.Q.Q.Q.Q.",
"Q.Q.Q.Q.Q.Q.Q.Q.Q.Q.% l k + O 1 + : b F n m >.>.4.8.F n ~ F n >.D m >.m F m >.D A m m n D z F 8.8.>.c A B % Q.Q.Q.Q.Q.Q.Q.Q.Q.Q.",
"Q.Q.Q.Q.Q.Q.Q.Q.Q.Q.% l l @ + O o : b ~ n m >.>.4.8.;.n ~ m z F A z m z F c M c m m F m D z F 4.4.>.c A B % Q.Q.Q.Q.Q.Q.Q.Q.Q.Q.",
"Q.Q.Q.Q.Q.Q.Q.Q.Q.Q.. ; g 1 k + O ; n ~ n m >.>.>.r.;.n F n z m A z z c D n z c m m ;.m Z z F >.4.>.c A B % Q.Q.Q.Q.Q.Q.Q.Q.Q.Q.",
"Q.Q.Q.Q.Q.Q.Q.Q.Q.Q.Q.  + g z l 1 2 n ~ n m >.~ >.8.;.n D z z n m m M m D n m m m m F m Z z F 3.>.>.c A B % Q.Q.Q.Q.Q.Q.Q.Q.Q.Q.",
"Q.Q.Q.Q.Q.Q.Q.Q.Q.Q.Q.Q.. : z z 2 2 n F n m ;.F >.0.F c A m F m Z F 3.D F Z >.F D A Z m D z D ~ >.;.c A B % Q.Q.Q.Q.Q.Q.Q.Q.Q.Q.",
"Q.Q.Q.Q.Q.Q.Q.Q.Q.Q.Q.Q.Q.Q.: l k h z n l m >.~ >.4.D l z c c c c c n c n c c n n n n n c l F >.>.~ z z l % Q.Q.Q.Q.Q.Q.Q.Q.Q.Q.",
"Q.Q.Q.Q.Q.Q.Q.Q.Q.Q.Q.Q.Q.Q.. ; ; h z m z m >.>.>.4.F l m m Z m Z Z m m Z Z A A A A A A m l F >.>.~ z n c % Q.Q.Q.Q.Q.Q.Q.Q.Q.Q.",
"Q.Q.Q.Q.Q.Q.Q.Q.Q.Q.Q.Q.Q.Q.Q.  O g n F c n >.~ >.4.F z F >.~ ~ >.>.>.>.>.>.>.~ >.>.4.>.F z F >.~ ~ z Z N % Q.Q.Q.Q.Q.Q.Q.Q.Q.Q.",
"Q.Q.Q.Q.Q.Q.Q.Q.Q.Q.Q.Q.Q.Q.Q.Q.  : z A z n >.F >.4.F z m A Z Z F F F F F F D m A F F F m l F ~ F ~ z m N % Q.Q.Q.Q.Q.Q.Q.Q.Q.Q.",
"Q.Q.Q.Q.Q.Q.Q.Q.Q.Q.Q.Q.Q.Q.Q.Q.Q.Q.& - & x >.;.>.4.C - - : : - : : : : : : : : : : : : - - Z >.>.~ > - - % Q.Q.Q.Q.Q.Q.Q.Q.Q.Q.",
"Q.Q.Q.Q.Q.Q.Q.Q.Q.Q.Q.Q.Q.Q.Q.Q.Q.Q.Q.Q.Q.; j j j j j Q.Q.Q.Q.Q.Q.Q.Q.Q.Q.Q.Q.Q.Q.Q.Q.Q.Q.Q.j j j j & Q.Q.Q.Q.Q.Q.Q.Q.Q.Q.Q.Q.Q.",
"Q.Q.Q.Q.Q.Q.Q.Q.Q.Q.Q.Q.Q.Q.Q.Q.Q.Q.Q.Q.Q.Q.X X X X Q.Q.Q.Q.Q.Q.Q.Q.Q.Q.Q.Q.Q.Q.Q.Q.Q.Q.Q.Q.  X X   Q.Q.Q.Q.Q.Q.Q.Q.Q.Q.Q.Q.Q.Q.",
"Q.Q.Q.Q.Q.Q.Q.Q.Q.Q.Q.Q.Q.Q.Q.Q.Q.Q.Q.Q.Q.Q.Q.Q.Q.Q.Q.Q.Q.Q.Q.Q.Q.Q.Q.Q.Q.Q.Q.Q.Q.Q.Q.Q.Q.Q.Q.Q.Q.Q.Q.Q.Q.Q.Q.Q.Q.Q.Q.Q.Q.Q.Q.Q.",
"Q.Q.Q.Q.Q.Q.Q.Q.Q.Q.Q.Q.Q.Q.Q.Q.Q.Q.Q.Q.Q.Q.Q.Q.Q.Q.Q.Q.Q.Q.Q.Q.Q.Q.Q.Q.Q.Q.Q.Q.Q.Q.Q.Q.Q.Q.Q.Q.Q.Q.Q.Q.Q.Q.Q.Q.Q.Q.Q.Q.Q.Q.Q.Q.",
"Q.Q.Q.Q.Q.Q.Q.Q.Q.Q.Q.Q.Q.Q.Q.Q.Q.Q.Q.Q.Q.Q.Q.Q.Q.Q.Q.Q.Q.Q.Q.Q.Q.Q.Q.Q.Q.Q.Q.Q.Q.Q.Q.Q.Q.Q.Q.Q.Q.Q.Q.Q.Q.Q.Q.Q.Q.Q.Q.Q.Q.Q.Q.Q.",
"Q.Q.Q.Q.Q.Q.Q.Q.Q.Q.Q.Q.Q.Q.Q.Q.Q.Q.Q.Q.Q.Q.Q.Q.Q.Q.Q.Q.Q.Q.Q.Q.Q.Q.Q.Q.Q.Q.Q.Q.Q.Q.Q.Q.Q.Q.Q.Q.Q.Q.Q.Q.Q.Q.Q.Q.Q.Q.Q.Q.Q.Q.Q.Q.",
"Q.Q.Q.Q.Q.Q.Q.Q.Q.Q.Q.Q.Q.Q.Q.Q.Q.Q.Q.Q.Q.Q.Q.Q.Q.Q.Q.Q.Q.Q.Q.Q.Q.Q.Q.Q.Q.Q.Q.Q.Q.Q.Q.Q.Q.Q.Q.Q.Q.Q.Q.Q.Q.Q.Q.Q.Q.Q.Q.Q.Q.Q.Q.Q.",
"Q.Q.Q.Q.Q.Q.Q.Q.Q.Q.Q.Q.Q.Q.Q.Q.Q.Q.Q.Q.Q.Q.Q.Q.Q.Q.Q.Q.Q.Q.Q.Q.Q.Q.Q.Q.Q.Q.Q.Q.Q.Q.Q.Q.Q.Q.Q.Q.Q.Q.Q.Q.Q.Q.Q.Q.Q.Q.Q.Q.Q.Q.Q.Q.",
"Q.Q.Q.Q.Q.Q.Q.Q.Q.Q.Q.Q.Q.Q.Q.Q.Q.Q.Q.Q.Q.Q.Q.Q.Q.Q.Q.Q.Q.Q.Q.Q.Q.Q.Q.Q.Q.Q.Q.Q.Q.Q.Q.Q.Q.Q.Q.Q.Q.Q.Q.Q.Q.Q.Q.Q.Q.Q.Q.Q.Q.Q.Q.Q.",
"Q.Q.Q.Q.Q.Q.Q.Q.Q.Q.Q.Q.Q.Q.Q.Q.Q.Q.Q.Q.Q.Q.Q.Q.Q.Q.Q.Q.Q.Q.Q.Q.Q.Q.Q.Q.Q.Q.Q.Q.Q.Q.Q.Q.Q.Q.Q.Q.Q.Q.Q.Q.Q.Q.Q.Q.Q.Q.Q.Q.Q.Q.Q.Q.",
"Q.Q.Q.Q.Q.Q.Q.Q.Q.Q.Q.Q.Q.Q.Q.Q.Q.Q.Q.Q.Q.Q.Q.Q.Q.Q.Q.Q.Q.Q.Q.Q.Q.Q.Q.Q.Q.Q.Q.Q.Q.Q.Q.Q.Q.Q.Q.Q.Q.Q.Q.Q.Q.Q.Q.Q.Q.Q.Q.Q.Q.Q.Q.Q.",
"Q.Q.Q.Q.Q.Q.Q.Q.Q.Q.Q.Q.Q.Q.Q.Q.Q.Q.Q.Q.Q.Q.Q.Q.Q.Q.Q.Q.Q.Q.Q.Q.Q.Q.Q.Q.Q.Q.Q.Q.Q.Q.Q.Q.Q.Q.Q.Q.Q.Q.Q.Q.Q.Q.Q.Q.Q.Q.Q.Q.Q.Q.Q.Q.",
"Q.Q.Q.Q.Q.Q.Q.Q.Q.Q.Q.Q.Q.Q.Q.Q.Q.Q.Q.Q.Q.Q.Q.Q.Q.Q.Q.Q.Q.Q.Q.Q.Q.Q.Q.Q.Q.Q.Q.Q.Q.Q.Q.Q.Q.Q.Q.Q.Q.Q.Q.Q.Q.Q.Q.Q.Q.Q.Q.Q.Q.Q.Q.Q.",
"Q.Q.Q.Q.Q.Q.Q.Q.Q.Q.Q.Q.Q.Q.Q.Q.Q.Q.Q.Q.Q.Q.Q.Q.Q.Q.Q.Q.Q.Q.Q.Q.Q.Q.Q.Q.Q.Q.Q.Q.Q.Q.Q.Q.Q.Q.Q.Q.Q.Q.Q.Q.Q.Q.Q.Q.Q.Q.Q.Q.Q.Q.Q.Q.",
"Q.Q.Q.Q.Q.Q.Q.Q.Q.Q.Q.Q.Q.Q.Q.Q.Q.Q.Q.Q.Q.Q.Q.Q.Q.Q.Q.Q.Q.Q.Q.Q.Q.Q.Q.Q.Q.Q.Q.Q.Q.Q.Q.Q.Q.Q.Q.Q.Q.Q.Q.Q.Q.Q.Q.Q.Q.Q.Q.Q.Q.Q.Q.Q."
};
