/* XPM */
static const char *debris_large[] = {
/* columns rows colors chars-per-pixel */
"64 64 189 2 ",
"   c #2F2E22",
".  c #302E22",
"X  c #302F23",
"o  c #312F23",
"O  c #313023",
"+  c #323024",
"@  c #323124",
"#  c #333124",
"$  c #333125",
"%  c #333225",
"&  c #343125",
"*  c #343225",
"=  c #343226",
"-  c #343326",
";  c #353326",
":  c #353327",
">  c #363327",
",  c #363427",
"<  c #373427",
"1  c #363428",
"2  c #373428",
"3  c #373528",
"4  c #373529",
"5  c #373629",
"6  c #383528",
"7  c #383628",
"8  c #383629",
"9  c #393629",
"0  c #393729",
"q  c #39362A",
"w  c #39372A",
"e  c #3A372A",
"r  c #3A382A",
"t  c #3A382B",
"y  c #3B382B",
"u  c #3A392B",
"i  c #3B392B",
"p  c #3B392C",
"a  c #3C392C",
"s  c #3C3A2C",
"d  c #3D3A2C",
"f  c #3C3A2D",
"g  c #3D3A2D",
"h  c #3D3B2D",
"j  c #3E3B2D",
"k  c #3D3B2E",
"l  c #3E3B2E",
"z  c #3E3C2E",
"x  c #3F3C2E",
"c  c #3F3C2F",
"v  c #3F3D2F",
"b  c #403D2F",
"n  c #403E2F",
"m  c #413E2F",
"M  c #403D30",
"N  c #403E30",
"B  c #413E30",
"V  c #413F30",
"C  c #413E31",
"Z  c #413F31",
"A  c #423F31",
"S  c #424031",
"D  c #434031",
"F  c #424032",
"G  c #434032",
"H  c #434132",
"J  c #434133",
"K  c #444032",
"L  c #444132",
"P  c #444133",
"I  c #454133",
"U  c #444233",
"Y  c #454233",
"T  c #454333",
"R  c #454234",
"E  c #454334",
"W  c #464234",
"Q  c #464334",
"!  c #464335",
"~  c #474335",
"^  c #464435",
"/  c #474435",
"(  c #474436",
")  c #474536",
"_  c #484435",
"`  c #484535",
"'  c #484436",
"]  c #484536",
"[  c #494536",
"{  c #494537",
"}  c #494636",
"|  c #494637",
" . c #494737",
".. c #4A4637",
"X. c #4A4737",
"o. c #4B4737",
"O. c #4A4738",
"+. c #4B4738",
"@. c #4B4838",
"#. c #4B4839",
"$. c #4B4939",
"%. c #4C4838",
"&. c #4C4938",
"*. c #4C4839",
"=. c #4C4939",
"-. c #4D4939",
";. c #4D4A39",
":. c #4C493A",
">. c #4D493A",
",. c #4D4A3A",
"<. c #4D4A3B",
"1. c #4E4A3A",
"2. c #4E4B3A",
"3. c #4E4A3B",
"4. c #4E4B3B",
"5. c #4F4B3B",
"6. c #4F4C3B",
"7. c #4F4B3C",
"8. c #4F4C3C",
"9. c #504C3C",
"0. c #504D3D",
"q. c #514D3D",
"w. c #524D3D",
"e. c #514E3D",
"r. c #514D3E",
"t. c #524E3E",
"y. c #534F3E",
"u. c #534F3F",
"i. c #544F3F",
"p. c #54503F",
"a. c #555040",
"s. c #555140",
"d. c #565140",
"f. c #565241",
"g. c #575241",
"h. c #575242",
"j. c #575342",
"k. c #585342",
"l. c #595443",
"z. c #5A5543",
"x. c #5B5644",
"c. c #5B5645",
"v. c #5C5745",
"b. c #5C5746",
"n. c #5D5846",
"m. c #5D5847",
"M. c #5E5847",
"N. c #5E5947",
"B. c #5F5947",
"V. c #5F5A48",
"C. c #605A48",
"Z. c #605A49",
"A. c #605B49",
"S. c #615B49",
"D. c #615C49",
"F. c #625C49",
"G. c #615C4A",
"H. c #625C4A",
"J. c #625D4A",
"K. c #635D4A",
"L. c #635D4B",
"P. c #635E4B",
"I. c #645E4B",
"U. c #645F4B",
"Y. c #645E4C",
"T. c #645F4C",
"R. c #655F4C",
"E. c #655F4D",
"W. c #65604C",
"Q. c #65604D",
"!. c #66604C",
"~. c #66604D",
"^. c #66614D",
"/. c #67614D",
"(. c #66604E",
"). c #66614E",
"_. c #67614E",
"`. c #67624E",
"'. c #68624E",
"]. c #68624F",
"[. c #68634F",
"{. c #69634F",
"}. c #696350",
"|. c #696450",
" X c #6A6450",
".X c #6A6451",
"XX c #6B6551",
"oX c #6C6551",
"OX c #6C6652",
/* pixels */
"*.*.*.@.+.@.*.*.*.*.*.*.*.*.*.*.*.*.*.*.*.*.*.*.*.*.@.@.*.*.*.@.*.*.*.*.@.@.*.@.*.*.*.*.*.@.*.@.*.*.@.*.@.*.*.*.*.*.@.*.*.*.*.@.",
"*.*.@.@.@.@.*.@.*.@.*.*.*.*.*.*.*.@.*.*.*.*.*.*.*.*.@.*.*.*.*.*.*.*.*.@.*.*.*.*.*.@.@.*.*.*.*.*.*.*.*.*.@.*.*.*.*.*.*.*.*.*.*.*.",
"*.*.*.*.@.*.*.+.*.*.*.*.*.*.*.*.*.*.*.*.*.*.*.*.*.*.*.*.*.*.*.*.*.@.*.*.*.*.*.*.*.*.@.@.@.*.*.*.*.*.*.*.*.*.@.*.*.*.*.*.*.@.@.*.",
"*.*.*.*.@.@.*.@.@.*.*.*.*.*.*.*.*.*.@.*.*.*.*.*.*.*.*.*.*.*.@.*.*.@.*.*.@.@.*.*.@.*.*.*.@.*.*.*.*.*.*.*.*.*.*.*.@.*.*.*.+.@.*.*.",
"*.*.*.*.@.@.*.@.@.*.*.*.*.*.*.*.*.*.*.*.*.*.*.*.*.*.*.*.*.*.@.*.*.*.*.*.*.*.*.*.*.*.*.*.@.*.*.*.*.*.*.@.*.*.*.*.@.@.*.*.@.@.*.@.",
"*.*.*.*.@.[ [ [ *.*.*.*.*.*.*.*.*.*.*.*.*.*.*.*.*.*.*.*.*.*.*.*.*.*.*.*.*.@.*.*.@.*.*.@.*.*.*.@.@.*.*.*.*.*.@.+.@.*.@.*.@.@.*.*.",
"*.*.*.*.@.[ ( ( @.*.*.*.*.*.*.*.*.*.@.*.@.*.*.*.*.*.*.*.*.*.*.*.*.*.*.*.*.@.*.*.*.*.*.*.*.*.*.*.@.*.*.*.*.@.+.@.@.@.*.*.*.*.*.*.",
"*.*.*.*.@.[ [ [ @.*.*.*.*.*.*.*.*.8.*.*.*.*.8.*.*.*.*.*.*.*.*.@.@.*.*.*.*.*.+.@.*.@.@.*.*.*.*.*.*.*.*.*.*.*.+.[ +.@.@.@.*.*.@.*.",
"*.@.*.*.@.@.+.+.@.*.@.*.*.*.*.*.[ d r r d d d d ( U d d ( *.*.*.@.*.*.*.*.@.@.@.@.*.@.+.*.*.*.*.*.*.*.*.*.@.@.+.[ [ +.@.*.@.*.*.",
"*.@.*.*.*.*.*.*.@.@.*.*.*.*.*.*.~ , , , , , , - G b - 3 N +.[ +.+.*.*.*.*.*.@.*.*.*.*.*.@.*.*.*.*.*.*.*.*.*.*.[ ~ U ( *.*.*.*.@.",
"*.*.*.*.*.*.@.*.*.@.*.*.*.*.0.c d E.P.P.P.I.m.*.@ U Q.E.G   @ ~ *.*.*.*.*.*.*.*.*.*.*.@.@.*.*.*.*.*.*.@.@.*.*.+.( ~ ~ @.@.*.*.@.",
"*.*.*.*.*.*.@.*.@.*.*.*.*.*.U N [ Q.Q.Q.Q.Q.P.b.*.k.}.].s.*.G G ~ *.@.@.@.*.*.*.*.*.@.*.*.*.*.*.*.*.*.@.@.@.*.+.+.[ [ +.@.@.*.@.",
"*.*.*.*.@.*.*.*.*.*.*.*.*.@.3 ~ l.E.Q.Q.Q.Q.Q.].XXXXQ.Q.Q.E.0.b p *.*.*.*.@.@.@.*.*.*.@.*.@.*.@.*.*.*.*.*.*.*.@.@.@.@.@.*.*.*.*.",
"*.*.*.*.*.*.*.*.*.*.*.7.N r 7.b.E.Q.Q.Q.Q.Q.Q.Q.Q.Q.E.z.V.E.E.N e 8.*.*.*.@.*.*.@.*.*.*.d @ - U *.*.*.*.*.*.*.*.@.*.@.@.*.@.*.*.",
"*.*.*.*.*.*.*.*.*.*.+.G b ~ m.P.Q.Q.Q.Q.Q.Q.Q.Q.Q.Q.Q.A.E.Q.Q.s.[ N [ @.+.*.*.*.@.*.+.G ( +.+.U N G @.*.*.*.*.*.@.*.*.@.@.@.*.*.",
"*.@.*.*.*.*.*.*.*.@.( - N s.P.Q.Q.Q.Q.Q.Q.Q.Q.Q.Q.].Q.Q.].Q.Q.XXz.- [ *.+.*.*.*.@.*.[ - l.XXXX[ - e [ *.@.@.*.*.@.*.@.@.*.@.*.*.",
"*.*.*.*.*.*.*.*.*.[ N - p ~ ( m.XXQ.Q.Q.Q.Q.].].].].].Q.Q.Q.Q.].s.- [ *.@.*.*.*.*.N r *.A.Q.E.P.b.0.d c *.*.*.@.*.*.*.*.*.*.*.*.",
"*.*.*.*.*.*.*.*.*.~ N - d U N s.P.V.E.Q.Q.Q.Q.P.Q.].Q.Q.Q.Q.Q.].z.U U [ *.*.*.@.@.d e 0.z.P.Q.Q.E.b.[ N U *.*.*.*.*.*.*.*.*.*.*.",
"*.*.*.*.*.*.*.*.*.[ N - d U G [ 0.7.m.].E.Q.A.s.Q.].Q.Q.Q.Q.Q.].].XXd r *.*.*.[ ~ r e ~ *.l.Q.E.E.Q.XXs.e *.*.@.*.@.*.*.*.*.*.*.",
"*.*.*.*.*.*.*.*.*.[ G - d ~ G ~ ( ~ N *.XX].E.P.Q.Q.Q.Q.Q.I.z.p.*.*.3 d *.*.*.[ e d N G ~ @.0.P.].Q.s.~ e +.*.@.*.*.*.*.*.*.*.*.",
"*.*.*.*.*.*.*.*.*.( U e d b N G N N 3 r k.m.P.Q.Q.Q.Q.E.Q.P.*.*.[ ~ 3 d *.*.*.~ - p G G G G ~ p.m.m.*.N e [ *.*.*.*.*.*.*.*.*.*.",
"*.*.*.*.*.*.*.*.*.~ G ~ e @ r N U c e - - *.b.Q.E.Q.Q.Q.XXA.~ *.*.*.e d *.*.[ N - d U G G U U d N +.[ G e +.*.*.*.*.*.*.*.*.*.*.",
"*.*.*.*.*.*.*.*.*.[ [ U N d - c ~ N r r N ( p.].Q.].Q.s.s.0.~ [ [ @.3 d *.*.[ U N e e U ( G G ( +.*.c , - [ *.*.*.@.*.*.*.*.*.*.",
"*.*.*.*.*.*.*.*.*.*.*.~ ( G 3 c G G d d U G *.P.A.P.m.*.+.[ [ ( ~ *.3 d *.*.+.~ ~ e - b G N d [ @.[ r - r +.*.*.*.*.*.*.*.*.*.*.",
"*.*.*.*.*.*.*.*.*.*.*.*.~ G ~ r @ @ r G ~ U G ~ *.( G +.*.*.*.[ [ *.3 d *.*.*.*.~ G d X @ - - ~ [ @ c [ *.*.*.*.*.*.*.*.*.*.*.*.",
"*.*.*.*.*.*.*.*.*.*.*.*.[ ( [ N d d e d ~ ~ U U *.+.U +.*.*.*.N p d b [ *.*.*.*.[ ( G d d r - e d c ~ +.*.*.*.*.*.*.*.*.*.*.*.*.",
"*.*.*.*.*.*.*.*.*.*.*.*.@.@.*.[ ~ ~ r 3 U ~ U U *.*.@.@.+.[ [ d @ - +.0.*.*.*.@.*.[ ( ~ [ G , @ e ~ *.*.@.*.*.*.*.*.*.*.*.*.*.*.",
"*.*.*.*.*.*.*.*.*.*.*.*.7.*.*.*.[ U ~ c , - r ~ *.8.@.~ +.( - c ~ @.*.*.*.*.*.*.6.*.*.@.*.*.@.*.*.+.*.*.*.*.*.*.*.*.*.*.*.@.*.*.",
"*.*.*.*.*.*.*.*.*.*.@.b c c d [ *.[ ( N r d d d N [ +.d d c d U [ *.*.*.*.*.U c b c N *.*.*.*.*.*.*.*.*.*.*.*.*.*.*.*.*.*.@.*.*.",
"*.*.*.*.*.*.*.*.*.*.[ , - - @ N *.@.~ G ~ ~ b - - N [ 3 - r ~ +.*.*.*.*.@.*.b - , - e *.*.*.*.*.*.*.*.*.*.*.*.*.*.*.*.*.*.@.*.@.",
"*.*.*.*.*.*.*.*.*.U r 0.A.P.E.[ r *.@.+.@.~ U N - - r N ( @.+.*.*.*.*.*.*.e *.P.A.P.z.3 ~ 0.*.*.*.*.*.*.[ @.@.*.*.*.*.*.*.*.*.*.",
"*.*.*.*.*.*.*.*.*.N 3 0.l.b.E.[ 3 *.*.*.*.+.[ ( d d c ~ [ *.*.*.*.*.*.[ G U s.].Q.}.P.( ~ ~ *.*.*.*.*.*.p.*.@.@.@.*.*.*.*.*.*.*.",
"*.*.*.*.*.*.*.*.*.N , [ [ [ z.G e *.*.*.*.*.*.*.*.*.*.*.*.*.*.*.*.*.0.G - P.Q.P.E.Q.Q.OX[ - *.*.*.*.*.s.Q.8.*.*.*.*.*.*.*.*.*.*.",
"*.*.*.*.*.*.*.*.*.( N e e e r N +.*.*.*.*.*.*.*.*.*.*.*.*.*.*.*.*.*.d c G [ *.s.E.Q.Q.XX[ 3 *.*.*.*.c r c [ *.*.*.*.*.*.*.*.*.*.",
"*.*.*.*.*.*.*.*.*.+.U e , 3 3 ~ 8.*.+.[ ~ ( [ [ [ @.*.*.*.*.*.*.*.*.e r [ G ~ 0.E.P.m.m.U e *.*.*.*.d 3 e +.*.*.*.*.*.*.*.*.*.*.",
"*.*.*.*.*.*.*.*.*.*.[ ~ ~ U *.*.*.*.~ d @ - - , - N 0.*.*.*.*.*.*.*.e r ~ U N ~ P.l.[ N r e *.*.*.*.*.*.*.*.*.*.*.*.*.*.*.*.*.*.",
"*.*.*.*.*.*.*.*.*.*.*.@.@.@.*.*.+.d , c b.z.b.l.b.*.e r e c *.*.*.~ N d , , d ~ [ *.*.*.c e *.*.*.*.*.*.*.*.*.*.@.*.*.*.*.*.*.*.",
"*.*.*.*.*.*.*.*.*.*.*.*.*.*.*.[ U b b *.XX].].Q.XXk.d b d N [ +.@.U ~ c 3 - d U N [ *.( c r *.*.*.*.*.*.*.*.*.*.*.*.*.*.*.*.*.*.",
"*.*.*.*.*.*.*.*.*.*.*.*.*.@.0.d e 0.P.].Q.Q.Q.Q.E.Q.Q.Q.Q.b.- U *.*.( U G @ r ~ U *.[ @ c ~ @.*.*.*.*.*.*.*.*.*.*.*.*.*.*.*.*.*.",
"*.*.*.*.*.*.*.*.*.*.*.*.*.@.c G *.A.P.Q.Q.Q.Q.Q.Q.Q.E.E.Q.P.*.N N *.@.( N d r r r d c d ~ @.*.*.*.*.*.*.*.*.*.*.*.*.*.*.*.*.*.*.",
"*.*.*.*.*.*.*.*.*.*.*.*.*.+.- ~ s.A.E.Q.Q.Q.Q.Q.Q.Q.Q.E.I.P.A.c e 8.*.@.~ ~ d - - @ e ( *.*.*.@.[ *.*.*.*.*.*.*.*.*.*.*.*.*.*.*.",
"*.*.*.*.*.*.*.*.*.*.*.*.+.G - c ~ G b.XX].].Q.Q.E.Q.Q.].s.@.*.d r *.*.*.@.U U G G G U *.*.*.*.d O @ [ *.@.*.*.*.*.*.*.*.*.*.*.*.",
"*.*.*.*.*.*.*.*.*.*.*.*.G d d N U N *.s.0.m.E.Q.Q.Q.I.s.8.[ [ e r *.*.*.*.[ +.[ [ [ @.*.*.@.c +.0.*.U ~ *.*.*.@.*.*.*.*.*.*.*.*.",
"*.*.*.*.*.*.*.*.*.*.*.+.p - ~ U G G c N N s.A.P.E.Q.A.G +.+.~ e r *.*.*.*.*.*.*.*.*.*.*.*.[ @ s.].Q.b d *.*.*.@.*.*.*.*.*.*.*.*.",
"@.+.*.@.*.*.*.*.*.*.@.( e - ( ( G G G G U ( ( [ P.V.*.~ *.*.8.r e *.*.*.*.@.@.*.*.@.*.8.N e N [ *.s.d d *.*.*.*.*.*.*.*.*.*.*.*.",
"*.+.*.*.*.*.*.*.*.*.@.( c r d d d c G U U G G U l.s.@.[ *.[ U r d *.*.*.*.p.0.*.*.*.*.*.N r d d b ~ G ~ *.*.*.*.*.*.*.*.*.*.*.*.",
"*.+.*.*.*.*.@.*.@.*.*.( [ G @ @ - e N U ~ U U ~ @.*.*.@.+.b - c ~ @.*.*.*.P.z.@.*.*.*.*.+.G - @ - - [ *.@.*.*.*.*.*.*.*.*.*.*.*.",
"@.*.*.*.*.@.*.*.*.*.*.*.[ G N G N - - e U U G U *.*.@.r e e N [ @.*.*.U e d U *.*.*.*.*.*.[ G G U [ *.@.*.*.@.*.*.@.*.*.*.*.*.*.",
"@.@.*.*.*.@.*.*.@.*.*.*.[ ~ [ [ G e 3 e c N b b [ [ G p p b +.*.*.*.*.~ r e U *.@.*.*.*.*.*.[ [ [ *.*.@.*.*.@.*.*.@.*.*.*.*.*.*.",
"@.@.@.*.*.*.*.*.*.*.*.*.*.*.*.[ U G G c @ @ @ @ N d - G *.*.*.*.*.*.*.*.*.*.*.*.*.*.*.*.*.*.*.*.*.*.*.*.@.@.*.*.@.*.*.*.*.*.*.*.",
"*.*.*.*.*.*.*.*.*.*.*.*.*.*.*.*.+.[ ~ N d d d d e r N ( *.*.*.*.*.*.*.*.*.*.*.[ d d c *.*.*.*.*.*.*.*.*.*.@.@.*.*.*.*.*.*.*.*.*.",
"*.*.@.*.*.*.*.*.*.*.*.*.*.*.*.*.*.*.[ U ~ ( ~ G e c +.*.*.*.*.*.*.*.*.*.*.*.@.~ d c N ( +.*.*.*.*.*.*.*.*.*.*.*.*.@.*.*.*.*.*.*.",
"*.*.*.*.*.*.*.*.*.*.*.*.*.*.*.*.*.*.*.*.*.*.( G U [ *.*.*.*.*.*.*.*.*.*.*.6.d r Q.}.m.- U *.*.*.*.*.*.*.*.*.@.@.*.*.@.*.*.*.*.*.",
"*.*.@.*.*.*.*.*.*.*.*.*.*.*.[ *.*.*.*.*.*.*.@.[ [ *.*.*.*.*.*.*.*.*.*.*.*.@.N c *.*.+.c ( *.*.*.*.*.*.*.*.*.@.@.*.*.*.*.*.*.*.*.",
"*.*.@.*.*.*.*.*.*.*.*.@.*.@.~ @.*.*.*.*.*.*.*.*.*.*.*.*.*.*.*.*.*.*.*.*.*.( ~ N @ X , U [ *.*.*.*.*.@.*.*.*.*.@.*.*.@.*.*.*.*.@.",
"*.*.*.*.*.*.*.*.*.*.*.*.*.*.*.*.*.*.*.*.*.*.*.*.*.*.*.*.*.*.*.*.*.*.*.*.*.*.@.[ G ( [ [ *.*.*.*.*.*.*.*.@.*.*.*.*.@.*.*.*.*.*.*.",
"*.*.*.*.*.*.*.*.*.*.*.*.*.*.*.*.*.*.*.*.*.*.*.*.*.*.@.*.*.*.*.*.*.*.*.@.+.*.*.*.[ *.*.@.*.*.*.*.*.*.*.*.*.*.*.*.*.*.*.*.*.*.*.*.",
"*.@.*.@.*.*.@.*.*.*.*.*.*.*.*.*.*.*.*.*.*.*.*.*.*.*.@.*.*.*.@.@.*.*.*.[ [ @.*.*.*.*.*.*.*.*.*.*.*.@.*.*.@.@.*.*.@.*.*.*.*.@.@.@.",
"*.*.@.*.*.+.+.@.*.*.*.*.*.*.*.*.*.*.*.*.*.*.*.*.*.*.*.*.*.*.@.@.@.*.*.@.*.@.@.*.@.*.*.*.*.*.*.*.@.*.*.*.*.@.@.@.*.*.*.*.*.@.*.*.",
"*.*.@.*.*.*.@.@.@.*.@.*.@.@.*.*.*.*.@.*.*.*.*.*.*.@.@.*.*.*.*.*.@.@.@.*.*.+.*.@.@.*.*.@.*.@.*.*.@.@.*.*.*.@.*.@.@.@.*.*.@.@.@.*.",
"*.+.@.+.*.@.@.*.@.@.*.*.*.@.*.*.*.*.*.*.*.*.*.*.*.@.*.*.*.*.*.@.*.@.@.@.@.@.*.@.@.*.@.*.*.*.*.*.*.@.@.*.@.@.@.@.*.*.@.@.@.*.*.*.",
"@.@.*.*.@.@.@.*.*.*.@.*.*.@.*.*.*.*.*.*.@.@.*.@.@.@.*.@.@.@.*.*.@.*.@.@.*.@.@.*.@.@.@.*.*.*.*.*.[ *.*.@.@.@.@.@.*.*.@.@.*.*.@.@.",
"@.@.*.*.*.*.@.@.@.*.@.*.*.*.*.*.*.*.@.*.@.@.*.*.*.@.@.*.*.*.*.*.@.o.*.*.[ [ @.*.*.*.@.*.*.*.*.@.+.@.*.*.@.@.*.@.@.*.@.*.*.@.@.@.",
"@.@.*.*.*.@.*.*.@.*.*.@.*.*.@.@.*.@.@.@.[ [ @.@.*.*.*.@.*.*.*.*.*.*.*.*.*.@.*.*.*.*.*.*.+.+.*.@.@.+.*.*.@.@.*.@.@.*.*.*.@.@.*.*."
};
