/* XPM */
static const char *debris_small[] = {
/* columns rows colors chars-per-pixel */
"64 64 139 2 ",
"   c #302C20",
".  c #312E22",
"X  c #322E22",
"o  c #322F22",
"O  c #322F23",
"+  c #332F23",
"@  c #333023",
"#  c #343024",
"$  c #343124",
"%  c #353124",
"&  c #353125",
"*  c #353225",
"=  c #363225",
"-  c #363226",
";  c #363326",
":  c #373326",
">  c #373327",
",  c #373427",
"<  c #383427",
"1  c #383527",
"2  c #393528",
"3  c #393628",
"4  c #3A3628",
"5  c #3A3629",
"6  c #3A3729",
"7  c #3B3729",
"8  c #3B372A",
"9  c #3B382A",
"0  c #3C382A",
"q  c #3C382B",
"w  c #3D382B",
"e  c #3C392B",
"r  c #3D392B",
"t  c #3D3A2B",
"y  c #3D3A2C",
"u  c #3E3A2C",
"i  c #3F3A2C",
"p  c #3F3B2C",
"a  c #3E3B2D",
"s  c #3F3B2D",
"d  c #403B2D",
"f  c #403C2D",
"g  c #403C2E",
"h  c #413C2E",
"j  c #413D2E",
"k  c #413D2F",
"l  c #423D2F",
"z  c #423E2F",
"x  c #423E30",
"c  c #433E30",
"v  c #433F30",
"b  c #443F30",
"n  c #443F31",
"m  c #444031",
"M  c #454031",
"N  c #454131",
"B  c #454032",
"V  c #454132",
"C  c #464132",
"Z  c #464232",
"A  c #464233",
"S  c #474233",
"D  c #474333",
"F  c #474334",
"G  c #484333",
"H  c #484334",
"J  c #484434",
"K  c #494434",
"L  c #494534",
"P  c #494435",
"I  c #494535",
"U  c #4A4535",
"Y  c #4A4635",
"T  c #4A4536",
"R  c #4A4636",
"E  c #4B4636",
"W  c #4B4736",
"Q  c #4B4637",
"!  c #4B4737",
"~  c #4C4737",
"^  c #4C4837",
"/  c #4D4837",
"(  c #4C4838",
")  c #4D4838",
"_  c #4E4938",
"`  c #4E4939",
"'  c #4E4A39",
"]  c #4F4A39",
"[  c #4F4A3A",
"{  c #504B3A",
"}  c #504B3B",
"|  c #514C3B",
" . c #524C3B",
".. c #524C3C",
"X. c #524D3C",
"o. c #534E3D",
"O. c #544E3D",
"+. c #544F3D",
"@. c #544F3E",
"#. c #55503E",
"$. c #565140",
"%. c #575140",
"&. c #575240",
"*. c #585341",
"=. c #595341",
"-. c #595442",
";. c #5A5442",
":. c #5A5542",
">. c #5B5543",
",. c #5C5644",
"<. c #5D5744",
"1. c #5D5745",
"2. c #5E5845",
"3. c #5E5846",
"4. c #5F5946",
"5. c #5F5A47",
"6. c #605946",
"7. c #605947",
"8. c #605A47",
"9. c #615B48",
"0. c #625B48",
"q. c #625C49",
"w. c #635D49",
"e. c #645E4A",
"r. c #655E4A",
"t. c #645E4B",
"y. c #655E4B",
"u. c #655F4B",
"i. c #665F4B",
"p. c #655F4C",
"a. c #66604B",
"s. c #66604C",
"d. c #67604C",
"f. c #67614C",
"g. c #67604D",
"h. c #67614D",
"j. c #68614D",
"k. c #69624D",
"l. c #69624E",
/* pixels */
"U U U U U U U U U U U U U U U U U U U U U U U U U U U U U U U U U U U U U U U U U U U U U U U U U U U U U U U U U U U U U U U U ",
"U U U U U U U U U U U U U U U U U U U U U U U U U U U U U U U U U U U U U U U U U U U U U U U U U U U U U U U U U U U U U U U U ",
"U U U U U U U U U U U U U U U U U U U U U U U U U U U U U U U U U U U U U U U U U U U U U U U U U U U U U U U U U U U U U U U U ",
"U U U U U U U U U U U U U U U U U U U U U U U U U U U U U U U U U U U U U U U U U U U U U U U U U U U U U U U U U U U U U U U U ",
"U U U U U U U U U U U U U U U U U U U U U U U U U U U U U U U U U U U U U U U U U U U U U U U U U U U U U U U U U U U U U U U U ",
"U U U U U S S S U U U U U U U U U U U U S U U U U U U U U U U U U U U U U U U U U U U U U U U S H U U U U U U U U U U U U U U U ",
"U U U U U S S S U U U U U U U U U U U U S S G U U U U U U U U U U U U U U U U U U U U U U U H H H U U U U U U U U U U U U U U U ",
"U U U U U S S S U U U U U U U U U U U U U H U U U U U U U U U U U U U U U U H U U U U U U U U U U U U U U U U U U U U U U U U U ",
"U U U U U U H H U U U U U U U U U U U U U U U U U U U U U U U U U U U U U U U S l l l l S U U U U U U U U U U U S S F U U U U U ",
"U U U U U U U U U U U U U U U U U U U U U U U U U U U U U U U U U U U U U U U S @ * * * l ~ U U U U U U U U U S S v S U U U U U ",
"U U U U U U U U U U U U U U U U U U S S U U U U U H U U U U U U U U U U U U l a o.| | | v 5 a U U U U U U U U H S b S U U U U U ",
"U U U U U U U U U U U U U U U H H &.*.o.H U U U H U U U U U U U U U U U U U w w l.d.t.d.G * < S U U U U U U U U H S S U U U U U ",
"U U U U U U U U U U U U U U U S H d.l.4.H U U U U U U U U U U U U U U U S @ l } t.t.t.t.q.1.| 5 a ~ U U U U U U U U U U U U U U ",
"U U U U U U U U U U U U U U U l a } | [ U U U U U U U U U U U U U U U S a l } ,.t.t.d.a.t.q.1.| U l U U U U U U U U U U U U U U ",
"U U U U U U U U U U U U U U U a * w w l U U U U U U U U U U U U U U U 5 * +.1.t.t.t.a.d.t.t.t.l.+.# F U U U U U U U U U U U U U ",
"U U U U U U U U U U U U U U U F S H H U U U U U U U U G U U U U U U S * * +.+.*.d.d.d.d.>.*.t.o.S * S U U U U U U U U U U U U U ",
"U U U U U U U U U U U U U U U U U U U U U U U U U U U o.o.| U U U U a , 5 [ [ } >.1.8.t.1.>.t.[ a * S U U U U U U U U U U U U U ",
"U U U U U U U U U U U U U U U U U U U U U U U U U U U t.d.1.U U U U . 5 S S v l l U #.t.t.q.8.S 9 * S U U U U U U U U U U U U U ",
"U U U U U U U U U U U U U U U U U U U U U U U U U l 5 +.*.&.U U U U l 5 * * a S S S F U o.| w * 5 S U U U U U U U U U U U U U U ",
"U U U U U U U U U U U [ } [ S H U U U U U U U U ~ l * S U ~ U U U H b w * * w l a a a a S S * * a U U U U U U U U U U U U U U U ",
"U U U U U U U U U H U 9.p.4.* l U U U U U U U U U S a . . w U U U U U S l S 5 . @ . . * . * v U U U U U U U U U U U U U U U U U ",
"U U U U U U U U U l 5 [ [ H * l U U U U U U U U U U S v v S U U U U U U S S l w a a w w l v S U U U U U U U U U U U U U U U U U ",
"U U U U U U U U U a * a a w < v U U U U U S S S U U U ~ ~ U U U U U U U U U S S S v b S U U U U U U U U U U U [ U U U U U U U U ",
"U U U U U U U U U U S * . 5 U U U U U U U 5 @ * U U U U U U U U U U U U U U U U U U U U U U U U U U U U U [ >.4.U U U U U U U U ",
"U U U U U U U U U U U v l S U U U U U S w [ o.o.a v U U U U U U U U U U U U U U U U U U U U U U U U U U H w l S U U U U U U U U ",
"U U U U U U U U U U U U U U U U U U U b . *.t.4.< w U U U U U U U [ U U U U U U U U U U U U U U U U U U S * * < U U U U U U U U ",
"U U U U U U U U U U U U U U U U U U U l . H [ U * a U U U U U S } 9.~ U U U U U U U U U U U S S U U U U U U U U U U U U U U U U ",
"U U U U U U U U U U U U U U U U U U U S w a a a l S U U U U U w l [ U U U U U U U U U U H U &.*.} U U U U U U U U U U U U U U U ",
"U U U U U U U U U U U U U U U U U U U H v 5 * < U ~ U U U U U 5 5 a S U U U U U U U U U v H 8.4.o.U U U U U U U U U U U U U U U ",
"U U U U U U U U U U U U U U U U U U U U U U U U U U U U U U U U U U U U U U U U U U U U 5 5 [ l S U U U U U U U U U U U U U U U ",
"U U U U U U U U U U U U U U U U U U U U U U U U U U U U U U U U U U U U U U U U U U U U v v / v S U U U U U U U U U U U U U U U ",
"U U U U U U U U U U U U U U U U U U U U U U U U U U U U U U U U U U U U U U U U U U U U U U U U U U U U U U U U U U U U U U U U ",
"U U U U U U U U U U U U U U v o.1.U U U U U U U U U U U U U U U U U U U S @ . . . l ~ U U U U U U U ~ U U U U U U U U U U U U U ",
"U U U U U U U U U U U U U U w U &.U U U U U U U U U U U U U U U U U U S a w a l S l l U U U U U U U v U o.U U U U U U U U U U U ",
"U U U U U U U U U U U U U S * 9 S U U U U U U U U U U U U U U U U U U w < } >.t.d.S * U U U U U U U * S 8.U U U U U U U U U U U ",
"U U U U U U U U U U U U U U F U U U U U U U U U U U U &.[ U U U U U S 5 * S U [ S 5 * U U U U U U U l 5 < U U U U U U U U U U U ",
"U U U U U U U U U U U U U U U U U U U U U U U U U U U } / U U U U U S l 5 < w a 9 w a U U U U U U U S l w U U U U U U U U U U U ",
"U U U U U U U U U U U U U U U U U U U U U U U U U U H a S U U U U U U S l . . . . v ~ U U U U U U U U U U U U U U U U U U U U U ",
"U U U U U U U U U U U U U U U U U U U U U U U U U U U S U U U U U U U U S l a a S U U U U U U U U U U U U U U U U U U U U U U U ",
"U U U U U U U U U U U U U U U S l l s S U U U U U U U U U U U U U U U U U S S S U U U U U U U U U U U U U U U U U U U U U U U U ",
"U U U U U S S S U U U U U U U w . * . 5 U U U U U U U U U U U U U U U U U U U U U U U U U U U U U U U U U U U U U U U U U U U U ",
"U U U U U S v S U U U U U S * l [ >.4.+.< F U U U U U U U U U U U U U U U U U U U U U U U U U U U U U U U U U U U U U U U U U U ",
"U U U U U S S S U U U U H l . l } &.1.+.@ S U U U U U U U U H [ ~ U U U U U U U U U U U U U U [ [ U U U U U U U U U U U U U U U ",
"U U U U U U U U U U U ~ l * . w v a S S * S U U U U U U U U S 1.*.G U U U U U U U U U U U U S 4.*.U U U U U U U U U U U U U U U ",
"U U U U U U U U U U U U S l l 5 * < < w v U U U U U U U U S < a l U U U U U U U U U U U U S < a S U U U U U U U U U U U U U U U ",
"U U U U U U U U U U U U U U S 5 . * * 5 U U U U U U U U U S * * 5 U U U U U U U U U U U U v * * a U U U U U U U U U U U U U U U ",
"U U U U U U U U U U U U U U H S l l S U U U U U U U U U U U U U U U U U U U U U U U U U U H S U U U U U U U U U U U U U U U U U ",
"U U U U U U U U U U U U U U U H S S U U U U U U U U U U U U U U U U U U U *.} U U U U U U U U U U U U U U U U U U U U U U U U U ",
"U U U U U U U U U U U U U U U U U U U U U U U U U U U U U U U U U U U U U >.o.U U U U U U U U U U U U U U U U U U U U U U U U U ",
"U U U U U U U U U U U U U U U U U U U U U U U U U U U U U U U U U U U U U l S U U U U U U U U U U U U S l v S U U U U U U U U U ",
"U U U U U U U U U U U U U U U U U U U U U U U U S H U U U U U U U U U U U S U U U U U U U U U U U U U S v v S U U U U U U U U U ",
"U U U U U U U U U U U U U U U U U U U U U U U U S H U U U U U U U U U U S U U U U U U U U U U U U U U G S S S U U U U U U U U U ",
"U U U U U U U U U U U U U U U U U U U U U U U U U U U U U U U U U U U U U U U U U U U U U U U U U U U U U U U U U U U U U U U U ",
"U U U U U U U U U U U U U U S U U U U U U U U U U U U U U U U U U U U U U U U U U U U U U U U U U U U U U U U U U U U U U U U U ",
"U U U U U U U U U U U U U U v S U U U U U U U U U U U U U U U U U U U U U U U U U U U U U U U U U U U U U U U U U U U U U U U U ",
"U U U U U U U U U U U U U U U U U U U U U U U U U U U U U U U U U U U U U U U U U U U U U U U U U U U U U U U U U U U U U U U U ",
"U U U U U U U U U U U U U U U U U U U U U U U U U U U U U U U U U U U U U U U U U U U U U U U U U U U U U U U U U U U U U U U U ",
"U U U U U U U U U U U U U U U U U U U U U U U U U U U U U U U U U U U S S U U U U U U U U U U U U U U U U U U U U U U U U U U U ",
"U U U U U U U U U U U U U U U U U U U U U U U U U U U U U U U U U U U U U U U U U U U U U U U U U U U U U U U U U U U U U U U U ",
"U U U U U U U U U U U U U U U U U U G U U U U U U U U U U U U U U U U U U S U U U U U U U U U U U U U U U U U U U U U U U U U U ",
"U U U U U U U U U U U U U U U U U U U U U U U U U U U U U U U S U U G G J U U U U U U U U U U U U U U U U U U U U U U U U U U U ",
"U U U U U U U U U U U U U U U U U U U U U U U U U U U U U G U U U U U U U U U U U U U U U U U U S U U U U U U U U U U U U U U U ",
"U U U U U U U U U U U U U U U U U U U U U U U U U U U U U U U U U J U U U G U U U U U U U U U U H U U U U U U U U U U U U U U U ",
"U U U U U U U U U U U U U U U U U U H U U G U U U U U U U U U U U U U U U U U U U U U U H U U U U G U U U U U U U U U U U U U U "
};
