/* XPM */
static const char *exit[] = {
/* columns rows colors chars-per-pixel */
"64 64 141 2 ",
"   c #010403",
".  c #060A07",
"X  c #080A07",
"o  c #050D0A",
"O  c #090E0B",
"+  c #04130C",
"@  c #0B120D",
"#  c #0C190E",
"$  c #12140F",
"%  c #051312",
"&  c #0D1412",
"*  c #0C1B13",
"=  c #141512",
"-  c #191617",
";  c #141B15",
":  c #1C1B16",
">  c #151C18",
",  c #1C1D19",
"<  c #16221A",
"1  c #1C231C",
"2  c #23231D",
"3  c #1B2421",
"4  c #232521",
"5  c #242B23",
"6  c #2C2B24",
"7  c #252E2A",
"8  c #2B2C28",
"9  c #312E27",
"0  c #332F29",
"q  c #2E3127",
"w  c #26342E",
"e  c #2B332B",
"r  c #393423",
"t  c #33332B",
"y  c #39352E",
"u  c #3A382F",
"i  c #2D3A34",
"p  c #313534",
"a  c #3C3730",
"s  c #333C34",
"d  c #3E3932",
"f  c #343D39",
"g  c #433C35",
"h  c #453F38",
"j  c #36433B",
"k  c #3B443C",
"l  c #3C483F",
"z  c #474036",
"x  c #4A4136",
"c  c #464139",
"v  c #4A443C",
"b  c #44483E",
"n  c #544837",
"m  c #584D36",
"M  c #514738",
"N  c #564A39",
"B  c #5A4D39",
"V  c #5E503B",
"C  c #63543D",
"Z  c #68573E",
"A  c #6C5A3F",
"S  c #75603F",
"D  c #3A4442",
"F  c #3D4B43",
"G  c #3F4E48",
"H  c #444741",
"J  c #4D4740",
"K  c #434D45",
"L  c #4C4B43",
"P  c #424F48",
"I  c #4B4D49",
"U  c #524C44",
"Y  c #435047",
"T  c #4C5145",
"R  c #435149",
"E  c #4C534A",
"W  c #4F594E",
"Q  c #545247",
"!  c #53534B",
"~  c #5B554D",
"^  c #53594E",
"/  c #5C584F",
"(  c #525751",
")  c #5C5750",
"_  c #575C53",
"`  c #5C5C53",
"'  c #645841",
"]  c #6E5D40",
"[  c #715E40",
"{  c #645E55",
"}  c #5C6056",
"|  c #5D625A",
" . c #746141",
".. c #7B6541",
"X. c #7F6843",
"o. c #666057",
"O. c #666259",
"+. c #686259",
"@. c #6A645B",
"#. c #6B645B",
"$. c #6B645C",
"%. c #6C665D",
"&. c #6D665D",
"*. c #6E685F",
"=. c #676962",
"-. c #6E6861",
";. c #6E6A61",
":. c #726B63",
">. c #736D65",
",. c #726F68",
"<. c #727164",
"1. c #76756A",
"2. c #78746B",
"3. c #7D776F",
"4. c #7E786E",
"5. c #7B7A70",
"6. c #816A43",
"7. c #836C44",
"8. c #836C45",
"9. c #846C44",
"0. c #886F46",
"q. c #8A7147",
"w. c #8B7248",
"e. c #827C72",
"r. c #878077",
"t. c #8A8279",
"y. c #89837B",
"u. c #8B857B",
"i. c #8C857C",
"p. c #8D867D",
"a. c #8F897F",
"s. c #90897F",
"d. c #928B81",
"f. c #938B81",
"g. c #948D83",
"h. c #968F85",
"j. c #979086",
"k. c #989187",
"l. c #989188",
"z. c #9B958B",
"x. c #9F988E",
/* pixels */
"d g g g g h g g g g g g g g g g g g g h g h h g g g g h g g g g g g g g h g g h g h h g g g g c h g g h h g h c h g h h g g c g ",
"d g d g g g g g g g g g h g d g g d g g g g g g g g g h g g g g h h g g g g g g g g g h h g g h g g h h h h h v h g h g g h h v ",
"g g v v g g g g g g h g g g g d c v g g g g g h g g h g g g g g g g g g g g h U g g g g g g g h g g h h g g h h g g g U v g c v ",
"g g 3.>.g h g g g d g g g g g d -.4.h g g g g h g h h g g h g g g g g g g g ~ t.J g h h g h h h g g h c g g c h h g J t.{ g Q U ",
"g g U J g g d g g g g d g g g g v U g g h h g g g g g g g h h g g g g g g g v Q h g h h h g h h d g g g g h h g g g c ~ v g J J ",
"g g g d g g g g g g g d g g g g d g g g g g g h g g g g g g g g g g d g g g g g g g g g g g g h g g g g g g h h h h h g g h h h ",
"v { o.{ { +.+.o.o.o.o.o.{ { { o.{ { o.+.+.o.o.{ { { +.+.{ { +.+.{ { { { { { o.o.{ { +.o.o.{ +.&.#.+.+.+.o.&.*.*.&.*.&.#.o.o.) v ",
"Q t.g.a.i.f.f.f.f.f.s.f.f.f.s.g.f.s.s.f.s.i.f.s.a.i.i.a.i.f.f.f.f.f.g.f.a.f.f.g.g.f.h.f.f.j.h.h.g.f.j.l.f.h.h.l.j.h.l.z.l.l.e.J ",
"v { +.+.o.+.+.o.o.+.o.o.+.+.+.+.{ { o.+.{ { +.o.{ { { { +.#.+.+.+.#.#.+.+.+.+.#.&.&.&.&.+.&.&.+.&.+.&.&.o.#.#.&.o.{ o.&.&.&.~ c ",
"g g g d g g g g g g g g g d d g g d d g g g g g g h h h g g g h g g g g g g g d g h g g g h g g g g h g g g g g h h g g g g g h ",
"g g g d g g g g g g g g g g g g g g g g g g g g g h h g g h g g g g g h g g g g g g g g g g h g g h h g g h h g g g h h h h c h ",
"g g g g d g d g g g g g h g g g g g g g g g g g g h g g g g g h g g g g g g g h g g g g h g g g h h g h h h h h g h c h g h h g ",
"h g g d g g g g g g g g h g g g g g g g g g g h g g g h g g h g g h g g h g g g g h g g h g h g g g g g h h h c h h g g g g g g ",
"h g g g g g g g g g g g h g g g g g g g h g g g g g g g g g g h h h g g g g h g g g g g g h g h g g g g g h h h h h h g g g g g ",
"g g g g g g g g g d d h g g g g g g h g g g g h g h g g g g g g g h g g h g h h g g g g g g h h g g h g g h h g h h h h c h h c ",
"g g g g g g g g h g d g g g g g g g g g g g h g g g g g h h g g g h g g z N x g g h g g h g h g g g h g g g g h c c g h h h c h ",
"g g g g g g g g h h g g g d g g g g g g g g h g g g g g g h g g g g g g x [ A M g h g h c g g g g g h h h g g g g g g h c h h c ",
"g g g g g g g g g d d d g g g g g g g g g g h g g d g x V C C C C A C B C ..q.7.Z M h h g g g g g g h h g g h g g g h v c h c h ",
"g g g g g g g g d , 1 5 d g g g g g g g g g h g g g g B X.0.9.9.9.9.9...9.9.6.q.q.X.C h g g g g g g g g g h h g g h c g g h c h ",
"h g g g g g g g y @ 1 1 t g g g g g g h g h g g g g g B ..6.6.7.6.X.X...0.w.9.7.q.7.[ x g g g h g g g g g h g g g h h g g g g h ",
"g g d d g g g g d O 1 1 5 d g g g g g h g g g g g g g x n n B B N B B B V ..0...[ B x g g h g g g g g h h h g g h h h h g g g h ",
"g g d g g d g g a O > < 1 t d g g g g g g g g g g g g d g g g g g h g g h  .X.B x g g h g g g g g g g h h h g g h c c h g g h g ",
"g g g d g g g g y O * @ 1 5 d h g g h h g g g g h g g g h h g g g g g g h V N h g h h h h h g g g h g g g g g g h h h h g g c h ",
"g g g g g g g g 6 o < ; 1 4 t g g g g g g g g g g g h g g g g g g g g g h g g g g h h h h g g g g h g g g g g g g h h h g g g g ",
"g g g g g g d g 2   * ; ; > 2 d g g g g g g g g g g g g g g g g g g g g h g g g g h h h g g h g h g g h h g g h g h h h g h g g ",
"g u g g g g g g :   > > > 1 2 y g g g g g g g g g g g g g g h g g g g g g g g h h g g g g g g g g g g g g g g g g g h c h h h h ",
"g g g d d g g g :   ; @ @ @ 1 6 d h g g g d g g g g g g g g h g g g g g g h g g h g g g g g g g g g g g g g g g g g h h c h g g ",
"g g d d d g g g :   & o o o 1 5 y g g h g g g g g g g g g g h g h h v v c g g g g g g g h h g g g g g h h g g g g h h h h c h h ",
"g g g g g g g h 2   @ + o + > 5 t d g g g g g g h h g g g g g g g t b K b g g g g g h g h g g h g g h c h g g g g g h g g c h g ",
"g g g g g g g h 2   @ * % + * < 5 a g g g g g g g g g g g g g g d k G F K L J v h g h g d g h g g g g h g g d g h g h g g g g h ",
"g g h ~ +.+.{ ~ 2   @ * % % + * 1 f ! / { #.#.{ h g g U +.{ +.! k G G F P k k d u g g v { +.-.#.J g g v +.&.:.+.J h g v { #.&.{ ",
"g g c 3.f.f.s.>.2   o + o + + + * 3 s K } -.5.2.v h g &.f.f.t.^ F G Y G R P T k f t g { h.h.j.f.~ g g ~ h.j.j.h.~ h g Q f.x.z.t.",
"g g h >.e.e.e.&.8 = @ * % * * * * ; < 1 5 e t b ! L U o.<.2.O.Y F G P G R R j s s a v Q :.O.,.,.J v v / e.t.r.e.U g g U 2.r.t.4.",
"g g g v v v v a ; 3 i i i i 7 f P K K K I I k L Q ! E T L T K P F G G G R P l T W ! L c L I ! I d ! ! T I ! v v c h c h v J J v ",
"g g g g h g t = 7 j k s a t , 4 p I _ | O.` ^ $.=.=.} I k i F F j G G F P P k W _ =.=.$.#.<.1.<.o.#._ E Y t 2 d h h g g g g h c ",
"h g g g g 5 4 s f t t y a d g 0 , ; 5 f I ! ! O.O.O._ K s i R P F R G F G P F ^ T ! H b O.-.1.-.` O.^ T K 7 = t g h h h c h h h ",
"h g d g g 6 6 y t y a g h g g g d 9 : $ ; 1 2 s s k c k s j R R F G G F P P e ; ; ; = : a b L b q b b k s s s q 6 d h h h h c h ",
"g g g g g g u y g g g g g g g g g g d 0 2 $ X ; 1 5 7 7 7 w G F j j G k k G F K ( H f d 4 e p e > q e q 7 e 1 > . 2 g h h c c h ",
"g g d u d g g g g g g g g g g g g g h h g y 2 $ o O & & @ < j j k j F F F P l l ! I K K & & > = O ; > 1 ; > ; O . 2 d h h h h c ",
"g g d d g g g g g g g g g g g g g g g g g g d y 6 : X     & D D K l F F k P j # 1 > ; >                   . O : 6 a g g g h g h ",
"g g g g g g g g g g g g g d g g g g g g g g g g g a t 5 = , 3 = j P P P k P j @ O O ; , = = = = = - = = 4 6 0 a d g g g g g h c ",
"g g g g g g g g g g g g g g g g g g h g g g g h g g g g d a 1 O s k k k j k j 8 , : 4 t y y y a a a y y a d g h g g h v h g g g ",
"g g g g g g g g g g g g g d g g g g g g g g g g g h h g g g 2 . 7 k j F k l b x g d d g g g g g h h g g h h g g g g h c c h g g ",
"g g g g g g g g g g g g g g g g g g g h g g g g h h h x N B 6   5 F k F F F L ] A N c h g h h g h h g g h g g h h h h c c c h h ",
"g d g g g g g g g d g g g g g g g g g g h h g g h h h B ..7.r   1 l j 5 l l T  .9.9.A x g g g h c h g h h g g h g g c h h h h c ",
"g g g g g g g h g d g g g g g g g h g g g g g g g g g n  ...m 8 t K K b E ( Q  .9.X.] v g g h c h g h h h h g g g g h h h h h c ",
"g g g g g g g g h h g g g g g g g g g g g g g g g g g x M M x x h c v c v ' ] S [ M h h g h g g h h h g h h h c h h h h h h c c ",
"g g g g g g g g g g d g h h g g g h g g g g g h g g g g g g g g g g g g h S ..C x g h g g h g g h h g h c g h c g g h h h h c c ",
"g g g g g g d g g g g g g g g g g g g g g g g g g g g g h g g g g g g g g N x h h h h h h g g g g g g h g h h c h h h c h c c c ",
"g g g g g g g g g g g h g g g g g g g g g g g g g g h h h g g g g h g g g g g h g h h h h h g h h h h g g h h h c h c c h h h h ",
"g g g g g g g g g g g g g g d g g g g g g g g g g g g h g g g g g g g g g g g h g h h h g g g g g c c c h h c c c h h c c h g h ",
"g g g g g g g g g g h g g g g g g g g g g h g g g g g g g g g g g g g g g g g g g g g g g g g g g g h c g h c h h h h c c h g h ",
"g g g g g g g g g g g g g g g g g g g g g g g g g g g g g h g g g g g g d g g g h g g g g g g g g h h g g h h g h g g c h h h h ",
"g d d d g h g h g g g g g h g g g g g g g g g g g h g g g g g g g g h h g h g g h g g h h g g h h h g h h c h h c h c c h c c v ",
"g g g g g g g g g g g g g g g g g g g g g h g g g h g g g g g g g h h h h g g g h g h g h h g h h h h c g g h c h h c v h v h g ",
"U { +.+.{ { o.o.#.o.+.&.+.+.+.+.&.+.o.o.&.&.&.+.+.+.+.{ &.#.+.#.#.#.+.&.o.+.+.+.+.#.&.&.&.&.o.&.&.&.-.:.&.&.&.+.+.+.:.>.:.>.{ v ",
"{ t.a.f.i.i.i.a.g.f.f.f.f.f.f.f.h.f.f.i.f.h.g.g.f.f.f.s.a.i.f.s.s.i.f.s.a.f.f.i.u.f.h.h.k.f.g.h.f.h.l.l.h.j.h.h.k.h.f.h.z.z.t.Q ",
"U { +.+.o.+.+.+.#.#.+.+.+.+.#.#.+.+.#.+.+.&.+.+.&.+.+.&.#.&.#.+.+.+.&.&.+.&.+.o.+.&.&.&.&.#.&.+.&.*.*.&.&.#.+.&.:.:.&.&.-.-.{ v ",
"g g u g g g g g g g g g g g g g d g g g h g g g g g g g h h g h h g h g g g g g g g g g h h h h h g h g h h h h h h g g h c h c ",
"g g v v g g g g g g g g g g g g c U g g g g h g g g h g h g g g h g g g g g g U c h g h g g h g g g g h h c c h h h g U v h U U ",
"g g 2.:.g g g g g g g g g g g d -.e.h g g g g g g h h h h g g h g g g g g d ~ t.U g g c h h h h h c h h h c c h h c J i.{ g Q U ",
"g g U v g g g g h g g g g g g g J U g g h h h g h h g g g g g h g g g g h g v ~ c g g c h h h c h g g h c c h h c v v ~ J g h g ",
"d g g g g h g g h h g g g g g g g g g g g g h h g g g g h c h h h h g g h g h g g h h g d g h h h g g g h c h h c v h c c h c v ",
"g g g h g g g g g g g g g g g d g g g g g g g h h g g g g h h h c h h h g g c h g g h h g g h c h h g g c v h h c c h c v c c c "
};
