/* XPM */
static const char *exit_2[] = {
/* columns rows colors chars-per-pixel */
"64 64 81 1 ",
"  c #363534",
". c #3C3B36",
"X c #3E3D38",
"o c #403E39",
"O c #45433D",
"+ c #48463F",
"@ c #47483F",
"# c #48483F",
"$ c #464541",
"% c #494640",
"& c #4D4C43",
"* c #4F4E49",
"= c #504E46",
"- c #524F48",
"; c #4F5046",
": c #515046",
"> c #55534B",
", c #59564D",
"< c #5C594E",
"1 c #5A5650",
"2 c #5D5A52",
"3 c #615D54",
"4 c #635E58",
"5 c #646055",
"6 c #66615B",
"7 c #6A655F",
"8 c #6C6761",
"9 c #6E6963",
"0 c #706B65",
"q c #736E68",
"w c #7B7265",
"e c #76716B",
"r c #78736E",
"t c #7C7771",
"y c #7E7A74",
"u c #817666",
"i c #847967",
"p c #807668",
"a c #847968",
"s c #867A68",
"d c #897D6A",
"f c #8B7E6A",
"g c #827D77",
"h c #847F79",
"j c #8E806A",
"k c #95856B",
"l c #98876C",
"z c #9A886C",
"x c #9C8A6C",
"c c #9F8D6E",
"v c #868079",
"b c #86817B",
"n c #88827B",
"m c #88837C",
"M c #89847D",
"N c #8B867F",
"B c #A08D6E",
"V c #A3906F",
"C c #A28F70",
"Z c #A49170",
"A c #A89371",
"S c #8B8680",
"D c #8C8680",
"F c #8F8A83",
"G c #918C85",
"H c #95908A",
"J c #9A958E",
"K c #9E9992",
"L c #A39E97",
"P c #A49F98",
"I c #A49F99",
"U c #A7A29A",
"Y c #A8A39B",
"T c #AAA59D",
"R c #ADA79F",
"E c #ADA7A0",
"W c #AEA9A2",
"Q c #B0ABA3",
"! c #B1ABA4",
"~ c #B2ADA5",
"^ c #B6B0A9",
/* pixels */
"7789809898888888988989998880988998899899999889909989999999998998",
"7873>>>388889979877998988889888999998888889998999999990q9998999q",
"881OOO@O489988889e899889989988999988899e9899899999998999989r98q9",
"88-%&%;O,8898897vIq8988999998999889897vUq89989998999890998hUq0yr",
"98>&&&:O,9878998qt98999998999997899999qt989999997899999999qy99eq",
"87-&%&:%>9877888778888899888999898788899988898998889899999989999",
"9q%&%&:#8MMMmmvMmvMMMMMvvvMMvvMMvvmmvmMmmMMMmmDDDMSMMFFFFFSMMMtq",
"et&&%&;#qRTTTRTRRTTTTUTTTYYTUTRRTRWTTRRWEEWTEWWEWE!QEWW~WW~~~WF0",
"q8>,>>>%-vMMMMMMmvnMmvMmvvvvmMMMMMMMMMMMMDFDMDDMSMDSMMSMmmMFFmr9",
"96>,,22,+7877778977888878999879998888987898899888998898899898899",
"86>>222,%7998888888888989999899998898888898889999999999999999999",
"82,,,>>&%7999988888887888999998999998899988999999999999999099998",
"92>>>::&%7899977889898899899989999989898999999998989999099899989",
"8>&&::&&O4667637889899998989889999989999899899998999999990989989",
"4:&&:;&&OOO%%O+6889988999999988899899999999989999998999999900909",
">%%&::&%%&>,,&oO289988998888999899990w09899999988898998999909099",
">&&&::;%&>,2<&oO388988988898898899880kjq999008989999999899990990",
">&%&>::&OO%%%OO4889888998780ussssdsuszZxsq99988889998998889q9909",
"&>&&:&:>%366663789888898888wxVBBcBBzBBxZZzs998998899899999999909",
">,>1,>::%677797898899999999wlxcccxxzVZccVxj099999889998899989999",
",2,222,:O%%%&&17898989898890wwwwwwwwuzBzkw0899998899999999998899",
">1>,222:&:&&&OXO388998899898988989990lzw099999989899999909099999",
";:%&>>>&::&:=Oo%389989989899998899989sw9899999999988999999999999",
":&%&:::&O+OOOO%7889888889899898899889989899999999999889999998899",
":;&&::::&6666638888888888899888889999988999999999999989999999989",
"::&>:::>%>689999899999999888899988989989989988999988989999909999",
"%&%:::>2>%%->>>>>>>>>->>3788999899999999988898988888899999909999",
"&&&:::1222,=OOOOOOOOOOOOOO>6989999999888989899998899999999999999",
"%&&&&>2222>:%&&&&%&&&%%%XXXO>69898999899999998998990988988989098",
"&&%%%:223,:&&;&&&&&&&&&&OXOO.o2899998878999878998899888999988899",
"::::><332>:>:::>>>>>>>:::%XOoX.-898rMMMv088rvMFMq89rFFGvq99rMFDt",
",>><53332<<<<<<35535332>>= O%$$X199MWWWUq89FWWWUe88SQWWIq99F~^!S",
">><355<><<<,<,,235353222<= O&$$X198vLIUKq89MLIIJq98vUILH999hKUIv",
":,22,>::::::====,22<>&:>>&XOOX.&7980qqqq988qqqeq9890eqeq9990qeq9",
"=,,:&&%&&&%%%%%&,1>&%&&&OXOO X1889889899988999998999998999999999",
">,>&&&::::&%O%&>>*%OO%%OXXoX=69889998899998999909999999999999999",
">>&&::>>>>:%o$%&&OOOOOOOXo=6899889999999999999889999999999909009",
"+OO&:::>&OOOO%&&&&%%OOO%,699888888889999889999999999999999999q99",
"%%#&::::O>678888999987888888899888899999999999999889q99999999909",
"&&%&&::&O6777899988898899988989888999988899999998999998999999999",
"&&%::;&%O&=&&&1788999988988999888999999909998999899999999899899q",
"&=&::&;>,,,,,%O%399889999899988899989pq9998999998899999988909998",
"&>=1,,1,,,,,,%XO389998898999888898880clw089889899999998899909998",
",2>2222,%%%%%&,6888998889990wwdsisdsjZZBdw9999989999988999999999",
">,>12322&467678988989988999wkcVBVBBVAZZZZcd098900999989999099990",
"&:&=>,,>%467743889988888899wkzccxccBCZVZZzd08990999999999999999q",
">:%&:&&&OOOOOO%6888888988990wwwwwwwwwzBBjq999999909999999999990q",
">&%%&:&&&&&&&OXO289899998998999889990zzi099899889990999989999090",
"2&%%&:;&&&&&&+oO389888899889989999888wq9999999999989999q99099q00",
"6>&&:::%OOOOOo+7888888888899998999988899999999999998899909099999",
"7,&%::;;%46663<7888888898899999989989889999999999000990009909999",
"8,&%:::&%7989978898889988899889988888899899988989990909999909999",
"92&&:::&+7998889998988889889999888987989999988999999909999909999",
"861>,2>>%7999998999988899989998889999989988999999999909999q990q0",
"86,,,22,%6998888888889888988898889999989989899999999899099q09999",
"q0-,,22,>hMMMMMMDMmvMFDMMMMvDMMMMMMDmMMMMMFDFFMFDFFFDFDMMSGGGFyq",
"tg=,>22>7TRRTRRTWTRYTWEERTRTTYRTTYTTYETUUEWWQRWWRW!QWQWQQWE!~~Hq",
"qe&:&>>%7FMMMMDDMMDMMFMMFMMDDDDMMMFDMFMmMDDDFDFMFFFFFSSFGGDFFFgq",
"97=&%&&O>9888888778798888899999999998988898999999999999999989999",
"98>%&&:%,99889989r989998999999899998989r9999899889999009999t0qre",
"981%%&:O,9888897vUq8888899999999899997vIe99099999999900909vYeqye",
"882OOOOO68898888qt88999999889999998998qt9899999999990999q0eg0898",
"8883>>>3999888888888999998899099998999989998899998899099q09099q0",
"87999999889888878888999999999999999989099999899099890q99999qq999"
};
