/* XPM */
static const char *exit_4[] = {
/* columns rows colors chars-per-pixel */
"64 64 78 1 ",
"  c #383736",
". c #3B3A36",
"X c #3E3D38",
"o c #403F39",
"O c #44433D",
"+ c #48463F",
"@ c #49483F",
"# c #474641",
"$ c #4C4C43",
"% c #514E45",
"& c #524F49",
"* c #4F5046",
"= c #515046",
"- c #585347",
"; c #55534A",
": c #59564E",
"> c #5B584E",
", c #5A5750",
"< c #5D5A52",
"1 c #635D4F",
"2 c #615D55",
"3 c #635F59",
"4 c #646055",
"5 c #66615C",
"6 c #6A655F",
"7 c #736B5E",
"8 c #6C6761",
"9 c #6E6963",
"0 c #706B65",
"q c #736E68",
"w c #7C7264",
"e c #76716C",
"r c #79746E",
"t c #7B7671",
"y c #7C7771",
"u c #7F7A73",
"i c #7F7A74",
"p c #837662",
"a c #827766",
"s c #877A67",
"d c #897960",
"f c #8E7F65",
"g c #8D7F6A",
"h c #807B74",
"j c #817C76",
"k c #847F79",
"l c #847F7A",
"z c #928164",
"x c #918166",
"c c #968569",
"v c #98876A",
"b c #9B886A",
"n c #9B896B",
"m c #86817B",
"M c #87827C",
"N c #88837C",
"B c #8A857E",
"V c #8C867F",
"C c #8B8680",
"Z c #8C8680",
"A c #8D8881",
"S c #8F8A83",
"D c #918C85",
"F c #979189",
"G c #9B958E",
"H c #9C978F",
"J c #9F9992",
"K c #A19C94",
"L c #A49F99",
"P c #A5A19A",
"I c #A8A39B",
"U c #ABA59E",
"Y c #ACA79F",
"T c #ADA7A0",
"R c #AEA9A1",
"E c #B0ABA3",
"W c #B1ABA4",
"Q c #B2ADA5",
/* pixels */
"6689899898888888988989998880988999899899999889909989999999998998",
"686888688888996986699898888988893:;;<888889998999999990q9998999q",
"889r9998889988889e89988998998892+++@+29r9899899999998999989r98q9",
"86mPq99886898896mLq898899999899,+$$*+&MPq89989998999890998kPq0ir",
"98qy998898866898qt9899998899999:$$$$@&qy989999996899999999qi99rq",
"8686666888666886668888899888999;$$$=$=99988888998889899999989999",
"9hBmmBBBNBBBNNmBNmBBBBNmmmVBMMj$$$$=$3BBNBBBNMZZZBCBBAAAAACBNByq",
"qFRUPUUYUYUUUYUYYUUUUPUUUIIUPYH$$$$$$6URTTRUTRRTRTWERRRQRRQQQRAq",
"0yBBNBBBmBNNBBBBNmmBNmBNmmmmNVu;,=;;$$jVBZAZBZZBCBZCBBCBNNBAANr9",
"9866898888866668966888868999866:::<<:+36898899888998898899898899",
"6888688898898888888888989999895:::<<>#59898889999999999999999999",
"886868888988998888888688899999<::::;%+59988999999999999999099998",
"999669888888998888989889989998<:-=*=$+59999699998989999099899989",
"998888888888999888989999898988:$$==$$+35555<89998999999990989989",
"888886888669988898998899999995=$$=$$$OO+$#OO38999998999999900909",
"86899888996888888999889988889<$$$==$$$$;:>%OO,888898998999909099",
"88889898998986888889889888989<$$$==*$$=:><%oO<889999999899990990",
"8888888888655669889888998680a2$$$===$+@%%$OO289889998998889q9909",
"8898888885$OO#5889888898888wc>=$$=*==$dbvzw268998899899999999909",
"998888888<+$$O,998899999999wf:>:,>;==%fbbbg099899889998899989999",
"898688889<$$$+;89989898998907,<:,<<:=+;;;;%:59998899999999998899",
"988686888,$$$$%8998998899898<=,;:<<<=$*$$$+XO<989899999909099999",
"998688889:%$$$+6989989989899,$=$$=-:%$=$=%$O+2889988999999999999",
"898888888<,;::$5889888889899,$$$$===$+++++O+59889999889999998899",
"8888986883<;:<%3888888888899:$$$$====$35555<89999999989999999989",
"8668898882,-><=:888989999989,$=$====-$&5989999999999989989909999",
"888668888<=$=-%:998552:;;;;;$$$$===;<;$#&;;;;;;==;&;&<5999909999",
"866668889<*$==$%:$OoOO#$#OOO+$$$$==>2<<:=OOOO++O++OO++O&59999999",
"866888898;=$$=$OOO+$$#$==$#$#$$$$$=<<<<:=$$$$$$$$$$$$XXXO&589098",
"888888895$=$$=$$$$$%$$$::;$$$$$$$$%<<<<=$$$$$$$$$$$$$+XO+ X:8899",
"888rBVm8%$$$+$$$$$$$$$=--=*=======>22<-=-===--==---===$XOOX $jAy",
"988BUUK=+$$@++$$$$$$$$%$$=-;;::::4422<>>>>>>2442422<:-; O$##XuQC",
"898mJKF$O++++++++++$$%%%%;;;;::>244>::>>:>::>22242<><>; O$##XqPM",
"8890qqq<$$$+++$$$$$=:;=$=$=%%=-<<>-=%====%%%$;<<>;$$-:%XOOX #9e9",
"989899882$=$$$$$$%:<<:======$$::=$$$$$$$$$$$$:,:$$$$$+XOO X;8999",
"988988995==$$=$##$=;;$$$$$$$$$:-$$$====$$+$$=;&$++$$+XXo.$599999",
"996988868<=$==$;3:&$#++++++O$==$$=====-=$o+#$$#OOOOOOoX$39909909",
"8888888582>;:<;:898652,:;;;;$+++$====$+++O#$$$$$##OO#,5999990q99",
"9866689893<;:<;:999998999988:$$+$====O=5689999999868099999999909",
"9886688992>::<%2988898899988:$$$$$==$O36689999988999998999999999",
"988988889:%$-:$5889998889899:$$$$=$$$+$$$$$:5899899999999899899q",
"888888689<$$$$+5899889999899;$$$==$$=:>:::$OO<998899999988909998",
"6898888993$$$$%8889998898999:$;%:>:,::>:::$XO2899999998899909998",
"8888888983$$$$;88889988899907:<:,<<<:$%;%%$;59989989988999999999",
"8868898983$$$+<988989988999wf>:;,<2<<-zbvvs998900999989999099990",
"8888898986:$#=6889988888899wc1$$$-:::%zbbcp28990999999999999999q",
"6898888899865888888888988990w2$$$=**$O$%@+O+3999909999999999990q",
"99888888996899888998999989989<$$$$==$$$$$$#XO<689990999989999090",
"988898888688898889988889988992$$$$$$$$$$$$$oO<899889999q99099q00",
"888889898889988988888888889996;$$===$O+++OoO59999998899009099999",
"886888898988986888868889889999<$$==$=+26553>89899000990009909999",
"889988988898898889888998889989<$$$*=*+59899688989990909999909999",
"8886889989998889998988889889892$$$==$+59999988999999909999909999",
"8666699999989988999988999989996,::<:=+59988999999999909999q990qq",
"8688688986888888888889888988895:::<<>$59989899999999899099q09999",
"qjBBBmBNBNBVBBBBZBNmBAZBBBBmZZu&::<<,%jBBBAAAABAZAAAZAZBBBDDDAiq",
"rGUUUPIIYYYYUYYURUUIURTTYUYUUIJ=:;,<:2LPPYRREYRRYRWEREREERRWQQFq",
"qjBBBBBBBABBBBZZVBZBBABBABBZZAm&=$=-$<CNBZZZAZABAAAAACBADDZAAAiq",
"9866888888888888668698888899999;$$$$$&88888999999999999999999999",
"989r9888999889989r9899989999999,$$$=$&9r9989899889999009999t9qrr",
"96kKq88998888896mPq8888899999992+$$=@%MLe99099999099900909MIeqie",
"880r888998898888qy88999999889995OO+++<qu9890999999990999q0ej0898",
"688889989998888888889999988990993:;;<9989998899998899099q09099q0",
"86899988889888868888999999999999099999099999899099890q99099qq999"
};
