/* XPM */
static const char *exit_1[] = {
/* columns rows colors chars-per-pixel */
"64 64 74 1 ",
"  c #3B3A36",
". c #3E3D39",
"X c #403F3A",
"o c #43423C",
"O c #48443F",
"+ c #474641",
"@ c #484540",
"# c #4C4B43",
"$ c #504E46",
"% c #524F49",
"& c #515046",
"* c #55524B",
"= c #59554C",
"- c #5C594E",
"; c #5B5750",
": c #5E5B52",
"> c #625E54",
", c #635E58",
"< c #646055",
"1 c #66615B",
"2 c #6A655F",
"3 c #6C6761",
"4 c #6E6963",
"5 c #706B65",
"6 c #736E68",
"7 c #7B7265",
"8 c #76716B",
"9 c #79746E",
"0 c #7C7771",
"q c #7E7A74",
"w c #817666",
"e c #847967",
"r c #807668",
"t c #857A68",
"y c #8A7E6A",
"u c #817C76",
"i c #847F79",
"p c #8E806A",
"a c #95856B",
"s c #98876C",
"d c #9C8B6D",
"f c #86817B",
"g c #88837C",
"h c #8A857E",
"j c #8C867F",
"k c #A08D6E",
"l c #A3906F",
"z c #A39070",
"x c #A49070",
"c c #A89371",
"v c #8B8780",
"b c #8C8780",
"n c #8D8881",
"m c #8F8A83",
"M c #908B84",
"N c #918C85",
"B c #979189",
"V c #9A948D",
"C c #9D9791",
"Z c #9E9992",
"A c #A19C95",
"S c #A49F98",
"D c #A49F99",
"F c #A5A19A",
"G c #A8A39B",
"H c #ABA59D",
"J c #ACA79F",
"K c #ADA7A0",
"L c #AEA9A1",
"P c #B0ABA3",
"I c #B1ABA4",
"U c #B2ACA5",
"Y c #B2ADA5",
"T c #B6B0A9",
/* pixels */
"2234344343333333433434443335433443344344444334454434444444443443",
"2323332333334424322443433334333444443333334443444444445644434446",
"3349444333443333483443344344334444333449434434444444344443494364",
"32fF644332343342fD63433444443444334342fF634434443444345443iF65q9",
"43604433433223436043444433444443343444604344444423444444446q4496",
"3232222333222332223333344333444333233344433333443334344444434444",
"4uhffhhhghhhggfhgfhhhhgfffhhffhhffgffghgghhhgfbbbhvvhnnnnnvhgh06",
"6BLHFHHJHJHHHJHJJHHHHFHHHGGHFHJJHJLHHJJKKKLHKLLKLKIPLLLYLLYYYLn6",
"50hhghhhfhgghhhhgffhgfhgffffghhhhhhhhhhhhbnbhbbhvhbvhhvhgghnng94",
"4322343333322223422333323444324443333432343344333443343344343344",
"2333233343343333333333434444344443343333343334444444444444444444",
"3323233334334433333332333444433444443344433444444444444444544443",
"4442243333334433334343344344434444434343444444443434444544344434",
"4433333333334443334344443434334444434444344344443444444445434434",
"1233323332244333434433444444433344344444444434444443444444455454",
"o=23433344233333344433443333444344445754344444433343443444454544",
"o:23434344333234333433433343343344335ap6444553434444444344444445",
",333333333333324334333443235wteeeytwtsxdt64443333444344333464454",
"2343333333334323343333433337dlkkkkkskkdxxst443443444344444444454",
"4433333333333433433444444447sddddddslxddldp544444334443344434444",
"233233334443333344343434334577777777wsksa75344443344444444443444",
"o;22323333333333443443344343443434445ss7544444434344444454544444",
"O:32332332232344334434434344443444434t74344444444433444444444444",
"2433333333332344334333334344343344334434444444444444334444443344",
"3333432332333334333333333344334334444433444444444444434444444434",
"3223443333334333333433333333344433434434434433444434434444454444",
"****%***%:243443444332333333444344444444433343433333344444454444",
"oOoooOooOOo$,333343443434433434344444333434344443344444444444444",
"#########o..o$,4433334334433333343444344444443443445433433434543",
"#########O.oO  *243333333333444344443323444323443344333444433344",
"**&&***&&&#.oo. @130hjhg5339hfhf6439hhhf5339fhnh6349nnMf6449hnb0",
",<<><,>:==* X#++.$2bJJJA643hJHHA844hLLLF634nLLLF933vPLLD644nYTIv",
"-<<<<>:-:-* X#++.%3fAVCB622gAAAV643fADFZ634hADDV644fFDAB444iZFDf",
"$*::-*##*=$.oo. O13586663346866644456666433666864345868644456864",
"#=;=#####O.oo  *244434433334433434344344433444443444443444444444",
"**%#OOO#+..X.#13343343433433344334443344444444454444444444444444",
"##+ooooooX.#,344343343343444334434444444444444334444444444454554",
"####@Ooo@*134333334332333344333333334444334444444444444444444644",
"4322233244433333444443333333344333344444444444444434644444444454",
"4332333443334333433343344433434333344433444444443444443444444444",
"2334333333444334334443334344443334444444544434443444444443443446",
"O:23332333333333344334444344433344434r64443444443444444433554443",
"o:33333433343233334443343444333444335ds7534333344444443344454443",
"133333343323333333344333444577ytetytpzxkp74444434444433444444444",
"3323343432343333334344334447adlklkklcxxxzdy543455444434444544445",
"3333343432343333344333333447asdddddkzxlxxsy534454444444444444446",
",243333344343433333333433445777777777dkkp64444444544444444444456",
"X=23333344234433344344443443444334445sse544444334445444434444545",
"o;23433332333433344333344334434444333764444444444434444644544655",
"2333333433344334333333333344443444433344444444444443344454544444",
"3333333434334323333233343344444434434334444444444555445554454444",
"3344334333433433343334433344334433333344344434434445454444454444",
"3332334434443334443433334334344333432434444433444444454444454444",
"3222244444434433444433444434443334444434433444444444454444644566",
"3233233432333333333334333433333334444434434344444444344544654444",
"6uhhhfhghghjhhhhbhgfhnbhhhhfbhhhhhhbghhhhhnnnnhnbnnnbnbhhvNMMnq6",
"9VHHHFGGJJJJHJJHLHHGHLKKJHJHHGJHHGHHGKHFFKLLPKLLJLIPLPLPPLKIYYB6",
"6uhhhhhhhnhhhhbbjhbhhnhhnhhbbbbjhhnbhnhghbbbnbnhnMnnnvvnNMbnnnq6",
"4322333333333333223243333344444444443433343444444444444444434444",
"4349433344433443494344434444443444434349444434433444455444404699",
"42iA633443333342fF63333344444444344442fD844544444444455454fG86q8",
"335933344334333360334444443344444434436q4344444444455444668u5343",
"2333344344433333333344444334454444344443444334444334454465454465",
"3234443333433332333344444444444444443454444434454434564454466444"
};
