/* XPM */
static const char *exit_3[] = {
/* columns rows colors chars-per-pixel */
"64 64 89 1 ",
"  c #353534",
". c #3C3B36",
"X c #3E3D38",
"o c #403D37",
"O c #403F3A",
"+ c #45443D",
"@ c #48463F",
"# c #4A483F",
"$ c #474640",
"% c #494741",
"& c #4C4C43",
"* c #4E4D48",
"= c #504E45",
"- c #524F48",
"; c #4F5046",
": c #515046",
"> c #55534B",
", c #59564D",
"< c #5C594E",
"1 c #5A5750",
"2 c #5D5A52",
"3 c #605848",
"4 c #625D55",
"5 c #635F58",
"6 c #646055",
"7 c #6D6455",
"8 c #66615B",
"9 c #6A655F",
"0 c #716757",
"q c #736956",
"w c #756B5D",
"e c #6C6761",
"r c #6E6963",
"t c #706B65",
"y c #796F61",
"u c #736E68",
"i c #7C7265",
"p c #76716B",
"a c #79746E",
"s c #7C7771",
"d c #7E7973",
"f c #877961",
"g c #8F7F65",
"h c #807668",
"j c #857A68",
"k c #8B7E6A",
"l c #817C76",
"z c #847F79",
"x c #857F79",
"c c #8E806A",
"v c #908066",
"b c #948469",
"n c #978568",
"m c #98876C",
"M c #9A886C",
"N c #9C8A6D",
"B c #9C8A6E",
"V c #9F8D6E",
"C c #86817B",
"Z c #87827C",
"A c #88837C",
"S c #8A857E",
"D c #8B867F",
"F c #A18E6F",
"G c #A3906F",
"H c #A28F70",
"J c #A49170",
"K c #8B8680",
"L c #8C8680",
"P c #8D8881",
"I c #8F8A83",
"U c #918C85",
"Y c #979189",
"T c #9B958E",
"R c #9D9791",
"E c #A39E97",
"W c #A49F98",
"Q c #A49F99",
"! c #A5A19A",
"~ c #A7A29A",
"^ c #A9A49C",
"/ c #ABA59D",
"( c #ACA79F",
") c #ADA7A0",
"_ c #AEA9A1",
"` c #B0ABA3",
"' c #B1ABA4",
"] c #B2ADA5",
"[ c #B6B0A9",
/* pixels */
"99ererrereeeeeeereerrrtreeetreerreerrerrrrreerrtrrerrrrrrrrrerre",
"9e9eee9eeeeerr9re99e2>>>5rereeerrrrreeeeeerrrerrrrrrrrturrrerrru",
"eerarrreeerreeeerpe1@@@@@8rreeerrreeerrarerrerrrrrrrerrrrerareur",
"e9C!urree9ereer9CQu-%&&;+2trerrreerer9C!uerrerrrerrrertrrez!utda",
"reusrreeree99ereusr>&&&:@1rrrrreererrrusrerrrrrr9errrrrrrrudrrau",
"e9e9999eee999ee9999=&%&:@,rerrreee9eeerrreeeeerreeererrrrrrerrrr",
"rlSCCSSSASSSAACSAZa@&%&:@rPSCCSSCCAACASAASSSAZLLLSKSSPPPPPKSSSsu",
"uY_/!//(/(///(/(((S%&@&&@p//!/((/(_//(()))_/)__)_)'`___]__]]]_Pt",
"tsSSASSSCSAASSSSAZu>,>>>%>CCASSSSSSSSSSSSLPLSLLSKSLKSSKSAASPPAar",
"re99ereeeee9999er95>,,22>%9re9rrreeeere9ereerreeerreereerrereerr",
"9eee9eeereereeeeee5>>222,%ererrrreereeeeereeerrrrrrrrrrrrrrrrrrr",
"ee9e9eeerreerreere11,<>>&%erreerrrereerrreerrrrrrrrrrrrrrrtrrrre",
"rrr99reeeeeerreeee1,>>;:&%errer9errerererrrrrrrrererrrrtrrerrrer",
"rreeeeeeeeeerrree9>&&::&&@888854rrrerrrrerrerrrrerrrrrrrrtrerrer",
"eeeee9eee99rreeer5&&&:&&%+@@%@+%9rerrrrrrrrrerrrrrrerrrrrrrttrtr",
"e9erreeerr9eeeeee,%%&::&%&&><<%O@5ertitrerrrrrreeererrerrrrtrtrr",
"eeeerererreee9ere>&%&::&%&>,<<%X%89etncyrrrttererrrrrrrerrrrtrrt",
"89eeeeeeeeeeee9re>;%&>::&+@%=%@#ikjhjNJNjurrreeeerrrerreeerurrtr",
"+=eeeeeeeeeereee8&>&&:::>%8wvnf0NFFNFVNJJNjrrerreerrerrerrrrrrtr",
"%+5eeeeeeeeeeree8><>1,>::%9inMNMNNNNGJVVGNktrrrrreerrreerrrerrrr",
"&@1eeeeerrreeeee812,222>&@%%=:,7yiiihNFNviterrrreerrrrrrrrrreerr",
"&@,ee9eeeeeeeeee1>1>,222:&:&&&+X@5rrtmNitrrrrrrererrrrrrtrtrrrrr",
"=%%9ee9ee99e9err>&:%&>>>&::&:=@O%5rerjirerrrrrrrrreerrrrrrrrrrrr",
"<>%9eeeeeeee9eee>&&%&:::&@@@@@+%9eeerrerrrrrrrrrrrrreerrrrrreerr",
"2<=8re9eeeeeeeee>&;&&::::=988884rrrereeerrrrrrrrrrrrrerrrrrrrrer",
"22&2rreeerrrrrre>&:&>:::>%,8rrrrerrrrrerrerreerrrreererrrrrtrrrr",
">>&2ee9885,>>>>>&%%%:::>2>%%->,>>>>>>>>>>59rreeeeeeeerrrrrrtrrrr",
">:%>-%++++%%$+++%&&&:::2421,&++++@+@@@++@++>errreerrrrrrrrrrrrrr",
":>&+++@%%$&>>%%%%%&&&&>22<<>=%&%&&%&&&%%%XXX+>9rerrtreereerertre",
"&:&%&&&&&&:,,>&;&&&%%%:222<:&&&&&&&&&&&&&+X++.O2eerreeerrrreeerr",
"@%%&&&%&&&:>>::::::::><542>:>:>>>>::>>>:::%X@O..=9raPPUCurraSPLs",
"@%%%%%%%%&=&&:>:>,,,<6544<<<<<<<6664644<,,& $%$$X2rK`__QurrP]['K",
"@@@@@@@%&====>>>>,,<666<,<<<,<,,266664<22<& @%$$X2rC!QEYrrrzR!QZ",
"@%&&&%%>>>:::;:=::,22<>=:::::==&=,22<:&=,,%X@+X.&9rtpupurrrtupur",
"&;&%&:,22>>:::;:&&,,:&&%&&&%%%%%&,1>%%%&&+X++.+2errrrrerrrrrrrrr",
"::%%%&>>>&&&&%&&%-,>&&&::::&%@%&>>*%@@%%@XXXX-9trrrrrrrrrrrrrrrr",
">>%25>&%@@@@@@@+&>>&&::>:>>:%X$%%%+++++++XO-8reerrrrrrrrrrrtrrtr",
"22=2ee98851,>>>>%@@@::::>&@@@+%%&&&%%@++%19rrrrrrrrrrrrrrrrrrurr",
"22=29ererrrereee-%%@&::::+>59ereeeerreeerrrrerrrreerurrrrrrrrrtr",
"2<&8eeereeeereee>&&%&&::&@8999eerrrrrreeerrrrrrrerrrrrerrrrrrrrr",
"<,=eeeeeeerrreee-&&%::;&%@&=&%%19rrrrrrrtrrrerrrerrrrrrrrerrerru",
":%&eee9eeeeeeee9&&&%::&;><<,,>%O%8rerhuerrerrrrreerrrrrreertrrre",
";@,reeereeere9ee-&>:1,,1,<<,,,%X@8eetVmiteeeeeerrrrrrreerrrtrrre",
":%1eeeeree9eeeee5,2>2222,%%%==<qijkjcJJFkirrrrrerrerreerrrrrrrrr",
"&@5eerere9ereeer8>,>12522=8ygnVVGFFFJGJJJVktrerttrrrrerrrrtrrrrt",
"%,eeerere9erreee9>:&=>,,>%8yvnfwNVVFHJFJJNkterrtrrrrrrrrrrrrrrru",
"8ereeeeerrerereee>:%&:&&&+@@@@+=wyiyiNFFcurrrrrrrtrrrrrrrrrrrrtu",
"rreeeeeerr9erreee>&%%&:;&&&&&&@X+5ertNNjtrrrrreerrrtrrrrerrrrtrt",
"eeeereeee9eeereer1&%%&;&&&&&&&@X$5eeeiurrrrrrrrrrrerrrrurrtrrutt",
"eeeeerereeerreere8>&&::;%+@@@+o%9rreeerrrrrrrrrrrrreerrrtrtrrrrr",
"ee9eeeerereere9ere,&&::&&%89885<errereerrrrrrrrrrtttrrtttrrtrrrr",
"eerreereeereereeer>&%;::&%errrr9eeeeeerrerrreererrrtrtrrrrrtrrrr",
"eee9eerrerrreeerrr1;&:::&%9rrrreeere9rerrrrreerrrrrrrtrrrrrtrrrr",
"e9999rrrrrrerreerr81>,2>>%9rrreeerrrrrerreerrrrrrrrrrtrrrrurrtuu",
"e9ee9eere9eeeeeeee8,,,22>%9eeeeeerrrrrerrererrrrrrrrerrtrrutrrrr",
"ulSSSCSASASSSSSSLSu-,,22>,ACKSSSSSSLASSSSSPPPPSPLPPPLPLSSSUUUPdu",
"aT///!/!((((/((/__P&,>22>r(//!(//!///)/!!(__`(__(_'`_`_``__']]Yu",
"ulSSSSSSSPSSSSLLSKs%:&>>%rLPLLLSSSPLSPSASLLLPLPSPPPPPKSPUULPPPdu",
"re99eeeeeeeeeeee999&&%&&@1rrrrrrrrrrereeererrrrrrrrrrrrrrrrrrrrr",
"rerareeerrreerrerar>%%&:@1rrrrerrrrererarrrrerreerrrrttrrrrsruaa",
"r9zEueerreeeeer9C!u>%%&:@2rrrrrrerrrr9CQprrtrrrrrtrrrttrtrZ!pudp",
"eetaeeerreereeeeuse2++@@@8eerrrrrrerreusrerrrrrrrrrrtrrrutpltere",
"9eeeerrerrreeeeeeee92>>>5eerrtrrrrerrrrerrreerrrreerrtrrutrtrrut",
"e9errreeeereeee9eeeerrrtrrrrrrrrrrrrertrrrrrerrtrrerturrtrruurrr"
};
