/* XPM */
static const char *floor_3[] = {
/* columns rows colors chars-per-pixel */
"64 64 167 2 ",
"   c #B18F60",
".  c #AF9167",
"X  c #B59465",
"o  c #B89667",
"O  c #BB9867",
"+  c #B5966B",
"@  c #B89768",
"#  c #B6986D",
"$  c #BA9A6D",
"%  c #AF9572",
"&  c #AF9A7D",
"*  c #B29772",
"=  c #B59A74",
"-  c #B99C74",
";  c #B49D7C",
":  c #B89E7A",
">  c #B7A07F",
",  c #B8A07D",
"<  c #AE9D85",
"1  c #AC9F8B",
"2  c #B39F82",
"3  c #A99F91",
"4  c #AFA18D",
"5  c #B5A081",
"6  c #B4A082",
"7  c #B3A084",
"8  c #B2A085",
"9  c #B3A085",
"0  c #B2A086",
"q  c #B3A186",
"w  c #B2A087",
"e  c #B3A087",
"r  c #B2A187",
"t  c #B3A187",
"y  c #B5A184",
"u  c #B4A186",
"i  c #B4A085",
"p  c #BAA281",
"a  c #B0A088",
"s  c #B1A088",
"d  c #B1A188",
"f  c #B0A089",
"g  c #B1A189",
"h  c #B2A088",
"j  c #B2A188",
"k  c #B3A188",
"l  c #B2A189",
"z  c #B3A189",
"x  c #B0A18B",
"c  c #B2A18A",
"v  c #B1A28B",
"b  c #B2A28A",
"n  c #B5A38A",
"m  c #B0A18C",
"M  c #B0A18D",
"N  c #B0A28D",
"B  c #B1A28D",
"V  c #B2A38C",
"C  c #B3A38D",
"Z  c #B0A28E",
"A  c #B1A28E",
"S  c #B1A38F",
"D  c #B1A28C",
"F  c #A9A091",
"G  c #AAA091",
"H  c #A9A092",
"J  c #A9A093",
"K  c #AAA092",
"L  c #AAA192",
"P  c #AAA193",
"I  c #ABA193",
"U  c #ACA190",
"Y  c #AEA290",
"T  c #AFA390",
"R  c #ADA292",
"E  c #ADA392",
"W  c #ACA293",
"Q  c #ADA293",
"!  c #ADA393",
"~  c #AEA392",
"^  c #AFA392",
"/  c #AEA393",
"(  c #AAA194",
")  c #ABA194",
"_  c #AAA294",
"`  c #ABA294",
"'  c #AAA295",
"]  c #ABA295",
"[  c #AAA296",
"{  c #ABA296",
"}  c #ABA396",
"|  c #ABA397",
" . c #ACA294",
".. c #ADA394",
"X. c #ACA395",
"o. c #ADA395",
"O. c #AEA394",
"+. c #AFA394",
"@. c #AEA395",
"#. c #ACA396",
"$. c #ADA396",
"%. c #ACA397",
"&. c #ADA495",
"*. c #AFA494",
"=. c #AEA495",
"-. c #AFA495",
";. c #ADA496",
":. c #ACA497",
">. c #ADA497",
",. c #AEA496",
"<. c #AEA497",
"1. c #AFA597",
"2. c #ACA395",
"3. c #ABA498",
"4. c #ABA499",
"5. c #ABA49A",
"6. c #ABA59A",
"7. c #ABA59B",
"8. c #ACA498",
"9. c #ADA498",
"0. c #ADA598",
"q. c #ACA499",
"w. c #ADA499",
"e. c #ACA599",
"r. c #ADA599",
"t. c #AEA598",
"y. c #AFA598",
"u. c #AEA599",
"i. c #AFA599",
"p. c #AFA698",
"a. c #AEA699",
"s. c #AFA699",
"d. c #ACA49A",
"f. c #ACA59A",
"g. c #ADA59A",
"h. c #ACA59B",
"j. c #AFA69A",
"k. c #ABA59C",
"l. c #AAA59E",
"z. c #ACA59C",
"x. c #ACA499",
"c. c #B0A391",
"v. c #B1A391",
"b. c #B0A392",
"n. c #B0A492",
"m. c #B0A493",
"M. c #B0A495",
"N. c #B0A595",
"B. c #B2A594",
"V. c #B0A596",
"C. c #B0A492",
"Z. c #B0A698",
"A. c #B1A698",
"S. c #B0A699",
"D. c #B0A799",
"F. c #B1A799",
"G. c #B2A799",
"H. c #B0A69A",
"J. c #B0A79A",
"K. c #B1A79A",
"L. c #B1A79B",
"P. c #B2A79A",
"I. c #B1A799",
"U. c #B2A899",
"Y. c #B2A89A",
"T. c #B2A99E",
"R. c #B2A89A",
/* pixels */
"+ - $ -.T.-.d.d.d.d.d.d.-.*.: $ # O ; 0 z : 0 5.-.~ d.d.d.d.P.d.d.d.P.d.d.-.~ * z d.d.d.d.d.#.: X ; -.~ -.-.d.: $ X - ~ d.d.#.#.",
"u ; = 0 4 d.d.d.d.d.d.z.-.: + # $ = $ 2 0 -.d.d.-.z -.P.P.] d.d.d.d.#.2 & B d.-.M.d.P.d.#.-.d.~ 0 - ; 0 d.z.d.4 = $ z d.#.] L ] ",
"d.k.; $ 2 d.d.d.P.d.d.z u : = 2 B z : 4 -.d.] -.d.5.d.d.d.P.d.d.-.d.-.: X ; 2 -.P.d.5.#.2 ~ -.L z.4 = -.4 ; z 2 + $ z 5.#.L d.d.",
"d.d.~ 4 5.d.d.3 ] d.d.4 z z 2 + 2 #.2 ~ d.d.] ] d.d.] L d.d.-.d.d.0 4 ; $ = 1 P.P.#.d.1 + : ~ d.d.d.-.d.~ 1 ; - - 2 -.P.P.d.#.-.",
"P.P.5.d.d.-.d.#.L L d.d.-.#.2 + : 5.~ -.d.P.Y.d.d.d.#.#.d.d.c.-.d.~ : O 5 d.d.-.d.d.] 1 : ; #.5.P.P.5.-.3.z.-.-.~ #.d.M.B #.-.-.",
"d.d.d.d.P.5.d.-.L d.d.Y.n.2 o 4 d.L ] P.P.d.d.d.d.-.d.d.5.4 B 5.d.d.2 : B d.#.3 d.P.d.#.M.d.d.d.d.d.d.#.L d.d.5.5.k.1 = : ~ d.P.",
"d.d.d.5.#.0 -.d.P.d.d.L -.B 0 #.d.d.d.d.-.5.4 ~ 5.-.d.4 2 $ - 2 ~ d.5.d.d.d.d.d.d.P.d.d.] ] d.d.d.P.d.d.d.] ] #.z u + X 0 d.-.d.",
"d.d.d.-.: $ : -.d.d.d.L -.d.5.d.] L d.d.d.d.~ ~ P.d.#.B = $ - 2 ~ d.P.-.d.d.d.d.P.3.d.d.] ] d.d.-.#.d.d.d.] ] -.2 X $ z 5.P.P.d.",
"d.-.-.= X $ 0 d.d.d.d.z #.d.d.d.-.#.d.P.d.d.d.d.#.d.-.d.z 2 ~ d.d.d.d.d.d.] -.d.d.d.d.d.-.-.-.d.-.] d.d.d.d.d.P.5.2 : -.d.d.d.d.",
"-.0 = + X $ 0 5.5.2 B d.-.P.P.d.d.d.d.d.d.] ] d.3 ] d.d.d.d.d.d.P.d.5.d.d.3 -.Y.-.-.d.d.-.n -.d.d.d.-.d.Y.d.d.-.d.d.-.d.d.d.d.] ",
"-.; $ 2 0 ; $ & ; = 4 d.d.d.d.-.L d.d.~ d.] L d.d.d.d.d.d.d.#.L d.d.d.~ ~ d.d.-.d.d.d.d.d.d.d.#.1 c.c.-.d.] ] d.d.P.d.d.d.d.d.L ",
"k.u 5 d.k.2 o + $ 2 d.-.d.] L d.L d.4 : ; -.d.d.P.d.d.d.Y.d.] ] d.d.d.~ ~ d.-.d.B ; ~ d.P.d.d.] L n.-.d.d.#.] d.d.-.d.L ] P.P.d.",
"d.-.-.d.4 0 4 - @ * c.5.d.P.] d.Y.d.#.2 2 -.d.d.d.d.d.d.d.d.d.d.d.d.] d.d.-.B #.0 : z B 5.d.d.d.d.5.d.#.d.d.d.5.c.z d.] 5.d.d.d.",
"d.5.Y.d.-.-.~ = : ~ -.d.-.d.d.-.P.d.d.d.d.d.d.d.d.-.d.P.d.-.] d.d.~ 1 d.d.5.~ = : + - 5 d.d.Y.d.-.*.; 2 -.d.d.d.-.-.d.~ ~ 5.d.] ",
"d.d.d.#.] d.d.d.-.n.d.d.d.d.d.5.d.d.d.d.L d.d.#.-.] ] Y.P.] L d.-.B -.5.4 ~ -.+ X $ - #.d.d.-.5.4 : = 2 n.d.d.P.d.d.L 2 = 2 -.L ",
"] L d.#.L d.d.d.d.d.d.-.n.d.B 2 #.d.d.d.L -.d.c.-.] L d.d.d.d.d.d.d.d.4 - : = + $ ; z -.d.L ] -.0 - 0 ; -.d.d.d.d.d.L 3.0 : ~ d.",
"#.] -.d.d.d.d.P.d.d.d.d.~ 2 - : ~ ] L d.d.d.P.-.-.d.d.d.d.d.d.P.P.-.d.; $ - = $ $ z 5.-.d.] ] -.~ ~ B ~ d.d.d.-.-.d.d.z -.M.-.d.",
"d.d.n ~ d.d.d.d.d.d.d.] z.< X $ 5 -.-.d.d.d.d.d.d.-.~ P.d.] d.d.d.d.z + = 2 #.4 = : n d.d.d.d.d.d.-.B d.d.d.P.#.3 d.d.-.d.5.d.d.",
"d.-.d.d.-.P.#.#.#.] -.1 d.; # > B d.d.-.Y.-.5.~ z 5 0 d.d.1 ~ d.d.B 2 2 B ~ 5.] -.5 ~ d.P.d.d.P.d.-.d.d.] ] d.-.d.d.P.d.d.-.P.d.",
"d.d.d.P.d.d.L #.] ~ B -.c.$ : ~ c.-.d.d.-.d.~ : X : ~ d.d.-.c.d.d.B d.d.d.d.-.d.P.#.-.d.d.d.d.] L d.d.d.] ] d.5.d.d.d.-.L d.5.d.",
"z ; B d.~ #.d.d.d.-.-.0 : $ ; -.5.d.P.d.#.L B : # + = ~ d.d.d.d.d.5.d.d.d.Y.d.d.P.d.d.~ 2 5 -.] ] d.d.Y.-.d.B ; B d.-.d.~ u B -.",
"- + + : 2 2 5.d.P.d.d.~ ; ~ -.d.#.L d.d.d.] -.#.~ 2 z #.d.#.-.d.L ] d.#.~ d.d.#.] d.d.2 @ 5 -.d.d.d.d.d.5.~ - $ z d.3 ] d.; $ 5 ",
"$ # X $ B d.d.d.d.#.~ d.-.d.d.d.d.-.d.~ -.d.d.d.d.d.d.d.-.3 #.d.-.-.d.-.B #.d.] L d.z : : ; -.d.P.P.-.~ B 1 ; ~ d.-.-.5.*.; # + ",
"5 = o $ z d.d.d.d.; ; -.d.-.d.P.d.d.d.B M.d.d.d.-.d.d.P.d.d.d.P.-.d.#.] d.d.n.-.d.-.0 4 #.#.5.-.-.d.-.: $ X % B d.5.d.P.d.~ : $ ",
"k.5 ; z 4 d.-.L #.0 p -.5.P.P.5.d.d.d.d.-.-.d.d.d.d.d.] d.d.d.P.d.d.#.] d.d.n.-.d.d.5.5.d.d.P.d.d.d.-.B = X o : 2 u -.P.d.~ : 2 ",
"d.-.-.-.0 d.d.#.d.d.-.d.d.d.d.3 -.d.5.-.#.d.d.d.3 #.d.d.c.-.d.5.d.d.d.d.d.d.d.d.d.#.-.d.d.-.d.d.#.-.3 ~ = $ - $ X 2 d.5.-.n.#.-.",
"d.d.B ~ #.d.d.d.d.d.d.-.] d.d.-.d.-.B * 2 d.d.d.-.d.d.d.-.-.d.-.M.d.-.d.d.P.d.-.d.L ] d.P.-.d.d.] L d.-.2 2 #.; ; #.d.d.d.-.d.d.",
"] ] d.d.d.d.d.d.d.P.d.-.L d.c.-.d.-.u # $ n d.d.d.d.d.P.d.#.; ; ~ d.d.] ] d.-.d.d.d.d.d.d.d.d.B c.5.d.d.d.5.d.] -.B d.-.L d.-.d.",
"] ] d.L d.d.d.d.d.d.d.d.d.d.~ -.5.n.n.B 0 ~ d.d.P.d.d.P.5.~ # # u -.d.] ] d.d.4 u d.d.P.d.d.z + = B #.L d.d.-.L -.*.d.-.] d.P.d.",
"d.d.d.] d.d.B u d.d.d.d.P.d.d.d.d.#.-.5.5.d.d.L -.d.d.5.2 : 4 2 z d.d.d.d.u z u ~ d.d.d.d.d.~ 2 ; -.-.] d.P.d.d.d.5.Y.d.d.-.d.d.",
"d.P.d.d.-.d.2 = ~ d.P.d.-.d.] d.#.3 d.-.d.-.d.#.] d.d.z = = B d.d.d.d.5.B : + : #.d.d.d.d.L ] d.#.d.d.d.d.d.d.d.d.d.d.-.d.d.] ] ",
"d.d.-.5.~ u = $ 5 ~ ~ d.5.d.L ] d.d.d.d.P.d.d.5.-.B d.z 4 5.-.d.d.d.P.d.~ -.= X 0 d.d.P.-.d.d.d.P.d.d.~ -.d.d.d.P.d.d.d.~ c.L ] ",
"d.d.d.B > $ + + 4 ~ ~ ~ 2 B d.d.d.d.d.d.d.5.4 5 ~ u d.5.d.-.d.L L d.d.d.5.d.0 < 5.d.d.5.5.d.d.d.P.d.B u d.d.d.~ 0 d.-.2 > B d.d.",
"d.d.B 0 # $ + + ; B ~ : : ~ d.-.d.] L d.d.~ : o = 0 -.d.d.P.d.#.] d.d.P.P.-.-.5.-.d.-.n z ] -.d.d.-.~ -.d.d.d.1 4 d.0 $ : d.d.d.",
"] L -.] 1 : : + X = = - ~ 5.d.-.d.d.#.d.~ = $ - 2 5 u 5.-.d.d.d.-.-.d.d.d.d.d.-.P.d.] : $ ; -.d.d.L ] d.d.d.d.] d.n : + - z d.-.",
"-.-.d.d.d.d.c.; $ $ X # B d.P.d.-.-.d.-.B B : c.d.c.-.d.d.d.d.d.B -.d.] ] d.P.P.-.d.~ 0 $ : B d.d.d.-.] d.P.-.d.n.z d.#.z -.d.d.",
"d.d.-.L -.d.c.~ : ; ; ; z d.d.d.d.d.d.d.5.#.#.d.-.d.d.n.-.d.d.P.d.d.d.] ] d.P.d.d.#.5 $ $ 0 d.d.-.#.d.d.d.5.5.d.d.5.d.d.d.d.c.#.",
"d.d.d.] d.B z : : d.-.d.5.d.d.#.B d.d.L ] d.d.-.d.d.d.4 ~ d.d.d.d.d.-.d.d.d.d.-.d.u z = + , #.5.#.-.d.-.5.B B d.d.d.L ] d.5.u B ",
"d.z z d.d.-.~ 2 B d.-.-.-.d.~ : # u #.] -.d.-.-.P.d.d.] #.d.-.3.-.5 B 5.n.-.d.#.-.#.-.B 5 B -.d.d.5.-.; + $ : B d.d.] -.d.d.-.-.",
"d.~ : ; z d.d.d.d.P.-.-.B d.d.~ ; : 1 d.d.P.-.d.d.d.d.d.d.d.L 1 , $ -.~ 2 ~ d.] L d.d.d.-.d.d.] d.-.z : $ X ; n.P.-.d.d.d.P.d.d.",
"d.c.: = z d.L ] d.d.d.d.d.] ] d.-.c.d.d.d.d.d.L ] d.d.P.#.d.M.: $ $ ; = O u d.d.d.d.P.d.-.-.-.L d.n.-.z - ; ~ 5.-.d.d.d.d.d.d.d.",
"d.-.z d.d.d.] ] d.5.d.P.d.] ] d.P.d.-.d.d.d.d.] ] d.d.~ #.d.n.B = X $ : z ~ d.-.d.d.P.d.d.P.d.d.d.d.d.B B d.d.-.0 ; u -.d.L L d.",
"d.d.d.d.d.P.d.c.] *.-.d.-.d.d.d.d.d.d.d.P.#.z B -.-.5.B c.d.#.5.~ # $ 5 k.d.-.B d.d.d.#.#.d.d.d.d.P.d.5.d.-.-.4 . + , -.d.] #.d.",
"-.P.d.d.d.d.5.0 + 2 -.d.-.-.d.d.d.#.] d.d.d.; $ *.] 3 d.-.d.d.d.u : = : B d.-.-.d.d.#., B 5.-.-.] d.d.-.d.d.B : @ o 2 d.-.-.5.d.",
"5.d.d.] L d.B - ; 2 ~ d.5.d.P.d.d.] L d.] ; + = #.d.d.d.d.P.d.-.u ~ ~ z d.d.d.d.] ] -.z d.d.z.] L d.d.d.] ] d.-.5 : 0 d.c.z z -.",
"u ~ d.#.L d.5 2 5.d.-.d.B ~ d.d.5.d.d.d.z + = -.5.d.d.d.d.P.d.d.5.d.d.d.d.#.3 d.] ] d.d.5.z 2 d.d.d.P.d.] ] d.d.5.#.#.d.d.; $ ; ",
"+ z 5.d.d.d.-.5.d.P.d.-.c.~ d.#.n -.d.d.~ ~ ~ d.Y.d.d.~ #.5.d.d.-.] 3 d.d.d.] -.d.d.d.d.d.~ ; = z d.d.d.d.d.d.P.-.d.d.#.5 : X $ ",
"; u -.d.-.#.d.#.d.d.d.d.d.5.#.= $ u *.d.d.d.d.-.d.d.~ : : ~ -.P.d.-.#.d.P.d.d.d.5.P.d.3.4 B ; O - z -.d.-.-.d.d.d.#.-.n.~ 5 $ : ",
"0 #.d.d.*.c.d.d.d.d.] ] d.-.5 : * B d.-.P.-.-.d.d.d.~ 5 - 0 d.d.d.d.d.-.-.d.5.#.4 d.d.] 1 : X + ; ~ #.5.~ c.d.d.d.L ] d.#.; 0 -.",
"5.d.d.d.5.-.-.P.d.] 3 ] -.5 5 d.~ d.d.d.d.-.d.L ] d.d.~ 0 #.d.d.d.c.-.d.d.-.z 2 B d.-.-.d.: ; #.z 5.d.d.d.d.5.-.z d.d.d.d.d.d.d.",
"d.d.d.-.~ 0 B 5.d.] ] -.B B ~ d.d.d.d.-.z #.d.] ] d.d.~ -.d.] L d.~ d.4 B 5.$ = 5.d.d.P.-.B -.d.d.d.-.3 -.d.B 0 z d.d.d.d.L L d.",
"-.#.d.~ : : 0 d.-.d.d.-.-.d.d.d.d.d.d.3 ~ d.5.d.d.d.P.d.d.d.#.] d.d.4 = + + - - z d.-.d.d.d.d.d.d.d.d.] d.-.= + #.d.Y.d.d.] #.d.",
"] L d.2 X 5 d.d.d.d.d.d.d.d.d.d.Y.d.d.-.d.d.#.~ -.5.d.d.d.d.d.d.d.#.z ; X $ $ u 5.B #.d.d.d.Y.d.5.~ -.d.d.c.; ; -.d.-.d.d.d.d.d.",
"d.d.d.5 u u B d.d.d.5.-.~ -.-.d.d.d.d.d.d.k.c.: z B d.d.L ] d.P.d.d.~ 0 B z # = < #.d.d.d.] #.d.~ 0 -.d.d.d.d.-.d.d.d.d.d.P.d.d.",
"d.P.-.~ 5.-.-.] L d.z ; = u M.d.d.d.P.-.~ 2 % # : B d.d.L #.d.d.d.-.~ -.5.d.= + 2 ~ d.d.d.] #.d.~ #.5.d.d.P.d.d.d.M.z #.d.d.d.d.",
"d.d.d.d.#.] d.-.#.d.5 $ @ : d.-.d.d.d.d.5 - + $ @ = B d.d.-.d.d.-.Y.d.d.d.B ~ 4 n.d.-.#.d.d.-.-.d.d.d.] d.d.d.] 3 -.~ c.-.d.L ] ",
"d.d.*.-.] L d.d.d.n.; ; 2 $ 0 z ~ d.d.d.-.c.B 0 = + 0 5.-.B -.d.d.d.d.-.-.-.d.d.d.d.-.z 5.-.> u 5.d.#.3 d.5.d.d.#.d.d.d.-.d.-.d.",
"d.d.n.-.d.d.d.P.d.d.d.5.~ : 4 5.3 #.P.d.d.d.d.~ #.B 5.d.d.d.5.#.B #.d.#.M.d.d.] ] d.d.d.-.; $ : ~ d.d.d.d.d.d.d.5.5.4 #.5.d.d.d.",
"d.~ & 2 d.d.d.d.d.d.d.d.#.~ 5.d.d.d.P.d.] L d.c.-.5.d.P.d.d.*.; + ~ d.d.d.d.d.] ] d.d.-.n = X ; B d.P.d.d.d.d.-.z 5 $ 5 z B d.d.",
"z = # 2 -.-.u -.5.P.P.-.d.d.-.d.~ u #.d.-.] d.d.d.-.d.d.-.n : + X ; B d.d.3 ] d.d.P.d.-.~ ~ ; 2 d.d.d.-.d.L ] d.z $ + z c.~ d.-.",
"c.: ; ; B d.#.-.d.#.#.d.d.P.-.B - = z d.d.d.d.d.~ -.d.d.d.-.; + : 4 ~ ~ d.] 3.d.-.d.d.d.d.d.c.#.#.#.d.-.B ~ #.-.#.z : ~ d.d.3 ] ",
"d.5.: B 5.-.5.5.-.] ] d.d.d.d.-.= X $ u ~ d.] ] B #.d.] ] d.z 0 5.5.~ z d.d.d.d.5.5.5.d.P.-.d.d.L L d.-.= + z ~ z d.d.c.-.d.d.d.",
"d.d.B #.d.P.d.z = 0 B -.] L -.z - + $ ; c.d.] ] d.d.d.] ] -.c.#.d.-.d.d.-.d.P.d.~ n B -.d.d.c.-.d.d.d.2 + = 4 d.d.d.d.d.d.d.d.d.",
"3 d.5.d.d.d.d.4 = $ u d.#.] B + $ : B ~ 5.-.d.d.-.d.P.d.d.-.5.d.d.P.d.L L d.-.5.0 $ : -.] P.M.#.d.d.z $ $ - z -.d.L ] d.-.d.d.3 "
};
