/* XPM */
static const char *battlefield_64[] = {
/* columns rows colors chars-per-pixel */
"64 43 178 2 ",
"   c #251B12",
".  c #2B1E13",
"X  c #252017",
"o  c #2D2015",
"O  c #272318",
"+  c #2E251B",
"@  c #342315",
"#  c #3A2616",
"$  c #3D2817",
"%  c #332619",
"&  c #392718",
"*  c #35291C",
"=  c #3D2A1A",
"-  c #3C341C",
";  c #332B20",
":  c #3C2D20",
">  c #3C3023",
",  c #363228",
"<  c #442A15",
"1  c #4B2D14",
"2  c #432D1A",
"3  c #492F19",
"4  c #45321D",
"5  c #4C321D",
"6  c #45391E",
"7  c #4C391F",
"8  c #513116",
"9  c #593211",
"0  c #52361E",
"q  c #58371D",
"w  c #56381F",
"e  c #5A3A1F",
"r  c #603E1F",
"t  c #443322",
"y  c #4B3521",
"u  c #423822",
"i  c #4E3A24",
"p  c #453728",
"a  c #44392A",
"s  c #4C3C2A",
"d  c #513720",
"f  c #563920",
"g  c #523C20",
"h  c #553C20",
"j  c #553D20",
"k  c #573C20",
"l  c #553D25",
"z  c #563C24",
"x  c #553A21",
"c  c #583920",
"v  c #583A20",
"b  c #593A20",
"n  c #583B20",
"m  c #593B20",
"M  c #593B21",
"N  c #5A3A20",
"B  c #5A3B20",
"V  c #5B3B20",
"C  c #5A3B21",
"Z  c #583B22",
"A  c #5B3C20",
"S  c #5A3C21",
"D  c #5B3C21",
"F  c #5A3D21",
"G  c #5B3D21",
"H  c #583C22",
"J  c #5A3C22",
"K  c #5B3C22",
"L  c #5A3D23",
"P  c #5B3D22",
"I  c #5B3E23",
"U  c #5C3C20",
"Y  c #5C3C21",
"T  c #5D3C21",
"R  c #5C3D21",
"E  c #5D3D21",
"W  c #5D3D20",
"Q  c #5E3C20",
"!  c #5E3D20",
"~  c #5E3D21",
"^  c #5F3D21",
"/  c #5E3E21",
"(  c #5F3E21",
")  c #5F3F21",
"_  c #5C3D22",
"`  c #5D3D22",
"'  c #5E3D22",
"]  c #5C3E22",
"[  c #5D3E22",
"{  c #5C3F23",
"}  c #5E3E22",
"|  c #5F3E22",
" . c #5E3F22",
".. c #5F3F22",
"X. c #5F3F23",
"o. c #583D24",
"O. c #593E24",
"+. c #5C3C21",
"@. c #533F2A",
"#. c #603F21",
"$. c #613F21",
"%. c #613E20",
"&. c #623F20",
"*. c #603F22",
"=. c #613F22",
"-. c #603F22",
";. c #66411F",
":. c #4F412E",
">. c #554021",
",. c #5A4022",
"<. c #5E4022",
"1. c #5D4025",
"2. c #5E4226",
"3. c #5E4124",
"4. c #53412C",
"5. c #5C432A",
"6. c #4A4233",
"7. c #4D4332",
"8. c #534734",
"9. c #534430",
"0. c #5C4730",
"q. c #554936",
"w. c #5E4B33",
"e. c #544A38",
"r. c #5B4E39",
"t. c #5B4D38",
"y. c #604022",
"u. c #614022",
"i. c #614023",
"p. c #614123",
"a. c #604023",
"s. c #624022",
"d. c #634022",
"f. c #624122",
"g. c #634122",
"h. c #624123",
"j. c #634123",
"k. c #634223",
"l. c #624323",
"z. c #644223",
"x. c #654223",
"c. c #654323",
"v. c #674323",
"b. c #604024",
"n. c #614124",
"m. c #634224",
"M. c #644224",
"N. c #654324",
"B. c #664324",
"V. c #664424",
"C. c #674424",
"Z. c #674425",
"A. c #674525",
"S. c #644527",
"D. c #634123",
"F. c #684424",
"G. c #684524",
"H. c #694524",
"J. c #684525",
"K. c #684625",
"L. c #6A4625",
"P. c #6B4725",
"I. c #694726",
"U. c #694524",
"Y. c #6C4826",
"T. c #6C4926",
"R. c #604429",
"E. c #624528",
"W. c #61452B",
"Q. c #644629",
"!. c #634528",
"~. c #684C2D",
"^. c #634F36",
"/. c #644C31",
"(. c #684E30",
"). c #665036",
"_. c #6D5334",
"`. c #67553B",
/* pixels */
"T w w 0 5 5 5 < 4 2 @ = 3 4 0 e *.*.x.*.b w T *.b b y.w S T T T b I.B.*.y.k w w x T x.y.b 5 5 0 e *.*.*.T *.b T x 5 2 4 0 T b b ",
"b 0 e e 0 0 y 0 e w 2 0 w 0 w T x.y.b T y.S 0 T T T y.,.i 0 *.T b T 0 g i 7 0 b w S T w 2 2 0 A._.E.*.x.x.T 0 0 3 2 5 x b y.T T ",
"T w T x 5 w w 0 T T x T 0 5 T y.B.y.S *.2.= 2 T y.T b 0 7 5 S B.b 0 7 - * 5 y.5 5 T 5 2 2 5 b s 8.i y.T y.m.w 2 2 5 e *.*.x l T ",
"T k 5 5 T T T S y.S x T w w b T S x.y.y t 4 x T *.S x b *.x x y.T S x 6 7 <.T = 2 0 2 5 0 *.S e w *.y.y.B.5 4 2 5 B.Q.^.E.e 0 b ",
"k 6 6 T m.*.S T T w T y.y.T y.T b 0 y.S b *.y.w = 2 *.y.b # 2 5 # 2 *.*.T T T b w 4 2 0 y.*.T y.I.T T I.S 2 2 2 5 l t.6.> w b b ",
"T T w 0 b b b y.x.A.I.A.T x.T T S = = T b x b 0 $ = S T <.b 2     @ 2 S T T y.w 2 4 5 T b b m.y.B.I.I.0 2 2 2 w b 5 = * 5 b T b ",
"y.*.E.T y.y.T y.S 2 = 2 = 2 2 w w = 3 2 @ w T T T o.T B.y.2.5 # # 4 5 x b *.T 4 4 5 x.x.x.y.S y.x.I.w 3 2 2 b I.S w V T x l y.T ",
"x.x a 4 T A.b = @ @ . @ @ @ = & 5 * 5 0 5 b T S S b $ 5 w x w b 0 b e T *.I.5 2 5 b A.A.<.T I.A.x.w 4 5 5 x.Y.I.A.T m.i x 0 o.y.",
"b T 5 5 w x 4   . @ . . @ @ @ 2 = = 5 w y.T <.m.x.5 2 w T b B.*.b { A.x.B.y.4 2 5 T T T T y.A.b 0 2 5 5 T I.I.x.o.l x x 5 5 d y.",
"w T B.*.T b @   @ @ .   . o = 5 2 5 b T b S x x.A.y.y.y.T k k x.y.b l z x.b 2 5 b b y.*.y.y.y.w 2 5 5 T y.y.2.T.5 w 5 $ % 2 5 x.",
"y.y.0 0 T y.2 . # @ .   X O $ 2 2 5 5 0 5 5 e y t.w.x b x = = b T x.b S y.b S y.T w 2 5 T x.T 4 5 2 b *.0 x l l 5 5 = $ 4 b y.y.",
"x.S @ = w w T 2 @ # . O % % & 2 5 0 w b T *.T x y t 5 S = 4 e *.A.x.x.S 0 T x.e T e 5 w y.x.0 4 4 0 *.T < 2 e t 5 & 5 *.Q.m.x.*.",
"S 0 w S S e b 5 2 2 & $ @ = 3 5 w 0 0 b g k S T S 0 T T V b w m.o.*.5 . @ 0 w S y.B.x.A.B.T 5 5 5 y.T T $ o 2 2 2 x T 5.q.y w b ",
"T S { x 5 w 2 0 S 0 5 0 S 5 x 5 0 x w b 7 6 7 b = 5 0 2 w T y.*.V w 2 @ = 5 b x.T @.d x.y.0 0 5 e x.T w 2 $ = 3 *.x.x 5 2 5 x b ",
"T b x T e 0 S b 5 T 0 b T w 5 5 w d b x T b T S 0 2 . . 2 x *.y.b 5 0 5 w e y.b e w T y.b 5 0 0 e x T T k w 0 /.).E.T m.T T x x ",
"b x T T b ;.0 b b 5 w b w T w w T x.y.b T e w T b 0 2 2 5 0 x *.T b T b T y.x.2.l S b T b w e T x.b w x e T S 9.6.t w 4.t T T y.",
"T T S x T 5 4 x e 2 5 0 T B.*.T *.T B.I.y.E.T A.x b e 0 x B.b 0 y.x.y.T m.T y.d x T T T x w S T y.T u u @ T *.e 5 0 m.b S y.B.y.",
"x.y.T S A.T *.b b 4 5 w T 5 0 S b x w *.l 7.y t t x T S S ,.S b T <.y.T T y.I.y.x T T x d T T T *.T = O $ x S y.B.x.T I.T w b S ",
"T b e x.b 0 w = @ + 2 w 2   2 w T T x x b d 5 * 3 b 0 x 6 6 6 T T T 0 # 5 T y.2.T T T e x.T 5 w T b b 0 S S B.x.T q < q 3 0 w b ",
"w w e S w w 2 . o @ 2 w b x b b T 5 ; ; 5 b q 9 2 5 0 T S x k x x w = @ 5 w b l T T S y.y.5 # 5 V x w T b b y.T w w T e T x.T T ",
"A.w 2 5 w w 0 5 2 5 0 w A.y.T y.w 0 5 2 V 5 < 1 @ 0 e S b e x 0 b b 0 w b e 5.i S B.x T *.T T e S S w $ = b x.T A.y.T T T i d T ",
"S x 0 2 $ 5 x x T T x b y.y.l 0 b T y.T w 5 5 3 2 S T x S S b T S x y.x S y.x 5 T *.b T x S S x T *.0 5 0 T T y.A.5.S b b 4 4 T ",
"T *.m.S d w T e e T T *.B.y.e b T x T b 0 T T T w b y.I.x 0 T 2 x S *.T b y.T b x w 2 2 5 5 w 5 e x.y.m.T y.I.x.y.x b S T >.k T ",
"V w y y x q *.(.5.w 0 b S $ o 2 5 x b w 7 6 7 w b y b 5 . @ 4 5 T T 0 w x T S d 0 @   @ = 0 b e T x b x.A.y.A.~.<.e 8 0 i - 6 S ",
"b T S y T E.`.e.t 0 0 e 2   . @ 4 0 y y.S 7 5 x S T T 2 . $ 2 5 e b d y b T x x w # @ 2 5 3 0 T 0 0 0 y T y.o.s b b 0 T w 0 b T ",
"x.y.y.x.T x p 3 0 0 0 e 5 4 4 3 5 0 x T *.y.5 5 x *.b b 5 5 5 w b y t 5 e T x T S 0 0 0 0 5 b b w x t 2 0 T T *.*.*.<.0.@.b y.T ",
"T T l x y.T e I.x.T 0 T *.*.b 0 w 2 @ 5 T b 5 5 e *.T b b T *.I.S T T o.(.1.V b S T w w b *.b 3 8 0 5 b *.0 b y e S 0.7., % w S ",
"T T x S B.x T T w 2 = w b x T T w 4 2 0 T b S T T T b T S T T T T T y.i a 4 w b T x.T b *.T w 0 4 < e *.e 0 T 5 0 5 p a % = w T ",
"b x T x 2 2 5 S 0 @ @ 5 w b b w 5 T *.b T b 2 2 0 0 x T y.T w 0 5 w w w 0 S T b x v.*.x.B.k T x.2.T *.*.k s @ 0 2 0 e 5 0 S b b ",
"b y.T 2 . @ 5 *.x w w b x 5 T T T b b y.w .   . = w w x y.T x b w @ o @ 5 S *.*.x b S I.B.*.2.S S y.x.T 4 O   2 b *.e x.y.T S b ",
"x.y.T 0 4 b 0 w x w y.x.x e T w x w 0 0 5 . . @ 2 5 4 w 5 T A.*.0 $ $ 2 5 0 T w T y.S S T l b b T <.b w w 5 0 b l k 5 < 5 w 5 T ",
"*.T T w T x.B.y.e 0 y.S y.*.b 5 : 5 w w 5 5 5 5 0 0 0 w w x.I.*.T w 0 w 0 w T b B.*.*.b x 0 T T *.T b T y.B.A.T T y.T b T T y.y.",
"T y.E.5.T 2 4 0 S *.5 = 5.l w 0 * $ 0 5 5 0 w w e x e 5./.x w y.y.x T y.T S b y.e 2.4.0 S y.m.w 0 3 0 T T T y.x x x y.T T 5.5.V ",
"*.S :.i w 5 2 $ 2 0 b e i 2 0 4 + 2 w 0 0 b b T T b T i 7.t e y.e 0 x y.y.S e 0 0 5 4 w x.Y.l b 0 @ 4 y.m.x S x 4 2 b 5 b x x y.",
"b b 0 e b y.T e e e T 0 e e 5 = % 5 b w b T o.s e <.*.T 5 0 T T 0 3 1 w e e 5 = $ @ 2 w x d *.T w b w *.T S S T *.T x b B.S S A.",
"T w b 0 e x 5 x e w w 0 d 5 4 * * 0 0 5 b S w 5 e e y d y.*.b x e b w T T 0 5 = @ # 2 5 w b y.b 5 x x.b S x q q 0 4 0 w w T B.*.",
"T T S y t = 5 d w b b x 5 5 2 1 o 2 w e e w o./.9.5 5 0 T 2 2 w y e b S T w 5 2 2 5 5 5 b T g 0 0 w b y b 0 2 < @ @ 2 3 0 T y.T ",
"T T T 4 = > 0 *.S x T b w 5 2 $ # 5 5 b b w p 7.a = w b 5 @ = 5 w w w x b 0 w w 0 5 x b b x 6 6 7 5 y 5 T S 3 # # $ = 3 0 b T *.",
"V T x w e e S T e 5 < w 0 q 0 5 5 e b x w w 0 = 5 0 e w 0 w e b T S 0 2 5 w S S b x T T T k 0 0 0 e 0 b T x 5 2 2 2 5 e b w b T ",
"b b T y.T *.q 8 # @ $ w 2.5.e 0 i 4.x T e x x *.*.x 0 4 w w y d e w # . 2 0 S p 5 m.x x 0 b S b (.4.0 e 0 b S w 0 w x w.s 0 b x ",
"b T S T w 0 # @ = 2 5 e l t 0 *.0 2 e T y 0 T S w S S x 0 5 5 w w w 0 5 w 0 x w b y.T d T x T x :.t 0 e 8 3 b T S T d t 3 0 T b ",
"b b b T w w w d 5 0 w b w e T T e w T x b T T x 4 w 7 6 6 0 x x b 0 b b *.y.b T S S S T T T w T 0 e y.T e 5 b T T b w *.T T T b ",
"*.T T T y.T T b T y.x.x.y.y.*.w b w b T *.b w b b T T x b S b x w T T *.T B.x.y.T b S T b b b T T T y.T T y.T *.y.y.*.y.T y.b b "
};
