/* XPM */
static const char *floor_2[] = {
/* columns rows colors chars-per-pixel */
"64 64 179 2 ",
"   c #383736",
".  c #393736",
"X  c #3D3B3A",
"o  c #3D3C3A",
"O  c #3D3C3B",
"+  c #3E3C3B",
"@  c #3F3D3C",
"#  c #3F3E3C",
"$  c #403E3D",
"%  c #403F3D",
"&  c #413F3E",
"*  c #41403E",
"=  c #41403F",
"-  c #42403F",
";  c #42413F",
":  c #43413F",
">  c #434140",
",  c #434240",
"<  c #444240",
"1  c #444241",
"2  c #444341",
"3  c #454341",
"4  c #454342",
"5  c #464342",
"6  c #454442",
"7  c #464442",
"8  c #464443",
"9  c #474443",
"0  c #464543",
"q  c #474543",
"w  c #474544",
"e  c #474644",
"r  c #484544",
"t  c #484644",
"y  c #484645",
"u  c #494645",
"i  c #494745",
"p  c #494746",
"a  c #4A4846",
"s  c #4B4846",
"d  c #4A4847",
"f  c #4B4847",
"g  c #4A4947",
"h  c #4B4947",
"j  c #4C4947",
"k  c #4B4948",
"l  c #4C4948",
"z  c #4C4A48",
"x  c #4D4A48",
"c  c #4C4A49",
"v  c #4D4A49",
"b  c #4D4B49",
"n  c #4E4B49",
"m  c #4D4B4A",
"M  c #4E4B4A",
"N  c #4E4C4A",
"B  c #4F4C4A",
"V  c #4F4C4B",
"C  c #4F4D4B",
"Z  c #504D4B",
"A  c #504D4C",
"S  c #504E4C",
"D  c #514E4C",
"F  c #514F4C",
"G  c #514E4D",
"H  c #514F4D",
"J  c #524F4D",
"K  c #52504D",
"L  c #52504E",
"P  c #53504E",
"I  c #53514E",
"U  c #53514F",
"Y  c #54514F",
"T  c #54524F",
"R  c #545250",
"E  c #555250",
"W  c #555350",
"Q  c #555351",
"!  c #565351",
"~  c #565451",
"^  c #565452",
"/  c #575452",
"(  c #575552",
")  c #575553",
"_  c #585552",
"`  c #585553",
"'  c #585653",
"]  c #595653",
"[  c #585654",
"{  c #595654",
"}  c #595754",
"|  c #595755",
" . c #5A5754",
".. c #5A5755",
"X. c #5A5855",
"o. c #5A5856",
"O. c #5B5856",
"+. c #5B5956",
"@. c #5C5956",
"#. c #5C5957",
"$. c #5C5A57",
"%. c #5D5A57",
"&. c #5D5A58",
"*. c #5D5B58",
"=. c #5E5B58",
"-. c #5E5B59",
";. c #5F5B59",
":. c #5E5C59",
">. c #5F5C59",
",. c #5F5C5A",
"<. c #5F5D5A",
"1. c #605C5A",
"2. c #605D5A",
"3. c #605D5B",
"4. c #605E5B",
"5. c #615E5B",
"6. c #615E5C",
"7. c #615F5C",
"8. c #625F5C",
"9. c #625F5D",
"0. c #635F5D",
"q. c #62605D",
"w. c #63605D",
"e. c #63605E",
"r. c #63615E",
"t. c #64605E",
"y. c #64615E",
"u. c #64615F",
"i. c #65615F",
"p. c #64625F",
"a. c #65625F",
"s. c #66625F",
"d. c #656260",
"f. c #666260",
"g. c #666360",
"h. c #676360",
"j. c #666361",
"k. c #676361",
"l. c #676460",
"z. c #676461",
"x. c #686461",
"c. c #686561",
"v. c #686462",
"b. c #686562",
"n. c #696562",
"m. c #696662",
"M. c #696663",
"N. c #6A6663",
"B. c #6A6763",
"V. c #6A6764",
"C. c #6B6764",
"Z. c #6B6864",
"A. c #6B6865",
"S. c #6C6865",
"D. c #6C6965",
"F. c #6C6966",
"G. c #6D6966",
"H. c #6D6A66",
"J. c #6D6A67",
"K. c #6E6A67",
"L. c #6E6B67",
"P. c #6E6B68",
"I. c #6F6B68",
"U. c #6F6C68",
"Y. c #6F6C69",
"T. c #706C69",
"R. c #706D69",
"E. c #706D6A",
"W. c #716D6A",
"Q. c #716E6A",
"!. c #716E6B",
"~. c #726E6B",
"^. c #726F6B",
"/. c #726F6C",
"(. c #736F6C",
"). c #73706C",
"_. c #74706D",
"`. c #75726E",
"'. c #76726F",
/* pixels */
"e.l i.G.G.G.G.A.C.G.P.E.G.G.E.G.C.E.E.G.C.G.G.G.G.G.l.N.E.P R E.G.G.G.N.G.G.G.l.G.G.G.G.G.G.E.G.l.i.u 8.G.G.G.G.C.G.G.N.G.G.G.N.",
"E.5.u i.E.G.G.G.G.Y.G.G.G.G.G.G.N.G.G.G.N.G.G.G.G.G.G.P.N.P j.A.N.G.G.G.G.G.G.G.G.C.C.G.E.G.G.G.E.,.a G.G.A.j.C.N.G.G.A.G.Y.G.R ",
"G.E.Z P P.G.G.G.G.Y.G.G.G.G.G.G.G.G.G.G.G.G.C.G.C.N.Y.C.Y C.Y.C.C.C.G.G.G.G.N.A.G.N.N.G.Y.G.G.G.j.l j.G.G.A.N.G.G.P.i.P C.N.H { ",
"G.E.^ a A.Y.G.G.G.G.G.G.G.N.G.G.C.E.Y.G.G.G.G.G.G.N.G.N.l G.G.G.E.G.G.A.G.G.C.G.G.G.G.A.G.G.A.).e.k ).G.C.G.G.A.G.O.o o $ R e.N.",
"G.G.Y.l w i.G.G.G.G.C.A.G.G.G.N.C.G.P.P.G.G.E.P.G.N.N.A.a G.G.G.G.(.G.l.G.G.G.G.Y.G.G.N.A.G.E.e.V u N.G.N.G.P.-.a $ H j.i.C.G.G.",
"G.G.Y.l.H - R N.G.G.Y.G.G.N.N.N.E.G.E.E.G.G.Y.G.G.G.E.O.< P.G.G.G.G.G.G.G.G.P.G.P.N.G.G.E.C.%.< P H u G.E.G.N.u l -.E.G.N.G.G.Y.",
"N.G.G.G.Y.8.9 -.E.G.G.G.G.C.C.G.Y.G.G.G.G.G.G.E.G.G.A.a R N.G.A.N.P.A.A.G.G.G.G.A.N.P.e.V a < 5.E.C.P u { A.a ] E.E.G.G.N.G.G.G.",
"A.G.G.G.l.E.A.u { E.N.N.G.G.N.C.G.Y.Y.G.A.G.G.G.G.G.G.k l.G.A.A.N.G.C.G.Y.E.G.G.G.G.N.u Y N.N.G.G.G.G.i.,.> l C.G.C.N.G.G.G.G.G.",
"P.G.G.G.A.G.Y.O.9 { N.E.E.G.G.G.G.G.G.A.N.G.N.N.C.N.,.l G.P.l.A.G.G.G.C.G.G.N.C.G.G.] P P.E.G.G.G.j.N.Y.E.Y O.E.G.P.A.G.C.G.P.G.",
"G.G.N.C.G.C.N.E.8.> V P { Y.Y.G.G.G.G.G.G.G.Y.G.l $ $ w ^ A.G.G.G.G.G.N.G.Y.N.C.P.e.Z N.G.G.G.G.A.N.G.G.Y.V R G.G.C.N.G.N.Y.E.G.",
"G.G.C.A.Y.Y.N.G.G.e.< H P k ^ A.G.G.G.G.P.N.R k 9 O.-.{ < 5.N.G.G.G.G.G.G.G.G.G.G.u P G.G.Y.Y.P.G.A.G.P.i.< i.C.G.G.G.G.G.G.N.N.",
"l.Y.E.G.G.P.A.G.G.e.< j.E.] $ H N.Y.G.G.] u R e.N.E.C.E.-.H E.G.G.G.G.G.G.E.G.Y.i.H i.Y.G.G.G.G.G.A.G.N.Z l E.G.G.Y.G.G.G.G.G.G.",
"G.G.G.G.G.G.G.A.j.P { P.G.E.5.u 9 %.N.R u 5.G.P.G.G.A.G.e.k e.G.A.N.P.G.G.P.G.] l 8.G.G.C.N.G.j.N.N.G.G.-.l E.G.A.N.G.G.G.G.E.Y.",
"G.G.G.G.G.G.G.E.i.< l.C.A.G.G.G.5.9 X H G.Y.E.G.G.G.G.P.P.e.$ %.Y.N.N.G.l.j.P 9 C.Y.G.N.G.G.G.G.G.G.G.E.8.V E.G.G.G.G.N.G.G.G.G.",
"A.N.G.N.G.G.G.e.a { G.G.G.G.G.G.P.N.Y N.G.G.Y.G.G.E.G.Y.G.G.{ l A.G.A.G.9 a ^ N.G.G.G.P.G.G.N.C.A.N.G.N.] u A.P.G.A.C.N.G.G.G.G.",
"G.N.G.G.N.N.Y.9 R G.G.G.G.G.N.C.G.P.G.G.G.G.G.G.G.P.G.N.G.G.j.R H G.e.w - j.G.G.l.G.P.G.G.G.C.A.G.C.A.C.-.l A.G.G.N.l.P.G.N.G.G.",
"G.G.G.G.G.G.l ^ P.G.A.N.G.G.G.G.G.G.G.C.G.Y.E.G.G.G.G.j.G.G.G.N.l $ - o l.E.G.G.G.G.G.E.P.P.G.Y.G.G.A.G.N.# H A.G.P.G.G.P.G.G.G.",
"P.G.P.P.C.V u i.G.G.G.N.G.P.Y.G.G.G.G.N.G.G.G.G.G.G.G.G.G.G.G.G.> P i.a N.G.G.G.G.G.G.G.G.E.G.N.G.E.G.G.%.9 9 l.E.G.G.G.G.C.C.G.",
"l u e.8.u %.P.N.N.G.G.G.G.G.P.G.G.A.N.G.G.C.N.P.G.G.l.C.G.G.G.] ] G.E.^ l j.G.G.A.N.G.G.G.G.G.N.G.Y.P.l.u 5.l > i.P.G.G.G.G.G.N.",
"5.-.l l i.E.G.G.G.E.G.G.G.G.G.l.G.G.G.G.G.A.C.P.E.G.C.A.G.N.l.l A.A.i.l.a A.Y.G.A.N.G.G.N.j.G.P.G.G.P a 5.E.N.H > u -.A.N.G.G.A.",
"E.G.j.V N.G.G.E.G.C.G.G.i.G.G.G.G.G.E.G.A.G.G.R A.G.G.G.A.E.H Z G.A.A.A.] j.E.A.N.G.G.G.G.C.G.G.E.,.u l.G.N.G.C.j.j.O.l l l i.E.",
"G.P.E.j.V P.G.G.G.G.P.G.N.G.G.G.G.G.G.G.G.A.G.O.R G.G.G.E.N.H N.G.G.G.Y.8.9 G.G.G.G.G.G.E.G.G.G.E.O.P (.N.N.N.C.Y.P.G.G.C.{ l ,.",
"G.P.P.N.^ 8.N.G.G.G.G.G.Y.G.N.A.G.G.A.P.G.Y.E.N.u ] E.P.{ H l.G.G.G.N.G.G.a R ).G.G.G.A.N.G.G.G.E.R H E.G.G.G.G.G.E.G.G.G.G.] P ",
"N.G.G.Y.i.a C.G.G.Y.E.G.P.E.A.G.G.G.A.G.G.P.E.N.N.Y l a V j.E.G.G.G.C.A.E.j.9 u P l.N.G.G.P.N.G.R l N.G.G.G.G.G.G.Y.G.N.C.G.E.N.",
"A.G.G.P.,.> %.C.P.G.G.G.G.E.E.A.G.G.Y.P.A.N.G.G.P.C.9 a G.E.G.G.C.G.G.G.C.E.^ - P a 9 %.A.G.P.i.$ { E.G.G.G.G.G.G.C.E.G.G.G.G.A.",
"G.G.G.G.u w > R N.E.G.G.E.A.G.N.G.G.C.G.G.G.P.G.C.(.P ^ E.Y.G.G.N.G.G.G.A.%.u N.E.E.8.$ < O.N.< %.E.P.P.G.A.G.G.C.N.G.G.G.E.G.G.",
"G.G.G.H l G.l.V < H i.E.Y.G.G.N.A.G.A.G.G.G.E.G.P.j.V j.G.G.G.G.G.G.G.A.8.a e.G.Y.P.P.i.H   $ ^ G.P.E.G.G.G.A.G.G.G.G.G.G.E.G.l.",
"P.G.H ] G.G.P.G.,.H l i.G.G.A.C.G.G.P.G.G.C.A.G.(.%.{ Y.G.G.A.E.P.G.G.A.{ O.E.C.G.G.G.Y.G.j.V j.P.C.G.G.G.G.G.j.A.G.G.l.j.G.G.C.",
"N.H P E.G.G.C.G.Y.E.O.- G.E.j.G.E.G.C.G.N.N.N.E.e.H i.E.E.G.G.G.G.G.G.N.R i.N.N.A.G.A.A.G._.V H E.E.G.G.A.G.G.G.G.G.G.P.P.E.G.G.",
"a ] E.G.Y.G.N.N.N.G.Y.V { E.G.G.G.N.N.G.P.G.G.8.u { Y.E.E.E.E.N.G.P.E.l.u N.Y.G.G.G.G.G.G.Y.-.u ^ ^ l.G.j.Y.E.G.G.G.G.A.G.G.G.G.",
"i.E.G.G.N.G.G.G.N.G.G.j.j C.E.G.G.G.G.G.G.G.E.9 ] E.G.N.A.G.G.G.G.Y.E.N.u Y.Y.G.G.N.E.G.G.G._.u a ^ H l.Y.P.P.G.G.G.G.j.A.G.N.A.",
"P.G.G.G.C.G.G.G.G.G.G.Y.Y u i.).Y.G.G.Y.G.G.] ^ C.G.G.N.G.G.G.N.G.G.Y.H R N.N.G.G.A.G.A.G.P.8.H G._.i.a i.G.G.A.l.G.G.G.A.G.A.G.",
"G.G.G.G.G.P.G.G.N.A.Y.%.< 9 a %.5.i.P.E.A.l $ 8.G.G.G.G.G.G.N.G.G.G.{ - A.Y.C.G.P.E.G.l.G.i.H j.j.G.(.-.H l C.G.G.E.G.A.l.G.G.G.",
"G.P.A.C.G.Y.P.G.N.E.j.< ,.E.] k V < ] i.V - j.G.j.G.G.P.G.G.G.G.E.^ > ^ ^ -.G.G.G.G.G.G.A.H ,.E.G.G.N.E.i.P l ,.G.G.G.G.G.G.G.G.",
"G.G.G.G.G.G.G.G.E.8.a 5.N.G.P.E.Y.8.u #   l G.G.G.G.G.N.A.G.P.A.H - ,.E.%.u l G.G.N.G.E.5.u G.G.G.C.N.G.N.E.8.l j.N.Y.G.G.G.E.P.",
"N.N.G.G.G.P.Y.E.5.a e.P.N.G.G.G.G.Y.C.5.l > i.E.G.G.P.N.N.G.,.w R l.N.G.E.N.Y w j.G.C.l.R ] E.G.G.G.G.G.G.N.G.H l.G.G.G.G.G.P.P.",
"E.E.Y.G.l.N.8.{ 9 G.Y.G.Y.G.G.l.A.G.G.G.Y.{ ^ G.G.G.G.N.G.,.l i.P.G.G.E.A.N.G.O.w ] R 9 w i.G.G.N.G.A.G.G.A.G.H %.%.R G.E.P.O.V ",
"] ] 5.E.G.a k V R E.G.N.A.G.P.N.G.G.Y.G.N.E.V ] Y.G.G.N.E.{ ,.E.j.G.N.N.G.N.A.G.e.< ^ E.N.G.G.G.j.G.G.G.G.G.E.l.< P l H { R Y P ",
"{ k o V l Y G.E.Y.N.N.N.A.G.G.G.G.G.E.G.C.P.{ u C.G.G.G.H H N.G.N.G.A.A.G.G.i.N.Y.P R E.E.G.C.A.G.G.G.G.G.G.E.P Y _.e.R P l N.E.",
"E.G.i.V a G.G.A.G.N.l.G.G.G.C.C.j.G.G.G.G.G.G.u ,.P.P # 9 N.G.G.P.G.G.G.G.G.C.E.l.# l i.G.P.N.A.G.G.G.G.G.N.G.u e.G.P.E.Y.C.G.G.",
"G.A.E.V i.G.E.G.N.G.G.G.G.E.l.N.A.G.G.G.N.C.E.^ u > u P C.G.G.A.G.G.G.G.E.G.G.5.l i.{ < H A.G.G.C.N.G.G.A.P.Y P G.P.N.N.G.G.G.A.",
"G.G.A.a l.G.G.G.G.G.A.G.G.G.Y.G.G.G.G.N.G.G.l.P.,.9 G.A.G.G.G.N.A.G.G.G.G.Y.-.9 ^ Y.G.G.P R A.G.G.G.G.G.Y.i.l N.N.G.G.G.G.G.G.N.",
"G.C.N.P l.G.G.P.G.G.A.N.G.G.C.N.G.C.j.N.G.G.N.C.l ^ A.N.G.G.G.A.l.G.N.N.Y.-.R C.Y.G.G.G.Y.V O.E.A.N.G.P.-.H 5.i.j.G.G.G.N.G.G.G.",
"G.G.G.H l.G.l.A.G.G.G.G.A.Y.G.C.G.G.N.G.G.G.Y.N.w C.N.G.G.G.G.G.C.G.N.E.i.k A.G.G.N.N.G.E.O.H G.G.G.G.l.l u C.N.G.G.G.G.G.G.G.G.",
"A.G.N.< l.Y.G.G.C.N.G.G.j.G.Y.G.N.G.Y.G.G.G.C.H l P.G.j.G.E.G.G.G.C.G.E.5.a C.N.E.G.G.G.P.C.l u l.A.P 9 a R C.G.A.N.G.G.G.C.G.G.",
"Y.^ l 9 A.Y.G.P.C.C.N.G.G.N.C.G.j.A.G.G.G.G.l 9 E.G.G.G.G.G.G.E.l.j.G.G.^ { Y.G.G.G.G.N.G.G.j.a - V P Y.N.u i.P.C.N.G.G.C.l.P.G.",
"] %.%.a ^ G.G.G.C.A.A.G.N.C.j.j.G.G.N.C.E.i.u u O.E.G.G.G.G.G.E.A.G.Y.Y ,.E.G.C.G.G.G.N.G.N.j.H R e.A.G.N.C.] %.P.G.G.G.G.G.N.G.",
"] Y.E.e.9 G.A.G.C.N.G.A.C.G.A.N.G.G.G.A.G.] { 8.> H i.Y.G.N.N.A.j.%.l { P.A.G.G.G.G.G.G.G.G.j.] G.Y.G.G.C.Y.8.l { C.G.G.C.N.A.G.",
"G.G.G.G.H -.G.N.N.G.P.N.G.G.G.Y.N.A.C.E.^ l N.E.e.a < { E.(.i.a u u %.E.G.G.G.C.A.E.E.G.N.E.] 8.G.G.C.C.G.G.G.N.^ V 5.P.G.G.G.E.",
"N.G.G.P.5.< N.G.l.P.P.G.G.G.G.A.G.G.Y.{ a e.C.G.G.E.8.a { O.l R E.5.P G.G.P.Y.N.A.G.G.A.l.E.H 5.Y.G.N.C.G.G.G.G.E.P ^ E.G.G.G.G.",
"N.A.G.G.G.V V G.G.G.N.G.P.Y.G.G.A.i.R 9 8.A.C.G.G.G.Y.i.l O.,.G.G.G.u ^ G.G.G.G.G.G.G.G.G.E.P 8.Y.G.G.G.G.G.N.C.G.C.{ i.G.G.N.C.",
"Y.E.G.A.E.] 9 N.G.G.A.j.N.%.w { i.V w l.G.G.E.G.G.G.G.E.A.E.E.i.A.E.%.< H C.P.G.G.E.j.N.C.5.V e.P.G.A.j.A.G.C.N.l.P.u -.(.G.A.G.",
"G.G.G.G.P.i.> { E.N.] V a R N.N.G.-.R G.G.G.G.G.A.N.G.G.G.G.P.A.G.G.G.N.Y u R G.G.G.G.G.{ R -.G.G.N.N.G.G.A.A.G.N.] 9 R 8.N.Y.G.",
"G.G.G.G.G.{ u l ^ u ^ N.Y.G.P.G.G.E.Y ,.E.C.A.G.N.G.G.G.G.Y.G.A.G.G.N.A.E.i.# 8.E.G.N.^ u < %.E.A.G.G.G.G.G.G.] a 5.Y.^ u u i.E.",
"C.N.P.N.V l e.%.R 5.E.l.A.G.N.A.G.Y.H 5.E.C.G.P.N.G.G.G.G.E.C.N.G.G.N.A.G.E.P R Y a < 9 5.H %.E.G.G.G.G.G.G.G.H O.Y.G.Y.Y.Y - H ",
"A.G.A.R ] C.Y.Y.E.P.G.G.A.G.A.G.E.8.P A.G.G.G.G.G.N.N.P.G.G.G.G.G.G.G.G.A.P.A.< u ] e.N.E.G.a 8.Y.G.G.Y.j.N.G.%.A.G.N.N.G.G.i.5.",
"A.E.R l A.j.P.G.A.G.A.G.G.G.G.G.E.-.{ G.G.G.G.G.N.G.A.G.G.N.N.G.G.G.G.A.P.P.R 9 5.Y.E.G.G.E.^ H G.G.G.P.A.A.P.Z j.E.C.G.G.G.E.N.",
"G.E.V R G.G.G.G.G.G.N.A.G.G.E.G.G.j.u -.E.P.P.A.N.G.G.G.G.Y.G.A.N.G.G.P.l.H R G.G.A.G.G.G.G.Y.Y i.G.G.G.G.G.,.{ A.G.P.G.N.G.G.G.",
"C.l a N.G.G.G.N.N.N.G.G.G.E.G.A.A.E.R $ H j.E.A.G.G.G.A.N.).Y.A.j.G.Y.%.a ] G.G.A.G.N.C.G.G.G.u R Y.G.l.A.(.V %.E.G.G.G.N.G.G.G.",
"H l l.G.G.P.P.A.G.A.G.G.G.G.G.A.E.A.H %.%.j -.P.A.G.G.G.A.Y.G.G.A.] w R i.Y.G.G.G.j.N.G.C.j.G.i.9 { E.N.l.e.R j.G.N.N.G.G.G.l.C.",
"l A.G.G.G.G.G.G.G.G.C.A.C.N.G.P.i.j ] E.Y.{ # ,.E.E.G.G.G.G.G.A.E.^ H Y.G.A.G.G.G.N.N.G.G.G.G.Y.8.9 %.E.{ $ e.G.G.G.A.G.G.E.A.G.",
"e.i.G.G.N.G.G.E.G.G.N.G.G.G.Y.O.< ^ G.A.i.E.e.a R { i.C.G.P.P.A.Y.P ^ E.N.N.C.G.A.C.G.Y.A.C.G.A.P.l.u P 9 ^ G.G.Y.G.G.G.G.C.G.G.",
"G.G.G.N.C.P.N.C.G.G.G.(.G.Y.%.9 i.E.G.A.N.G.Y.e.H > Z ,.A.A.N.P.8.l j.G.C.N.A.G.A.j.N.Y.A.N.G.G.A.G.H 9 i.N.N.G.G.N.G.G.G.G.G.N.",
"G.G.G.C.G.G.A.G.G.G.G.G.G.E.V ^ E.A.G.G.G.G.G.Y.E.N.j.u V G.C.G.H e.E.G.G.Y.P.G.G.G.A.G.G.E.Y.A.G.G.{ H G.G.G.G.A.C.G.N.C.Y.E.A."
};
