/* XPM */
static const char *floor_1[] = {
/* columns rows colors chars-per-pixel */
"64 64 48 1 ",
"  c #6D6966",
". c #6E6A67",
"X c #6E6A68",
"o c #6E6B68",
"O c #6F6B68",
"+ c #6F6C69",
"@ c #706C69",
"# c #706D69",
"$ c #706D6A",
"% c #716D6A",
"& c #716E6A",
"* c #716E6B",
"= c #726E6A",
"- c #726E6B",
"; c #726F6B",
": c #736F6B",
"> c #726F6C",
", c #736F6C",
"< c #73706C",
"1 c #73706D",
"2 c #74706C",
"3 c #74706D",
"4 c #74716D",
"5 c #75716D",
"6 c #75716E",
"7 c #75726E",
"8 c #75726F",
"9 c #76726E",
"0 c #76726F",
"q c #76736F",
"w c #77736F",
"e c #767370",
"r c #777370",
"t c #777470",
"y c #777471",
"u c #787470",
"i c #787471",
"p c #787571",
"a c #787572",
"s c #797572",
"d c #797672",
"f c #797673",
"g c #797773",
"h c #7A7673",
"j c #7A7773",
"k c #7A7774",
"l c #7B7874",
"z c #7B7875",
/* pixels */
"*0ae0et0000k00000a00aa0000*<00**+0*<<O*+00000<0a0000,<0**e**0000",
"0000000t000000*00<0aet00000l0000**,a00<,t000<00*0000**000,**0000",
"000000000000,,*00aa000t000aa00a0000a00e0a00*0t0*00t0*000000,0t<0",
"00*,0a0000*,0,00*000000000000e0000000000000,00000000,0*0<*0000**",
"00000,t00000**00<0000000*0000000000*0,*00000000000<000*,000000*,",
"a000<+**0000*000tta000a00**aat00eea00*<0**000,00<+*00***<ta000*0",
",*000,e*0000a000a000,*0t00000a00t0*<0t0,*,000,*,0*0000e000t0**00",
"0,0000a000*0e0000,*0<*0e00000e00t<000e0*000000<0t00*00000000**00",
"0**000**0000000000000**0,00000000000*0*<0ee00000<*000t<,ea00*000",
"0*<0*<0000000t00000a0**0*00a0000000*0t*0t000000a000a0,0*,0,00000",
"0t000e00000*0000000e000*0000000,*te0,,,0000t000000*,<*0*00*<00t0",
"0e0000*,000*000t<*00,*0+0000000000000t00,*0e0,+*00,000*<000*000*",
"00000000*00a000e0<00**a0000a0<0000*,00000,0a0**00<00a0,<00<,0000",
"00,0000*0000000*0000*000000a00e00,<0000t0e00000e<000000a000a00aa",
"a0*,*00*0et*0a0*0**000000eaa00000*+00,**0e0000<0*ate000a00****0a",
"0*00+*00000a000,00<0,*0000**000000,000*0000000+*0000000a00,<,,,0",
"0000O*00000000*0000a000,000ta0*000000000*00*0*,000,000*,ea000t*,",
"a000.00<000*00000**00*<0000aa0000e0*0**0*000a00000*00,0000000t<0",
"00a*O0000*0000*000000000000000ee0t0*0000e00*,0000at00<a000000,00",
"00**00000*t000,a00000a00000000000*,0a000e0000000000000t0*0000000",
"a000000000000a00*0000aa000**tt<00O*00000000t0000**00000<,00*0000",
"000a00000000000*000*00a000000**0a00*0**00ta**00000e0**0*0000,0a0",
"0,*000*0a**0000l000*000*0t00,*0000000000*0t0**00ee,,00000000*e00",
"a,,0a0,00t00*0<0000,t00<000000t0*0*<0,00.00<000,*000000000*00*00",
"e0000000*00000000000t0000000*000*tt000a,,0*e*teO*000000000000,00",
"aa0e00e00***0000*0000000e000t0000e000000000e0**000*00*000t00000t",
"0a0a00000ea*00000000000*0,*0aa00e0*<00****t00*00*0a0O*,<0a000,,t",
"<0<0000*0tt000*,0t0a0*000*000000*00000,<000000e0*+000t,0000e0,,0",
"0,*0000<000000<0000*000000000000000*000a0*0000000<+*00000ta,0000",
",*0t0**000t0000000**a0a00000**0000000**a000t000*0000*0a0000*00a0",
"00t0*000*0t0000*000000a0<000t0000000a000*00t000*0000,0a<0**000*0",
"0000,000*000*0000000t000*0*00000a000e0000t00000aa00*00<0000000,0",
"*0*,0000*000,*0000000*00000000000000*,0<0e000000000<,O<000000**0",
"0000a0000000000*0ee00000000000*,0000+*0*<et0t0000t*000000*<000t0",
"000000*<000000000<et00t0*000*tt000*,000t000000e,*00tt000000t0ea0",
"0t0000,0<*00,*000*0e0e00*0*,000000**00*,0000*00.000000000t0t0**0",
"000*00000<000000000,000,*000000*0**00**00**00**<0at,,00000000O*0",
"00000000000000,0ta00000*<00a00t*0000<*00*0000000*000*0a0*0000*00",
"a000**00,*0t00*,,0t0000000000000000e0<00*0000t00<00000000,,00*at",
"00*<,*0*,*0e00a0+000,*00000000a0*00000000000a000000*0**000000000",
"00*,000,000+000000000t0*0tt00ta0000000**O0a00**0000000<00**00000",
"00a000000000000*,0t0000000,,*0000*0,0e0**<,00*00000a0000*00ae*a0",
"00000e00t*,00a00<*0000<00****0*<,*00000<t,*0a0*0000000***000000<",
"0a000e00e000t0<0000000+,000000*000t00000a00000<000000<0,<00*<00e",
"*0a*,0*,000*0*ak0<<000,00000000<0<0000*,000at*,0000*000a000*0000",
"0000*00000*<0*00**0*000t00000*00<**0**00000000,,0000000,00t00000",
"0000**0*<e00000**0e00t0000e00*00,*00000000000,*,0000000000t00000",
"00000*0t0000000,000000000000000*00*,0000a0000*<0,*00t00*0000*000",
"000000aa0<00*000000,*0000000*ta000,00e0a0000*aa000**000<0000<0*,",
"0000e00,0,00000a00000<00,*,**aa000a000000**0000000*,,0000*,00000",
"0000000**00a00<00**0<00000*<0000*00*<000000at00000000e0000*<0000",
"000*0*0<*00e00*00<000ae0000aa<0000*O000000*00**0a0000e0t00,,0t*<",
"000*000a00000e000tt<00a00,<00000*00000<000*,0000000000<00tt000,0",
"000e000000000000000000e0e0<000t0000000*00*0000000*,000**00000,00",
",*0t0000*0*,000*0,,0*0000aa000000<00<*000*,000,<0<*00*00,*000*00",
"<000,*00<0*0a00*0<<0,000e00<*0*,0000<*0000000a<*0000000e0,000*0*",
"000t00t0*000000000000t00000000<00000000000a00000000000000000000<",
"00000<0000a0000a0000*<000000000000<00,0000000,0000000**000a00000",
"00000,<00e000000<*0e0000*0<*0a00*,*<a0*a0e+*0*00e,<a00000,,00000",
"00000000,*00,e000,000e00*,*O0000*0000,0e00*<00000***00000*,00**0",
"ae0.0**00t0*<00000****a00,*0,*000at*00000*0000t00<000000000000,e",
"000*000000*0ae00,*00,000ee000000*0000000,0at0000000000*<,0000,0a",
"0000a0*,00*0a0e00*0a0e00e000t00***0*<000*00000****0000***0*00*t0",
"00tea0,0000000e00**000000t00t00<00000000000,*0,0,**0e00000<00000"
};
