/* XPM */
static const char *helmet[] = {
/* columns rows colors chars-per-pixel */
"64 64 53 1 ",
"  c #201D16",
". c #242117",
"X c #252319",
"o c #29261B",
"O c #2C2A1D",
"+ c #322C1E",
"@ c #3A2E1E",
"# c #383417",
"$ c #373319",
"% c #3B361B",
"& c #3D391D",
"* c #2F2D22",
"= c #322E24",
"- c #343322",
"; c #373524",
": c #3B3423",
"> c #3A3723",
", c #3A3724",
"< c #3E3A20",
"1 c #3D3A22",
"2 c #393824",
"3 c #3B3824",
"4 c #3B3826",
"5 c #3C3925",
"6 c #3D3A26",
"7 c #3E3C26",
"8 c #363228",
"9 c #3A372C",
"0 c #3D3A2A",
"q c #3E3C28",
"w c #3F3B31",
"e c #403B1F",
"r c #403322",
"t c #403C22",
"y c #403B24",
"u c #403D24",
"i c #403E28",
"p c #413B2E",
"a c #413F2C",
"s c #413D32",
"d c #43412A",
"f c #44422B",
"g c #46442B",
"h c #45432C",
"j c #46442D",
"k c #48462D",
"l c #4A482E",
"z c #4B4A30",
"x c #4C4B31",
"c c #4F4D33",
"v c #504E34",
"b c #515035",
"n c #555439",
/* pixels */
"%%%%%&&&%&&&%%&&%%%%&&&&&&&&&%%&%&%%%%%%%%&&%&%%%%%%&&&%%%%%%%%%",
"%%%%%%%%%&%%&&&&&&%%&&&%%%%&&%%&&&%%%%&%%%%%%&&%%%%%&%%%&&&%%%%%",
"%%%%%&&%%&%%&&&&&%%%%&%%%%&%&&%&&&%%%&&%%%%%%%&%%%%&&%&&%%&&%%%%",
"%&&%%&&%%&%%&%%%&&&%%&%%%&&&%&&&&&%&&&%%%%&&&%%%%%%&&%&&%%%&%&%&",
"%%&%%%&&%%&&%%%%%&&&&&&&%%&&%%%%%%%&&%%%%%&%&%&&%%&%%&&&&%%%&&%%",
"%%%&%%&&&&&&&%%%&%%&&&&%&%&&&&%%%%%&%%%%%%%%&&&&&%&%%&&%&%%%&&&%",
"%&&&&%%%%%%%&%%&&%%&&%%%&&%%&%%&&&%%%&%%%&&&&&&&&%&%%&%%&%&&&&%%",
"%%&%%%%%%##%%%%%&%%&&&%%&&%%&%%&&%%#%&&%%%&&&%%%%%%%%%%&&%&&%%%%",
"&&%%%%%%%%%%%%%%%%%&%%&%%&%%%%&&%%&%%&&%&&&%&&%%&&%%%%%&&%&&%%&&",
"%&%%%%%%%&%&&%%%%%&&%%&%%&&%%%&&%&&&&%%%&&&%&&%%&&&%%&%%&%%&&%%%",
"%%%%&%%%%%%&&&%&&%%&&&&%%&%%%%&&%&&&&&%%&&%%&&%%%%&&&&%%%%%&&&%%",
"%%%%&%%%%%%%%&&&&%%&&&&%%&&%%%%%&&&%%&%%%%%%%%%%%&%%&&&%%%&%%%%&",
"%&&%%%%%%%%%&&&&%%%%&&&&%&&&%%%%%%%%%&&%%%%%&%&&%&%%&%%%%%&%%%%&",
"&%&%&%%%&%%%%%%%&%&%%&&&%%&<&%%%%%%&<&%%%%%&&%&&&%%%&%%&&%&&&&%%",
"&%%%%%%&%%%%##%&&%%%%#%%%&333>>,3,,3,3%%%%&&&%%%%%&&&&&&&&%%&&%%",
"%%%%&&&&%&&%%%%&&%%%%#&&&<666666666630<%&&%%&&&%%%%%%%&%%%%%&&&%",
"%%%%%&&&%%%&&%%%%&%%%%i66ikkkkkkkkkjdu3;;6&&&%%&&%%%%%%%%%&%%&%%",
"%%&%%%&&%%%&&%%&%%%%%<diidkkkkkkkkkkfd63366<&%%&&%%&&&&&%%&%&%%%",
"%%%&%%&&%%%%%%&&%%%&63flkkkkkkkkkkkkkkddd6,<%%&&%%%&%&%&&&%%%%%%",
"&&%%%%&&&&%%%%%%%%<iidjkkkkkkkkcckjkkkjfd7367t&%%%%%%&&&&&&%%%%%",
"&&&&%%&%%&%%%%#%%&6,dkkkkkkkkklnnkjkkkkjdi73;6%%%%%%&&&&&%&&%%%%",
"&&&%%%&%%&%%%%%%<667fkkkkxbckkkxxkkkkkkjgfi3>>3&%%&&%#%%%%&&%&&%",
"&&%%%&&%%&&&&%&&<,3djkkkkxnbkkkkjjkkkkkkjfi63;;<%%&&%%%%%%%%%&&%",
"&&%&&%%&&%%&&&&%u3qkkkkkklzlkkkkkkkkkkkkjf763;;t%%%&&&%%%%%%&&&&",
"%%&&&%&&&%%%&&%%u6ilkkkkkkkkkkkkkkkkkkkjjd763;;7<&&&&%%%&%&%%%&&",
"&&&&&&&&&&%%%&&>3dfllkkkkkkkkkkkkkkkkkkjdu76333;,&&%%%%%&%%&%&&%",
"&&%&%%&&%&&%%%%;3dfjklkkkkkkkkkkkkkkjjjjdu76333--&%%%%&%%%%%%%%%",
"&&%%%%%%%%%%%%%>3dddklkkkkkkkkkkkkkkfdjjdu76363--%%%%%&%%%&&&%%%",
"&%%%%%%&%%%&&fihjljidfffkkkkkkkkkkjffdffd776363--%&%%&%%%&%%&&&%",
"&%%&%%&&%%&&<a6zcvkuiiidkkkkkkkkkkjdddddd766663--%%%%&&&&%&&&&&%",
"&%%%&&&%&&&3,idjjjkzzlzkddfffffffffdddddiq66666--%&&%&&&%%&%%%%%",
"&&%%%&%%%&&>;qdiiijxxxxzdddddddffddddddiiq66663--&&&&%%&%%%%%&%%",
"%%%%%%%%%%%&u,=+O+-3667dzxxxxxxczdidddd7776733;--&%&%%%%%%&&&&&%",
"%%%%%%%%%&%%&,-++OO----,hjjjjjjkkfdii77766663;;--&%%%%%%%&&&&&&&",
"%%&%%&&%%&%%%&&%%X..  .XOO+OO+->7xk7766666633;;--%%&&&%%%&&%%%%&",
"&%&%%&%&%%%%%%%&%OOXXX..oOOOOOOO-idi733336333;;--&%%%&&&&&&&%%%%",
"&&%%%%#&%&&%&%%%%#$XoOX.........XO;f7333363>;;;--&&%&&&%&%%&%%%%",
"%&&%%%%%%%&%&&&%#%>*++ooXXXXXXX..oO3363>;>;;;;;;>&&%%%%%&&%%%%&&",
"%&&&%&&%%%&&%&&%%%68=+OOOOOOOOoXX.o=>7;;;;;;;;;36<&%%%%%%&%%&&&&",
"%%&&%%%%%%&&%%&&%%%>@+========*OOOoXO;3333333333<&&%%%%&%%%%%%&&",
"%%&%%%%%%%%%&%%&%%%%@+=88=8==8=OOOoX=,qq6777777<%%%%&&&&%%&%%%&&",
"%&&%%%%%%%%%&&%%%&<>=======8=======+6<t&&<&&&<&&%%&%%&&&&&%%%%&&",
"%%%%%%%%&&&&&&&&&<<+=889,,,,,888888@<&%%%&%&&%%%%&&&&%%%%%%%&%%&",
"%%&&&%%%%%&&%%&&tr@+=8>&&&&%&,8888;ry&%%%&&&&%%%&&&%%%%&%%%%%%&&",
"&&&%&%%%%%%%%%&ty@@=89<%&%%%&>;>;;>><%%%%&&%%%&&%%%%&%&%%&&%%%&&",
"&&%%&%%%%%%%%%%r>+=89s<%%%%&&%#%%%@+<%%%%&&&%%&&%%&&&%%%%&&&%&&&",
"&&&&&%%%%%%%&&%r>=89wa%%%%%&&%%%%%>=6%%&&%%%%%%&&%%&&%%%&&&&%&&&",
"&&&%&&%%%%%%%%%r>89ssa%%%%%&%%&6pr>80%%%%%%%%&&&&%%%&&&&&&%%%&&&",
"&&%%%&%%%%&%%&%@@>6ssi%%&&&&%rrrr;06<%%%%&%%%&&&%%%%%%%&&%%%%%%%",
"%%%%&&%%&%&&%&&>>>rppp<%%%%&6rrrr90%&&%%&&%%%&&%%%%%%%%%%%%&&&%%",
"%%%%&&&&&%%%%%&&y@@rrrrrrrr%@8889y%%&&%&&%&&%%%%%%%%&%%%%%%&&%%%",
"%&%%%&&&&&&%&%&%<>>:>>>>>>>>=,390&%%%%%%%&&&%%%%&&&&%%%%&%%%%%%%",
"%%%%%%%&%%%%%%&&%%088888888887&&&%&&%%&&%%%&&&%%%%&&%%%%&&%%%%%%",
"%%%%%%%%%%%%%%&%%%y000,,300006&&&&&&%#%%%&&&%&%%%%%%&&&%&&%&e&%%",
"%%%%%%%&%%%%%%%%&&&&&&&%&&&&&&%&&%%&%%%%%&&&%%&%%%%%%&&&&&%&&&&&",
"%%%%%%%&&%%%%%%%%%%%%%%%%%&&%&%%%%%%%%%%%%&&&%&&&&&&&&&&&&&&&&%%",
"%%%%&%#%%%%&%%&&%%%%%&%%%%&&%%%&%%%&%%&&&&%&&&&e&&&&&&&&&&&&&&&&",
"%&&%%%%%%%%&%%&&&%%%%&%%%%%%%&&%%%%%%&&&&&%&&&&ee&&&&&&&&&&%%%&&",
"%%%%%%%&%%&&%%%%&&&%%%&%%%%%%&&&%%%%&&&&&&&&&&&&%&&&&&&&%&&&&&&&",
"%%%%%%%%%%%&&%%%&&&%#%&%%%%&%%%%%%%&&%%&&%%&%&&&&%&&&&&&%&&&&&et",
"%%%%&%%&&%%&%%%%%&%%%%%%%%&%%&%%%%%&%%&&&%&&%&e&&&&&&&&&&%%&&&et",
"%&%%&&%%%%%%%#%%%&%%&%%&%&&%&&&%%%%&%%%&&&&t&&&&%&e&&&&&&&&e&&&&",
"%%%%%%&%%%%%%%%%&&%%%%&&%%&%%&&&%%&&%%%&&&&&&&&&&&e&&&%&&&&&<&&&",
"%%%%##%%&%%%&&&%&&&%%%&&%&%%%%%&&%&%%%%&&&&&&&&&&&&&&&%&&&&&&&&&"
};
