/* XPM */
static const char *lebanese_flag[] = {
/* columns rows colors chars-per-pixel */
"64 64 90 1 ",
"  c #383417",
". c #373318",
"X c #3B361B",
"o c #3D391D",
"O c #3F3B20",
"+ c #42361E",
"@ c #49341F",
"# c #41391F",
"$ c #453720",
"% c #4B3520",
"& c #443820",
"* c #4A3A24",
"= c #543D35",
"- c #662D24",
"; c #6B2D26",
": c #6E2D28",
"> c #762726",
", c #752926",
"< c #792927",
"1 c #732D29",
"2 c #7D2B29",
"3 c #6F3027",
"4 c #713028",
"5 c #79302B",
"6 c #623A33",
"7 c #2A4336",
"8 c #2D473A",
"9 c #2F483B",
"0 c #324A3D",
"q c #4B452E",
"w c #4A462F",
"e c #4B4731",
"r c #4C4731",
"t c #4D4932",
"y c #504B35",
"u c #5C423A",
"i c #364D40",
"p c #3E5246",
"a c #44564A",
"s c #46584D",
"d c #49594E",
"f c #4E5D52",
"g c #515F54",
"h c #774A46",
"j c #7A4A45",
"k c #7E4D48",
"l c #7D5752",
"z c #7D5853",
"x c #546156",
"c c #566258",
"v c #5B655C",
"b c #646B63",
"n c #686F66",
"m c #696F68",
"M c #6D736A",
"N c #71756D",
"B c #72756D",
"V c #7C7772",
"C c #7B7871",
"Z c #7C7872",
"A c #7C7A73",
"S c #7F7B75",
"D c #7F7E78",
"F c #832B29",
"G c #832D2B",
"H c #842C2A",
"J c #852E2B",
"K c #832D2C",
"L c #852D2C",
"P c #834E4A",
"I c #82524E",
"U c #84524E",
"Y c #88534F",
"T c #895451",
"R c #825A55",
"E c #855E5A",
"W c #86605C",
"Q c #89615D",
"! c #807C76",
"~ c #817C76",
"^ c #837F79",
"/ c #86827C",
"( c #89847E",
") c #8A8680",
"_ c #8B8781",
"` c #8C8781",
"' c #8E8983",
"] c #8E8A84",
"[ c #8F8B84",
"{ c #908B85",
/* pixels */
"XXXXXoooXoooXXooXXXXoooooooooXXoXoXXXXXXXXooXoXXXXXXoooXXXXXXXXX",
"XXXXXXXXXoXXooooooXXoooXXXXooXXoooXXXXoXXXXXXooXXXXXoXXXoooXXXXX",
"XXXXXooXXoXXoooooXXXXoXXXXoXooXoooXXXooXXXXXXXoXXXXooXooXXooXXXX",
"XooXXooXXoXXoXXXoooXXoXXXoooXoooooXoooXXXXoooXXXXXXooXooXXXoXoXo",
"XXoXXXooXXooXXXXXoooooooXXooXXXXXXXooXXXXXoXoXooXXoXXooooXXXooXX",
"XXXoXXoooooooXXXoXXooooXoXooooXXXXXoXXXXXXXXoooooXoXXooXoXXXoooX",
"XooooXXXXXXXoXXooXXooXXXooXXoXXoooXXXoXXXooooooooXoXXoXXoXooooXX",
"XXoXXXXXX..XXXXXoXXoooXXooXXoXXooXX.XooXXXoooXXXXXXXXXXooXooXXXX",
"ooXXXXXXXXXXXXXXXXXoXXoXXoXXXXooXXXXXooXoooXooXXooXXXXXooXooXXoo",
"XoXXXXXXXoXooXXXXXooXXoXXooXXXooXooooXXXoooXooXXoooXXoXXoXXooXXX",
"XXXooXXXXXXoooXooXXooooXXoXXXXooXoooooXXooXXooXXXXooooXXXXXoooXX",
"XXXXoXXXXXXXXooooXXooooXXooXXXXXoooXXoXXXXXXXXXXXoXXoooXXXoXXXXo",
"XooXXXXXXXXXooooXXXXooooXoooXXXXXXXXoooXXXXXoXooXoXXoXXoXXoXXXXo",
"oXoXoXXXoXXXXXXXoXoXXoooXXXooXXXXXXooXXXXXXooXoooXXXoXXooXooooXX",
"oXXXXXXoXXXX .XooXXXX.XXX XoXooXoooXXXXXXXoooXXXXXooooooooXXooXX",
"XXXXooooXooXXXXooXXXX XXoXXoXooooXXoXXXXXXXXoooXXXXXXXoXXXXXoooX",
"XXXXXoooXXXooXXXXoXXXXXXXXXXXoooooXoooXXXXoooXXooXXXXXXXoXoXXoXX",
"XXoXXXooXXXooXXoXXXXXXXXXoXXXXXXoooooooX XoooXXooXXoooooXXoXoXXX",
"XXXoXXoooXXXXXooXXXXXXXXXXXXXXXoXXoXXoXXXXXXXo+oXXXoX+XoooXXXXXX",
"ooXXXXoX$3444;;44443--;444443-;4444;--;4444;-44:---34:-$oooXXXXX",
"ooooXXoX@2JLJ22GLLG2222LLJJLG22LLJL22<2JJLL22JLG2<2GGG<%oXooXXXX",
"oooXXXoX+,2GGGKLLG<<JLJJJJLLGLLLLKKGKLGLJLKGGLLLLGG22G2%XXooXooX",
"ooXXXooX%2GGGGLLLLGGLJJJJJ222LLJLG2GLJJL22KLLLG2KJJ22J2%XXXXXooX",
"ooXooXoo%KLJGLLGLLJJLKGLJG<,2KLJJG<2LJJK<2JKKG2<GLJLGG2%XXXXoooo",
"XXoooXoo%GJF<FF<2JJJJ<<JJJF<>GJLJJFGJJJJFFGFF<2FJJJJJF,@oXoXXXoo",
"oooooooo*kUUIUYIUTTUPIITTTTUITj6kTTTTTTTTUPUUIUTTTTTTUh*oXXoXooX",
"ooXoXXoowC)'''''']](~`{']]]]''m0N')']]]]])S(]''']]]]'(ZrXXXXXXXX",
"ooXXXXXXt/'''//'']]')']]]]'{(gp9psaN{]'']'('']]'^/]''`/tXXoooXXX",
"oXXXXXXXt/'''/^'']'']))]]]]/Nfp880abC'''))]]']''^/''''/tXoXXoooX",
"oXXoXXoorV(''''']]'''~^'''{biDM88s)xp(]'^^]]]]]'''''](ZtoXoooooX",
"oXXXoooXt/`']]]](/'''((''/va0gs98ixbM'{'((]]`/)]]]]//(ZtXXoXXXXX",
"ooXXXoXXt(''''{]/~`{]]'''Dp09i09ii8b//(']]]')~(]]{]^^(~tXXXXXoXX",
"XXXXXXXXt(](~({]'']]]]''{'(v0Zn0MM0ii0v'']]]'''']]{'''(yXXoooooX",
"XXXXXXXXt^'`/`]']]]`/`''Nbbd0vf0xx98icN''`/`]]''{`/'''`yXooooooo",
"XXoXXooXwV(]]']']]](~`''g88008898888p/))'(~(']]]{/~)''(tXooXXXXo",
"oXoXXoXXwZ)]''`^/'''`']{/M0gNi8899880aasD')''']]'')''(ZtooooXXXX",
"ooXXXX.Xe~`]']`^(]'''](NNn0fMi8880di87if^{]]'''('']''(!tXXXoXXXX",
"XooXXXXXt(''''''']]']{N0888888887a)x88c'''']]'/~`']''](yXoXXXXoo",
"XoooXooXt('`/)]]''//']/nnnnnnnx88icbnnC'')/)]'((']'//]`yXoXXXooo",
"XXooXXXXw/'(~(''''^/']]''{]{'/b8ii8b/'''](~(''']'''^^'(yXXXXXXoo",
"XXoXXXXXwZ)]']]]]]'']{)~(]]](a09MM90s({]]'']]]]'^/]'')ZtXXoXXXoo",
"oooXXXXX*lEQQWEQQQEWQQEREQEWEu==zz==uEQEQQQQQEWQRRQEEElwooXXXXoo",
"oXXXXXXX%2JKG<,GGG<<GKGLGG,2GGLJJJJLLG2>GJJLG,2GGGJ<<J2%oXXXoXXo",
"XXoooXXX@,GLJGGLLJGGLLLLGGGGLLLLLG<2LLJGLLLLGGGLLLLGGLG%XXXXXXoo",
"oooXoXXX@,GGGGLLJJJJLGGGJJJJJGGJJG<2LLLLLJGGLJLLGJLJLK2%XooXXooo",
"ooXXoXXX@2JG,2LJJJLJJ<<JLLGGK<2JJGGLJJLLLG,2LLLG,2LLL2,@XoooXooo",
"oooooXXX+2GG2GJJG2GJJGFJG22GL2GLJJJG2JLL222GLLG22GL22G2%ooooXooo",
"oooXooXX@;1555551:1555551::155555551:252:155551:255::55%ooXXXooo",
"ooXXXoXXXX&+++++++&&&+++++&+@+&&++@+++++++++++&++++++++XoXXXXXXX",
"XXXXooXXoXooXoooXoXXooXXXXXooXXXXXXXoXXXoXXXXooXXXXXXXXXXXXoooXX",
"XXXXoooooXXXXXooXXoXXXooXXXoooXXoXXXooXooXooXXXXXXXXoXXXXXXooXXX",
"XoXXXooooooXoXoXXXXXXXXooXXXooXXooXXXXXXXoooXXXXooooXXXXoXXXXXXX",
"XXXXXXXoXXXXXXooXXXXXXXXXXXXXooXXXooXXooXXooooXXXXooXXXXooXXXXXX",
"XXXXXXXXXXXXXXoXXXoooXXXXooXXoooooooX.XXXoooXooXXXXXoooXooXo+oXX",
"XXXXXXXoXXXXXXXXoooooXXXXXXXooXooXXoXXXXXoooXXoXXXXXXoooooXooooX",
"XXXXXXXooXXXXXXXXXXXXXXXXXXoXoXXXXXXXXXXXXoooXooooooooooooooooXX",
"XXXXoX XXXXoXXooXXXXXoXXXXooXXXoXXXoXXooooXoooo+oooooooooooooXoo",
"XooXoXXXXXXoXXoooXXXXoXXXXXXXooXXXXXXoooooXooooo+ooooooooooXXooo",
"XXXXXXXoXXXoXXXXoooXXXoXXXXXXoooXXXXooooooooooooXoooooooXooooooo",
"XXXXXXXXXXXooXXXoooX XoXXXXoXXXXXXXooXXooXXoXooooXooooooXooooo+&",
"XXXXoXXooXXoXXXXXoXXXXXXXXoXXoXXXXXoXXoooXooXo+ooooooooooXXooo#&",
"XoXXooXXXXXXX XXXoXXoXXoXooXoooXXXXoXXXoooo&ooooXo+oooooooo+oooo",
"XXXXXXoXXXXXXXXXooXXXXooXXoXXoooXXooXXXooooooooooo#oooXoooooOooo",
"XXXX..XXoXXXoooXoXoXXXooXoXXXXXooXoXXXXoooooooooooooooXooooooooo"
};
