/* XPM */
static const char *left_walk_frame_4[] = {
/* columns rows colors chars-per-pixel */
"64 64 139 2 ",
"   c #040602",
".  c #060802",
"X  c #0B0C03",
"o  c #130D03",
"O  c #190F02",
"+  c #0E1002",
"@  c #121303",
"#  c #1D1203",
"$  c #171802",
"%  c #1A1C02",
"&  c #151409",
"*  c #1A160B",
"=  c #1C1B0C",
"-  c #1E1C10",
";  c #221303",
":  c #231C02",
">  c #211E0D",
",  c #211F12",
"<  c #1E2101",
"1  c #1E2A01",
"2  c #1F2008",
"3  c #222601",
"4  c #252902",
"5  c #2A2D03",
"6  c #23220E",
"7  c #27280A",
"8  c #28280D",
"9  c #35250F",
"0  c #2D3103",
"q  c #2E3B03",
"w  c #313504",
"e  c #393205",
"r  c #353A05",
"t  c #393D06",
"y  c #242412",
"u  c #2B2512",
"i  c #2C2C16",
"p  c #2D2E18",
"a  c #3B2710",
"s  c #302E14",
"d  c #312F16",
"f  c #3E2C13",
"g  c #2F3018",
"h  c #333116",
"j  c #343117",
"k  c #343217",
"l  c #343317",
"z  c #333017",
"x  c #323018",
"c  c #333118",
"v  c #343118",
"b  c #353318",
"n  c #353319",
"m  c #373519",
"M  c #343319",
"N  c #38351A",
"B  c #38361A",
"V  c #39361A",
"C  c #39361B",
"Z  c #39371B",
"A  c #3A361B",
"S  c #3A371B",
"D  c #3A371C",
"F  c #3A371B",
"G  c #3A381B",
"H  c #3B381B",
"J  c #3A381C",
"K  c #3B381C",
"L  c #3B391C",
"P  c #3C391C",
"I  c #3C391D",
"U  c #3D3A1D",
"Y  c #3E3A1D",
"T  c #3D3A1E",
"R  c #3E3B1E",
"E  c #3C391C",
"W  c #002F3E",
"Q  c #5A1301",
"!  c #5B1C02",
"~  c #423606",
"^  c #473807",
"/  c #422F15",
"(  c #452F11",
")  c #423016",
"_  c #433016",
"`  c #413D1F",
"'  c #4C381B",
"]  c #523617",
"[  c #543617",
"{  c #563717",
"}  c #5B3B19",
"|  c #402726",
" . c #3B4006",
".. c #3C4106",
"X. c #3D4206",
"o. c #3E4306",
"O. c #3C4106",
"+. c #3A4108",
"@. c #634721",
"#. c #684B24",
"$. c #6A4D24",
"%. c #6F4D2B",
"&. c #734D2F",
"*. c #72443A",
"=. c #7A5136",
"-. c #820300",
";. c #880000",
":. c #850900",
">. c #831300",
",. c #845122",
"<. c #8D5726",
"1. c #8F5725",
"2. c #8A5826",
"3. c #B96F31",
"4. c #BD7131",
"5. c #C27332",
"6. c #CA7936",
"7. c #8C4D41",
"8. c #9F5C4D",
"9. c #AF6B58",
"0. c #BC735D",
"q. c #D48039",
"w. c #88895F",
"e. c #95946B",
"r. c #D58840",
"t. c #D78B44",
"y. c #D48C44",
"u. c #D78D45",
"i. c #D98B44",
"p. c #DA8D45",
"a. c #DA8D44",
"s. c #DD8F46",
"d. c #E49448",
"f. c #E69549",
"g. c #E69649",
"h. c #EA984A",
"j. c #E8994A",
"k. c #809E8B",
"l. c #9FB49B",
/* pixels */
"S S S S S S S S S S S S S S S S S S S S S S S S S S S S S S S S S S S S S S S S P P G S S S S S S S S S S S S S S S S S S S S S ",
"S S S S J S S S S S S S S S S S S S S S S S S S S S S S S S S S S S S S S S S S G G S S S S S S S S S S S S S S S S S S S S S S ",
"S S S J J S S S S S S S S S S S S S S S S S S S S S S S P P P P P P P P P P P S S S S S S S S S S S S S S S S S S S S S S S S S ",
"S S S S S S S S S S S S S S S S S S S S S S S S S S S S s i i i i i i i i i i S S S S S S S S S S S S S J J S S S S S S S S S S ",
"S S S S S S S S S S S S S S S S S S G S S S S S S S S S % $ % % % % % % % $ % D S S S S S S S S S S S S P P S S S S S J J S S S ",
"S S S S S S S S S S S S S S S S S J P P S S J G S P u % 4 5 r r r r r r r 5 4 % i P S S S S S S S S S S J J S S S S S J P S S S ",
"S S S S S S S S S S S S S S S S S S J J S S S S m h 7 < 0 w t t t t t t t w 0 < 7 h S S S S S S S S S S S S S S S S S S J S S D ",
"S S S S S S S S S S S S S S S S S S S S S S S P k @ 4 w r t t t t t t t t t r 0 4 $ k D S S S S S S S S S S S S S S S S S S S D ",
"S S S S S S S S S S S S S S S S S S S S G S S 8 6 < 5 r r t t t t t t t t r r r 5 $ k J S S S S S S S S S S S S S S S S S S S S ",
"S S S S S S S S S S S S S S S S S S S S S S G * $ 3 0 t r r t r r t r r r r r  .5 $ h S S S S S S S S S S S S S S S S S S S S S ",
"S S S S S S S S S S S S S S S S S S S S S G G % % 3 w X. .X. . . .X. .X. .X. .X.0 % @ & G S S S S S S S S S S S S S S S S S S S ",
"S S S S S S S S S D J S S S S S S S S S S S G * @ % 3 5 5 5 5 5 5 5 5 5 5 5 5 5 < @ . & J S S S S S S S S S S S S S S S S S S S ",
"S S S S S S S S S J J S S S S S S S S S S S P & . . . . . . . . . . . . . . . . . . . & G S S S S S S S S S S S S S S S S S S S ",
"S S S S S S S S S S S S S S S S S S S S J b = % < < < < < 3 0 0 0 0 w w w w 0 4 3 < X & G S S J S S S S S S S S S S S S S S S S ",
"S S S S S S S S S S S S S S S S S S S S P k @ < 3 3 4 4 3 5 r r t t t t t t t 0 5 4 + & G S S P J S S S S S S S S S S S S S S S ",
"S S S S S S S S S S S S S S S S S S S S P x . . X .     . @ % 4 0 t t t t w 5 3 3 4 + & J S S S S S S S S S S S J J S S S S S S ",
"S S S S S S S S S S S S S S S S S S S S G b > > . * { { * X $ % < 0 0 0 0 5 5 3 3 < X & J S S S S S S S S S S S P P S S S S S S ",
"S S S S S S S S S S S S S S J J S S S S S S P P . a 5.4.9     . . 3 4 3 3 4 4 4 < $ X & J S S S S S S S S S S S S S S S S S S S ",
"S S S S S S S S S S S S S S J P J S S S S S S S . f r.r.u # <.9   $ @ @ @ @ @ @ @ X u x S S S S S S S S S S S S S S S S S S S S ",
"S S S S S S S S S S S S S S S J S S S S S S S S . _ g.g.' / q.]   X . . . . . . X X b P S S S S S S S S S S S S S S S S S S S S ",
"S S S S S S S P D S S S S S S S S S S S S S S S . / g.i.u.u.g.$.+ X o ; ; ; # . = G S S S S S S S S S S S S S S S S S S S S S J ",
"S S S S S S S P J S S S S S S S S S S S S S G S   / g.p.s.p.h.#.. X X @ O @ # 6 i P S P S S S S S S S S S S S S S S S S S S S P ",
"S S S S S S S D S S S S S S S S S S S S S S J S . _ h.p.p.t.h.@.  X X . . . X P P S S S S S S S S S S S S S S S S S S S S S S P ",
"S S S S S S S S S S S S S S S S S S S S S S S S b d > 2.6.3.6.}   $ $ $ $ $ $ @ 6 P S S S S S S S S S S S S S S S S S S S S S S ",
"S S S S S S S S J P J S S S S S S S S S D S S S P h X } <.,.<.( X % < 3 3 3 3 @ = h m S S S S S S S S S S S S S S S S S S S S S ",
"S S S S S S S S S J S S S S S S S S S S S S S S S S ` =   .   % 4 3 5 t t t t 0 3 X b P S S S S S S S S S S S S S S S S S S S S ",
"S S S S S S S S S S S S S S S S S S S S S J P J S S P = X $ @ < 4 < 4 t r r r w 5 % 6 u S S S S S S S S S S S S S S S S S S S S ",
"S S S S S S S S S S S S S S S S S S S S S G J J S S P = + % % 3 4 % 3 t t +.r +.w 4 @ $ J S S S S S S S S S S S S S S S S S S S ",
"S S S S S S S S S S S S S S S S S S S S D S S S P b @ X @ % 3 3 4 + $ q ! -.>.:.Q 1 @ * J S S S S S S S S S S S S S S D J S S S ",
"S S S S S S S S S S S S S S S S S S S S S S S S b i X X @ < 4 3 4 + $ 0 &.0.*.9.=.< $ * J S S J S S S S S S S S S S S D P S S S ",
"S S S S S S S S S S S S S S S S S S S S S S P P X X u & + < 3 4 4 + * 4 w.l.W k.e.$ $ * J S P P S S S S S S S S S S S S P S S S ",
"S S S S S S S S S S S S S S S S S S S S S J i = * & & X + < 4 3 < X * 0 %.8.| 7.&.< $ * J S J P S S S S S S S S S S S S S S S S ",
"S S S S S S S S S S S S S S S S S S S S S P > . , - . . @ < 4 < % X $ q ! -.:.;.Q 4 $ * J S S S S S S S S J S S S S S S S S S S ",
"S S S S S S S S S S S S S S S S S S D P b @ = y * & X . X X @ X X $ 3 t t ^ ~ ^ e 4 @ * G S S S S S S S P P S S S S S S S S S S ",
"S S S S J S S S S S S S S S S S S S S b i . * y & @ . X o X . X @ < 5 t r r r r 0 3 @ * G S S S S S S S J J S S S S S S S S S S ",
"S S S J P J S S S S S S S S S S S D S X X y = & X . . # ; # . % 4 r t t t t t 0 4 % X $ G S S S S S S S S S S S S S S S S S S S ",
"S S S J P S S S S S S S S S S S D J S X X & & o X X o # ; ; o # : w t t w 0 0 4 % @ 6 u S S S S S S S S S S S S S S S S S S S S ",
"S S S S S S S S S S S S S S S S S J S @ . . . . X X O # ; ; ; ; ; w t t 0 3 3 % $ . b P S S S S S S S S S S S S S S S S S S S S ",
"S S S S S S S S S S S J S S S S R i @ . @ b h d X . X o # ; ; # O # # % $ $ $ X @ $ h J S S S S S S S S S S S S S S S S S S S S ",
"S S S S S S S S S S G J S S S S b 6 . & = P P S = & . o O ; ; O o o o @ @ @ @ @ @ $ h J S S S S S S S S S S S S S S S S S S S S ",
"S S S S S S S S S J S S S S P h . . . m P S S S P k . . X o o o o X . . . . . 4 % . h P S S S S S S S S S S S S S S S S S S S S ",
"S S S S S S S S S S S S S S G b y y y S S S S S J h . X X o o X o % % % % % % 4 % X h J S S S G S S S S S S S S S S S S S S S S ",
"S S S S S S S S S S S S S S S S P P P G S S S S P k . @ @ . . . . 3 4 4 4 4 4 4 % X h G S S S S S S S S S S S S S S S S S S S S ",
"S S S S S S S S S S S S S S S S S S S S S S S S = $ $ < 3 % @ % 4 w r w w r w 4 % X h P S S S S S S S S S S S S S S J J S S S S ",
"S S S S S S S S S S S J S S J J S S S S S S S m @ + % 3 4 3 @ < 5 r t t t t r 5 < @ i m S S S S S S S S S S S S S S P P S S S S ",
"S S S S S S S S S S J P J S S S S S S S S S P P @ @ 4 3 4 < . $ < r t t t t t t w 5 @ $ P J S S S S S S S S S S S S S J S S S S ",
"S S S S S S S S S S J J S S S S S S S S S G i 6 $ $ 4 3 4 3 @ @ $ 5 r t t t t t r w 3 < 6 i G S S J J S S S S S S S S S S S S S ",
"S S S S S S S S S S S S S S S S S S S S S P 6 . % % 4 4 4 3 % @ . 4 0 t t t t t t t w 5 . = P S S P P S P J S S S S S S S S S S ",
"S S S S S S S S S S S S S S S S S S S S S P 6 X 3 3 3 4 4 3 % @ . @ % 0 r  .t t t t w 5 $ $ & b P S S S J J S S S S S S S S S S ",
"S S S S S S S S S S S S S S S S S S S S S P 6 X 3 4 3 4 4 < $ $ & $ * 4 0 r r r t t w 5 $ @ . u b S S S S S S S S S S S S S S S ",
"S S S S S S S S S S S S S S S S S G P P P ` 6 X 3 4 3 4 3 $ . y P P d . % 4 3 4 t  .X.r X X . . @ P P S S S S S S S S S S S S S ",
"S S S S S S S S S S S S S S S S J d 6 y 6 y & X $ % 4 4 3 $ . y P S k 6 2 $ % % 5 5 5 3 X X & X X 6 d J S S S S S S S S S S S S ",
"S S S S S S S S S S S S S S S S P y . . . . . . . @ 4 4 3 $ . y P S S ` 6 . X X $ $ X . . & y @ X . 6 P S S S S S S S S S S S S ",
"S S S S S S S S S S S S P P S S P y . X X * * & X X @ @ X = d b G S S S m d h d @ X X X , - * X X . y P S S S S S S S S S S S S ",
"P J S S S S S S S S S S P P G S P u X X X * = = X X X X . = P S m m S S S S S m & X X X y = & X X X y P S S S S S S S S S S S S ",
"S S S S S S S S S S S S S J S S S S S + . X & * = * @ X . & p i i i i i i i i i i p & . & & X . X S S S S S S S S S S S S S S S ",
"S S S S S S S S S S S S S S S S S S S y = X X & & & X X . & p i i i i i i i i p y = @ . @ X X * y S S S S S S S S S S S S S S S ",
"S S S S S S S S S S S S S S S S S S S P b . X . . X X X . & p i i i i i i i i p y . X X X X . x R S S S S S S S S S S S S S S S ",
"S S S S S S S S S S S S S S S S S S S S m h i y y y y y y i i i i i i i i i i p y . . . . & b m S S G J S S S S S S S S S S S S ",
"S S S S S S S S S S S S S S S S S S S S S P b p g g p p p p i i i i i i i i i p y & & & @ 6 P S S S P P S S S S S S S S S S S S ",
"S S S S P S S S S S S S S S S S S S S S S S S S S m i i i i i i i i i i i i i i x P J J J G S S S S J P S S S S S S S S S S S S ",
"S S S J P J S S S S S S S S S S S S S S S S S S S S x x x x x x x x x x x x x x m S S S S S S S S S S S S S S S S S S S S S S S ",
"S S S S J S S S S S S S S S S S S S S S S S S S S S G G G G G G G G J J S S J P J S S S S S S S S S S S S S S S S S S S S S S S ",
"S S S S S S S S S S S S S S S S S S S S S S S S S S S S S S S S D S S D S S R P S D S S S S S S S S S S S S S S S S S S S S S S "
};
