/* XPM */
static const char *left_walk_frame_3[] = {
/* columns rows colors chars-per-pixel */
"64 64 141 2 ",
"   c #050601",
".  c #070802",
"X  c #0B0C03",
"o  c #130D03",
"O  c #0F1002",
"+  c #121303",
"@  c #1C1204",
"#  c #161A01",
"$  c #1B1C02",
"%  c #141409",
"&  c #1B1609",
"*  c #1B1A0B",
"=  c #251404",
"-  c #291605",
";  c #2A1C06",
":  c #221D0D",
">  c #2A1E0C",
",  c #201F10",
"<  c #1F2101",
"1  c #1F200F",
"2  c #222402",
"3  c #2A2006",
"4  c #262A03",
"5  c #2A2D04",
"6  c #22220C",
"7  c #28270F",
"8  c #29280F",
"9  c #362002",
"0  c #3D2205",
"q  c #243203",
"w  c #2E3205",
"e  c #2E3708",
"r  c #313506",
"t  c #353807",
"y  c #333608",
"u  c #3F3709",
"i  c #363A09",
"p  c #383C09",
"a  c #252512",
"s  c #292511",
"d  c #262814",
"f  c #2D2D15",
"g  c #332511",
"h  c #322E15",
"j  c #2F3017",
"k  c #333117",
"l  c #363319",
"z  c #363318",
"x  c #353218",
"c  c #373419",
"v  c #373519",
"b  c #353319",
"n  c #3B3118",
"m  c #38351A",
"M  c #39351A",
"N  c #39361A",
"B  c #39361B",
"V  c #3A361A",
"C  c #3A361B",
"Z  c #3A371B",
"A  c #3B371B",
"S  c #383519",
"D  c #3B371C",
"F  c #3A371B",
"G  c #3B381B",
"H  c #3B381C",
"J  c #3C381C",
"K  c #3C391C",
"L  c #3C391D",
"P  c #3D391C",
"I  c #3D3A1C",
"U  c #3D3A1D",
"Y  c #3E3A1D",
"T  c #3E3B1D",
"R  c #3D3A1E",
"E  c #3E3A1E",
"W  c #3F3B1E",
"Q  c #3C391C",
"!  c #5E1402",
"~  c #6D1402",
"^  c #711D10",
"/  c #402002",
"(  c #463309",
")  c #49360A",
"_  c #482E16",
"`  c #4A3217",
"'  c #4A3D17",
"]  c #423118",
"[  c #403C1E",
"{  c #403C1E",
"}  c #523719",
"|  c #543519",
" . c #413D20",
".. c #6F3830",
"X. c #4C471E",
"o. c #664621",
"O. c #7D4C24",
"+. c #585547",
"@. c #6D604B",
"#. c #830D02",
"$. c #9B0201",
"%. c #9C100E",
"&. c #9F1914",
"*. c #A31513",
"=. c #AB1E19",
"-. c #814F26",
";. c #865126",
":. c #865226",
">. c #8A5326",
",. c #9C5A29",
"<. c #865E37",
"1. c #89533F",
"2. c #9F622F",
"3. c #A6642F",
"4. c #AA652F",
"5. c #AF6932",
"6. c #B36B32",
"7. c #B86E34",
"8. c #BA7237",
"9. c #BA7237",
"0. c #B9763A",
"q. c #BC783C",
"w. c #C87A3A",
"e. c #93824F",
"r. c #BD8041",
"t. c #C88342",
"y. c #CE8A46",
"u. c #CF8E49",
"i. c #D38D47",
"p. c #D18E49",
"a. c #D48F49",
"s. c #D7924B",
"d. c #D4904A",
"f. c #D8934B",
"g. c #D9944C",
"h. c #DB944C",
"j. c #D9964E",
"k. c #DD964D",
"l. c #CC845C",
"z. c #E3BB7D",
"x. c #E7C182",
/* pixels */
"C C C C C C C C C C C C C C C C C C C C C C K K C C C C C C C C C C C C C C C C C C C C C C C C C C C C C C C C C C C C C C C C ",
"C C C C C C C C C C C C C C C C C C C C C C C C C C C C C C C C C C C C C C C C C C C C C C C C C C C C C C C C C C C C C C C C ",
"C C C C C C C C C C C C C C C C C C C C C C C C C C K K K K K K K K K K K C C C C C C C C C C C C C C C C C C C C C C H C C C C ",
"C C C C C C C C C C H D C C C C C C C C C C C C C C h f f f f f f f f f f c C C C C C C C C C C C C C C C C C C C C C C C C C C ",
"C C C D D C C C C C K K C C C C C C C C C C C C C C $ # # # # # # # # # # x C C C C C C C C C C C C C C C C C C C C C C C C C C ",
"C C C K H C C C C C H H C C C C C C C C C C C K 7 $ 2 5 t y y y y y 4 4 4 $ 7 K C C C C K K H C C C C C C C C C C C C C C C C C ",
"C C C K C C C C C C C C C C C C C C C C C C c h 6 $ 5 r p i i i i i w w 5 < 2 f c C C C H K C C C C C C C C C C C C C C C C C C ",
"C C C C C C C C C C C C C C C C C C C C C K c # 2 5 i i i i i i i i p r 4 5 2 + h K C C C C C C C C C C C C C C C C C C C C C C ",
"C C C C C C C C C C C C C C C C C C C C C 8 6 2 5 r i i i i i i i i i i y 5 2 # h K C C C C C C C C C C C C C C C C C C C C C C ",
"C C C C C C C C C C C C C C C C C C C C K 6 # 4 r i i i i i i i i i i i i 5 2 # f C C C C C C C C C C C C C C C C C C C C C C C ",
"C C C C C C C C C C C C C C C C C C C C H 6 $ 4 r p p p p p p p p p p p p w 2 2 # % G C C C C C C C C C C C C C C C C C C C C C ",
"C C C C C C C C C C C C C C C C C C C C K * + $ 2 5 4 4 4 4 5 5 5 5 5 5 5 2 $ $ X + G C C C C C C C C C C D C C C C C C C C C C ",
"C C C C C C C C C C C C C C C C C C C C K * . . . . . . . . . . . . . . . . . . . % C C C C C C C C C C C C C C C C C C C C C C ",
"C C C C C C C C C C C C C C C C D C C x * 2 2 2 2 2 2 4 r w w w w w w 5 4 $ $ $ X % G C C C C C C C C C C C C C C C C C C C C C ",
"C C C C C C C C C C C C C C C H K C G k + 2 4 4 4 4 2 5 i i i i p i i r w 2 < 2 + % K C C C C C C C C C C C C C C C C C C C C C ",
"C C C C C C H H C C C C C C C C C C G k . . . .     . + # 4 r i p i w 4 < < < 2 + % K C C C C C C C C C C C C C C C C C C C C C ",
"C C C C C C K K C C C C C C C C C C C l a a X % } ` X X + # 2 5 5 5 4 2 < $ $ $ X % K C C C C C C C C C C C C C C C C C C C C C ",
"C C C C C C C C C C C C C C C C C C C C K [ O 3 7.3.& . . . X < < < < < 2 # # # X % K C C C C C H H C C C C C C C C C C C C C C ",
"C C C C C C C C C C C C C C C C C C C C C K X g y.r.X g 2.>   + O O O + O X X . s l C C C C C C K D C C C C C C C C C C C C C C ",
"C C C C C C C C C C C C C C C C C C C C C K X g k.u.n o.w.| = . X X X X . . X + h K C C C C C C C C C C C C C C C C C C C C C C ",
"H C C C C C C C C C C C C C C C C C C C H K X g f.a.g.d.d.8.>.. o @ @ @ o . * K C C C C C C C C C C C C C C C C K C C C C C C C ",
"K C C C C C C C C C C C C C C C C C C D K { X g h.i.a.t.0.6.;.. o o o o X : f C C C C C C C C C C C C C C C C D K C C C C C C C ",
"K C C C C C C C C C C C C C C C C C C C H K X h g.a.a.q.,.4.;.. . . . . . l K C C C C C C C C C C C C C C C C C D C C C C C C C ",
"C C C C C C C C C C C C C C C C C C C C C C l h * ] 8.6.6._ % $ # # $ + . x K C C C C C C C C C C C C C C C C C C C C C C C C C ",
"C C C C C C C C C C C C C C C C C C C C C C K k O s -.O.;.> X 5 4 4 4 $ O s k C C C C D C C C C C C C C C C D C C C C C C C C C ",
"C C C C C C C C C C C C C C C C C C C C C C C C [ l . . . + $ p p p p 5 $ X * [ C C D C C C C C C C C C C C C C C C C C C C C C ",
"C C C C C C C C C C C C C C C C C C C C C C C C C k + + . # 2 i i t i e w < $ : l K K C C C C C C C C C C C C C C C C H C C C C ",
"C C C C C C C C C C C C C C C C C C C C C C C C H x # + . # 2 t u ) ( ( ) 5 $ . h K C C C C C C C C C C C C C C C C C C C C C C ",
"C C C C C C C C C C C C C C C C C C C C C C C C H x # + . $ 2 q ~ $.$.$.$./ < X h K C C C C C C C C C C C C C C C C C C C C C D ",
"C C C K D C C C C C C C C C C C C C C C C C C C H x # + . + $ 4 <.l...1.l.' # X h K C C C C C C C C C C C C C C C C C C C C C C ",
"C C C K C C C C C C C C C C C C K K C C C C C C H k # + . . % 5 e.x.+.@.z.X.+ X h K C C C C C C C C C C C C C C C C C C C C C C ",
"C C C C C C C C C C C C C D C C K K C C C C C C K l . + * X o # ^ =.&.%.*.0 # X h H C C C C C C C C C C C C C C C C C C C C C C ",
"C C C C C C C C C C C C C C C C C C C C C H C C l f X % * X X # ! #.#.#.#.9 # X h H C C C C C C C C C C C C C C C C C C C C C C ",
"C C C C C C C C C C K K C C C C C C C C D K K [ % . , % . . + 5 t p i p p 4 $ X h H C C C C C C C C C C C C C C C C C C C C C C ",
"C C C C C C C C C C D C C C C C C C C C C K h 6 * % % X . # 2 r i i p r 4 2 $ . h K C C C C C C C C C C C C C C C C C H C C C C ",
"C C C C C C C C C C C C C C C C C C C C C K d   * * . . . 4 r p i i p 5 $ 2 $ X h K C C C C C C C C C C C C C C C C K K K C C C ",
"C C C C C C C C C C C C C C C C C C C C H & % * % % . o = = 3 p p i w 4 2 + * c C C C C C C D C C C C C C C C C C C C K H C C C ",
"C C C C C C C C C C C C C C C C C D C c k + % * % X X @ - = ; y r w 4 2 $ X & K C C C C C H H C C C C C C C C C C C C C C C C C ",
"C C C C C C C C C C C C C C C C D C [ s . * * % X o - - - - = @ o o + X . . * K C C C C C C C C C C C C C C C C C C C C C C C D ",
"C C C C C C C C C C C C C C C C C C d * % & % X X X o @ = = = o o X X + # . * K C C C C C C C C C C C C H C C C C C C C C C C C ",
"C C C C C C C C C C C C C C C C C C X + , % X X . . . o = = = o X X . + $ X * K C C C C C C C C C C C C C C C C C C C C C C C C ",
"D C C C C C C C C C C C C C C C D H % . X . * D $ # X X X X X . # 2 < < 2 X * K C C C C C C C C C C C C C C C C C C C C C C C C ",
"C C C C C C C C C C C C C C C C c k + X % + d W 6 # X X O + + + < 5 4 4 2 X * K C C C C C C C C C C C C C C C C C C C C C C C C ",
"C C C C D H C C C C C C C C C K 6 . . a K C C H : + . # 2 4 5 5 r i i w 2 O * K C C C C C C C C C C C C C C C C C C C C C C C C ",
"C C C C H K C C C C C C C C C K 6 . 6 k G C C H : + X # 2 w r r i i i r 4 O * K C C C C C C C C D D C C C C C C C C C C C C C C ",
"C C C C C C C C C C C C C C C K 6 X C K C C C K : + X # 4 y i i i i p r 4 O * K C C C C C C C C C C C D K H C C C C C C C C C C ",
"C C C C C C C C C C C C C D H C c l C C C C C K * + X # 4 y p i i i i r 5 + * K C C C C C C C C C C C C K D C C C C C C C C C C ",
"C C C C C C C C C C H K C K K C C C C C C C C G * O X # 4 r i i i i p r 4 + * K C C C C C C C C C C C C C C C C C C C C C C C C ",
"C C C C C C C C C C C C C C C C C C C C C C C K * . X # 5 5 r i i i p w 2 O * K C C C C C C C C C C C C C C C C C C C C C C C C ",
"C C C C C C C C C C C C C C C C C C C C C C C C h d X + # 2 5 i i i p r 2 O * K C C C C C C C C C C C C C C C C C C C C C C C C ",
"C C C C C C C C C C C C C C C C C C C C C C C C K l X X . $ 4 i i i i w 2 O * K C C C C C C C C C C C C C C C C C C C C C C C C ",
"C C C C C C C C C C C C C C C C C C C C C K C C C C C s . $ 4 p i i w 5 4 + * K C C C C C C C C C C C C C C C C C C C C C C C C ",
"C C C C C C C C C C C C D H C C C C C C C D C C C C K s . < 4 t y y w 5 4 + * c C C C C C C C C C C C C C C C C C C C C C C C C ",
"C C C C C C C C C C C C C D C C C C C C C C C C C C K s . < 4 w r w r 5 4 + % f c C C C C C C C C C K K C C C C C C C C C C C D ",
"C C C C C C C C C C C C C C C C C C C C C C C C C c f d d % + % # # + + + X % f f k C C C C C C C D K K C C C C C C C C C C H K ",
"C C C C C C C C C C C C C C C C C C C C C C C C C c d d d % X X X X X X X . % f d f C C C C C C C C K C C C C C C C C C C C C H ",
"C C C C C C C C C C C C C C C C C C C C C C C C C l f 1 . X O * * * * * % X % f d f C C K C C C C C C C C C C C C C C C C C C C ",
"C C C C C C C C C C C C C C C C C C C C C C C C C l f 1 . X X % % % % + O . % f d f C C C C C C C C C C C C C C C C C C C C C C ",
"C C C C C C C C C C C C H D C C C C C C C C C C C l f a . X X X X X X X X X % f f k D D C C C C C C C C C C C C C C C C C C C C ",
"C C C C C C C C C C C C K K C C C C C C C C C C C C C f d d d d d d d d d d d d c C C C C C C C C C C C C C C C C C C C C C C C ",
"C C C C C C C C C C C C K H C C C C C C C C C C C C C k f f j j f j k j j j f f C C C C C C C C C C C C C C C C C C C K C C C C ",
"C C C C C C C C C C C C C C C C C C C C C C C C C C C C C C C C C C C C C C C C C C C C C C C C C C C C C C C C C C H K K C C C ",
"C C C C C C C C C C C C C C C C C C C C C C C C K K C C C C C C C C C C C C C C C C C C C C C C C C C C C C C C C C C K C C C C ",
"C C C C C C C C C C C C C C C C C C C C C C C C [  .C C C C C C C C C C C C C C C C C C C C C C C C C C C C C C C C C C C C C C "
};
