/* XPM */
static const char *military_map[] = {
/* columns rows colors chars-per-pixel */
"64 64 90 1 ",
"  c #363217",
". c #383317",
"X c #373318",
"o c #3B361B",
"O c #3D391D",
"+ c #3F3B20",
"@ c #403B1F",
"# c #433524",
"$ c #433E22",
"% c #483A27",
"& c #4D3E2B",
"* c #503F2C",
"= c #464024",
"- c #494327",
"; c #4C452A",
": c #4E482C",
"> c #52422E",
", c #544C2F",
"< c #4E4932",
"1 c #564531",
"2 c #584731",
"3 c #544E35",
"4 c #5B4B35",
"5 c #534F3C",
"6 c #5E4E38",
"7 c #575036",
"8 c #595135",
"9 c #565038",
"0 c #5C553A",
"q c #614E37",
"w c #604F38",
"e c #64533C",
"r c #69563E",
"t c #63583E",
"y c #6C583F",
"u c #565241",
"i c #5A5543",
"p c #5D5846",
"a c #5D5948",
"s c #645741",
"d c #635A44",
"f c #6D5B42",
"g c #645D49",
"h c #6A5F48",
"j c #725E43",
"k c #6D6146",
"l c #67604B",
"z c #6B624C",
"x c #756146",
"c c #786346",
"v c #75644A",
"b c #796649",
"n c #76684E",
"m c #7C6A4D",
"M c #766A50",
"N c #7D6C51",
"B c #7E6D51",
"V c #7F6E52",
"C c #7E7153",
"Z c #7B7057",
"A c #816D4E",
"S c #806F52",
"D c #816F53",
"F c #817053",
"G c #847152",
"H c #827054",
"J c #847255",
"K c #847557",
"L c #877557",
"P c #897657",
"I c #83755A",
"U c #897759",
"Y c #8C7758",
"T c #877859",
"R c #8B7B5B",
"E c #8F7B5A",
"W c #8F7C5B",
"Q c #8B7B5C",
"! c #8D7B5C",
"~ c #8D7C5D",
"^ c #907C5A",
"/ c #907C5B",
"( c #907D5F",
") c #917F60",
"_ c #928060",
"` c #928161",
"' c #958162",
"] c #968363",
"[ c #988565",
"{ c #998565",
/* pixels */
"oooooOOOoOOOooOOooooOOOOOOOOOooOoOooooooooOOoOooooooOOOooooooooo",
"oooooooooOooOOOOOOooOOOooooOOooOOOooooOooooooOOoooooOoooOOOooooo",
"oooooOOooOooOOOOOooooOooooOoOOoOOOoooOOoooooooOooooOOoOOooOOoooo",
"oOOooOOooOooOoooOOOooOoooOOOoOOOOOoOOOooooOOOooooooOOoOOoooOoOoO",
"ooOoooOOooOOoooooOOOOOOOooOOoooooooOOoooooOoOoOOooOooOOOOoooOOoo",
"oooOOoOOOOOOOoooOooOOOOoOoOOOOoooooOooooooooOOOOOoOooOOoOoooOOOo",
"oOOOOoooooooOooOOooOOoooOOooOooOOOoooOoooOOOOOOOOoOooOooOoOOOOoo",
"ooOooooooXXoooooOooOOOooOOooOooOOoo oOOoooOOOooooooooooOOoOOoooo",
"OOoooooooooooooooooOooOooOooooOOooOooOOoOOOoOOooOOoooooOOOOOooOO",
"oOoooooooOoOOoooooOOooOooOOoooOOoOOOOoooOOOoOOooOOOooOooOooOOooo",
"ooooOooooooooOooooooOOOooOoooooOooOOOOoooOooOOoooooooOoooooOOOoo",
"ooooOoooo$=$$-===$====-$$==$$$$$$======$=$$$=$=$======$OooOooooO",
"oOOooooo=K~!~~W~~~~~~~~~~~~~QRRmmRRREEEREEEE~~~~~~QQ~~C$ooOooooO",
"OoOoOooo;`](~~~~~(~!HJ!RUUU~(~EmNE!~~~~~~~~~~~(QIQ(~({R$OoOOOOoo",
"Oooooooo;`~NFHHFNNHm>2xffffmHFNxxNSSSNNFSSNNSHHzunHSN`R$OOooOOoo",
"ooooOOOo;`!FEWWENU/G>1jcccfmE/EmvEEEEHJEEERNEUNlpN(EN`R$ooooOOOo",
"oooooOOO;`!FWW/WNU/Pe>ecccfjY(EmvEEW/SK/EWRSPnahnK^EN`R$ooOooOoo",
"ooOoooOO;)!H///ENU~(N>4cccfjSEEmvEW//FJ/WWRNzpgHJK^EN]R$ooOoOooo",
"oooOooOo;`!FEE/ESUEWm;>rccfjcYEmvEEEEFJEEERnpzJEJJEEN]R$OOoooooo",
"OOooooOo;`!NSSSSNNSSme&>efrffxxxjmNNSNNSSSmdugSSNNSSN]R$OOOooooo",
"OOOOooO.;`!NUUUPNKPPUSe>>>6fjjxbvJPPPNHPPPNigHPPSHPPN`R$OoOOoooo",
"OOOoooOo-`!NEEWESR///KNSe&>rcccmvE///SJ//EzuzE//JJEPv(R$ooOOoOOo",
"OOoooOOo;`UjccGRNPE//PH(Pe>>jcxfvE/EESJ/EKpiK//EScccf~R$oooooOOo",
"OOoOOooO;`UfccccfG///UH//Pe>jcxejE///HK/RlidE(EAfjxxf(R$ooooOOOO",
"ooOOOoOO;`KfjxxjrjFKUJNUPPe&ejjeeJPPPSHPKgixKPAjyfjjf(R$OoOoooOO",
"OOOOOOOO;`J6666rryfjmNmSNSe;*rywemNSSNNSniuxmcfyrfffe~R$OooOoOOo",
"OOoOooOO;`Jee1&6ejcxbSSEEENf>ejeeGEEESKEzazbEGxxfjcr1RR$oooooooo",
"OOoooooo;`!NEc1&2excccSWWWNH4&feecPE/FKEzgKmPAccfjy>>UR$ooOOOooo",
"Oooooooo;`!SWWbf1*qxcjvWWWNJx1feejmEESJNgMKmJcxcfe>&e~R$oOooOOOo",
"OooOooOO;`!SWE/Ef>&qxjfP//NJP24eexcGESJzgKYmJcxy2;&ev)R$OoOOOOOo",
"OoooOOOo;)RmFFSSve;>rrexNSmmme>1effxNvmdiNNvvff2%4evb~K$ooOooooo",
"OOoooOoo-Smvmmmmxcf>eewjmmxvmmf%&6rjmxxdzmmjxyy1%fAmjSm$oooooOoo",
"oooooooo=mbxAAAAxmc>rewxAAxcAAc%#1yxAxsuvAmfjye%%fSmjmv$ooOOOOOo",
"oooooooo;!UNEEERNN6>jfjPEENHEEm%#2jmRNiiFEPvxxr&eFEPmEH$oOOOOOOO",
"ooOooOOo;`!HWW/EN6&1jjx(/(SK/G6#&jxA(NdNE/Pfxce>fP/EN(R$oOOooooO",
"OoOooOoo;`!NRRRRm1&rjfvRERSHF6&#>jcPRzuNERFrjr>rNJEUN(R$OOOOoooo",
"OOooooXo;`!NNNNNf11rffmNNNNf2&>&6yvSNdinSNfer46mNNSNN)R$OooOoooo",
"oOOooooo;`!SEEES4>jxcmSEEEv1&1ywemEEKgMEEExff&eESJEEN)R$ooooooOO",
"oOOOoOOo;`!F//F6&2jcSKSEWF6&2jj4rEW/MunWEGxre>xEHK/EN`R$oOoooOOO",
"ooOOoooo-`Pfvv6&1fcAEPH/(y&2jccfxEWUzpNWEbxe&6E/HKWEN)R$ooooooOO",
"ooOooooo-`N&&&&1ejAEEUS/Er&rcAPmvE(NpzKEEcxe&6EEFKEmf(R$ooOoooOO",
"OOOooooo;`J4444eefNHHNmSx2&evNNxfNNlihmNNjfe*6SSNNN03~R$OOooooOO",
"Oooooooo;`KfjjjjrbJKKFNKr&2xJKHvxFnizNSJJxje&6JJNSh33!R$ooooOooO",
"ooOOoooo;`KfccAGvK/W/PSm2&eJ//EmvHlpNFK/Ebxe&6E/FJd33!R$ooooooOO",
"OOOoOooo;`RmPPEENUWEWUNf&ymK/WEmhgpzRFKEAcj1&eE/vt079~R$oOOooOOO",
"OOooOooo;`!H~WWENP~WEFf>;cFKW/EvuipM/FKEbxj>4GEEf3997!R$oOOOoOOO",
"OOOOOooo-`!NERERNKERm2>&fPSJEEHi5izUESJUcxf*6UEm33933~R$oOOOoOOO",
"OOOoOOoo;`!NSNSNNNSm1&1eNSNNSnd5ulNSNNNmjye&4NSk<3333~R=OOoooOOO",
"OOoooOoo;`!SEEEENKEc&1mREESKRhpudREEEFKmxj>&eEEm33933~R$oooooooo",
"ooooOOoo;`!SWW/ENPP2>emEEESKHgpivE~WWHFbxj>1K//Ek3933!R$oooOOOoo",
"ooooOOOO:`!F/((WSPv>4FNE/ESKzaadvE~WWSccxr>eE(/(nt033~R$oooOOooo",
"oOoooOOO:`!NKKKKNN1&sFNJKKNNgpgvvJKKKNxjf>>vJPPKNSkts)R$oooooooo",
"oooooooO;``RRRRRRKvvKUUURRUIZNNmNUUUUUHSSvvKRRRRURRUQ{R$OOoooooo",
"oooooooo;){{{{{{{{{{{{{{{{{{{{]PU{{{{{{{{{{{{{{{{{{{{{T$OOoO@Ooo",
"oooooooO$3338878888888888888883,38888888888888888888883OOOoOOOOO",
"oooooooOooooooooooXooooooooooooooooooooooooOOoOOoooooOoOOOOOOOoo",
"ooooOoXooooOooOOoooooOooooOOoooOooooooOOOOoOOOO@OOOOOOOOOOOOoOOO",
"oOOoOooooooOooOOOooooOoooooooOOooooooOOOOOoOOOO@@OOOOOOOOOOoooOO",
"oooooooOoooOooooOOOoooOooooooOOOooooOOOOOOOOOOOOoOOOOOOOoOOOOOOO",
"oooooooooooOOoooOOOoXoOooooOoooooooOOooOOooOoOOOOoOOOOOOoOOOOO@$",
"ooooOooOOooOoooooOooooooooOooOoooooOooOOOoOOoO@OOOOOOOOOOooOOO@$",
"oOooOOoooooooXoooOooOooOoOOoOOOooooOoooOOOO$OOOooO@OOOOOOOO@OOOO",
"ooooooOoooooooooOOooooOOooOooOOOooOOoooOOOOOOOOOOO@OOOoOOOOO+OOO",
"ooooX ooOoooOOOoOoOoooOOoOoooooOOoOooooOOOOOOOOOOOOOOOoOOOOOOOOO"
};
