/* XPM */
static const char *plane[] = {
/* columns rows colors chars-per-pixel */
"64 64 159 2 ",
"   c #010302",
".  c #030A06",
"X  c #040C09",
"o  c #0A0D0A",
"O  c #001007",
"+  c #02120C",
"@  c #0B120D",
"#  c #05180F",
"$  c #0A180E",
"%  c #11130E",
"&  c #1C1A0F",
"*  c #061511",
"=  c #0C1511",
"-  c #051910",
";  c #0D1B14",
":  c #0D1A18",
">  c #121512",
",  c #141B15",
"<  c #1B1C15",
"1  c #151D19",
"2  c #1B1D19",
"3  c #201E14",
"4  c #201E18",
"5  c #0E2019",
"6  c #132017",
"7  c #15221B",
"8  c #1B241D",
"9  c #222117",
"0  c #23241B",
"q  c #28271D",
"w  c #252A1E",
"e  c #2B2A1D",
"r  c #373217",
"t  c #383317",
"y  c #373319",
"u  c #3A361A",
"i  c #3C381B",
"p  c #3B381C",
"a  c #3B381D",
"s  c #3C381C",
"d  c #3C381D",
"f  c #3F3B1F",
"g  c #1E2720",
"h  c #1E2422",
"j  c #152821",
"k  c #1C2A21",
"l  c #212521",
"z  c #222720",
"x  c #262920",
"c  c #242923",
"v  c #232B24",
"b  c #2A2B23",
"n  c #2A2C21",
"m  c #2C2E21",
"M  c #292C26",
"N  c #252E28",
"B  c #2E2F28",
"V  c #312F21",
"C  c #312E2B",
"Z  c #253026",
"A  c #2F3025",
"S  c #26312A",
"D  c #2B332B",
"F  c #2D382F",
"G  c #323323",
"H  c #343223",
"J  c #363521",
"K  c #303324",
"L  c #373524",
"P  c #383624",
"I  c #383626",
"U  c #3B3820",
"Y  c #3F3B21",
"T  c #3D3A26",
"R  c #3F3D24",
"E  c #32342E",
"W  c #383329",
"Q  c #36392C",
"!  c #3C3B29",
"~  c #2D3230",
"^  c #2E3933",
"/  c #2D3F38",
"(  c #343631",
")  c #3B3731",
"_  c #343C34",
"`  c #3B3E34",
"'  c #333E39",
"]  c #353E39",
"[  c #3C3E39",
"{  c #403C21",
"}  c #413D23",
"|  c #423F28",
" . c #324037",
".. c #3A4135",
"X. c #35423A",
"o. c #3B443C",
"O. c #3B483F",
"+. c #444026",
"@. c #44422A",
"#. c #45432D",
"$. c #49462D",
"%. c #4B482E",
"&. c #404333",
"*. c #434333",
"=. c #474530",
"-. c #494630",
";. c #484737",
":. c #4C4934",
">. c #434438",
",. c #43453C",
"<. c #454A3D",
"1. c #4B4B3C",
"2. c #504D37",
"3. c #524F38",
"4. c #54523E",
"5. c #3C4641",
"6. c #3D4B43",
"7. c #3F5048",
"8. c #464642",
"9. c #424D44",
"0. c #4B4D44",
"q. c #434F49",
"w. c #484F48",
"e. c #455045",
"r. c #4B5146",
"t. c #44514A",
"y. c #4D534A",
"u. c #555443",
"i. c #585744",
"p. c #5C5B47",
"a. c #51544A",
"s. c #53554C",
"d. c #56594F",
"f. c #585A4C",
"g. c #505651",
"h. c #555B52",
"j. c #575A52",
"k. c #5B5C53",
"l. c #605F4F",
"z. c #615E53",
"x. c #5D6055",
"c. c #5E635B",
"v. c #606257",
"b. c #64645B",
"n. c #67685D",
"m. c #69695D",
"M. c #666A62",
"N. c #6D6D64",
"B. c #716E64",
"V. c #6C7167",
"C. c #727066",
"Z. c #74736A",
"A. c #78746B",
"S. c #73786D",
"D. c #767C74",
"F. c #7F7D74",
"G. c #837F76",
"H. c #848278",
"J. c #8A887E",
/* pixels */
"u u u u u p s s u u i s s u u u u i u u u u u u u u u u u u s s s p u s s i u u u u i i i u u s s u u u u u u u u u u u i s u u ",
"u u u u u p s s u u u s s u u u u u u u u u u u u u u u u u s s s p u s s s i u u u i s i u u s s u u u u i u u u u u u i s u u ",
"u u s u u u s s u u Y s s u u i u u u u y u u u u i u u s u u i s p s s s s i u t u p s s u u s s u u u i s s s u s p u i s u t ",
"u u s u u u i i Y ;.>.| p u u s u u u u y u u u u i u u s u u u u u s s s s p u t t u s s u u s s u u s s s s s i s p p p p u t ",
"u u s s u u u i Y z g m s u s s u u p u u u u u u u u u u u u s u u p s u s u u t u u u u u s s s u u s s s u u i s u s p u u t ",
"u u s s u u u i p , 2 x s u s u u u p u u p i u u u u u u u u s u u i s u u u u u u u u u p s u u u u i u s u p s s i s u u u u ",
"p u u u u u i i y @ 8 8 Y u u u u u u u u s s u u u u u u u u u u s s i u u u u u s u u u s s u u u u u u s s s s s s s u u u u ",
"p p s u u u s i y @ 8 g J u u u u p u u s s i u u u p u u u u u u s s i u u u u p s u u u s i u u u u u u s s s s s s s u u u u ",
"s s s s u u u u J @ 8 8 K u t u u s s u u i u i u u s s s i p u u p s s u u u u u s u u u s u u u u u u p s s s s u s s u u u u ",
"s s s s u u u u L @ 8 8 w p r u i s s u u u u i s u p s i i u u u u p p u u u u u s u u s p u u u i p u s u s s u u s s u u u u ",
"u s s s u u s u L o 8 8 w p r u p s s u u u u s s s u u u u u u y u p s u u u y u p u u s p y u u i s u u t u u u u s s u s s u ",
"u s p u u u s i L o 6 7 8 P u u p s s u u u u s s s u y u u u u u u u s u i u t u p u u s u r u u u s s u r u u u u i s u s s u ",
"s s u u u s i u H o 1 , 1 e s s p s s p u u u u u u r u u u p s u p u u u i s u u p u s s u r u u u s s u t u u u u u u u s s u ",
"s s u u s s i i L o = @ 8 n Y s p s s p u u u t u u t u u u p s s s u u u i s i s p u s s y u i u u p s u u u u i u u u u s s i ",
"s s u p s s i s H o $ @ 8 x R s p p s u u u u u u u u s s u u s s s u u u u i s s i u u u r u s s u u s p p u u u u t u s s p i ",
"u s p s s u s s e X 8 1 8 z p p p p s u u u p u i i i s s u u p s s u u u u u s s u u u u t i s s u u s i i u u u u u p s s u s ",
"u u s s p u s s q . 8 8 8 v G u s u u u u u i i i s u s s u u u s s u u u u u u u u u u u u u u s i p s i i u u s u s p u u s s ",
"p u s s p u s s q . = $ > , 0 s s u u u u u u i s s u i s u u u s s u u u u u u u r u u i u u u u i s i i u t u s u s u y u s s ",
"s s s s s s s Y 9   @ = > > 8 Y i s s s u u u s s i u u s s i u u s i u u u u u u u u i u u u s u u s u u u u u s u s u u s s p ",
"s s s s s s s } 3   7 8 8 v z T i s s s u u u s s i u u i s s u u i i s i u u u u u s u u u u s u u u u u u u u i u u u u s p u ",
"s s u s u u s s &   1 , 1 8 8 L u u s u u u i s s s u u u u u t s u u s s i p p p p s u u u u s i u u u u u u u u u i i u u u u ",
"s s u u u u s s <   , X @ @ 8 A s u i u y u s u u s p u u u u u s u u s s s p p u s s u u u u s i u u u u u p u u u s i u u u u ",
"s s u u u u u s 3   ; X . . 8 b U u u y y i s u u s i s s u i i s s u u s s u u t u s u u u u u u u i p p u s u u u s s p u u p ",
"s s u u u u u s <   * X X X 8 M T i u u y p s u t s i s s u i s s s Y } s u u u r u i u u u u u y u s s s p s u u i s u s u u u ",
"s u t u u u u s 3   * * X @ 8 x P s u u u p s u u s s u s u u i u #.a.j.=.u u u u u i i u p p u u u s s s s u u u s u u s s u u ",
"s u t u u u p } 0   = = X + 7 v Q } u u u p s p u s s u s u u u s m ] 5.*.u u s u u u s u s u p u u p u u s u u p s u u s s p u ",
"s i u s u u s } 9   o + X . @ 8 D } u u u u s p u u p u s u y t p D 6.6.,.u u s s u u s u u y p s p u u u s s s s i p s s s p u ",
"i s u s u u s } 9   = : * + ; 6 v ! u u i u u u u u u s s p y u @.6.6.6.9.@.s s s s u s u r r p s p u u u s s s s u p s i s p u ",
"p u u u s s s } 9   = : * * ; 6 v ` s u i u u t u t u p i u t s ..o.9.6.9.x.m.4.@.} u p u r r s s u u u u s s s i u u u u u u u ",
"p u u u i s u Y 9   = = + + * ; 8 o.4.s u u u t u r u p u u t Y o.q.6.6.9.5.9.0.*.} u p u r t i s u i s i i s i u u u u u u u u ",
"p s u u u s u Y 9   = * + + + ; 7 _ c.l.$.s u u u r u p u u u *.6.6.q.6.t.^ , , B $.u s u t u i s s s s u u i u u u u u u i u u ",
"p s u u u u u Y 9   @ * + + + - 5 k X.g.n.p.+.s u r u s u u } 9.9.9.t.6.t.y.M.w.*.} u s u u u u s s p s i u u u u u u u i s s u ",
"u u u u u u u p <   . O X O O + # ; k S ] w.x.i.$.s u $.t r @.r.6.6.6.6.t.t.t.y.8.P p u u i i u s u u s i t u i u u s s s s s u ",
"u u u u u u s @.8 @ . . . O X O O O $ ; 1 v N o.x.u.3.i.:.:.1.q.6.6.t.9.t.t.N 8 N A 2.$.} J @.%.@.@.s u u t u s u u s s s s s i ",
"u u u t u u } u.] g ; 7 : 5 j 7 k k v Z D F D ( o.9.d.a.s.j.r.q.6.t.t.6.t.q.e.6.9.0.8.` ;.( 0.u.*.s.f.i.2.} u u p s s i s s s s ",
"u u u t u u s | 1 @ S ' ^ / X.X.9.9.9.e.r.r.o.0.y.y.r.r.9.w.t.t.6.6.6.9.t.9.e.y.y.y.,.o.0.0.y.9.E y.y.0.<.1.u u u s s u s s s s ",
"u u u y u s s q   N 6.X.o.X.1 ] s.s.r.y.y.y.,.a.s.s.y.r.w.r.9.6.5.9.9.6.9.9._ y.s.s.u.0.0.s.d.y.>.s.y.0.9.9.@.u u s s u u u i s ",
"u u s u u s T % g 9.o.o.<.L % z 8.k.v.k.d.s.r.x.b.n.k.0.9...o.6.o.6.6.6.9.9._ 0.c.V.n.z.z.m.N.n.s.k.d.y.r._ e i u s s p u u u s ",
"s u p u i } q > o.] o.1.+.s ! < 2 [ k.N.Z.N.b.C.Z.Z.n.r.` 8 6.6.o.5.6.o.9.9.r.j.s.M.Z.Z.C.F.J.H.Z.C.b.s.r.v , p s s s s i u u u ",
"s u p i s H , ^ _ ^ ;.} u u s P % > D 8.k.b.b.C.B.m.c.8._ D t.6.5.t.q.5.6.6.y.S.b.j.0.b.B.A.G.G.B.N.k.y.r.v . y s s s s s u t r ",
"s s u u Y < ~ 5.,.;.s u u u u s P % > x E [ >.s.d.d.s.9._ o.t.t.6.t.9.5.6.6._ _ o.r.( 4 0.k.b.k.1.s.a.r.9.D , ! s u u s p u u y ",
"i s u u Y m ) ;.-.s p u p p u u s L > @ 0 M M ` ..,.8.o._ o.t.7.6.6.9.5.9.6.v $ $ , 1 o ` 0.0.8.Q <.0.0.o.` o.( @.s u i p u u u ",
"i s u u u } @.s u p p u s s u u y s P > o , , N D _ _ _ _ ' t.7.5.6.t.6.t.t.^ @ @ . . b ( ` >.[ w _ .._ _ _ _ v q U u p u u i u ",
"u s s i i u u u u p p u s s s u t u s T < . o 8 v N D D F ^ 7.6.5.6.9.o.o.6.6._ o.D b E M E ( D < D D D D F , 1 o V s u u i s s ",
"u s s s u p u u u u p i u s s u t p s s @.2   @ 1 8 z v g v 6.5.X.' o.X. .O.6.c.D.M.s.[ < x D v > x N S v D , >   4 Y u i s s s ",
"u u s s u p p u u u s s u i s i u u s i i | 2   . = , , = 7 X./  .X.9.9.6.t.6.j.V.M.k.s.% , 8 , @ 8 v v 8 k 8 @   q s u s s s s ",
"u u s s u u p u u u s s u u p p u u p p i u } q     X X X , ' 5.6.o.6.6.O.9.o.Z F E ` 0.@ . > @ X @ @ > $ > = . % T p s s i s s ",
"u y i s u u u u u p s s i u u s u u u u u u u } K .       = 5.q.6.o.5.6.o.w.X.; 8 , , 8 .   .                 % ! p u p u u s s ",
"u u u u y u u u u u u u s u u s i u u u u t t i } V o     o 5.5.9.6.6.9.o.9.' @ 8 , o .                     > | s u s u u u s s ",
"u p i u y u u u u u u u s i u s s i i u u t t u s Y P 2   @ N , o.9.9.e.o.9.X.X * = 1 2                 < q | s s i s u t u s s ",
"s s s i u u u u u u u u u s u u u s s u u u t u i u } @.L E , .  .9.9.6.o.6.] X . X = z b b b b C ) W V ! $.s s s s u u t u s s ",
"s s s u u i u u u u u u u s u u u s s u u u u u i u s s } =.g @ _ 9.9.9.6.9.w.E o . x @.R } } } } @.+.} u u s u s s u u u u s s ",
"s p u u u u u s s i u p s s s s p u u u u u u i s u u s p Y g X ^ 5.' ' F ' ..Y #.:.@.s u p u p u u p p u u u u s u u s s u u i ",
"p u u u u u u s s s s s s s s s p u u u u u u i s p u s s p z X S ' X.o.X.o.o.} s s p s i u u u u p s p p u u u u u u s s u u i ",
"u u i s u u t u i s s s i s s s u u u u u u u i s s u p p Y x . N 9.6.e.6.6.r.} u p s s s u u u p s s u u u u p u u u u s s u s ",
"u u s s s u u u u p s i u u s s u u u u t u u u s s p u u } x   v 6.o.9.6.5.o.Y u p s s i u u u p s u u u u u p u u u u u s s s ",
"i u s p s s u u s u u u t t s s s i u u u s p u s s p u u } b   8 6.o.9.9.O.e.+.t u s u u u u u p u u u u i s u u s p i u i s s ",
"s s s u s s i u s u u u t y u s i i u u u s s u s u p p p } q   8 6.o.F 6.O.y.@.u u s u u u s s u u u u u i p u u s s s u u s s ",
"s s u u s p s u u u u u u t u u u u u i i s p u u u u s s s 9   1 8.o.8 o.6.9.@.u p s u u p s s u u s s p u u u u s s s u u s s ",
"s s u u p u u u t t u u u u u u r t u i s s u u u u s s s i q o 8 o.o.D o.6.t.#.i p u p u u u s u u s s s u u u u s s s u u s s ",
"s s s s s u u u u u s u s s i u u t u u i p u r u u s s i s ;.>.o.0.y.j.c.c.y.@.i u u i u u u u s u u s s i u u s s s s s s s s ",
"s s s s s u u u u p p u s s i i u t u u i p u r u u i s i u s s :.4.4.4.i.i.4.s u u u i u u u u s u u s s i u u s s i s s s i i ",
"s s s s s s u u u u u u t u u s u u u i s s u u u u u s i u p u u t u u u u t p u r u u u i s s s u u u i s s s s s u u i s i i ",
"s s s u p s u u u u u u t t u s p u u i s p u u i u u s i u s u u u u u s u u u u t u u u i s s s u u u u p s s s s u u u s i i "
};
