/* XPM */
static const char *soldier_64[] = {
/* columns rows colors chars-per-pixel */
"64 64 143 2 ",
"   c #0E0E0E",
".  c #0F100F",
"X  c #10100F",
"o  c #0F0F10",
"O  c #0F1010",
"+  c #131413",
"@  c #1A1613",
"#  c #161814",
"$  c #191A16",
"%  c #171718",
"&  c #1C1C1B",
"*  c #231C15",
"=  c #211E1C",
"-  c #1F211A",
";  c #262117",
":  c #282017",
">  c #23241D",
",  c #2C231A",
"<  c #262A1F",
"1  c #2B291D",
"2  c #31261A",
"3  c #36291B",
"4  c #3B2D1D",
"5  c #3F301D",
"6  c #201F20",
"7  c #1F2020",
"8  c #242323",
"9  c #282727",
"0  c #272B20",
"q  c #292C22",
"w  c #2B2A2A",
"e  c #332821",
"r  c #302E2E",
"t  c #2D3224",
"y  c #323727",
"u  c #393324",
"i  c #323827",
"p  c #353B29",
"a  c #383F2B",
"s  c #363535",
"d  c #393633",
"f  c #3B3A39",
"g  c #42321E",
"h  c #422F23",
"j  c #453322",
"k  c #493425",
"l  c #4C3921",
"z  c #4E3A2A",
"x  c #513E23",
"c  c #523C2B",
"v  c #413B35",
"b  c #3B422E",
"n  c #3F4630",
"m  c #5C402D",
"M  c #404731",
"N  c #434B33",
"B  c #484F36",
"V  c #475036",
"C  c #495137",
"Z  c #4C5439",
"A  c #4F583C",
"S  c #515036",
"D  c #50573B",
"F  c #525B3D",
"G  c #664731",
"H  c #674933",
"J  c #6A4932",
"K  c #664F3D",
"L  c #65503C",
"P  c #755239",
"I  c #7D573C",
"U  c #7E593C",
"Y  c #444343",
"T  c #494847",
"R  c #4B4A4A",
"E  c #555F40",
"W  c #6F5641",
"Q  c #705A45",
"!  c #715D48",
"~  c #576041",
"^  c #5C6444",
"/  c #5F6846",
"(  c #606947",
")  c #656F4A",
"_  c #666F4B",
"`  c #666F4A",
"'  c #646D49",
"]  c #636D4A",
"[  c #7C634E",
"{  c #7C654F",
"}  c #67714C",
"|  c #6A744E",
" . c #6D7750",
".. c #6C7650",
"X. c #6D7850",
"o. c #6E7851",
"O. c #6F7951",
"+. c #6E7850",
"@. c #6F7952",
"#. c #6E7851",
"$. c #805B3D",
"%. c #896346",
"&. c #9A6D4B",
"*. c #9B6D4B",
"=. c #A0724F",
"-. c #A17451",
";. c #A67854",
":. c #A97A56",
">. c #AE7F5B",
",. c #B3835E",
"<. c #AD8C6B",
"1. c #AF8D6D",
"2. c #AE8C6C",
"3. c #B59270",
"4. c #B69371",
"5. c #BF9973",
"6. c #C59770",
"7. c #C19A74",
"8. c #C49D76",
"9. c #C79971",
"0. c #C89870",
"q. c #C99A71",
"w. c #CD9C72",
"e. c #CE9C73",
"r. c #CF9E74",
"t. c #CB9F76",
"y. c #C59E78",
"u. c #D2A177",
"i. c #D6A479",
"p. c #D7A57A",
"a. c #D5A379",
"s. c #D8A67A",
"d. c #DDAE83",
"f. c #DFAF83",
"g. c #DEAF84",
"h. c #DFB186",
"j. c #E0B085",
"k. c #E0B186",
"l. c #E0B287",
"z. c #E1B287",
"x. c #E2B388",
"c. c None",
"v. c black",
/* pixels */
"c.c.c.c.c.c.c.c.c.c.c.c.c.c.c.c.c.c.c.c.c.c.c.c.c.c.c.c.c.c.c.c.c.c.c.c.c.c.c.c.c.c.c.c.c.c.c.c.c.c.c.c.c.c.c.c.c.c.c.c.c.c.c.c.",
"c.c.c.c.c.c.c.c.c.c.c.c.c.c.c.c.c.c.c.c.c.c.c.c.c.c.c.c.c.c.c.c.c.c.c.c.c.c.c.c.c.c.c.c.c.c.c.c.c.c.c.c.c.c.c.c.c.c.c.c.c.c.c.c.",
"c.c.c.c.c.c.c.c.c.c.c.c.c.c.c.c.c.c.c.c.c.c.c.c.c.c.c.c.c.c.c.c.c.c.c.c.c.c.c.c.c.c.c.c.c.c.c.c.c.c.c.c.c.c.c.c.c.c.c.c.c.c.c.c.",
"c.c.c.c.c.c.c.c.c.c.c.c.c.c.c.c.c.c.c.c.c.c.c.c.c.c.c.c.c.c.c.c.c.c.c.c.c.c.c.c.c.c.c.c.c.c.c.c.c.c.c.c.c.c.c.c.c.c.c.c.c.c.c.c.",
"c.c.c.c.c.c.c.c.c.c.c.c.c.c.c.c.c.c.c.c.c.c.c.c.c.c.c.c.c.c.c.c.c.c.c.c.c.c.c.c.c.c.c.c.c.c.c.c.c.c.c.c.c.c.c.c.c.c.c.c.c.c.c.c.",
"c.c.c.c.c.c.c.c.c.c.c.c.c.c.c.c.c.c.c.c.c.c.c.c.c.c.c.c.c.c.c.c.c.c.c.c.c.c.c.c.c.c.c.c.c.c.c.c.c.c.c.c.c.c.c.c.c.c.c.c.c.c.c.c.",
"c.c.c.c.c.c.c.c.c.c.c.c.c.c.c.c.c.c.c.c.c.c.c.c.c.c.# # # # # # # # # # # + c.c.c.c.c.c.c.c.c.c.c.c.c.c.c.c.c.c.c.c.c.c.c.c.c.c.",
"c.c.c.c.c.c.c.c.c.c.c.c.c.c.c.c.c.c.c.c.c.c.c.c.+ & M N N N N N N N N N N M & + c.c.c.c.c.c.c.c.c.c.c.c.c.c.c.c.c.c.c.c.c.c.c.c.",
"c.c.c.c.c.c.c.c.c.c.c.c.c.c.c.c.c.c.c.c.c.c.  < N ^ _ _ _ _ _ _ _ _ _ _ _ _ ^ N <   c.c.c.c.c.c.c.c.c.c.c.c.c.c.c.c.c.c.c.c.c.c.",
"c.c.c.c.c.c.c.c.c.c.c.c.c.c.c.c.c.c.c.c.c.  q B _ _ b p p D o.o. .o.D p p b _ _ C q   c.c.c.c.c.c.c.c.c.c.c.c.c.c.c.c.c.c.c.c.c.",
"c.c.c.c.c.c.c.c.c.c.c.c.c.c.c.c.c.c.c.c.c.X a ^ o.( # # o y _ o. ._ y o # # ^ o.^ a   c.c.c.c.c.c.c.c.c.c.c.c.c.c.c.c.c.c.c.c.c.",
"c.c.c.c.c.c.c.c.c.c.c.c.c.c.c.c.c.c.c.c.c.- N ( _ Z & w 8 < N F F N < 8 w & Z _ ( M & c.c.c.c.c.c.c.c.c.c.c.c.c.c.c.c.c.c.c.c.c.",
"c.c.c.c.c.c.c.c.c.c.c.c.c.c.c.c.c.c.c.c.+ n ( o.Z # w T f & + # # + & f R w $ D o.( n + c.c.c.c.c.c.c.c.c.c.c.c.c.c.c.c.c.c.c.c.",
"c.c.c.c.c.c.c.c.c.c.c.c.c.c.c.c.c.c.c.c.+ N ] o.Z + 9 w w & # 9 9 # & w w 9 + Z o.] N + c.c.c.c.c.c.c.c.c.c.c.c.c.c.c.c.c.c.c.c.",
"c.c.c.c.c.c.c.c.c.c.c.c.c.c.c.c.c.c.c.  + N ] o.Z + w Y s & + # # + & s Y w # Z o.] N +   c.c.c.c.c.c.c.c.c.c.c.c.c.c.c.c.c.c.c.",
"c.c.c.c.c.c.c.c.c.c.c.c.c.c.c.c.c.c.c.+ & 0 C ^ b + 9 s w & $ t t # & w s 9 # M ^ Z 0 & + c.c.c.c.c.c.c.c.c.c.c.c.c.c.c.c.c.c.c.",
"c.c.c.c.c.c.c.c.c.c.c.c.c.c.c.c.c.c.c.# 8 + < i < + & & & # - N C - # & & & + < i < + 8 # c.c.c.c.c.c.c.c.c.c.c.c.c.c.c.c.c.c.c.",
"c.c.c.c.c.c.c.c.c.c.c.c.c.c.c.c.c.c.c.# & + + # + + # # # + & b b $ + # # # O + + + + & + c.c.c.c.c.c.c.c.c.c.c.c.c.c.c.c.c.c.c.",
"c.c.c.c.c.c.c.c.c.c.c.c.c.c.c.c.c.c.c.+ + + & 8 & # 9 9 9 & + + + + & 9 9 9 # & 8 & + + + c.c.c.c.c.c.c.c.c.c.c.c.c.c.c.c.c.c.c.",
"c.c.c.c.c.c.c.c.c.c.c.c.c.c.c.c.c.c.c.& b b - + & 8 # + + & 9 9 9 9 & + + # & @ + - b b $ c.c.c.c.c.c.c.c.c.c.c.c.c.c.c.c.c.c.c.",
"c.c.c.c.c.c.c.c.c.c.c.c.c.c.c.c.c.c.c.- N q +   + & 8 8 8 & # # # # & 8 8 8 # O   + q N & c.c.c.c.c.c.c.c.c.c.c.c.c.c.c.c.c.c.c.",
"c.c.c.c.c.c.c.c.c.c.c.c.c.c.c.c.c.c.c.- N # # e k h > & & e k k k k e & & > j k e % $ N & c.c.c.c.c.c.c.c.c.c.c.c.c.c.c.c.c.c.c.",
"c.c.c.c.c.c.c.c.c.c.c.c.c.c.c.c.c.c.c.& i # 8 K =.%.= O   z &.&.&.&.z   + = %.=.K 8 # i $ c.c.c.c.c.c.c.c.c.c.c.c.c.c.c.c.c.c.c.",
"c.c.c.c.c.c.c.c.c.c.c.c.c.c.c.c.c.c.c.c.+ + 8 [ p.7.d #   L r.e.e.e.L   + d 5.s.{ 7 X X c.c.c.c.c.c.c.c.c.c.c.c.c.c.c.c.c.c.c.c.",
"c.c.c.c.c.c.c.c.c.c.c.c.c.c.c.c.c.c.c.c.c.c.o W p.8.v & + ! k.f.f.f.! + & v 8.s.Q O c.c.c.c.c.c.c.c.c.c.c.c.c.c.c.c.c.c.c.c.c.c.",
"c.c.c.c.c.c.c.c.c.c.c.c.c.c.c.c.c.c.c.c.c.    k -.0.3.1.1.y.k.k.k.k.8.<.1.3.0.:.c     c.c.c.c.c.c.c.c.c.c.c.c.c.c.c.c.c.c.c.c.c.",
"c.c.c.c.c.c.c.c.c.c.c.c.c.c.c.c.c.c.c.    . & ; m ;.u.k.x.x.h.h.h.h.k.x.k.p.,.H , # .   c.c.c.c.c.c.c.c.c.c.c.c.c.c.c.c.c.c.c.c.",
"c.c.c.c.c.c.c.c.c.c.c.c.c.c.c.c.c.c.$ < > + & & * G ,.u.g.x.x.k.k.k.x.h.a.,.P ; & & + > + c.c.c.c.c.c.c.c.c.c.c.c.c.c.c.c.c.c.c.",
"c.c.c.c.c.c.c.c.c.c.c.c.c.c.c.c.c.# t A Z $ & & + ; I >.6.t.t.t.t.t.r.9.,.P ; O & & $ N < + c.c.c.c.c.c.c.c.c.c.c.c.c.c.c.c.c.c.",
"c.c.c.c.c.c.c.c.c.c.c.c.c.c.c.c.+ y E | ^ & + + & 9 = H I I $.U $.$.U I J = 9 & + # < ( Z <   c.c.c.c.c.c.c.c.c.c.c.c.c.c.c.c.c.",
"c.c.c.c.c.c.c.c.c.c.c.c.c.c.c.+ p E | ^ > + p q # 9 9 = * u S S S S u * = 9 w & < B ( | D <   c.c.c.c.c.c.c.c.c.c.c.c.c.c.c.c.c.",
"c.c.c.c.c.c.c.c.c.c.c.c.c.c.c.+ b ^ o.^ # & w - + & w #   # > > > > #   O # $ + q F  .| ] N q   c.c.c.c.c.c.c.c.c.c.c.c.c.c.c.c.",
"c.c.c.c.c.c.c.c.c.c.c.c.c.c.+ t Z _ ^ p + # & & # & & & & # + % % & # # & & & + q F  . . .~ i + c.c.c.c.c.c.c.c.c.c.c.c.c.c.c.c.",
"c.c.c.c.c.c.c.c.c.c.c.c.c.c.$ N _ | B - & + # & & & # > 9 > & & & 9 & & w w w # q D ] |  .~ y + c.c.c.c.c.c.c.c.c.c.c.c.c.c.c.c.",
"c.c.c.c.c.c.c.c.c.c.c.c.c.c.$ N _ ^ Z Z N - $ + # & & # + & 9 # # & # # & 6 & + q C D |  .~ y X c.c.c.c.c.c.c.c.c.c.c.c.c.c.c.c.",
"c.c.c.c.c.c.c.c.c.c.c.c.c.c.$ N ] | | | ] N N < + # & 8 8 6 8 9 9 # O O + + +   0 A } |  .~ i + c.c.c.c.c.c.c.c.c.c.c.c.c.c.c.c.",
"c.c.c.c.c.c.c.c.c.c.c.c.c.c.$ N Z ] o.} D V q , g 4 # & 8 9 8 8 8 8 & + & & & + + t F |  .~ y o c.c.c.c.c.c.c.c.c.c.c.c.c.c.c.c.",
"c.c.c.c.c.c.c.c.c.c.c.c.c.c.c.< n D ~ D V N - , x l 3 @ # 8 9 8 & 8 & + # & & + 0 Z ^ |  .^ i X c.c.c.c.c.c.c.c.c.c.c.c.c.c.c.c.",
"c.c.c.c.c.c.c.c.c.c.c.c.c.c.c.  t y b V N p ; 3 x l l 2 @ # 8 w 8 & % # & # % + p _  .| ( N < c.c.c.c.c.c.c.c.c.c.c.c.c.c.c.c.c.",
"c.c.c.c.c.c.c.c.c.c.c.c.c.c.c.c.    > b a # ; g l j 4 g * + & 8 9 6 & = 9 # o + 1 Z _ | D <   c.c.c.c.c.c.c.c.c.c.c.c.c.c.c.c.c.",
"c.c.c.c.c.c.c.c.c.c.c.c.c.c.c.c.c.c.c.+ + + : 3 4 3 + + + & 8 # & 8 % # 8 9 # * 2 u C _ Z <   c.c.c.c.c.c.c.c.c.c.c.c.c.c.c.c.c.",
"c.c.c.c.c.c.c.c.c.c.c.c.c.c.c.c.c.c.c.c.c.  + : 4 2 +   9 r 9 9 # + % & # 8 9 & * 3 u N > c.c.c.c.c.c.c.c.c.c.c.c.c.c.c.c.c.c.c.",
"c.c.c.c.c.c.c.c.c.c.c.c.c.c.c.c.c.c.c.c.c.+ q 1 @ @ + & 9 w 9 & O   + +   # 8 9 = @ @ - c.c.c.c.c.c.c.c.c.c.c.c.c.c.c.c.c.c.c.c.",
"c.c.c.c.c.c.c.c.c.c.c.c.c.c.c.c.c.c.c.c.c.+ a b t t t & 8 8 - t t # * 2 * O # 8 8 # O   c.c.c.c.c.c.c.c.c.c.c.c.c.c.c.c.c.c.c.c.",
"c.c.c.c.c.c.c.c.c.c.c.c.c.c.c.c.c.c.c.c.c.+ a Z F E D t > > t C N t 1 5 g * + # & & $ + c.c.c.c.c.c.c.c.c.c.c.c.c.c.c.c.c.c.c.c.",
"c.c.c.c.c.c.c.c.c.c.c.c.c.c.c.c.c.c.c.c.c.+ a ^  . .| F q t N n n N t ; 4 4 & $ + # 8 # c.c.c.c.c.c.c.c.c.c.c.c.c.c.c.c.c.c.c.c.",
"c.c.c.c.c.c.c.c.c.c.c.c.c.c.c.c.c.c.c.c.c.+ a ^ |  . .| D N a + + a N y @ & b N t + # 9 # c.c.c.c.c.c.c.c.c.c.c.c.c.c.c.c.c.c.c.",
"c.c.c.c.c.c.c.c.c.c.c.c.c.c.c.c.c.c.c.c.c.+ a Z ^  . . .E i $ c.c.$ i Z ^ ^ ] _ D t + # 8 & c.c.c.c.c.c.c.c.c.c.c.c.c.c.c.c.c.c.",
"c.c.c.c.c.c.c.c.c.c.c.c.c.c.c.c.c.c.c.c.c.+ a F _  . .^ Z t   c.c.  t ~ o.o. .^ D a X c.$ #   c.c.c.c.c.c.c.c.c.c.c.c.c.c.c.c.c.",
"c.c.c.c.c.c.c.c.c.c.c.c.c.c.c.c.c.c.c.c.c.X q C / ^ ^ Z b < c.c.c.  t D ^ ^ ^ A b q   c.c.  c.c.c.c.c.c.c.c.c.c.c.c.c.c.c.c.c.c.",
"c.c.c.c.c.c.c.c.c.c.c.c.c.c.c.c.c.c.c.c.c.c.  < b b b b -   c.c.c.  q b b b b b <   c.c.c.c.c.c.c.c.c.c.c.c.c.c.c.c.c.c.c.c.c.c.",
"c.c.c.c.c.c.c.c.c.c.c.c.c.c.c.c.c.c.c.c.c.c.  + # + # + +   c.c.c.c.+ + # # # # +   c.c.c.c.c.c.c.c.c.c.c.c.c.c.c.c.c.c.c.c.c.c.",
"c.c.c.c.c.c.c.c.c.c.c.c.c.c.c.c.c.c.c.c.c.    & 9 9 9 8 #   c.c.c.c.  # 8 9 9 9 &     c.c.c.c.c.c.c.c.c.c.c.c.c.c.c.c.c.c.c.c.c.",
"c.c.c.c.c.c.c.c.c.c.c.c.c.c.c.c.c.c.c.c.c.X & 9 w w 9 8 #   c.c.c.c.  # 9 9 w w 9 &   c.c.c.c.c.c.c.c.c.c.c.c.c.c.c.c.c.c.c.c.c.",
"c.c.c.c.c.c.c.c.c.c.c.c.c.c.c.c.c.c.c.c.c.+ 8 w w w 9 & + c.c.c.c.c.c.# & 9 w w w 8   c.c.c.c.c.c.c.c.c.c.c.c.c.c.c.c.c.c.c.c.c.",
"c.c.c.c.c.c.c.c.c.c.c.c.c.c.c.c.c.c.c.c.c.  & 8 8 8 = + c.c.c.c.c.c.c.c.+ = 8 8 8 &   c.c.c.c.c.c.c.c.c.c.c.c.c.c.c.c.c.c.c.c.c.",
"c.c.c.c.c.c.c.c.c.c.c.c.c.c.c.c.c.c.c.c.c.c.          c.c.c.c.c.c.c.c.c.c.          c.c.c.c.c.c.c.c.c.c.c.c.c.c.c.c.c.c.c.c.c.c.",
"c.c.c.c.c.c.c.c.c.c.c.c.c.c.c.c.c.c.c.c.c.c.c.c.c.c.c.c.c.c.c.c.c.c.c.c.c.c.c.c.c.c.c.c.c.c.c.c.c.c.c.c.c.c.c.c.c.c.c.c.c.c.c.c.",
"c.c.c.c.c.c.c.c.c.c.c.c.c.c.c.c.c.c.c.c.c.c.c.c.c.c.c.c.c.c.c.c.c.c.c.c.c.c.c.c.c.c.c.c.c.c.c.c.c.c.c.c.c.c.c.c.c.c.c.c.c.c.c.c.",
"c.c.c.c.c.c.c.c.c.c.c.c.c.c.c.c.c.c.c.c.c.c.c.c.c.c.c.c.c.c.c.c.c.c.c.c.c.c.c.c.c.c.c.c.c.c.c.c.c.c.c.c.c.c.c.c.c.c.c.c.c.c.c.c.",
"c.c.c.c.c.c.c.c.c.c.c.c.c.c.c.c.c.c.c.c.c.c.c.c.c.c.c.c.c.c.c.c.c.c.c.c.c.c.c.c.c.c.c.c.c.c.c.c.c.c.c.c.c.c.c.c.c.c.c.c.c.c.c.c.",
"c.c.c.c.c.c.c.c.c.c.c.c.c.c.c.c.c.c.c.c.c.c.c.c.c.c.c.c.c.c.c.c.c.c.c.c.c.c.c.c.c.c.c.c.c.c.c.c.c.c.c.c.c.c.c.c.c.c.c.c.c.c.c.c.",
"c.c.c.c.c.c.c.c.c.c.c.c.c.c.c.c.c.c.c.c.c.c.c.c.c.c.c.c.c.c.c.c.c.c.c.c.c.c.c.c.c.c.c.c.c.c.c.c.c.c.c.c.c.c.c.c.c.c.c.c.c.c.c.c.",
"c.c.c.c.c.c.c.c.c.c.c.c.c.c.c.c.c.c.c.c.c.c.c.c.c.c.c.c.c.c.c.c.c.c.c.c.c.c.c.c.c.c.c.c.c.c.c.c.c.c.c.c.c.c.c.c.c.c.c.c.c.c.c.c."
};
