/* XPM */
static const char *radio[] = {
/* columns rows colors chars-per-pixel */
"64 64 53 1 ",
"  c #1E1E1C",
". c #201F1D",
"X c #1F201C",
"o c #22231D",
"O c #28271D",
"+ c #27281F",
"@ c #2C2A1D",
"# c #312E1C",
"$ c #383417",
"% c #35321C",
"& c #3B361B",
"* c #3C381C",
"= c #3F3A1F",
"- c #222220",
"; c #232420",
": c #242520",
"> c #262624",
", c #282723",
"< c #272823",
"1 c #272824",
"2 c #2B2A21",
"3 c #2B2D21",
"4 c #2F2E22",
"5 c #2A2A25",
"6 c #2B2C26",
"7 c #2A2C27",
"8 c #2F2E25",
"9 c #2B2C28",
"0 c #2D2D28",
"q c #302F23",
"w c #302F24",
"e c #2F3223",
"r c #323023",
"t c #333323",
"y c #353321",
"u c #333623",
"i c #333724",
"p c #3A3721",
"a c #3A3B25",
"s c #34322B",
"d c #3D3A2A",
"f c #3C3B30",
"g c #403B1F",
"h c #3F422A",
"j c #404429",
"k c #43492C",
"l c #44492E",
"z c #464C2F",
"x c #474C30",
"c c #484E30",
"v c #4B5032",
"b c #4C5233",
"n c #4D5334",
/* pixels */
"*&&&&***&****&**&&&**********&**&*&&&&&&&&****&&&&&*****&&&&&&**",
"&&&&&&&&**&&******&&***&&&***&&***&&&**&&&&&&**&&&&&*&*&***&&&&*",
"&&&****&&*&&*****&w8&*&&&&*&*******&***&&&&&&&*&&&&**&**&&**&&&&",
"***&&***&*&**&&&*&22&*&*&***&*********&&&****&&&&&&*****&&&*&*&*",
"&&*&&&**&***&&&&*&oo&***&&**&&&&&&&**&&&&&*&*&**&&*******&&&**&&",
"&&***&*******&&&*&oO*****&****&&&&&**&&&&&&&*******&&**&*&&&***&",
"&****&&&&&&**&&**&oO**&&**&&*&&***&&**&&&**********&&**&******&&",
"&&*&&&&&&$$&&&&&*&oO**&&**&&*&&**&&$&**&&&***&&&&&&&&&***&**&&**",
"**&&&&&&&&&&&&&&&&oo&&*&&**&&&**&&*&***&***&**&&**&&&&&*****&&**",
"**&&&&&&**&**&&&&&oo&&*&&**&&***&****&&&***&**&&***&&**&*&&***&&",
"&&&**&&&&&&******&oo&**&&*&&&&**&*****&&**&***&&&&****&&&&&***&&",
"&&&&*&&&&&*&&****&oO***&&**&&&&****&&*&&&&&&&&&&&*&&***&&&**&***",
"***&&&&&&&&&*****&oo&***&***&&&&&&&&&**&&&&&*&**&*&**&&*&&*&&*&*",
"***&*&&**&&&&&&**&oo&***&&&**&&&&&&***&&&&&**&***&&**&&**&****&&",
"*&&*&&&&&&&&$$&**&oo&$&&*$&*&**&***&&&&&&&***&&&*&********&&**&&",
"&&&&****&**&&&&**&oo&$&&*&&*&*****&*&&&&&&*&***&&&&&&&*&&*&&***&",
"&&&&&***&&&**&&&*&2@&&&&&&&&&**********&&&***&&**&&&&&&&*&*&&*&&",
"&&*&&&**&&&**&&*&&88$&&&&*&&*&&********&&&***&***&&*****&**&**&&",
"&&**&&***&&&&&**&@52@&*&&&&&&&&*&&**&*&&&&&&&***&&&*******&**&&&",
"***&&&****&&&&&&&o5<o**&&&&&&&&&****&&&&&*&&&**&&&&&&*******&&*&",
"****&&*&&*&&*&&&&o5>o&&&qwrwwrr&&***&&&&&rwqqy&&&&*&*****&**&&&&",
"****&&*&&**&&&&&&o>>o&&y7775798%$&&&&&&$%85554$&&***&$&&&&**&**&",
"**&&***&********@ --ooo275::<55oooooooooo:::<:o#*&**&&&&&&&&***&",
"*********&&***&%o oo oo:5::::55oooooooooo:::::o@&&&***&&&&&&****",
"*****&***&&***@oo    oooooooooooooooooooooooooooo%***&&&*&*&&&**",
"**********&&&*@;;oooo;:;;:;;::::;;;;;o;;;;;;oooo:%*&&&&&*&**&**&",
"**&*&&**&**&&&r5555577755555555757775575777575557%&&&&*&&&**&&&&",
"**&&&&&&&&*&&*q:<<<<<<<1<<<<<<<<<<<<<<<<<<<<<<<<<%***&*&&****&&&",
"*&&&&&***&&*&&@ooooooooooooooooooooooooooooooooXX%**&*&&&*&&***&",
"**&*&*******&&@ooo  :::o Xoo::oooerrrrrrreeer3o  @@&&****&*****&",
"**&&***&*****&@ooX-:5551;Xoo11Xo+hzzlzlllhlzkio  o:%&***&&*&&*&&",
"**&&&*&&&**&*&@oo 1<ooo;>oXoX oo+hnnnnnbncvncio  @@o@&&*&&&&&**&",
"&&&&&&&&&*****@oo ><::::>o ooooo+hnnnnljckjkxio  %$oo$&*&&*****&",
"&&&&&&&&**&&**@oo :ooooo-oXo<<Xo+hvvvvczccxcluo  %&oo&&&********",
"&&*&&**&**&&&&@oo ::::::>oXo::Xooaaaaaaaaaaaaro  #&oo&*&&**&&&&*",
"*&****&*&&*&&&@oo :ooooo:oXo  ooooooooooooooooo  %&oo&*******&&&",
"**&&*&$*&**&**@oo >>---:>o ooooooo@oo@oo:@oo2:o  %&oo&*&**&**&&&",
"&**&*&&&&**&**@oo ->ooo-:  ooooooppwsdd5sds5fso  %*oo&&&**&*&&**",
"&***&**&&&**&*@oo  ->>>:  Xoo;oo:ss55ss:0s0:s8o  %*oo&&&***&****",
"&&**&&&&&***&&@ooo  >>>- ooo11 oo4@224@:2#4:52oX %*oo&**&&&*&&**",
"&&**&&&&&&&&**@ooooXo-ooXoooo-oo@ppwsdd2spp2s0o  %&oo&**&&*&&&**",
"***&&&&&&&&&**@ooooo   Xoooo  ooo7w,,w7:585:s0oX %&oo&****&&&&**",
"*&&&&&&*****%Oooo::oX  oooo   oooss77rr,wyq<s0o  oOoo$&&*&&**&&*",
"&&***&&&*&*&@ Xoo<:    ooo -:- oOppwwpp2r*%2s0o  ooo%&&*&&&*****",
"***&***&*&$oo oooooo.  ooo o:: ooooo:ooooooo:oo  #&&***&&***&***",
"***&*&*&&$@oo#@ooXoo  XoooX   ooooooooooooooooo  #***&&&&***&***",
"*****&&&$ooo%*@                                  #&***&&********",
"******&&$o @&&@ooo .ooooooooooooooooooooooooooooo$&&******&&&***",
"**&&&*&&%o @&**&*&oo&&&&***Oo&**&&*&*&&&&&*&&**&&&*&&&&**&&&&&&*",
"&&&&***&%o @&****&oo%*&**%#o@&&&&&$#%###%####%&&&&&&&&&&*&&***&&",
"&&&*****&o @&&**&&@Oo####o @&*&&&#@:::::::::::@$&&&&*&&&&&&****&",
"**&&&***&o o%&*&&&*%oooooo@&**&&@-:85<55515<70:@****&&*&*&&&&&*&",
"&&&&&&&*&@  o$**&&&$######$&&*#@o>577:::<;<o79:@&&***&&&**&&&&&&",
"&&&&&&&&&%ooXo@&&&****&&&*%@@@>:o>555:::<o<:70<@&&&&***&**&*g*&&",
"&&&&&&&**&$@o-oo@@O@@@OOO@oo-->-o:577:::<o<o50<@&&&*&*****&*****",
"&&&&*&&**&&&@ooo-oooooo--o#%%%ooo:575:<:5:2:77:@***************&",
"&&&&*&$&&&**&%@o,o,o:ooo:#**&&&%o -55555555155:#g***************",
"&**&*&&&&&&*&&&&&&&&&&&&$&&&&**&#oo ooooooooooo%g***************",
"&*&&&*&**&***&&****&&&*&&&&&&***&&#ooooooooooo#*********&*******",
"*&&&&&&&&&&**&&&***&&&*&&&**&*&&&&&**&&**&&&&&***&******&*****gg",
"&*&&*&&**&**&&&&&**&&&&&&&**&&&&&&&*&&***&****g**********&&***gg",
"&*&&**&&&&&&&$&&&*&&*&&****&*****&&*&&*****g****&*g********g**g*",
"&**&&&*&*&&&&&&&**&&&&**&**&*****&**&&***********gg*********p***",
"&&*&$$&&***&*******&&&**&*&&&&*****&&&&***************&*********"
};
