/* XPM */
static const char *right_walk_frame_1[] = {
/* columns rows colors chars-per-pixel */
"64 64 141 2 ",
"   c #050601",
".  c #070802",
"X  c #0B0C03",
"o  c #130D03",
"O  c #0F1002",
"+  c #121303",
"@  c #1C1204",
"#  c #161A01",
"$  c #1B1C02",
"%  c #141409",
"&  c #1B1609",
"*  c #1B1A0B",
"=  c #251404",
"-  c #291605",
";  c #2A1C06",
":  c #221D0D",
">  c #2A1E0C",
",  c #201F10",
"<  c #1F2101",
"1  c #1F200F",
"2  c #222402",
"3  c #2A2006",
"4  c #262A03",
"5  c #2A2D04",
"6  c #22220C",
"7  c #28270F",
"8  c #29280F",
"9  c #362002",
"0  c #3D2205",
"q  c #243203",
"w  c #2E3205",
"e  c #2E3708",
"r  c #313506",
"t  c #353807",
"y  c #333608",
"u  c #3F3709",
"i  c #363A09",
"p  c #383C09",
"a  c #252512",
"s  c #292511",
"d  c #262814",
"f  c #2D2D15",
"g  c #332511",
"h  c #322E15",
"j  c #2F3017",
"k  c #333117",
"l  c #363319",
"z  c #363318",
"x  c #353218",
"c  c #373419",
"v  c #373519",
"b  c #353319",
"n  c #3B3118",
"m  c #38351A",
"M  c #39351A",
"N  c #39361A",
"B  c #39361B",
"V  c #3A361A",
"C  c #3A361B",
"Z  c #3A371B",
"A  c #3B371B",
"S  c #383519",
"D  c #3B371C",
"F  c #3A371B",
"G  c #3B381B",
"H  c #3B381C",
"J  c #3C381C",
"K  c #3C391C",
"L  c #3C391D",
"P  c #3D391C",
"I  c #3D3A1C",
"U  c #3D3A1D",
"Y  c #3E3A1D",
"T  c #3E3B1D",
"R  c #3D3A1E",
"E  c #3E3A1E",
"W  c #3F3B1E",
"Q  c #3C391C",
"!  c #5E1402",
"~  c #6D1402",
"^  c #711D10",
"/  c #402002",
"(  c #463309",
")  c #49360A",
"_  c #482E16",
"`  c #4A3217",
"'  c #4A3D17",
"]  c #423118",
"[  c #403C1E",
"{  c #403C1E",
"}  c #523719",
"|  c #543519",
" . c #413D20",
".. c #6F3830",
"X. c #4C471E",
"o. c #664621",
"O. c #7D4C24",
"+. c #585547",
"@. c #6D604B",
"#. c #830D02",
"$. c #9B0201",
"%. c #9C100E",
"&. c #9F1914",
"*. c #A31513",
"=. c #AB1E19",
"-. c #814F26",
";. c #865126",
":. c #865226",
">. c #8A5326",
",. c #9C5A29",
"<. c #865E37",
"1. c #89533F",
"2. c #9F622F",
"3. c #A6642F",
"4. c #AA652F",
"5. c #AF6932",
"6. c #B36B32",
"7. c #B86E34",
"8. c #BA7237",
"9. c #BA7237",
"0. c #B9763A",
"q. c #BC783C",
"w. c #C87A3A",
"e. c #93824F",
"r. c #BD8041",
"t. c #C88342",
"y. c #CE8A46",
"u. c #CF8E49",
"i. c #D38D47",
"p. c #D18E49",
"a. c #D48F49",
"s. c #D7924B",
"d. c #D4904A",
"f. c #D8934B",
"g. c #D9944C",
"h. c #DB944C",
"j. c #D9964E",
"k. c #DD964D",
"l. c #CC845C",
"z. c #E3BB7D",
"x. c #E7C182",
/* pixels */
"C C C C C C C C C C C C C C C C C C C C C C C C C C C C C C C C C C C C C C C C J J C C C C C C C C C C C C C C C C C C C C C C ",
"C C C C C C C C C C C C C C C C C C C C C C C C C C C C C C C C C C C C C C C C C C C C C C C C C C C C C C C C C C C C C C C C ",
"C C C C H C C C C C C C C C C C C C C C C C C C C C C J J J J J J J J J J J C C C C C C C C C C C C C C C C C C C C C C C C C C ",
"C C C C C C C C C C C C C C C C C C C C C C C C C C c f f f f f f f f f f h C C C C C C C C C C C C C C D J C C C C C C C C C C ",
"C C C C C C C C C C C C C C C C C C C C C C C C C C k # # # # # # # # # # $ C D C C C C C C C C C C C C J J C C C C C D D C C C ",
"C C C C C C C C C C C C C C C C C H J J C C C C J 7 $ 4 4 4 y y y y y t 5 2 $ 7 J C C C C C C C C C C C H H C C C C C H J C C C ",
"C C C C C C C C C C C C C C C C C C J H C C C c f 2 < 5 w w i i i i i p r 5 $ 6 h c C C C C C C C C C C C C C C C C C C J C C C ",
"C C C C C C C C C C C C C C C C C C C C C C J h + 2 5 4 r p i i i i i i i i 5 2 + c J C C C C C C C C C C C C C C C C C C C C C ",
"C C C C C C C C C C C C C C C C C C C C C C J h # 2 5 r i i i i i i i i i i r 5 2 6 8 C C C C C C C C C C C C C C C C C C C C C ",
"C C C C C C C C C C C C C C C C C C C C C C C f # 2 5 i i i i i i i i i i i i r 4 # 6 J C C C C C C C C C C C C C C C C C C C C ",
"C C C C C C C C C C C C C C C C C C C C C G % + 4 4 w p p p p p p p p p p p p r 4 $ 6 H C C C C C C C C C C C C C C C C C C C C ",
"C C C C C C C C C C D C C C C C C C C C C G % X $ $ 2 5 4 5 5 5 5 5 4 5 4 4 5 2 $ + * J C C C C C C C C C C C C C C C C C C C C ",
"C C C C C C C C C C C C C C C C C C C C C C % . . . .                         . .   * J C C C C C C C C C C C C C C C C C C C C ",
"C C C C C C C C C C C C C C C C C C C C C G % X $ $ < 5 5 w w w w w w r 4 2 2 2 2 2 2 $ l C C D C C C C C C C C C C C C C C C C ",
"C C C C C C C C C C C C C C C C C C C C C J % O 2 < 2 w r i i p p t t i 5 2 4 4 4 4 2 + k H C J J C C C C C C C C C C C C C C C ",
"C C C C C C C C C C C C C C C C C C C C C J % O 2 < 2 < 4 w i i p r 4 # + .     . . . . k G C C C C C C C C C C H H C C C C C C ",
"C C C C C C C C C C C C C C C C C C C C C H % X $ $ $ < 2 4 5 5 5 2 # + X X ` } @ X a 6 l C C C C C C C C C C C J J C C C C C C ",
"C C C C C C C C C C C C C C H H C C C C C H % X # # # 2 2 2 < < < X . . . & 3.7.> X [ J C C C C C C C C C C C C C C C C C C C C ",
"C C C C C C C C C C C C C C D J C C C C C C l s . X X O O O O O +   > 2.g X r.y.g X J C C C C C C C C C C C C C C C C C C C C C ",
"C C C C C C C C C C C C C C C D C C C C C C J h % X . . X X X . . = | w.o.n u.k.g X J C C C C C C C C C C C C C C C C C C C C C ",
"C C C C C C C J C C C C C C C C C C C C C C C C J *   o o @ @ @ . >.8.s.s.j.a.f.h X J H C C C C C C C C C C C C C C C C C C C H ",
"C C C C C C C J D C C C C C C C C C C C C C C C G f : X o o o o . :.6.0.t.a.i.h.h X { J C C C C C C C C C C C C C C C C C C C J ",
"C C C C C C C D C C C C C C C C C C C C C C C C C J l . . . . X . :.4.,.q.a.u.j.h X J H C C C C C C C C C C C C C C C C C C C J ",
"C C C C C C C C C C C C C C C C C C C C C C C C C J k . + $ # # $ % _ 6.6.8.] * h l C C C C C C C C C C C C C C C C C C C C C C ",
"C C C C C C C C C D C C C C C C C C C C C C C C C k s O $ 4 4 4 5 X > :.O.-.s O l J C C C C C C C C C C C C C C C C C C C C C C ",
"C C C C C C C C C C C C C C C C C C C C C C C C [ * X $ 5 p p p p $ + .     l [ C C C C C C C C C C C C C C C C C C C C C C C C ",
"C C C C H C C C C C C C C C C C C C C C C J J l : $ < w e i i i i 2 # X + + k C C C C C C C C C C C C C C C C C C C C C C C C C ",
"C C C C C C C C C C C C C C C C C C C C C C J h . $ 5 ) ( ( ) ( t 2 $ . + # k C C C C C C C C C C C C C C C C C C C C C C C C C ",
"D C C C C C C C C C C C C C C C C C C C C C J h X < / $.$.$.$.~ q 2 $ . + + k H C C C C C C C C C C C C C C C C C C C C C C C C ",
"C C C C C C C C C C C C C C C C C C C C C C J h X # ' l.1...l.<.4 $ + . + + k H C C C C C C D H C C C C C C C C C C C D J C C C ",
"C C C C C C C C C C C C C C C C C C C C C C H h X + X.z.@.+.x.e.5 % . . + + k H C C C C C C J J C C C C C C C C C C C C J C C C ",
"C C C C C C C C C C C C C C C C C C C C C C H h X # 0 *.%.&.=.^ # o X * % . l J C C C C C C J J C C C C C C C C C C C C C C C C ",
"C C C C C C C C C C C C C C C C C C C C C C H h X # 9 #.#.#.#.! # X X * % X f l C D H D C C C C C C C C C C C C C C C C C C C C ",
"C C C C C C C C C C C C C C C C C C C C C C H h . $ 4 i i i i y 5 +   . % , X % [ J J D C C C C C C C C J J C C C C C C C C C C ",
"C C C C H C C C C C C C C C C C C C C C C C J h . $ 2 4 r p i i r 2 # . o % % * 6 h J C C C C C C C C C C D C C C C C C C C C C ",
"C C C J J J C C C C C C C C C C C C C C C C J h X $ 2 $ 5 p i i p r 4 . . . * *   a J C C C C C C C C C C C C C C C C C C C C C ",
"C C C H J C C C C C C C C C C C C D C C C C C C c * + 2 4 w i p p 3 = = o . % % * % % G C C C C C C C C C C C C C C C C C C C C ",
"C C C C C C C C C C C C C C C C C H H C C C C C J * X $ 2 4 w r y ; = - @ X X % * % % k c C C C C C C C C C C C C C C C C C C C ",
"D C C C C C C C C C C H C C C C C C C C C C C C J * . . X + o o @ = - = - - o X % * *   s [ C C C C C C C C C C C C C C C C C C ",
"C C C C C C C C C C C H C C C C C C C C C C C C J * . + + X X o o = = = @ o X X X % & % * a C C C C C C C C C C C C C C C C C C ",
"C C C C C C C C C C C C C C C C C C C C C C C C J * X $ + . X X o = = = o . . . X X % , % X C C C C C C C C C C C C C C C C C C ",
"C C C C C C C C C C C C C C C C C C C C C C C C J * X 2 < < 2 # . X X X X X + $ C * . X . % H C C C C C C C C C C C C C C C C C ",
"C C C C C C C C C C C C C C C C C C C C C C C C J * X 2 4 4 5 < + + + O X X + 6 J a % % X % k c C C C C C C C C C C C C C C C C ",
"C C C C C C C C C C C C C C C C C C C C C C C C J * O 4 w i i r 5 5 4 2 + X + 6 D C C J a   . 6 J C C C C C C C C C H D C C C C ",
"C C C C C C C C C C C C C C C C C C C C C C C C J * O 4 r i i i r r w 4 + X + : H C C D k a . 6 J C C C C C C C C C J H C C C C ",
"C C C C C C C C C C H J D C C C C C C C C C C C J * O 4 r p i i i i y 4 # X + : J C C C J C X 6 J C C C C C C C C C C C C C C C ",
"C C C C C C C C C C D J C C C C C C C C C C C C J * + 5 r i i i i i y 4 # X + * H C C C C C l C C H D C C C C C C C C C C C C C ",
"C C C C C C C C C C C C C C C C C C C C C C C C J * + 4 r p i i i i w 4 # X O * H C C C C C C C C J J C J H C C C C C C C C C C ",
"C C C C C C C C C C C C C C C C C C C C C C C C J * O 2 w p i i i r 5 5 # X . * J C C C C C C C C C C C C C C C C C C C C C C C ",
"C C C C C C C C C C C C C C C C C C C C C C C C J * O 2 w p i i i 5 2 + + X a h C C C C C C C C C C C C C C C C C C C C C C C C ",
"C C C C C C C C C C C C C C C C C C C C C C C C J * O 2 w i i i i 4 $ . X X k J C C C C C C C C C C C C C C C C C C C C C C C C ",
"C C C C C C C C C C C C C C C C C C C C C C C C J * + 4 5 w i i p 4 $ . a C C C C C J C C C C C C C C C C C C C C C C C C C C C ",
"C C C C C C C C C C C C C C C C C C C C C C C c c * + 4 5 w y y y 4 < . s J C C C C D C C C C C C C D D C C C C C C C C C C C C ",
"D C C C C C C C C C C C J J C C C C C C C C C c f % + 4 5 w w w w 4 < . s J C C C C C C C C C C C C D C C C C C C C C C C C C C ",
"J H C C C C C C C C C C J J D C C C C C C C k f f % X + + + + + % + % a f f c C C C C C C C C C C C C C C C C C C C C C C C C C ",
"H C C C C C C C C C C C C J C C C C C C C C f d f % . X X X X X X . % d d d c C C C C C C C C C C C C C C C C C C C C C C C C C ",
"C C C C C C C C C C C C C C C C C C C J C C f d f % X % * * * * * O X . 1 f l C C C C C C C C C C C C C C C C C C C C C C C C C ",
"C C C C C C C C C C C C C C C C C C C C C C f d f % X % % % % % % X X . 1 f l C C C C C C C C C C C C C C C C C C C C C C C C C ",
"C C C C C C C C C C C C C C C C C C C C C C f f f % X X X X X X X X X X a f l C C C C C C C C C C C C H C C C C C C C C C C C C ",
"C C C C C C C C C C C C C C C C C C C C C C C l d d d d d d d d d d d a f C C C C C C C C C C C C C J J C C C C C C C C C C C C ",
"C C C C J C C C C C C C C C C C C C C C C C C c f f k j k k j f j j f f k C C C C C C C C C C C C C H J C C C C C C C C C C C C ",
"C C C J J H C C C C C C C C C C C C C C C C C C C C C C C C C C C C C C C C C C C C C C C C C C C C C C C C C C C C C C C C C C ",
"C C C C J C C C C C C C C C C C C C C C C C C C C C C C C C C C C C C C C C J J C C C C C C C C C C C C C C C C C C C C C C C C ",
"C C C C C C C C C C C C C C C C C C C C C C C C C C C C C C C C C C C C C C  .[ C C C C C C C C C C C C C C C C C C C C C C C C "
};
