/* XPM */
static const char *right_walk_frame_2[] = {
/* columns rows colors chars-per-pixel */
"64 64 139 2 ",
"   c #040602",
".  c #060802",
"X  c #0B0C03",
"o  c #130D03",
"O  c #190F02",
"+  c #0E1002",
"@  c #121303",
"#  c #1D1203",
"$  c #171802",
"%  c #1A1C02",
"&  c #151409",
"*  c #1A160B",
"=  c #1C1B0C",
"-  c #1E1C10",
";  c #221303",
":  c #231C02",
">  c #211E0D",
",  c #211F12",
"<  c #1E2101",
"1  c #1E2A01",
"2  c #1F2008",
"3  c #222601",
"4  c #252902",
"5  c #2A2D03",
"6  c #23220E",
"7  c #27280A",
"8  c #28280D",
"9  c #35250F",
"0  c #2D3103",
"q  c #2E3B03",
"w  c #313504",
"e  c #393205",
"r  c #353A05",
"t  c #393D06",
"y  c #242412",
"u  c #2B2512",
"i  c #2C2C16",
"p  c #2D2E18",
"a  c #3B2710",
"s  c #302E14",
"d  c #312F16",
"f  c #3E2C13",
"g  c #2F3018",
"h  c #333116",
"j  c #343117",
"k  c #343217",
"l  c #343317",
"z  c #333017",
"x  c #323018",
"c  c #333118",
"v  c #343118",
"b  c #353318",
"n  c #353319",
"m  c #373519",
"M  c #343319",
"N  c #38351A",
"B  c #38361A",
"V  c #39361A",
"C  c #39361B",
"Z  c #39371B",
"A  c #3A361B",
"S  c #3A371B",
"D  c #3A371C",
"F  c #3A371B",
"G  c #3A381B",
"H  c #3B381B",
"J  c #3A381C",
"K  c #3B381C",
"L  c #3B391C",
"P  c #3C391C",
"I  c #3C391D",
"U  c #3D3A1D",
"Y  c #3E3A1D",
"T  c #3D3A1E",
"R  c #3E3B1E",
"E  c #3C391C",
"W  c #002F3E",
"Q  c #5A1301",
"!  c #5B1C02",
"~  c #423606",
"^  c #473807",
"/  c #422F15",
"(  c #452F11",
")  c #423016",
"_  c #433016",
"`  c #413D1F",
"'  c #4C381B",
"]  c #523617",
"[  c #543617",
"{  c #563717",
"}  c #5B3B19",
"|  c #402726",
" . c #3B4006",
".. c #3C4106",
"X. c #3D4206",
"o. c #3E4306",
"O. c #3C4106",
"+. c #3A4108",
"@. c #634721",
"#. c #684B24",
"$. c #6A4D24",
"%. c #6F4D2B",
"&. c #734D2F",
"*. c #72443A",
"=. c #7A5136",
"-. c #820300",
";. c #880000",
":. c #850900",
">. c #831300",
",. c #845122",
"<. c #8D5726",
"1. c #8F5725",
"2. c #8A5826",
"3. c #B96F31",
"4. c #BD7131",
"5. c #C27332",
"6. c #CA7936",
"7. c #8C4D41",
"8. c #9F5C4D",
"9. c #AF6B58",
"0. c #BC735D",
"q. c #D48039",
"w. c #88895F",
"e. c #95946B",
"r. c #D58840",
"t. c #D78B44",
"y. c #D48C44",
"u. c #D78D45",
"i. c #D98B44",
"p. c #DA8D45",
"a. c #DA8D44",
"s. c #DD8F46",
"d. c #E49448",
"f. c #E69549",
"g. c #E69649",
"h. c #EA984A",
"j. c #E8994A",
"k. c #809E8B",
"l. c #9FB49B",
/* pixels */
"Z Z Z G Z Z Z Z Z Z Z Z Z Z Z Z Z Z Z Z Z J P P Z Z Z Z G Z Z Z Z Z Z Z Z Z Z Z Z Z Z Z Z Z Z Z Z Z Z Z Z Z Z Z Z Z Z Z Z Z Z Z ",
"Z Z Z Z Z Z Z Z Z Z Z Z Z Z Z Z Z Z Z Z Z Z J J Z Z Z Z Z Z Z Z Z Z Z Z Z Z Z Z Z Z Z Z Z Z Z Z Z Z Z Z Z Z Z Z Z Z Z J Z Z Z Z ",
"Z Z Z Z Z Z Z Z Z Z Z Z Z Z Z Z Z Z Z Z Z Z Z Z Z P P P P P P P P P P P Z Z Z Z Z Z Z Z Z Z Z Z Z Z Z Z Z Z Z Z Z Z Z J J Z Z Z ",
"Z Z Z Z Z Z Z Z Z Z J J Z Z Z Z Z Z Z Z Z Z Z Z Z s i i i i i i i i i s Z Z Z Z Z Z Z Z Z Z Z Z Z Z Z Z Z J Z Z Z Z Z Z Z Z Z Z ",
"Z Z Z J J Z Z Z Z Z P P Z Z Z Z Z Z Z Z Z Z Z Z Z % $ % % % % % % % $ % Z Z Z Z Z Z Z Z Z J Z Z Z Z Z Z Z Z Z Z Z Z Z Z Z Z Z Z ",
"Z Z Z P J Z Z Z Z Z J J Z Z Z Z Z Z Z Z Z Z P i % 4 5 r r r r r r r 5 4 % u P Z J J Z Z P P J Z Z Z Z Z Z Z Z Z Z Z Z Z Z Z Z Z ",
"D Z Z P Z Z Z Z Z Z Z Z Z Z Z Z Z Z Z Z Z Z h 7 < 0 w t t t t t t t w 0 < 7 h m Z Z Z Z J J Z Z Z Z Z Z Z Z Z Z Z Z Z Z Z Z Z Z ",
"D Z Z Z Z Z Z Z Z Z Z Z Z Z Z Z Z Z Z Z J k $ 3 0 r t t t t t t t t t r w 4 @ k P Z Z Z Z Z Z Z Z Z Z Z Z Z Z Z Z Z Z Z Z Z Z Z ",
"Z Z Z Z Z Z Z Z Z Z Z Z Z Z Z Z Z Z Z Z J k $ 5 r r t t t t t t t t t t r 5 % 6 8 Z Z Z Z Z Z Z Z Z Z Z Z Z Z Z Z Z Z Z Z Z Z Z ",
"Z Z Z Z Z Z Z Z Z Z Z Z Z Z Z Z Z Z Z Z Z h $ 5  .t t t t t t t t t t t t 0 3 $ * Z Z Z Z Z Z Z Z Z Z Z Z Z Z Z Z Z Z Z Z Z Z Z ",
"Z Z Z Z Z Z Z Z Z Z Z Z Z Z Z Z Z Z Z G & @ % 0 o. .o.o. . . . . . . . .o.w 3 % % J Z Z Z Z Z Z Z Z Z Z Z Z Z Z Z Z Z Z Z Z Z Z ",
"Z Z Z Z Z Z Z Z Z Z Z Z Z Z Z Z Z Z Z J & . @ < 5 4 4 4 4 4 4 4 4 4 4 4 5 3 % @ * G Z Z Z Z Z Z Z Z Z Z Z J J Z Z Z Z Z Z Z Z Z ",
"Z Z Z Z Z Z Z Z Z Z Z Z Z Z Z Z Z Z Z G & . X . . . . . . . . . . . . . . . X . & P Z Z Z Z Z Z Z Z Z Z Z J J Z Z Z Z Z Z Z Z Z ",
"Z Z Z Z Z Z Z Z Z Z Z Z Z Z Z J J Z Z J & X < 3 4 0 w w w 0 0 0 0 0 3 < 3 < < < % = v J Z Z Z Z Z Z Z Z Z Z Z Z Z Z Z Z Z Z Z Z ",
"Z Z Z Z Z Z Z Z Z Z Z Z Z Z Z J P Z Z G & + 3 5 0 t t t t t t t r r 5 3 4 4 3 3 < @ k P Z Z Z Z Z Z Z Z Z Z Z Z Z Z Z Z Z Z Z Z ",
"Z Z Z Z Z Z J P Z Z Z Z Z Z Z Z Z Z Z J & X 3 3 3 5 w t t t t 0 4 % @ .     X X . . h P Z Z Z Z Z Z Z Z Z Z Z Z Z Z Z Z Z Z Z Z ",
"Z Z Z Z Z Z P P Z Z Z Z Z Z Z Z Z Z Z J & X < < 3 4 5 0 0 0 0 < % % X * [ [ * . > > v G Z Z Z Z Z Z Z Z Z Z Z Z Z Z Z Z Z Z Z Z ",
"Z Z Z Z Z Z Z D Z Z Z Z Z Z Z Z Z Z Z J & X $ < 4 3 3 3 3 3 3 . .     9 4.5.a . P P Z Z Z Z Z Z J J Z Z Z Z Z Z Z Z Z Z Z Z Z Z ",
"Z Z Z Z Z Z Z Z Z Z Z Z Z Z Z Z Z Z Z Z c u X @ @ @ @ @ @ @ @ . 9 1.# u t.t.f . Z Z Z Z Z Z Z J P J Z Z Z Z Z Z Z Z Z Z Z Z Z Z ",
"Z Z Z Z Z Z Z Z Z Z Z Z Z Z Z Z Z Z Z Z P v X X X . . . . . X   ] q./ ' f.f._ . Z G Z Z Z Z Z Z J Z Z Z Z Z Z Z Z Z Z Z Z Z Z Z ",
"J Z Z Z Z Z Z Z Z Z Z Z Z Z Z Z Z Z Z Z Z Z J = . # ; ; ; o X + $.f.y.y.i.f._ . Z G Z Z Z Z Z Z Z Z Z Z Z Z Z J P Z Z Z Z Z Z Z ",
"P G Z Z Z Z Z Z Z Z Z Z Z Z Z Z Z Z Z Z P Z P i 6 @ O @ @ X X . #.j.a.s.a.f._ . Z J Z Z Z Z Z Z Z Z Z Z Z Z Z J P Z Z Z Z Z Z Z ",
"P Z Z Z Z Z Z Z Z Z Z Z Z Z Z Z Z Z Z Z D Z Z P P X . X . X X   @.j.t.a.a.j._ . Z J Z Z Z Z Z Z Z Z Z Z Z Z Z Z D Z Z Z Z Z Z Z ",
"Z Z Z Z Z Z Z Z Z Z Z Z Z Z Z Z Z Z Z Z Z Z P 6 @ $ $ $ $ $ %   } 6.3.6.2.> k v Z Z Z Z Z Z Z Z Z Z Z Z Z Z Z Z Z Z Z Z Z Z Z Z ",
"Z Z Z Z Z Z Z Z Z Z Z Z Z Z Z Z Z Z Z Z Z m h = @ 3 3 3 3 < % X ( 1.,.1.} X h P Z Z Z D Z Z Z Z Z Z Z Z Z J P J Z Z Z Z Z Z Z Z ",
"Z Z Z Z Z Z Z Z Z Z Z Z Z Z Z Z Z Z Z Z P v X 3 0 t t t t 5 3 4 %   .   = ` Z Z Z Z Z Z Z Z Z Z Z Z Z Z Z Z J Z Z Z Z Z Z Z Z Z ",
"Z Z Z Z Z Z Z Z Z Z Z Z Z Z Z Z Z Z Z G u 6 % 4 w r t t t 4 < 4 < @ $ X = P Z Z J P J Z Z Z Z Z Z Z Z Z Z Z Z Z Z Z Z Z Z Z Z Z ",
"Z Z Z Z Z Z Z Z Z Z Z Z Z Z Z Z Z Z Z J @ + 4 w +.t +.t t 3 % 4 3 % % X = P Z Z J J J Z Z Z Z Z Z Z Z Z Z Z D Z Z Z Z Z Z Z Z Z ",
"Z Z Z J D Z Z Z Z Z Z Z Z Z Z Z Z Z Z J * @ 1 Q :.>.-.! q $ @ 4 3 3 % @ X @ v P Z Z Z Z Z Z Z Z Z Z Z Z Z Z Z Z Z Z Z Z Z Z Z J ",
"Z Z Z P J Z Z Z Z Z Z Z Z Z Z Z G Z Z J $ $ < =.9.*.0.&.0 @ X 4 3 3 < @ X X i v Z Z Z Z Z Z Z Z Z Z Z Z Z Z Z Z Z Z Z Z Z Z Z Z ",
"Z Z Z P Z Z Z Z Z Z Z Z Z Z Z G P P Z J $ $ $ e.k.W l.w.4 $ + 4 4 3 < + & u X X P P Z Z Z Z Z Z Z Z Z Z Z Z Z Z Z Z Z Z Z Z Z Z ",
"Z Z Z Z Z Z Z Z Z Z Z Z Z J Z Z P J Z J $ $ < &.7.| 8.%.0 $ X < 3 3 < + X & & * = i J Z Z Z Z Z Z Z Z Z Z Z Z Z Z Z Z Z Z Z Z Z ",
"Z Z Z Z Z Z Z Z Z Z J J Z D Z Z Z Z Z J $ $ 4 Q ;.:.-.! q $ X % < 4 < @ . . - , . > P Z D D D D Z Z Z Z Z Z Z Z Z Z Z Z Z Z Z Z ",
"Z Z Z Z Z Z Z Z Z Z P P Z Z Z Z Z Z Z J * @ 4 e ^ ~ ^ t t < $ X X + X X X X & * y = @ v P D D D Z Z Z Z Z Z Z Z Z Z Z Z Z Z Z Z ",
"Z Z Z Z Z Z Z Z Z Z J J Z Z Z Z Z Z Z J * @ 3 0 t t t t t 5 < @ X . X o X X @ & y = X i v Z D D Z Z Z Z Z Z Z Z Z Z Z J G Z Z Z ",
"Z Z Z Z Z Z Z Z Z Z Z Z Z Z Z Z Z Z Z J @ X % 4 0 t t t t t r 4 % . # ; # X X X & = y X X Z D D Z Z Z Z Z Z Z Z Z Z J P J Z Z Z ",
"Z Z Z Z Z Z Z Z Z Z Z Z Z Z Z Z Z Z Z Z u 6 @ % 4 0 5 w t t w : # O # ; # o X X o & & X X Z J Z Z Z Z Z Z Z Z Z Z Z Z P J Z Z Z ",
"Z Z Z Z Z Z Z Z Z Z Z Z Z Z Z Z Z Z Z Z P v . $ % 3 < 0 t t w ; ; ; ; ; # O X X . X . . @ Z J Z Z Z Z Z Z Z Z Z Z Z Z Z Z Z Z Z ",
"Z Z Z Z Z Z Z Z Z Z Z Z Z Z Z Z Z Z Z Z G h $ @ X $ $ $ % % % O # ; ; # O X . X d c v @ . @ u P Z Z Z Z J Z Z Z Z Z Z Z Z Z Z D ",
"Z Z Z Z Z Z Z Z Z Z Z Z Z Z Z Z Z Z Z Z J h $ @ @ @ @ @ + o O O O ; ; O o . @ * Z P P = & . 6 v Z Z Z Z J G Z Z Z Z D Z Z Z Z Z ",
"D Z D Z Z Z Z Z Z Z Z Z Z Z Z Z Z Z Z Z P h . % 4 . . . . . X O O O O X . . h P Z Z Z P m . . . h P Z Z Z D J Z Z Z Z D Z Z Z Z ",
"J Z Z Z Z Z Z Z Z Z Z Z Z Z Z Z G Z Z Z P h X % 3 % % % % % % o o o o X X X h J D D Z J Z y y y v G Z Z Z Z Z Z Z Z Z Z Z Z Z Z ",
"Z Z Z Z Z Z Z Z Z Z Z Z Z Z Z Z Z Z Z Z J h X % 4 4 4 4 4 4 3 . . . X @ @ . h P Z Z Z Z G P P P Z Z Z Z Z Z Z Z Z Z Z Z Z Z Z Z ",
"Z Z Z Z J J Z Z Z Z Z Z Z Z Z Z Z Z Z Z P k X % 4 w r r w r w 3 % @ < 3 < $ @ * Z J D D Z Z Z Z Z Z Z Z Z Z Z Z Z Z Z Z Z Z Z Z ",
"Z Z Z Z P P Z Z Z Z Z Z Z J Z Z Z Z Z Z m i @ < 5 t t t t t r 5 < @ 3 4 3 % + @ m Z Z Z Z Z Z Z J J Z Z J Z Z Z Z Z Z Z Z Z Z Z ",
"Z Z Z Z J Z Z Z Z Z Z Z Z Z Z Z Z Z P P @ @ 5 w t t t t t t w < $ X < 4 3 3 @ @ P P Z Z Z Z Z Z Z G Z J P J Z Z Z Z Z Z Z Z Z Z ",
"Z Z Z Z Z Z Z Z Z Z Z Z Z J J Z Z G i 6 < 3 w r t t t t t r 0 $ $ @ < 4 3 3 $ $ 6 p J Z Z Z Z Z Z Z Z Z P J Z Z Z Z Z Z Z Z Z Z ",
"Z Z Z Z Z Z Z Z Z Z P P Z P P Z Z P = . 5 w t t t t t t t 0 4 X @ % 3 4 4 3 < % . 6 P Z Z Z Z Z Z Z Z Z Z Z Z Z Z Z Z Z Z Z Z Z ",
"Z Z Z Z Z Z Z Z Z Z J J Z Z Z P v & $ $ 5 w t t t t  .w 0 % @ . @ % 3 4 4 3 3 3 X 6 P Z Z Z Z Z Z Z Z Z Z Z Z Z Z Z Z Z Z Z Z Z ",
"Z Z Z Z Z Z Z Z Z Z Z Z Z Z Z v u . @ $ 5 w t t r r r 0 3 * @ & $ $ < 3 4 3 4 3 X 6 P Z Z Z Z Z Z Z Z Z Z Z Z Z Z Z Z Z Z Z Z Z ",
"Z Z Z Z Z Z Z Z Z Z Z Z Z P P @ . X X X r o. .t 4 3 4 % . d P P y . $ 3 4 3 4 3 X 6 ` P P P G Z Z Z Z Z Z Z Z Z Z Z Z Z Z Z Z Z ",
"Z Z Z Z Z Z Z Z Z Z Z Z J d 6 X X & o X < 4 5 4 % % $ 2 6 k Z P 6 . $ 3 4 3 % $ X & y y y 6 d G Z Z Z Z Z Z Z Z Z Z Z Z Z Z Z Z ",
"Z Z Z Z Z Z Z Z Z Z Z Z P y . X @ y & . . X $ $ X X . 6 ` Z Z P y . $ 3 4 4 @ . X . . . . . y P Z Z Z Z Z Z Z Z Z Z Z Z Z Z Z Z ",
"Z Z Z Z Z Z Z Z Z Z Z Z P y . X X * = , X X X @ d h d m Z Z Z J v d * X @ @ X X & * = X X . y P Z Z P P Z Z Z Z Z Z Z Z Z Z Z G ",
"Z Z Z Z Z Z Z Z Z Z Z Z P y X X X & = y X X X & m Z Z Z m m m m Z P * . X X X X = = = X X X u P Z J P P Z Z Z Z Z Z Z Z Z Z J P ",
"Z Z Z Z Z Z Z Z Z Z Z Z Z Z Z X . X & & . & p i i i i i p p p i i p & . X & = = = & X . X Z Z Z Z Z J G Z Z Z Z Z Z Z Z Z Z Z G ",
"Z Z Z Z Z Z Z Z Z Z Z Z Z Z Z y = X X @ . @ = y p i p p i i i i i p & . X X & & & X X * y Z Z Z Z Z Z Z Z Z Z Z Z Z Z Z Z Z Z Z ",
"Z Z Z Z Z Z Z Z Z Z Z Z Z Z Z R c . X X X X . y p i p p i p i i i p & . X X X X X X X v P Z Z Z Z Z Z Z Z Z Z Z Z Z Z Z Z Z Z Z ",
"Z Z Z Z Z Z Z Z Z Z Z Z J J Z Z m v & . . . . y p i i p i i i i i p i y y y y y y i h Z Z Z Z Z Z Z Z Z Z Z Z Z Z Z Z Z Z Z Z Z ",
"Z Z Z Z Z Z Z Z Z Z Z Z P P Z Z Z P y & & & & y p i i p p i p i p i p p p p p g p m P Z Z Z Z Z Z Z Z Z Z Z Z Z Z Z Z Z Z Z Z Z ",
"Z Z Z Z Z Z Z Z Z Z Z Z P J Z Z Z Z G J J J P c i i i i i i i i i i i i i i m Z Z Z Z Z Z Z Z Z Z Z Z Z Z Z Z Z Z Z Z P Z Z Z Z ",
"Z Z Z Z Z Z Z Z Z Z Z Z Z Z Z Z Z D Z Z Z Z Z v c c c c c c c c c c c c c c m Z Z Z Z Z Z Z Z Z Z Z Z Z Z Z Z Z Z Z J P P Z Z Z ",
"Z Z Z Z Z Z Z Z Z Z Z Z Z Z Z Z Z Z Z Z Z Z Z Z P J Z Z G G Z G G G G G G Z Z Z Z Z Z Z Z Z Z Z Z Z Z Z Z Z Z Z Z Z Z P Z Z Z Z ",
"Z Z Z Z Z Z Z Z Z Z Z Z Z Z Z Z Z Z Z Z Z Z Z Z P P Z Z D Z Z Z Z Z Z Z Z Z Z Z Z Z Z Z Z Z Z Z Z Z Z Z Z Z Z Z Z Z Z Z Z Z Z Z "
};
