/* XPM */
static const char *right_walk_frame_4[] = {
/* columns rows colors chars-per-pixel */
"64 64 141 2 ",
"   c #030701",
".  c #050902",
"X  c #0C0D04",
"o  c #140E04",
"O  c #1B0F03",
"+  c #0E1003",
"@  c #121304",
"#  c #1D1103",
"$  c #161901",
"%  c #1A1C02",
"&  c #151509",
"*  c #18170A",
"=  c #1B1B0C",
"-  c #241403",
";  c #2A1603",
":  c #231D04",
">  c #2B1C04",
",  c #221D0D",
"<  c #291F0A",
"1  c #201F10",
"2  c #1E2201",
"3  c #222502",
"4  c #262903",
"5  c #292C03",
"6  c #23230D",
"7  c #272908",
"8  c #2B2D09",
"9  c #392D06",
"0  c #31210F",
"q  c #2E3106",
"w  c #2E3208",
"e  c #313307",
"r  c #343609",
"t  c #3D340A",
"y  c #36390A",
"u  c #393B0A",
"i  c #242411",
"p  c #292612",
"a  c #272915",
"s  c #2E2D13",
"d  c #2B2914",
"f  c #2F2D16",
"g  c #2B2C16",
"h  c #2C2E18",
"j  c #342510",
"k  c #352812",
"l  c #302E17",
"z  c #302F14",
"x  c #312F17",
"c  c #3A2C13",
"v  c #3B2D15",
"b  c #313015",
"n  c #333117",
"m  c #333017",
"M  c #323018",
"N  c #333118",
"B  c #333119",
"V  c #353318",
"C  c #37341A",
"Z  c #37351A",
"A  c #373419",
"S  c #343219",
"D  c #38351B",
"F  c #38351B",
"G  c #38361B",
"H  c #39361B",
"J  c #39371B",
"K  c #3A371B",
"L  c #3A361B",
"P  c #38351C",
"I  c #39361C",
"U  c #39371C",
"Y  c #3A371C",
"T  c #3A371C",
"R  c #3A381C",
"E  c #3B381C",
"W  c #3B381D",
"Q  c #3C391D",
"!  c #3C381D",
"~  c #3D3A1D",
"^  c #3C391E",
"/  c #3D3A1E",
"(  c #3E3A1F",
")  c #3E3B1F",
"_  c #3E3B1E",
"`  c #3F3C1F",
"'  c #3C391D",
"]  c #460E03",
"[  c #490B02",
"{  c #7C0A04",
"}  c #4D2C07",
"|  c #4B2D08",
" . c #41370B",
".. c #472C11",
"X. c #4A3417",
"o. c #403218",
"O. c #4C3718",
"+. c #403D1F",
"@. c #403D1F",
"#. c #4E3819",
"$. c #4F391A",
"%. c #513515",
"&. c #543716",
"*. c #59361F",
"=. c #503A1B",
"-. c #423E20",
";. c #5D3921",
":. c #1A6639",
">. c #554319",
",. c #64401A",
"<. c #5E5E2D",
"1. c #6A4D26",
"2. c #73442A",
"3. c #7A452C",
"4. c #427C48",
"5. c #6D6A40",
"6. c #850402",
"7. c #870A06",
"8. c #8B5221",
"9. c #945C28",
"0. c #8A4E32",
"q. c #C16D2B",
"w. c #C37230",
"e. c #A95E41",
"r. c #A96142",
"t. c #B16242",
"y. c #D4873E",
"u. c #D1853D",
"i. c #BFBE7D",
"p. c #D58B42",
"a. c #D68C43",
"s. c #D68C44",
"d. c #D88C43",
"f. c #D88E44",
"g. c #DB9146",
"h. c #DC9146",
"j. c #E49547",
"k. c #E49548",
"l. c #E59649",
"z. c #E89A4A",
"x. c #C9C080",
/* pixels */
"K K Y K K K K Y K Y Y Y Y Y Y Y Y Y Y Y Y Y Y Y Y Y Y K K Y Y K K Y Y Y Y Y Y Y Q Q W Y Y Y Y Y Y Y Y Y K Y Y K Y Y K Y Y Y Y Y ",
"Y Y K Y Y Y K K K K Y Y Y Y Y Y Y Y Y Y Y Y Y Y Y Y Y K K K K K K K K K Y Y Y Y W W Y Y Y Y Y Y Y Y Y Y K Y Y Y Y Y K Y Y Y K Y ",
"Y K K Y W Y K K K Y Y Y K Y Y Y Y Y Y Y Y Y Y Y Y Y W Q Q Q Q Q Q Q Q Q W K Y Y Y Y Y Y Y Y Y Y K K Y Y K Y K Y Y Y Y Y Y K K Y ",
"Y Y Y K Y K Y K K K Y Y Y Y Y Y Y Y K Y Y Y Y K K W A s s s s s s s s s b W Y Y K K Y Y Y Y Y Y K Y Y Y Y Y Y Y Y Y Y Y K K Y Y ",
"Y Y K K K K Y Y K K Y Y Y Y Y Y Y Y Y Y Y Y Y Y K W z $ $ $ $ $ $ $ % $ 6 Q K Y Y K Y Y Y Y Y Y K Y K K Y Y Y Y Y Y K W W Y K K ",
"Y K Y K K K K Y Y Y K K K Y K Y Y W Q Q Y Y Y W Q 6 3 5 e y r r r r r 5 3 @ d Q K Y Y Y Y Y Y K K K K K Y Y K K Y Y K W Q Y K K ",
"Y K K K K K Y K K Y K K Y K Y Y K Y W W K K Y V b 3 4 q r u y y y y y q 7 $ 6 b A Y Y Y Y Y K Y K K Y K K K K K Y Y Y Y Q Y K Y ",
"Y Y K K K K Y Y K Y Y Y Y Y Y Y Y Y K Y K K Q 7 $ 5 e y y y y y y y y u e 5 2 X b Q K Y Y Y Y Y Y K K Y K Y K K K Y Y Y Y Y K Y ",
"Y K Y K K Y Y K K Y K K K Y K Y Y Y Y Y Y K Q 7 $ q r y y y y y y y y y r e 7 % 6 6 K K K Y Y Y K Y Y Y Y Y K K Y Y Y K Y K Y Y ",
"K K K K Y Y K K K Y K K K K Y Y Y Y K Y Y K Y 6 $ r y y y y y y y y y y y u 5 2 $ $ Y Y Y Y K K Y Y Y Y Y Y K K Y K K K Y K K Y ",
"Y Y Y Y Y Y K Y Y Y K Y Y Y K K Y Y Y Y W N X $ % r u u u u u u u u u u u u q 2 $ % Y K K Y Y Y K K Y K K Y Y K K Y Y Y Y Y Y Y ",
"Y Y Y Y Y K K Y K Y W Y K Y K K K Y Y Y W N X @ $ 7 7 7 7 7 7 7 7 7 7 7 7 7 2 $ @ * K Y Y Y Y Y Y Y Y K K K K K K K K K Y Y Y Y ",
"K Y K Y K K K K K W W Y Y Y K K Y Y Y K W b X X X . . . . . . . . . . . . . . . . & Q W K Y Y Y Y Y Y Y Y Y K K K K K K Y Y Y Y ",
"Y K Y K Y K K K K Y Y Y K Y Y Y Y Y Y Y Q N X $ % 3 7 w 8 w 8 8 8 8 8 3 3 3 3 2 2 3 2 s W K Y W Y Y Y Y K Y Y K K K K K K K K Y ",
"Y K K K Y K K K Y Y Y Y K Y K K K Y K Y Q N X $ 3 4 q u u u u u u y r 4 4 4 4 4 4 4 @ 7 Q K Y Q W Y Y Y K K K Y K K K K K K K Y ",
"Y K K K Y K K K Y Y K Y K Y Y Y Y Y Y K Q N X $ 3 2 3 5 r u u u u 5 4 @ .     X X X . i Q K Y Y Y Y Y K K K K Y W W K K K K Y Y ",
"Y K Y Y Y Y K Y Y Y Y Y K K Y Y Y Y Y K W N X $ 2 2 3 4 5 q q q q 3 % X < &.&., . i 6 f W K Y Y K Y K Y K K K K Q Q K Y Y K Y Y ",
"Y Y Y Y Y K Y Y K K Y Y Y Y W W Y Y Y K W N . @ % 2 2 2 2 2 2 2 2 @ X   %.q.q.... Q Q W K Y Y Y K K Y K K Y K K Y K K K Y K K Y ",
"Y Y K K Y Y Y Y K Y K Y Y K W Q Y Y Y Y W K z 6 X @ @ @ @ @ @ @ @ X < X O.y.u.X.. K Y Y Y Y Y Y Y Y Y Y Y Y K K K K K Y Y Y K Y ",
"K Y Y Y Y Y Y Y Y Y Y Y K K K W Y Y Y Y Y Y ` d @ X X X X X X X X . j c 1.k.k.#.  K W Y Y Y Y Y Y Y Y Y K K Y K K K K Y K Y Y Y ",
"Y Y K K Y Y Y Q Y K Y Y Y K Y Y K Y Y Y Y Y Y Y Q & X # O O O o X + o.h.f.p.k.#.  K W Y Y Y Y Y Y K Y Y K K K K K Y K K Y K Y W ",
"Y Y Y Y Y K K Q W K Y Y Y Y Y Y Y Y Y Y Y Y Y Y W d , o o o o o X X v h.d.p.j.#.  K W W Y Y Y Y Y K K Y K K K K K K K K Y Y Y Q ",
"Y Y Y Y Y Y K Y Y K Y K Y Y Y Y Y Y Y Y Y Y Y Y Y -.N X X X X X X   k g.s.s.z.=.  K W Y Y Y Y Y Y K Y K K K K K Y K K K K Y Y Q ",
"Y Y Y Y Y Y Y Y Y Y Y K K Y Y Y K K Y Y Y Y Q s % % % $ $ $ $ $ $ . 0 w.w.9.p V V K Y K Y Y Y Y K Y Y Y Y Y K K Y Y Y Y K K Y Y ",
"Y Y Y Y Y Y Y Y W Q Y Y Y Y Y Y Y K Y Y W K N 6 $ 2 3 3 3 3 2 % $ + < 8.8.,.X z Q Y Y Y Y Y Y Y Y Y Y Y Y Y Y Y K K Y Y Y Y K Y ",
"K Y Y Y Y K Y Y Y Y Y Y Y K K Y Y Y K K W b + $ 2 r u u u y q 2 X % % . . * -.W Y Y Y Y Y Y Y Y Y Y Y Y K Y Y K K K Y K Y Y K Y ",
"Y Y K Y Y Y Y K Y Y Y K K K K Y K Y K K W b @ 2 q r y y y r 4 3 % $ $ * @ * Q Y Y Y Y Y Y Y Y Y Y Y Y Y K K Y K K K K K K K K K ",
"Y Y K Y Y Y K Y Y Y Y K K K K Y Y Y Y K W V + 7 u u u u u r 2 3 4 @ X 3 $ * Q Y Y Y Y Y Y Y Y Y Y Y Y Y Y K K K Y K K Y K K K Y ",
"Y Y Y Y Y Y Y Y Y Y Y Y K K K Y Y Y Y Y Q V + ] { { { { | r @ X + = = X X = ` W Y Y Y Y Y Y Y Y Y Y Y Y Y Y Y K Y Y Y Y Y K Y Y ",
"Y K Y Y Y Y Y Y Y Y Y Y Y Y Y Y Y Y Y K Q V . *.t.3.0.e.>.q @ X X = = & X & z A Y Y Y Y Y Y Y W Y Y Y Y Y Y Y Y Y K K Y Q Y Y Y ",
"Y Y Y Y Y Y K Y K Y Y Y Y Y Y Y Y Y Y K W V   5.i.:.4.x.<.5 @ X X X @ p = . . f @.Y Y Y Y Y Q Q Y Y Y Y Y K K Y K K K Y Q Y Y Y ",
"Y Y Y Y Y Y Y Y Y K Y Y Y Y Y Y Y Y Y Y W V . ;.r.;.2.e.>.q @ @ $ + X & & & & = i K W Y Y Y W Q Y Y Y Y Y Y K K Y Y Y Y Y K Y Y ",
"Y Y Y Y Y Y Y Y Y Y Y Y Y Y Y Y Y Y Y Y W V + [ 6.7.7.6.} r @ @ 2 @ X X & = = @ X V W Y Y Y Y Y Y Y Y Y Y Y Y Y Y Y Y Y Y K Y Y ",
"Y Y Y Y Y Y Y Y Y Y Y Y Y Y Y Y Y Y Y Y W N + : 9 t  . .u r 2 $ . X X X X @ & = i @ i @.Y Y Y Y Y Y Y Y Q Q Y Y Y Y Y Y Y Y Y Y ",
"Y Y K Y W Y Y Y Y Y Y Y Y Y Y Y Y Y Y Y W N + % 4 w y y y r 5 3 * @ o o X X @ = 1 X = z V Y Y Y Y Y Y Y W W Y K Y Y Y Y K K K Y ",
"Y Y K W Q W Y Y Y Y Y Y Y Y Y Y Y Y Y Y W N + $ 3 5 e y y y u u u : O O o X X @ & , = . f Q Y Y Y Y Y Y Y Y Y Y Y Y Y Y Y K K Y ",
"Y Y K W Q Y Y K Y Y Y Y Y Y Y Y Y Y Y Y W V @ $ $ 4 q y y y y y y > - - # o X X @ & & . f Q Y Y K K Y Y Y Y K K Y Y Y Y Y Y Y Y ",
"Y Y Y Y Y K Y K Y Y K Y Y Y Y Y Y Y Y Y Q N @ @ @ 2 5 y y y y y y > ; ; - o X X X X X X f Q K Y K K Y Y K K Y K Y Y Y Y Y K Y Y ",
"Y Y Y Y K Y Y K K Y Y W Y K Y Y K Y Y K W N @ $ 2 @ $ 3 3 3 3 : - ; ; ; - X . p A A i . X * Q Q Y Y Y Y Y Y Y K Y Y Y Y Y Y Y Y ",
"Y Y Y Y Y Y Y K K Y Y W Y Y Y Y Y Y Y Y W N @ $ 3 $ $ % % % % $ o - - - # @ = N Q Q z * @ @ f N Y Y Y Y Y Y K Y Y Y Y Y K Y Y Y ",
"Y Y Y Y Y Y K K K Y Y Y Y Y Y Y Y Y Y Y W N @ $ 2 3 % . X X X X X O # # o = @.Y Y Y W @.= . . & Q Y Y Y Y Y Y Y K K Y Y Y Y Y Y ",
"Y Y Y Y Y Y K K Y Y Y Y K Y K K Y Y Y Y Q N @ $ 3 3 3 % % % % % % @ o o X = Q K Y Y Y W z d d f W K Y Y K Y Y Y K Y Y Y Y Y Y Y ",
"Y K K Y Y K K K Y Y Y Y Y Y K K Y Y Y Y W N + $ 3 4 5 4 3 3 3 3 3 @ X + X = W K Y W Y Y Q Q Q Q K K K Y K Y Y K Y Y Y Y Y K Y K ",
"Y K K K Y Y K Y Y Y Y Y Y Y Y Y Y Y Y Y W N + $ 3 r y r r r y 5 3 @ @ 2 2 % @ z Q Y Y Y Y Y Y Y Y Y Y Y K Y Y K Y Y W W Y K Y Y ",
"K K K K Y K K Y K K Y Y Y K Y Y Y Y Y K W N + $ 3 r u y y y r 5 % $ $ 2 3 2 $ d b K W Y Y Y Y Y Y Y Y Y Y Y K Y Y Y Q W Y Y Y Y ",
"K K K Y Y K Y K K K W Q W K Y Y K Y K K Q A + $ 2 r y y y r q 2 . 2 3 2 3 5 5 $ @ A W Y Y Y Y Y Y Y Y Y Y K Y K Y Y Y W Y K K K ",
"K K K K K K K K K K W Q Y K K Y Y Y Y K 6 6 $ 3 q r y y y r 5 % X % 3 4 4 5 5 $ @ A W Y Y Y Y Y Y W W Y K Y K K Y K K K Y Y K Y ",
"K K Y K K K Y K K Y Y Y K K K Y Y K W K @ @ 2 5 u y y y y r 3 % X % 3 5 5 5 5 $ @ A W Y Y Y Y K Y Q Q K W W K K Y K Y K Y Y K Y ",
"K K K K K K Y Y K Y Y Y K K Y K Y Q i @ % 3 r r y y y u e 5 @ + X $ % 5 5 5 5 3 % @ i Q K Y Q W Y Y Y K W W K K Y K Y K K K K Y ",
"K Y K Y Y K Y K Y Y Y K Y Y K K V b * . 2 4 u y y r r r 5 3 * * * $ $ 4 4 5 5 4 3 X = Q K K z V W Y Y Y K K K K K K K K K Y Y Y ",
"K K K Y Y K K K K K K K Y Y K @.f . X X 2 4 u y y q 4 3 @ @ Q Q ` * X $ 2 5 5 5 5 X 6 @.Q K X * Q K Y Y K K K Y K K K K Y K Y Y ",
"K K K K K Y K K K Y Y Y K Y K 6 * X & * @ $ 5 5 7 % $ $ 6 f Y Y W z 6 @ $ 4 5 5 5 X & 6 = = X * Q Y Y Y K Y Y K Y K K K K K Y Y ",
"K K K K K K Y Y K Y Y Y K W A X X X & = X @ 2 2 2 @ + X z ` Y W Y ` A + $ 4 5 5 5 @ X . . X X * Q K Y Y K K K K Y Y K K Y Y Y Y ",
"Y Y K K K K K Y Y Y Y Y W Q A X X X @ & = = @ @ @ z V N K W W W W W K A 6 X @ @ @ X & = = = . * Q K Y Y Y K K K K Y Y Y Y Y K Y ",
"Q W K K K Y K K Y Y Y K Q Q A * & X @ @ 1 = X @ & V W Y Y A A P Y A A Q d X X X X X & = = = & 6 Q K K K K K K K Y Y K K K K K K ",
"Y Y Y K K K K K Y K K Y Y W K Q f . X X & & X = N g g g g h h h g h f g h i X X X = = = X + W W K K Y K K Y K K K Y K K Y K K K ",
"K K Y K K Y K K Y K K Y Y K K W N i * X @ @ X & = d h g g h h h h g g g h i X X X & & & , p K Y K K K Y K K K K K Y Y Y K K K Y ",
"K K Y K K K K Y Y K Y Y Y Y K K Y -.6 . X X X X X d h h g g h g g g g g h i X X X X X . f @.K Y K K Y K K K K K K Y K K K K K K ",
"K Y K K Y K K K K K Y K K Y K K K K A N @ . X X X d h g g g g g g g g g h g a a d N V V K K Y Y K K Y W Y K K K K K K K Y K K Y ",
"Y Y K K K K K K K K K K K K K K Y Y Y Y = & * & * d h h g g g g g h g h g g h h N W W W Y K Y K K K Q Q Y K K K K K K K K K K K ",
"Y K K Y Q Y K Y K K K Y K K K K Y Y K K W W W W W h g g g g g g g g g g g h h A Y Y Y Y Y Y Y Y Y K W W K K K K K Y Y K K K K K ",
"K Y K W Q W K Y K K K K Y Y Y K Y Y K K K K Y K Y N N N N N N N N N N N N N N P Y Y Y Y Y Y Y Y K K Y Y K K K K Y Y Y K K K K K ",
"K K K Y W Y K Y K Y K Y K K K Y Y Y K K K K Y Y Y Y Y W W W W Y Y W W W Y K Q W Y Y Y Y Y Y Y K K K Y Y K K K K K K K K Y K K K ",
"K K K K Y K Y Y K Y Y Y K K K Y Y Y K Y Y K Y Y Y Y Y Y Y Y Y Y Y Y Y Y Y Y ` Q Y Y Y Y K K Y Y Y K Y Y Y K K K Y Y Y K K K K Y "
};
