/* XPM */
static const char *runway[] = {
/* columns rows colors chars-per-pixel */
"64 64 135 2 ",
"   c #373129",
".  c #3C352E",
"X  c #3D3730",
"o  c #3F3831",
"O  c #433D35",
"+  c #453F38",
"@  c #474037",
"#  c #4B4236",
"$  c #474039",
"%  c #49423B",
"&  c #534837",
"*  c #514739",
"=  c #564A39",
"-  c #594C39",
";  c #5E513C",
":  c #63543D",
">  c #6A593F",
",  c #4D4740",
"<  c #4F4942",
"1  c #524C45",
"2  c #575047",
"3  c #575149",
"4  c #5A544C",
"5  c #5E5850",
"6  c #655640",
"7  c #6B5B40",
"8  c #715E42",
"9  c #645D55",
"0  c #655F58",
"q  c #746041",
"w  c #7D6744",
"e  c #7F6843",
"r  c #666057",
"t  c #676158",
"y  c #69635B",
"u  c #69625A",
"i  c #6A635A",
"p  c #6A635B",
"a  c #686259",
"s  c #6A645B",
"d  c #6B645B",
"f  c #6B645C",
"g  c #6B655C",
"h  c #6C655C",
"j  c #6C655D",
"k  c #6C665D",
"l  c #6D665D",
"z  c #6D665E",
"x  c #6D675E",
"c  c #6D675F",
"v  c #6E675F",
"b  c #6A635B",
"n  c #6E685F",
"m  c #6E685F",
"M  c #6F6860",
"N  c #706A61",
"B  c #716A62",
"V  c #736C63",
"C  c #736D64",
"Z  c #716B62",
"A  c #7D776E",
"S  c #7F786F",
"D  c #806943",
"F  c #816943",
"G  c #816A44",
"H  c #826B44",
"J  c #836B44",
"K  c #826B45",
"L  c #836B45",
"P  c #836C46",
"I  c #846C44",
"U  c #856D45",
"Y  c #866D45",
"T  c #856D46",
"R  c #856D45",
"E  c #886F46",
"W  c #887046",
"Q  c #897046",
"!  c #8B7247",
"~  c #8C7248",
"^  c #8D7348",
"/  c #8D7448",
"(  c #8E7448",
")  c #8E7449",
"_  c #8F7549",
"`  c #8C7348",
"'  c #90764A",
"]  c #91774A",
"[  c #91764A",
"{  c #94794B",
"}  c #81796F",
"|  c #827B72",
" . c #878076",
".. c #8C857B",
"X. c #8F887F",
"o. c #90897F",
"O. c #938C82",
"+. c #979086",
"@. c #979086",
"#. c #989187",
"$. c #989288",
"%. c #999288",
"&. c #9A9389",
"*. c #9B948A",
"=. c #9C958B",
"-. c #9D958B",
";. c #9D968C",
":. c #9E968C",
">. c #9E978D",
",. c #9C958B",
"<. c #9E988D",
"1. c #9E988E",
"2. c #9F988E",
"3. c #9F988F",
"4. c #9F998F",
"5. c #9F988E",
"6. c #9F9991",
"7. c #A0988E",
"8. c #A0998E",
"9. c #A0998F",
"0. c #A0998F",
"q. c #A09991",
"w. c #A19A90",
"e. c #A29B91",
"r. c #A19B92",
"t. c #A39C92",
"y. c #A49D93",
"u. c #A49E94",
"i. c #A69F95",
"p. c #A39C92",
"a. c #A6A096",
"s. c #A8A197",
"d. c #A8A197",
"f. c #A9A298",
"g. c #AAA399",
/* pixels */
"O o + @ O @ + O + O O O O O O O + + O + O + @ + O O O % + O O + O O O + + o + @ + + + O O O + % + O O + + O @ @ + + @ @ o @ @ O ",
"O O o o + O o O O O O O + + o + O . O + O O + O O O O + O O O + + @ + + O O O O O O + + + O + @ O + + + @ + @ % + + + o + + @ % ",
"O O O < O + + O O O + + O O O O O , O + + O O + + O + + O O O + O O O O O + O < O O + O O + + + + + @ + O + @ + + O O 1 + O % @ ",
"+   u r.+ O + O O o O + O O +   t 6.+ O + O O + + + @ + O + + + O O + O +   t 6.@ O % + O @ @ + O O @ @ O + % + % X 0 r.+ @ 5 1 ",
"+ O % 3 O + O O + + + O O + + O % 3 + + @ % + + + + + + + @ + O O + + + + + % 3 O + + @ + + @ @ o O + + @ @ @ + + O % 4 + @ 1 % ",
"O . .   . . . . . X .   . o . .     o o . X . O O . . . o O o . O o   . X X o . O o o . o . o o o X X o X o O o O o O . O O O O ",
"O 4 u 9 5 0 u r 0 0 0 r 9 0 9 0 9 9 0 t u 0 0 9 9 9 u u 9 9 0 u 9 9 0 9 5 0 r 0 9 0 0 0 9 9 u u u 0 u t 0 x x x x x u t 9 t 3 @ ",
"% } i.;.+.*.;.2.>.7.*.;.>.>.*.7.2.*.&.>.;.+.;.;.*.&.$.*.O.;.2.>.;.2.r.>.&.7.2.7.2.>.t.;.2.t.r.>.2.2.i.y.2.r.2.i.2.r.a.a.i.f.N + ",
"+ 2 u u 0 r u r 0 r 0 0 u u u u 0 9 0 u 0 9 u 0 0 0 0 9 r d u u u d u r u 0 u u d f x d u f x t f t x f t u d u 0 9 t x x t < O ",
"+ o . . . O . . . . . . . .   . O . . . . . . . . O O O . . o O o . o o . O X   o O X o o O X . X o O . o O o o O O X o X X O @ ",
"O + O O O O O O + + + + + O + + O + + + O O + O + @ + + O @ + + + O + @ O + O + + + O O O + @ + + % @ + + % + + + @ @ @ @ @ @ O ",
"O O O O O O O O + + O O + + O O O O O O O O O O O + O + + O O + O + O O O O O + O O O + + + + O % + O @ @ + + + O @ % O O @ + O ",
"+ O + O O + O O O O O O + O O O O O + O + O O + + O + + + O + O O + + O % O O O O + O O + + + + O O O + + + @ % @ + O O O + O + ",
"O + O O O O O O O O O O @ + + O O O + O + + O + O + O O O O + + + + + O O + + O O + O O + + + @ O + + + + + + @ + % + O + O O O ",
"O O O O O O O O O O O + + O O O + O + + O O + + + + + + + O O O + + O O + O + @ + + + + O O + + O + + O O @ O O + @ + % @ + % @ ",
"O o O + + O O O + + o O O O O O O + + + O O @ + O O O O + + + O + @ + + % - O O + + O O + O + O O O + O + O O @ % @ O % + % @ @ ",
"O O O O + O + O + + O + O o O O O O O + O O + O O O + O o O o o O O o o O e 8 # O + O % % O O O + + + @ + + + O O + O @ @ + @ @ ",
"O O O O O O O O O O O O O O o + O O + O O O @ + O o O # ; : : : : 7 : - : w ' Y : % O @ O O + O O + + + O + @ O o O @ % @ + % + ",
"O O + O O O O O O O O O + O O O O + O O O O @ O O O O = Y ( Y Q E ~ E F ^ P e ' ' D : O + O + + O O O O O @ @ O + @ @ O O @ @ + ",
"+ + O O O O O O O O O O O + O O O O O + O + + O + + O = F Y Y E Y D D F ( ( D D ^ Q q + O + O + O O O O O + O O + + @ O + + + @ ",
"O + O O O O O O + + + O O O O O + + O + O + O O O O + # & & = = = = - = - w Q F q = + O + + O O O O + + @ + O + @ + @ + O O @ + ",
"+ O O o O o O O O O O O + O O O + + O O + O O + O O + o O O o O O + O O O D P = O O + + O O + O + O + @ @ + O O % @ % + O @ + O ",
"+ + O o O + O O O o O O o O + + O O + @ O + + O + O + + @ @ O + + + + O + 6 * O O + @ + + @ O O + + O o + O + + O @ @ + + @ @ + ",
"O + O O O O O O O O O O o O + + O O + O O O O O + O + + O + O O + O O O + O O + O + @ @ + + O O + + + O O O + O + @ + @ O O + O ",
"O O O O + O o O O O O O O O O O O O O O O O O O O O + O O O O O O + + O + + O O O + + + O + + + + O O + @ O + + + + + + + + O + ",
"O o X O O + O O O O O O + O O O O O + + O O O + O O O O O + + + O O O O + + O + + O + O O O + O + + O O O O + + O + @ @ + @ + @ ",
"O O O O o O O O O + + + O + O O + + + O O o O O O O O O O + @ O + + + + O + O + + O O O O O O O O O O O O + O O O + + % @ + O + ",
"O O O o o O O O + + O O o O O O O + O + + O + O + + O O + O @ O + + + + + O O O O O + O @ @ O + O O + + + + + O + @ @ @ + @ + O ",
"O O O O + + O + + + O O + O O + O O O O O + + + + + O O + O + O + O + + @ + + + O + + O @ O @ @ O + + % @ O + + O O + O @ % + O ",
"O O O o . . . . + + O O . o X . O + O o . . . X O O O O o o O o O + + O o X . X + + + O . . O o O O + O X X   o @ O @ O X . o + ",
"O O o 1 u h 0 9 + O O 3 x x V u + O o 2 u d u u + O O 1 d 9 t t % + O 1 u u u r + O O 1 9 u N u % O + 1 n x C 9 @ + O 1 t f x 1 ",
"+ + . x *.+.$.X.@ O o n y.;.t.O.@ X . N 7.$.;.O.@ + . x 2.O.$.o.% + O u y.;.;.O.@ O O N r.>.>.O.< O X M i.*.2.O.% @ o N f.s.i.f ",
"O + . 0 .. . .S % O X u O...O.| % O . r O.A | | + O . u X...X.| @ @ o r X...O...% O O u X.X.X.| @ + o 0 O...X.A O + O 9 | X.O.0 ",
"O O + + % @ + O O O O @ % + % % O O O + % + @ % O O + + % @ @ + O + + + @ @ @ % + O O @ @ @ % % O O + + % @ % @ + @ @ + + % % O ",
"+ O + O O O O o O O + + O O O O O + + O O + + O O O O + O O O + O + O O O O + O + O O + O + + O O O @ + + O O + + + O + O O @ @ ",
"@ O O + O O + + + O O O + O + O O + O O + O + O O + O O O + + O O + + + O O + O + + O + @ + @ % + @ + @ @ @ % + + @ + @ @ + + @ ",
"+ + o + O O O O O O O O + O + + O O O O + o O + O + O + O O + O O + + @ + O O + O + + @ + O O O + + + O O + + + @ + + @ + @ % + ",
"O O O + O O O . O O O + O O O O O + + O O o O O O O + + O O O O O O O O + + + O O O O + + + + + @ @ + + @ @ O + @ @ + + @ % @ O ",
"+ O o o . O + O + + O O O O O O + + + @ O O O O O O O O O + + O O O O + O + O + + + @ + O + @ + + O O + % + O + @ + O @ @ O @ @ ",
"+ O O o O O O + O O O O + O O O + O O O + O O + + + O O O O + O O O O + + @ O O O @ + O O + O O O O + + + + O + + @ + O + + + @ ",
"+ O O + + O O O O O + + + O O + O O + O + + O O O O O + @ O O O O + @ + @ O + + % + + O O O + + O + + + @ + + + O O O O O + + % ",
"O O O O O O O O O O O O O + O O O O + O O O + + + O O + + O + + + + @ O + ; + o % O O + O O @ @ O O O + + + + @ O O % % + + O O ",
"o O + O O O O + O O O + O O O O O O + O O O O + O + @ O O O o O O o o o O ^ w = O O + O O O O + @ + + O @ @ O O O + + @ @ @ O O ",
"O O O O O O O O O O o O O O O O O O O + + O O O + + + # = = 7 : ; : 7 ; 7 ` ' ` 7 % O + O @ + O @ + O + @ O O @ + + @ @ @ + @ + ",
"O O o O O + O + O o O + O O O O O O O O + + O O + + O = e Y ( ~ ( Q Y ^ { Q ^ ` Q ` > + O O O % @ + + + + O O + O + % + @ + @ @ ",
"O O O O O + O @ O o O + O O O O O + O O O O O O O + O = e D Y Y P Y Y ` ` ' Y ` ( P 8 @ O + @ % O + + + O + O O + + + + @ + @ % ",
"O O + O O O O O O % O + O O O O O O O O O O + O O + O # * # # * * # = # * D Q ^ 7 % O + O @ + O @ % + + @ + @ @ @ + + @ + @ @ % ",
"+ + O O O O O O + + o O + @ O O O + + O + + + + O + + O O O O O O + O O @ P D ; O O @ O + @ O O @ @ O % @ O @ @ O + @ + + @ @ % ",
"+ O O O + O O O O O O O O + O O O + O O O O O + + O O + + O + + + + O O O - # O + + + + + + + + O O O + O @ + % @ + % @ @ % @ @ ",
"O O O O O + O O O O O + + O O + O O O O O O O O O O + + + O O O + @ + O O O O + + + + + + + + @ + + + O O @ + @ % + % @ + + @ + ",
"O O O O O O O + O + O O O O o O + O O O O O O + O O + + O + + O O + + O + O O + + + + @ + O O O + % % % + @ @ % @ @ @ @ @ + + @ ",
"O O + + O O + O O O + O O + O O O + O O O + + O O O + + O O O + O O O O O O + O O O + O O O O O O + @ % O % @ @ + + + % @ + + @ ",
"+ O O O O O + + O + O O O O O + O O O + O O O O + O O + O @ + O O O O O X + O O + + O + O O + + + + + O O % + O @ O @ % + @ @ O ",
"O O O O O + + @ + + + + + % + O @ + + + O + + + + % O + + + O + O + @ @ + @ O + @ O O % @ + @ @ @ % + @ @ % + % % @ % @ @ % % % ",
"O . . . . o . O . . o o . X . . . o . o X O o . o O . . X o X o X O O o O o o O O X O X O O o o O o O O X o O O O O + O o O o + ",
"% 9 u u r 0 r 0 d 0 u d u t u u x u 0 0 d x x u u r u 9 x u u u d u u x 0 u u u u u x x x x 0 N f f N M f x f t t u C N N N 3 @ ",
"1 | >.&.;.O.&.+.>.>.>.>.>.>.>.;.t.;.>.&.*.r.2.7.>.;.2.&.&.+.7.&.*.+.;.&.&.7.*.+.O.2.r.r.y.>.r.7.*.7.i.t.2.y.2.t.t.2.>.t.f.g.A @ ",
"% 4 u r r 0 u u u x u u u r u d u u u t t f t u x u t d u d u u u r f u u f u 0 u d u u f u x 0 x M x x u t t x C N u x x N 4 @ ",
"+ o     o . o o . . X o . . . o     o . O o . X X X o o O o o o O o O o X o . . o o . O O O o O o o O o O O o o O o o X O O O @ ",
"+ O + 1 O + O + + + + O + + + O O 1 + + + + @ O + + @ + @ + O + % + + + + O O 1 @ @ + @ O + % O O + + @ % % % @ @ + + 1 @ % 3 1 ",
"+   0 *.@ O O + + O O O O O +   0 r.+ O O O O O + + + + + + O + O + O O +   t >.% O + % + @ + + @ % + + @ % % + % O t u.% % 9 , ",
"O O @ 1 O O O O % O O + O O O O % 3 o O + @ + O + + O O + O O @ O + O + @ O % 4 O O + % @ + @ @ @ O + % % @ + + % % % 5 @ O + O ",
"O O O O O @ + O + @ + O O O O O O o O O + O + + + O O + @ % + + + + O O + + + o + + + O o + + + + O O + @ @ + + % % O + @ @ % % ",
"O O O @ + O O O O O + O O O O o O O O O + + O @ @ O O + + + + + % + + @ O + % @ O + + + O + + @ @ + O + % % + + @ @ @ % % @ @ @ "
};
