/* XPM */
static const char *sandbags[] = {
/* columns rows colors chars-per-pixel */
"64 64 62 1 ",
"  c #352B17",
". c #382C17",
"X c #372D18",
"o c #3A2D19",
"O c #373317",
"+ c #383417",
"@ c #3B361B",
"# c #3D391D",
"$ c #3F3B20",
"% c #43351D",
"& c #48371E",
"* c #423A1F",
"= c #4A391F",
"- c #463620",
"; c #463B20",
": c #4D3C21",
"> c #513F21",
", c #554223",
"< c #5B4625",
"1 c #5E4825",
"2 c #5A4728",
"3 c #5E4A29",
"4 c #614A26",
"5 c #644E29",
"6 c #684F2B",
"7 c #66502B",
"8 c #66502D",
"9 c #69532E",
"0 c #6C542D",
"q c #6D552E",
"w c #71582F",
"e c #695430",
"r c #6E5630",
"t c #6F5930",
"y c #715730",
"u c #705831",
"i c #735B32",
"p c #735C33",
"a c #755C32",
"s c #775F36",
"d c #785F34",
"f c #785F35",
"g c #786034",
"h c #7B6236",
"j c #7E6337",
"k c #7D6437",
"l c #7E6437",
"z c #7F6538",
"x c #806639",
"c c #82693A",
"v c #83693A",
"b c #866B3B",
"n c #866B3C",
"m c #876D3D",
"M c #886D3D",
"N c #8B6F3F",
"B c #8B703F",
"V c #8C703F",
"C c #8F7340",
"Z c #8F7442",
"A c #907341",
"S c #917542",
/* pixels */
"@@@@####@####@##@#@@#########@##@#@@@@@@@@##@#@@@@@#####@@@@#@@@",
"@@@@@@@@###@######@@###@##@###@###@@@@#@@@@@@##@@#@@#@#@###@@@@@",
"@@@@@##@@#@@######@@@#@@@@#@##@###@@@##@@@@@@@###@@##@##@@##@@@#",
"@##@@##@@#@@#@@@###@@#@#@###@#####@###@@@@###@@#@@@#####@@@#@#@#",
"###@@@##@@##@@@@@#######@@##@@@@@@###@@#@@###@##@@##@####@@@##@@",
"@@###@#######@@@#@@######@###@@@##@#@@@@@@@@#####@#@@##@#@@@###@",
"@####@@@@#@###@##@@##@@@##@@#@@####@##@@@##########@@#@@#@####@@",
"@@#@+@@@@+O@@@@@#@@###@@###@#@@##@@O@##@@@###@@@#@@@@@###@###@@@",
"##@@@@@@#@@@@@@@@@@#@@#@@#@@@###@@@@@##@###@##@@##@@@@@##@##@@##",
"##@@@@@@##@###@@@@##@@#@@##@@###@#####@@###@##@@###@@#@@#@@##@@@",
"@@@@#@@@@@@######@@####@@#@@@@########@@##@###@@@@####@@@@@###@@",
"#@@@#@@@@@#@@####@@####@@##@@@@@###@@#@@@@@@@@@@@#@@###@@@#@##@#",
"@##@@@@@@@@@#####@@@####@###@@@@@@@@###@@@@@#@##@#@##@@#@@##@@@#",
"#####@@##@@@@@@@#@#@@###@@@##@@@@@@###@@@@@##@###@@###@##@####@@",
"#@@@@@@#@@@@+O@##@@@@O@@@+@####@###@@@@@@@###@@@@@########@###@@",
"@@@@####@##@@@@##@##@+@@#@@#@#####@#@@@@@@@@##@@@@@@@@#@@##@@##@",
"@@@@@###@@@##@@@@#@@@@@@@@@@@@####@##@@@@@@##@@##@@@@@#@@##@@#@@",
"@@#@@@##@@@##@@#@@@@@@@@@@@@@@@@####@##@+@@##@@##@@#####@@####@@",
"@@@#@@##@##@@###@##@@#@@@@@@@@@#@@####@@@@@@@####@@#@#####@@##@@",
"##@#@@###@@@@@@++++++@@@@@++@@###@@@++@++@+++@@++++@+@#####@@@#@",
"####@##@@;,2222222222222222,::@@@=:,2222222222222222,:*##@##@@@@",
"####@@#%%2hMCCCZZZAAACCCCCChr4%@&3uzCACAACCCCAACCCCCk8&%%@##@##@",
"##@@@@:esxMCSASSSSSSAbMAASAMmx3%@9xMAmbASAAASSSSSAAAMnh9<%@@@##@",
"#####&1xCCMMVSSSSSSSSMMSSSSSSVw=ornSSMmZAAAASSCCASCMCSCxq:@@####",
"@@###,qCSMzknSSZCCSSSSSSSCACCCk,oqbSSSSCCCCCCACCASmkVSCSj3-@@@##",
"###@@5kCSCVMCCCSSSSSSSSSbMCvmCz2%pMSSSCvMSSZCCbbASCBCSCSbt:@@###",
"##@#o9xmCSSSZCCBMASSSSSSmMCnMVh<%umSSSCbVSSSSZmmASSSACCMvs-@@@@#",
"##@+ 8ffMCCCSCCbvASSSSSSSSCCVMa,%8xVCCCCSSSSSSSSCCVVCCVxhs@+##@@",
"#@@+ 3usuakCACCCCSSSSSSSSMvhaaw:o9uavvvCSSSSSSSMzzsqkxvzs5@+###@",
"#@@# ,5qqqaxvvvbbbxxvxxkxkfuqq5%o5qwhhhvbxkxbbbxsau7ashhu<o+####",
"#@@+.%,59qqquwuuywqqqq9499qqq9:@o,5qqqqwyq5qwwqqqqqqqqqq5:oX@#@@",
"##@+o.@,<<1qwwu95ywtq54442,<<:oo@.&,114qwqqqqq544,24441>%.%@X@@@",
"@@@@%::====>,,<>>,,,,:===%%>,,>,<>>>:=:,,,,,,,===%%=::==:,,% @#@",
"@@@@:98::%@@@%%%%%o.  o@@%:,25uuuu91::=%%o .  @%%%%%%==:3s9: @##",
"@@#*3zMmmzavnnmnns<@ %2svnmnMMVVAVMMmmvhs6%oX:9saxnbnmmmvhh2 @@#",
"###;5kMASCmCSCnVAb5&.>qmCCMCSSSSSSMnCSCmbh2%o2hbbVSASVnCVbh2 +@@",
"##@*8uzMMBVMMMhbMM9=.2aMMnhMVBMMMMzkMMMMMx9%@6xMMMMMMbhMMMu,.@@@",
"###&19uuuuw5quwuuu<%.>5u99uuuuu95wuuuuq5qq1%o1quuuuuuuuuuu5: @#@",
"@###%,3559q79qu955:oo%:2145555557qqqq94<<,%oo%,4999q955554=@.###",
"@@##.%:>>2555552,,%o%o%=,,,,,,,<555552>,:%o@%o%>2,24,,,,,>@XX@@#",
"@@@@:@ oooooooo%%%><<<>@ooooX   Xooooo..o%<55<=%%ooX.XX Xo,:o###",
"@#@-8tuu832%@%3rsahkkzhuuut82>=o.@:259utuskxvzssau95338tut9<@@##",
"@@+:tMAMxhq::2hMCMVSSSSSSCMxaq<%.=5axMSASSSCVASCMCMxhkvVCMu3-@@@",
"#@+%4xMkMbu,2uMCMabCCCCCCbhMVMq:.2hCCCCCCCCvkCCmhMCVVVVVvau3-##@",
"#@X%4qwuau5>27auwuafwfffwquaaqq:.29wfhfwuffaahwqufffffawq77,+@##",
"##+@,15995<>:,54499646994599522%.=,199945q9q994499qq9994<<,=O###",
"###@%,<<<<2:@.,<<<<<<<<<111<,=@. .=<<<<<<<<<<<<2<<1<,,<<,=@@####",
"###@@@o@oo@oX+oo@@@ooo@@@@@@oo#@+++o@%@o@o@@@@@@@@@@o@@@@o@@@###",
"##@@@+XXXXXX+@OXXXXXXXXXXXXXX+##@@+XXXXXXXXXXXXXXXXXXXXXXX@@@@@@",
"@@@@##@@#@##@###@##@##@@#@@###@@@@@@##@@#@@@@##@@@@@@@@@@#@###@@",
"@@#@#####@@@@@##@@#@@@##@@@###@@#@@###@#####@@@@@@@@#@@@@@###@@@",
"@##@@######@#@#@@@@#@@@##@@@##@@##@@@@@@@###@@@@####@@#@#@@@@@#@",
"@@@@@@@##@@@@@###@@@@@@@@@@@@##@@@##@@##@@@###@@@@###@@@##@@@@@@",
"@@@#@@@@@#@@@@#@@@###@@@###@@#######@O@@@###@##@@@@@###@##@#*#@@",
"@@@@@@@##@@@@@@@######@@#@@@##@#####@@@@@###@@#@@@@#@#####@#####",
"@@@#@@@##@@@@@#@@@@@@@@@@@##@#@@@@@@@@@@@@#####################@",
"#@@##@O#@@@#@@##@@@@@#@@@@##@@@#@@@#@@####@####*################",
"######@#@@@#@@###@@@@##@@@@@@##@@@@@@#####@#####*##########@####",
"@#@@@#@#@@@#@@@####@@@#@@@@@@###@@@@############@#######@#######",
"#@@@###@@@@###@@###@@@#@@@@#@#@@@@@##@@##@@#@####@######@#####*;",
"@@@@##@##@@#@@#@@###@@#@@@#@@##@@###@@###@####*##########@@###*;",
"@#@@##@@@@#@@+@@@#@@#@@####@###@@@@##@@####;####@#*########*####",
"@@@@@@#@@@@@#@@@##@@@@##@##@#####@##@@############*#########$###",
"@@@@OO@@#@@########@@@##@#@@@@###@#@@@@###############@#########"
};
