/* XPM */
static const char *terrorist_right_2[] = {
/* columns rows colors chars-per-pixel */
"64 64 77 1 ",
"  c #12110E",
". c #18140F",
"X c #141413",
"o c #191512",
"O c #171816",
"+ c #1B1A13",
"@ c #1B1B1B",
"# c #2A150F",
"$ c #32150F",
"% c #231510",
"& c #2C1510",
"* c #211F12",
"= c #201F1F",
"- c #351611",
"; c #3D1610",
": c #3B1812",
"> c #1F201E",
", c #242213",
"< c #292615",
"1 c #2D2A16",
"2 c #20201F",
"3 c #2A2219",
"4 c #312E17",
"5 c #33271E",
"6 c #312D18",
"7 c #3D2B1F",
"8 c #363117",
"9 c #383317",
"0 c #363218",
"q c #3B361B",
"w c #3C381C",
"e c #3D381D",
"r c #3F3A1E",
"t c #1E1F20",
"y c #1F2020",
"u c #232323",
"i c #272220",
"p c #232324",
"a c #242424",
"s c #2E2721",
"d c #352A20",
"f c #382C21",
"g c #3F3B20",
"h c #46170F",
"j c #48180F",
"k c #401610",
"l c #421911",
"z c #431911",
"x c #481A11",
"c c #4D1910",
"v c #561C12",
"b c #403B1F",
"n c #422E20",
"m c #442E21",
"M c #463021",
"N c #403C20",
"B c #4C3C2D",
"V c #503D2C",
"C c #56412F",
"Z c #594330",
"A c #684E38",
"S c #714B32",
"D c #7D5236",
"F c #77523B",
"G c #75563D",
"H c #76573F",
"J c #856245",
"K c #916041",
"L c #9D6947",
"P c #956D4D",
"I c #A46D49",
"U c #AF7650",
"Y c #B27750",
"T c #BB7D53",
"R c #BB885E",
"E c #C48D62",
"W c #D19768",
/* pixels */
"qqqqqqqqqwwqwwwwwwqqwwwwqqqwwqqwwwqqqqwqqwqqqwwqqqqqwqqqwwwqqqqq",
"qqqqqqqqqwqqwwwwwwqqqwqqqqqwwqqwwwqqqwwqqqqqqqwqqqqwwqwwqwwwqqqq",
"qwwqqwwqqwqqwqqqwqwqqqqqqwwqwwwwwwqwwwqqqqqwqqqqqqqwwqwwqqqwqwqw",
"qqwqqqwwqqqwqqqqqwwwqwwwqqwqqwqwqqqwwqqqqqwwwqqwqqwwwwwwqqqqqwqq",
"qqqwqqwwqwwwqqqqwqqwwwwwqqwwwqqqqqqwwqqqqqqqqwwwqqwqqwwqwqqqwwqq",
"qqwwwqqqqwqqwqqwwqqwwwwqwwqqwqqqwwqqqqqqqwwqwwwwwqwqqwwqwqwwwwqq",
"qqwqqqqqqqqqqqqqwqqwwqqqwwqqwqqwwwqqqwqqqwwwwqqqqqqqqqqwwqwwqqqq",
"qwqqqqqqqqqqqqqqwqqwwqqqqwqqqqwwqqqqqwwqqqwqwwqqqqqqqqqwwqwwqqww",
"wwqqqqqqwqqwwqqqqqwwqqwqqwwqqwwwqwwwwqqqwwwqwwqqwwqqqqqqwqqwqqqw",
"qqqqqqqqqwqwwwqqqqqwqwwqqwq0000000qqwqqqwwwqwwqqwwwqqwqqqqqwwwqq",
"qqqwwqqqqqqqqwwwwqqwwwwqqw4++++++++,qwqqqqqqwwqqqwwwwwqqqwqqqwqq",
"qqqqqqqqqqqqqwwwwqqqwwwqq0+@aaaaaau@,qwqqqqqqqqqqwqqwqwwqqwqqqqw",
"wwwqqqqqwqqqwwqqqqqqqwww0+@aaaaaaaapO<qqqqqqwqwwwwqqwqqwqqwwqwqw",
"wqqqwqqwwqqqqqqwwqwqqqww*OaaaaaaaaaauX<wqqqwwqwwwqqwwwqwwwqwwwqq",
"qqqqqqqwqqqqqqqwwqqqq9qq+OaaaaaaaaaauX<qqqwwwqqqqqwwqwwwwwqqwwqq",
"qqqqqwwwqwwqqqqqwwqqqqqq+OaaaaaaaaaauX<qqqwqwwwqqqqqqqqqqqwqqwwq",
"qqqqqwwwqqqwwqqqqqqqqqqq+Oaa@@@@@@@@@X<qqqwwwqqwwqqqqwqqqqwqwwqq",
"qqwqqqwwqqqqwqqwqqqqqqqq+Oui77nnnnmM5X<q9qqwwqwwwqqwwwwwqwqqwqq9",
"qqqwqqwwwwqqqqwqqqqqqwwq+O@5ULSITYDKF <qqqqqqwwqqqqqqwwwwwwqqqqq",
"wwwwqqwqqwqqqqqqqwqqwwqq+O@fEJXPWR3ZJ <wwwqqqwwqqqqqqwwwwwwqqqqq",
"wwwwqqwqqwqqqq9qqwwqqqqq+O@sHV CHA+dBX<qqqqqwwqqqqwqwqwwwqwwqqqq",
"wwqqqqwqqwqqqqqqwwwqqqqq1O@uOOOOOOOOOX<qqqqqwq0qqqwwq9qqqqwqqwwq",
"wwqqwwwqwwwwwwwwwwwwqqqqq+Ouaaaaaaaa>+0wwwqwwqqqwqwwqqqqqqqqwwww",
"qqwwwqqwwqqqwwqqwwwqqqqqq+XOuaaaaaaaO*qwwqqqqqqwwqqwwwqqqqqqwwww",
"wwwwwqwwwqqqwwqqwwwqqqqq<X XOuaaaauOX.1qqqqqwqqqqwwqwqqqwqwqqqww",
"wwwwwwwwwwqqqwwqqwwwqqq< XO XO@@@@OXXXX6qqwqqqwwqwwqqqqqwqqwqwwq",
"wwqqqqwwqwwqqqqqqqwqqw<@XX@OXXXXXXXX@OO+6wwqqqqwqqqqqqwqqqqqqqqq",
"wwqqqqqqqqqqqqqqqqqqqq,@uX@OXOOOOOXX@XOO1qwqqqqqqqqqqqwqqqwwwwqq",
"wqqqqqqwqqqwqqwwwwqqq<oooX@OXuuuauXXXXOu+4wwqwqqqqwqqwqqwwqqwwwq",
"wqqwqqwwwwwwqqwwwwqq1&lxx%XXXXXO@OXO@XOaX6qwqq0qwqqqqwwwwqwwwwwq",
"wqqqwwwqwwwwwqqqqqqq<&jhxcloyuuOXXX@@XOaO6qwq99wwqwwwwwwqqwqqqqq",
"wwqqqwqqqwqqwqqqqqqq<&k;kl:OOtauuuXXo @aO4qwqqqqwwwwwqqwqqqqqwqq",
"qqqqqqqqqqqwwqqqqqqq1ooooooXXXOOuu@%l.OaO4wqqqwwwwqwqqqqqqwwwwwq",
"qqqqqqqqqwqqwqqqqwqww,OuuXuuOXXXXOo&v-X@O4wq9qwwwwqqqqqqqwwwwwww",
"qqwqqwwqqwqqqqwqwwqqw<OOOXuuXXOXX &-;l#O+809qqwwwqqwwwqqqwwqqqqw",
"wqwqqwwwqqqqqqqwwqqqwq< X XXXOOXOXXXo$%X<0+4wqqwwwqqqwwwwwwwqqqq",
"wwqqqq9wqwwqqqqqq9qwwq9+XXX X@XXO@XXX XXooX6qqqwwwwqwwwqwqqwqqqq",
"qwwqqqqqqwwqwwqqqqqqqqq<XXOXX@XOXOX   X+OX+0wqqqqwwqqqqqwqqwqqwq",
"qwwwqwwqqqwwqwwqqqwqqqqq, XXXXX@OOXXXX6q<+8qwwwqwwwqqqqqwwqqqwww",
"qqwwqqqqqqwwqqwwqqqqqqqwq+X@aaaaiOO@O*wwqqwqqqqqwwwqqqqwqqqqqqww",
"qqwwqqqqqqqwwqqwqqqqqq9qq+Oaaa@OuaauO,wqqqqqqqqwqqqqwqwwqqwqqqww",
"qwwqqqqqqqqqwwqqqwwqqq9qq+OaaaO Oaaa@,qqqwwqwwwwqqqqqwwwwwqqqqww",
"wwqqqqqqwqqwwwwwqqqqqqqqq+OaaaO 2aaa@,wqwwwwwwqwqqwwwqqqwqqqwqqw",
"qqwwwqqqqqwwwwwwqqqqqqwww+OaaaO 2aaa@,wqqwwwwqqqqwwwwqqwqqqqwqqw",
"wqwqwqqqqqqqqqwwwqqqqwwwq+OaaaO 2aaa@,qqqwwwqqqqwqqqqwwqqwqqqwww",
"wwqqwqqqqqqqqqqqqqqqqwwqq+OaaaO 2aaaO,qqqwwwqqwwqqwwwqqqqwwwqwww",
"wwwwwqqqqqqqwwqqqqqqwwqqq<OuaaO 2aau+1qwwqqwqqqwwqqwwqqqqwwwqwww",
"wwwwwqqqqqqqqqqwqqqqwwqqq9+OaaO 2aa@,qqqqqqqqqwwwqqqwwwwwwqqqwww",
"wwqqqwqqqqqqqqqwwwqwwqqqwqoXOOX OOOX,qqqqqqqqwwwwqqqqqqwwqqqqqqw",
"qqqqwwqqqqwwqwwwwwqqwqqqwq<XOXX XOXo6wqqwwqqqwwqqqqqqqqqqqqqwqqq",
"qqqqwwwwwqwwqqwwqqqqqwwwq<,@u@X O@u=,1qwwqqwqqqqqqqqwqqqqqqwwwqq",
"qqqqqwwwwwqqqqwqqqwqqqwwq+Ou@OX X@u2X,wqwwwwqqqqqqwqqqqqqqqqqqwq",
"qwqqqqwwwqqqwqwqqqqqqqqqq+XXXXX XXXOX,wqqqwwwqqwqwwwqqqqwqqqqqqq",
"qqqqqqqqqqqqqqwwqqqqqqqqq6111166666114qqqwwwqwqqqqqqwqqqwwqqwwqq",
"qqqqqqqqqqqqqqqqwqwwwqqqwwwwwwqwwwwwqqqqqwwwqqwqqqqqwwwwwwqwbwwq",
"qqqqqqqwwqqqqqqqqqqqwqqqqqqqwwqqqqqqqqqqqwwwwqwwqqwwqwwwwwwwwwwq",
"qqqqwqqwqqqwqqwwqqqqqwqqqqwwqqqqqqqqqqqqqwwwwwwbwwwwwwwwwwwwwwww",
"qqqqwq0qqqqwqqwwwqqqqwwqqqqwqqwqqqqwqqwwwwqwwwwbbwwwwwwwwwwwqwww",
"qwwqqqqqqqqwqqqwwwqqqwqqqqqqqwwqqqqqwwwwwwwwwwwwwwwwwwwwqwwwwwww",
"qqqqqqqwqqwwqqqqwwwq9qwqqqqwqwqwqqqqwwqwwwwwqwwwqqwwwwwwqwwwwwww",
"qqqqwqqwqqqwwqqqqwwqqqwqqqwwqqqqqqqwwqqwwqqwqwbwwqwwwwwwqwqwwwbN",
"qqqqwqqwwqqwqqqqqqqqwqqqqwwqqwwqqqqwqqwwwwwwwwwwwwbwwwwwwqqwwwbw",
"qwqqwwwqqqqqqqqqqwqqqqqwqwwqwwwqqqqwqqqwwwwNwwwwqwbwwwwwwwwbwwww",
"qqqqqqqqqqqqqqqqwwqqqqwwqqqqqwwwqqwwqqqwwwwwwwwwwwbwwwqwwwwwgwww"
};
