/* XPM */
static const char *terrorist_left_3[] = {
/* columns rows colors chars-per-pixel */
"64 64 68 1 ",
"  c #0C0E0C",
". c #13130F",
"X c #19140F",
"o c #18180F",
"O c #151513",
"+ c #191613",
"@ c #1A1A14",
"# c #171818",
"$ c #1C1C1B",
"% c #221713",
"& c #221D13",
"* c #2A1B15",
"= c #231E1A",
"- c #321C15",
"; c #3C1E15",
": c #301E18",
"> c #242213",
", c #292615",
"< c #2D2A16",
"1 c #21211F",
"2 c #2D2B18",
"3 c #312D17",
"4 c #322F18",
"5 c #363217",
"6 c #363219",
"7 c #3B361B",
"8 c #3C381C",
"9 c #3E381C",
"0 c #3F3B1F",
"q c #232321",
"w c #242322",
"e c #252523",
"r c #272725",
"t c #2C2521",
"y c #282726",
"u c #282825",
"i c #292929",
"p c #332924",
"a c #3F3B20",
"s c #421F17",
"d c #4B2116",
"f c #4C2519",
"g c #57291B",
"h c #5D2A1C",
"j c #403B1F",
"k c #473933",
"l c #483830",
"z c #4A3830",
"x c #4D3A31",
"c c #4C3C34",
"v c #544037",
"b c #5D433A",
"n c #6C5146",
"m c #715547",
"M c #725548",
"N c #78594B",
"B c #7E5C4D",
"V c #A97C6B",
"C c #AC806F",
"Z c #B78470",
"A c #BF8C78",
"S c #C08975",
"D c #C48B77",
"F c #C18F79",
"G c #CC927C",
"H c #CA9480",
"J c #D19782",
"K c #D69D88",
/* pixels */
"9777777799997777779997777777779799799999999997779999999779997777",
"7777799777797777799777777977779997799977799977999999779977777777",
"7779997797799777997777777997799999797977779777799999779777997777",
"7999777999999777977999777799999999979997779779997779979779977999",
"7997777999979977977979777779977777777977999999997777999799977997",
"7999777979977979999777777779977777799979799997797779999999979977",
"7799999779777979999999977799779997797799779997799779977777779997",
"9779977997777777777999777997577997797799779997797777775777777797",
"9779979997777797779779997999797799977997797797977777777797777799",
"7799977779977999799979997794<<,,<,,,,<97799799777779977977777779",
"799977777999997779997797774@#########@<7799997799999977777799777",
"99979977999979977777777773@$eruuuuuur$#<799997799997777777799777",
"7777997797997797977977775@$euuuuuuuuur$@499977779999777777777799",
"779999997799779999799777>$eruuuuuuuuuue$@79779999777777797779777",
"799979999999977977799777@$ruuuuuuuuuuur$@55777799975777777779977",
"799779777777777779997977@1uuuuuuuuuuuur$@55777799777799979999777",
"799799777777777997799977@$eerrrrrrruuur$@57777979779997799977777",
"579799979999777997799775@#$###$$$$$ruur$@57777779779977779977997",
"777999997999777999777775@cnmmMmmNBn1rur$@79779777997777799779977",
"797799999997777779977797@=bADZzxZGV=eur$@79977977777779979977999",
"777799799997797777997797@ zHJAtpFKC=err$@577799977577779779799a9",
"997797777777997775997797@.=xcz#$cvkwrr1$@57779997777779977777999",
"999777777777997975799797@#$$$$11$$qrre$@<77779979977999977997799",
"999977777799977997777779@#qruuuuuuuur1$@577779999999977799999999",
"9977977977999999777777773@1ruuuurrurq$#O>77779997799977799779997",
"9997977977777977977797777&$euuuuurqq$##$#&5799997799777999999999",
"77779777997777799777799794@$ruurqq$$##$$#$@679777777799799779799",
"7799997779799977977779757<O#$qeq$#$##qr$1q#@67977777799777777779",
"7997799779979977799797777@#O#####$$$$iq$uu$O37999977797797777757",
"799997999997779975779799<+$##$$$$qq$$r$$uuq#@5999977999999977979",
"777797799999979975579799@O$#$qqqrrq#$$##quu1#<779777999977999779",
"797777779779999977799777@O$#$qqqq$#+****=euu$O377777779977977779",
"999999777779779999777977@O#$OO#$$$#:hhhhf$uu=O377779977777777777",
"999999977779779999757972OOO###1rqq$=sdd;-=uu$O497779977977777777",
"97779997799977799977777@%*+1eqq$##OO%;*#$yur$O499997779977997797",
"77799999999977999459762&dg&$$###OO###OO1ere1$@379977777799999999",
"77797799799979997@>32#O*;s*++OOOO#$$$$O$$=$$@4577779779797797799",
"99777799779779975@OOO$$OX-;;%#O#$O#$$#O$$$$@27777799799777777799",
"9997799977977997&$q1$OO#$+XX$q#O#OO##OOOOO+379977997797777979997",
"9777977997777997@OOOO>O$$O>@$$OO$#OOOOOO#O@579777977999777777977",
"99777979999977776222<72@O.,@$$O#$$$#O$#OOO<577979779977777777977",
"997779999997777799997994<<6<@O##$ewq$OO...5779997799777777777999",
"7779979977799977779999997997@###1rrr1##.,,5777779999999997779777",
"9997777997777997777999977779,##$rree1$#O<77777779997999977799977",
"99779997799777799977997777779@$rrrrq$#O#O79777799975777977999799",
"9977999777799979997797997777<@$rrre1#O$$#<9977777777777777797799",
"9999999777999779777777799777@$rrre1$##$$$.,777777799997777779999",
"999777999999777999777777777<#1rre1$##$$$#OO,77779777777777997999",
"777777999777977799977777777@$rrrq$#@##$#.O$O,7999997797777997799",
"779977777777777799977799<,,O#ere1#&2@@#.#$$$O5979997797997999777",
"999997777799777777779977@O#OO$1$$#>97<.O$$$$@5779997797999999777",
"977777777977999977799977@#qee$O##>7975>O$$#o49777977779999997799",
"779777997779997777999977>.#1ee1#@7977,O$$$@377779977777799777777",
"79j9779999997777799799977&.O#1$@,99772...@4999799977777777777777",
"9999979999977777777799979734@OO>77999755557999797777777997777777",
"7799999999999999999999779777534577979977777777777777777799777777",
"9979999999999999999999999979977799779977799777779997997797599777",
"997799999999999j999999999999777779977777779777999977977777799999",
"9999997799999999999999a99999777799977777799779999777997797777797",
"j999997799999979997797999799977777779977797779997779997777777777",
"j999979999999999999797999979977777979977777799777777997797799799",
"9999999999999997999999999777977999997999977977777757797777999799",
"9999999999979j97999999999777977999997997997777997777777777777797",
"9999999997979999999999999797799997777797797779977999779977557777"
};
