/* XPM */
static const char *terrorist_right_1[] = {
/* columns rows colors chars-per-pixel */
"64 64 75 1 ",
"  c #0D0E0E",
". c #13120F",
"X c #1D120E",
"o c #19180F",
"O c #0F0F10",
"+ c #141413",
"@ c #1A1511",
"# c #171817",
"$ c #1B1A13",
"% c #171818",
"& c #1C1C1B",
"* c #231411",
"= c #2A1411",
"- c #201C14",
"; c #2B1914",
": c #201B19",
"> c #3F1F16",
", c #3D1F18",
"< c #1F201F",
"1 c #252313",
"2 c #292716",
"3 c #2D2A16",
"4 c #20201F",
"5 c #2C221A",
"6 c #2D2A18",
"7 c #312E17",
"8 c #31241E",
"9 c #373217",
"0 c #363219",
"q c #3B361B",
"w c #3B381B",
"e c #3C381B",
"r c #3B381C",
"t c #3C381C",
"y c #3F3B1F",
"u c #1F1F20",
"i c #212121",
"p c #232424",
"a c #242424",
"s c #242425",
"d c #2C2420",
"f c #282827",
"g c #2F2824",
"h c #272728",
"j c #282828",
"k c #352721",
"l c #3A2B24",
"z c #3F3B20",
"x c #431B14",
"c c #4A1D15",
"v c #452118",
"b c #4C2218",
"n c #532117",
"m c #5B271B",
"M c #403B1F",
"N c #4B3328",
"B c #5E3E30",
"V c #664334",
"C c #6D4838",
"Z c #6E4E3C",
"A c #734B39",
"S c #744B3A",
"D c #734C39",
"F c #74513F",
"G c #785441",
"H c #7F5743",
"J c #BD7B5D",
"K c #C27E5F",
"L c #C07E60",
"P c #C78565",
"I c #CC8463",
"U c #D18B69",
"Y c #D18C6A",
"T c #D68F6C",
"R c #E59670",
/* pixels */
"eqqqreetqttteettqrqetttttttttqetqtqqqqqqqqttetqqqqqqttttqqqqrqee",
"qqqqqqqqwtrqttttttqqtttqrrettrrtttqqqetqqqqqqttqqrqqtqeqrttqqqqq",
"qqqeettqqtqqtttttwqqqtqqqrtqttettteqettqqqqqqqtrrqqttqttqqtteqqr",
"ettqqtteqeqetrqqtttrqtqeqttrqtttttetttqqqetttqqrqqqttwttqqqtqtqt",
"retqqqttqettqqqqttttttttqqttqqqqqqrttqqqqqtrtqetqrteqttrtqqqetqq",
"qqrtwqtttttttqqqtqqttttttettteqqrrqteqqqqqqqtttttetqqttqtqqqtttq",
"qtttrqqqqrqetrqttqqtteqqttqqtqqtttrretqqqttttttttetqqteqtettttqq",
"qetqqqqqq99qqqqqtqqtttqqttrqtqwttqq9qttqqqtttqqqrqqqqqettqttrqee",
"ttqqqqqqrqqqqqqqqqetqrtqqteqqtttqqtqettqtttqttqqttqqqqettrttqqtt",
"rtqqqqqqttqtteqqqqttqqtqqttqqettrtttttqqtttqttqqtttqqteqrqqtteqq",
"qqqetqqqqqqrtttttqqttttqqtqq00q909qqqqqqttqwtttqqqetrtqqqqqettqq",
"rqqqtqqqqqqqqttttqqttttqqtt7@++++++++$0qqqqqqqqqqtqqtttqqqtertet",
"ettqqqqqqqqqttttrqqqttttqt0@&iiiiiiii&@7qqqqtqttqtqqtqqtqqtrqeqt",
"twtrtqqetqqqqqqetetqqttte3@&sjjjjjjjfi&$0qqttqtttrqwtqqttqttttqq",
"tqqeqqqrqqqq99qttqeqqqqt0$&isjfjjjjjjsi%-0tttqqqeqttttttttqrttqq",
"qqqqttttqttqqqqttqrrq0qt3+&sjfjjjjjjjjsi+2qqtteqqqqqqqtwqeeqettq",
"qqqqqtttqqqttqqqqeqqqqqq3+&sjjjjjjjfjjjs&+7ttqqttqqqqqqqqrtqqtqq",
"qqtqqqttqqqttqqtqqrqqqqq3+&sfsjjsfssjsfs&+7ttqwttqqtttttqerrttqq",
"qqttqqeterrqqqttqreqqrtq3+&sjjjjjjjjjhhs&+7qqwttrqqtetrrtteeerqq",
"tttrqqtertqqrqqqqrrqttqq3+&sjjs&&&&&&&&&++7qqttqqqqqqtttttteqqrq",
"ttttqrtqqtqqqq9qeteqqqqt3+&sjpdCSADSSSDSA57qetqqqqeqtttttqttqqqq",
"tttrqqtqqterqqqqtttqqqqt6+&sjikLJBVKIILVN:7qtq0qqettq9qqqqttqttq",
"ttqqettqtttttqttrtterqqq3+&isilTP:5URRY8 .7ttqqqqqttqqqqqqqqqtte",
"ttetteettqqettttrrtwqqeq0-%&ssgGZ@:FHHF: .7tqqqttqqtteqqqqqrtttt",
"tttttrtttqqettqqtrrqqqqet7+&iss&&&&&&%%&++3tqqqqeetttqqqtqtrqqtt",
"ttttttttterrrtrqttttqqqtq1+&&sssjjjjjjjs&$0eqqqtqrtqqqqqtqetqttr",
"ttqtqrttqttqqqqqqqtqqqtq2+++&&ssjjjsjjsi+7tqqqqttwqrqqrqqqeeqqqq",
"ttqqqqqqqqerqqqqqqqq9tr1+&&++&&sssjjjss&@7tqqqqrqqeeertqqetttrqr",
"tqqqqqwteqqtqqttttqqqr2%&+&&+++&&ssssi&+2qttqtrrqqtertqqrtrqtttq",
"teetqettttttqqttttqqq2+isi+&&+&+&&&&&&+ .7qtqq0rtrqqqttttetttttr",
"eeqqtttqttttrqqtqqrq3#&ss&++&+i&++++++&++3qrq90ttrttqtttqqrqqeqq",
"ttqqqtqqqteqeqqqqqqq1+i:++.+++si&&&&%+&+4@7tqqqetttttqqeqqqqqteq",
"qqqqqqqrqeetteqqqqq3@u&*xbbv@++++iss&+++i+7tqqttttqtqqqeqqtttttq",
"qqq9qqqqetqqteqqqeq3+i&*ccnm>+&i&++&&+++i+7qqqtttrqrerqqettetttt",
"qqrqqttqetqqqrtettt3+is:*=xc;&iis&&&++++i+3qeettrqqttteqqttrrqqt",
"teteetqtqqerrreteqq3+ijs<&@X.++&iiis&&++i+7qqqqtttqeettttttteqqq",
"ttqqeq9trttqeqqqq9q6+&ifji++&+++++&i&:>,$+3qq1$0rttrtttqteqteqqq",
"ettqeqqqqetqtttqqqt0$%&ii&+&&&%++++++@cc>@o$$$+7rttqerqqttreqqtt",
"qtttrttqqqttqttqqttt7$+++++&&++++&&O.=xxc@+&&&+7tttqeeqqeteqettt",
"qqttqqrqqettqqrtqqerq3o+++++++  +&u+@===*.+&&&%10ttqqqqtrqqtrret",
"qqtqqqqqqqqqteqteqeqqq1+&&+++++++%&&++++.$---@+.3eqqetttrqtqqqtt",
"tttqqqqqqqqqttqqettqqq3@&+++&%&&++&i++&&+7tqt2$$7qtrqtttttrqqqtt",
"eqqqrqqettttttttrqqqqqq2++++%&ssi++&++%%$0tterqrqtttrqqqeqqetqqt",
"qqtteqqqeeteqettqqqqqqt2+&isjjs&&&+++%++2qtttqqqtttqrqrtrqqetttt",
"tttrteqqeqqqqqtttqqqqtr1+isjjs4++isssss&+7ttqqtttqqqtttqqtteqett",
"tteqtreqqqqqqqqqqqqett2+ihjsji@3.+&sjjjs+7ttqwttqqtttqqqqtttqttt",
"tttttqqqqreqttqqqqqqt6#&sjjhs&@03.&isjjs+3qqqqqetqqtteqqttttettt",
"tttettqqqqqqqqqtrqett1+isjss&%0qq2+&isjs&@7rqttttqqqttttttqqqttt",
"ttqqetqqqqtrqttttttt3.++isi+@0ttqr3+&sss&+7qqtttqqerqqqtteqqrqqq",
"qqqqtteetqttqtttqtt3%&&&+&&.3eqqqq7+&is++.7qqttqqqqqqqqqerqtttqq",
"qqeetttttqqqqqttqqt2+iss&+@3ttqqtq92+&+&&+@$3qqqqqqqtqqqqqrtteeq",
"etrqqtttttrqtqtqqqt0-&ij&.3qttqqtttq1+&ss&++3qqqttttqqeqtqqqqqeq",
"qrqqqqqtrqqqrqttrqqq7$&ss&19qttqqqtt7+&ii&+.3tqeqqtttqqqttqqqeqq",
"qqqrqqqqqrqqqqteeqttt7$%&%oqqetttttt7++++.$10ttqqqqqtttqttqtMtqq",
"qqqrqqqtweqqqqqqttettt3$$$1rttqtteet0$$$$-9tqqtqqqqeqtttttqtttte",
"qqqreqqttqqqqqwqqqqqqqqqqqrtqtqqqqqqqqqrqrtttwttttttetetttttttwq",
"rqqrtq9rqqeeqqttrqqqqteqqqttqqetqqqteqttttettttMMtttttttttttewte",
"rttrerqrrqqtqqttreqqqtrqqqqqqttqqqqqttttttettttMMtttttttttttwwtt",
"qeqqqeqteqeteqqrtteqqqtqqqqqqtttqqqqttqtttttttttetttttttqttttett",
"rqqqrrrrqqettrqqtttqqqtqqqetqwqqqqqtteqttqqtqttttqtttrttqtttttMN",
"qeqqtrqttqetqqrqqetrrqrqqqteqrrqqrrtqqtttqttetMtttttttttteqtttMN",
"qtqqttqqqqeqq9qqqeqqrqqtrttqttteeqqtrqettttNttteqtMttttttttMttMt",
"qeeqqqtqeqqqrqqqetqqqqetqetqettteqrtrqettttttteeetMtttrtttttzttt",
"qqeq09qqteerrttwettqqqttqtqqqqetterqqqqtttttttttttttttqttMtttttt"
};
