/* XPM */
static const char *terrorist_stop[] = {
/* columns rows colors chars-per-pixel */
"64 64 116 2 ",
"   c #000406",
".  c #010608",
"X  c #060A0B",
"o  c #0D0E0D",
"O  c #100F0D",
"+  c #0F100E",
"@  c #12120F",
"#  c #1A150F",
"$  c #1B190F",
"%  c #0C0F11",
"&  c #100E10",
"*  c #0E1111",
"=  c #141413",
"-  c #1A1611",
";  c #171816",
":  c #1A1914",
">  c #151818",
",  c #1B1B1B",
"<  c #24130F",
"1  c #2A140F",
"2  c #221E0E",
"3  c #33150F",
"4  c #3D150E",
"5  c #221410",
"6  c #2B1510",
"7  c #211E10",
"8  c #201F1F",
"9  c #321611",
"0  c #3C1610",
"q  c #381811",
"w  c #1F201F",
"e  c #26220F",
"r  c #322C0F",
"t  c #252211",
"y  c #292511",
"u  c #2E2911",
"i  c #20201F",
"p  c #2C241D",
"a  c #342E11",
"s  c #36251B",
"d  c #38271C",
"f  c #33291E",
"g  c #3A2A1F",
"h  c #363011",
"j  c #393211",
"k  c #262626",
"l  c #252525",
"z  c #242424",
"x  c #272827",
"c  c #282827",
"v  c #272828",
"b  c #282828",
"n  c #292928",
"m  c #2A2929",
"M  c #2A2928",
"N  c #2A2A29",
"B  c #2B2A29",
"V  c #2C2B2A",
"C  c #282828",
"Z  c #43160F",
"A  c #49170F",
"S  c #45180F",
"D  c #51190F",
"F  c #411710",
"G  c #461810",
"H  c #4C1A11",
"J  c #5C1D11",
"K  c #631E12",
"L  c #473527",
"P  c #4E3626",
"I  c #45372A",
"U  c #493828",
"Y  c #4B3A2B",
"T  c #4F3E2D",
"R  c #503D2C",
"E  c #5F4935",
"W  c #634934",
"Q  c #634A34",
"!  c #654934",
"~  c #684D36",
"^  c #6A4F37",
"/  c #6C4C35",
"(  c #6B5038",
")  c #6E5138",
"_  c #6C513A",
"`  c #76573C",
"'  c #79553A",
"]  c #905A3A",
"[  c #945C3B",
"{  c #935D3C",
"}  c #955D3C",
"|  c #965D3C",
" . c #965E3C",
".. c #98603D",
"X. c #9A613F",
"o. c #9C623E",
"O. c #9C623F",
"+. c #9E633F",
"@. c #9E6E4B",
"#. c #97704E",
"$. c #9C7350",
"%. c #A06541",
"&. c #A16541",
"*. c #A2724E",
"=. c #C78B5E",
"-. c #CD8F60",
";. c #D29263",
":. c #D29262",
">. c #D59464",
",. c #D49A69",
"<. c #D49A6A",
"1. c #DD9A68",
"2. c #DD9F6C",
"3. c #E1A370",
"4. c #E4A571",
"5. c #F3B078",
/* pixels */
"a a a a a a a a a a a a a a a a a a a a a a a a a a a a a a a a a a a a a a a a a a a a a a a a a a a a a a a a a a a a a a a a ",
"a a a a a a a a a a a a a a a a a a a a a a a a a a a a a a a a a a a a a a a a a a a a a a a a a a a a a a a a a a a a a a a a ",
"a a a a a a a a a a a a a a a a a a a a a a a a a a a a a a a a a a a a a a a a a a a a a a a a a a a a a a a a a a a a a a a a ",
"a a a a a a a a a a a a a a a a a a a a a a a a a a a a a a a a a a a a a a a a a a a a a a a a a a a a a a a a a a a a a a a a ",
"a a a a a a a a a a a a a a a a a a a a a a a a a a a a a a a a a a a a a a a a a a a a a a a a a a a a a a a a a a a a a a a a ",
"a a a a a a a a a a a a a a a a a a a a a a a a a a a a a a a a a a a a a a a a a a a a a a a a a a a a a a a a a a a a a a a a ",
"a a a a a a a a a a a a a a a a a a a a a a a y @ @ @ @ @ @ @ @ @ @ @ @ @ # @ t a a a a a a a a a a a a a a a a a a a a a a a a ",
"a a a a a a a a a a a a a a a a a a a a a j 7 = ; , z z z z z z z z z z z z , ; @ u h a a a a a a a a a a a a a a a a a a a a a ",
"a a a a a a a a a a a a a a a a a a a h u # = , z l l l l l l l l x l l c l l , , - $ a a a a a a a a a a a a a a a a a a a a a ",
"a a a a a a a a a a a a a a a a a a a 2 - = , z l l l l l l l l l l l l l l l l z , ; : y a a a a a a a a a a a a a a a a a a a ",
"a a a a a a a a a a a a a a a a a a a @ = , z l l l l l l l l l l l l l l l l l l , , o : h a a a a a a a a a a a a a a a a a a ",
"a a a a a a a a a a a a a a a a a a a @ = , z l l l l l l l l l l l l l l l l l l , , o 7 h a a a a a a a a a a a a a a a a a a ",
"a a a a a a a a a a a a a a a a a a a @ = , z l l l l l l l l l l l l l l l l l l , , o 7 h a a a a a a a a a a a a a a a a a a ",
"a a a a a a a a a a a a a a a a a a a @ = , z l l l l l l l l l l l l l l l l l l , , o 7 h a a a a a a a a a a a a a a a a a a ",
"a a a a a a a a a a a a a a a a a a a @ = , z l b , o * + o * * = = = = + + + = = , , o 7 h a a a a a a a a a a a a a a a a a a ",
"a a a a a a a a a a a a a a a a a a a @ = , z z o P O.] } X.X.X.} } } [ } O.&.O.&.g o o 7 h a a a a a a a a a a a a a a a a a a ",
"a a a a a a a a a a a a a a a a a a a @ = , z z . ! >.-.*.d s / ;.=.=.;.@.d s ' 1.L X = 7 a a a a a a a a a a a a a a a a a a a ",
"a a a a a a a a a a a a a a a a a a a @ = , l l . _ 3.2.$..   T 4.<.<.4.#..   E 5.U . @ : a a a a a a a a a a a a a a a a a a a ",
"a a a a a a a a a a a a a a a a a a a o = , , i = I ` _ R o o p ^ W W ~ U o o f ( p = o $ a a a a a a a a a a a a a a a a a a a ",
"a a a a a a a a a a a a a a a a a a a 7 - ; ; , b > X % * ; , ; % * * % * , , = o ; , o # a a a a a a a a a a a a a a a a a a a ",
"a a a a a a a a a a a a a a a a a a a h y o ; , z l b b b l l b b b b b b l l b b , ; - 7 a a a a a a a a a a a a a a a a a a a ",
"a a a a a a a a a a a a a a a a a a a h y o ; , , , z l l l l l l l l l l l l l l ; o a h a a a a a a a a a a a a a a a a a a a ",
"a a a a a a a a a a a a a a a a a a a a 7 o o @ , , , z l l l l l l l l l l l z , = o t a a a a a a a a a a a a a a a a a a a a ",
"a a a a a a a a a a a a a a a a a a u @ + = = = o ; , , , l l l l l l l l z , ; o @ = o : a a a a a a a a a a a a a a a a a a a ",
"a a a a a a a a a a a a a a a a a : = + = , , , @ @ @ , , , , , , , , , , , @ @ o , , @ @ @ y a a a a a a a a a a a a a a a a a ",
"a a a a a a a a a a a a a a a y @ , z = + @ , , , ; o = @ @ @ @ @ @ @ = = @ o = , , , @ ; z = # a a a a a a a a a a a a a a a a ",
"a a a a a a a a a a a a a a j y o i b l , o , , z ; o ; ; ; ; ; ; ; , , , , + = z , , @ ; b = @ h a a a a a a a a a a a a a a a ",
"a a a a a a a a a a a a a a : - o = > > = O , z z ; @ z l l l l z z z l , = o @ ; = = o ; l , , $ t a a a a a a a a a a a a a a ",
"a a a a a a a a a a a a y 7 5 6 9 3 3 3 < o = ; , = o , , , , , z z z z , o ; ; ; ; ; o ; l c z o : h a a a a a a a a a a a a a ",
"a a a a a a a a a a a a - & S D J J J J H 5 6 < o = ; ; ; ; ; ; = ; ; ; = o , z z z , o ; l l z o : h a a a a a a a a a a a a a ",
"a a a a a a a a a a a a : = G S 4 4 4 Z H J K H * , l z l v b l ; ; = = = o ; , > , ; o ; l l z o : a a a a a a a a a a a a a a ",
"a a a a a a a a a a a a : = 0 F F F F F F 0 F 9 ; ; ; ; , l z z l l l b , @ @ O # @ o o ; x l z o : h a a a a a a a a a a a a a ",
"a a a a a a a a a a a a : = @ @ = = = = = @ @ = = = = @ ; , , , ; z l l z z = - K q + O ; z l z o : h a a a a a a a a a a a a a ",
"a a a a a a a a a a a a a u + ; l z z l , o , z z z z = + @ + = ; ; , , ; = * 5 J J H @ + = z z o : h a a a a a a a a a a a a a ",
"a a a a a a a a a a a a h a o = i , , , ; o i b b , = + = ; ; ; @ @ @ * - 3 3 4 H H G G 6 * , i o - a a a a a a a a a a a a a a ",
"a a a a a a a a a a a a a a y : * = = = = o , , , ; o = ; , , , o ; ; o @ < < < # 1 Z A 3 + = ; y u j t - a a a a a a a a a a a ",
"a a a a a a a a a a a a a a h u t # o = = o @ = = @ @ , , , ; = o , , , = o = = = - < < - ; ; = t t t = % u a a a a a a a a a a ",
"a a a a a a a a a a a a a a a a j : o , ; o = ; ; = + , z , = @ = ; , w , o ; ; ; = + * = ; ; ; = = = = @ a a a a a a a a a a a ",
"a a a a a a a a a a a a a a a a a 7 # ; = o ; , , = o , , , = = z ; o , , = @ o o @ @ = @ # $ - ; , , - : a a a a a a a a a a a ",
"a a a a a a a a a a a a a a a a a a a # @ + @ @ @ = = = = = = ; l , = , , ; = = = = @ = 7 h a a # # @ y h a a a a a a a a a a a ",
"a a a a a a a a a a a a a a a a a a a a y o ; , , z l l l l l l l l z = @ @ , , , ; o u a a a a a a a a a a a a a a a a a a a a ",
"a a a a a a a a a a a a a a a a a a a h y o ; , l l l l l l z , , z l l l z , , , = o u a a a a a a a a a a a a a a a a a a a a ",
"a a a a a a a a a a a a a a a a a a a h y o ; , l l l l z , ; = = ; , l l l l z l ; o u a a a a a a a a a a a a a a a a a a a a ",
"a a a a a a a a r a a a a a a a a a a h y o ; , l l l l l z ; o o , z l l l l l x ; o u a a a a a a a a a a a a a a a a a a a a ",
"a a a a a a a a a a a a a a a a a a a a y o ; , l l l l l c ; o o , b l l l l l l ; o a a a a a a a a a a a a a a a a a a a a a ",
"a a a a a a a a a a a a a a a a a a a a y o ; , l l l l l l ; o o , l l l l l l l , o a a a a a a a a a a a a a a a a a a a a a ",
"a a a a a a a a a a a a a a a a a a a h t o ; , l l l l l l ; o o , l l l l l l b , o a a a a a a a a a a a a a a a a a a a a a ",
"a a a a a a a a a a a a a a a a a a a h t o ; , l l l l l l ; o o , l l l l l l l ; o u a a a a a a a a a a a a a a a a a a a a ",
"a a a a a a a a a a a a a a a a a a a a y @ ; , z l l l l l ; o o , x l l l l z , ; @ u a a a a a a a a a a a a a a a a a a a a ",
"a a a a a a a a a a a a a a a a a a a a a a # = , i l l l l ; o o , l l l l l z o t a a a a a a a a a a a a a a a a a a a a a a ",
"a a a a a a a a a a a a a a a a a a a a a a $ @ ; z b l l x ; o o , b l l l b z o y h a a a a a a a a a a a a a a a a a a a a a ",
"a a a a a a a a a a a a a a a a a a a a a a # o = = ; ; ; ; = @ @ = ; ; ; ; ; ; o t a a a a a a a a a a a a a a a a a a a a a a ",
"a a a a a a a a a a a a a a a a a a a a a h y $ o = ; ; ; = = @ @ = = ; ; ; o @ t a h a a a a a a a a a a a a a a a a a a a a a ",
"a a a a a a a a a a a a a a a a a a a a u 2 e 7 ; , z z , , = @ o ; , , z z , : 2 2 7 a a a a a a a a a a a a a a a a a a a a a ",
"a a a a a a a a a a a a a a a a a a a h t o = ; l l z , , , = @ @ ; , , , l l z = % @ a a a a a a a a a a a a a a a a a a a a a ",
"a a a a a a a a a a a a a a a a a a a a y o , , , , , ; ; ; = o o ; ; ; ; , , , , ; @ a a a a a a a a a a a a a a a a a a a a a ",
"a a a a a a a a a a a a a a a a a a a a y @ @ @ @ @ @ @ @ @ @ @ @ @ @ @ # @ @ @ @ @ @ u a a a a a a a a a a a a a a a a a a a a ",
"a a a a a a a a a a a a a a a a a a a a a a a a a a a a a a a a a a a a a a a a a a a a a a a a a a a a a a a a a a a a a a a a ",
"a a a a a a a a a a a a a a a a a a a a a a a a a a a a a a a a a a a a a a a a a a a a a a a a a a a a a a a a a a a a a a a a ",
"a a a a a a a a a a a a a a a a a a a a a a a a a a a a a a a a a a a a a a a a a a a a a a a a a a a a a a a a a a a a a a a a ",
"a a a a a a a a a a a a a a a a a a a a a a a a a a a a a a a a a a a a a a a a a a a a a a a a a a a a a a a a a a a a a a a a ",
"a a a a a a a a a a a a a a a a a a a a a a a a a a a a a a a a a a a a a a a a a a a a a a a a a a a a a a a a a a a a a a a a ",
"a a a a a a a a a a a a a a a a a a a a a a a a a a a a a a a a a a a a a a a a a a a a a a a a a a a a a a a a a a a a a a a a ",
"a a a a a a a a a a a a a a a a a a a a a a a a a a a a a a a a a a a a a a a a a a a a a a a a a a a a a a a a a a a a a a a a "
};
