/* XPM */
static const char *terrorist_right_3[] = {
/* columns rows colors chars-per-pixel */
"64 64 68 1 ",
"  c #0C0E0C",
". c #13130F",
"X c #19140F",
"o c #18180F",
"O c #151513",
"+ c #191613",
"@ c #171813",
"# c #1A1A14",
"$ c #171818",
"% c #1C1C1B",
"& c #221713",
"* c #221D13",
"= c #2A1B15",
"- c #231E1A",
"; c #321C15",
": c #3C1E15",
"> c #301E18",
", c #242213",
"< c #292615",
"1 c #2D2A16",
"2 c #21211F",
"3 c #2D2B18",
"4 c #322F18",
"5 c #363217",
"6 c #363219",
"7 c #3B361B",
"8 c #3C381C",
"9 c #3E391C",
"0 c #202120",
"q c #232323",
"w c #242322",
"e c #252523",
"r c #262624",
"t c #272727",
"y c #2C2521",
"u c #282825",
"i c #282828",
"p c #332924",
"a c #3F3B20",
"s c #421F17",
"d c #4B2116",
"f c #4C2519",
"g c #57291B",
"h c #5D2A1C",
"j c #403B1F",
"k c #473933",
"l c #483830",
"z c #4C3B33",
"x c #4E3D35",
"c c #544037",
"v c #5D433A",
"b c #6D5346",
"n c #715547",
"m c #725548",
"M c #78594B",
"N c #7E5C4D",
"B c #A97C6B",
"V c #AC806F",
"C c #B7846F",
"Z c #B78470",
"A c #BF8C78",
"S c #C08975",
"D c #C48B77",
"F c #C18F79",
"G c #CC927C",
"H c #CA9480",
"J c #D19782",
"K c #D69D88",
/* pixels */
"7777999779997799777999999999977979777777777979777777999977777779",
"7777777799779999997799977779977999777797777779977777977779977777",
"7777797777779999977779777777977999777997777777997777977977999777",
"7997799779797777999777777997799999799977779997797779999997777997",
"7797799779997777999799997797777777799777779777797799799997777997",
"7799799799997777977999999799997777797777777779999797799797777997",
"7999777777779779977997779977977999777977799999999797779779999997",
"7977777775777777977997779977977997757997779997777777777997799777",
"9977777777777777777777977977799977979997799779777977777799797779",
"977777779779977777997797791<<<<<<<1<4977999799779997799777799977",
"77799777777999797779999771@##########477797799977779799777779977",
"7779977777777999777999971#%ruurruure%#47777777777997799977977777",
"997777777777999977779994@%ruuuuuuuuue%#5777797797977997977997777",
"79777779777777779997797@%euuuuuuuuuure%*777797799977997799999977",
"77777779777757999777775@%ruuuuuuuuuuur%#777997777779999999979997",
"77799997997777799777755@%ruuuuuuuuuuuu2#777799977777777977977997",
"77777999777997797777775@%ruuurrrrrrrer%#779997799777777777777997",
"77777997777997797777775@%ruur%%%%%###%##577997799777999977997975",
"77977799777779977777797@%rur2bNMmnmnmbx#577777999777799799977777",
"99777797977777777977997@%rue-BGCzlZDSv=#797779977777779999997797",
"99997977977775779977775@%rue-VKFpyAJHl #777779777777799999997777",
"99977777797777779997775@%2rrwkcx%#lxz-.#777797577799777777797799",
"997799779999779979977771@%eui0%%22%%%%##797997579799777777777999",
"979997997779999999977775@%0ruuuuuuuur0##997977799779997777779999",
"79997799777799779797777,OO%0ruuuuuuur2#4777797777799997797797779",
"9999999997779977999975*#%OO%00ruuuuue%*7777777797797777797797799",
"997777997997777777976#%O%%OO%%00ruur%@47799777799777779977797777",
"97777777777777777776#%00%r0O$%%%0ww%OO<7579777797777779777799977",
"77777779777777999974O%uu%0i%%%%%O$$OOO#7777979977799777779977997",
"7797799979997799995#%0uu%%r%%00%%%%OO%+1997977579977779997799997",
"9779997799997779771#0uu0$O%$$0rr000%O%O#997975579979999997797777",
"977777779977777774O%uue=====+$%0000%+%O#777977779999977977777797",
"777777777779977774O%uu#fhhhh>$%%%#OO%OO#779777999977977777799999",
"777777779779977794O2uu-;:dds-%00r2##OO.@377757999997777779999999",
"797799779977779794O%ruu%+=:&OOO#%00e2+=&@77777999777999779977779",
"999799777777777974@%2ere2OOOOOOOOOO%%&gd*36795479977799999999777",
"9977777779777777754@%%2%%O%%%%OOOOO++=s:;O#34,#79997799799779777",
"99777777799799777773@%%%%O%%%OO%OOO&::;OO%%OOO@57997777779777799",
"799979777797799779974OOOOOO+OOOOO%0%XX+%#OO%20%*7997777779777999",
"779777777999779777775@OOOOOOOO#%OO%%@,O%%+,OOOO#7997777977777779",
"779777777779977977775<OOO#%O#%%%OO%%@<.O@47113367777999997777779",
"9997777777779977799775o.OOO%0ee%@OO@1611499799997777779999777799",
"7777777997999999777775<<OO#2rrr2#OO@7997999997777799977777779777",
"77997777779779a97777777<OO%2errr%##<9777799997777997777977777799",
"99779777777777999777797OOOO%0rrrr%#97777779977999777779779997799",
"9977977777777777777799<#%%O#0errr%#17777799977799779977779997799",
"999977777777997777777<o%%%OO%0rrrr%@7777977777779779997779999999",
"99779777777777797777<OOO%%%OO%0err0#1777777777999777999999977799",
"9777977777977999997<O%O.O%#O@#%0rrr%#777777779997779777797777777",
"7777997799977999795O%%%O.O@#1*#0eue%O<<1997779997777777777779977",
"7779999997777799775@%%%%Oo179,#%%2%OOOO#797977777777977777799977",
"99779999997777977774@#%%O,5797,#OO%re0##779977779999777777777777",
"777777997777779777774@%%%O<7797#O2ee2#.,777999777799977799777777",
"7777777777777797779994@oOo17799<@%2#Oo*7799979977777799799779j97",
"77777799977777779799975555779977,OO@4477799977977777799999799999",
"7777779977777777777777777799797754457777779999999999999999999977",
"7779957777997799777779777799777777797799999999999999999999999999",
"799777777779779997777977777779977777799999779999jj99999999997799",
"7977777977997779997779977777799977779999999999997799999977999999",
"777777777799977799777997779977777779977997797799979999997799999j",
"777997797799777779777777779779777779777997799999999999999777999j",
"9779997777777577777777797997999777797779999j999979j9999999999999",
"77777777777777779977779977979999779977799999999979j979999999aa99",
"7777557797779997997777977777777997977779999999999999797999999999"
};
