/* XPM */
static const char *terrorist_left_2[] = {
/* columns rows colors chars-per-pixel */
"64 64 68 1 ",
"  c #0F0F0D",
". c #12120F",
"X c #18150F",
"o c #151513",
"O c #191712",
"+ c #171816",
"@ c #1A1914",
"# c #1C1C1B",
"$ c #25140F",
"% c #2B150F",
"& c #231411",
"* c #2C1510",
"= c #211E12",
"- c #201E18",
"; c #361510",
": c #391611",
"> c #232113",
", c #292615",
"< c #2E2B15",
"1 c #20201F",
"2 c #282119",
"3 c #312D17",
"4 c #322C1B",
"5 c #363217",
"6 c #383317",
"7 c #363219",
"8 c #3C371C",
"9 c #3B381B",
"0 c #3C391B",
"q c #3B381C",
"w c #3D391E",
"e c #3F3B1F",
"r c #202020",
"t c #232323",
"y c #242423",
"u c #272626",
"i c #44170F",
"p c #401710",
"a c #4D1B11",
"s c #531B12",
"d c #403B1F",
"f c #453526",
"g c #4B3B2C",
"h c #4F3D2D",
"j c #523828",
"k c #523E2E",
"l c #593C2B",
"z c #584330",
"x c #5E4733",
"c c #65442F",
"v c #674630",
"b c #694730",
"n c #624A35",
"m c #6E4830",
"M c #734A32",
"N c #764C33",
"B c #734E36",
"V c #875F42",
"C c #8C6748",
"Z c #A0704E",
"A c #A17754",
"S c #AE7F58",
"D c #B27B53",
"F c #BE8258",
"G c #C6895B",
"H c #C08C62",
"J c #C99264",
"K c #CE9566",
/* pixels */
"668wwww0ww066w868www66688www866www06www66www8wwww86668ww086www66",
"666qqww66ww68ww8w66866888www66668886ww869wwwwwwww66668wwww8ww666",
"66ww6ww66ww8wwwww666666688ww688666wwww8wwwwwww660w668wwwwwwww9ww",
"wwww68w66ww8wwwwwwwww666ww888www866w66www68www660w66www6886666qw",
"w66ww8666686w6660www6660ww6568www68w66ww668www66ww66966666666666",
"wwwww866668wq66ww99w086www66w66wwww868wq68w80w88w666668666ww6666",
"w6ww6ww668www66www8www886wwwwq8www6660w86ww66www66668ww66ww66666",
"666668wqwwwww68www0www668wwwww8www6666ww68w06ww668wwwww60w666688",
"6w666ww0ww00668ww966ww660w066666677776ww68wwww068wwww66qw86668ww",
"ww66wwww96ww86q688666666ww7=@@@@@@@O=6w66wwwww668wwww666986668ww",
"ww66w68w966w8ww6ww66666ww6@#tttttttt+,w88wwww8666wwwwwq666w66886",
"wwww069ww66wwww6www660w06=#yuuuuuuuut+>60www86wwww8668666qww668w",
"6wwwwwwwww88w066www86686@+tuuuuuuuuuut+,w66666q6www6676666ww666w",
"8wq6ww666w66860www8w6867O#uuuuuuuuuuut+>w6656w86www66668ww0ww0ww",
"ww6666066666wwwww0886667@#uuuuuuuuuuut+>06666q8www8660wwwwwwww66",
"ww86wwww6666www68ww66666@#uuuuuuuuuuut+=6666666866866ww8666www66",
"9w88wwwww868www66ww66666@#+++++++++#ut+=666666w866w88ww6668ww666",
"wwwwqwwww8668www66666666@@cNMMMMMmMj#t+=66w8668q66wwq8888wwww66q",
"wwwwwww6666666ww666wwwq6O=ZbvFGDlBGV+t+=68www66q866668668wq0ww66",
"wwwwwwww88w6686ww668w866X-A44HKS@fJC+t+-w868868ww86668866w66wq68",
"w6666666www80668w8688667O@g@@zxkO2nh##+>ww6666www8656668ww66w666",
"66666666wwq6w856ww88w667O###########t+@36666wwwwwww668wwww66ww66",
"66666w66ww66ww666wwwwww6,+yuuuuuuuuu#+>66666wwww8wwwwwwwwwwwwwww",
"8688660www9wwww66w666ww87O#uuuuuuuu#+o>w88866qwwww69www666www8ww",
"wwww668w8ww888668w866666>.+#uuuuut##o X3ww666qwww066www666www8ww",
"w68w66w668wq6ww668ww606>oO.O######+oo+oX<w666wwww86qww8qwwwwwwww",
"w868wq868860ww86668ww6,+o#+.oOOOO+oo##oO-3w666ww6666666www8ww868",
"ww66ww8888866q8666ww65X#O##o++++++OO##O1#=w8766w6666966888686666",
"6ww666w8www668ww60ww7,#1o++o+ttttt#O##O#+@5w666wwwww66ww66869666",
"wwwwwww6668qw8666ww67OttoO+Oottt###o#+X*%%=3966wwwww66www8wwww68",
"w68wwww6666www556ww87Otto###o++++++OX*:ssa;=8666www66qwwwwwwwwww",
"q666ww0wwwqwww666ww67Otto+++o++#uut#&ssiii;@668666866wwwww868www",
"86660668ww0ww8866wq67@tyo.&o+uutt#++@;;;;:*@666676666w06ww666866",
"w8688668w66wwww9668w7Ot#o%aO#tt#++o++Oo++OX,066666668www886q6666",
"www866888qwwwwd6676w7@tO$aa$O++Oo.Otu#+tt#@8dw6ww6668ww68ww86666",
"www668www666www886776=#Opp;;*.oo#+.+t#o+#+>www8www8w8666ww86www6",
"wwwwwwwww66qww88883@73Oo**oo.O+o+#+o+O..X>wwww868www88688888www8",
"68wwwwwwq8wwqq66665OO@++oo++o##oO##.o.oo@76www8666866w66w86w66w8",
"66ww66wwqwww66866w7@++OO....o#O+o#+o#+oO>6668ww666868w66w86w76w8",
"8ww866686wwwq806ww63@@37@.oo+#+#ooooo..>6w66668w668www0ww8666ww8",
"6ww806886wwwww0w6668676w3O##o+tuttt1+O@7ww8688ww66www8www666wwww",
"866www666wwww96666wwwwqw7O##ttt##uuut+=6ww66888866w968www666q868",
"w86wwwww86680w668668666w7Otuuu#o+tuut+=6w66666886ww6www6w6666666",
"8wwwwww06w868wwww96ww66w7Otuuu#.Otuut+=8w66666www666ww6666666066",
"88ww666qwww66wwwwwwww86w7Otuuut.+uuut+>ww8666668wwwwwwwqwwww6669",
"6668866wqwww6668wwwww86w7Otuuut.+uuut+>wwww666666wwwwwwwwww8666w",
"6688ww6868www6606wwwq6667Otuuut.+uuutO>wwwww66688www6666888666ww",
"www6688w6886www066www6663O#uuut.Ouuut+>wwqww686888w86666668688ww",
"www6666www86ww8968wwwww67,+uuut.Ouut#@3666www88666666666666888ww",
"wwww668www88ww6668866ww667@tuut.+uut+=66666ww8666600ww8ww86666ww",
"6wwwwwww666wwwww668666w667O+##+.o##+o=68666www866ww6866888668www",
"68www8668w66qwww666w666666,.++O..O+OX3www666wwwwwww8w66886666ww6",
"66w866668w666www6668ww666,>#t#+.o#1##,3ww66ww68wwwwww0www6868ww0",
"86886660966666ww6688www67O+tt#+.o##t#O>8wwww866w6wwww68w68wwwwww",
"8666668ww86666666wwwqwww7O+##++.o++##+=6www666w868ww668q6wwwwwww",
"66ww6888wwwww8888www868w7>=>>>>==>>===<8w866688666806w88wwwwwwq6",
"69ww666www66606wwww8868w666ww666www666666668666668ww6866wwww8666",
"6www8www666666ww80www866676wwqwwww668www666wwww86www6668ww666668",
"6wwwwww00666660666www88w668ww8ww66w6wwww86qwwwwwww6666668www6688",
"wwwww0w0www88ww60www86886686686866w8ww66q66ww869q869666668www688",
"wwwwwwwwwwwwwdwwwwwww88w668866888866ww66w86w666668ww960w66ww66ww",
"wwwwwwwwwwwdddwwww8wwwwwq8ww668www66w8666www66866www660w668876ww",
"ww08wwwwwwwwwwwwww8wwwwwww866668www6666668ww668wwwww66ww66886886",
"ww66wwwwwww68www9wwwwww00ww6666wwww6888868w666wwwq9688ww66ww6w86"
};
