/* XPM */
static const char *terrorist[] = {
/* columns rows colors chars-per-pixel */
"64 64 81 1 ",
"  c #0F1213",
". c #161617",
"X c #191717",
"o c #171817",
"O c #1B1917",
"+ c #171718",
"@ c #1C1C1B",
"# c #201717",
"$ c #241917",
"% c #211C1B",
"& c #2B1B19",
"* c #341C1A",
"= c #3A1D1A",
"- c #232117",
"; c #2A2717",
": c #23221B",
"> c #29271B",
", c #2D2A1C",
"< c #312E1B",
"1 c #383417",
"2 c #35321C",
"3 c #3B361B",
"4 c #3D381D",
"5 c #1F1F20",
"6 c #242424",
"7 c #2A2622",
"8 c #2D2B24",
"9 c #272728",
"0 c #272928",
"q c #2B2B2B",
"w c #2B2C2B",
"e c #2C2C2B",
"r c #2E2E2E",
"t c #2F2F2F",
"y c #312F23",
"u c #352A26",
"i c #382A26",
"p c #3D2D27",
"a c #363320",
"s c #373421",
"d c #3A3622",
"f c #3D3920",
"g c #3A302B",
"h c #3F302A",
"j c #303030",
"k c #313132",
"l c #333333",
"z c #421E1C",
"x c #4A1F1D",
"c c #44211C",
"v c #4B221B",
"b c #53231D",
"n c #5B251D",
"m c #403B1F",
"M c #432F27",
"N c #402F28",
"B c #43332C",
"V c #523E35",
"C c #5D3E32",
"Z c #534037",
"A c #694A3E",
"S c #694C3F",
"D c #7D5141",
"F c #885443",
"G c #885543",
"H c #8D5643",
"J c #895544",
"K c #8D5644",
"L c #896351",
"P c #8A6553",
"I c #9F6F5D",
"U c #9F705D",
"Y c #A0705E",
"T c #AE7058",
"R c #B1745B",
"E c #B67A61",
"W c #B97F66",
"Q c #C17A5F",
"! c #D2896F",
"~ c #D38B71",
"^ c #D38C70",
/* pixels */
"3333344434443344333344444444433434333333334434333333444333333333",
"3333333334334444443344433334433444333343333334433333433344433333",
"3333344334334444433334333343443444333443333333433334434433443333",
"3443344334334333444334333444344444344433334443333334434433343434",
"3343334433443333344444443344343433344333334343443343344443334433",
"33344344444443334334444344saa222222aa233333344444343344343334443",
"3444433333334334433443334d%@@@@@@@@@@@23344444444343343343444433",
"334333333113333343344433<%99qrrrrrrq99%2334443333333333443443333",
"44333333333333333334334<:9rrkkkkkkkkrr97,44344334433333443443344",
"3433333334344333334433<:6rkkkkkkkkkkkkr6:24344334443343343344333",
"3333433333344434333443O@qkkkkkkkkkkkkkkq6%3344333344443333344433",
"3333433333333444433443@6rkkkkkkkkkkkkkkr6%2333333433444333433434",
"344333333333444433332@6qkkkkkkkkkkkkkkkkq6@243443433433333433334",
"434343334333333343432@6rkkkkkkkkkkkkkkkkr9@243444333433443444433",
"43333334333311344333<@6rkkkkkkkkkkkkkkkkr6@243333344444444334433",
"333344443443333443332@6rkkrrrrrrrrrrrrkkr6@244433333334333334443",
"333334443334433344332O6rke%%%@%%%%%%%%ekr9@243344333333343433433",
"33433344333443343333<O6rquFFFFHHKHFFFJiqr6@243444334444433434333",
"33343344333333443334<O6r9pTCMDQQQQDMCRN9r6@233443334343444333333",
"443333444433333334332@6r9hEu A~!!^S uWB9r6@<34433333344444433333",
"444433433433331334432@6rqgL7.VYIUYZ.7Pgqr6@244333333444443443333",
"444333433433331344432@6qkr@@@@@@@@@@@@qrq6@243233344313333443443",
"4433344334444344444332@6wkrrrrrrrrrrrrkq6@2443333344333333334443",
"4434433443344444444333@6qkkkkkkkkkkkkkkq@@3433344334443333334444",
"334443444333443343333,@@6rkkkkkkkkkkkkr6@@,343333344433343433344",
"44444444433334433443,O@@@9rkkkkkkkkkkr9@+@@<33443443333343343443",
"4434334434433333334,@o6@@69rkkkkkkkkrq6@@6@@>3344333334333333333",
"443333333333333333,69@69@@999qkkkkq9q9@@96@6:>333333334333444333",
"43333334333433444>7rr@@96o@@69qqqqq6@@o@9@@qw7>33343343334334443",
"4334334444443343,O9kr@@96@@@@@@@@6@@@@@@6@@qk0O24333344443444443",
"433344434444433<O$7q9+@66@qr6@@@@@@6q6@@@@@rkw%24344344433433333",
"44333433343343<@#b=@#OX@@@rrq9999qqqq@@@@@rkkkr@2444433433333433",
"33333333333443<#vnnnnb$@Oo@@@6kkkk6@@666@@rkkkr@2434333333444443",
"3333333334334<&zbbbbnnvv=@9qq9@6qk6o@@@@@@qkkkr@2433333334444444",
"3343344334333>#*****=bnv*6qrkw66@6@@6@@@@@9rkkr@2334443334433334",
"4443343433333,Oo@@@@#=z$@699qrrr@@@@6669@@9kkkr@2433444444443333",
"44333324344343<@9rkr9@@@@@@6669rrr6@@@56@@rkkkr@2443444343343333",
"344333333343442@9rkq@66666@@@6999rqqq@OO@9kkkk9@2443333344333344",
"344434433344344,@9q6@6996@66@@@@6996%cv&+@qkkq@,3443333334334444",
"3344333333443343,:@@o6996@@@@o@@@@@@Obnc==%qr9O34443333433333344",
"33433333333343344>::-@56@@o@@@@9@@@X&xxbnb&667>34333434433433344",
"444333333333443334432OOo@@@69@@qrq@#zzzxxxz#@>443233344444333344",
"3333333344444444333332@o@6@69@@qrq@X@@O=xz#6qy3f:@>4433333334334",
"3344433333443344333333-6qqX@@@o@qr6o@66%$#X@6q8:q@-3333433333344",
"444343333333334443333f-9kr99996@9rq6o@@@oO>;-@@6q@-3434334433444",
"4433433333333333333344-9kkkkkr9@6qq9@@@@@@34,::967,4433334443444",
"4444433333334433333344-9kkkkq96@%6@@kkkk9@24333%@234433344443444",
"4443443333333334333343-9kkkkw6@33:o@kkkk9@2334433333444444333444",
"4433343333433444444443-6rkkkq6O33:@qkkkr6@3334443333333443333333",
"3333443343443444343344-6qkkrq6O33:@qrkkr6@1334433333333333344433",
"3333444443333344333333-@699667,34y:66999@@3433333333433333344333",
"3433344444434343333333%+@@@@o>3344>+@@@@@@3433334444333343333333",
"3333333433333344333333%@6696@>4334>@6666@@3444333344333344333333",
"333333333333334333342:69qq99@>4444>@669q96:33443333344434434m433",
"333333343333333343442@69996@>234432,@69996@333433333344444344444",
"333333344333333333332O@@5567243333337@@@@@@343444444444444444433",
"333343133334334433332@@@@@:f33343334d:@@@@%3444m4444444444444444",
"3443433333343344433333332233344333334333ff33444mm444444444433344",
"3333333433343333444333433333344433334444444444443444444434444444",
"33333333333443334443134333343333333443344334344443444444344444mN",
"3333433443343333343333333343343333343344434434m444444444433444mN",
"3433443333333133343343343443444333343334444N444434m44444444m4444",
"33333343333333334433334433433444334433344444444444m444344444f444",
"3333213343334443444333443433333443433334444444444444443444444444"
};
