/* XPM */
static const char *terrorist_left_1[] = {
/* columns rows colors chars-per-pixel */
"64 64 75 1 ",
"  c #0D0E0E",
". c #13120F",
"X c #1D120E",
"o c #19180F",
"O c #0F0F10",
"+ c #141413",
"@ c #1A1511",
"# c #171817",
"$ c #1B1A13",
"% c #171818",
"& c #1C1C1B",
"* c #231411",
"= c #2A1411",
"- c #201C14",
"; c #2B1914",
": c #201B19",
"> c #3F1F16",
", c #3D1F18",
"< c #252313",
"1 c #292716",
"2 c #2D2A16",
"3 c #20201F",
"4 c #2C221A",
"5 c #2D2A18",
"6 c #312E17",
"7 c #31241E",
"8 c #312E18",
"9 c #373217",
"0 c #363219",
"q c #3B361B",
"w c #3B381B",
"e c #3C381B",
"r c #3B381C",
"t c #3C381C",
"y c #3C381D",
"u c #3F3A1E",
"i c #1F1F20",
"p c #202020",
"a c #222222",
"s c #232424",
"d c #242424",
"f c #272726",
"g c #2C2420",
"h c #282827",
"j c #2F2824",
"k c #272728",
"l c #282828",
"z c #352721",
"x c #3A2B24",
"c c #431B14",
"v c #4A1D15",
"b c #452118",
"n c #4C2218",
"m c #532117",
"M c #5B271B",
"N c #403B1F",
"B c #4B3328",
"V c #5E3E30",
"C c #654334",
"Z c #6F4A39",
"A c #6E4E3C",
"S c #734B39",
"D c #744B39",
"F c #734C39",
"G c #74513F",
"H c #785441",
"J c #7F5743",
"K c #BD7B5D",
"L c #C17F60",
"P c #C78565",
"I c #CC8463",
"U c #D18B69",
"Y c #D18C6A",
"T c #D68F6C",
"R c #E59671",
/* pixels */
"yyqqqqqqyyyywqyqqqyyyyqqqwqqqqyqyyqyyyyyyyyyyqqqyyyyyyyqyeeqqqqy",
"wqqqqyyywyqyqqqqqyyqqqqqqyyqqqyyyqyyyyqqqyyyqqyyyyyyqqywqqqqqqqq",
"qqqwyywqyyqyyqqqqyqqqqqqqyyqqwyyyyqyweqqqqyqqqwyyyyyqqyqqyyyyqqw",
"ywywyqwyyywyyqqqqqqyyyyqqqyyyyyyyyyqryyqyqyqqyeyqqqyyqeqyyyqqyyy",
"wqyyqqqyqyyqyyqqyeqyqyqqqqqyyqqqwwwqyyqqyyyyyyyyqqqqyyyqyyqqqyyq",
"qyyyqqqyqyyqqyyyyyyyqqqqqqqyyqqqqqyyyyyyyyyyyqqyqqwyyyyyyyqwyyqq",
"qweyyywyqyyqqyyyyyyyyyyqqqyyqqyyyqqyqqyyqqyyyqqyrqyyyqqqqqqryyyq",
"yyqqyyqyyyqqqqqqqqqyyywqqyyw9qqyyqqyqqyyqqyyyqqyqqqqq9qqqqqqqywq",
"yywqyywyyyqqqqyyqqyyqyyyqyyqqyqqyyqqqyyqqyqqyyyqqqqqwqqqqqqqqqyy",
"qqyyyqqqqyyqqyyyqyyyqyyywwqyyyyqyywqqyyqqywqyyqqqqwyyqyyqqqqqqyq",
"qqyyyqqqqqyryyqqqwyywqyeqqq9qq090q99qqyqqyyyyqqyyyyryqqqqqqyyqqq",
"yyyqyywqqyyyqeywqqqwqqqqq9$++++++++$6yyqqyyyyqqyyyyqqqqqqqwywqqq",
"yqyqyyqqwqwyqqywyrqyqqqq8$%aaaaaaaa%$0yqyyyyqqqqyyyyqqqqqqwqqyyy",
"qqyyyyqyeqwywqqyyyqyyqq9$%ahlllllllf%$2wyyyqqyyyyqqqqqqyqqqyyywy",
"qqyyqqyyyyyyyyqywqqyyy9-%afllllllllfa%$9yq9qqqqyyw99qqqqqqqqywqy",
"qyyyqyyqqyqqqqqqqeyyqq1+afllllllllllf&+2yq9qqqyyyqqwqyywyyyywqqq",
"qqywqyqwqqwqqqqyyqqyy8+&flllllllllllf&+2eqqqqqyqwqqyywqqyyyqqqqq",
"9qyyyyywyyyyyqqyywqyy8+&ffllhlllkfklf&+2qqqqqqqqyqqyyqqqyyqqyyyq",
"qqqyyyyyrqyyyqqryywqq6+&fllllllllfkkf&+2qyqqqyqqyyqwwqqyyeqqyyqq",
"qrqqyyyyyyyqqqqqqyyqq6.+%%%%%%%%%ffff&+2wwyyqqrqqqqqqqyrwyqqqyyy",
"qqqqyyqyyyyyqywqqqyyq64ZDSDDDFSDZgslf&+2yqwwqyyyqqqwqqyqqyqqyyyy",
"qyyqyyqqqqqqyyywq9qyq6-BCLIILCVKLzalf&+2yqqqqyyyqqqqqyyqqyqqyyyy",
"eyyqqqqwqqqqyyqewqqyy6. 7YRRU4-PTxafa&+2qqqqqyyqyyqyyyyyqeyyqqyy",
"yyyyqqqqqqeyyqqyywqqy6. -GJJG-@AHjff&%$9qqqqwyyywyyyyqqyyyyyyyyy",
"yyqqryqyqqwyyyyywqqwy2++%#%%%%%%%fka&+8yywqqwryyqqyyqqqyyyqyyyyy",
"qyyqyyqyqqqqqywqyrqyy9$%flllllllllf&%+<qyqqqyyyyqqyqqqyyyyyyyyyy",
"qqqqyyqqwrqqqqqwywqqqy8+ahlhlllllf&%+++<qyqqqyqqqqqqqyywyyqqyqyy",
"qqryyyyqqyyyyyqqqqqqqy8$%fflllhff&%++%%+<qy0qqqqqqqqqywqqqqqqqyy",
"qqyyqqyqqqyyyyqqqqywyyq1+%fffff&%+++%%+%#1qqqqyyyyqqywqywwqqq9qy",
"qyyyyyqyyyyqqqqyq9qqyq8. +%&&&&%+%+%&+afa+<qqqyyyyqqyyyyyyqqyqyy",
"qqyqqrqwyyyyyrqyy99qyq2++%++++++%a+%++&ff&+2qqqqyqqryyyyqyyyqqye",
"qyywwqqqewqyyyyyyqqqy8$&+%+%&&%%af++++++3a+<qqqqqqqyqyyqqqyqqqyy",
"wyyyyyqqyqqwyqyyyyqqw8+a+++&ffa++++@bnnc*&a$2qqqqqyyyqyqqqqqqqqq",
"yyyyeyyyqqqyyqyyyyq9q8+a+++&%++&a&+>Mmvv*&a+2eyqqqyyqqyyqqqqqqqq",
"yqqqqyyqqyyyqqqryyyyq6+a++++&&&faa%;vc=*:fa+2yyyyyqqqwyyqyyqqywq",
"qqqyyyyyyyyyqqyyyqqyq8+a++&afaaa&+++X@&ifla+2qqyyyqqqywwyyyyyyyy",
"qqqyyqyywyyyqyyr9$<qq2+$,>-&a&+++++%++alha&+5w9qqqyyqyyqy9qyqqyy",
"yywqyqyyqqyrqyyr6+$$$o@>vv@++++++%%&&+&aa&+$9yqqqyyyqryqqqqywyye",
"yyyyyyyywqyyqyyy8+&%%+@vcc=.O%&++++%%+++++$6yyyqqyyqyyqqqryqyyyq",
"yyqqyqqqywqwqyy9<%%%%+.====@+i&+  +++++++o2wqyqqyrqwyyqqqqqqyyqq",
"yyqqqyqyyyyeqqe2.+$---$.++++%&%+++++++%&+<qqqwwwyqwyeqqqqqqqeyqq",
"yyqqqyyyyyyqqyq8$$1yqy8+&&++:&++&%%%+++%%2qqqyyyqqyyqqqqqqyqyyyy",
"yqqyyqqyqqqyyyyqqqqyyy9$%%++%++aff%+++++1wqqqqqqyyyyyyyyyqqqwwqy",
"yyyyyqqyyqqyqyyyqqqyyyq<+%+++++%&flhfa&+1yqqqqqqyyyqyyyywqqyyyqq",
"yyyqyyyqqyyyqwqwyyqqwy8+&fffffa++3fllfa+<qyqqqwyyyqqqqqyqwyyqyyy",
"yyyqyyyqqqqyyyqqyywqyy8+flllf&+.2@alllfa+1yyywqqqqqqqqqqqyqyqyyy",
"yyyyyyyyqqyyywqyyqqqwq2+fllfa%.29$&flllf&+2yqqqqqwyywyqqqqqyyyyy",
"yeywqqyyyyyyqqwyyyyqq8$&flfa&+2qq0%&fflfa+<qwqqqyqqqqqqqqqyyqyyy",
"yqqqqqyyyqqqqyqqyyyqq6+&flf&+2qqyy0$+afa++.2yyyyyyyqyyqqqqyyqqyy",
"qqyyyqqyqqqqqqqqqyyqq6.++fa&+6qqqqq2.%&+&&%%2yyqyyyqyywyyyyywwqq",
"qyyyyqqqqqqyqqqqqqq2$@+&&%%+<9qyqqyy2$+&ffa+<yqqyyqqqqqyyyyyyqqq",
"qyqqqqqwqywwyyyyqqw2++&ff%+<qyyyqqyyq2.&lf%-9yqqwyqyqyyyyyyqqqyy",
"qqywqqyyqqqyyyqqwqy2.+%aa&+2yyqqqyyq9<&ff%$6qqqqyyqqqqqyyqqqqqqq",
"qyyNeqyyyyyyqqqqqey8<$.++++2yyryyyeqq@%&%$8yyyqyyyqqqqyqqqqqqqqq",
"yyyyyqyyyyyqyqqqqyqqy0-$$$$9yqyyyqeyq<$$$2yyyeyyqqqqqqyerqqqqqqq",
"qwyyyyyyyeyeyyyyyywyyyqqqyqqqqqqqqywyqqqqqqwqqqqqwqqqqqyyqqyqqqq",
"yyeyyyyyyyyyyyyNNyyyyyyyyyqyyqqweyqqyyqqwyyqqqqqyyqqewqqq9qyqqqq",
"yyqqyyyyyyyyyyNNyyyyyyyyyyyyqqqqqyyqqqqqqyyqqwyyyyqqyqqqqqqyqyyq",
"yyeyyyyqyyyyyyyyyyyeyyyyyeyyqqqqyyyqqqqqqyqqqyyyrqqyyyqyyqyqqqyq",
"BNeyyyyqyyyyyyqyyyyqyqwyyyyyyqqwqqwqyyqqqyq9qyyyqqqyywqwqqqqqqqy",
"NNyyyqyyyyyyyyyyyNywyeeyyyqwyqqqqqrqyyqqqqqqqywqqqqqyyqyyqqyqwyw",
"yyyyNyyyyyyyyNyqyyyyByyyyyqyyqqyyyyywyyryqqrqqrqqq9qqqqqqqyyqqyw",
"yyyyyyyyyryyyByeyeyyyyyyyyqqyrqyyyyyqyyqyeqqqqyeqqqqqqqyqyqqqyyq",
"yyyyyyNyyqyyyyyyyyyyyyyyywyqqqyyyeqqqqyqyyqqqyyewyyrqyyrqq99qyqq"
};
