/* XPM */
static const char *walking_down_3[] = {
/* columns rows colors chars-per-pixel */
"64 64 158 2 ",
"   c #030500",
".  c #090500",
"X  c #060800",
"o  c #0B0C02",
"O  c #110701",
"+  c #120D03",
"@  c #1C0C04",
"#  c #0F1001",
"$  c #131303",
"%  c #1C1304",
"&  c #171801",
"*  c #1B1C01",
"=  c #161409",
"-  c #19160A",
";  c #1D1B0C",
":  c #1D1E10",
">  c #210C05",
",  c #3A0C04",
"<  c #211604",
"1  c #231C04",
"2  c #291A07",
"3  c #211E0E",
"4  c #341007",
"5  c #3E1007",
"6  c #221E10",
"7  c #1F2001",
"8  c #232402",
"9  c #292006",
"0  c #272806",
"q  c #2C2D05",
"w  c #23210B",
"e  c #2C2C08",
"r  c #35260E",
"t  c #2F3006",
"y  c #303106",
"u  c #36360A",
"i  c #333408",
"p  c #38390A",
"a  c #39390B",
"s  c #38390B",
"d  c #3A3B0B",
"f  c #393A0B",
"g  c #3B3C0B",
"h  c #3C3D0C",
"j  c #3A3B0B",
"k  c #222313",
"l  c #292711",
"z  c #292610",
"x  c #272817",
"c  c #2A2811",
"v  c #2C2912",
"b  c #2C2A12",
"n  c #2E2B14",
"m  c #292916",
"M  c #2B2C18",
"N  c #3A2610",
"B  c #332F17",
"V  c #312E15",
"C  c #302F19",
"Z  c #343117",
"A  c #353117",
"S  c #363318",
"D  c #353219",
"F  c #39351A",
"G  c #39341A",
"H  c #3A351A",
"J  c #3A361B",
"K  c #3B361B",
"L  c #3B371B",
"P  c #3A361A",
"I  c #393419",
"U  c #3C371B",
"Y  c #3B371C",
"T  c #3C371C",
"R  c #3B371B",
"E  c #3C381C",
"W  c #3D381C",
"Q  c #3D391D",
"!  c #3D391D",
"~  c #3E391D",
"^  c #3E3A1D",
"/  c #3F3A1D",
"(  c #3E3A1E",
")  c #3D391C",
"_  c #520E06",
"`  c #5F0C04",
"'  c #730D05",
"]  c #7B0F06",
"[  c #7C150C",
"{  c #72140D",
"}  c #412C14",
"|  c #4D3216",
" . c #413C1E",
".. c #553818",
"X. c #56391B",
"o. c #593D18",
"O. c #5B3B1B",
"+. c #523516",
"@. c #433E20",
"#. c #014536",
"$. c #154F3C",
"%. c #2D4433",
"&. c #374331",
"*. c #394432",
"=. c #40410C",
"-. c #67421E",
";. c #6C441F",
":. c #6E491E",
">. c #504A31",
",. c #6E4520",
"<. c #6E4920",
"1. c #714620",
"2. c #794C23",
"3. c #5A7150",
"4. c #6E6242",
"5. c #6C7955",
"6. c #800F08",
"7. c #84110A",
"8. c #83180F",
"9. c #841910",
"0. c #814D25",
"q. c #875127",
"w. c #895227",
"e. c #91572A",
"r. c #94592C",
"t. c #905539",
"y. c #95583C",
"u. c #966736",
"i. c #A36330",
"p. c #A16530",
"a. c #A46732",
"s. c #AF753D",
"d. c #B1743B",
"f. c #BE7738",
"g. c #C17939",
"h. c #CC7F3D",
"j. c #946947",
"k. c #9E6C49",
"l. c #8D744E",
"z. c #93744F",
"x. c #9D7F56",
"c. c #C17F42",
"v. c #CD803D",
"b. c #D5853F",
"n. c #8E8258",
"m. c #9F8359",
"M. c #AB8E60",
"N. c #B9AF77",
"B. c #BCB178",
"V. c #C58141",
"C. c #CD8746",
"Z. c #D18947",
"A. c #D48D4A",
"S. c #D88F4B",
"D. c #D7904C",
"F. c #DA914C",
"G. c #E1954E",
"H. c #C6B178",
/* pixels */
"L T L T U L U L L E E L L L T U U L L L L Y T Y L Y Y L Y L L L L L L E L L L Y L L E E E L L L L L L T L L L L L L L L L L L L ",
"L L L T T L L U L E E L U U U L L L L L L L E Y Y Y L L L L L L L L L L L L L L L L T E L L L L L L L U T Y L L L L L T E L L L ",
"L L L T T T L L L L L L L T L T L L Y L L E E L T L E E E E E E E E E E E E L L L L L L L L L L L L T L U T L L L L L E E T L L ",
"L L E E T L U L L L L L Y T U T U L L L L E T L L T A c b b b b b b b b c A L L L L Y Y L L E E L L L T L L L L L L L T E L L Y ",
"L L E E E L L L L L L L L L U L L L L L L L L L L @.c o o o o o o o o o o l  .L L L L L L L E E L L L L L L L L L L L L L L L L ",
"L L T E U L L L L E E T L L L L L L L L L L L U S ; w 8 0 e e e e q e e 0 w ; S E L L L L L E E L L L L L L L L L L L L L L L L ",
"T L L L L L L L L E E L L T L L L L L L L L L E Z o * q i h g g s s h u t * o A E L L L L L L L L L L L L L L L L L L L L L L L ",
"T L L L L L L L L T T L L L L L L L L L L L L ; & 0 q s s s s s s s s s s q 0 $ ; L L L L L Y Y L L L L L L L L L L L L L L Y L ",
"L T L T L L L L L L L T Y L L L T Y L Y L L L $ $ q t u u s s s s s s u u y q $ $ L L L L L L L Y L L L Y Y L L L L L L L L L Y ",
"Y L L T L L L L L L T E E L L L E E L Y L E E $ $ q 8   w =.s s s d =.w   8 q $ $ E E L L L L L Y L L L E E Y L L L T Y L L L L ",
"L L L Y L L L L L L T E E L L L E E Y L Y B l * * q w o * e q y t e e * o 0 q * * c B E L L L L L L L L T E L L L L L L Y Y L L ",
"Y T T L L L L L L L L L L Y L L L Y Y L E ;   e y q 0 6 =   * 8 8 *   = 6 e q t e   ; E L L L L L L L L L L L L Y L L L T L Y Y ",
"T T T L L L L L L L L L L L L L L Y Y L E 3 X & * 0 w = = X & * * $ X = - w 0 * & X ; E L L L L L L L L L L L L L L L L L L L L ",
"Y L L Y L L L L L L L L L L L L L L L L E 3 X X o 8 * + o o o o = o o o + * 0 o X X ; E L L L L L L L L L L L L L L L L L L L L ",
"L U L L L L L L L L L L L L L L L L L L E 3   $ $ o = ; =   = ; ; -   = ; = o $ $ X ; E L L L L L L L L L Y L L L L L L L L L L ",
"T L L L L L L L L L L L L L L L L L L L E 3 X & & X o ; +   - ; ; -   = ; o X $ $ X ; E L L L L L L L Y Y L Y L L L L L L L L L ",
"Y L L L L L L L L L L L Y L L L L L L L E 3 X * 7 8 & X X X X X X X X X X * 8 8 * X ; E L L L L Y Y Y E E L L L Y L L L L L L L ",
"L L L L L L E E L L L L L L L L L L L L E 3 X * * * & o o X o o o o X o o * 8 * * X 3 E L L L L L L L E E L L L L L L Y E Y L L ",
"L L L L Y T E E L L L L L L L L L L L L E ;   # o X X   X o # $ $ # o o X X X # #   ; E L L Y L L L L L L L L L L L L E E E L Y ",
"L L Y L Y L E E L Y L L L L L Y L L L L E n w o $ +.o.<.r   o.:.:.o.  r :...| $ o w n E L L L L Y L L L L L L L L Y Y E E T L L ",
"L U L L L L L L L L L L L L L L L L L L L E  .o % r.i.b.O.  p.v.h.p.  X.b.i.e.+ o E E L Y Y L L L L L L L L L L L L L L L L L L ",
"T L T L L L L L L L L L L L L L E E L L L L T o % w.p.Z.d.u.V.C.C.V.u.s.Z.p.q.$ o L Y E Y L Y Y Y Y L L L L L L L L L L L L L L ",
"T L L L L L L L L L L L L L L L E E L L L L L o % 0.a.S.S.G.S.S.S.S.G.F.S.a.0.$ o L L E E L Y T Y Y L Y L L L L L L L L L L L L ",
"L L L L L L Y L L L L L L L L L L L L L E w o * * X X.v.V.S.S.S.S.S.S.V.v.| o * * # w  .Y L Y Y L Y Y L L Y Y Y L L L Y L L L L ",
"L L L L L L Y L L L Y L L L L L L L L S B w & 7 *   } i.d.Z.C.C.C.C.Z.d.i.N   * 7 $ w A S L L T L Y Y L Y Y Y L Y L L Y L L L L ",
"L L T L L L L L L L L L L L L L L L  .l X e h 8 * X o   -.v.f.g.g.f.v.O.  o X * 0 h e X l  .L L Y L L L L Y L L Y L L L Y L Y L ",
"L L L L E T L L L L L L L Y L L L S l w & q s 8 * X o   N 2.;.,.1.1.2.N   o X * 8 u e & w c L E L L L L L Y Y L L Y E Y L L L L ",
"Y L L L E E L L L L L L L L L L E A o & 8 y s 0 * X X                     X X * 8 y 0 8 & o A E L L L L L Y Y L L Y E E L L L L ",
"T L L L E E L L L L L Y E E E L E A # * 0 y s 0 *   O _ _ _ _ _ _ _ _ _ _ O   * 7 & 8 0 * $ A E L L L L L L Y L L T E T L Y L L ",
"L L L L L L L L L L L L U E E L E A # * q i s 0 *   > 7.7.6.7.7.7.7.6.7.7.>   * *   * y * # A E L L L L L Y Y L L L L Y L L L L ",
"L L L L L T Y L L L L L L E L L E A # * q q t * &   > 9.y.M.x.%.%.x.M.y.8.@   $ $ X * y * o A E L L L Y L L Y L L L L L L L L L ",
"Y L L L L T T L L L L L Y Y L L E A # * q q q * $   > 9.k.B.3.#.#.3.N.j.{ @   o o o * y * o A E L L L L Y L Y Y L L L L L L L Y ",
"L L L L L L L L L L Y E E L L L E A # * t q q * $   > 9.k.N.5.$.$.5.H.4.  = = X o * 0 t * # A E L L L L L L E E Y L L Y L L L E ",
"Y L L L L L L L L L L E E L L L E A # * t t y & $   > [ t.m.z.&.*.l.n.>.  + o o o 8 0 q * $ A E L L L L L L E E Y Y Y L L L L E ",
"L L L L L L L L L L L L L L L L E A # * q u s $ o   @ [ ' ' ' ' ] `   o $ X   & * q q y * o A E L L L L Y L L L L L L L L L L E ",
"L L L L L L L L L L L L L L L L E A # * q i s $ o   O , , , , , 5 4 o o o + + % * q 0 * w w S E L L L L L L Y Y L L Y Y L L L L ",
"L L L L T L L L L L L L L L L L E A o * t u g $ X X             o # = o   % < % < y w X l  .L L L T L L L L L L L Y L L L L L Y ",
"U L L T T T L L T L L L L L L L L L B w $ 1 9 + o X X o o X o o - - X + % < 2 % % $ w B A L Y T L L L L L L L L L Y L L L L L L ",
"U L U T L L L L U T L L L L L L L L  .l . @ % + O X X o o X o = ; -   + < 2 2 % % o w  .L L U T L L L L L L L L L Y L L L L L Y ",
"Y T U L T Y L L L L L L L Y T L L L E l . % < % % o o X o o - ; o o = o X O + O % L L L L L L E E L L L Y L L L L L Y L L L L Y ",
"T L T L T T L L L L L L L L T L L L E b $ % % < % o o o o = - - o o + o X + $ o $ L Y Y Y L L E E Y L L L L Y L L L Y Y L L L L ",
"T L L L Y L L L L L L L L L L L L L L L  .; . < % X o = - 3 o X 8 *   X o * 7 $ & L Y Y Y L L L L L L L L L L Y L L L Y L L L L ",
"L L L Y L L L L L L L L L E T L L L L L E l ; % + o o = = = o o * * $ & * 8 0 $ & L L L L L L L L L L L L L Y L L L L L L L L L ",
"L L L L L L L L L L L L E E E L Y L L L L E E o X o = 3 =   # $ # & q u h y q $ & L L L L Y L L L L L L L L L L L L L L L L L L ",
"L L L L L L L L L L L L Y E E L L Y L L Y L L o X - = + $ & o o $ & q y s t q $ $ L L L L L L L L L L E Y L L L L L L L L L L L ",
"L L L L L L L L L L L L L L L L L L L L L L U o o 3 -   $ 8 o X $ & q i s t q $ $ L L Y L L L L L L L E E L L L L L L L L L L L ",
"L L L L L L L T E E L L L L L L L L Y L E 3 o o o o $ * * 8 o X $ * q i s y q $ $ L L L L L L L L L L E L L L L L L L L L L L L ",
"L L L L L L L T E E L L L L L L L Y L L E ;   = = X o 8 * * o o $ * q y s t q $ & L L L L L L L L L L L L L L L L L L L L L L L ",
"L L L L L L L L L L L L L L L L L L L L E ;   A A X X X X X X X $ * q q q q q $ $ L Y L L L L L L L L L L L L L L L L L L L L L ",
"L L L L L L L L L L L L L L L L L L L L E k = Z B X o o o o o X o & 0 0 0 0 0 # = Z I L Y L L L L L L L L L L L L L T L L L L L ",
"L L T U L L L L L L L L L L L L L L L L L E E M k X o 6 3 3 o X o o * * * * * X o x C U L L L L L L L L L L L L L U E E L L L L ",
"L U L L L L L L L L L L L L L L L L L L L L L M k X o = = = o X o o # # # # # X o x Z T Y L L L L E E L L L L L L L E E L L L L ",
"L L L L L L L L L L L L L L L L L L L L L L L M k X X   X   X X o o X X X X X X o x Z E L L L L L E E L L L L L L L T Y L L L L ",
"L L L L L L L L L L L L L L L L E E L L L L L M x k k k k k k : o o X + - - - X o x Z E L L L L L E E Y L L L L L L L Y L L L L ",
"L L L L L L L L L L L L L L L L E E L L L L L M m M M M M M M x o o X = 3 ; ; X o x Z E L L L L L L L L L L L L L L L L L L L L ",
"L L L L L L L L L L L L L L L L T L L L L L L L S x x x m m m k X X X o = = = X o L Y E Y L L L L L L L L L L L L L L L L L L L ",
"L L L L L L L L L L L E T L L L L L L L L L L L L M M m m x m k o X X o o o o X o L E E L L L L L L L L L L L L L L L L L L L L ",
"L L L L E E T L U L U E E L L L L L L L L L L L L U S x x x m k X               o L Y L L L L L L L L L L T L L L L L L L L L L ",
"U L L L E E L L L L T E E L L L L L L L L L L L L L I C C C C M ; ; ; ; ; ; ; ; ; L T T L L L L L L L L L T L L L L L L L L L L ",
"L L L L L L L L L L L L L L L L L L L L L L L L L L L U E U L U E E E E E E E E E Y T T L L L L L L L L L L L L L L L L L L L L ",
"L L L L L L L L L L L L L L L L L L L L L L Y L L L L L L L L L L L L L L L L L L L L L L L L L L L L L L L L L L L L L L L L L ",
"L L L L L L L L L L L L L T L L L L L L L L L L L L L L L L L L L L L L L L L L L L L L L L L L L L L L L L L L L L L L L L L L ",
"L L L U L L L L L L L L L L L L L L L L L L L L L L L L E E L L L L L L L L L L L L L L L L L L L L L L L L E E L L L L L L L L ",
"U U L U U L L L L U L L T L L Y L L L L L L T L Y L L L E E E L L L L L L Y L L Y Y L L L L L L L L L L L L E E T L L Y Y L L L "
};
