/* XPM */
static const char *walking_down_2[] = {
/* columns rows colors chars-per-pixel */
"64 64 158 2 ",
"   c #030500",
".  c #090500",
"X  c #060800",
"o  c #0B0C02",
"O  c #110701",
"+  c #120D03",
"@  c #1C0C04",
"#  c #0F1001",
"$  c #131303",
"%  c #1C1304",
"&  c #171801",
"*  c #1B1C01",
"=  c #161409",
"-  c #19160A",
";  c #1D1B0C",
":  c #1D1E10",
">  c #210C05",
",  c #3A0C04",
"<  c #211604",
"1  c #231C04",
"2  c #291A07",
"3  c #211E0E",
"4  c #341007",
"5  c #3E1007",
"6  c #221E10",
"7  c #1F2001",
"8  c #232402",
"9  c #292006",
"0  c #272806",
"q  c #2C2D05",
"w  c #23210B",
"e  c #2C2C08",
"r  c #35260E",
"t  c #2F3006",
"y  c #303106",
"u  c #36360A",
"i  c #333408",
"p  c #38390A",
"a  c #39390B",
"s  c #38390B",
"d  c #3A3B0B",
"f  c #393A0B",
"g  c #3B3C0B",
"h  c #3C3D0C",
"j  c #3A3B0B",
"k  c #222313",
"l  c #292711",
"z  c #292610",
"x  c #272817",
"c  c #2A2811",
"v  c #2C2912",
"b  c #2C2A12",
"n  c #2E2B14",
"m  c #292916",
"M  c #2B2C18",
"N  c #3A2610",
"B  c #332F17",
"V  c #312E15",
"C  c #302F19",
"Z  c #343117",
"A  c #353117",
"S  c #363318",
"D  c #353219",
"F  c #39351A",
"G  c #39341A",
"H  c #3A351A",
"J  c #3A361B",
"K  c #3B361B",
"L  c #3B371B",
"P  c #3A361A",
"I  c #393419",
"U  c #3C371B",
"Y  c #3B371C",
"T  c #3C371C",
"R  c #3B371B",
"E  c #3C381C",
"W  c #3D381C",
"Q  c #3D391D",
"!  c #3D391D",
"~  c #3E391D",
"^  c #3E3A1D",
"/  c #3F3A1D",
"(  c #3E3A1E",
")  c #3D391C",
"_  c #520E06",
"`  c #5F0C04",
"'  c #730D05",
"]  c #7B0F06",
"[  c #7C150C",
"{  c #72140D",
"}  c #412C14",
"|  c #4D3216",
" . c #413C1E",
".. c #553818",
"X. c #56391B",
"o. c #593D18",
"O. c #5B3B1B",
"+. c #523516",
"@. c #433E20",
"#. c #014536",
"$. c #154F3C",
"%. c #2D4433",
"&. c #374331",
"*. c #394432",
"=. c #40410C",
"-. c #67421E",
";. c #6C441F",
":. c #6E491E",
">. c #504A31",
",. c #6E4520",
"<. c #6E4920",
"1. c #714620",
"2. c #794C23",
"3. c #5A7150",
"4. c #6E6242",
"5. c #6C7955",
"6. c #800F08",
"7. c #84110A",
"8. c #83180F",
"9. c #841910",
"0. c #814D25",
"q. c #875127",
"w. c #895227",
"e. c #91572A",
"r. c #94592C",
"t. c #905539",
"y. c #95583C",
"u. c #966736",
"i. c #A36330",
"p. c #A16530",
"a. c #A46732",
"s. c #AF753D",
"d. c #B1743B",
"f. c #BE7738",
"g. c #C17939",
"h. c #CC7F3D",
"j. c #946947",
"k. c #9E6C49",
"l. c #8D744E",
"z. c #93744F",
"x. c #9D7F56",
"c. c #C17F42",
"v. c #CD803D",
"b. c #D5853F",
"n. c #8E8258",
"m. c #9F8359",
"M. c #AB8E60",
"N. c #B9AF77",
"B. c #BCB178",
"V. c #C58141",
"C. c #CD8746",
"Z. c #D18947",
"A. c #D48D4A",
"S. c #D88F4B",
"D. c #D7904C",
"F. c #DA914C",
"G. c #E1954E",
"H. c #C6B178",
/* pixels */
"L L L L L L L L L L L L T L L L L L L E E E L L Y L L L Y L L L L U U E T T Y L Y T Y L L L L L L T L U L E E L L U L U T L T L ",
"L L L E T L L L L L L T L L L L L L L L E T L L L L L L L L L L L L L L L L L L Y E T L L L L L L L U U L E E L U L L T T L L L ",
"L L T E E L L L L L T L L T L L L L L L L L L L Y L E E E E E E E E E E E E L T Y E E L L L L L L L T L L L L L L L T T T L L L ",
"Y L L E T L L L L L L L T L L L E E L L L L L L L L Z c b b b b b b b b c Z T L L E E L L L L L L L L Y L L L L L U L T E E L L ",
"L L L L L L L L L L L L L L L L E E L L L Y L L L  .l X o o o o o o o o X c @.L L L L L L L L L U U L L L L L L L L L E E E L L ",
"L L L L L L L L L L L L L L L L E E L L L L L E S ; w 8 0 e e e e q e 0 8 w ; S T L L L L L L L L L L L T E E L L L L T E T L L ",
"L L L L L L L L L L L T L L L L L L L L L L L E Z o * y u h g g g g h i q * o Z E L L L L L L L L L T L T E E L L T L L L L L T ",
"L L L L L L L L L L L L L Y L L Y Y L L L L L ; & 0 q p p p p p p p p p p q 0 $ ; L L L L L L L L L L L L T T L L T L L Y L L T ",
"L L L L L L L L L L L L L L L Y L L L L U L L $ $ q y u u p p p p p p u u t q $ $ L L L L L Y Y L L L Y T L L L L L L L Y L L L ",
"L L L L L Y L L L L E E L L L L L L L L L E E $ $ q 8   w =.p p d d =.w   8 q $ $ E E L L L E E Y L L E E T L L L L L L T L L Y ",
"L L T Y L L L L L L E T L L L L L L L L E B c * * q 0 o * 0 e y y e 0 * o w q * * l B E L L E E L L Y E E T L L L Y Y Y L L L L ",
"Y Y Y T L L L Y L L L L L L L L L Y Y L E ;   0 t q 0 6 =   * 8 8 *   = 6 0 q y 0   ; E L L L L L L Y L L L L L L L L L L Y T Y ",
"L L L Y L L L L L L L L L L L L L L L L E ;   $ * 0 w = $ X $ * * $ X $ = w 0 * $   3 E L L L L L L L L L L L L L L L L L T L T ",
"L L L L L L L L Y L L L L L L L L L L L E ;     X 8 * + o X o $ + o X o $ * 8 X     3 E L L L L L L L L L L L L L T L L L L L L ",
"L L L L L L L L Y Y Y L L L L L L L L L E ;   $ $ o $ 3 =   - ; ; =   $ ; $ o $ $   3 E L L L L L L L L L L L L L L L L L L L L ",
"L L L L L L L L Y Y L Y Y L L L L L L L E ;   $ $ X o ; =   - ; ; -   $ ; o X $ &   3 E L L L L L L L L L L L L L L L L L L L L ",
"L L L L L L L L Y T L E E T Y Y L L L L E 3   * 8 8 *   X X X X X X   X X & 8 8 *   3 E L L L L L L L L L L L L L L L L L L L Y ",
"L L Y E Y L L L L L L E E Y L L L L L L E 3   * * 8 * X X X o o o o X X X $ * * *   w E L L L L L L L L L L L L E E L L L L L L ",
"Y L E E E L L L L Y L L L L L L L L L L E ;   # # X X   o o # $ $ $ o X       o o   ; E L L L L L L L L L L L L E E T T L L L L ",
"L L U E E L Y L L Y L Y Y Y L Y L L L L E n w o $ | ..:.r   o.:.:.o.  r <.o.+.= o w M E L L L L L L L L L L T L E E L T L L L L ",
"L Y L L L L L L L L Y L L L L L L L L L L E E X = e.p.b.O.  p.h.h.p.  O.b.a.r.% o  .E L L L L L L L L L L L L L L L L L L L L L ",
"L L L L L L L L L L L L L L L L L L L T E T L X = q.p.Z.s.u.V.C.C.V.u.d.Z.a.w.% o E L L L L E E L L L L L L L L L L L L L T L T ",
"L L L L L L L L L L L L L L Y Y L L L E E L L X = 0.a.S.F.G.D.A.A.A.G.S.D.a.0.% o L L L L L E E L L L L L L L L Y L L L L L L T ",
"L L L L L L L L Y L L L L Y Y L L L L L  .w # * * X | h.V.A.A.A.A.A.A.V.v...  * * o w E L L L L L L L L L L L L L T Y Y L L L L ",
"L L L L L L L Y Y Y Y Y L Y Y L U L L S Z w $ 7 8   N a.d.Z.C.C.C.C.Z.d.a.}   * 7 $ w B S L L L L L L L L Y L L L T Y Y Y L L L ",
"L Y L Y L L L Y Y L Y L L L L Y L L  .l X 0 h 8 *   X   O.b.f.g.g.f.v.-.  X   * 8 h 0 X l  .L L L L L L L L L L L L L L Y T L L ",
"L L L L Y E Y L L Y L L L L L L U L c w $ 0 u 8 *   X   N 2.1.1.,.;.2.N   X   * 8 p q $ w l S T L L Y L L L L L L L T E L L L L ",
"L L L L E E Y L L Y Y L L L L L E Z o & 8 0 y 8 *                             * 8 p y 8 & o Z E L L L L L L L L L L E E L L L L ",
"L L Y L T E T L L L L L L L L L E Z $ * 0 8 & 7 *   O _ _ _ _ _ _ _ _ _ _ O   * 8 p y 0 * $ Z E L E E Y Y L L L L L E E L L L T ",
"L L L L L L L L L L L L L L L L E Z # * i *   * 1   > 7.7.6.7.7.7.7.6.7.7.>   * 8 p u q * # Z E L E E L L L L L L L L L Y L L L ",
"L L L L Y Y L Y L L L L T L L L E Z # * y *   $ $   > 8.y.M.x.%.%.x.M.y.8.>   $ * y t q * # Z E L Y T L L L L L L L L L L L L L ",
"L L L Y Y Y L L L L L L L L L L E Z # * y * X o o   @ { j.N.3.#.#.3.B.k.9.>   $ * q q t * # Z E L Y Y Y L L L L L Y T L L L L L ",
"E L L L L L L Y E E L Y Y Y Y L E Z # * t 8 * X   $ $   4.H.5.$.$.5.N.k.9.>   $ * q q t * # Z E L L L E E Y Y L L L L L L L L L ",
"E L L L L L Y Y E E L L Y L L L E S $ * t 8 8 # X o +   >.n.l.*.&.z.m.t.[ >   $ & y t t * # Z E L L L E E L L L L L L L L L L Y ",
"E L L L L L L L L L L Y L L L L E Z o * y q q 7 &     = o   ` ] ' ' ' ' [ @   X $ p u q * # Z E L L L L L L L L L L Y L L L L L ",
"L L L L L L L L Y Y Y L L L L L E S w w * 0 q * % + + o o o 4 5 , , , , , O   X $ p i q * # Z E L L L L L L L L L L L L L L L L ",
"Y L L L L L Y L L L L L L L Y L L L  .l X w y < % < %   X $ # o               X $ g u t * o Z E L L L L L L L L L L L L L L L L ",
"L L L L L L Y L L Y L L L L L L L L L Z B w $ % % 2 < % +   - - o o   X o     o + 9 1 $ w B L U L L L L L L L U L L L T L L L U ",
"Y L L L L L Y L L L L L L L L L U U L L  .w o % % 2 2 < +   - ; $ o   X X X   O + % @ X l  .L L L L L L L U U L L L L L U L L U ",
"Y L L Y L Y L L L L L L L L L E E L L L L L L % O + O X o $ X X ; - o X   o o % % < % X l E L U Y T Y L L L L L L L Y T L L T Y ",
"L L L L Y Y L L L L L Y L L Y E E L L L L T L = o $ + X o o o o - - = o X X o % % % % % b E L L L T Y L L L L L L L T T L T L T ",
"L L L L L L L L L L L L L L L L L L L L T Y L $ $ 7 * o X   * 8   o 3 - $ X   % < X 3  .L U L L L L L L L L L L L L L Y L L L T ",
"L L L L L L L L L L L L L L L L L L L L L L L $ $ 8 8 * & $ * * X o - = = o X + % ; l E L L L L L T E L L L L L L L L L Y L L L ",
"L L L L L L L L L L L L L L L L L L L L L L L $ $ q y h u q $ # $ #   $ 6 = $   o E E L L L L T L E E E L L L L L L L L Y L L L ",
"L L L L L L L L L L L T E L L Y L L L L L L L $ $ q t p y q & $ o o $ = $ = - X o L L L L L L L L E E Y L L L L L L L L L L L L ",
"L L L L L L L L L L L E E Y L L L L L L U L L $ $ q t p i q & $   o 8 $   - 3 X o U L L L L L L L L L L L L L L L L L L L L L L ",
"L L L L L L L L L L L L E L L L L L L L L L L $ $ q y p i q * $ X o 8 7 * $ X o o o 3 E L L L L L L L L L L E E T L L L L L L L ",
"L L L L L L L L L L L L L L L L L L U L L L L $ $ q t p y q * $ X o * * 8 o   = =   ; E L L L L L L L L L L E E E L L L L L L L ",
"L L L L L L L L L L L L L L L L L L L L L U L $ $ q q q q q * $ X           X S Z   ; E L L L L L L L L L L L L L L L L L L L L ",
"L L L L L L L L L L L L L L L L L L L L L S S $ # 0 0 8 8 8 $ # X X o o o X   B Z $ k E L L L L L L L L L L L L L L L L L L L L ",
"L L L L E E L L L L L L L L L L L L L L U C x X X * * * * * o X   o 3 3 6 o   k M E E L L Y Y L L L L L L L L L L L L L U U L L ",
"L L L L E E L L L L L L L E E L L L L L U Z x o   # # $ # # o X X X $ $ $ X X k M L L L L T L L L L L L L L L L L L L L L L U L ",
"L L L L Y T L L L L L L L E E L Y Y L Y E Z x o             X X               k M L L L L L L L L L L L L L L L L L L L L L L L ",
"L L L L Y L L L L L L L Y T U L L L L Y E Z x o X - - - $   X o : k k k k k k x M L L L L L E E L L L L L L L L L L L L L L L L ",
"L L L L L L L L L L L L L L L L L Y Y Y E Z x o X 3 ; 3 $   X o x M M M M M M x M L L L L L E E L L L L L L L L L L L L L L L L ",
"L L L L L L L L L L L L L L L L L L Y Y E Y L o X $ $ $ o     X k x m m x x x L L L L L L L L Y L L L L L L L L L L L L L L L L ",
"L L L L L L L L L L L L L L L L L L L L E E L o   o o o o     X k x m x x M M L L L L L L L L L L L L L T L L L L L T L L L L L ",
"L L L L L L L L L L L L L L L L L L L L L L L X                 k x m x x S L L L L L L L L L L L L L E E L L U L T E E L L L L ",
"L L L L L L L L L L L L L L L L L L L L L L L ; ; ; ; ; ; ; ; ; M C C C C S L L L L L L L L L L L L L E E L L L L U E E L L L L ",
"L L L L L L L L L L L L L L L L L L L L L L L E E E E E E E E E U U U U U L L L L L L L L L L L L L L L L L L L L L L L L L L L ",
"L L L L L L L L L L L L L L L L L L L L Y L L L L L L L L L L L L L L L L L L L L L L L L L L L L L L L L L L L L L L L L L L L ",
"L L L L L L L L L L L L L L L L L L L L L L L L T L L L L L L L L L L L L L L L L L L L L L L L L L T L L L L L T L L L U L L L ",
"L L L L L L L L E E L L Y L L L L L L L L L L L T L Y L L L L L L L E E L L L L L L L L L L L L L L L L L L L L L T L L T L L L ",
"L L L L Y L L T E E L L Y L L L L L L L L L L L Y Y E Y L L L L L E E E L L L U L T T L L L L L Y L L L L L L L T T L U T L U U "
};
