/* XPM */
static const char *walking_up_2[] = {
/* columns rows colors chars-per-pixel */
"64 64 105 2 ",
"   c #080704",
".  c #0B0A05",
"X  c #14140C",
"o  c #18170D",
"O  c #1B190E",
"+  c #161712",
"@  c #171813",
"#  c #1B1C14",
"$  c #1D1E19",
"%  c #211F0F",
"&  c #211E14",
"*  c #2E1E17",
"=  c #201E18",
"-  c #281E18",
";  c #301D16",
":  c #1F2115",
">  c #1F201A",
",  c #25220F",
"<  c #232415",
"1  c #292615",
"2  c #262917",
"3  c #2B2B16",
"4  c #23241B",
"5  c #2B241C",
"6  c #272919",
"7  c #2B2D19",
"8  c #312D16",
"9  c #342119",
"0  c #312E19",
"q  c #2E321A",
"w  c #383417",
"e  c #33341B",
"r  c #35361D",
"t  c #383318",
"y  c #383319",
"u  c #383418",
"i  c #3B361B",
"p  c #3C361B",
"a  c #3B371C",
"s  c #3C371C",
"d  c #34391B",
"f  c #33381C",
"g  c #353A1E",
"h  c #373C1C",
"j  c #3B381B",
"k  c #3C381B",
"l  c #3B381C",
"z  c #3C381C",
"x  c #383C1E",
"c  c #252721",
"v  c #2B2520",
"b  c #2D2E20",
"n  c #3A2A21",
"m  c #363A20",
"M  c #3B3D20",
"N  c #3B3E20",
"B  c #45221A",
"V  c #49261D",
"C  c #5A2017",
"Z  c #5A2118",
"A  c #403B1F",
"S  c #51321F",
"D  c #62271A",
"F  c #6B2B1F",
"G  c #423B2F",
"H  c #6E2D21",
"J  c #17512A",
"K  c #1A522C",
"L  c #274827",
"P  c #3B4020",
"I  c #3D4021",
"U  c #3F4224",
"Y  c #20552F",
"T  c #3C5333",
"R  c #404423",
"E  c #404324",
"W  c #414524",
"Q  c #434726",
"!  c #444726",
"~  c #444827",
"^  c #454927",
"/  c #474335",
"(  c #494336",
")  c #4C4738",
"_  c #4D4839",
"`  c #475939",
"'  c #6F4231",
"]  c #754534",
"[  c #7F4B3A",
"{  c #536F4B",
"}  c #55744F",
"|  c #58724D",
" . c #627754",
".. c #647A56",
"X. c #824C3B",
"o. c #928264",
"O. c #939471",
"+. c #A0896D",
"@. c #AA8E72",
"#. c #AD9174",
"$. c #A99D7C",
"%. c #B4A484",
"&. c #B9A686",
"*. c #BBA886",
"=. c #BCA988",
/* pixels */
"s i i i a k k z i z z z s p z z i a i z z z z z z z z z z i s z a z i i i i p i i i z z s z i i i p i j z z z k i i i i a i s s ",
"i i i i i i i i j z a i z z z z z z i i z z z i a a s z z a a z z z i i i s z i i i i i i z k i i a i i l i a i l z z i i i i p ",
"p i i s s z z i i z i i z z z z z j i i i z i i i a z i z z s z z z s i s z z i i i i i i i z a a i i z z i z z i p z z p i i a ",
"s z z i i z z s i k i p z a i i z z z l i z i s i z z l i r r r i r y y a z i i i s z z z i i a i i i z z j z z p p i z p z p z ",
"a a z i i i z z i s z z i i i i s z z z z z z z i i z a 7 6 7 7 7 7 7 3 e i i a i i z a z i k z i i z s j z z l z i i i z z i p ",
"i i j z k i z z z z z z z p i i z i i z z z z z k z i 7 e g U E E U I g q 7 y i i i i i z z z z z s z i i z z i z i i i z z z i ",
"i z z z l i i i i a i s z a i z z i i z z s i i z a e 7 g I Q ~ ~ ~ Q I e 7 e y i z z z z z z z z s z i i z s i z k z z z z p i ",
"i p z i i i i i i i y i i i i i z i i z z z i i a 7 q g R ~ ~ ~ ~ ~ ~ ~ I g 7 6 i i z z z i i i a i i i i i s z z i z z i i s s ",
"z z i i i i i i a i i i i i i i i s s z i i z i i 7 7 g Q ~ ~ ~ ~ ~ ~ ~ I g 7 6 s z z i z z i i z z i i i i p z z l z z i i z z ",
"l z i i i i i i s z i z z k i i i i z z i i z i i 7 7 g I Q ~ ~ ~ ~ Q R N g 7 7 z z z i z z p i z z z i i z s i l i i z k p i i ",
"i i i s z i i i i i i l z z s z z i i z z z z i i 3 7 g g g Q ~ ~ ~ Q h g g 7 6 l z i j z z p i i i z z l z i i i i i z z z i i ",
"s i i i z p i i i i j i i z z z z i i z z z z i i 3 7 g d g N I P P x d f f 7 6 i i i i p i i i p z p i z z z i i p z s a z s z ",
"s z z i i p i i i i i i z z z z a i i i s z z z i 7 7 f f f f e e e e e f f 6 3 i i i i z i l z p z i j z p i l i i z a i p i z ",
"z j z a z i i a z i i i i i i s z s z i i z z z i < < 7 f f f f f f f e q 7 < 1 i i i z z i z z z i i j z j i z z i z z z z i i ",
"z i p s i i i a i i i i y w i z z i s i i y i z i 1 < 2 7 q q q q q q q 7 2 1 1 i i z z z i i p s i z z z z z z z z i a z z i i ",
"i i i p z z z z p z z i i i i z z p a a i y i p k i 3 # < 2 2 2 2 2 2 1 < # 0 i p i s i z z k i i i i i i i l i i z a i z z z i ",
"i i i i i l z z i i p z z i i i i k i i i i i i i i y 3 < : : < < < : : 1 7 i i i i z z z i i z z i i i i p i i j a l i p z i i ",
"i i z i i i z z i i i z z i i z i i i i i i i i i i i i 1 # # # # # # # 1 a i i y i k z z i j z z i i z z z z z p s l a z z i i ",
"i i s z i i k z a a a p p a z z i i s i i a z i i < # # 1 2 q q q q 7 2 < # # < y i i i i j z z a i i z s z l l z z p s s a i i ",
"z l z l i i z k l z i i i i i i i l a i z z z i y # # # 4 2 q e e q q 2 : $ # # i a i i i z z i i i i i i z z z z z z s i i j i ",
"z z z z i a z i i z i i i i w i a z z i p p i 0 2 # $ 4 # # 2 2 6 2 2 # $ 4 $ : 6 y a i z z i i i p s i z z z z z i z z i i i i ",
"z z z s i i z i i z s i i i w i z z z i i i 7 r m : $ c 4 > : : : : : > 4 4 $ < g e 0 i z a y i i s z z i y i i i i z z i z z i ",
"z z i i s z z i s z z z z i z z l z z a a y 6 N Q < = 5 5 5 = & & & & 5 v 5 = 2 Q e 2 r z i i p p i z z i i i i p i i i j z z k ",
"z z s z z s s z z i i z z z z z l l z a 7 q g R Q 4 ; Z Z Z C C Z C Z Z Z Z * 2 Q x f 3 7 i i z z i i z z k i i i i i a z z z z ",
"z z z z z a z z z i i p z z i i z z l a 7 q I I N : n [ X.X.X.' S ] X.X.X.[ n < I P g 2 6 i i a s s z z z p i i z i z a i i z z ",
"z z z z z z z z z z a a a z a i z z z a 7 e ~ N q # ) %.&.*.$.{ J  .%.=.&.%.( : e I Q 7 3 i l z i l z i i i i p z i s k i z z i ",
"z z i z i a z z p z z i i i i i i i y 7 f x ~ g 7 # _ &.=.%.| K J Y ..&.=.&.( # q g N f q 7 i z k j i i i i l i i i s s i i i i ",
"z z i i i i i i i p s a i i i i i z 0 6 g I Q e 2 # _ =.=.&.O.} J ..O.=.=.&./ # 3 f g g f 2 e l i i s s s a z i i s z z z i i a ",
"z i i i i i j z s i p z i i z z z z 7 7 U I g 7 < # ( #.#.#.o.T L ` +.#.#.@.G @ < 7 f g f 2 e s i i z s a z i i l z i i z z z i ",
"z s i z i s z z z k z z i i z z z z 7 6 Q R g 2 : # 9 H H H F D D D H H H H 9 # : 2 q f q 1 7 z z a i i i z z z z s z z z z z i ",
"k s i i z z z i z z z z l i i z p i 7 2 E R g < # $ 5 B V V V V V V V V B B - # # < 7 f 7 : 3 z z a z z j z z z p i l i i s i i ",
"z z i i i z i i i z z i k i i i i i 7 6 g g e < # # $ > 4 4 4 c c c c c 4 $ # # # < 7 f 7 : 7 z z z z z z i p k i i i i p z s i ",
"i i i i i i i a i s a z z s i i i i 7 2 e f q : @ @ # $ # # # # # # # # # $ # + @ < 7 q 7 < e z z z i z p i i s i i z z z z z i ",
"i i i i i i i i z z i i z s i i i z 0 2 e e 2 # @ @ # $ 4 4 4 4 4 4 4 4 > $ # + + # & < 1 y z z z l i a s a i i s z z k z z z z ",
"i i z i i z z i s z p i i a z a z z 7 1 e 7 < # @ # # $ 4 c c c c c c c 4 $ # @ @ # & # 1 a z z l i i z z z p i i z z a i i i z ",
"z k z z s z i z p p s a a i s z s i 1 # < < # # # # # # # # # # # # # # # # @ + @ < 0 & 1 i i z z z i s s z z z z z z z s i i i ",
"z z i i s i y z a z z i s i i i i y 1 # 1 < # # : < 1 1 1 1 < < < < 1 1 < < : : # < 3 1 3 i i l l z z a z z k p z s i z s i i i ",
"p z z p s i i i i s z i z z z i y p 1 & 1 < # : 2 I Q Q Q Q I g Q Q Q Q Q Q e 7 : # & y z i p s a z z i s a i i z z a s i p z z ",
"i z z z a z z i i i z z i z z p i s 1 & 1 < # : 2 x I ~ ~ ~ Q g ~ ~ ~ ~ ~ ~ g q : 3 y i a z k s z z z i s s i p z z s p s z z z ",
"i i z z i i a i i s z z p i j z i i 1 # < < < < 1 d x Q Q Q I g Q Q Q Q Q R g f : 7 z i i i i j z z z i p i p z a i i z a a z z ",
"i i z j i i i i i i i i z s i z s s 1 @ # < 8 < : f g f e e e f e g g g g g g f : 7 z i p k i z p p i i k z z z a i z i i i z z ",
"z z z p i p i i i i i i z z i i s z 6 $ # < 8 < : q f e f q 7 7 2 3 q d g g f q : 7 z i z z z z i i z l i z z z z z a i i i z z ",
"z i p j i i i s z z z z z z z z a i 7 4 $ < 8 < : 3 q q q q 2 < # < 3 d g g f 7 : 7 z z z z i s i z z z l i i i s i i z z i i z ",
"i i z z z i i i s a z k i s z z y < 4 4 7 8 3 < : 2 2 3 3 2 2 < # 3 f I R I g q < 7 z z z p i i z z z i a i a z a i i s z z z z ",
"z z z a z s p i s i i i i i z z y # $ 4 0 e 3 < < < 2 3 3 3 2 < # 3 g Q ! Q x f < 7 z k i i z z z i p i z z z i i z z s i z z z ",
"z z s i z a s i i i i i i i i i 8 # @ # 8 8 3 < < < 2 f f f 3 < # 3 g Q Q Q x f < 7 z z i j z z i i z z z i i i i z z z i z z z ",
"z z z z z i i i i a s p z z p k y # < 3 8 3 1 , < < 2 q 7 7 7 < o 2 f x I I g e 0 y i p i i i z z i i z z s i i z z z z s z z z ",
"z z z s z z i i i i i i i p i z y # 7 y 8 3 1 1 1 < < 3 3 3 7 < o 1 q f f f q 7 i i i i i z z z z i i i z z z z z z i i p z k z ",
"z z i i i z i i i i z a i z z z y # 3 y 8 3 1 1 1 < 1 7 7 6 2 < o < 1 1 1 1 < 2 i k s i i z z l i i s a i i i z z p i i i i i s ",
"i i i p z z s p z i z z i z z z i 1 3 8 0 3 3 1 1 1 1 2 2 1 : # o < < 2 2 < : 1 a z p i i z z i i i i i i i i i s a i z z k i i ",
"i i a s z z z z z i i i i i z z i i a y 0 0 8 3 1 1 & # # # # # o # < 7 b 7 # < z j s z i i i i i i i i z i i i i i a z z s s i ",
"s z a i i z z z z z l i z i z p i i s a i y 8 3 3 < # # $ > # # o # : 2 4 2 # < i s z z a i i i z z z z i p a i z i i i i i s i ",
"i i i i i i i z a i i i a i z z a i i i i i w 8 3 # # # 4 6 # o X # # # # # # # y p s z z z p k i i z z z i i i z z i i p s i i ",
"i i i a i i i i i i i i i i z s s i s z z s i 8 3 # # 4 4 4 # o . + # # : # # # y z z z i z z i i i i i z l z p z z i z A z i i ",
"i i i i i i i z j s i i i i i i z z k z z i i y 3 # # 4 4 4 # X   X # # 4 < # # y z z z i i z i i i i j p z z z z z i z z z z k ",
"i i i a s i i z z i i i i i j i i i i i p i i i 8 < # # # # # X   X # # 4 = # # y z z z z j z z z z z z k z k z z z z z z k j i ",
"a i i a z i y a i i i k i i z z i i i i i z s i y 3 < # o o X X   X # # # # + & i z p z z z z A A z z z z z z z z z z z k k z k ",
"a z z a s a i a i i i z i i z z l a p i i z a i i y 3 < O o o X X + + @ # # o 3 z z p s z z z A A z z z z z z z z z z z j k z k ",
"i a i i i s i z s i s z s i i j z z z i i i z i i i i w 3 3 1 1 % O o o o # 3 s z z z z k z z z s z z z z z z z i z z z z k z z ",
"a i i i a a a a i i i z z a i i z z z i i i z i i i s z i i y y 8 3 1 1 3 8 i z z p i z i z z z z i z z z l z z i z z z z z A G ",
"i s p i z a i z z i s z i i a i i k z a a i a i i i z s i l a i i i i i i i z z z p z z k z A z z z z z z z z z z s i z z z A G ",
"p z i i z z i i i i a i i y i i i j i i l i i z i z z i z z z s s i i z a i s z z z z G z z z k i z A z z z z z z z z A z z A z ",
"i s s i i i z i s i i i a i i i k z i i i i k z i a z i s z z z a i l z a i s z z z z z z z k k k A A z z z l z z z z z N z z z ",
"i i s i y w i i z s s a l z z j k k z i i i z z i s i i i i j z z s a i i p i z z z z z z z z z z z z z z z i z z A z z z z z z "
};
