/* XPM */
static const char *walking_up_1[] = {
/* columns rows colors chars-per-pixel */
"64 64 104 2 ",
"   c #15140B",
".  c #18170B",
"X  c #1C1A0D",
"o  c #161712",
"O  c #171812",
"+  c #1B1C14",
"@  c #1E1E19",
"#  c #211E0F",
"$  c #211D13",
"%  c #251E18",
"&  c #351E16",
"*  c #1F2014",
"=  c #1F201A",
"-  c #222414",
";  c #292614",
":  c #262916",
">  c #2A2C16",
",  c #22231C",
"<  c #2B251C",
"1  c #272918",
"2  c #2C2D19",
"3  c #3C2017",
"4  c #312D16",
"5  c #312E19",
"6  c #2D3117",
"7  c #2E3219",
"8  c #343117",
"9  c #383417",
"0  c #333319",
"q  c #303519",
"w  c #30351A",
"e  c #37341B",
"r  c #35331C",
"t  c #37341C",
"y  c #383318",
"u  c #383319",
"i  c #3B361B",
"p  c #3C361B",
"a  c #3B371C",
"s  c #3C371C",
"d  c #33381B",
"f  c #34381B",
"g  c #363B1D",
"h  c #373C1C",
"j  c #3B381B",
"k  c #3C381B",
"l  c #3B381C",
"z  c #3C381C",
"x  c #393D1E",
"c  c #242520",
"v  c #363A20",
"b  c #3B3E20",
"n  c #451E14",
"m  c #4C1F14",
"M  c #5B1F13",
"N  c #452116",
"B  c #472319",
"V  c #49241A",
"C  c #5D2014",
"Z  c #512619",
"A  c #5A281A",
"S  c #403B1F",
"D  c #622516",
"F  c #662818",
"G  c #6E2C1C",
"H  c #573422",
"J  c #5F3926",
"K  c #5E3C2D",
"L  c #3B401F",
"P  c #134B2F",
"I  c #28452C",
"U  c #2C482E",
"Y  c #3B4020",
"T  c #3E4222",
"R  c #3F4522",
"E  c #245136",
"W  c #225538",
"Q  c #2B583A",
"!  c #325B3E",
"~  c #414623",
"^  c #424724",
"/  c #434725",
"(  c #424824",
")  c #694231",
"_  c #7F4C38",
"`  c #395F42",
"'  c #63664A",
"]  c #796852",
"[  c #767155",
"{  c #824E39",
"}  c #88755D",
"|  c #837961",
" . c #768465",
".. c #7F8969",
"X. c #818969",
"o. c #93876C",
"O. c #94896E",
"+. c #949473",
"@. c #9B9A78",
"#. c #AA9173",
"$. c #A5A07E",
"%. c #B7A887",
"&. c #B8A887",
"*. c #BAAB8A",
/* pixels */
"s i i i a k k z i z z z s p z z i a i z z z z z z z z z z i a z i z i i i i p i i i z z s z i i i p i j z z z k i i i i a i s s ",
"i i i i i i i i j z a i z z z z z z i i z z z i a a s z z a a z z z i i i a z i i i i i i z k i i a i i l i a i l z z i i i i p ",
"p i i s s z z i i z i i z z z z z j i i i z i i i a z k z z s z z z s i a z z i i i i i i i z a a i i z z i z z i p z z p i i a ",
"s z z i i z z s i k i p z a i i z z z l i z i s i z z a u u u r u u 0 r z z i i i s z z z i i a i i i z z j z z p p i z p z p z ",
"a a z i i i z z i s z z i i i i s z z z z z z z i i a u 1 1 1 1 1 1 1 > a i a a i i z a z i k z i i z s j z z l z i i i z z i p ",
"i i j z k i z z z z z z z p i i z i i z z z z z z s 2 > w x T T T T g w 1 2 i i i i i i z z z z z s z i i z z i z i i i z z z i ",
"i z z z l i i i i a i s z a i z z i i z z s i i a t 2 7 h T / / / ( Y g > > u u i z z z z z z z z s z i i z s i z k z z z z p i ",
"i p z i i i i i i e u i i i i i z i i z z z i i 5 : 7 g ~ ~ / / / / ~ R d > : u i i z z z i i i a i i i i i s z z i z z i i s s ",
"z z i i i i i i a i i i i i i i i s s z i i z i 2 - 7 h / / / / / / / ~ f > - u z z z i z z i i z z i i i i p z z l z z i i z z ",
"l z i i i i i i s z i z z p i i i i z z i p z i 2 - 7 g T / / / / / ~ L d > - u z z z i z z p i z z z i i z s i l i i z k p i i ",
"i i i s z i i i i i i l z z s z z i i z z z z i 2 - 7 w f T / / / / x w w 2 : 0 z z i j z z p i i i z z l z i i i i i z z z i i ",
"s i i i z p i i i i j i i z z z z i i z z z z i 2 : 7 w w h Y Y Y L f w w > : 0 i i i i p i i i p z p i z z z i i p z s a z s z ",
"s z z i i p i i i i i i z z z z a i i i z z z z 5 1 7 w w w w w w 7 7 w w > - u i i i i z i l z p z i j z p i l i i z a i p i z ",
"z j z a z i i a z i i i i i i s z s z i i z z z 2 + 1 > w w w w 7 7 7 7 > - + u p i i z z i z z z i i j z j i z z i z z z z i i ",
"z i p s i i i a i i i i u 9 i z z i s i i 9 i k 5 - - 1 6 6 6 6 6 6 7 > - - - u p i z z z i i p s i z z z z z z z z i a z z i i ",
"i i i p z z z z p z z i i i i z z p a a i u i k i u - + 1 1 1 1 1 1 1 - + : i i p i s i z z k i i i i i i i l i i z a i z z z i ",
"i i i i i l z z i i p z z i i i i k i i i i i i i i 5 ; + * * * * * + * > 5 s i i i z z z i i z z i i i i p i i j a l i p z i i ",
"i i z i i i z z i i i z z i i z i i i i e i i i i i i 5 + + + + + + + + u a i i i i k z z i j z z i i z z z z z p s l a z z i i ",
"i i s z i i k z a a a p p a z z i i s i i a z i 2 + + + : > 7 7 7 7 1 - + + + u i i i i i j z z a i i z s z l l z z p s s a i i ",
"z l z a i i z k l z i i i i i i i l a i z z a e 1 o + + - > 7 7 7 7 1 - + + + 2 e l i i i z z i i i i i i z z z z z z s i i j i ",
"z z z z i a z i i z i i i i 9 i a z z i p p u 1 * + , = o - 1 1 1 1 + + , @ + - > i i i s z i i i p s i z z z z z i z z i i i i ",
"z z z s i i z i i z s i i i 9 i z z z i i 5 0 g 1 + , , @ * * + + + @ @ , = + 7 g 0 0 i z a u i i s z z i u i i i i z z i z z i ",
"z z i i s z z i s z z z z i z z l z z a i > w / 7 + < < < % $ $ $ $ , c < , + g ~ 7 > a z i u p p i z z i i i i p i i i j z z k ",
"z z s z z s s z z i i z z z z z l l z 0 > w b / 7 + m C C M M C M M M M M n + v ~ f 7 > 0 i i z z i i z z k i i i i i a z z z z ",
"z z z z z a z z z i i p z z i i z l z 7 1 h L T > + ) { { { _ H J { { { { K + d L h w 1 2 i i i s s z z z p i i z i z a i i z z ",
"z z z z z z z z z z a a a z a i k z z 0 1 T T f : , o.*.%.%.X.E ! +.&.&.*.| + 7 d T T > 2 i i z i l z i i i i p z i s k i z z i ",
"z z i z i a z z p z z i i i i i i i 0 7 7 R T 7 - , o.*.*.X.Q P P ` +.*.*.| + > 7 Y R > 0 i i z k j i i i i l i i i s s i i i i ",
"z z i i i i i i i p s a i i i i i u 1 7 h R x > - , O.*.*.@. .W ! ..$.*.*.| + 1 7 x T 7 0 i i a i i s s s a z i i s z z z i i a ",
"z i i i i i j z s i p z i i z z z a : d T h 7 1 * @ } #.#.#.' I U [ #.#.#.] + - : 7 f Y d > e a i i z s a z i i l z i i z z z i ",
"z s i z i s z z z p z z a i z z z e - t ~ g 7 - + + A G G G D D D F G G G Z + - : 7 f T g 1 0 s z a i i i z z z z s z z z z z i ",
"k s i i z z z i z z z z a i i s i u : g ~ g > + + @ 3 N B V V V V V V B N & + - 1 7 f R g 1 9 z z a z z j z z z p i l i i s i i ",
"z z i i i z i i i z s i j i i i i 0 - d T f > O + + @ @ , , , , , , , , = + O + - 7 d L w 1 u z z z z z z i p k i i i i p z s i ",
"i i i i i i i a i s a z z s i i i 8 - > f d > O o O + + + + + + + + + + @ + o o O 1 6 w > - e z z z i z p i i s i i z z z z z i ",
"i i i i i i i i s z i i z s i i i u - > w > - O o O @ @ = = = = = = = , , + o + = 1 > w > - a z z l i a s a i i s z z k z z z z ",
"i i z i i z z i s z p i i a z s z u - > 7 : * O O O @ , , , , , c , , , , + o , , 1 > w 7 : a z l i i z z z p i i z z a i i i z ",
"z k z z s z i z p p s a a i s z s 4 + - < < - + O O + + + + + + + + + + + O o + = + + 1 1 - u z z z i s s z z z z z z z s i i i ",
"z z i i s i u z a z z i s i i i i 4 $ ; < < - + + - - - - - - - - - - - - * + + + + + - - - u l l z z a z z k p z s i z s i i i ",
"p z z p s i i i i s z i z z z i i u $ < 5 $ + * > g L T T T R T T T R R T g - + O = , + + $ u a a z z i s a i i z z a s i p z z ",
"i z z z a z z i i i z z i z z p i i ; $ - $ + * > g g x R ~ ( ( ( ( ( ~ L g > + O + @ @ $ $ u s z z z i s s i p z z s p s z z z ",
"i i z z i i a i i s z z p i j z i i 4 X X X + - > f w f T T R R R R R R f w 7 * + + + = $ $ 0 j z z z i p i p z a i i z a a z z ",
"i i z j i i i i i i i i z s i z k p i ; X   X - > d w w w w w 7 w d d d w w w - - $ + + + $ u z p p i i k z z z a i z i i i z z ",
"z z z p i p i i i i i i z z i i a z z i u 2 ; - > d g f w 6 > 1 1 > 7 w w w w - - - + + + + u z i i z l i z z z z z a i i i z z ",
"z i p j i i i s z z z z z z z z a i i i i i 5 - > d T L w > 1 + + - 6 w w w w : - $ + @ + + 5 s i z z z l i i i s i i z z i i z ",
"i i z z z i i i s a z k i s z z i i i i i i 0 - > f T R T g 7 + + - 6 w w 6 1 - + + + + @ , u i z z z i a i a z a i i s z z z z ",
"z z z a z s p i s i i i i i z z z p i i i z u - > w x T R h 7 * + - > 7 w 6 1 - + + + + @ , 5 i j i p i z z z i i z z s i z z z ",
"z z s i z a s i i i i i i i i i i i i p z z 0 - 1 6 w w w w 7 * + - 1 > > > > - + X $ + @ , + : i i z z z i i i i z z z i z z z ",
"z z z z z i i i i a s p z z p p i i i i z z u > > > d f w 6 > * * - > 6 6 6 > - X X X + + @ + - z i i z z s i i z z z z s z z z ",
"z z z s z z i i i i i i i p i z a i i s z l i i 2 - b R f 6 1 * * 1 6 w w 6 - X . . X X + + o - l i i i z z z z z z i i p z k z ",
"z z i i i z i i i i z a i z z z z z z z z i i k 2 - b ( R g 7 * * 1 > > > 1 - X . . X X X X + - i i p a i i i z z p i i i i i s ",
"i i i p z z s p z i z z i z z z i z a i z z i p 2 - b ( ( x w - * 1 1 : : - - X   . . .     + - 9 i i i i i i i s a i z z k i i ",
"i i a s z z z z z i i i i i z z p i z i i s z z 2 - b ( ( x w - + + O + + +       . . .     + - u i i i z i i i i i a z z s s i ",
"s z a i i z z z z z l i z i z p i i s a i i i z 2 - g T L g 7 - + O + + +         . . .       + u z z s i i a i z i i i i i s i ",
"i i i i i i i z a i i i a i z z a i i i i i i i 2 - 7 w 7 7 7 - + + = , + o       . X X X X . - i i z z s i i i z z i i p s i i ",
"i i i a i i i i i i i i i i z s s i z z z s i i e 5 - * * * *     + + + + X     X # # - - - ; 4 i i i i z l z p z z i z S z i i ",
"i i i i i i i z j s i i i i i i z z k z z a i i a u + + + + +     + + + + + . X # - ; 2 2 4 i i i i i j p z z z z z i z z z z k ",
"i i i a s i i z z i i i i i j i i i i i p i i i i 4 + + < , +           . X X - - > 4 u i i z z z z z z k z k z z z z z z z j i ",
"a i i a z i u a i i i k i i z z i i i i i z s p u ; + = < , +         . X X - ; 2 u u i z z z S S z z z z z z z z z z z z z z z ",
"a z z a s a i a i i i z i i z z l a p i i z a i 1 + , , 1 * +     X X X - ; 2 4 u a i p z z z S S z z z z z z z z z z z k z z z ",
"i a i i i s i z s i s z s i i j z z z i i i z i 1 + + + + + + X X # - ; 2 4 9 i z z z z z z z z s z z z z z z z i z z z z z z z ",
"a i i i a a a a i i i z z a i i z z z i i i z i > O o o o O + + - ; 2 5 u u i z z p i z i z z z z i z z z l z z i z z z z z S S ",
"i s p i z a i z z i s z i i a i i k z a a i a i u > $ X X X - ; 2 4 u i i i s z z i z z k z S z z z z z z z z z z s i z z z S S ",
"p z i i z z i i i i a i i u i i i k i i l i i z k a u 4 4 5 u u i i i z a i s z z z z S z z z z i z S z z z z z z z z S z z S z ",
"i s s i i i z i s i i i a i i i k z i i i i k z i a z i a s z z s i a z i i s z z z z z z z k z k S S z z z l z z z z z b z z z ",
"i i s i u 9 i i z s s a l z z j k k z i i i z z i z i i i i j z z s i i i p i z z z z z z z z z z z z z z z i z z S z z z z z z "
};
