/* XPM */
static const char *floor_corner_bottom_right[] = {
/* columns rows colors chars-per-pixel */
"64 64 32 1 ",
"  c #201D16",
". c #211E17",
"X c #221F18",
"o c #232018",
"O c #252219",
"+ c #26231C",
"@ c #27241C",
"# c #2A261F",
"$ c #302D1A",
"% c #332E1A",
"& c #332F1B",
"* c #373317",
"= c #373417",
"- c #33301B",
"; c #373218",
": c #37341A",
"> c #34301C",
", c #383318",
"< c #3B361B",
"1 c #3C371B",
"2 c #3B361C",
"3 c #3D371C",
"4 c #3B381B",
"5 c #3C381B",
"6 c #3B381C",
"7 c #3E381D",
"8 c #2B2720",
"9 c #2E2922",
"0 c #302B23",
"q c #302C24",
"w c #403B1F",
"e c #413C1F",
/* pixels */
"3<<<4<177<<<<<737<<<<<<<67<57777777<<2777776<54<<<%X.O#######o..",
"<<<77<6<67<2<71<<<<77<<777<77<<<<7<<<7777<26<<32<<%XXO#######X..",
"<7331<7677<<2<<77<<<77777775<76<<3<647<<7<<<<73<77%XXO#######X..",
"<73<<6674<7<77<26<<2<77<<<1<27<4777776<<<77<77<<63%X.+#######o..",
"<766<7<7<<73777742<<<3227<<71<77<77<<7<<7776<<<773%X.+#######o..",
"<<27<772<<<2<<<775<<71,<77<<<<7<<77<<7<<<<;<<<<<77%X.+##99###o..",
"7<<7<771<<<7<<74473<644<<77<<37<7<<73<<<21<22<<<<7%..+##99###o..",
"<772<<<77377<176<77<<777277<<47<77<7<<<177<6<<<2<<%X.O##99###o..",
"17237<<77457<<2<<<<<754777<<<76<777<<777<<4<<<77<<%..O#######X..",
"<1<71<4<7<<756<7<<<<76<<<<<<77<<77<<<2377<<<<<1<17%..O#######X..",
"<772777676<27<<77<1<<2<33<1<7<<74<<3777<<<<<7<<334-X.O#######X..",
"373<7677<<<<<<773<1<<<7377777<<7<*<2<77<<<71<547<<%X.O#######X..",
"<71<2<<7<<<<7<<77<<<7774777<<<<<<<<<<<<<77<<77<<<<%..O#######X..",
"<227716777<277<7<<,<7772<7<<<<<<<<<2<<7223<<55<<7<%X.O#######X..",
"<<<777772<<<<77<<7<<<<7722<<<6<<17<<2<<<<<<747<277-X.O#######X..",
"<<<76677<<7<<<7<<3<<<<77<<<16617<<<<73<=<<<5<6<277-X.O#######o..",
"77<<<<<<<77<<*<7<6<<7<22<72<<<44<<<776<<<377<7<<27%..O#######o..",
"777<<<<<57<<7<<6<477<<<377<37<<<<<<7667777<<737727%X.O#######o..",
"72<7<7<<73733<<5<<<<<<<17<<75<77<<<667<67<<<772777%..O#######o..",
"22<7<1<<<<<<77<<7622<77<7<77<<777<<77<<6<<77772777;..O#######X..",
"<<673<<7222<<<<<7<<<17<<751<777<73:<<<<<<<3<<<<<<7>X.O#######X..",
"277<77<72<6<2<<15<<<<<<7<<<4333<76<<777<<7<<74<<<<>X.O######9o..",
"23<7<777<<<77;*4<771<1677<<57<<<<<<<<57<27777737<7-XXO#####99O..",
"<7<<<<51<7677<<6<<73<<<<<<<<<<<<<7<<<<<<6<77<27<<7%X.O#####99O..",
"77777<<<<7<777<<3<<2<<7<<<<=<3<<<<7<<<<<772<<<<<<<%..O#######O..",
"7<777<<272<<77<<<<<<<<7<<<<<<77<777<77<2<<17<<<<<<%..O#######o..",
"<<37775772<672<<<6227<<376<<<7<<7771<772<<11177<77;..O#######o..",
"<<7<<7<772764<<2<77<7<<<3<7<1<<<<<77<<<<7<727<<<<7;X.O#######o..",
"77<<77<<3<772557<7<<<<<<7<<777<54<<37<17756<<<7377%..O#######o..",
"7233<27<<<777<<<<7<7<<64<<3<<<<7<<<3<<74<77<<2<27<%..O###99##X..",
"7<<<36775<<<757<<<<<2<<<<<7<<<<7,<<<77<<7<<<<<<<72%..O##999##X..",
"<<<<27<<<67<777547<<2<7<77<<77<5<<<<72<772<<1<<<77%X.O##898##X..",
"<373<<2<<<77<<<777<<277<<<<7<<775<<<<<7717731<<77<%XXO#######o..",
"77<77<<27<1<77<<77<<<<4<<<<742<277<<<<7<<<<<<<7337;XXO#######o..",
"772773<<771<7<<<<271<<<<<<;<73<<<77<<<<17<<<<<<737-.XO#######o..",
"571<77777<<777<<<<<<<3<<<<2<73<<<671<211<<<<<<6777-.XO#######o..",
"<<3<<73<<21<<77<<6<<<7<2<7777777<<727777<27<<<7<<7%X.O#######X..",
"<777<<<<<<<<<7<<127<67<<<<<77<2<57<<1<77<66777772<%X.O#######o..",
"3<<<<<<21767<<<772<3<<237<<72<<74<<2<<1<2227776<23%..O#######o..",
"<31<<7<<37<<<<7771<7<<77<175<<<<<<<<<27<<<<<7<<<<<%..O#######o..",
"377767777<<<<2<<7722<<7277<4<77<<67727<<<<<<<<<<<<%X.O####899O..",
"477777775773774777<3<<<<<<<772<2<<1<<<<<<<<27<<2<<%X.O####999O..",
"767777777777w7773777<22<1<3<17<<37<<<677<5<<2,<7<7%..O#####99O..",
"77677<7777777777777777<<<276<<<<27<<766<<7<<7<3<77%X.O#######o..",
"w7777<76777<77<77677<77<<<<<73<<7<<376<<77<<722<<<%X.O#######o..",
"e777<777777777777577<<72<<7<372<2<621<<<<72<7<77<3%X.O+######o..",
"7777777777e745777777<27<277767365<<<64<<<<<<<77127%X.O+######o..",
"2222622<227222222222<;<<22<<,,2<2<;,2<:22<<2:;;;2;%X.OO+++++OX..",
"OOOOOOOOOOOOOOOOOOOOOOOOOOOOOOOOOOOOOOOOOOOOOOOOOOO..XXoXXXXX...",
"XXXXXXXooooooXoXXXXXXXXXXXXoooXoXXXXXXXXXXooXXoXXXX..XXXXXXXX...",
"OOOOOOOOO++@@+OOOOOOOOO+@@OOOOOOOOOOOOOOOOOOOO++OOO++OOOOOOOOXX.",
"##########9909#########9999##################999##8999#######OX.",
"##########90q9#########9999############8#####899###999#######OX.",
"###########99########88899##########8888######8#####8########O..",
"#####################8##############8888#####################o..",
"#############################################################o..",
"##899###########++######################999##################o..",
"##999###########++######################999##################O..",
"##899###########++############98########999##################O..",
"#############################9998#######################99###o..",
"#############################9998#############8#########999##o..",
"OOOOOOOOOOOOOOoOOOOOOOOOOOOOOO++OOOOOOOOOOOOOOOOOOOOOOOOO++OOX..",
"..X.XXXXXXXX..X......XXXXXXXXXXXXX.XXXXXXXXXXXXX.X..XXXXXXXXX...",
"...XXXXXXXX.X.........XXXXXXXXXXXX...XXXXXXXXXXXXX..XXXXXXXXX..."
};
