/* XPM */
static const char *floor_corner_top_left[] = {
/* columns rows colors chars-per-pixel */
"64 64 32 1 ",
"  c #201E17",
". c #221F18",
"X c #232019",
"o c #25211A",
"O c #26231A",
"+ c #27231C",
"@ c #27241C",
"# c #29251E",
"$ c #2B271F",
"% c #332F1A",
"& c #373317",
"* c #373417",
"= c #383417",
"- c #33301A",
"; c #363219",
": c #373419",
"> c #34301C",
", c #38331B",
"< c #38351B",
"1 c #3C361B",
"2 c #3B371C",
"3 c #3C371C",
"4 c #3B381B",
"5 c #3C381B",
"6 c #3B381C",
"7 c #3C391C",
"8 c #2B2720",
"9 c #2E2922",
"0 c #302B23",
"q c #302C24",
"w c #403B1F",
"e c #413C1F",
/* pixels */
"   ................ ........  ..............       . .........  ",
"   ............ ............. ..............     .  ..........  ",
"   oo++ooooooooooooooooooooooooo++oooooooooooooooooooooooooooooo",
"  X##999#########9#############8999#############################",
"  o##899#######################8999#############################",
"  o##################999########99############@@###########999##",
"  o##################9098#8######8#898########@@###########909##",
"  X##################99998####################@@###########999##",
"  X#####################88#########8############################",
"  o################8####988########889##8#8#####################",
"  o########9####99######889######8###899898#####8#899###########",
" .o#######9998##999#####8###########899998########9q09##########",
" .o#######9998##999##################9999#########9q99##########",
" ..oooo+oo+@+ooo+@oooooooooooooooooooo@#+oooooooo+@#@++oo+oooooo",
"   .. ..X..  .......XXXXX....XXXXXXXX.X.X.X.X...XXXXXXXXXXXX....",
"   ....XXX.  ooooooooooooooooooooooooooooooooooooooooooooooooooo",
"  .o+#@@@oo .%<2;;;<2<<22<<<,,<2<<,,<<22<<,<22222222232222272222",
"  X#######o .%71577<<<<<<<57<<<553757773<73<77w7775<7e7777777777",
"  X#######o  %7177<5137<<<<536<3<573<7<1271<7757777777777772777w",
"  X#######o  %1<<2<71177<<771<<7<<17<<<<<77177777177<77777<7777w",
"  o#######o  %77<3<7<<71<7771<73<<<<777<<<7777737777777777<77757",
"  o99#####o  %7<71<3<<5<777<<<73<<71<751<23<7771777ww77777777557",
"  o999####o  %<<3<<73<<<<<1<<1<<<<777<<<<<<<3<777<77377777777755",
"  o999####o .%<<<<<<51<<<<71777<<773517777<<31771<3<<<<777775w77",
"  X#######o .%<<<<1711<<173<<<<<<<<<571177<<7<177711<573<175<53<",
"  X#######o..%72<77775<<15<<3<<771<371<7371<11777<<177713<<<<<17",
"  o#######o..%<<7777756<7715<<7553<77<<<<<77<771<<7<<<<<<<<<7771",
"  X#######o..%7<<71<<73<777737<<7777777<3171<<7<<772<17<<37<<3<<",
"  o#######o. ;77771<<1<<152<177<<137171<<13<1<<<<1777<<77777<175",
"  o#######o. ;77721<<1171<<<157<<<771,<<<<<<17311<<7<177<<777177",
"  X#######o..;73373<<<<<<7111<7731357<<<<5<<<<77<<77<1553<<77<77",
"  X#######o..%<77<<13771771<<<<5771<5<<<17761<7771<<775<<73<373<",
"  X##999##o .%77<<<11<4771371<<<7177<577<7<311755777<77<21771<<<",
"  .##999##o  %27<<<<<<571577<<<<7<11<715<<<31<11<757<<1577771<17",
"  X##998##o  %<76<2<<77157<<33<<7<<<15<<57<<7<75<<<77711172<3337",
"  X#######o .%7737<<<75771<77<<75<7771<71<<<<<7<755377<3<<773177",
"  X#######o .;7<11<737<7<<<<77<<<<1117<7<<<7<77<6<147727717<13<<",
"  X#######o .;77177111<<377<1777<17<<1775<17375<11377<37757773<<",
"  o#######o  %<<<11171<33<771777<77<<<<<17<<<<5<<<77<<772<175717",
"  o#######o. %<<<<<23277<<<<<711<<7<=1<<<7<<3<13<<777<7<<1177777",
"  o99#####o  %7<<73<7717<<<<<<7<<<<1<<32<<<<771<7<<7777115<<1171",
"  o998####o. -7<73777772<755<11<<<177<<7751<1771<&;77<<1777<713<",
"  o99#####o .><<<<57117<5777<<77<3775<<17<<<13<551<2<7137<77<772",
"  X#######o .>7<<<<113<<<<<1<:77<77733771<75<<17<<1<<3337<<777<<",
"  X#######o .;77737777<<6<<77<<577<<77<717713377<<7751<<<15<7<72",
"  o#######o  %777377<<177<777<<577<571<75<1<<<<<5<<31777<<717<37",
"  X#######o..;727777117777777<<<<1<73<777<1<775<7<<754755<1<<777",
"  X#######o .-7<<<7<773<<1777<<<55<<<37<2317<<7<7<&1<77<<<<<<<77",
"  X#######o .-772<7<5<<<*<371<11757751<<77<<<<7<17<<171537777<1<",
"  X#######o .-772<7571<<<<<61171<17<<<7377<<<<7<<77<<<<37777712<",
"  X#######o  %<72<57<<3737<<7<<1<11<1<7<7737<<<17<772<777617732<",
"  X#######o  %<1<477<<77<1<1<<<<<1<1177757771<<77<57<<<13<17617<",
"  X#######o .%1<5555571<<7713<&<7<<77777371<<113771<<<1<7747<373",
"  X#######o  ;537<<7<<<<<7773<<75<<715<3355<<1<77<573<777775377<",
"  .#######o  %71<1<<1<<7773<<3771577<<<<<<771<<<7<757<47<7<17<1<",
"  X#######o  %<<75<<15<1777<1777<57<<<777557<<<<131<75577<<73371",
"  X###99##o..%<<1<<<3<773<<<7377<75<<7727771<571771<77377<<<377<",
"  X##899##+  %7<<<<13<13<<<17<17<75<<77<1557177547<<71<<15717117",
"  o###99##+  %77<<<<<,<<<<7<<77<<7<13<77<<57<<5771<<31<<<75173<1",
"  o#######+..%37745<77771<7<<77777<17<17233<<<75777777<<7<7<7771",
"  o#######+..%37<<77177<<<7557775<73111<<77<2<<73577<735767<<371",
"  X#######+..%77<77<111711757<3<<77<57777777<<377<<2<<7777117371",
"  X#######+..%<<131<73<77775<<7<<<3771777<<77<<<<5723<77<7<77<<<",
"  X#######o..%<<<5517777771<<777777771771<<<1<17771<1<<77755<<<3"
};
