/* XPM */
static const char *wall_3[] = {
/* columns rows colors chars-per-pixel */
"64 64 140 2 ",
"   c #1F1F1D",
".  c #201F1E",
"X  c #22211F",
"o  c #252523",
"O  c #282725",
"+  c #2A2926",
"@  c #2C2C29",
"#  c #302F2B",
"$  c #33322D",
"%  c #363532",
"&  c #383732",
"*  c #3B3934",
"=  c #373738",
"-  c #373839",
";  c #3C3C3B",
":  c #403E39",
">  c #45423D",
",  c #48453F",
"<  c #3F3F40",
"1  c #3F4041",
"2  c #434343",
"3  c #494641",
"4  c #4D4A45",
"5  c #464648",
"6  c #4B4A49",
"7  c #504C47",
"8  c #524E49",
"9  c #56514C",
"0  c #55524C",
"q  c #56524C",
"w  c #56524D",
"e  c #56534D",
"r  c #57534D",
"t  c #57534E",
"y  c #55514C",
"u  c #55514B",
"i  c #58534D",
"p  c #58544E",
"a  c #59544E",
"s  c #58544F",
"d  c #59544F",
"f  c #5A554F",
"g  c #59554F",
"h  c #5A5650",
"j  c #5B5650",
"k  c #5B5751",
"l  c #5C5750",
"z  c #5C5752",
"x  c #5B5751",
"c  c #5C5852",
"v  c #5D5852",
"b  c #5D5853",
"n  c #5D5953",
"m  c #5E5953",
"M  c #5E5A53",
"N  c #5E5954",
"B  c #5F5A54",
"V  c #5F5A55",
"C  c #5E5952",
"Z  c #605A55",
"A  c #605B55",
"S  c #605B56",
"D  c #615C56",
"F  c #615D57",
"G  c #625D57",
"H  c #615C56",
"J  c #625D58",
"K  c #635D58",
"L  c #625E58",
"P  c #635E58",
"I  c #635E59",
"U  c #635F59",
"Y  c #645F59",
"T  c #655F59",
"R  c #645F5A",
"E  c #646059",
"W  c #656059",
"Q  c #64605A",
"!  c #65605A",
"~  c #65615A",
"^  c #65605B",
"/  c #65615B",
"(  c #66605A",
")  c #66615A",
"_  c #66615B",
"`  c #67615B",
"'  c #66625B",
"]  c #67625B",
"[  c #66615C",
"{  c #67615C",
"}  c #66625C",
"|  c #67625C",
" . c #67635D",
".. c #68625C",
"X. c #68635C",
"o. c #68625D",
"O. c #68635D",
"+. c #69635D",
"@. c #69635E",
"#. c #68645D",
"$. c #69645D",
"%. c #69645E",
"&. c #6A645E",
"*. c #6A655E",
"=. c #6A655F",
"-. c #6B655F",
";. c #6B665F",
":. c #6B6660",
">. c #6C6660",
",. c #6C6760",
"<. c #6C6861",
"1. c #6E6861",
"2. c #6D6862",
"3. c #6D6962",
"4. c #6E6962",
"5. c #6E6963",
"6. c #6F6963",
"7. c #6F6A63",
"8. c #6F6A64",
"9. c #706A64",
"0. c #706B64",
"q. c #706B65",
"w. c #716C65",
"e. c #716C66",
"r. c #726C66",
"t. c #726D66",
"y. c #726D67",
"u. c #736D67",
"i. c #726E67",
"p. c #736E67",
"a. c #736E68",
"s. c #746E68",
"d. c #746F68",
"f. c #746F69",
"g. c #747069",
"h. c #757069",
"j. c #75706A",
"k. c #76716A",
"l. c #77726B",
"z. c #77726C",
/* pixels */
"# # $ $ $ $ $ $ $ $ $ $ $ $ $ $ $ $ $ $ $ $ $ $ $ $ $ $ $ $ $ $ $ $ $ $ $ $ $ $ $ $ $ $ $ $ $ $ $ $ $ $ $ $ $ $ $ $ $ $ $ $ $ @ ",
"$ $ $ $ $ $ $ $ $ $ $ $ $ $ $ $ # # $ $ $ $ $ $ $ $ $ $ $ $ $ $ $ $ $ $ $ $ $ $ $ $ $ $ $ $ $ $ $ $ $ $ $ $ $ $ $ $ $ $ $ $ $ $ ",
"$ $ $ $ $ % & & & & & & & & & & % & & & & & % & & & & & & & & & & & & & & & & & % & & & & & & & & % & & & & % & & & % $ $ $ $ $ ",
"$ $ $ $ & s 8.a.w.w.g.s.g.<.%._ I ,.<.<.8.+.z Z 0.w.w.a.s.s.w.w.a.w.s.s.w.w.<.R c %.w.0.0.w.w.w.[ N %.z.g.s.a.8.<.,.G % @ $ $ $ ",
"$ $ $ % 3 N G _ +.[ [ G %.%.%.+._ I %.%.%.%.[ +.%.%.%.%.%.%.%.%.%.%.%.%.%.%.%.+.[ %.%.%.%.%.%.,.R Z G _ %.%.%.G G _ R > $ $ $ $ ",
"$ $ $ & 8 +.I R [ R Z c _ +._ +.+.R [ [ [ +.%.%.+._ _ _ _ _ [ _ _ _ [ _ _ R _ _ +.+.[ [ +.[ +.[ R I R _ [ _ R Z G I N 3 & $ $ $ ",
"$ $ $ * c w.%.[ [ _ I I [ [ [ +.%.+.[ [ _ [ _ I I _ [ _ +._ I R _ _ G R _ R _ _ G _ [ [ +.+.+.[ _ [ +.[ _ _ _ _ _ _ G 4 * $ $ $ ",
"$ $ $ ; N w.%.[ [ [ +.+.[ +.+.+.+.+.[ [ _ [ _ N N _ [ [ [ _ N G _ _ k R _ _ R R N _ [ +.+.[ [ +.[ _ _ _ _ R I I _ [ ,.8 * $ $ $ ",
"$ $ $ & 3 _ _ [ [ [ [ [ [ +.%._ G [ _ _ [ [ _ _ _ _ _ [ _ Z +._ I I I %._ I R _ <.%._ [ _ N Z _ [ _ _ _ _ k s G _ +.g.8 * $ $ $ ",
"$ $ $ % 4 w.[ _ [ R N _ [ [ R I _ _ _ _ _ _ _ _ _ _ _ _ _ _ _ _ I I G I R _ _ _ +.+.[ [ [ _ G _ [ _ [ [ _ I s G _ _ <.4 * $ $ $ ",
"$ $ $ & 4 s.[ _ _ _ [ [ [ +._ _ [ [ _ %.+._ [ [ _ _ %.%.[ [ _ I R _ R I R _ _ _ _ _ [ _ [ [ _ [ _ G Z G _ _ G I _ _ G 4 & $ $ $ ",
"$ $ $ & 4 <._ _ _ [ <.[ _ [ [ [ _ [ _ %.+._ [ _ _ [ ,.%._ _ _ _ G N R R R _ _ [ _ [ _ _ [ _ _ _ _ G N G _ _ _ _ R R G > % $ $ $ ",
"$ $ $ & 4 ,._ [ [ _ _ _ _ [ [ [ [ _ _ _ _ [ _ G _ %.+.%._ _ R [ c 8 R _ _ [ +._ +._ [ [ [ [ [ _ +.%.%.[ _ _ _ _ _ [ <.: $ $ $ $ ",
"$ $ $ & 3 c <.w.<._ _ [ _ 0.w.<.+.+.+.+.+.+.[ R _ 0.g.g.<._ R %.%.[ %._ <.s.w.<.<.%.%.%.%.+.+._ 0.s.s.<.+.,.w.w.w.%.s > % $ $ $ ",
"$ $ $ & 3 7 k s 0 u 8 3 8 0 0 0 8 8 4 8 u 8 8 8 8 0 0 0 0 8 8 u 8 8 u 8 8 0 0 u u 8 7 4 3 4 u 8 0 0 0 u u z 0 0 0 8 > : % $ $ $ ",
"$ $ $ & 3 8 3 > 4 4 > 3 4 4 3 3 4 4 3 4 4 4 4 4 4 4 4 4 4 4 4 4 4 4 , 4 4 4 4 4 4 4 3 > > 3 4 4 4 4 4 4 4 7 4 3 3 4 > : & $ $ $ ",
"$ $ $ & 3 k > > 4 4 3 4 4 4 7 7 4 4 4 3 4 4 8 7 4 7 4 3 4 4 4 4 4 3 3 4 4 4 4 4 4 4 4 4 4 4 4 4 4 3 4 4 4 4 4 > , 7 8 > & $ $ $ ",
"$ $ $ & 3 c 3 3 4 4 4 4 4 4 u u 4 4 4 3 4 4 7 8 4 4 3 > 3 4 4 4 4 3 4 4 4 4 4 3 4 4 4 4 4 4 4 4 4 3 3 4 4 4 4 3 3 7 k > % $ $ $ ",
"$ $ $ & 3 N 8 4 4 4 4 4 4 4 4 4 4 4 4 4 4 4 7 i 7 4 3 4 7 4 4 4 4 4 u 4 4 4 4 8 4 4 4 4 4 4 4 4 4 4 4 4 4 4 4 4 4 4 0 > % $ $ $ ",
"$ $ @ # 3 k 8 4 4 4 4 > 4 4 4 4 4 4 4 4 4 4 4 4 4 4 4 4 4 4 4 4 4 4 4 4 4 4 4 4 4 4 4 4 4 u 4 4 4 4 4 4 4 , 4 4 4 4 4 > @ @ $ $ ",
"$ $ + @ > 8 4 4 4 4 4 4 4 4 4 4 4 4 3 4 4 4 4 4 4 4 4 4 4 4 , 4 4 4 4 4 4 4 4 4 4 4 4 4 4 4 4 3 4 4 4 4 > : 4 4 4 4 4 & O + $ $ ",
"$ $ + @ 3 4 3 3 4 6 6 3 2 3 3 3 4 3 2 3 4 6 4 3 3 3 4 6 6 4 2 3 3 3 3 3 3 3 4 4 4 3 3 3 3 3 4 3 4 3 3 3 > > > 3 3 3 3 * + + $ $ ",
"$ $ + @ 2 ; ; - ; < < ; % = ; ; ; ; ; ; < 2 ; = = = ; 2 1 < ; ; ; ; ; ; % = ; < 1 = % = ; ; ; ; 2 ; ; ; ; ; % = = = % = o + $ $ ",
"$ $ @ o + X X o o o o @ @ @ @ + O @ @ @ + O o o + @ @ @ @ + @ + + + + o o + @ @ + + + + + + + + + @ + + + + o o o o o X   + $ $ ",
"$ $ @ o @ o o o + @ @ @ @ @ @ + o @ @ @ @ @ + o o + @ @ @ @ @ @ @ + + o + @ @ @ @ @ + + + @ @ @ @ @ @ @ @ @ + + o o o X X + $ $ ",
"$ $ + o + o o o o @ + o o + + + O + + + @ @ + + o + + + + o o + + + O O + + @ @ + + + o X o + + + @ o o o + + + o o o X . + $ $ ",
"$ $ @ + @ # @ + @ # @ + + @ @ # # $ $ $ $ @ # $ $ $ $ $ # @ @ # # @ # $ $ $ $ $ $ $ # @ @ + # # # $ @ O O @ # @ @ @ + o o @ $ $ ",
"$ $ $ $ % > * * * * ; * * * * ; ; : > > : * * ; > > : : ; : : ; ; ; : ; : : : ; : : : : : : ; : ; ; ; & % ; * ; ; * & @ $ $ $ $ ",
"$ $ $ & > 4 4 4 4 4 4 4 4 4 4 4 4 4 4 4 8 7 3 4 4 4 4 4 4 4 4 4 4 4 3 4 4 4 4 3 4 4 4 4 4 4 4 4 4 4 4 4 4 4 4 4 4 4 4 ; % $ $ $ ",
"$ $ $ & 4 i 4 4 4 4 4 4 4 , > 3 4 4 4 4 4 4 4 4 4 4 4 3 > 4 4 4 4 4 , 4 4 4 4 4 4 4 , 3 4 4 4 4 4 4 4 4 4 4 4 3 3 4 0 : % $ $ $ ",
"$ $ $ & 4 c 4 4 4 4 4 4 4 4 7 8 4 4 4 4 4 4 4 4 4 4 4 4 7 4 4 4 4 4 4 4 4 3 3 4 4 , > 3 4 4 4 4 4 4 4 > > 4 4 4 4 4 s : $ $ $ $ ",
"$ $ $ & 4 0 4 4 3 3 4 4 4 4 8 8 4 4 4 4 3 3 4 4 4 4 4 4 7 4 4 4 4 4 4 4 4 4 4 4 4 3 > 4 8 4 4 4 4 4 4 4 3 4 4 4 4 7 z : $ $ $ $ ",
"$ $ $ & 4 s 4 4 4 3 4 4 4 4 4 4 4 4 4 3 > 3 4 4 4 4 4 4 4 4 4 4 4 4 4 4 4 7 7 4 4 4 4 7 7 4 4 4 4 4 7 8 4 4 4 4 4 4 0 : $ $ $ $ ",
"$ $ $ & 4 G 8 4 7 8 4 4 4 4 4 4 4 4 4 3 , 3 4 4 4 4 4 4 4 4 3 4 4 4 4 4 4 4 4 4 4 4 4 4 4 4 4 4 4 4 4 4 4 4 4 4 4 4 3 ; % $ $ $ ",
"% $ $ & 3 c 7 4 4 4 4 4 4 > 3 4 4 4 4 4 4 4 4 4 4 , 3 4 4 4 > > 3 4 4 4 4 4 4 4 4 4 4 4 4 4 4 , 4 4 4 4 4 4 4 4 4 4 > ; $ $ $ $ ",
"$ $ $ & 3 c 7 4 4 4 4 4 4 > > 3 4 4 4 4 4 4 4 4 4 8 7 4 4 4 > 3 4 4 4 4 4 4 4 4 4 4 4 4 4 4 4 8 3 3 4 4 4 4 4 4 4 4 s : $ # $ $ ",
"$ $ $ & 3 c 8 4 4 4 4 4 4 8 4 4 4 4 4 4 8 8 4 4 4 4 4 4 4 4 4 4 4 4 4 4 4 4 3 > , 4 4 4 4 4 4 4 4 4 4 4 3 > 4 4 4 4 c : $ $ $ $ ",
"$ $ @ $ 3 u 4 3 > 3 4 4 4 7 4 4 4 4 4 4 7 4 4 4 4 4 4 4 4 4 4 4 4 4 , 4 4 4 4 , > 4 4 4 4 4 4 4 4 4 4 4 > : 4 4 4 4 8 ; @ @ $ $ ",
"$ $ + @ > 4 4 3 > 3 4 4 4 4 4 4 4 4 3 4 4 4 4 4 4 4 4 4 3 4 4 4 4 4 , 4 4 4 4 4 3 4 4 4 3 3 4 4 4 4 4 3 , , 4 4 4 4 4 & o + $ $ ",
"$ $ @ @ > 4 4 4 4 4 4 4 4 4 4 4 4 3 > 4 4 4 4 4 4 4 4 > > 4 4 4 4 4 4 4 3 3 4 4 4 4 4 3 > > 4 4 3 4 4 4 4 4 4 4 4 4 4 * o + $ $ ",
"$ $ + @ 6 5 2 2 2 5 5 ; ; 5 5 2 2 2 5 2 2 2 2 5 5 5 < ; ; ; 5 5 5 5 2 5 < ; ; ; ; ; 2 5 5 2 ; ; ; 2 5 2 2 2 < 2 5 2 ; ; @ + $ $ ",
"$ $ + o @ + + + + @ @ @ @ @ @ @ @ @ @ @ @ @ @ @ @ @ o O @ @ @ @ @ @ @ $ @ @ @ @ @ @ + @ # @ @ @ @ @ @ @ o @ @ @ @ O o o o + $ $ ",
"$ $ + o + o o o o + + @ @ + + o o o + + + + + + + o o o + + + + o o + @ @ @ @ + + + O + + + + @ + + + + o o o o o X o X X + $ $ ",
"$ $ + o + o o o + @ @ + o + @ + o o @ @ + o o @ + @ @ @ @ + + O o o + @ @ + O + + @ @ @ @ @ o o + @ @ @ + + o o o o o o X + $ $ ",
"$ $ @ o + o o @ @ @ @ @ o + @ @ @ @ @ @ + O O @ @ @ @ @ @ @ @ O o o @ @ @ + o + @ @ @ @ @ @ o o + @ @ @ @ @ @ O o o o o o + $ $ ",
"$ $ $ # $ & & & & & & * * * * * & * * & * & * * * * * * * * & & % % * * * * * * * * * * * * * * * * ; * & & & & * * % @ @ $ $ $ ",
"$ $ $ $ * , 3 3 3 3 3 3 3 3 3 3 3 3 3 3 3 3 3 3 4 > > 3 3 3 3 3 3 > 3 3 3 3 3 3 3 3 3 3 3 3 3 3 3 > : > 3 3 3 3 3 3 4 * $ $ $ $ ",
"$ $ $ % > 8 4 4 4 4 4 , 3 4 4 4 4 4 4 4 4 4 4 4 4 4 4 4 4 4 4 4 4 4 4 4 4 4 4 4 4 4 4 4 4 4 4 4 4 4 3 3 4 4 4 4 4 4 s > % $ $ $ ",
"$ $ $ % 3 s 4 4 4 4 4 > > 4 4 4 4 4 7 3 3 4 4 4 4 4 4 4 4 4 4 4 4 3 4 7 4 4 4 4 3 4 4 4 4 4 8 4 4 4 4 4 4 4 4 4 3 3 k : $ $ $ $ ",
"$ $ $ % 3 z 4 4 4 4 4 , , 4 4 4 4 4 7 3 4 4 4 4 4 4 4 4 4 4 4 4 4 4 4 8 7 4 4 4 , 4 4 4 4 4 u 4 4 4 4 4 4 4 4 4 3 3 s : $ $ $ $ ",
"$ $ $ % , k 4 4 4 4 4 4 4 u 8 4 4 4 4 4 4 4 4 4 4 4 4 3 , 4 4 4 8 u 4 4 4 4 4 4 u 4 4 4 4 4 4 4 4 4 4 4 4 4 4 4 4 7 u : % $ $ $ ",
"$ $ $ % , u 4 > 3 4 4 4 4 4 4 4 4 4 4 4 4 4 4 3 4 4 4 4 4 4 4 4 4 4 4 4 4 4 4 4 4 4 4 4 4 4 4 4 4 4 3 > > 4 4 4 4 4 > * $ $ $ $ ",
"$ $ $ % > 4 4 4 4 4 4 4 4 4 4 4 4 4 4 4 4 4 3 > , 4 4 4 4 4 4 4 4 4 4 4 4 4 4 4 4 4 4 3 3 4 4 4 4 4 3 > 7 4 4 4 4 4 , * % $ $ $ ",
"$ $ $ % , 8 4 4 4 4 4 4 4 4 4 4 3 4 4 4 4 7 8 3 3 4 4 4 4 4 4 4 4 4 > , 4 4 4 4 4 4 4 4 4 4 4 4 4 4 4 4 8 4 4 4 4 4 4 ; $ $ $ $ ",
"$ $ $ $ 3 k 7 4 4 4 4 4 4 4 4 > > 4 4 4 4 7 8 4 4 4 4 4 4 4 4 4 4 3 > > 4 4 4 4 4 4 4 4 4 4 4 4 4 4 4 4 4 4 4 4 4 4 s : @ @ $ $ ",
"# $ $ % 3 s 7 4 4 4 4 4 4 4 3 , 4 4 4 4 4 4 4 4 4 4 4 4 4 4 4 4 4 3 , > 4 4 4 4 4 4 4 4 4 4 4 4 4 4 4 4 4 4 3 4 4 7 c : # @ $ $ ",
"$ $ $ $ , s 4 4 4 3 > 4 4 4 4 7 u 4 4 4 4 4 4 4 4 4 3 > , 4 4 4 4 4 4 4 4 4 4 4 4 , 4 4 4 4 3 > 3 4 4 4 4 4 > 3 4 4 0 ; # @ $ $ ",
"$ $ $ $ > 4 4 > : > 4 4 4 4 4 4 4 4 4 > 3 4 4 4 4 4 > , 4 4 4 4 4 4 4 4 4 4 4 4 4 7 4 4 4 4 4 4 4 4 4 4 4 4 4 4 4 4 > * # @ $ $ ",
"$ $ @ % 3 , 4 3 3 4 4 4 4 4 4 4 4 4 3 7 7 4 4 4 4 4 4 4 4 4 4 > 3 4 4 4 7 3 3 4 4 4 4 4 4 4 4 4 4 3 3 4 4 4 4 4 4 4 > * # @ $ $ ",
"$ $ @ # * : , , , 3 3 3 > > > > 3 , : 4 4 , > > > > , 3 3 3 , > > > > > > : > 3 , 3 3 3 , > > > > > > > > > > , 3 , ; % + @ $ $ ",
"$ $ $ @ + % & * * * & & $ $ $ $ & * & % & & $ $ $ # & * * * * & & $ $ $ $ $ & & & * & * % $ $ $ % & % $ # @ # % * & $ + + @ $ $ ",
"$ $ $ $ # + O O + + O O + + + + + + + + + + + + O + + + + + + + + + + + + + + + + + + + + + + + + + + + + O + + + + + + @ $ # # ",
"@ $ $ $ $ # # # $ $ # $ $ # # # $ $ # # # # $ $ # $ # $ $ $ $ # # # $ $ # # $ $ $ $ $ # # # # # # # $ # # # # # # # # # $ $ # @ ",
"@ @ $ $ $ $ $ $ $ $ $ $ $ $ $ $ $ $ $ $ $ $ $ $ $ $ $ $ $ $ $ $ $ $ $ $ $ $ $ $ $ $ $ $ $ $ $ $ $ $ $ $ $ $ $ $ $ $ $ $ $ $ $ @ "
};
