/* XPM */
static const char *wall_1[] = {
/* columns rows colors chars-per-pixel */
"64 64 192 2 ",
"   c #3C3A34",
".  c #3D3A35",
"X  c #3D3B35",
"o  c #3D3B36",
"O  c #3E3B36",
"+  c #3E3C36",
"@  c #3F3C36",
"#  c #3F3C37",
"$  c #3F3D37",
"%  c #403D37",
"&  c #403D38",
"*  c #403E38",
"=  c #413E38",
"-  c #413E39",
";  c #413F39",
":  c #423F39",
">  c #423F3A",
",  c #42403A",
"<  c #43403A",
"1  c #43403B",
"2  c #43413B",
"3  c #44413B",
"4  c #44413C",
"5  c #44423C",
"6  c #45423C",
"7  c #45423D",
"8  c #45433D",
"9  c #46433D",
"0  c #46433E",
"q  c #46443E",
"w  c #47443E",
"e  c #47443F",
"r  c #47453F",
"t  c #48443E",
"y  c #48453E",
"u  c #48443F",
"i  c #48453F",
"p  c #484540",
"a  c #494540",
"s  c #484640",
"d  c #494640",
"f  c #494641",
"g  c #4A4641",
"h  c #4A4741",
"j  c #4B4741",
"k  c #4A4742",
"l  c #4B4742",
"z  c #4B4842",
"x  c #4B4843",
"c  c #4C4842",
"v  c #4C4843",
"b  c #4C4943",
"n  c #4D4943",
"m  c #4D4A43",
"M  c #4C4944",
"N  c #4D4944",
"B  c #4D4A44",
"V  c #4E4A44",
"C  c #4E4A45",
"Z  c #4E4B45",
"A  c #4F4B45",
"S  c #4E4B46",
"D  c #4F4B46",
"F  c #4F4C46",
"G  c #504C46",
"H  c #504C47",
"J  c #504D47",
"K  c #514D47",
"L  c #514D48",
"P  c #514E48",
"I  c #524E48",
"U  c #524F48",
"Y  c #524E49",
"T  c #524F49",
"R  c #534F49",
"E  c #534F4A",
"W  c #535049",
"Q  c #53504A",
"!  c #54504A",
"~  c #54514A",
"^  c #54504B",
"/  c #54514B",
"(  c #55514B",
")  c #55524B",
"_  c #55514C",
"`  c #55524C",
"'  c #56524C",
"]  c #56524D",
"[  c #56534D",
"{  c #57534D",
"}  c #58534D",
"|  c #58534E",
" . c #58544E",
".. c #59544E",
"X. c #59554F",
"o. c #5A554F",
"O. c #595550",
"+. c #5A5550",
"@. c #5A5650",
"#. c #5B5650",
"$. c #5B5651",
"%. c #5B5751",
"&. c #5C5751",
"*. c #5C5752",
"=. c #5C5852",
"-. c #5D5852",
";. c #5D5952",
":. c #5D5853",
">. c #5D5953",
",. c #5E5953",
"<. c #5E5954",
"1. c #5E5A54",
"2. c #5F5A54",
"3. c #5F5A55",
"4. c #5F5B55",
"5. c #605B55",
"6. c #605B56",
"7. c #605C55",
"8. c #605C56",
"9. c #615C56",
"0. c #615C57",
"q. c #615D57",
"w. c #625D57",
"e. c #625D58",
"r. c #625E58",
"t. c #635E58",
"y. c #635E59",
"u. c #635F59",
"i. c #645F59",
"p. c #64605A",
"a. c #65605A",
"s. c #65605B",
"d. c #65615B",
"f. c #66615B",
"g. c #66615C",
"h. c #66625C",
"j. c #67625C",
"k. c #67625D",
"l. c #67635D",
"z. c #68625D",
"x. c #68635D",
"c. c #68635E",
"v. c #69635E",
"b. c #68645E",
"n. c #69645E",
"m. c #69645F",
"M. c #6A645E",
"N. c #6A645F",
"B. c #6A655F",
"V. c #6B655F",
"C. c #6B6560",
"Z. c #6B6660",
"A. c #6B6661",
"S. c #6C6660",
"D. c #6C6661",
"F. c #6C6761",
"G. c #6D6761",
"H. c #6C6762",
"J. c #6D6762",
"K. c #6D6861",
"L. c #6D6862",
"P. c #6E6862",
"I. c #6E6962",
"U. c #6E6863",
"Y. c #6E6963",
"T. c #6F6963",
"R. c #6F6964",
"E. c #6F6A64",
"W. c #706A64",
"Q. c #706A65",
"!. c #706B65",
"~. c #716B65",
"^. c #716B66",
"/. c #716C66",
"(. c #726C66",
"). c #726C67",
"_. c #726D67",
"`. c #736D67",
"'. c #736D68",
"]. c #736E68",
"[. c #746E68",
"{. c #746E69",
"}. c #746F69",
"|. c #756F69",
" X c #756F6A",
".X c #75706A",
"XX c #76706A",
"oX c #76706B",
"OX c #76716B",
"+X c #77716B",
"@X c #77716C",
"#X c #77726C",
/* pixels */
"V.R.W././.T.Z.T.Z./.{.Z.W./././.{././.W.W./././.V.z./.W.T./.W././.W.W.W./.W./.G././././.W.Z.W.W.G./.].W.W././.G.{.{.W./././.W.W.",
"+XT.T././.T.V.W././././././.G./.+X/./.W./././.W.W.W./.W.G./.W.+X/.W./.W.W././.Z.W./.T.R././.W.T.G./.{./.V.G.V.W.W././.T././.T.W.",
"{././.Z.R.{./.W.W././././.W.T.W.W.W.W./././.Z.R././.{././././.W.W.W.V.T./.W./././.W.i.3.k.R.T.W./.W.W.W.3. .U a./././.T././././.",
"/././.W.W.W./.W.G.;.@.;.W././.W.W.G.V./././.R.R.T././.W./.+X/.W././.T.W./.G.Z./.T.V.6.U U ! 3.T.W././.W.6.{ ! k./.W.W././././.W.",
"W././.T.a.&.V./.9.A U  .V.{.W.G.W.W.W.W.W././.W.V.W.W.W.W./.W.W.Z.Z./.W./././.W.R.k.@.U z i 9 ! W.W.T.R.r.;.3.Z./.G.G.]./.T.T./.",
"W.W./.@.b z @.9.{ U J { ;.9.i.W./././.W./.+X/././.W.G.W.W.W./.W.9.{ k.T./.G.T./.W./.6.U A 2 2 e 9.9.z.W.W.G.T.G.V.W././.+XT.T./.",
"/./.Z.U h 9 ! ! A U b 9 e 9 J z./.Z.a.G.W.{.W./.W.a.6.i.W.W./.{.V.&.;.T./.V.z.{./.V.! F b 9 9 * e J  .;.G.W.G.G.G.W./.W.]./././.",
"R./.G.! A z J A b b e h 9 9 h 6.z. .J V./.W.W.T.R.3.U  .R.G.G./.T.T.G./.W.V.a.Z.a.! ! J 9 9 h h 9 b b U V./.T.R.T.V.W.W./.R.W./.",
"V.W./.k. .! A 9 9 9 2 2 * 2 9 F A A U k.W./.W.V.T.a.{ @.R./.W.W./.W.W.V. .z J { J  . .e 9 * $ 2 e h e @.T.T.{.{.W.W.G.T.{.Z.G./.",
"W.W.W.W.W.9.h 2 2 2 2 $ 9 h 9 h h A 3.G./.W.W.W.R./.G.a.R./././.+X/.T. .2 2 * * U  .z 2 * 9 * * 9 2 h k./.W.R.T.W.W./.W.G././.W.",
"W.{.+XW./.r.! F 2 3 * * 9 h i i b r.R.W.{.W.W.W.W.R.W././.W.W.W.W.W.W.@.2 2 2 * e 9 2 * * 9 2 3 * % U V./.Z.&.i.T.T.Z.W.T.W./.W.",
"W././.T.@.r.a. .9 * * * * h F 9 A R.W.W.R.W.V.T.W././.W./.Z.G./.W./.W.a.U i 9 9 2 9 9 9 2 2 2 h A ! @.V.k.A h J U z.T.T.W./.W.W.",
"W.W.W.9.J a.W.{ A * * $ * h A i F r.G.W.W.W.W.W.W.T.T.W.W.R.W./.T.T.R.R.a.;. .b 9 9 b 9 $ 2 2 z  .T.T.z.9.e * 2 e  .G.a.R.W././.",
"W./.a.h 9 @.W.;.A 9 3 * * 9 9 A z J ;.G.W.W./.W./.G.G.+X/.W.V.i.a.G.W./././.W.@.z h 3 9 * $ 3 9 U ;.k.z.{ 2 2 e i b A ;.G.W.{./.",
"/./.k.h e ;.T.z.! A ! 9 * 9 2 e 9 e z k.W.{.+XT.z.W.W.+X@Xz.U F { 9.Z.G.T.T.6.&.J e 3 9 * * 9 * 9 h A F 9 * 2 h U { e b 3.W.W./.",
"V.W./.z.a.z.T.T.T.z.3.i * 9 9 2 2 2 i k./././.W.G./.W.G.{.V.J h z  .R.T.V.r. .A h b h 2 9 9 3 O * i 9 2 * h U A a.T.;.J 9.W.T.W.",
"R.W.W./.W.T.W././.V. .9 * 9 e $ 2 2 2 { T.W./././.T.G.R.W./.G.! U r.W.W.V.{ A 9 3 A h 3 3 z e % * h 9 2 2 U ;.;.T./.G.V.W./.W.W.",
"W././.W.T.W.W.k.V.a.b 9 9 3 9 9 2 9 z e ;.a.z.T.W.i.@.G.W.T./.G.G./.W.R.V.{ 2 2 3 A  .A h J 2 * % 9 9 * 3 U ;.R./.W.].{.T.G././.",
"W././.T.T.].Z.F ! k.J * $ * * e A h F z A J A k./.R.V.R.W.Z.T./.W.W.W.R.Z.9.e * z { z.| h 9 * * $ 2 9 * * J { a./.R./.{.T.Z.W./.",
"W.W.V.G.W.W.;.3 i ;.h * * 2 9 J {  .9.J h h i ! R./././.+XR.T././.W.z.k./.9.{ z e ;.Z.3.z $ * * * 2 * % * 9 i A r.W.W./.W.{.+X/.",
"/.W.R.W.W.;.9 * * 2 2 O 2 9 9 h a.W.T.! 3 3 3 z G./.W.R.T./.W.#X/.R.T.T.V.@. .! { T.T.r.F 9 9 9 9 3 * $ * 9 z ! k.W.T.G.W./././.",
"W./.W./.z.U J 9 9 3 * 2 * * * { /.T.W.9.J 2 i ;.T.W.W.T.V././.W.W.W.W.W.V.a.r.9.V./.W.W. .2 * F U * * 9 3 b b @.T.W.9.{ G./.W.G.",
"V.W.{.{.V.! U h ! A 3 2 * O 2 ! r.T.W./.G. .3.W.W.{.+XW./.G.G./.Z.T././.W.V.G.].W.T.T.3.z 9 9 b h * e z 2 9 ! k.V.Z.U e 9./.W.G.",
"R.W././.W.3.A J z.r.J * * * * 2 b Z.W.V.R.W./.W.W./.].W.W.T.W.R.@.U 9.T.W./././.T.T.a.h * 9 3 * * 9 9 * 9 ! z./.T.T. .e ! W.W./.",
"/.G.Z.W.W.T.9.r.W.W.a.i * 2 $ * b ;.R.R.W.W.z.T.R.a.V.W.R.{./.@.e 3 A @.T.T.T.W.W./.9.e $ * * * * 9 * * A T.W.W.W./.T.! @.R././.",
"W.W.W.W.W.R.{.].W./.V.i 2 9 9 i b ;.W.W./.G.{ @.i. .r.T.R./.a.! i 9 i ;.W.G.G././.+XT. .2 $ * 2 2 e 9 2 U  .3.W.W.W.W.W./.W.{.].",
"W./.W.a.k.{.+X/.W.W.3.9 9 9 9 A  .a./.R./.V.! F  .! r./.W.R.6.U 9 U i.G.W././.R.V.W.W.R.&.O * * 9 U i * i 3 i 9.V./.].W.W./.W.W.",
"W./.r.b F V.W.R.W.V.z $ 2 2 U 9.T./.+X{./.T.9.U F @.T.G.V.W.G.3.;.9.R./.W././.T.T.W.W./.a.9 * b  .;.b * * * i i.T.W./.T.z.W.W.W.",
"W./.9.i 9 ;.T./.G. .9 $ * 9 ;./.W./././.R.R.V.9.9.T./.W.W.W./.W./.T.T.W.W.T.r.z.W.W.W./.6.h 2 F i.V.{ 2 * 3 J V./.R.W./.W.W././.",
"/.G.Z.k.9.V./.T.9.A h * 9 U r.W.W.T.W.W.T.G.V.T./././.W.G.W.W.].W.W./.W.W.G.@.;.W.W./.V.V.3. .i.R.Z.9.* $ A J ;.R.W.V.z.T.W.{.W.",
"/.T.G./././.R.R.z.! h h 9.{.V.T.W.T.R.W.W.W././.W.T./.W.Z.W./././././.G.T.].Z.r././.W.;.@.W./.W.R.T.r.b e J J 3.T./.a.J { T.W.T.",
"/./.W.W.R.{.{.R./.a.9.V././.T.W.R.9.{ Z./.W.W.W.W.T.z.V.W.W.G.9.V.W.W.T.W././././.T.3.U F k.W.R.R.{.R.;.! ;.k.T././.T.! Q Z././.",
"{.+XW./.W././.W.R.Z.W./.W.R././.Z.U A a.W.W./.T.R.W.T.T.W.W.;.A Q z./.W././.Z.T.T.3.A A A 9.W.W.V.W.W.G.T.W./.W.+X/.W.V.z.W.T.W.",
"W.W./.G.W.W.W./.T.Z.W.V.T.W.W.].W.r.9.T.T.R.+XG.R./././.G.3.U A b 3.W./.W.W.V.T.T. .z e { W./.W./.G.9.T./.W.W.W.T.Z.W./././.G.T.",
"{.G.G.G.R.].T.T././.W.G.T.W.W.{././././.W.W.W.W.W.W.9.{ 6.A 3 J U 9.W.W./.W.W./.T.;.J z i./.W.W./.T.k.T.W.W.W.W.T.G./.W.W.W./.W.",
"/.R.T./.W.k. .;.W.W.W.z.9.;.k.G.W.W.]./.W.W.W.W.T.9.A 9 i 9 * i b ;.W.T.z.R.R.W.T.T.Z.V.R.T.{./.R././.W.W.W.V.G././.{./.W.W.W.W.",
"/./././.T.;.! r.W.W.W.i.;.A J @.T.W.W.W.T.W.W.W.V.J 9 2 2 9 3 2 A r.T.W.T.G.T./.W./././.R.V./././.G././.R.W.W.W.W.a.;.T.W.R./.W.",
"W.W.T.R./.T.Z.W.W.W.W.z.@.z b A ;.W.W.R.V.R.W.].k.z 9 * * 2 2 * ! T.W./.z.r././.W.W.W.T.G.W.W.W.k.i.V.W.W.T.z.i.V.@.U ;.W.G.T.W.",
"W.W.G.T.W././.W.G.V./.G.{ Q F h A W.W.W./.W.W./.Z.{ 2 % $ % % $ ! V.G. .z e  .T.W.W.W.T.Z.W.W.Z.{ @.G./.T. .F h A i A { V.T.G.W.",
"/.W././.R.{.].R.T.T.W.R.6.A e 2 i 3.U { V./.V.G./.Z.A * * $ * O h r.{ 9 * % U R.T.Z.W.W./.W.W.k.;.J ;.T.9.b b 3 2 9 A { a.W.W.W.",
"{.].W.T.W./././.W.W././.9.i 3 * * * * 3 J W.W.W.T.r.U 9 9 * * * 3 ! U z 9 3 A a.T.R./.W././.W.V.3. .a.T.A h i % * A r.r.T./././.",
"/.T.T.V.T./.W.a. .;.k.9.9 9 9 O * * * e J a.R.W.T.3.J h  .J $ 9 $ 9 J F U 9 b ! T.T.Z.W.].+XR.G.Z.Z.T.V. .z * * 2 F z.W.W.T.{.{.",
"W.T.G./.T.r.{ h 9 h J i * 9 2 O 2 2 * i F  .Z.W.W.R.a.9.z.a. .e * 2 9 @.V.@.A 9.T.r.;.G.W.W.W.V.W./.T.Z.Z.! 2 O 2 Q 9.T./.R.W.W.",
"W.W.W.W.V.U i 9 2 9 9 * * * * * * 2 * 2 @.V.R.+XW.W./.W./.W.9.3 * * 3 a.W.T.V.W.W.V.r.V.z.R.W./.T.W./.W.R.V.;.A z A U @.T./.Z.Z.",
"W.R.].W.z. .e $ * 9 O O 2 9 9 2 O e b b V.].W./.W.W.G.Z./.z.A $ 2 * * | G.T.R.W.W.W.T.R.W././.k.@.;.T.W.R./.i.! A 9 9 J G./.R.R.",
"T.Z.W.R.W.k. .A $ * * 2 9 9 2 * 9 { 3.9.W.R.W.W.W.W.z.T.3.9 3 * $ * e ! Z.W.W.W.W.W.W.W.z.a.9.J h 9 { W././.i.z 9 2 2 z k./.W.W.",
"T.G.W.W.W.W.R.i.J 9 2 9 3 9 9 2 J a.R.T./.W.W.G.W.W.W.W.9.e 3 * * i 3.G.R.W.{./.W.V.G.Z.J h 9 9 9 3 i a.].{.3.A 9 9 F 3.V.Z.W.W.",
"W.W.W.W.T.Z.R.T.V.! 2 2 * i e 2 h 3.T.Z.;.{ 9.9.V.W.W./.G.! h 2 J ;.z./.W.W./.W.V.G.R. .3 9 * * * 9 U V.R.W.r.{ A { V.W.W.T.W./.",
"R.R.W.V.3.! k./.V. .b 9 2 2 2 9 h k.V. .i 9 h 9.T.R././.W.Z.;.F Q 6.Z.W.T.a.z.G.T./.W.{ $ 9 h 2 * h a.W.R.W.R.k.k.G.W.W.W.W.{./.",
"W.W.W.;.A 2 U a.{ b A 2 2 $ $ 9 A U ! 9 9 2 9 ! T.W.{./.T.T.Z.a.V.W.].W. .b U a.R./.W.;.9 2 2 2 * { /.W.R.W.G.T.W.W./.W.W.W.W.W.",
"W.{.W.T.| h b U A 9 i * 2 h * 2 9 e 9 $ $ 2 9 ! T.W.R.T.G.W./.W.V.W./.T.U z z 3.R.W.W.G. .e 3 2 i 9.Z.G./.T.V.T.W.W.z.V./.W.W.W.",
"W./.W.T.T.a.{ i 9 * * * e A z z 2 9 9 3 9 9 A a.T.V.W././.W.W.k.G.W.T.R.i.{ ! z.W.W.W.R.a.e % * h z.T.Z.T.W.W.W.W.6.e U T./.Z.T.",
"W.T.T.z.R./.@.2 * 2 9 3 e z A J h 2 2 U 3.U 9.W.T.T./.G.V.T./.R.W./.V.T.T.9.V././.R.Z.Z. .e 2 9 2 J k.@.A 9.]./.W.r.9 A Z./.T.W.",
"W.Z.V./.T.@.z h 9 2 9 2 U 3.9.@.h 9 * J 9.V./.R.W./.V.A U r.W./.W.W.W.T.W.W.W.W.G.@.@.9.h e 9 * * 2 b h 9 U T.T.W.T.@.U 3.W.W.W.",
"R.W.W.T.r.A A F 9 * * $ J W./.W.@.i 2 2 U r.V.W.V.T.;.9 i  .V.T.V.W.W.+X/.W.W.W.3.3 e e 9 b * $ 2 2 2 9 b 6.W.W.T.Z.R.i.k.W.W.W.",
"R.W.W.T.i.{ A h 2 * 2 * * ;.T.W.V.F A 9 e U r.W.T.T.;.e h ;.T.T.G.W.G.G.a.V.T.T.a.h 2 $ h 3.A 2 9 9 9 ! a./.W.T.R.T.W.W./.{.{.W.",
"/.W./.V.U { U e 9 e 3 * 9 ! V./.V.U U 9 e A 9./.W.W.k.! r.T.W.W.W.R.r.U A z 9./.R.r.h 3  .T.3.A A 2 2 @.a.k. .! z./.W.W.T.T.W.W.",
"{.W.W.Z.! A A J 3.! e * e ! r./.T.! 9 9 J ;.V.W.W.W.W.R.W./.V.G.W.V.J 2 e 9 @.R.W.z.@.;.G.W.W.r.{ h 9 h J h 9 e  .R.{./.T.V.W.W.",
"W.W.V.R.V.{ U 9.W.3.h h i { V.W./.r.h J z.].G.G.W./.R.R.W./.G.G.W.i.h 3 b U 6.T.W.W.W././.W./.T.F A A h e 2 * 3 ! W.T.T./././.W.",
"/.z.Q 3./.Z.V.W.V. .b U  .a.W.R.R.T.a.z.W.R.G.R.R.k. .6.T.{.{.R.R.G.@.F @.9.T.W.R.W.T.W./.V.Z.W.;.A A { 9.b i A r.W.T.9.a.].{.W.",
"/.r.A ! T./.R.W.G.@.{ r.T.W.W./.T.Z./.W.W./.W./.a.J U r.R././.R.W.W.T.r.V.G.G.W.W.V.@.k.W.T.T.W.T.9.;.z.R.V.;.9.W.W.T.3.9.W./.W.",
"W.T.i.z.W.W.V.T./.R.T.R.W.W.G.T.W.W.W.R.R.+X/.W.r.A A 9.T.W./.T.Z.W.W.T.R./.G.G./.k.@.a.R./.].W.R.W./.W.T.Z.W.R.T.W.R.R.W.W.Z.T.",
"V.W./.W.+XW.W.R.V.W.W.{./.W.Z.T./.G.G.W.R.W.W.Z.Z.a.r.k.T.T.T.R.V.W.Z.T.W.W.W.W.W.G.G./.W.W.{.W.R.G.G./.T.V.W.R.G././.W.W.W.Z.G.",
"G.W.W.W.].W./.W.G.W.W./.W.W.W.W./.T.T.W.R.R.W.T.W././././.T.T.W.W.W.G.W.W.R.W.W.W././.W.W.W.W.W.W.G.T.W.W.W.W.W.W.W././.W.W./.W."
};
