/* XPM */
static const char *floor_corner_bottom_left[] = {
/* columns rows colors chars-per-pixel */
"64 64 33 1 ",
"  c #201D16",
". c #231F18",
"X c #232018",
"o c #242019",
"O c #26231A",
"+ c #26231C",
"@ c #27241C",
"# c #29251D",
"$ c #2B271F",
"% c #332E1A",
"& c #332F1B",
"* c #373317",
"= c #373417",
"- c #383417",
"; c #33301B",
": c #34301B",
"> c #37341A",
", c #34301C",
"< c #383318",
"1 c #3B371B",
"2 c #3C371B",
"3 c #3B361C",
"4 c #3C371C",
"5 c #3B381B",
"6 c #3C381B",
"7 c #3B381C",
"8 c #3C381C",
"9 c #2B2720",
"0 c #2C2821",
"q c #302B23",
"w c #302C24",
"e c #403B1F",
"r c #413C1F",
/* pixels */
"  X#######o..%11166188848833188888888188111111284811111882151114",
"  X#######o.X%11341183188881118111488188811881111281318718188111",
"  X#######+..%88148111181186814118816888488811188111118888228481",
"  o#######+..%48118828811188888851832221188131133188183683811481",
"  o#######+..%48811178881181188888128128344111318888481181817882",
"  o###00##+..%8811111:1111811881181111881<2811888111311138818314",
"  o##000##+  %81111331111114811818411881268824885811811148818128",
"  o##900##o .%11311111882111838818211883888218818821884881113841",
"  X#######o..%11841111118881288815411148812811111411886881144342",
"  .#######+..%82121111188431128811881111113811118188811815128121",
"  X#######o .:64411811111884411641181214421112148168317888883881",
"  X#######o .%2146212811188131*181188888441112148861111188581484",
"  X#######o .%11118811881111111111111888188811188118111241187281",
"  X#######o .%28116611443811311111112181384811118188318887488431",
"  X#######o .;88318581111113118211711183881111811881111388888131",
"  o#######o .;8811316111=148111188832311881111411811181188888121",
"  o#######o  %811181884112884311661113813318118181:1188111111188",
"  o#######o..:83884822888878811111184188411188518118118611111888",
"  o#######o  %88838811187188811288168118211111116114484811818138",
"  o#######o..:88838888317118811888118814188234841188111111418133",
"  X#######o. ,811111141111111:4818883288218211341111144381148811",
"  o00#####o..,11115821811888113814443112811111122113141481881883",
"  o009####o..;81888888831865121111386<18872128811*:8811188418143",
"  o00#####o. %81184188141111118111131111111148118118878126111142",
"  o#######o. %1111133388111118111141-111181131141188818112188888",
"  o#######o. %11122182113188188818811111181111111188114831188838",
"  o#######o..:88184424113881288412811178411834311128713886888411",
"  o#######o .:81211438181111881111121814111818411111787882812411",
"  o#######o .%88441118888214411881888218111111818664881411884188",
"  o##000##o  %18113118811811441181111411131181841118881118314448",
"  X##000##o  %38111111181124111<41111811111311241888111888841118",
"  X##000##o .%88111221188146111182881188181311886888188131843111",
"  X#######o..%18811248828811111688118111188311788311883113114841",
"  X#######o..:844841111<1812118744458111151111781188121241188188",
"  o#######o..:88831113142111128111482:11111128312118128811488188",
"  o#######o. ;88881113112231243112481821114111111188811888881186",
"  X#######o .%81182114418888481188888881418111811883128114411411",
"  o#######o .%14888881718812118823184111118318121181111111118881",
"  X#######o..%83188881111211411781138118441141384111888241111114",
"  o#######o .%11111811111811111111112821881181248811118411811241",
"  o000####o .%11111111111184883118846188481131882181111888888e88",
"  o000####o .%11311841111111121111388111111141888588488888888885",
"  o00#####o  %8183131161883111841182143113418882888re88888888888",
"  o#######o  %88141811811888118311117831114888848888888888188888",
"  o#######o  %1113381188118841181124113118828888828818888818888e",
"  X######+o  %8184181381111647131184381338418888888888888883888r",
"  X#######o .%844881111111681118338188431841888888668e888888re88",
"  .++###@+o .%13:::>3<133>133<13>1::313331<133333333383333383333",
"   .....XX...ooooooooooooooooooooooooooooooooooooooooooooooooooo",
"   .....XX.  ...XX..XXXXX....XXXX.XXXXXXXXXXXX..XXXXoXXXXXXXXX..",
" ..oooo++o+@+ooo+@oooooooooooooooooooo##+ooooooooo@##++oo++ooooo",
"..X#######0009##000##################0000#########0w00##########",
" .o#######0000#9000#####9######99999#00009######9#0ww0###9######",
" .o########09###00#####00909#9###0#9##00909#####99000###########",
"  o################9###009999999###9#0##9909########0###9#######",
"  o###################0099#####9##########9#####################",
"  o##################00009####################@@###########000##",
"  o##################0q09#9#########9909######+@###########0q0##",
"  o##################000########00############@@###########000##",
"  o##900#######################9000#####9#######################",
"  o##000########90#############90q0#############################",
"  .oo++oooooooooo+oooooooooooooo+@oooooooooooooooooooooooooooooo",
" . .............XXX.....XXX.....X.X.....XX..    .... .........  ",
"   .............XXX.....X.X.  ..XXX......X..    .... ......X..  "
};
