/* XPM */
static const char *wall_2[] = {
/* columns rows colors chars-per-pixel */
"64 64 215 2 ",
"   c black",
".  c #010100",
"X  c #020201",
"o  c #030403",
"O  c #040403",
"+  c #050604",
"@  c #070705",
"#  c #080807",
"$  c #080907",
"%  c #090907",
"&  c #090A08",
"*  c #0A0A09",
"=  c #0A0B09",
"-  c #0B0B09",
";  c #0B0C0A",
":  c #0C0C0A",
">  c #0C0C0B",
",  c #0D0D0B",
"<  c #0D0D0C",
"1  c #0D0E0C",
"2  c #0E0E0C",
"3  c #0F0F0D",
"4  c #11110E",
"5  c #11110F",
"6  c #11120F",
"7  c #131310",
"8  c #131311",
"9  c #131411",
"0  c #141411",
"q  c #141412",
"w  c #151512",
"e  c #151513",
"r  c #161613",
"t  c #161614",
"y  c #171614",
"u  c #161714",
"i  c #171714",
"p  c #171715",
"a  c #181715",
"s  c #181815",
"d  c #191916",
"f  c #1A1916",
"g  c #1A1A17",
"h  c #1B1A17",
"j  c #1B1B17",
"k  c #1B1B18",
"l  c #1C1C19",
"z  c #1D1C19",
"x  c #1D1D19",
"c  c #1D1D1A",
"v  c #1E1D1A",
"b  c #1E1E1A",
"n  c #1E1E1B",
"m  c #1F1F1B",
"M  c #1F1F1C",
"N  c #20201C",
"B  c #21201D",
"V  c #21211D",
"C  c #22211E",
"Z  c #22221E",
"A  c #23221F",
"S  c #23231F",
"D  c #232320",
"F  c #242320",
"G  c #242420",
"H  c #252421",
"J  c #252521",
"K  c #262521",
"L  c #262522",
"P  c #262622",
"I  c #272622",
"U  c #272623",
"Y  c #272723",
"T  c #282723",
"R  c #282824",
"E  c #292824",
"W  c #292825",
"Q  c #2A2925",
"!  c #2A2A25",
"~  c #2A2A26",
"^  c #2B2A26",
"/  c #2B2B26",
"(  c #2B2B27",
")  c #2C2B27",
"_  c #2C2C27",
"`  c #2C2C28",
"'  c #2D2C28",
"]  c #2D2D28",
"[  c #2D2D29",
"{  c #2E2D29",
"}  c #2E2E29",
"|  c #2F2E29",
" . c #2E2E2A",
".. c #2F2E2A",
"X. c #2F2F2A",
"o. c #302F2A",
"O. c #302F2B",
"+. c #30302B",
"@. c #31302B",
"#. c #31302C",
"$. c #31312C",
"%. c #32312C",
"&. c #32312D",
"*. c #33312D",
"=. c #32322D",
"-. c #33322D",
";. c #33322E",
":. c #33332E",
">. c #34322E",
",. c #34332E",
"<. c #34332F",
"1. c #35332F",
"2. c #35342F",
"3. c #353430",
"4. c #363430",
"5. c #363530",
"6. c #363531",
"7. c #373531",
"8. c #373631",
"9. c #373632",
"0. c #383632",
"q. c #383732",
"w. c #393732",
"e. c #383733",
"r. c #393733",
"t. c #393833",
"y. c #393834",
"u. c #3A3834",
"i. c #3A3934",
"p. c #3B3934",
"a. c #3B3935",
"s. c #3B3A35",
"d. c #3C3A36",
"f. c #3C3B36",
"g. c #3D3B36",
"h. c #3D3B37",
"j. c #3D3C37",
"k. c #3E3C37",
"l. c #3D3C38",
"z. c #3E3C38",
"x. c #3E3D38",
"c. c #3F3D38",
"v. c #3F3D39",
"b. c #3F3E39",
"n. c #403E39",
"m. c #403E3A",
"M. c #403F3A",
"N. c #413F3A",
"B. c #413F3B",
"V. c #41403B",
"C. c #42403B",
"Z. c #42403C",
"A. c #42413C",
"S. c #43413C",
"D. c #43413D",
"F. c #43423D",
"G. c #44423D",
"H. c #44423E",
"J. c #45423E",
"K. c #44433E",
"L. c #45433E",
"P. c #45433F",
"I. c #46433F",
"U. c #45443F",
"Y. c #46443F",
"T. c #464440",
"R. c #474440",
"E. c #474540",
"W. c #474541",
"Q. c #484540",
"!. c #484541",
"~. c #484641",
"^. c #484642",
"/. c #494642",
"(. c #494742",
"). c #494743",
"_. c #4A4742",
"`. c #4A4743",
"'. c #4A4843",
"]. c #4B4843",
"[. c #4A4844",
"{. c #4B4844",
"}. c #4B4944",
"|. c #4B4945",
" X c #4C4944",
".X c #4C4945",
"XX c #4C4A45",
"oX c #4D4A45",
"OX c #4C4A46",
"+X c #4D4A46",
"@X c #4D4B46",
"#X c #4D4B47",
"$X c #4E4B46",
"%X c #4E4B47",
"&X c #4E4C47",
"*X c #4F4C47",
"=X c #4E4C48",
"-X c #4F4C48",
";X c #4F4D48",
":X c #504D48",
">X c #504D49",
",X c #504E49",
"<X c #514E49",
"1X c #514F49",
"2X c #514E4A",
"3X c #514F4A",
"4X c #524F4A",
"5X c #524F4B",
"6X c #52504B",
"7X c #53504B",
"8X c #53514C",
"9X c #54514C",
"0X c #55524D",
"qX c #56534D",
"wX c #56534E",
/* pixels */
"&X#X#X&X&X#X&X&X#X&X#X&X;X&X#X&X#X&X&X&X#X&X&X].#X&X#X#X&X&X&X&X;X&X#X&X#X#X&X#X&X&X&X&X;X#X&X&X#X&X#X&X#X;X{.#X;X&X#X&X&X&X&X#X",
"#XZ.x.^.#X#X#X#X#X#X&XqX<X&X#X#X#X#X#X#X&X&X&X#X&X#X#X&X&X&X&X#X#X#X&X#X#X#X#X#X&X#X#X#X#X&X&X#X#X&X#X&X#X#X&X;X;X&X&X&X;X;X#X&X",
"#XR.Y.^.^.7X<X#X#X#X;X7X#X&X&X^.#X&X#X#X#X#X&X&X#X<X<X#X#X&X&X#X^.#XqX7X#X#X&X&X#X#X&X#X^.;X#X<X&X#X#X&X{.R.#X#X#X&X&X&X#X{.&X&X",
";X<X<X&X#X<X<X#X#X#X;X#X;X#X&X#X#X&X#X#X;X7X#X#X#X&X;X#X#X#X#X#X&X#X<X<X#X#X#X{.#X#X&X#X#X#X#X7X;X#X&X;X].^.;X#X&X&X&X&X{.{.&X#X",
"#X#X#X#X#X#X#X#X;X#X#X].{.<X#X^.#X&X#X#X#X;X#X#X#X#X#X#X#X#X#X&X#X#X#X#X&X#XZ.V.{.&X#X&X#X#X#X#X#X&X{.#X#X&X#X&X<X#X#X#X&X&X#X#X",
"#X#X&X#X^.#X#X{.^.G.m.k.k.Y.d.x.#X&X#X#X#X#X&X#X&X;X;X&X#X&X#X#X#X#X&X#X&XR.6.{ t.#X&X#X#X#X#X#X#X#Xm.].;X#X^.^.#X#X#X;X;X#X&X#X",
"#X#X#X#X#X#X&XR.s.6.#.{ >.{ { k.#X#X#X#X#X#X#X#XY.G.].&X&X#X<X<X#X#X#X#X#X6.h h #.V.;X#X#X#X#X#X].R.x.d.Z.^.x.^.#X#X&X^.^.&X#X#X",
"#X#X&X&X#X#X{.x.>.O.U N N ) 6.V.].;X].Y.#X#X&X^.s.s.^.;X#X#X<X&X#X#X#X#X#Xe.x h t.#X#X#X#X#X#X#X{.e.{ { 6.6.2.d.#X&X&X#X#X#X#X#X",
"#X#X<X<X#X#XG.s.#.T h q q U >.V.#X&X#X#X#X#X{.t.5 { <X#X&X&X#X#X#X#X#X#X#X#Xs.6.#X<X#X#X#X&X^.R.Z.{ T ~ U U T e.;X;X#X;X;X#X#X#X",
"#X#X#X#X{.&XR.s.{ x 5 & 3 N >.>.m.#X#X#X#X#XR.{ U V.;X#X#X#X&X#X#X#X#X#X#X#X&X<X;X#X#X#X#X#X#XR.6.{ ) k i U ~ #.m.^.#X#X#X#X#X#X",
"#X#X&X#X#X&X^.e.O.U q & q #.e.s.G.#X#X#X#X#X#X^.#X;X#X#X#X#X#X#X#X#X#X#X#X#X#X#X#X#X&X#X#X#X#X^.s.U x % q O.O.6.V.^.#X#X#X<X<X#X",
"#X#X&X&X#X#X^.s.O.{ { U >.t.#.m.#X&X#X#X#X#X&X<X#X#X&X&X#X#X&X#Xd.x.^.#X#X#X#X#X#X#X#X#X#X#X#XG.s.~ q 5 T #.O.x.^.#X#X#X#X&X].#X",
"#X#X{.#X#X#X#X{.d.e.6.6.s.6.s.].&X#X#X#X#X#X#X#X#X#X#X#X#X#X#X;X^.e.R.&X#X;X;X#X&X].R.#X#X#X#X#X6.#.~ #.e.) s.].#X#X#X#X#X#X#X&X",
"#X#X^.#X#X#X&X#X<X^.e.G.V.R.<X#X#X#X#X#X#X;X#X#X&X#X^.^.#X&X#X#X<X<X#X&X&X7X<X#X#X#X#X&X#X#X#XR.m.s.6.e.6.e.V.&X&X#X&X#X#X#X#X#X",
"&X&X;X#X#X&X<X#X#X#X&X#X{.7X&X{.#X#X#X{.].#X#X#X#X#X#X;X;X#X#X#X#X#X#X#X#X#X#X#X#X#X#X#X#X#X#X^.<X#X^.].k.V.&X{.#X;XY.s.G.&X#X#X",
"&X#X#X#X{.^.R.{.&X;X;X#X#X#X#X<X#X#X#XZ.R.#X;X;X#X#X&X#X#X&X^.#X#X#X#X#X#X#X#X#X#X#X#X#X#X#X#X&X#X&X<X#XR.G.<X&X#X;XG.6.Z.&X#X&X",
"#X#X&X{.6.2.#.^.<X#X#X#X#X&X#X#X#X#Xs.U 6.^.;X#X#X&X#X&X<X;X<X&X#X#X#X#X^.&X#X#X#X&X#X#X#X#X#X#X#X#X#X#X#X&X#X#X#X#X#X<X<X&X&X#X",
"&X#X;XY.~ k ~ m.#X#X#X&X#X{.&X#X#XZ.i % { Z.;X#X#X#X#X;XqX&X&X#X#X;X&X#X#X{.{.&X#X^.&X#X{.G.#X#X#X#X#X#X#X#X#X#X#X#X#X#X&X#X#X&X",
"^.#X&X].s.h >.^.#X#X#X#X#X].&X#X#X^.#.k s.7X#X#X#X#X#X#X#X#X#X#X#X^.^.&X#XG.d.x.x.^.&X#X#X#X#X<X&X#X#X#X#X#X#X&X#X#X#X&X#X<X<X#X",
"#X#X#X;X&X<XqX<X#X#X#X#X&X&X#X#X&X<X#X#X<X;X#X#X#X#X^.^.&X#X#X#X&XG.d.G.Z.m.#.{ >.Y.].#X#X&X#X;X&X#X#X#X#X#X#X#X#X#X#X#X#X<X<X#X",
"&X#X#X#X#X;X;X#X#X#X&X&X#X#X#X#X#X#X#X;X;X#X#X#X#X#X#X{.#X&X#X#X#X].Z.s.6.@.~ U { e.x.#X#X#X#X#X#X#X#X#X#XZ.G.^.#X#X#XR.#X#X#X#X",
"#X&X;X&X#X#X#X#X#X&X].{.#X#X#X#X{.#X#X#X#X#X#X#X#X&Xm.m.#X&X#X#X^.^.d.#.{ U h h ~ #.s.Z.R.#X#X#X#X#X#X#X^.#.~ ^.&X#X#X#X#X&X#X#X",
"&X#X^.{.&X#X#X#X&XR.d.^.&X#X#X#X#X#X#X#X#X&X#X#X;XZ.U s.<X#X#X#X^.s.#.{ x 5 , 5 ~ ~ #.s.^.#X#X#X#X{.#X#Xd.9 . { &X#X#X<X#X#X#X#X",
"&X{.Y.#X&X#X#X#X&X;X&X#X#X#X#X#X#X#X#X&X#X&X#X#XR.k.R.<X&X#X#X#X#XG.6.{ ~ h 3 7 ~ #.{ 6.#X&X#X#X].R.#X#XZ.i & { &X#X#X#X#X&X&X#X",
"#X<X<X#X#X#X#X#X#X;X<X#X#X&X#X&X&X#X#X#X#X#X#X&X{.^.<X<X#X#X#X&X#X].G.6.{ O.U ~ ) #.m.^.Y.#X#X#X#X&X#X#X;XG.6.#X<X#X#X#X#X].#X&X",
"#X&X#X#X#X#X#X#X#X#X#X#X#X{.].].^.&X{.{.#X#X#X#X#X;X#X#X#X#X#X#X^.^.R.s.6.O.s.s.e.s.R.#X^.#X#X#X#X#X#X#X#X<XqX<X#X#X#X#X#X^.{.&X",
"#X#X#X#X#X&X#X#X#X#X#X#X#XG.s.s.V.#X&X;X#X#X&X#X#X#X#X#X#X#X#X#X{.#X^.#X^.s.Z.s.].#XR.{.&X#X#X#X#X#X#X#X#X#X#X#X#X#X#X#X;X<X;X#X",
"#X#X#X#X#XZ.d.{.#X&X#X#X^.s.{ ~ O.d.<X#X#X#X#X;X&X#X#X&X#X].&X#X&X#X;X;X#X&X<X].{.&X#X#X#X#X#X#X{.#X#X#X#X#X#X#X#X#X#X#X#X#X#X&X",
"#X#X#X&X{.x.x.{.&X&X;X{.k.>.x h N #.R.&X#X#X#X{.].<X&X#X&X&X#X#X#X#X#X#X&X;X#X#X{.<X#X#X#X#X#X&X#X#X#X#X#X&X#X#X#X#X#X#X&X#X#X&X",
"#X#X#X#X<X7X<X#X#X#X#X#Xs.#.7 O h 2.^.#X#X#X#X^.x.V.].&X#X&X#X#X#X;X&X#X#X#X#X#X#X#X#X#X&X;X#X#X&X#X#X#XR.R.{.&X#X#X#X&X&X#X#X#X",
"#X#X<X<X#X#X#X#X#X#X#X^.G.^.t.x ~ x.<X#X#X#X&X^.#.{ s.#X&X#X#X#X#X].#X&X#X#X#X#X#X#X#X&X{.Z.#X&X#X#X;XZ.#.#.6.G.#X#X#X^.#X#X#X#X",
";X&X<X;X#X#X#X#X#X#X#X#X#X<X^.^.k.Z.;X#X#X#X^.{ 3 x { Z.&X#X#X#X;X&X#X#X#X#X#X#X#X#X#X#XY.x.].;X#X#X;X6.U N ~ 6.#X&X&X#X#X#X&X#X",
"{.#X#X#X#X#X#X#X#X#X#X#X#X#X;X<X<X#X#X#X{.#XR.N % 3 >.Y.#X#X#X#X#X&X#X#X&X^.Z.#X#X#X#X{.#X<X&X#X#X&XR.#.N . h 6.#X&X#X#X#X#X#X#X",
"^.{.&X#X#X&X&X#X#X#X#X#X#X#X#X#X#X#X#X#X{.#X<XV.F { #X<X#X#X#X#X#X#X#X#X&XV.V.#X#X#X#X#X#X#X#X#X&X#X{.x.{ k { Y.#X#X#X#X#X&X;X&X",
"<X<X#X#X#X^.Y.{.;X#X#X#X^.#X#X#X#X#X#X#X&X#X#X<X{.7X<X#X#X#X#X{.#X#X#X#X;X#X#X;X#X#X#X#X#X&X&X#X&X#X<X#XV.G.#X<X#X#X#X#X&X#XR.#X",
"#X#X#X#X{.d.>.d.{.#X#X#X&X#X#X#X#X#X#X#X#X#X#X#X&X#X#X#X#X#X#X#X#X#X#X#X&X<X#X#X#X#X{.R.d.G.#X#X#X#X#X#X#X#X<X#X#X#X#X&X#Xx.Y.;X",
"#X#X#X&XZ.h i >.G.&X#X#X&X#X#X#X&X;X#X#X#X#X#X#X#X#X#X#X#X&X#X{.&X#X#X#X#X#X#X#X#X;XG.>.#.#.Z.<X#X#X#X#X#X#X#X#X#X#X#X&X{.V.{.;X",
"#X#X#X&XV.x 3 6.7X#X#X#X#X#X#X#X;X<X&XG.G.#X#X#X#X#X#X#X#X{.d.#.m.&X#X#X#X#X#X#X#X#XV.N i N e.#X#X#X#X&X#X#X#X#X#X#X#X#X&X<X<X&X",
"&X#X#X#X&X^.m.#X<X#X#X#X#X#X#X#X#X&XY.#.e.<X;X#X#X#X{.#X{.d.#.~ O.Z.&X#X#X#X#X#X;XG.@.& @ x m.#X#X#X&X^.#X#X#X#X#X{.#X#X#X#X#X&X",
"#X#X#X#X#X<X7X#X#X#X#X].#X#X{.#X#X;Xm.6.#X<X;X#X#X#X#X#XG.{ q 3 ~ m.&X#X#X#X#X#X#X&Xx.U N #.#X<X#X#X#X{.#X#X#X#X#X#X&X#X#X&X&X#X",
"#X#X#X#X&X#X#X#X#X#X&X#X#X#X#X&X#X#X;X<X<X#X#X#X#X#X#X;Xm.N 7 , { &X&X#X#X{.#X#X#X;X#X^.s.Y.<X#X#X#X#X#X#X#X#X#X].^.#X&X#X&X#X&X",
"#X#X#X#X#X#X#X#X#X#X#X&X^.R.&X^.#X#X#X#X#X#X#X#X#X#X#X#X].#.U N x.7X#X#X&X&X#X#X#X#X#X;XqX<X#X#X#X#X#X#X#X#X#XG.t.d.G.#X#X#X#X&X",
"#X#X#X&X#X#X#X^.#X;X^.^.Z.V.^.x.#X#X#X#X#X#X#X&X#X#X#X#X;X#XG.Y.;X#X#X#X#X#X#X#X#X#X#X#X#X#X#X#X#X&X#X#X#X#XG.{ 7 D G.#X#X#X&X#X",
"#X&X^.Y.#X#X#X{.G.#Xm.x.e.d.d.R.#X#X#X#X#X#X#X^.^.#X#X#X#X&X7X<X#X#X#X#X#X#X#X#X#X#X#X#X#X#X#X&X#XY.#X&X#X#X].{ @ q x.#X&X#X#X#X",
"#X#XR.{.#X#X#X#Xm.d.#.{ { { e.G.^.;X&X#X#X#XR.6.V.;X#X#X#X#X#X#X#X#X#X#X&X#X{.#X#X#X#X#X#X#X#X&X{.{.7X&X#X#X&X#X#.d.&X#X&X].R.&X",
"&X{.#X<X#X#X<X].s.{ { ~ N U #.#.k.Z.^.#X#X#XG.Z.<X&X#X#X#X#X#X#X#X#X#X#X#X{.#X;X#X&X;X].#X#X#X#X#X&X&X#X#X#X#X#X&X<X;X#X#X{.#X;X",
"#X#X<X&X#X].Z.d.#.{ N q q i N { e.x.^.#X#X#X;X8X<X#X#X#X#X#X#X#X#X#X#XR.#X^.^.G.^.R.m.Y.#X#X#X&X#X#X#X#X#X#X#X#X#X#X#X#X#X&X&X&X",
"#X#X#X#X#X#X^.k.#.U q & 3 ; M O.e.R.&X#X#X#X#X#X#X#X#X#X&X&X].#X&X#X&Xm.x.x.s.#.s.t.Z.#X#X#X#X^.{.&X#X#X#X#X#X#X#X#X#X&X&X#X#X#X",
"#X#X#X#X#X&X<Xs.~ { { k , N >.{ @.G.R.^.#X#X#X#X#X&X;X;X#X;X<X;X#X#X#X].s.{ #.~ ~ 6.x.^.#X&X^.Z.^.&X#X#X{.#X#X#X&X#X#X{.#X#X#X#X",
"#X#X#X#X#X#XG.s.s.e.{ O.{ t.#.#.m.x.Y.&X#X#X#X#X&X#XR.^.&X#X&X#X#X&X<Xk.{ ) D q h 6.>.G.&X#X#X<X;X#X#X#XG.R.;X#X{.#X&XR.G.&X#X#X",
"#X#X#X#X#X&X].#X7X#Xt.>.d.d.m.V.&X<X<X#X#X#X#X#XZ.s.e.d.#X&X#X#X#X].x.>.O.N % O F #.Y.7X;X&X#X#X#X#X&X#Xs.#.2.^.{.#X#X;X&X&X#X#X",
"#X#X].#X#X&X<X#X{.&X^.e.V.#X&X;X#X&X;X#X#X#X#X{.6.U ) 6.d.{.#X#X#X#XG.e.{ ~ h a t.2.R.<X&X&X#X#X#X#XY.6.#.{ U _ e.#X#X#X;X#X#X#X",
"#X#X<X;X#X#X#X#X#X#XG.#X<X&X#X&X#X#X#X#X#X#X#Xe.U i 5 U 6.Y.&X#X#X;X&XZ.t.>.6.Y.6.e.#X#X#X#X#X#X&X^.s.2.~ i x N #.<X#X#X#X#X#X#X",
"#X#X#X#X&X;X&X#X#X#X#X;X#X#X#X#X#X#X#X#X#X#X#X6.x ; & x 6.<X#X#X#X{.#X^.<Xm.m.{.G.m.R.;X#X#X#X#X#X].k.{ x . , N @.^.#X#X#X#X#X#X",
"#X#X#X].G.V.G.#X&X;X;X#X#X#X#X#X#X#X#X#X#X#X{.R.x.U N O.R.<X#X#X#X#X&X;X<X#X#X&X&X].{.&X#X&X#X#X#XG.>.T N 5 N U 6.].#X#X#X#X#X#X",
"R.#X&X#Xs.{ 6.^.;X#X#X#X#X#X#X#X^.#X&X#X^.#X#X;X<XZ.6.].<X#X#X#X&X;X#X#X#X&X&X#X#X#X&X#XG.^.#X#X#X#X^.6.~ 6.#.2.#X<X#X#X#X#X#X#X",
"#X#X&X].N 3 U m.#X&X#X#X#X#X#Xm.e.Z.<X#X#X&X#X#X#X#X<X;X#X#X#X#X#X#X#X#X#X#X#X#X#X#X&XR.s.Y.;X#X#X#X#X{.d.d.#.R.<X#X#X#X#X#X#X^.",
"&X#X#X{.#.i ~ &X&X#X#X&X#X&X{.>.~ m.;X#X#X#X#X#X#X#X#X#X#X#X#X{.{.#X#X#X#X#X#X#X#X#X#X^.G.<X<X#X#X#X#X#X].<X].#X#X#X#X&X#X#X&X;X",
"&X&X#X&X&XZ.].;X#X#X#X{.#X&X#X^.G.<X#X#X#X#X#X#X&X#X#X#X#X#X#XG.e.Z.;X#X#X#X#X#X#X#X#X;X<X&X#X#X#X#X#X#X#X#X<X;X#X#X#X].#X#X#X&X",
"&X#X#X#X&X7X;X#X#X#X#X#X#X#X&X<X<X;X#X#X#X#X#X#X{.#X#X#X#X#X&X].t.Z.&X#X#X#X].#X#X#X#X#X#X#X#X#X#X#X#X#X#X#X#X#X#X#X^.V.#X#X#X#X",
"&X&X].{.;X#X#X#X&X{.Z.#X&X#X#X#X#X#X&X#X#X#X#XR.R.#X#X#X#X#X&X&X;X<X#X#X#X#X&X<X#X#X#X#X#X#X#X^.R.#X#X#X#X#X#X#X#X#X&X&X#X#X#X#X",
"#X&X].^.&X#X#X#X&X{.^.&X#X#X#X#X#X&X{.{.#X#X&X].;X&X#X#X#X#X&X#X#X#X#X#X#X#X#X#X#X&X;X&X#X&X#X{.#X#X#X#X#X{.{.&X#X&X&X&X&X#X&X#X",
"#X#X&X&X&X#X#X#X#X;X<X&X#X#X#X#X#X&X{.#X&X#X;X<X&X#X#X#X&X#X#X#X#X#X#X#X#X#X#X#X&X#X^.#X&X#X;X;X&X#X#X#X#X&X&X#X#X&X#X#X&X&X].{.",
"#X&X#X#X#X#X&X&X#X#X#X#X#X#X#X#X&X#X&X&X#X#X#X#X#X&X#X#X&X#X#X&X#X#X#X&X&X#X&X#X&X#X{.#X#X#X#X#X#X#X#X#X#X#X#X#X#X#X#X#X#X&X#X#X"
};
