/* XPM */
static const char *floor_corner_top_right[] = {
/* columns rows colors chars-per-pixel */
"64 64 32 1 ",
"  c #211E17",
". c #221E18",
"X c #232018",
"o c #242119",
"O c #26231A",
"+ c #27231C",
"@ c #27241C",
"# c #2A261E",
"$ c #2B271F",
"% c #322F1A",
"& c #332F1B",
"* c #373317",
"= c #373417",
"- c #33301B",
"; c #37331A",
": c #37341A",
"> c #34301C",
", c #38331A",
"< c #3B351B",
"1 c #3C371B",
"2 c #3A361D",
"3 c #3C371C",
"4 c #3B381B",
"5 c #3C381B",
"6 c #3B381C",
"7 c #3F3B1E",
"8 c #2B2720",
"9 c #2C2821",
"0 c #302B23",
"q c #302C24",
"w c #403B1F",
"e c #413C1F",
/* pixels */
"  ...........       .......X....... ..........X..............   ",
"  . ........  .     ..........................X.............. . ",
"oooooooooooooooooooooooooooooo++ooooooooooooooooooooooooo+ooo.  ",
"#############################9998#############9#########999##o  ",
"#############################9998#######################998##X  ",
"##899###########+@############99########999##################o  ",
"##999###########++#######888##8######8#8909##################o  ",
"##999###########++#####################8999##################X  ",
"########################################8####################o  ",
"###########8#########8######8####8##89#8#####################o  ",
"###########99########8##998#########89888#####9#####8########o  ",
"##########9qq9#########99998#8###############9998#8999#######o. ",
"##########99q9#########99998#################999##8999#######o. ",
"ooooooooo++@#@oooooooooo##ooo++ooooooooooooooo+oooo+@+oooooooX. ",
"....XXXXXXXXXXX....X.XXX.X.XXXXXXXX....XXXXX.......  .XX.....   ",
"ooooooooooooooooooooooooooooooooooooooooooooooooooo  .XX.....   ",
"222222<:223<<<222222<;<<2<<2;,<:2<;<2<:22<,<<;;;2,%. oo@@+#+o.  ",
"7777775777e7<5777777<27<<37747265<<<44<<<<<<<77<37%. o#######X  ",
"w773<377377717777577<<7<<<7<27<<2<6<5<<<<72<7<67<3%. o@######X  ",
"w5775<72777<77<77777<77<<<<<3<<<7<<177<<77<<7<2<<1%  o#######X  ",
"77677<7777777757377753<<<276<<<<27<<766<<7<<7<3<77%  o#######X  ",
"74377777777777771777<22<<<3<17<<37<<<<77<5<<2<<7<7%  o#####99o  ",
"<7777777571<77<773<3<<<<<<<572<<<<1<<<<<<<<27<<2<<%  o####999o  ",
"377127776<<<<<<<77<<<<7277<4<77<<27727<<<<<<<<<<<<%. o####899o  ",
"<21<47<<37<<<<7771<7<<77<17<<<<<<<<<<<7<<<<<7<<<<<%. o#######X  ",
"3<<<<<<<<777<<<776<1<<217<<72,<<<<<3<<1<<<<7776<23%. o#######X  ",
"<777<<<<<<<<<6<<1<7<47<<<<<77<<<47<<1<77<6<777771<%. o#######X  ",
"<<2<<7<<<61<<77<<4<<<5<2<7777777<<727777<23<<<7<<7%. o#######X  ",
"57<<77777<<577<<<<<<<2<<<<6<73<<<671<<11<<<<<<7277%  o#######X  ",
"77<773<<37<<7<<<<271<<<<<<;177<<<77<<<<17<<<<<<777-  o#######X  ",
"77<77<<2<<1<77<<77<<<<4<<<<7<2<267<<<<7<<<<<<17337; .o#######X  ",
"<26<<<2<<<77<<<777<<677<<<<3<<775<<<<<7717731<<77<%..o#######X  ",
"<<<<27<<<67<777547<<2<7<774<77<5<<<<52<77<<<1<<<77%  o##999##X  ",
"7<<<16771<<<747<<1<<2<<<4<7<<<<7,<<<75<<7<<<<<<<72%  o##999##.  ",
"7222<21<<<77<<<<<7<7<<6<<<7<<<<7<<<2<<7<<77<<2<67<%  o###9###X  ",
"77<<77<<3<772116<7<<<<<<7<<777<55<<17<<7756<<<7377%  o#######X  ",
"<<2<<7<76<76<<<<<37<7<<<3<7<1<<<<<77<<<<7<727<<<<7;  o#######X  ",
"<<37775772<672<<<4627<<176<<<7<<7771<33<<<11177<77;  o#######X  ",
"7<717<<<72<<77<<<4<<<<7<<<<<<77<777<75<<<<<7<<<<<<%  o#######o  ",
"77773<<<<3<777<<2<<2<<7<<<<=<3<<<<7<<<<<772<<<<<<<%  o#######o  ",
"<1<<<<51<7677<<5<<73<<<<2<<<<<<<<6<<<<<<4<77<<7<<7%  o#####99o  ",
"<<<7<777<<<77;*<<771<1477<<53<<<<<<<<57<<7773723<3-. o#####99o  ",
"<77<77<72<6<2<<15<<<<<<71<<4<23<72<<7774<7<<3<<<<<>. o#####89X  ",
"<<673<<6223<<<<<7<<<<7<<771<767<77:<<<<<<<3<<<<<<7>  o#######.  ",
"<6<7<1<<<<<475<<7622<77<7<76<<775<<77<<2<<7277<777;  o#######X  ",
"72<7<7<<73712<<5<<<<<<<17<<75<77<<<767<67<<<772777%  o#######X  ",
"777<<<<<57<47<<6<477<<<277<37<<<<<<7667777<<737727%  o#######X  ",
"77<<<<<<<77<<*<7<7<<7<2<<2<<<<55<<<376<<<277<7<<<7%  o#######X  ",
"<<<746714<7<<<7<<3<<<<76<<<<6677<<<<73<=<<<5<4<<77-. o#######X  ",
"<<<77777<<<<<77<<6<<<<7722<<<4<<<7<<6<<<<<<745<<35-. o#######.  ",
"<222316777<277<7<<,<7776<7<<<<<<<<<6<<72<3<<55<<3<%. o#######X  ",
"<7<<2<<3<<<<7<<77<<<7774777<<<<<<<<<<<<<77<<774<<<%. o#######.  ",
"273<3<36<<<<<<773<1<<<2277777<<7<*<<<77<<<754547<1%  o#######.  ",
"<772477476<275<77<1<<<<23<1<7<<74<<2777<<<<<7<<734;  o#######X  ",
"<1<71<4<74<716<3<<<<72<<<<<<77<<77<<<2377<<<<<1<37%  o#######.  ",
"13237<<73<17<<<<<<<<7<<321<<<64<777<<777<<<<<<77<<%. o#######.  ",
"<372<<<76177<176475<<777277<<47<77<7<<<<77<<<<<2<<%. o##99###X  ",
"7<<7<7<<<<<7<<74573<644<<77<<37<7<<7<<<<<<<22<<<<7%  o##998##X  ",
"1<27<<7<<<<2<<<775<<71;<77<<<<7<<17<<7<<<<,<<<<<77%. +##99###X  ",
"<764<7<7<<73777742<<<3223<<7<<72<77<<7<<7776<4<771%..+#######X  ",
"<72<<6674<7<55<26<<2<77<<<1<<7<<777442<<<77<77<<73%  o#######o  ",
"<7131<7677<<<<<77<<<77235774<7<<<3<447<<7<<<<73<77%  o#######X  ",
"<<<77<7<67<2<75<<<<37<<777<77<<<<7<<<7777<26<<3<<<% .o#######X  ",
"1<<<4<177<<<<<737<<<<<<<47<57777777<<<773764<55<<<%  o#######X  "
};
