/* XPM */
static const char *floor_edge_top[] = {
/* columns rows colors chars-per-pixel */
"64 64 33 1 ",
"  c #2C2A1F",
". c #322E19",
"X c #373317",
"o c #383417",
"O c #35321B",
"+ c #373419",
"@ c #37331E",
"# c #36341E",
"$ c #383318",
"% c #393319",
"& c #3A361B",
"* c #3C371B",
"= c #38331D",
"- c #38341E",
"; c #3C371C",
": c #3B381B",
"> c #3C381B",
", c #3B381C",
"< c #3C381C",
"1 c #3F3B1F",
"2 c #2D2A20",
"3 c #2E2B21",
"4 c #302E23",
"5 c #312E24",
"6 c #333126",
"7 c #343227",
"8 c #373329",
"9 c #37342A",
"0 c #38342A",
"q c #38352A",
"w c #403B1F",
"e c #413D1F",
"r c #403B20",
/* pixels */
"9888888888898888888888888888888888888888888888888888888888888888",
"9888888888898888878888888888888888878890888888888888888888888888",
"9888888888888888888888888888888888888889888888888888887888888888",
"9999088888888888889888888888888888888878778788888890888878887899",
"8898988888888888788878888888787788788888877888888888888877788888",
"8888888888888888877778888778788887787788988788777788887777788777",
"8888888888788888877777777777877777777777887778877788877788888778",
"8888888886578888877777776777877777777766777778777777777680887778",
"8888888887788888887777777778888888777777776678877778887788877788",
"8888887778888888877776777777788780877777777777777777776677778888",
"8788898877778888777778876677777778777777777777777777777777777877",
"7787790867777877677679976777777767667777887777777776777777777777",
"5555555555555544544445554555244544444444444444544444544444445555",
"2222222222222222222222222 22  2222222     2 22222222222222222 22",
"@@@@@--@@@#@@-=@@@@@@@-##O@OO@@-@@@@OO@@@@@OO=@@O@@@@@@@@O..@@O@",
"<<<<<<<<>:<*<e<:>><<<<<<<;&&<,&<<<<<&<;&<>&&&&<>&&&&&&&<&<&&&;;*",
"<w<<w<<<<<<<<w<&><<<<<<<<<&;<&&<&<<-;<<&<-&<&&>&&-&&<<&&&&<<&*<*",
"re<<<&<&<<,<<<&<<w<&<&&<<;&<<--:&&:&<<&&&<&&-<<-&&<;<**;>&-;&**>",
"<<&<<<<&<<<<<<:*<<>&<<<<<><<&&&&<<<&*&&&&<*%&;<<:&-;<>&;<&<&&&>*",
"<<&*;<<<<<<<<<www<<<<;<<<<<<&&&&&<<&&&&&&;<&&*&<<<&&<&&&-O&<&<<-",
"><><<<<<<<<<<<<<w<<<<<<;<;&&-&**&;&&<<&&*&<&&&&&<<&&>&&-<&&<-&&&",
":<<<<&<<<<<><&&&<<&><<<&;;&&;&;**&<<;;*,&&&<<&:<&&&&&&;><:&&-&&&",
"&*<w>&<<;<<<&&&&&<<&<<<*-&X&<<,<<<>&*<<,&&;<<<&<;<&&&&;&&&&&-&&&",
"&&&&&&><&*&<<<<*>&><<<*&<<&&<<&>&<<;&&&&&&&&&-&&><&<&;;<<>&&&-<&",
"&<;&<&&&&&;<-&&*&&&&<<:<*&<<-&;<&&<<-&&><<&&&<&*><&&-,*<<<<<&;&*",
"&*<<<&-;&&&&&&&&&<<&&*<<&&<<&&&&*&;<<*;<&&<<&;>&<<<&<<&<*;<<**&&",
"<&&&&&<<<;&&-*&-<<<&&;&&&&*<&<;&<<<;<<<<>&&<<;<<<&;&*<&&&*<-&;<<",
"<<<;*><<<;<<&&*<<>&&*&&&<&&;&&&&&&&><;&*&&<<*&&&<*<&*;-&&&-<<<<<",
"<<<&<<<&&&&<<<&<<&&&>&<<;&&&:&&&-O&<<;&*&&<<**&&&&*-&&&&&;&<&<<<",
"<<<&;<<&&<*<&*&<<*&&<<<&&&&&<&%&&&<>&;;<-<<&*&*><<&&&&&;&*;<&<<<",
"<&;<;&&;;&&<:<<-&&;<<<<-&<,<<<&&&&<;&&<<<>&&&&&*<0<><<;;*&&<<<&;",
"<&&&&-<<*,&:<<&&<<<<&<<-&<&&<&&<<<&;<<&<*&&&&><;&,<<&&&*;&*,&<<<",
"<<&&&<*<<<<>&&&&<&<*&<*&&<-&&&&*&<&&<&&<*%&&&;**<&<<&&&&&&&&><&&",
"<<<;;&&-<*&*&<<<:&&&&<<&<<&&<&<&&*<&&&&&<&&*;;&&<<**<<-&&-&&<<&&",
"<<<**;<<*&;;&<<<;>*<&&<&&&&&&&;<&*<<<<&&<&&&*<;%&<<<><&&&&<*<<<&",
"&&&;<&<<**<<-<<&<&&:&&<<&*<&&&&<&<<**&&&&&&<<*X&&&;<&<<&<X&;&&<<",
"&&&;<<<<><<<<&,<<&&*&-<<-<<*&*;<,*&&&<*&&<<<;&&<<;&-&;**>*<;&<><",
"<<&<&<<&&&<<-&&<<<&&&&>;&&&&>;&&-&&&&<<&*<<<;*<<&;;&&*<<&><&&-&&",
";<<<<<;;;&&><&<<<<&&&<*&&-&&<<&&&;&X&<&&*&*<&&&&&&;<<-<*&&&&&&&&",
"&<<**-&&>*&<<><<*&&&<&:*<&&&&&&&&&&&;&%&&&<&&-&%&&&<&;<&&&<&&&<;",
"&&;&><&><<<&>:-<<XX&<&<<<&&<,,<<&%:<<*%&&&&>&-&><&&,<<<<-<<<<&<<",
"&<<<&<<<-<<&&,-<-&&*<&&<<&&&&<<&&&&<*<<&<<-&&&<<<<&&<<&<<<&&;&&<",
"&&<<&<<&&<;;;;&&--&&><&%&&<<&&<<<;&<<<<&&<<+&*<&&&:&-;&;&&&&&&<<",
"-&&&<;&**,&&-&>&<&&&*<<&;;;<<&><&<;&&&<<<<*&&<&&&&-&&<<*<<-&<&<<",
",<;&><&<&&<>*<>&;&&*;&&&&&&&**<<&<<<&&<<<&&&<<<<&&<<&&&<<<<<<<<<",
"<<<<-&&;&&><<:><<&&&,&&<<&&&&&<<<&&<<*<>*<&&:<-<&&<<;&&<<;*<<<;;",
"><<,&&&*&&&&<<&>*&&<<&<<*<*&-&;<<-*&&%&&&&&<;<<-<<<<<<<;&<<;&&<<",
"&<<&<<&&&*&&<<;&&%;<&&;&&**&<--&&&&&&&<<<&&&&<<;*X&&-&<&&<&&<<<<",
"&&&&<<;<<<<&&-&&&<<&&&<-&&&&<<<&&-<><<*;*&<*&;<&&&&;&&<:&<-&<<<<",
"&&-;<;<<,<<&<&&-<<>&&&&&&&:&<<&&<&&&&<&&&<<&&--&><&*&&;<<>&&<<&,",
"&&<<<<;*<<<<<&&<<&&<<>&&&><<<<,<<&*;&&<&&&&&&&&&<&&<<&&&<<&&&<&&",
"&<<*&<-&&&&&&&&<*><<*<&*&&&<<&<<<<<&;&&*&&&&&&><>&&<;<<&<<<&*&&&",
"&*<<&;<<<<<&<<&*&>&<<<&*&&&&<<<<><<*<&o<<&X&&;&<<*&&&**&<&&>;&&;",
"&&<<<<&<<&:<:&&<<<&<<&&**&;<<&-&&&&<<-&&<<<&&<*<;&&&&&&<;&&<;<:<",
"<*<&<<&&<:*<&&<*<,&<&O&&&><&&&&&*&&&*<<&<<<<&&&,<<<-&&&&&&**&<<;",
"**<;;&>&&*<><<>&&*<<&&<:&&<>><<<>*&&&*<&&<<<<&&<<<<&&:*&&&*<<&&*",
"&&<<<&&<&;<&*<<<&;<<&<<<&&-<<<<&<<&&&<<&&<*&<<&&&&*<<&<*&&&&&&,&",
"<<&&<<&<<;&&&&<<&&<>&<>;&<<>&<&&<<&&&;<&&<&&<&;*&&&&*&&;&&&&&&<<",
"**&-<<&<<;-&&;&<*&&<<<<&&><*&&<<<&&<&&<<&&<<<&&<&&,;;&&&&&&&&<<&",
"&<<<&&&<&<<&&<;<<<<<&<&&&&&;<&,;*&&<;&<<*<<<<&&<-&;<<<<&&<&<<<*&",
"**<;&&&<-<<&;<&&<*&<-<&&&&&<<-&&>*>&<<&&<<<<<<<<&&&*<<<&<<&&&<;&",
"<&<*<**&<<:<<&&&,&o<<<*&&;<<<;<<<<<>:<<&&&<&&<:<&&;<&&<&&<<;-<>;",
"&&&&&<<&><&<<&-<-<<&&&&&&<<&&&<<<*-<<;&&&<<>&&<<<<<<&-<&&&;&-&&&",
"<*&-&>>:*<<<&&<&&*<;<<*&&*&&&&<:<<&<<<<<<<<<>&;&<<<<<<<&&>>&&&&*"
};
