/* XPM */
static const char *floor_edge_right[] = {
/* columns rows colors chars-per-pixel */
"64 64 31 1 ",
"  c #2C2A1F",
". c #332F1A",
"X c #373217",
"o c #383417",
"O c #373318",
"+ c #373418",
"@ c #36331D",
"# c #37341D",
"$ c #383319",
"% c #3B371B",
"& c #3C371B",
"* c #38331E",
"= c #3B371C",
"- c #3D371D",
"; c #3B381B",
": c #3C381B",
"> c #3B381C",
", c #3D381C",
"< c #3F3B1F",
"1 c #2D2B20",
"2 c #302D23",
"3 c #302E24",
"4 c #333126",
"5 c #343126",
"6 c #353228",
"7 c #363429",
"8 c #38352A",
"9 c #38352B",
"0 c #403B1E",
"q c #403C1F",
"w c #403B20",
/* pixels */
"-%,&%%,%&,%%%%%%%&,=%%%%%-,%%,,,,,,,,=%%%%%&,,w,,=13666777767777",
"&%%%,%,%%%%-=%%%,,,,%%,%,,,%%,-,%%,,,%%,%%,:,,q0,#13666677677677",
"%%,,,%%,,-,,,,=%,,==%,,-,,%%%,=%%-->,%,-%,,;%%,,,*12666666677667",
"%%%-,=%:-%,,&-%%%%-%%,,%&,,==%=$%,%%-%,%%0,,%,,,9@12666666679666",
"%%,%=,,,--,%%>,,,%=%-%%:&,%,,--%%--,%%,,%&,,-,,0,@13566666679766",
";,%%%,,%%,,%,>,,,%%,-->>=,,-%-%,=%,,;%%%%%%,,,%;,=13666666667766",
"%,-%%%%%,%%,=-,=%%%%%-,%%-,,=,%%,%,,,-=%%,,,,,,,,=13766666667666",
"%%%,,,,>%%,,%&,,%&-,%%,:%=%,,,=,,=%%,,=%,,,,,%%,,#13666666666667",
"&%,=%,,%%>,,%,>,=%%%%%=,:-%&%%,,%-%%,,%%%-,,,,,,,#13566666666666",
",=,,,-&%&%%,%,>,&=%%>,,,&%%,%%&,>%,%=-$%&,,,,,,,;@13566656666667",
",%;,,=%,,&%=%,,,%%:,%=,,%%,,,=%-%%&%,%%%%,,,,,>,,#13666545666667",
",,,%%%%%%,,%%-%%%%,&%,%%,&,->-&:%=-,,%%&-,%,,,,,:@13666656666777",
"%,,-%%%%,%;,%,&%,,,%=-%,,,===%%%>%%,%=%=,%,,,,,,,@13566666677676",
"%%%,,=%,-%%,%%%%,>%,%-=%;%%%,,,%,,&,%&%%,%%,,,,0w=13666676667777",
",=%%=%,,:,=%%%%%-%&%%%==,,%>,,,%%,%%%%%%=%%,0>=,,*12566666666666",
"%=%%,-=,%%,--,=%%&-%%%>,,,>,%,,%%=>;,=%%&%%,q-,%:@12566666666666",
"%%=,,%%%%>,%&,&%%&,-,===%,,,%%%,,%,,,,%%&%>00,,:,@13556666666666",
"%,%&,%%-&>,:%%,-$+%%%=%X%,,%%:%%,%&%:,,%%-,,,,0,:#13556666666666",
",,o%,%,,,%%%=%;,=%%%%%%X%%%%%&%,,=%%%,>%&,%>,,,,,@12555665669666",
"-%,,,,;,,,,,,,%%,,%&%%%%%%%&%,%-,,%%%%%%-%%,,,%,,#12555555667666",
",%,=%,%%%%,,%,%%%,=-%&,,,%%%%%%%%,,,&%%,,:,,-,,,,@12555555666666",
"&%=,%,,,%O%--;%%%%%%,,%%%-%=%%,--,,%%-&,-,,--,%,,@13765555666666",
"%%%%%,:,-%%%%%%,-,%%,%%,%%%%,,,%,,>,%%=%&,,,,,%,,=13665565666666",
"%%%%%%-,;%&&%$%=%,,%%$,,%%%=,%%%==%,%%,,%%%-,,,,,=12555555666666",
"%%%%%%%%+%%%%%%%%%,%=%,,,%%=%$=%%%%--%%&-=-,,,,,,#12445556666666",
"&,-%%,,%%:%%%:%%&,%%=%%%==%,&%,--,%%%%%%,%--,&---O13545555566666",
"%-,%%,,=,,-%%,%%&&%%&,%%%%%,,%%=%=%%%%,>%X%%%,%%%@13555655666766",
"%%,,-&%,&%,%,,%%%%%%,:%,%%%%%%%%%,%%=-,,%%%%-,,%=@13555655666666",
"%%,,,$%,,%,-,,,,,%%%,%%=%,&%%%,%,,>%%%%=>,=%%%,,,O12555666666666",
"%%-=%%-,,%%-%,,,%%%&%%=%%,=&%%%%%,%%%,%%,,%%%%%%>@12566666666666",
",,,%=-%>,%=,->%,=-,-%,,,=%%-%->%%%$$%=%=%==%%%=%%@13556666666666",
"%,,%-,%%,%%,,,%%+,,-,,%,%%%,-,%%,%%%%%%,%,%%%%;,,=13556666666666",
",,,&%,,,,%%:,,,%%,,%%,%%%%==%%%%,%%%%,%%%,&%%,%%,@12466655666666",
"=%,&%%,,-%%,,%%=%=%,,-$O%-%%,%%,,%%O%,%%,,%-,,%,,@12569655666666",
"%=,&=%%%%%%,,%%-%&%,=%%;%%%%-:,%%-,%%,-,,:,%-,;,,@12456555666666",
",,%%,,%%%%,%%-%,%%,,%,,,%X%%&,%%%-%,:-,,=%,%%%%%,@12455555666666",
",,%>%%%%%%,,-%%>%%,%%,=,=%%%&,%=,%%,,,,=%%-,%%,-%O12555565666666",
",-,,%%-,%,%%%%%,%$&%%,-=%,,,%,%%,%---,-$%,-,%%,,,O 2555555566666",
",%,%,,,,,,+o%,%%,%-,,,,$$%,&%%%%%,-%%,-%%,%%%%%,-@12555545666676",
",%%%,,%%%%%,%%%=,%&,&$%%%%%%%%%,,,,&&,=&%==%%%%%%@12655546666796",
",%%,%%%%%-,&%%%&,%%,,%,%%%%%%,,&&,=%%%%-%%%%%%%:,@12655556766666",
",,%,,%,,,,,%%%,%%%-%,,,%%%,,%%%o%%,%%%%,%%%%=,,=:@12655556766666",
",,,,,-%&,,,X%%,,%%%%%-%%,%,,%%%%%%,,,%,%%-%>,%%%%@12555456666666",
",;%,,,%%,,%%%%%&%=%%+O%&%,,-=%&%%%%-,,-%%-,%%$%>%@12555555666666",
":%%>,,,,,%%%%%%%%=;,%%%%%%-,,%=%%%%%%,%%%,,%%%=%%O12555556666666",
"%%,,%%%,%%,=%%=-,,,,,%%%=%&%&,--,%%%%-=,=,%%&-,%%*12555666666666",
"=>;:%%&%%%%%;%%,,,=,%,,%%%,%X-%&,%&$%,&%%%;%%,,&,@13665666666666",
"%,,,,,%%,=,,,%%%==,,%%,&$%,,%$%&=%%%%,%%%->%>,=%:@13555566666666",
",,=%=%%%,,-,:,:%%,%%%%,,%%%,%%,,%,,%,,,&&=%,,;%%%O13556665566666",
",,%%%%%%,,%&%%,%X-%%%%,%%%=-%,,%=,,%&%,,,,%,,%%%%@12555566566666",
"-,=%-=%&,,%$%%=%%=,,%%%%%-=%-,%-,,$&,-:%%%%%%==%%@12555566667666",
",,,=,=%,%=%$,,&-%-,=%%%>,,%%,:%,,:%%%%%%-%%%%-=%%@12555666679666",
",%%,,%&,%%%%-,%%=,-%%=,,%,%%%&,%%,%%%=,=%%%:,,,,%@13556666667666",
">%%,,$%%;%$&,%%%%,%%,-,,-%&-,>,%%,%%-,,=%%%%%&=-%@13555666666666",
",,,-,%%,%%%%,%=,,,%%,%%,,-,&,%%%%=%%=%%%---%%%%%%@12555555666666",
"%%%%%%==%%,%%%>%%-,,%%-,%%,&%%%%%--%%%,,,%;=%--%,@13555555566666",
"%%=,=%%%%%==,,,%%%,,,%,=%=%-,%%%%&%%%%&,,%,,=,>%%@12555666666666",
"&%,,,%%%%%%%,,:,,,-,,%,,%%,%X%=%%%&&%%-,,%%%O%%%,O12555696666666",
":-,%%%%%&&%%,%%=%,==%%%,-%,,%=%%%%-%=,,,%%%%%,=,%.12555676666666",
"%%=%,%%%,&-%%%%%%-,,%%%-%%%---%%%-,,,=,,%%=,,%-,%.13555666666666",
"%==%,%%%&%=-%%-,,%,,,%-&%%O%%-,,%,%%,%%%%=%=%$%%%@13556566666666",
"%%,,,,=%%&,%%--,,%>,%%%%%%=,%,,,,:,-,-===%%%,%%%-@ 3666556566666",
"%%:-%-,>%;;%%%%,,,-,,>%,,%%%,,%=,%-,,,%%,%%=-%%--O13666656669667",
"&%-=%%-%%=,-%%=,,,-,,,,,=%%,,%%%-=,,,>%%%%%%=%=%%O13666666667666"
};
