/* XPM */
static const char *floor_64[] = {
/* columns rows colors chars-per-pixel */
"64 64 132 2 ",
"   c #1D1E1D",
".  c #1F211E",
"X  c #20221F",
"o  c #242623",
"O  c #272825",
"+  c #282A27",
"@  c #2B2D2A",
"#  c #2E302D",
"$  c #30322F",
"%  c #333532",
"&  c #363836",
"*  c #383A37",
"=  c #3B3D3A",
"-  c #3E403E",
";  c #40423F",
":  c #424442",
">  c #474845",
",  c #484A47",
"<  c #4C4E4B",
"1  c #4F504D",
"2  c #50524F",
"3  c #535552",
"4  c #575855",
"5  c #575855",
"6  c #585955",
"7  c #585956",
"8  c #585A56",
"9  c #595A56",
"0  c #595A57",
"q  c #595B57",
"w  c #595A57",
"e  c #595B58",
"r  c #5A5B58",
"t  c #5A5C58",
"y  c #5B5C58",
"u  c #5B5C59",
"i  c #5B5D59",
"p  c #5C5D59",
"a  c #5C5D5A",
"s  c #5C5E5A",
"d  c #5D5E5A",
"f  c #5D5E5B",
"g  c #5D5F5B",
"h  c #5E5F5B",
"j  c #5E5F5C",
"k  c #5C5D5A",
"l  c #5E605C",
"z  c #5F605C",
"x  c #5F605D",
"c  c #5F615D",
"v  c #5F605D",
"b  c #60615D",
"n  c #60615E",
"m  c #60625E",
"M  c #61625E",
"N  c #61625F",
"B  c #61635F",
"V  c #62635F",
"C  c #61625E",
"Z  c #636460",
"A  c #636461",
"S  c #636561",
"D  c #646561",
"F  c #646562",
"G  c #646662",
"H  c #656662",
"J  c #656663",
"K  c #656763",
"L  c #666763",
"P  c #666764",
"I  c #646562",
"U  c #666864",
"Y  c #676864",
"T  c #676965",
"R  c #676864",
"E  c #686965",
"W  c #686966",
"Q  c #686A66",
"!  c #696A66",
"~  c #696B66",
"^  c #696A67",
"/  c #696B67",
"(  c #6A6B67",
")  c #6A6C67",
"_  c #696A66",
"`  c #6A6B68",
"'  c #6A6C68",
"]  c #6B6C68",
"[  c #6B6D68",
"{  c #6B6D69",
"}  c #6C6D68",
"|  c #6C6D69",
" . c #6C6E69",
".. c #6D6E69",
"X. c #6C6E6A",
"o. c #6D6E6A",
"O. c #6E6F6B",
"+. c #6F6F6C",
"@. c #6B6C68",
"#. c #6F706C",
"$. c #6F706C",
"%. c #70716D",
"&. c #71726E",
"*. c #72736F",
"=. c #70716D",
"-. c #737470",
";. c #747572",
":. c #767773",
">. c #747571",
",. c #777874",
"<. c #777874",
"1. c #7A7B77",
"2. c #7B7B77",
"3. c #797975",
"4. c #7B7C78",
"5. c #7C7D79",
"6. c #7D7D79",
"7. c #7D7E7A",
"8. c #7E7E7A",
"9. c #7E7F7B",
"0. c #7F7F7B",
"q. c #7D7D79",
"w. c #7F807B",
"e. c #7F807C",
"r. c #7F807C",
"t. c #80807C",
"y. c #80817D",
"u. c #82827F",
"i. c #83837F",
"p. c #81827E",
"a. c #838480",
"s. c #838480",
/* pixels */
"O O o o o o O @ @ + o o O + @ O o o o o O + + O o o O + @ @ + o o o o o o o o o o o o o o + + O o + + @ + o O + + o o o O + + O ",
"O O o o o o @ - ; % o o O = - @ o o o o O = = @ o o + - : : = o o o o o o o o o o o o o O = - @ O = ; : = O + = = + o o O % % + ",
"O @ % - - ; = & & = ; & % & & % % % % % % & & % % = - & & & & = = = & % % $ O + @ % ; * % & & % % & & & & % % : ; & % % % # @ O ",
"+ & : d z b 3 + o - z < - @ + = : : : : : @ O = - 3 3 + o o $ 7 d y < : : = + @ & > A 2 - @ O = : @ o o + ; : : : : : : - + o o ",
"O # % - - - ; : : 1 z 3 1 > : & & < 1 & % : > < 1 < > & % % = < < < : = < 1 > ; # * 1 > : & & - : > : : : & & < 2 2 < & % ; - + ",
"O O O o o o $ y z d d d d j r % @ 3 7 @ + 3 b j d > - : : : : : : : = = 4 d d 2 + # : : : : : : : 7 d j 4 @ @ 4 d d 4 @ @ 3 4 @ ",
"+ % = , , , 2 J b = = z A 1 , = & * = < 2 b A 1 , : : 3 2 : = % # $ > 2 7 4 > : % % $ : 3 3 3 y 7 - = 4 y < > = - 7 y < < 7 3 @ ",
"@ = > d d d b } b @ @ z P , : : - @ @ z E E T , - : > d 7 : = O O O , d d 4 = = = & O > d d d E T % + 3 d d 3 + # 7 d d d d 3 @ ",
"@ < 3 d d J T { T 7 7 T E b z z j 7 4 J E E E b d d z P d % & 3 3 3 ; * d b 3 3 3 3 3 : & 3 d b b 2 1 y z J A 4 2 & : P E d 4 @ ",
"@ 3 d d z E E E E { { { E { { { { { ) E E E E { E E E ` d + % T { { = O d E d d d b } : O 2 j d d d j d z E E { j + & E } z 3 @ ",
"@ 3 z J J E E E ) E y 3 4 E { { { { { { E J b , > J } ,.&.2 3 E E E 3 < J E J T &.&.{ r < - = d J J J J J E E E J 1 3 b b d 3 @ ",
"# 4 b { { E E { E A > = : z E { ) { { { E b y & & J #.0.9.} { { E E E E E { } &.a.9.{ } E * @ 7 J E E E E { E J J ) E d r y 3 @ ",
"$ J &.9.2.} { { J > +   & > b { } } { { { E E J J { } } } ) { { { E b j E } 9.9.a.9.} } { b d - = b } { ) { A & * J E E J d 3 # ",
"$ T :.u.u.#.} { T < @ o & , A { { E E { } } } } } { { } { { { { T J z j E #.9.e.u.2.} } } } { b d b J E { #.E * = J ) T J 4 1 @ ",
"$ E :.u.i.u.9.} { E 3 > < A { { E z d { } } } } } } } } } ) { { 4 1 b E { } } } } } } } } } { { } j < J } 9.9.E T { E 4 3 > - @ ",
"# b &.9.e.u.9.} } { E E E { { } { b z T E } } } } } } #.#.} { { r 3 A } { { E E { { } J b E { { } b < z T 4.9.} { { E r 3 > ; @ ",
"@ 2 d } } } } } } } } } } } } } } { E 4 3 E } } } } &.u.9.} } } E E { { } E d b { } } > @ d } { } { J < > E } { { { { E E 4 < @ ",
"@ , 3 J J J A d d J J J J J J J J J A 3 3 A P b z J E :.-.P J J J J J J J A 7 y J J E , % 7 J J J J A 4 : z J J J J J J b 1 > @ ",
"+ = : 3 3 3 < & = 1 3 3 3 3 3 3 3 3 3 3 3 3 2 - = 1 3 3 3 3 3 3 3 3 3 3 3 3 3 3 3 3 3 2 1 2 3 3 3 3 3 1 & < 3 3 3 3 3 3 1 = & + ",
"O % & ; : : = # % - : : : : ; ; : : : : : : - % % - : : ; ; ; ; ; ; ; ; : : : : ; ; ; ; ; ; ; ; : : ; - @ = : ; ; ; : : - % % O ",
"o o o + O o o o o o o o o o o o o o o o o o o o o o o o o o o o o o o o o o o o o o o o o o o o o o o o o o o o o o o o o o o o ",
"O % ; b j < , , : o O > , , , , , , , , > & & > : o O > , , , , , > , > = = > , , , , , > > , , , > > , : o O > , , > @ : = & + ",
"+ * > #.} 4 3 3 < o + < 3 3 3 3 3 3 3 3 1 - - 1 < O + 1 3 3 3 3 3 3 3 1 ; : 2 3 3 3 3 3 3 3 3 3 3 3 3 3 < o + 1 4 b y % < - = + ",
"@ , 3 { { J A J d % & z J J Z = % y J A A z z A j % & z J A J A A A A A z z A A A A Z A A A J &.&.T A A d % & z J J < 4 z 1 , @ ",
"@ < r E { { { } J = - J { } E * @ z } } } } } } J = = J { { { { { { { { } } { ) { E E E E { } 4.9.&.{ } J = = T { J > J E 4 < @ ",
"@ < 3 4 r E } } E d z E ) { ) E E E { } } } } { E d d E { } E b T { { { { { { { { A < 7 E E { #.#.} { { E d d E { A , J E 4 < @ ",
"@ < 3 3 3 E } { { } } { ) { { 4.9.#.{ E E E } } } } } } { { E d A E ) } { { { { J 2 > , d E E E E E { E E { { { E 2 3 E T 4 < @ ",
"@ < 4 J E { { { { { { { { { { } } } T 1 > > b } } { { } { } { E 7 2 Z } { } { E E J J 4 > z } { ` E E b b E { E < 1 T { T 4 < @ ",
"@ < 7 { } } } } { } } { { { { { { { 2 = o o : J } } } } } { { E T y j T { } { { { { { E 3 7 E { ) { E b z b b y < J { E J 3 < @ ",
"@ < 7 { } } } } #.9.9.} { { { { } { < @ . . = A } } { { { { E d J { z y J } { { { } { { E 3 d E { { E d 3 > : > J { E d 7 3 < @ ",
"@ , 3 { } } E 7 d ,.2.} { } { } } { A < > > j E { } } { { { E b E } { E J { { { J < 7 { { J 4 J E J y 2 3 J Z 1 E { E z y 1 , @ ",
"@ = , E } } z @ # J } { { } } } { { } } { { } { { } } { { { { { } } } } ) E { T - O $ 7 { } d 4 3 = b } } { J 4 E { { { J > = @ ",
"@ : 1 { } } J : > J } { { T J E } } } } } } { { E Z A E { } } { { { T J E { { 3 @ O o ; T } J 7 7 7 E { { { T 3 T { { { J > = @ ",
"@ < y { } } } { { } } { E d y T } } } } { { { { E 2 3 E { { { { { { z y E } A & @ < ; + 3 E { } } } { { { { { j z { { { J > = + ",
"@ < 7 J J { } { } } { J A J J E } { { } { { { } E j j E { { { } } { J A E { , + , E d % $ A } { } { { { { { { T 4 E E J b < : @ ",
"@ < 4 j b { } } } } E d d E { } { { { { { { } { } } } { { { { T E { { { } 7 # * 7 = < 2 @ > ) { { { { { { { E ` d T E d 7 3 < @ ",
"@ 1 d :.,.2.2.{ { { { P T { } { { } J : ; A } { { { { { { E d d E E { } J = + 4 y O - E - # 4 } { Z b E { E E ` b b { J d 3 < @ ",
"@ < b u.s.a.9.} { { { { { J J J E } J # + j } { ) { { { E J y T { ) { { 4 + ; E y + - { b @ ; E { b d P { { { { J d E { T 4 < @ ",
"@ < y -.:.:.-.{ { { { E J < ; : y { E 3 3 J { E ) { { { J 4 T E { ) { A & + < } y O - { E > @ 3 { E E z E { { { E r A { E 4 < @ ",
"@ < 7 E E { { E E { ) T < = o . = J { } } { { { E T A 3 3 z { { { { E , O = T { d @ : { } 7 @ % b } { b b { { { { z Z } E 4 < @ ",
"@ < r E { } E j z E { T < % o . & 7 { { { { { { J = = d A E { { { } y @ # d { { J 4 z { { E < O ; { { T j E { { { E J E E 4 < @ ",
"@ < 7 E { { T y d E { { J , = = > Z { { { } ) E 2 & = J { { { { ) J ; O > E { { d $ > } } } d @ # 7 { ` b r z E { { { { E 4 < @ ",
"@ 1 4 b A E E J J { { { { J 3 1 b E E { { { T 7 < b J E E b A E E 3 + % A } } } b = < } } } E : O = E { E d 2 J } 2.2.} E 4 < @ ",
"@ 1 4 y d E { } { E E { E E E E E { E { { { j * b { E { E y j { E & o & > > > > > > > > > > > ; + @ z } { E d b #.u.e.#.E 4 < @ ",
"@ < 7 J T { { { A = = J ` E { { E { { E { A > 7 E { E E E T E { E < # @ @ @ @ @ @ @ @ @ @ @ @ @ @ = J } } } T Z } &.&.} E 4 < @ ",
"@ < 7 E { { { } b @ # b { { { ` E E E { J 1 > E { { { } } } } } { E b b b b b b b b b b b b b b b J } { { { E b E { { { T 4 < @ ",
"@ = < E E z b E E d d E } { { { E E T z 1 , J { { { } 4.2.} } } { { } } A J } } } } } } } } } } } } ) y r E { T E { E d y 3 < @ ",
"+ = < E E y d E { } { E E E E A r r 7 1 < J E E { { &.u.9.} } } } } } { z b } { } } } { E { } } } } E 3 3 E { { { { E 7 4 3 < @ ",
"@ , 4 E { E E E E { T 1 < A 4 z J E E J 3 E E ` { { } &.&.} } } } } } } E ) } } } } } J d J } } } } E , > T { { { E { E A > - + ",
"@ < 4 T E E E E E E J > : 3 r J T T T T 4 d T E E E E E ` { { { E E E T E E E E E E E b 7 J E E E E J > : A E E E E E E A : = + ",
"@ = > 3 4 4 4 4 3 4 3 = = 1 3 4 4 3 4 3 , : 3 3 3 4 4 4 4 4 4 4 4 3 : : 3 4 3 3 3 3 3 3 3 4 4 4 4 4 3 * & 2 3 4 4 4 3 4 3 - = + ",
"+ & - < < < < < < < < & & < 1 < < < < < , - < < < < < < < < < < < < = = , < < < < < < < < 1 1 < < < < % % < < < < < < < < = & + ",
"o + + @ @ @ @ @ @ @ @ O + @ @ @ @ @ @ @ @ + @ @ @ @ @ @ @ @ @ @ @ @ O O @ @ @ @ @ @ @ @ @ @ @ @ @ @ @ O O @ @ @ @ @ @ @ @ + O O ",
"+ % & : : : : = & ; : : : : : : : , , ; % - : : ; : - & = ; : : : : ; ; : : : : : * @ * : : : : ; : : : : ; ; ; ; ; ; ; - & % + ",
"+ = : 3 3 1 > , 2 3 3 3 3 3 3 3 4 b b 2 - 2 3 3 3 3 1 : > 3 3 3 3 3 3 3 3 3 3 3 3 > % > 3 3 3 3 3 3 3 3 3 3 3 3 3 3 3 3 2 : = + ",
"@ > 1 d d 1 3 d z z j j z z z z b J J 2 3 z z j j j d 4 4 j z z j z T E b j j j z 7 2 7 z z z z z z d < < d z d j z z 7 4 < > @ ",
"@ 1 r J d 3 T E E E E E E E E E ) E E < A E E E E E E E E E E E E E 2.9.} E E E E E E E E E E E E E J < < J E E E E E z d 4 < @ ",
"@ 1 4 2 > y T T T E T 7 4 T E E E E T < b E E E E E E E E E J z J E } #.E E E J 3 r E E E E E E E E E z j T T z z E E J A 3 < @ ",
"@ 1 < : 3 J J J T E J 1 < J E E E E J < A E E E E E E E E E J y A E E E E E E b , 3 E E E E E E E E E E E E T 7 r E E E P 4 < @ ",
"@ : = , 3 7 7 7 7 r 7 2 2 7 y z b y 4 > 3 r 7 1 < 4 7 r y y r 4 7 r 7 r r 7 r 4 1 3 y r r 2 < 4 r r y y y r r 3 3 r y y 4 > : @ ",
"@ & = 2 3 3 3 3 3 3 3 3 3 3 3 r y 3 3 > - < 2 : - < 3 3 3 3 3 3 3 3 3 3 2 3 3 3 3 3 3 3 3 > = < 3 3 3 3 3 3 3 3 3 3 3 3 1 - = @ ",
"+ % = > : = = > > > : = = : > , , > > : & : > - = : > > > > > > > > = = : : > > > > > ; = = = : : = = : > > : = = = = : : = = + ",
"+ & = = = @ @ = = = * @ @ = = = = = = = & % = = = = = = = = = = = = # @ & = = = = = = % @ & = = & @ @ & = = & @ @ @ @ & = = & + ",
"O @ @ @ @ O + @ @ @ @ O + @ @ @ @ @ @ @ @ + @ @ @ @ @ @ @ @ @ @ @ @ + + @ @ @ @ @ @ @ + O + @ @ @ + + @ @ @ @ O O O + @ @ @ @ O "
};
