/* XPM */
static const char *floor_edge_bottom[] = {
/* columns rows colors chars-per-pixel */
"64 64 31 1 ",
"  c #2C2A1F",
". c #332F1A",
"X c #373217",
"o c #383417",
"O c #373318",
"+ c #373419",
"@ c #34311C",
"# c #36341D",
"$ c #383318",
"% c #3A351B",
"& c #3C371B",
"* c #38331E",
"= c #3A361C",
"- c #3C371C",
"; c #3B381B",
": c #3C381B",
"> c #3B381C",
", c #3D391D",
"< c #3F3B1F",
"1 c #2D2A20",
"2 c #302E23",
"3 c #312F24",
"4 c #333127",
"5 c #353127",
"6 c #353228",
"7 c #37342A",
"8 c #38342A",
"9 c #38352A",
"0 c #403B1E",
"q c #413D1F",
"w c #403B20",
/* pixels */
"&%%%%::&%,,,,,,,%-%:,,,,,,,,,%=,%,%%%%:%%&,,-,%%%,%%,,,:;;:%%%&,",
"%%%=%-%%%,%%,,,,,,%%;,,%%%&,,=%,,,%%%,,%%%%%%,,%==%,,%,:%,,%%%%%",
"-:,=-,,=%,%%,=%%,;,%%,%%%,,%%,,,,,-,,,-%%%,,,o%>%%%,,;,,%&&,&,%,",
"=-,%%%,,%,,,&%%%,:,;,,,,%%,>%&&&%%=,,%%%%%,=,%:,%%,-%,,=,%%%-,%&",
"%%,,,%,>%,,,,-%=,%%,,,,%,,%&,%%%->%,-%%%%%;%,,,,,%,%%,,%,%%%,,:%",
"%,,%%%%%%%$=->%%,%%,,,%%,,%%,%%,,,%%&,:%%,,,,%%&-%-%%%-,,%,,=%%%",
",,%%%%%%>%o&%%%%%&%,%%,%%,-%%%,,%%-%%,,%-:,%;,%%>,%%%%&,,%,,%%,,",
"%>%%%%%%%,%,,&%%%%,,%&,%%,,%%%,,%>,,,%%%,,,%,,-%,,,%%,-%,%%,:,%%",
"%%%,,&%%%&;%%,,,,%%,,,,%%,&%%%,:,,,:&,%%;,%%,,&%%::,;,&%%:%-&,%&",
"-,,%&&%%%%%%=,,,>%%%,:,,%,,%%%%%%%%%%,:%%%O%,%>>%,%%,&;,%%,-%,%,",
",;,=,%%,,%%%%%%-,&,%%:,,%%=,,%%%%%%,,-%&&%%,,%,,,%%;,;%,,%,,,,%%",
"-%%-;%%,%%&%%%&,,%=%%X%&,o%,&,,:,,,-%%%%&%-,,%:%&%,,%,,,,,%%,,&%",
"%%%&%,,,%,,-,%%:,:%%%%%%%%%-%,,,,,%,,%%%%%,&,>:&-%%%%%%%%%,%&,,%",
"%%,%%%,,%%%,,%%,%%%%%%%%%,%%-%%,,>,,,,:%%%:,,%%,,%%,,,,,&-,>,,%%",
"%%-,%%:,>=%%&%,:%=-&%,,%%%,%%%%,%%,,%;%%%%%%%;,,=%%,%,>>,,,,-=%%",
",,,,%=,%;,%%-%%%%,-%&,%&=%,,:&=%%,,,%%%%=,%%%,-%%%%%%,,,,,,,%%%%",
">,,,%%,%%,%=%%X%-,,%%%%,,,%%%&%%%=%,%&,%%,%%,-$%%&,,%%&=%%,,%,,%",
",,%%-,:%-,,,,;,,>,,>;%%%%%%%%&%,,-%%%&,:,,%,,%%&:%,,%%=%&%%%>,,&",
"&-,,,&-,,%%-,,%%,=,;%%-%::%,,%%,,,%%%%%,,%%>%%%,,:%,,:%%-%%=,,,,",
",,,,,,,,,%%%,,%%,,,,%%%,,,%%,,,%,-&%%%%%%%%-&%%,%&,%::%%,%,,%=,>",
",,%,%%,,&,,%%>%%%%,%%&,,,,%%%=,%,%%,,&=-%,,%%%%,;%%=%%>&%%-,%%%%",
",>%%%%%%-%-=%;%%=,%%+-,%%,:,,%-,,,%%:,%%$%,&%%>=%%--,=,%%,,%,,%%",
",%%-%%,,-%,,%%,,,,%%%=,,%,-%,%%%%,,%%%%,,%%,%%%=,=>%%,,%,,,%,,,%",
":,%&,,,=,,,,>%%,&%%%:%%%%$%,,;$%,,%%,%%,,,%,%XX,,=%:%,,,:%,:%-%%",
"-,%%%,%%%,-%,%%%%%=%%,%%%$%-%%%%%=%%%%=,&;%,%%%-,,;,,%&:%%%&&,-%",
"%%%%%%%=%-%,,-%%%%%%,&%%%&,%X%&%%%,,%%=%%%,%%%,,,,%,&%%-%-,,,,,-",
"%%=%%,,%,,&%%=-%,,:,,,,%%,,%%%%=%%-:%%%%-:%%%%,,>%%=,,%%%,,%,%,,",
",:,%-,%,&&-%%%-,,%%,,,,%%&,%%%%>,,:%%,,=,,>%-%%,,>%>-,,&,,,,-%%%",
",,%%-%X,%,,%,-%%%X&,,%%%%%%&&,,%,%%%%,&%,,%%;%%;%,,=>,&%,-%,-%%%",
"%,,,&,%%%%,::,,%%-,&%%%,;%,,,:&%,-%%%%%%%,%%,&:%,,,%&=%%,,-%%,,,",
"%%,,%%=%%=,,%%,,%%-%&%%,%%o%%,&%%,%,%%,>%,,%%;%;,,,%&%&,=%%----,",
"%%,:%%%%%%%%,&%,&&-%%%$&,%%-%%,%%%%%%%,%%&-%%,;,&%%%:-,,,%,%%%,,",
",,,;=&%&&%%%,,=%-,,%%%%&,%,,-%,,,%%,%%-%%,,;,,,,%%,,;%>%,,=%%%%,",
"=%:,,%%&--,,:,,,%%%%%%:,,,%%-,%%%%,,,>,%=,,,,=%%=,,>,%%=-%%-,-%,",
",:,%,-&%-%%%%%,,:&%%%,,=,--%;,%%%$%,%%%%%>,,%%:,;%&%,&,%%,,,%-,,",
",,,%,%-%%%%%=&%%%%%&,,%%&%-,,%O%%%%;%%%-,,%,%%%,:%,,,%%%%,,,%,,,",
",,,,,=%%%=-%%,&,%%%&,,%%&%-,:%%%%%%%-%%,%%%&%%:,,&%%,,&,,,;%-,,,",
",,&%>,%%%%,%%-%,,,-,,%%;,,,,-,,,%-,%,&%%%%,%%,,,=%:>%%-,,,%%%%%,",
"%%%&,,-&,%,,%:,,%,,%,:%%,-&,,-%%%%%%,,%%,>&%%,,%%%%%%%%%-=%,,,%%",
"%%=%,,,,,%;=%%,&%%,%%%,,:%$=,,%%,-%=,>%&,;,,%%%%%%%%:&%%%%%,%&,%",
"%,=%%%:,,-;%,%,&%%=%%%%%%%%%=,,%;%,,%%,,%&-,,&%&--,,-%%%,%%%%%%%",
"%%%=%%%%%-%%%%,-,%,,,-%%>,,&%:,,,>,,%X%=%,,,%,&%%%%%,,,&,,%:0,%%",
"%%%==%%,:-%%%%%%,;%,,%%%=%--,,%&%-%=%%--%,,,%%,,%%%,%,:,,,%,,,,%",
"%=%=,%%,=%%:%%,,%%%%%,%&%%,,%%-%%%%%%%-,-,:,,,,0,,,,,,,,,,,,,::&",
"=,,=,%O=%%%,%%,,>%&%%,-%%%%%%-,%%%%%,&,,,,--,,,,00,,,,,,,,,-%%,,",
"%,%%%,%,-%:,-=%;,,,%$%,%%%%&%,,,%%%%,,:,,,,,%:,,->,,,,,,%,,,,%,,",
"-%%%,=%>-%&,-,%%=,,=%%,%%%,,%;%%;=%,,%-,,%%,%,0,,%,,,>,,%&%,,,qw",
"&,&%,,%%%%,,%%%%%:%%,%=:%,,&=,,%,%%,%%,,,,,,,,,:%,0,,,,,,,%0,,0,",
"&--%%%,%-%%%%%%%:,%%%%:,%-,%,,,,,%>,%%-,,,,,,,:,:0q,&,;,,,,,8,,,",
"OO@@..O@@@@@#@#@@@*O@@@@@@OO@@@@=@@O@@O##=@@#@#@@*=@@#@#@==@@*==",
"11 111111111111111111111   1111111111111111111111111111111111111",
"3333332322233223232223232222322333223332233233332233333333333333",
"6655555555555555555555665554445555555554567545555565655567656666",
"5665555555555555555555555555556655555544566555556666665666666666",
"6666555544555556555555555555568666655555554555566666666665666666",
"6655566655666556566554555555556666666555555555666666655666666666",
"6555678655666666566555554455555555666555555556666676645666666667",
"6656666655666665666656666555555566666656555555666666656666666677",
"6556666656666656666666776656666666666666666566666666677666666667",
"6666666666667666666666666666666666666666666666666666676666677766",
"7866666666678766666666666666666666666666666678666667666667788777",
"6666666665666666666666667666666666666766666666666676766666677667",
"6666666666666666666666668766666666666666666666666677766666666677",
"6766666666666666666666666666666666666666666666666677777666667777"
};
