/* XPM */
static const char *floor_edge_left[] = {
/* columns rows colors chars-per-pixel */
"64 64 31 1 ",
"  c #2C2A1F",
". c #332F1A",
"X c #373217",
"o c #373317",
"O c #383417",
"+ c #34301B",
"@ c #373419",
"# c #37331E",
"$ c #36341D",
"% c #393319",
"& c #3A3619",
"* c #3C371B",
"= c #38331E",
"- c #3B371C",
"; c #3C371C",
": c #3B381B",
"> c #3D381B",
", c #3B381C",
"< c #3C381C",
"1 c #3F3B1F",
"2 c #2D2B21",
"3 c #312E23",
"4 c #302E24",
"5 c #333126",
"6 c #343127",
"7 c #353328",
"8 c #363429",
"9 c #38352A",
"0 c #403B1F",
"q c #413D1F",
"w c #403B20",
/* pixels */
"77787777776642+*&;&-&&&-&&<<<<-;&&&<<&&<<<<<<;<<<,-&;<;&-<&&-;&*",
"87797777777742+;<&;<;&&<&&<<<;&<-&<<<&&<<&<<<;<<<&--&:<&,<<-;<&&",
"7777767667764 #;*&&<&&&--;;<<<<<<<<&<;&&&&&&<<&<<;<&&<<&&-<<<<&&",
"77777776676642#&&&&----&-*&<&-<*<<<&-&&&<;&<<<&<<<;*;-&<&&&<---&",
"77777777666642.&<<&<<--&<<-<<<<,&&;;;&&&<&&&<<;&&&&&<<;<-&&<&;&&",
"77777777766632.&<-<-&-&-<<<-&;&;&&<&<<&;<&&-<;<&-&-<&&**&&&&&<;>",
"77776679766632+<&&&+&:&<<;*&;*&&&--+;<&&<<&<<;<<<<<<&&&&&&&<<<->",
"77776677766642#&&<<-<<&<<;&&&&;;&&&<<&-&-<&<9<&&&<<<<<&&&-&-<-&*",
"77777666666632#;*;;--<&<<<&&&;;*&&&-*<-&<<;;<<<&:<&&*<;&--&&*&&&",
"77777666666632#&&;&&&;;;*&&-&&;&&;-<*<;<<&&<&&<<<<&<*&&*<&&<<<<<",
"77777777766632#&<;<&&&&,,<<;-&<&&<<<<*-;<<;<&&<-&-&<;&&,&&%<<&-<",
"77787777766642#&<<<<<&&&-<;*&&<&&<<&-&<&<<---;<-&&<;&&&&<;-<<&&<",
"77798777766632$&&;;&&&&<&&&*-&<<<&<<-&<<,-&&<<<&;;<<&&-&<&;<;<<<",
"77787777666632#&&;-&&&&&&>><;&<<<&<;--;&&&>-<<<&&-&&&&<<<&-;&;<;",
"77777677666632#&-&&<<&<<<<**&<9,&<<&;<&&&<&&&&<o&<&&*&<<&&&&&-<<",
"77777667676642#&&&:<<&;*;<<<&<<&<<&&<-&&<<&&&&<*&<<><;<<&&&-&-<<",
"77777777666632#>&-<,-<<-*&<&&;-;;&&&<<&%*<-&<<-;&&&<<<<<&*<<<<<-",
"77777777766642#<<<<&&,-&&<<&&*&<;&;+&<&&&<<&<-<<<-&<&;&&&;&&<:<;",
"77777777766632=&&<<*&&<-<;;&-&&<;;<*&*&&-&&<<<<<;;--;<&&<&&&<<&&",
"77777776666632+&&-&&&<<&&&<**-&&&;*<;;&&&&&&<,<&&;&--&&<<<<<<&&<",
"77777666666632+&<&%&&<<&&<<<<&&&&;&<<<<&<&@&&&-&;&&&&&<<&&<<<&><",
"77776776666632#&&&><<-;&&<&<<<&&&&&&<<*<-<;*&&&&<<&&o<<<*-<<<<<<",
"77777876666732#>-<<;&&&&<&&&-<>&%&;&<<&&&<<<&;&&&<&&&<<<<<&<<&<<",
"77777876666732#<<&&-;&&&<&<&&-<*;<<&&;&&&<&<<&&<*&&&<<<&&&&-<&&<",
"79877775666632#&&&&&&-,&*;<**<<<<&*&&-&&&&&<<<&<;&&&<&&&&&<<&&&<",
"78777765666632#;<&&&&*<&&;<&&;<&&&&&;<;%%<<<<<&<&&<&O&<<<<<<&<-<",
"7777766666663 +<<<&&<;<&%;<;;;;<&&<*<<<&;<<&&*&&<<-&&-<;<;&&<<;<",
"77777666666632+&;<*&<;*&-<<<<&-<<-<;&&&;<;<&&<&&<&&;<<-&&&&;<,<<",
"77777766666542#<-&&&&<&;<<<<<<<<&&<*&&o&<<<-<<&&<&;&;<&&&&<<&:<<",
"77776766676532#<<,<;&<><<;<&&<<&&<<<&&&&:&&-<;;;<&*<<&&&&-&-><-&",
"77777666797642#<<&<<;&<<&&<-+&&<<;*<&&;&%&;<<&,-;&&<<&&;<<&**<;;",
"77777766777542#<&&<,&;<&&*<*-&&<&&&&,-&-&&<&&<<&&<<<<&;<<<<**<<<",
"77777776766642-<<:&&&&<*<&&&-&&<&&<<<-&&<&<<<<<&&-<<<&&<--<;&<<,",
"77777776776642#&--&&*;,-;&;&&%&-&<;&;&&-<<<&<<;-<-<<<-&<<&<-&<<<",
"77777777776632#,--&&&&<<&&<&&&<-&&&&;;<&-<&&*&&-<<<&<&&<<;&--;&&",
"77777777766632+<<<&---<<-&&&,<<<-<&&&<<--&&<;&-<<<<<<<&<<&&<<<&&",
"77777766766642#&&<<;-&&&<<<;&-<-&&&&-&&&<&<<&&&&&&<<&<&<<&;;<<&&",
"77877766666642#&&&<;&&o&<<*&&&,--&&<<&&&&&<;*&;;&:<&&<<<-<<-&<<&",
"7777766666564 +;<;><;;&<-&&&&&<;<<&*<&;-&&&;&&<<&&>&&&<&&<<&-;<*",
"77777766665532$<<<<<;;-<;&&<;&&&&<&&-&&<<<&;&<*&-&&&&*&&&&&&-&-&",
"77777766666632$<<<<<;&;&<<&&<&-;&&&<<;&;<<%-&<<&-&&***&:<;&-&&&&",
"77777766667742-<<&<<<<<;:<&&<,<<*<<<<>;:<&&<&&<;<&&&&&&;<><&&;&*",
"77777766657842#<<&<;<<<<<*;&-<<<;<&&-&<&&&<<&&-&-&<<;&+&<<<<<<&<",
"77777666666632#<<<<<<<<<<&&;<<<:&&&-&&&<<<*&<,<&&&<<<<&&&&<&-<&<",
"77787666666632$<<&><<*&<&&&&&&<<;&<,;&&&&*&&;&<<&&<<<<<<<<<<<<&;",
"77797666666642#<<<<<<&<;&<<&&&;<<&*&&&&&o&&&&&&;<<&<&&&<<<&<&&<<",
"77777767766642$><0<<<<<&&<<<&>&<&&>&-<<&o&--&&&%;<&<><,;;&&<<&<&",
"77777777776642#<<<<00<&>&&<<<<&<<:--<<<;<--<;<*&&<<;&<<&&&<<<,&&",
"77777777777632#>&<;0<&&;-&-<<<-&&<<,<<<<<<&&-<<&&-<;;<*&<<;<&&-&",
"77777777777632=<<&,0<&&<&&&*&&<-&<<<,&<<--&&;>&;&&&&&-<<<<-;-&-;",
"78877778777642-q0<<<<*&<-&;&<;<<&<<<&&&,--;&<:<<-&&&<&&;<&;<<&&&",
"77777777777642#<<<<<<<&<----<&,<&&&-,,<<<&;--<<<&<<&<:&<*&&&;<<&",
"88777776777642#*<<<<<&<;<&&<<<<,>*;,<<><&&<&<<&&--<&-<<<&&&&&<<<",
"87777765676642$<<,<<<<<&;&&<&;&-;&-<<<&&<<-&;>&&<<<&<:;<<&-<<:&<",
"87777876776642#:<<<<<<<*&&;;&<&<<;&*<&&*<<<,&&;*<<<&<&:<;;;<<<<<",
"77777777777642$<<<<<<<*&&&<<&&<*<<***&;><-&*&&&-<,<&<<<&&<<&,<<;",
"87777777777742-<<;&<<<<<&;<<--;<<-<<<&;&<<&*<;*&<<*&<<&&<<<<<&&&",
"77787777777852-<<<<<<<<&&-<<<<&<&&<;<<;&&<<&&&&&<<;-<&&<&-&&&;<>",
"77787777777742-<>&<<<&&&&&&<<<&;<&;&<<<-<<<;<&&<<<<<-<<&&<<&&*<>",
"77798777777642#<0<<;<<>&<<&*<<;&&;;<<&<;<&-<<-&<<<<&&<;;<<<-&<&&",
"77798777777642#<<<<><<0&&<-;&&<&&;&;;<<*&<<&&<,&&;<*<<&;<&-<;;&-",
"87788777777742#<<<>-><<&;<-<<;;&&;<-&&<<;<<--<<<*-<<<<<<<*&<<<&&",
"78788787777742#<0q<<<<*&<&&<<<&&<;<&&<<<-<&&<<<<&&&<;&&*&<;<*&&;",
"88887888777642$<<w<<>&-&-&<<<<<<<<<&&<;&&&--,<*&&&&&&&<;&<*&;<-;"
};
